<?xml version="1.0" encoding="utf-8" standalone="no"?>
<!DOCTYPE svg PUBLIC "-//W3C//DTD SVG 1.1//EN"
  "http://www.w3.org/Graphics/SVG/1.1/DTD/svg11.dtd">
<!-- Created with matplotlib (http://matplotlib.org/) -->
<svg height="325pt" version="1.1" viewBox="0 0 433 325" width="433pt" xmlns="http://www.w3.org/2000/svg" xmlns:xlink="http://www.w3.org/1999/xlink">
 <defs>
  <style type="text/css">
*{stroke-linecap:butt;stroke-linejoin:round;}
  </style>
 </defs>
 <g id="figure_1">
  <g id="patch_1">
   <path d="M 0 325.986375 
L 433.873125 325.986375 
L 433.873125 0 
L 0 0 
z
" style="fill:#ffffff;"/>
  </g>
  <g id="axes_1">
   <g id="patch_2">
    <path d="M 66.053125 288.430125 
L 423.173125 288.430125 
L 423.173125 22.318125 
L 66.053125 22.318125 
z
" style="fill:#ffffff;"/>
   </g>
   <g id="PathCollection_1">
    <defs>
     <path d="M 0 3 
C 0.795609 3 1.55874 2.683901 2.12132 2.12132 
C 2.683901 1.55874 3 0.795609 3 0 
C 3 -0.795609 2.683901 -1.55874 2.12132 -2.12132 
C 1.55874 -2.683901 0.795609 -3 0 -3 
C -0.795609 -3 -1.55874 -2.683901 -2.12132 -2.12132 
C -2.683901 -1.55874 -3 -0.795609 -3 0 
C -3 0.795609 -2.683901 1.55874 -2.12132 2.12132 
C -1.55874 2.683901 -0.795609 3 0 3 
z
" id="mfca1b8dc75" style="stroke:#000000;"/>
    </defs>
    <g clip-path="url(#pda244ea012)">
     <use style="stroke:#000000;" x="66.053125" xlink:href="#mfca1b8dc75" y="28.316333"/>
     <use style="stroke:#000000;" x="66.123486" xlink:href="#mfca1b8dc75" y="22.318125"/>
     <use style="stroke:#000000;" x="66.198996" xlink:href="#mfca1b8dc75" y="41.291505"/>
     <use style="stroke:#000000;" x="66.281369" xlink:href="#mfca1b8dc75" y="45.264451"/>
     <use style="stroke:#000000;" x="66.367174" xlink:href="#mfca1b8dc75" y="47.794403"/>
     <use style="stroke:#000000;" x="66.458127" xlink:href="#mfca1b8dc75" y="35.143581"/>
     <use style="stroke:#000000;" x="66.559376" xlink:href="#mfca1b8dc75" y="37.775619"/>
     <use style="stroke:#000000;" x="66.672636" xlink:href="#mfca1b8dc75" y="52.989844"/>
     <use style="stroke:#000000;" x="66.791044" xlink:href="#mfca1b8dc75" y="77.171844"/>
     <use style="stroke:#000000;" x="66.923179" xlink:href="#mfca1b8dc75" y="63.769973"/>
     <use style="stroke:#000000;" x="67.060461" xlink:href="#mfca1b8dc75" y="92.208522"/>
     <use style="stroke:#000000;" x="67.209753" xlink:href="#mfca1b8dc75" y="118.306727"/>
     <use style="stroke:#000000;" x="67.374488" xlink:href="#mfca1b8dc75" y="106.378152"/>
     <use style="stroke:#000000;" x="67.554664" xlink:href="#mfca1b8dc75" y="106.058451"/>
     <use style="stroke:#000000;" x="67.757146" xlink:href="#mfca1b8dc75" y="111.680885"/>
     <use style="stroke:#000000;" x="67.978499" xlink:href="#mfca1b8dc75" y="128.893541"/>
     <use style="stroke:#000000;" x="68.222155" xlink:href="#mfca1b8dc75" y="119.542725"/>
     <use style="stroke:#000000;" x="68.488114" xlink:href="#mfca1b8dc75" y="132.623159"/>
     <use style="stroke:#000000;" x="68.776373" xlink:href="#mfca1b8dc75" y="158.454"/>
     <use style="stroke:#000000;" x="69.081784" xlink:href="#mfca1b8dc75" y="162.63147"/>
     <use style="stroke:#000000;" x="69.394051" xlink:href="#mfca1b8dc75" y="172.29422"/>
     <use style="stroke:#000000;" x="69.728615" xlink:href="#mfca1b8dc75" y="157.279106"/>
     <use style="stroke:#000000;" x="70.06832" xlink:href="#mfca1b8dc75" y="154.11037"/>
     <use style="stroke:#000000;" x="70.426887" xlink:href="#mfca1b8dc75" y="176.663622"/>
     <use style="stroke:#000000;" x="70.838628" xlink:href="#mfca1b8dc75" y="169.908187"/>
     <use style="stroke:#000000;" x="71.312116" xlink:href="#mfca1b8dc75" y="185.646019"/>
     <use style="stroke:#000000;" x="71.826759" xlink:href="#mfca1b8dc75" y="191.682061"/>
     <use style="stroke:#000000;" x="72.368831" xlink:href="#mfca1b8dc75" y="185.955188"/>
     <use style="stroke:#000000;" x="72.955479" xlink:href="#mfca1b8dc75" y="208.106542"/>
     <use style="stroke:#000000;" x="73.595276" xlink:href="#mfca1b8dc75" y="230.850903"/>
     <use style="stroke:#000000;" x="74.267632" xlink:href="#mfca1b8dc75" y="234.127829"/>
     <use style="stroke:#000000;" x="75.003415" xlink:href="#mfca1b8dc75" y="235.080945"/>
     <use style="stroke:#000000;" x="75.79061" xlink:href="#mfca1b8dc75" y="243.180141"/>
     <use style="stroke:#000000;" x="76.639497" xlink:href="#mfca1b8dc75" y="245.373815"/>
     <use style="stroke:#000000;" x="77.515771" xlink:href="#mfca1b8dc75" y="237.211455"/>
     <use style="stroke:#000000;" x="78.374844" xlink:href="#mfca1b8dc75" y="236.067614"/>
     <use style="stroke:#000000;" x="79.283588" xlink:href="#mfca1b8dc75" y="240.076878"/>
     <use style="stroke:#000000;" x="80.260853" xlink:href="#mfca1b8dc75" y="246.100416"/>
     <use style="stroke:#000000;" x="81.29634" xlink:href="#mfca1b8dc75" y="251.139228"/>
     <use style="stroke:#000000;" x="82.395175" xlink:href="#mfca1b8dc75" y="259.848568"/>
     <use style="stroke:#000000;" x="83.567631" xlink:href="#mfca1b8dc75" y="267.848224"/>
     <use style="stroke:#000000;" x="84.798266" xlink:href="#mfca1b8dc75" y="270.592497"/>
     <use style="stroke:#000000;" x="86.188172" xlink:href="#mfca1b8dc75" y="264.075256"/>
     <use style="stroke:#000000;" x="87.742447" xlink:href="#mfca1b8dc75" y="272.250384"/>
     <use style="stroke:#000000;" x="89.370228" xlink:href="#mfca1b8dc75" y="265.271494"/>
     <use style="stroke:#000000;" x="91.107468" xlink:href="#mfca1b8dc75" y="262.797218"/>
     <use style="stroke:#000000;" x="92.823941" xlink:href="#mfca1b8dc75" y="266.239937"/>
     <use style="stroke:#000000;" x="94.673806" xlink:href="#mfca1b8dc75" y="288.430125"/>
     <use style="stroke:#000000;" x="96.627893" xlink:href="#mfca1b8dc75" y="284.522946"/>
     <use style="stroke:#000000;" x="98.603974" xlink:href="#mfca1b8dc75" y="286.406834"/>
     <use style="stroke:#000000;" x="100.619162" xlink:href="#mfca1b8dc75" y="268.900321"/>
     <use style="stroke:#000000;" x="102.771011" xlink:href="#mfca1b8dc75" y="265.117881"/>
     <use style="stroke:#000000;" x="104.884884" xlink:href="#mfca1b8dc75" y="249.334317"/>
     <use style="stroke:#000000;" x="106.871811" xlink:href="#mfca1b8dc75" y="209.603078"/>
     <use style="stroke:#000000;" x="109.036411" xlink:href="#mfca1b8dc75" y="217.768865"/>
     <use style="stroke:#000000;" x="111.157916" xlink:href="#mfca1b8dc75" y="229.123144"/>
     <use style="stroke:#000000;" x="113.067006" xlink:href="#mfca1b8dc75" y="231.399957"/>
     <use style="stroke:#000000;" x="114.996366" xlink:href="#mfca1b8dc75" y="210.951164"/>
     <use style="stroke:#000000;" x="116.5253" xlink:href="#mfca1b8dc75" y="231.833261"/>
     <use style="stroke:#000000;" x="117.941217" xlink:href="#mfca1b8dc75" y="217.340504"/>
     <use style="stroke:#000000;" x="119.3929" xlink:href="#mfca1b8dc75" y="220.541322"/>
     <use style="stroke:#000000;" x="120.866664" xlink:href="#mfca1b8dc75" y="220.091882"/>
     <use style="stroke:#000000;" x="122.318052" xlink:href="#mfca1b8dc75" y="219.551903"/>
     <use style="stroke:#000000;" x="124.022265" xlink:href="#mfca1b8dc75" y="220.398344"/>
     <use style="stroke:#000000;" x="125.705762" xlink:href="#mfca1b8dc75" y="196.984706"/>
     <use style="stroke:#000000;" x="127.891456" xlink:href="#mfca1b8dc75" y="203.048813"/>
     <use style="stroke:#000000;" x="130.126371" xlink:href="#mfca1b8dc75" y="172.687058"/>
     <use style="stroke:#000000;" x="132.121776" xlink:href="#mfca1b8dc75" y="173.238201"/>
     <use style="stroke:#000000;" x="134.108365" xlink:href="#mfca1b8dc75" y="165.976017"/>
     <use style="stroke:#000000;" x="135.790682" xlink:href="#mfca1b8dc75" y="140.302364"/>
     <use style="stroke:#000000;" x="137.411336" xlink:href="#mfca1b8dc75" y="166.312634"/>
     <use style="stroke:#000000;" x="139.183769" xlink:href="#mfca1b8dc75" y="170.135158"/>
     <use style="stroke:#000000;" x="141.138655" xlink:href="#mfca1b8dc75" y="202.74241"/>
     <use style="stroke:#000000;" x="143.298109" xlink:href="#mfca1b8dc75" y="204.515489"/>
     <use style="stroke:#000000;" x="145.720068" xlink:href="#mfca1b8dc75" y="203.506079"/>
     <use style="stroke:#000000;" x="148.279837" xlink:href="#mfca1b8dc75" y="231.928374"/>
     <use style="stroke:#000000;" x="150.927865" xlink:href="#mfca1b8dc75" y="234.673427"/>
     <use style="stroke:#000000;" x="153.425299" xlink:href="#mfca1b8dc75" y="218.985947"/>
     <use style="stroke:#000000;" x="155.987112" xlink:href="#mfca1b8dc75" y="209.136869"/>
     <use style="stroke:#000000;" x="158.630313" xlink:href="#mfca1b8dc75" y="187.679784"/>
     <use style="stroke:#000000;" x="161.503176" xlink:href="#mfca1b8dc75" y="206.133087"/>
     <use style="stroke:#000000;" x="164.624318" xlink:href="#mfca1b8dc75" y="198.778643"/>
     <use style="stroke:#000000;" x="168.169085" xlink:href="#mfca1b8dc75" y="181.801283"/>
     <use style="stroke:#000000;" x="171.895264" xlink:href="#mfca1b8dc75" y="194.37026"/>
     <use style="stroke:#000000;" x="175.80952" xlink:href="#mfca1b8dc75" y="200.538895"/>
     <use style="stroke:#000000;" x="181.033681" xlink:href="#mfca1b8dc75" y="209.783537"/>
     <use style="stroke:#000000;" x="187.996856" xlink:href="#mfca1b8dc75" y="216.923689"/>
     <use style="stroke:#000000;" x="195.441398" xlink:href="#mfca1b8dc75" y="212.455262"/>
     <use style="stroke:#000000;" x="203.783014" xlink:href="#mfca1b8dc75" y="205.16963"/>
     <use style="stroke:#000000;" x="213.118659" xlink:href="#mfca1b8dc75" y="187.861449"/>
     <use style="stroke:#000000;" x="224.700777" xlink:href="#mfca1b8dc75" y="202.627939"/>
     <use style="stroke:#000000;" x="238.328956" xlink:href="#mfca1b8dc75" y="211.89847"/>
     <use style="stroke:#000000;" x="253.721262" xlink:href="#mfca1b8dc75" y="221.761434"/>
     <use style="stroke:#000000;" x="270.844966" xlink:href="#mfca1b8dc75" y="225.529076"/>
     <use style="stroke:#000000;" x="290.498136" xlink:href="#mfca1b8dc75" y="240.598057"/>
     <use style="stroke:#000000;" x="312.619805" xlink:href="#mfca1b8dc75" y="250.35901"/>
     <use style="stroke:#000000;" x="336.924058" xlink:href="#mfca1b8dc75" y="258.481433"/>
     <use style="stroke:#000000;" x="362.214562" xlink:href="#mfca1b8dc75" y="254.026847"/>
     <use style="stroke:#000000;" x="390.907445" xlink:href="#mfca1b8dc75" y="261.513957"/>
     <use style="stroke:#000000;" x="423.173125" xlink:href="#mfca1b8dc75" y="260.36204"/>
    </g>
   </g>
   <g id="matplotlib.axis_1">
    <g id="xtick_1">
     <g id="line2d_1">
      <defs>
       <path d="M 0 0 
L 0 3.5 
" id="md2fab9b679" style="stroke:#000000;stroke-width:0.8;"/>
      </defs>
      <g>
       <use style="stroke:#000000;stroke-width:0.8;" x="137.095541" xlink:href="#md2fab9b679" y="288.430125"/>
      </g>
     </g>
     <g id="text_1">
      <!-- 0.005 -->
      <defs>
       <path d="M 31.78125 66.40625 
Q 24.171875 66.40625 20.328125 58.90625 
Q 16.5 51.421875 16.5 36.375 
Q 16.5 21.390625 20.328125 13.890625 
Q 24.171875 6.390625 31.78125 6.390625 
Q 39.453125 6.390625 43.28125 13.890625 
Q 47.125 21.390625 47.125 36.375 
Q 47.125 51.421875 43.28125 58.90625 
Q 39.453125 66.40625 31.78125 66.40625 
z
M 31.78125 74.21875 
Q 44.046875 74.21875 50.515625 64.515625 
Q 56.984375 54.828125 56.984375 36.375 
Q 56.984375 17.96875 50.515625 8.265625 
Q 44.046875 -1.421875 31.78125 -1.421875 
Q 19.53125 -1.421875 13.0625 8.265625 
Q 6.59375 17.96875 6.59375 36.375 
Q 6.59375 54.828125 13.0625 64.515625 
Q 19.53125 74.21875 31.78125 74.21875 
z
" id="DejaVuSans-30"/>
       <path d="M 10.6875 12.40625 
L 21 12.40625 
L 21 0 
L 10.6875 0 
z
" id="DejaVuSans-2e"/>
       <path d="M 10.796875 72.90625 
L 49.515625 72.90625 
L 49.515625 64.59375 
L 19.828125 64.59375 
L 19.828125 46.734375 
Q 21.96875 47.46875 24.109375 47.828125 
Q 26.265625 48.1875 28.421875 48.1875 
Q 40.625 48.1875 47.75 41.5 
Q 54.890625 34.8125 54.890625 23.390625 
Q 54.890625 11.625 47.5625 5.09375 
Q 40.234375 -1.421875 26.90625 -1.421875 
Q 22.3125 -1.421875 17.546875 -0.640625 
Q 12.796875 0.140625 7.71875 1.703125 
L 7.71875 11.625 
Q 12.109375 9.234375 16.796875 8.0625 
Q 21.484375 6.890625 26.703125 6.890625 
Q 35.15625 6.890625 40.078125 11.328125 
Q 45.015625 15.765625 45.015625 23.390625 
Q 45.015625 31 40.078125 35.4375 
Q 35.15625 39.890625 26.703125 39.890625 
Q 22.75 39.890625 18.8125 39.015625 
Q 14.890625 38.140625 10.796875 36.28125 
z
" id="DejaVuSans-35"/>
      </defs>
      <g transform="translate(122.781479 303.028562)scale(0.1 -0.1)">
       <use xlink:href="#DejaVuSans-30"/>
       <use x="63.623047" xlink:href="#DejaVuSans-2e"/>
       <use x="95.410156" xlink:href="#DejaVuSans-30"/>
       <use x="159.033203" xlink:href="#DejaVuSans-30"/>
       <use x="222.65625" xlink:href="#DejaVuSans-35"/>
      </g>
     </g>
    </g>
    <g id="xtick_2">
     <g id="line2d_2">
      <g>
       <use style="stroke:#000000;stroke-width:0.8;" x="209.080146" xlink:href="#md2fab9b679" y="288.430125"/>
      </g>
     </g>
     <g id="text_2">
      <!-- 0.010 -->
      <defs>
       <path d="M 12.40625 8.296875 
L 28.515625 8.296875 
L 28.515625 63.921875 
L 10.984375 60.40625 
L 10.984375 69.390625 
L 28.421875 72.90625 
L 38.28125 72.90625 
L 38.28125 8.296875 
L 54.390625 8.296875 
L 54.390625 0 
L 12.40625 0 
z
" id="DejaVuSans-31"/>
      </defs>
      <g transform="translate(194.766083 303.028562)scale(0.1 -0.1)">
       <use xlink:href="#DejaVuSans-30"/>
       <use x="63.623047" xlink:href="#DejaVuSans-2e"/>
       <use x="95.410156" xlink:href="#DejaVuSans-30"/>
       <use x="159.033203" xlink:href="#DejaVuSans-31"/>
       <use x="222.65625" xlink:href="#DejaVuSans-30"/>
      </g>
     </g>
    </g>
    <g id="xtick_3">
     <g id="line2d_3">
      <g>
       <use style="stroke:#000000;stroke-width:0.8;" x="281.064751" xlink:href="#md2fab9b679" y="288.430125"/>
      </g>
     </g>
     <g id="text_3">
      <!-- 0.015 -->
      <g transform="translate(266.750688 303.028562)scale(0.1 -0.1)">
       <use xlink:href="#DejaVuSans-30"/>
       <use x="63.623047" xlink:href="#DejaVuSans-2e"/>
       <use x="95.410156" xlink:href="#DejaVuSans-30"/>
       <use x="159.033203" xlink:href="#DejaVuSans-31"/>
       <use x="222.65625" xlink:href="#DejaVuSans-35"/>
      </g>
     </g>
    </g>
    <g id="xtick_4">
     <g id="line2d_4">
      <g>
       <use style="stroke:#000000;stroke-width:0.8;" x="353.049355" xlink:href="#md2fab9b679" y="288.430125"/>
      </g>
     </g>
     <g id="text_4">
      <!-- 0.020 -->
      <defs>
       <path d="M 19.1875 8.296875 
L 53.609375 8.296875 
L 53.609375 0 
L 7.328125 0 
L 7.328125 8.296875 
Q 12.9375 14.109375 22.625 23.890625 
Q 32.328125 33.6875 34.8125 36.53125 
Q 39.546875 41.84375 41.421875 45.53125 
Q 43.3125 49.21875 43.3125 52.78125 
Q 43.3125 58.59375 39.234375 62.25 
Q 35.15625 65.921875 28.609375 65.921875 
Q 23.96875 65.921875 18.8125 64.3125 
Q 13.671875 62.703125 7.8125 59.421875 
L 7.8125 69.390625 
Q 13.765625 71.78125 18.9375 73 
Q 24.125 74.21875 28.421875 74.21875 
Q 39.75 74.21875 46.484375 68.546875 
Q 53.21875 62.890625 53.21875 53.421875 
Q 53.21875 48.921875 51.53125 44.890625 
Q 49.859375 40.875 45.40625 35.40625 
Q 44.1875 33.984375 37.640625 27.21875 
Q 31.109375 20.453125 19.1875 8.296875 
z
" id="DejaVuSans-32"/>
      </defs>
      <g transform="translate(338.735293 303.028562)scale(0.1 -0.1)">
       <use xlink:href="#DejaVuSans-30"/>
       <use x="63.623047" xlink:href="#DejaVuSans-2e"/>
       <use x="95.410156" xlink:href="#DejaVuSans-30"/>
       <use x="159.033203" xlink:href="#DejaVuSans-32"/>
       <use x="222.65625" xlink:href="#DejaVuSans-30"/>
      </g>
     </g>
    </g>
    <g id="text_5">
     <!-- Cross-Entropy -->
     <defs>
      <path d="M 64.40625 67.28125 
L 64.40625 56.890625 
Q 59.421875 61.53125 53.78125 63.8125 
Q 48.140625 66.109375 41.796875 66.109375 
Q 29.296875 66.109375 22.65625 58.46875 
Q 16.015625 50.828125 16.015625 36.375 
Q 16.015625 21.96875 22.65625 14.328125 
Q 29.296875 6.6875 41.796875 6.6875 
Q 48.140625 6.6875 53.78125 8.984375 
Q 59.421875 11.28125 64.40625 15.921875 
L 64.40625 5.609375 
Q 59.234375 2.09375 53.4375 0.328125 
Q 47.65625 -1.421875 41.21875 -1.421875 
Q 24.65625 -1.421875 15.125 8.703125 
Q 5.609375 18.84375 5.609375 36.375 
Q 5.609375 53.953125 15.125 64.078125 
Q 24.65625 74.21875 41.21875 74.21875 
Q 47.75 74.21875 53.53125 72.484375 
Q 59.328125 70.75 64.40625 67.28125 
z
" id="DejaVuSans-43"/>
      <path d="M 41.109375 46.296875 
Q 39.59375 47.171875 37.8125 47.578125 
Q 36.03125 48 33.890625 48 
Q 26.265625 48 22.1875 43.046875 
Q 18.109375 38.09375 18.109375 28.8125 
L 18.109375 0 
L 9.078125 0 
L 9.078125 54.6875 
L 18.109375 54.6875 
L 18.109375 46.1875 
Q 20.953125 51.171875 25.484375 53.578125 
Q 30.03125 56 36.53125 56 
Q 37.453125 56 38.578125 55.875 
Q 39.703125 55.765625 41.0625 55.515625 
z
" id="DejaVuSans-72"/>
      <path d="M 30.609375 48.390625 
Q 23.390625 48.390625 19.1875 42.75 
Q 14.984375 37.109375 14.984375 27.296875 
Q 14.984375 17.484375 19.15625 11.84375 
Q 23.34375 6.203125 30.609375 6.203125 
Q 37.796875 6.203125 41.984375 11.859375 
Q 46.1875 17.53125 46.1875 27.296875 
Q 46.1875 37.015625 41.984375 42.703125 
Q 37.796875 48.390625 30.609375 48.390625 
z
M 30.609375 56 
Q 42.328125 56 49.015625 48.375 
Q 55.71875 40.765625 55.71875 27.296875 
Q 55.71875 13.875 49.015625 6.21875 
Q 42.328125 -1.421875 30.609375 -1.421875 
Q 18.84375 -1.421875 12.171875 6.21875 
Q 5.515625 13.875 5.515625 27.296875 
Q 5.515625 40.765625 12.171875 48.375 
Q 18.84375 56 30.609375 56 
z
" id="DejaVuSans-6f"/>
      <path d="M 44.28125 53.078125 
L 44.28125 44.578125 
Q 40.484375 46.53125 36.375 47.5 
Q 32.28125 48.484375 27.875 48.484375 
Q 21.1875 48.484375 17.84375 46.4375 
Q 14.5 44.390625 14.5 40.28125 
Q 14.5 37.15625 16.890625 35.375 
Q 19.28125 33.59375 26.515625 31.984375 
L 29.59375 31.296875 
Q 39.15625 29.25 43.1875 25.515625 
Q 47.21875 21.78125 47.21875 15.09375 
Q 47.21875 7.46875 41.1875 3.015625 
Q 35.15625 -1.421875 24.609375 -1.421875 
Q 20.21875 -1.421875 15.453125 -0.5625 
Q 10.6875 0.296875 5.421875 2 
L 5.421875 11.28125 
Q 10.40625 8.6875 15.234375 7.390625 
Q 20.0625 6.109375 24.8125 6.109375 
Q 31.15625 6.109375 34.5625 8.28125 
Q 37.984375 10.453125 37.984375 14.40625 
Q 37.984375 18.0625 35.515625 20.015625 
Q 33.0625 21.96875 24.703125 23.78125 
L 21.578125 24.515625 
Q 13.234375 26.265625 9.515625 29.90625 
Q 5.8125 33.546875 5.8125 39.890625 
Q 5.8125 47.609375 11.28125 51.796875 
Q 16.75 56 26.8125 56 
Q 31.78125 56 36.171875 55.265625 
Q 40.578125 54.546875 44.28125 53.078125 
z
" id="DejaVuSans-73"/>
      <path d="M 4.890625 31.390625 
L 31.203125 31.390625 
L 31.203125 23.390625 
L 4.890625 23.390625 
z
" id="DejaVuSans-2d"/>
      <path d="M 9.8125 72.90625 
L 55.90625 72.90625 
L 55.90625 64.59375 
L 19.671875 64.59375 
L 19.671875 43.015625 
L 54.390625 43.015625 
L 54.390625 34.71875 
L 19.671875 34.71875 
L 19.671875 8.296875 
L 56.78125 8.296875 
L 56.78125 0 
L 9.8125 0 
z
" id="DejaVuSans-45"/>
      <path d="M 54.890625 33.015625 
L 54.890625 0 
L 45.90625 0 
L 45.90625 32.71875 
Q 45.90625 40.484375 42.875 44.328125 
Q 39.84375 48.1875 33.796875 48.1875 
Q 26.515625 48.1875 22.3125 43.546875 
Q 18.109375 38.921875 18.109375 30.90625 
L 18.109375 0 
L 9.078125 0 
L 9.078125 54.6875 
L 18.109375 54.6875 
L 18.109375 46.1875 
Q 21.34375 51.125 25.703125 53.5625 
Q 30.078125 56 35.796875 56 
Q 45.21875 56 50.046875 50.171875 
Q 54.890625 44.34375 54.890625 33.015625 
z
" id="DejaVuSans-6e"/>
      <path d="M 18.3125 70.21875 
L 18.3125 54.6875 
L 36.8125 54.6875 
L 36.8125 47.703125 
L 18.3125 47.703125 
L 18.3125 18.015625 
Q 18.3125 11.328125 20.140625 9.421875 
Q 21.96875 7.515625 27.59375 7.515625 
L 36.8125 7.515625 
L 36.8125 0 
L 27.59375 0 
Q 17.1875 0 13.234375 3.875 
Q 9.28125 7.765625 9.28125 18.015625 
L 9.28125 47.703125 
L 2.6875 47.703125 
L 2.6875 54.6875 
L 9.28125 54.6875 
L 9.28125 70.21875 
z
" id="DejaVuSans-74"/>
      <path d="M 18.109375 8.203125 
L 18.109375 -20.796875 
L 9.078125 -20.796875 
L 9.078125 54.6875 
L 18.109375 54.6875 
L 18.109375 46.390625 
Q 20.953125 51.265625 25.265625 53.625 
Q 29.59375 56 35.59375 56 
Q 45.5625 56 51.78125 48.09375 
Q 58.015625 40.1875 58.015625 27.296875 
Q 58.015625 14.40625 51.78125 6.484375 
Q 45.5625 -1.421875 35.59375 -1.421875 
Q 29.59375 -1.421875 25.265625 0.953125 
Q 20.953125 3.328125 18.109375 8.203125 
z
M 48.6875 27.296875 
Q 48.6875 37.203125 44.609375 42.84375 
Q 40.53125 48.484375 33.40625 48.484375 
Q 26.265625 48.484375 22.1875 42.84375 
Q 18.109375 37.203125 18.109375 27.296875 
Q 18.109375 17.390625 22.1875 11.75 
Q 26.265625 6.109375 33.40625 6.109375 
Q 40.53125 6.109375 44.609375 11.75 
Q 48.6875 17.390625 48.6875 27.296875 
z
" id="DejaVuSans-70"/>
      <path d="M 32.171875 -5.078125 
Q 28.375 -14.84375 24.75 -17.8125 
Q 21.140625 -20.796875 15.09375 -20.796875 
L 7.90625 -20.796875 
L 7.90625 -13.28125 
L 13.1875 -13.28125 
Q 16.890625 -13.28125 18.9375 -11.515625 
Q 21 -9.765625 23.484375 -3.21875 
L 25.09375 0.875 
L 2.984375 54.6875 
L 12.5 54.6875 
L 29.59375 11.921875 
L 46.6875 54.6875 
L 56.203125 54.6875 
z
" id="DejaVuSans-79"/>
     </defs>
     <g transform="translate(209.46 316.706687)scale(0.1 -0.1)">
      <use xlink:href="#DejaVuSans-43"/>
      <use x="69.824219" xlink:href="#DejaVuSans-72"/>
      <use x="110.90625" xlink:href="#DejaVuSans-6f"/>
      <use x="172.087891" xlink:href="#DejaVuSans-73"/>
      <use x="224.1875" xlink:href="#DejaVuSans-73"/>
      <use x="276.287109" xlink:href="#DejaVuSans-2d"/>
      <use x="312.371094" xlink:href="#DejaVuSans-45"/>
      <use x="375.554688" xlink:href="#DejaVuSans-6e"/>
      <use x="438.933594" xlink:href="#DejaVuSans-74"/>
      <use x="478.142578" xlink:href="#DejaVuSans-72"/>
      <use x="519.224609" xlink:href="#DejaVuSans-6f"/>
      <use x="580.40625" xlink:href="#DejaVuSans-70"/>
      <use x="643.882812" xlink:href="#DejaVuSans-79"/>
     </g>
    </g>
   </g>
   <g id="matplotlib.axis_2">
    <g id="ytick_1">
     <g id="line2d_5">
      <defs>
       <path d="M 0 0 
L -3.5 0 
" id="mec438fde30" style="stroke:#000000;stroke-width:0.8;"/>
      </defs>
      <g>
       <use style="stroke:#000000;stroke-width:0.8;" x="66.053125" xlink:href="#mec438fde30" y="271.14292"/>
      </g>
     </g>
     <g id="text_6">
      <!-- 200000 -->
      <g transform="translate(20.878125 274.942138)scale(0.1 -0.1)">
       <use xlink:href="#DejaVuSans-32"/>
       <use x="63.623047" xlink:href="#DejaVuSans-30"/>
       <use x="127.246094" xlink:href="#DejaVuSans-30"/>
       <use x="190.869141" xlink:href="#DejaVuSans-30"/>
       <use x="254.492188" xlink:href="#DejaVuSans-30"/>
       <use x="318.115234" xlink:href="#DejaVuSans-30"/>
      </g>
     </g>
    </g>
    <g id="ytick_2">
     <g id="line2d_6">
      <g>
       <use style="stroke:#000000;stroke-width:0.8;" x="66.053125" xlink:href="#mec438fde30" y="224.071844"/>
      </g>
     </g>
     <g id="text_7">
      <!-- 250000 -->
      <g transform="translate(20.878125 227.871063)scale(0.1 -0.1)">
       <use xlink:href="#DejaVuSans-32"/>
       <use x="63.623047" xlink:href="#DejaVuSans-35"/>
       <use x="127.246094" xlink:href="#DejaVuSans-30"/>
       <use x="190.869141" xlink:href="#DejaVuSans-30"/>
       <use x="254.492188" xlink:href="#DejaVuSans-30"/>
       <use x="318.115234" xlink:href="#DejaVuSans-30"/>
      </g>
     </g>
    </g>
    <g id="ytick_3">
     <g id="line2d_7">
      <g>
       <use style="stroke:#000000;stroke-width:0.8;" x="66.053125" xlink:href="#mec438fde30" y="177.000769"/>
      </g>
     </g>
     <g id="text_8">
      <!-- 300000 -->
      <defs>
       <path d="M 40.578125 39.3125 
Q 47.65625 37.796875 51.625 33 
Q 55.609375 28.21875 55.609375 21.1875 
Q 55.609375 10.40625 48.1875 4.484375 
Q 40.765625 -1.421875 27.09375 -1.421875 
Q 22.515625 -1.421875 17.65625 -0.515625 
Q 12.796875 0.390625 7.625 2.203125 
L 7.625 11.71875 
Q 11.71875 9.328125 16.59375 8.109375 
Q 21.484375 6.890625 26.8125 6.890625 
Q 36.078125 6.890625 40.9375 10.546875 
Q 45.796875 14.203125 45.796875 21.1875 
Q 45.796875 27.640625 41.28125 31.265625 
Q 36.765625 34.90625 28.71875 34.90625 
L 20.21875 34.90625 
L 20.21875 43.015625 
L 29.109375 43.015625 
Q 36.375 43.015625 40.234375 45.921875 
Q 44.09375 48.828125 44.09375 54.296875 
Q 44.09375 59.90625 40.109375 62.90625 
Q 36.140625 65.921875 28.71875 65.921875 
Q 24.65625 65.921875 20.015625 65.03125 
Q 15.375 64.15625 9.8125 62.3125 
L 9.8125 71.09375 
Q 15.4375 72.65625 20.34375 73.4375 
Q 25.25 74.21875 29.59375 74.21875 
Q 40.828125 74.21875 47.359375 69.109375 
Q 53.90625 64.015625 53.90625 55.328125 
Q 53.90625 49.265625 50.4375 45.09375 
Q 46.96875 40.921875 40.578125 39.3125 
z
" id="DejaVuSans-33"/>
      </defs>
      <g transform="translate(20.878125 180.799988)scale(0.1 -0.1)">
       <use xlink:href="#DejaVuSans-33"/>
       <use x="63.623047" xlink:href="#DejaVuSans-30"/>
       <use x="127.246094" xlink:href="#DejaVuSans-30"/>
       <use x="190.869141" xlink:href="#DejaVuSans-30"/>
       <use x="254.492188" xlink:href="#DejaVuSans-30"/>
       <use x="318.115234" xlink:href="#DejaVuSans-30"/>
      </g>
     </g>
    </g>
    <g id="ytick_4">
     <g id="line2d_8">
      <g>
       <use style="stroke:#000000;stroke-width:0.8;" x="66.053125" xlink:href="#mec438fde30" y="129.929693"/>
      </g>
     </g>
     <g id="text_9">
      <!-- 350000 -->
      <g transform="translate(20.878125 133.728912)scale(0.1 -0.1)">
       <use xlink:href="#DejaVuSans-33"/>
       <use x="63.623047" xlink:href="#DejaVuSans-35"/>
       <use x="127.246094" xlink:href="#DejaVuSans-30"/>
       <use x="190.869141" xlink:href="#DejaVuSans-30"/>
       <use x="254.492188" xlink:href="#DejaVuSans-30"/>
       <use x="318.115234" xlink:href="#DejaVuSans-30"/>
      </g>
     </g>
    </g>
    <g id="ytick_5">
     <g id="line2d_9">
      <g>
       <use style="stroke:#000000;stroke-width:0.8;" x="66.053125" xlink:href="#mec438fde30" y="82.858618"/>
      </g>
     </g>
     <g id="text_10">
      <!-- 400000 -->
      <defs>
       <path d="M 37.796875 64.3125 
L 12.890625 25.390625 
L 37.796875 25.390625 
z
M 35.203125 72.90625 
L 47.609375 72.90625 
L 47.609375 25.390625 
L 58.015625 25.390625 
L 58.015625 17.1875 
L 47.609375 17.1875 
L 47.609375 0 
L 37.796875 0 
L 37.796875 17.1875 
L 4.890625 17.1875 
L 4.890625 26.703125 
z
" id="DejaVuSans-34"/>
      </defs>
      <g transform="translate(20.878125 86.657837)scale(0.1 -0.1)">
       <use xlink:href="#DejaVuSans-34"/>
       <use x="63.623047" xlink:href="#DejaVuSans-30"/>
       <use x="127.246094" xlink:href="#DejaVuSans-30"/>
       <use x="190.869141" xlink:href="#DejaVuSans-30"/>
       <use x="254.492188" xlink:href="#DejaVuSans-30"/>
       <use x="318.115234" xlink:href="#DejaVuSans-30"/>
      </g>
     </g>
    </g>
    <g id="ytick_6">
     <g id="line2d_10">
      <g>
       <use style="stroke:#000000;stroke-width:0.8;" x="66.053125" xlink:href="#mec438fde30" y="35.787543"/>
      </g>
     </g>
     <g id="text_11">
      <!-- 450000 -->
      <g transform="translate(20.878125 39.586761)scale(0.1 -0.1)">
       <use xlink:href="#DejaVuSans-34"/>
       <use x="63.623047" xlink:href="#DejaVuSans-35"/>
       <use x="127.246094" xlink:href="#DejaVuSans-30"/>
       <use x="190.869141" xlink:href="#DejaVuSans-30"/>
       <use x="254.492188" xlink:href="#DejaVuSans-30"/>
       <use x="318.115234" xlink:href="#DejaVuSans-30"/>
      </g>
     </g>
    </g>
    <g id="text_12">
     <!-- Persistence Distance -->
     <defs>
      <path d="M 19.671875 64.796875 
L 19.671875 37.40625 
L 32.078125 37.40625 
Q 38.96875 37.40625 42.71875 40.96875 
Q 46.484375 44.53125 46.484375 51.125 
Q 46.484375 57.671875 42.71875 61.234375 
Q 38.96875 64.796875 32.078125 64.796875 
z
M 9.8125 72.90625 
L 32.078125 72.90625 
Q 44.34375 72.90625 50.609375 67.359375 
Q 56.890625 61.8125 56.890625 51.125 
Q 56.890625 40.328125 50.609375 34.8125 
Q 44.34375 29.296875 32.078125 29.296875 
L 19.671875 29.296875 
L 19.671875 0 
L 9.8125 0 
z
" id="DejaVuSans-50"/>
      <path d="M 56.203125 29.59375 
L 56.203125 25.203125 
L 14.890625 25.203125 
Q 15.484375 15.921875 20.484375 11.0625 
Q 25.484375 6.203125 34.421875 6.203125 
Q 39.59375 6.203125 44.453125 7.46875 
Q 49.3125 8.734375 54.109375 11.28125 
L 54.109375 2.78125 
Q 49.265625 0.734375 44.1875 -0.34375 
Q 39.109375 -1.421875 33.890625 -1.421875 
Q 20.796875 -1.421875 13.15625 6.1875 
Q 5.515625 13.8125 5.515625 26.8125 
Q 5.515625 40.234375 12.765625 48.109375 
Q 20.015625 56 32.328125 56 
Q 43.359375 56 49.78125 48.890625 
Q 56.203125 41.796875 56.203125 29.59375 
z
M 47.21875 32.234375 
Q 47.125 39.59375 43.09375 43.984375 
Q 39.0625 48.390625 32.421875 48.390625 
Q 24.90625 48.390625 20.390625 44.140625 
Q 15.875 39.890625 15.1875 32.171875 
z
" id="DejaVuSans-65"/>
      <path d="M 9.421875 54.6875 
L 18.40625 54.6875 
L 18.40625 0 
L 9.421875 0 
z
M 9.421875 75.984375 
L 18.40625 75.984375 
L 18.40625 64.59375 
L 9.421875 64.59375 
z
" id="DejaVuSans-69"/>
      <path d="M 48.78125 52.59375 
L 48.78125 44.1875 
Q 44.96875 46.296875 41.140625 47.34375 
Q 37.3125 48.390625 33.40625 48.390625 
Q 24.65625 48.390625 19.8125 42.84375 
Q 14.984375 37.3125 14.984375 27.296875 
Q 14.984375 17.28125 19.8125 11.734375 
Q 24.65625 6.203125 33.40625 6.203125 
Q 37.3125 6.203125 41.140625 7.25 
Q 44.96875 8.296875 48.78125 10.40625 
L 48.78125 2.09375 
Q 45.015625 0.34375 40.984375 -0.53125 
Q 36.96875 -1.421875 32.421875 -1.421875 
Q 20.0625 -1.421875 12.78125 6.34375 
Q 5.515625 14.109375 5.515625 27.296875 
Q 5.515625 40.671875 12.859375 48.328125 
Q 20.21875 56 33.015625 56 
Q 37.15625 56 41.109375 55.140625 
Q 45.0625 54.296875 48.78125 52.59375 
z
" id="DejaVuSans-63"/>
      <path id="DejaVuSans-20"/>
      <path d="M 19.671875 64.796875 
L 19.671875 8.109375 
L 31.59375 8.109375 
Q 46.6875 8.109375 53.6875 14.9375 
Q 60.6875 21.78125 60.6875 36.53125 
Q 60.6875 51.171875 53.6875 57.984375 
Q 46.6875 64.796875 31.59375 64.796875 
z
M 9.8125 72.90625 
L 30.078125 72.90625 
Q 51.265625 72.90625 61.171875 64.09375 
Q 71.09375 55.28125 71.09375 36.53125 
Q 71.09375 17.671875 61.125 8.828125 
Q 51.171875 0 30.078125 0 
L 9.8125 0 
z
" id="DejaVuSans-44"/>
      <path d="M 34.28125 27.484375 
Q 23.390625 27.484375 19.1875 25 
Q 14.984375 22.515625 14.984375 16.5 
Q 14.984375 11.71875 18.140625 8.90625 
Q 21.296875 6.109375 26.703125 6.109375 
Q 34.1875 6.109375 38.703125 11.40625 
Q 43.21875 16.703125 43.21875 25.484375 
L 43.21875 27.484375 
z
M 52.203125 31.203125 
L 52.203125 0 
L 43.21875 0 
L 43.21875 8.296875 
Q 40.140625 3.328125 35.546875 0.953125 
Q 30.953125 -1.421875 24.3125 -1.421875 
Q 15.921875 -1.421875 10.953125 3.296875 
Q 6 8.015625 6 15.921875 
Q 6 25.140625 12.171875 29.828125 
Q 18.359375 34.515625 30.609375 34.515625 
L 43.21875 34.515625 
L 43.21875 35.40625 
Q 43.21875 41.609375 39.140625 45 
Q 35.0625 48.390625 27.6875 48.390625 
Q 23 48.390625 18.546875 47.265625 
Q 14.109375 46.140625 10.015625 43.890625 
L 10.015625 52.203125 
Q 14.9375 54.109375 19.578125 55.046875 
Q 24.21875 56 28.609375 56 
Q 40.484375 56 46.34375 49.84375 
Q 52.203125 43.703125 52.203125 31.203125 
z
" id="DejaVuSans-61"/>
     </defs>
     <g transform="translate(14.798438 207.599906)rotate(-90)scale(0.1 -0.1)">
      <use xlink:href="#DejaVuSans-50"/>
      <use x="60.255859" xlink:href="#DejaVuSans-65"/>
      <use x="121.779297" xlink:href="#DejaVuSans-72"/>
      <use x="162.892578" xlink:href="#DejaVuSans-73"/>
      <use x="214.992188" xlink:href="#DejaVuSans-69"/>
      <use x="242.775391" xlink:href="#DejaVuSans-73"/>
      <use x="294.875" xlink:href="#DejaVuSans-74"/>
      <use x="334.083984" xlink:href="#DejaVuSans-65"/>
      <use x="395.607422" xlink:href="#DejaVuSans-6e"/>
      <use x="458.986328" xlink:href="#DejaVuSans-63"/>
      <use x="513.966797" xlink:href="#DejaVuSans-65"/>
      <use x="575.490234" xlink:href="#DejaVuSans-20"/>
      <use x="607.277344" xlink:href="#DejaVuSans-44"/>
      <use x="684.279297" xlink:href="#DejaVuSans-69"/>
      <use x="712.0625" xlink:href="#DejaVuSans-73"/>
      <use x="764.162109" xlink:href="#DejaVuSans-74"/>
      <use x="803.371094" xlink:href="#DejaVuSans-61"/>
      <use x="864.650391" xlink:href="#DejaVuSans-6e"/>
      <use x="928.029297" xlink:href="#DejaVuSans-63"/>
      <use x="983.009766" xlink:href="#DejaVuSans-65"/>
     </g>
    </g>
   </g>
   <g id="line2d_11">
    <path clip-path="url(#pda244ea012)" d="M 66.053125 159.986348 
L 66.123486 160.052735 
L 66.198996 160.123978 
L 66.281369 160.201698 
L 66.367174 160.282655 
L 66.458127 160.36847 
L 66.559376 160.463999 
L 66.672636 160.57086 
L 66.791044 160.682579 
L 66.923179 160.807249 
L 67.060461 160.936775 
L 67.209753 161.077633 
L 67.374488 161.233061 
L 67.554664 161.403058 
L 67.757146 161.594101 
L 67.978499 161.802949 
L 68.222155 162.03284 
L 68.488114 162.283773 
L 68.776373 162.555746 
L 69.081784 162.843903 
L 69.394051 163.138529 
L 69.728615 163.454192 
L 70.06832 163.774705 
L 70.426887 164.113015 
L 70.838628 164.501495 
L 71.312116 164.948233 
L 71.826759 165.433802 
L 72.368831 165.945249 
L 72.955479 166.498754 
L 73.595276 167.102406 
L 74.267632 167.736778 
L 75.003415 168.430993 
L 75.79061 169.173715 
L 76.639497 169.974644 
L 77.515771 170.801413 
L 78.374844 171.611953 
L 79.283588 172.469357 
L 80.260853 173.391412 
L 81.29634 174.368399 
L 82.395175 175.405156 
L 83.567631 176.511374 
L 84.798266 177.672484 
L 86.188172 178.983868 
L 87.742447 180.450334 
L 89.370228 181.986153 
L 91.107468 183.625249 
L 92.823941 185.24475 
L 94.673806 186.990106 
L 96.627893 188.833798 
L 98.603974 190.69824 
L 100.619162 192.59958 
L 102.771011 194.62986 
L 104.884884 196.62431 
L 106.871811 198.498986 
L 109.036411 200.541297 
L 111.157916 202.542948 
L 113.067006 204.344184 
L 114.996366 206.164545 
L 116.5253 207.607102 
L 117.941217 208.943027 
L 119.3929 210.312697 
L 120.866664 211.7032 
L 122.318052 213.072593 
L 124.022265 214.680526 
L 125.705762 216.268914 
L 127.891456 218.331128 
L 130.126371 220.439781 
L 132.121776 222.322456 
L 134.108365 224.196813 
L 135.790682 225.784088 
L 137.411336 227.313182 
L 139.183769 228.985483 
L 141.138655 230.829927 
L 143.298109 232.867383 
L 145.720068 235.152514 
L 148.279837 237.567668 
L 150.927865 240.066096 
L 153.425299 242.422438 
L 155.987112 244.839522 
L 158.630313 247.333395 
L 161.503176 250.043956 
L 164.624318 252.988769 
L 168.169085 256.333275 
L 171.895264 259.848944 
L 175.80952 263.542064 
L 181.033681 268.471087 
L 187.996856 275.040878 
L 195.441398 282.064841 
L 203.783014 289.935198 
L 213.118659 298.743426 
L 224.700777 309.671213 
L 238.328956 322.529469 
L 243.052731 326.986375 
" style="fill:none;stroke:#c0c0c0;stroke-linecap:square;stroke-width:3;"/>
   </g>
   <g id="patch_3">
    <path d="M 66.053125 288.430125 
L 66.053125 22.318125 
" style="fill:none;stroke:#000000;stroke-linecap:square;stroke-linejoin:miter;stroke-width:0.8;"/>
   </g>
   <g id="patch_4">
    <path d="M 423.173125 288.430125 
L 423.173125 22.318125 
" style="fill:none;stroke:#000000;stroke-linecap:square;stroke-linejoin:miter;stroke-width:0.8;"/>
   </g>
   <g id="patch_5">
    <path d="M 66.053125 288.430125 
L 423.173125 288.430125 
" style="fill:none;stroke:#000000;stroke-linecap:square;stroke-linejoin:miter;stroke-width:0.8;"/>
   </g>
   <g id="patch_6">
    <path d="M 66.053125 22.318125 
L 423.173125 22.318125 
" style="fill:none;stroke:#000000;stroke-linecap:square;stroke-linejoin:miter;stroke-width:0.8;"/>
   </g>
   <g id="text_13">
    <!-- Cross-Entropy vs Persistence Distance -->
    <defs>
     <path d="M 2.984375 54.6875 
L 12.5 54.6875 
L 29.59375 8.796875 
L 46.6875 54.6875 
L 56.203125 54.6875 
L 35.6875 0 
L 23.484375 0 
z
" id="DejaVuSans-76"/>
    </defs>
    <g transform="translate(129.267813 16.318125)scale(0.12 -0.12)">
     <use xlink:href="#DejaVuSans-43"/>
     <use x="69.824219" xlink:href="#DejaVuSans-72"/>
     <use x="110.90625" xlink:href="#DejaVuSans-6f"/>
     <use x="172.087891" xlink:href="#DejaVuSans-73"/>
     <use x="224.1875" xlink:href="#DejaVuSans-73"/>
     <use x="276.287109" xlink:href="#DejaVuSans-2d"/>
     <use x="312.371094" xlink:href="#DejaVuSans-45"/>
     <use x="375.554688" xlink:href="#DejaVuSans-6e"/>
     <use x="438.933594" xlink:href="#DejaVuSans-74"/>
     <use x="478.142578" xlink:href="#DejaVuSans-72"/>
     <use x="519.224609" xlink:href="#DejaVuSans-6f"/>
     <use x="580.40625" xlink:href="#DejaVuSans-70"/>
     <use x="643.882812" xlink:href="#DejaVuSans-79"/>
     <use x="703.0625" xlink:href="#DejaVuSans-20"/>
     <use x="734.849609" xlink:href="#DejaVuSans-76"/>
     <use x="794.029297" xlink:href="#DejaVuSans-73"/>
     <use x="846.128906" xlink:href="#DejaVuSans-20"/>
     <use x="877.916016" xlink:href="#DejaVuSans-50"/>
     <use x="938.171875" xlink:href="#DejaVuSans-65"/>
     <use x="999.695312" xlink:href="#DejaVuSans-72"/>
     <use x="1040.808594" xlink:href="#DejaVuSans-73"/>
     <use x="1092.908203" xlink:href="#DejaVuSans-69"/>
     <use x="1120.691406" xlink:href="#DejaVuSans-73"/>
     <use x="1172.791016" xlink:href="#DejaVuSans-74"/>
     <use x="1212" xlink:href="#DejaVuSans-65"/>
     <use x="1273.523438" xlink:href="#DejaVuSans-6e"/>
     <use x="1336.902344" xlink:href="#DejaVuSans-63"/>
     <use x="1391.882812" xlink:href="#DejaVuSans-65"/>
     <use x="1453.40625" xlink:href="#DejaVuSans-20"/>
     <use x="1485.193359" xlink:href="#DejaVuSans-44"/>
     <use x="1562.195312" xlink:href="#DejaVuSans-69"/>
     <use x="1589.978516" xlink:href="#DejaVuSans-73"/>
     <use x="1642.078125" xlink:href="#DejaVuSans-74"/>
     <use x="1681.287109" xlink:href="#DejaVuSans-61"/>
     <use x="1742.566406" xlink:href="#DejaVuSans-6e"/>
     <use x="1805.945312" xlink:href="#DejaVuSans-63"/>
     <use x="1860.925781" xlink:href="#DejaVuSans-65"/>
    </g>
   </g>
  </g>
 </g>
 <defs>
  <clipPath id="pda244ea012">
   <rect height="266.112" width="357.12" x="66.053125" y="22.318125"/>
  </clipPath>
 </defs>
</svg>
