<?xml version="1.0" encoding="utf-8" standalone="no"?>
<!DOCTYPE svg PUBLIC "-//W3C//DTD SVG 1.1//EN"
  "http://www.w3.org/Graphics/SVG/1.1/DTD/svg11.dtd">
<!-- Created with matplotlib (http://matplotlib.org/) -->
<svg height="325pt" version="1.1" viewBox="0 0 433 325" width="433pt" xmlns="http://www.w3.org/2000/svg" xmlns:xlink="http://www.w3.org/1999/xlink">
 <defs>
  <style type="text/css">
*{stroke-linecap:butt;stroke-linejoin:round;}
  </style>
 </defs>
 <g id="figure_1">
  <g id="patch_1">
   <path d="M 0 325.986375 
L 433.873125 325.986375 
L 433.873125 0 
L 0 0 
z
" style="fill:#ffffff;"/>
  </g>
  <g id="axes_1">
   <g id="patch_2">
    <path d="M 66.053125 288.430125 
L 423.173125 288.430125 
L 423.173125 22.318125 
L 66.053125 22.318125 
z
" style="fill:#ffffff;"/>
   </g>
   <g id="PathCollection_1">
    <defs>
     <path d="M 0 3 
C 0.795609 3 1.55874 2.683901 2.12132 2.12132 
C 2.683901 1.55874 3 0.795609 3 0 
C 3 -0.795609 2.683901 -1.55874 2.12132 -2.12132 
C 1.55874 -2.683901 0.795609 -3 0 -3 
C -0.795609 -3 -1.55874 -2.683901 -2.12132 -2.12132 
C -2.683901 -1.55874 -3 -0.795609 -3 0 
C -3 0.795609 -2.683901 1.55874 -2.12132 2.12132 
C -1.55874 2.683901 -0.795609 3 0 3 
z
" id="m51c87694bb" style="stroke:#000000;"/>
    </defs>
    <g clip-path="url(#pe6bb5b20e9)">
     <use style="stroke:#000000;" x="66.053125" xlink:href="#m51c87694bb" y="28.316333"/>
     <use style="stroke:#000000;" x="69.660398" xlink:href="#m51c87694bb" y="22.318125"/>
     <use style="stroke:#000000;" x="73.26767" xlink:href="#m51c87694bb" y="41.291505"/>
     <use style="stroke:#000000;" x="76.874943" xlink:href="#m51c87694bb" y="45.264451"/>
     <use style="stroke:#000000;" x="80.482216" xlink:href="#m51c87694bb" y="47.794403"/>
     <use style="stroke:#000000;" x="84.089489" xlink:href="#m51c87694bb" y="35.143581"/>
     <use style="stroke:#000000;" x="87.696761" xlink:href="#m51c87694bb" y="37.775619"/>
     <use style="stroke:#000000;" x="91.304034" xlink:href="#m51c87694bb" y="52.989844"/>
     <use style="stroke:#000000;" x="94.911307" xlink:href="#m51c87694bb" y="77.171844"/>
     <use style="stroke:#000000;" x="98.51858" xlink:href="#m51c87694bb" y="63.769973"/>
     <use style="stroke:#000000;" x="102.125852" xlink:href="#m51c87694bb" y="92.208522"/>
     <use style="stroke:#000000;" x="105.733125" xlink:href="#m51c87694bb" y="118.306727"/>
     <use style="stroke:#000000;" x="109.340398" xlink:href="#m51c87694bb" y="106.378152"/>
     <use style="stroke:#000000;" x="112.94767" xlink:href="#m51c87694bb" y="106.058451"/>
     <use style="stroke:#000000;" x="116.554943" xlink:href="#m51c87694bb" y="111.680885"/>
     <use style="stroke:#000000;" x="120.162216" xlink:href="#m51c87694bb" y="128.893541"/>
     <use style="stroke:#000000;" x="123.769489" xlink:href="#m51c87694bb" y="119.542725"/>
     <use style="stroke:#000000;" x="127.376761" xlink:href="#m51c87694bb" y="132.623159"/>
     <use style="stroke:#000000;" x="130.984034" xlink:href="#m51c87694bb" y="158.454"/>
     <use style="stroke:#000000;" x="134.591307" xlink:href="#m51c87694bb" y="162.63147"/>
     <use style="stroke:#000000;" x="138.19858" xlink:href="#m51c87694bb" y="172.29422"/>
     <use style="stroke:#000000;" x="141.805852" xlink:href="#m51c87694bb" y="157.279106"/>
     <use style="stroke:#000000;" x="145.413125" xlink:href="#m51c87694bb" y="154.11037"/>
     <use style="stroke:#000000;" x="149.020398" xlink:href="#m51c87694bb" y="176.663622"/>
     <use style="stroke:#000000;" x="152.62767" xlink:href="#m51c87694bb" y="169.908187"/>
     <use style="stroke:#000000;" x="156.234943" xlink:href="#m51c87694bb" y="185.646019"/>
     <use style="stroke:#000000;" x="159.842216" xlink:href="#m51c87694bb" y="191.682061"/>
     <use style="stroke:#000000;" x="163.449489" xlink:href="#m51c87694bb" y="185.955188"/>
     <use style="stroke:#000000;" x="167.056761" xlink:href="#m51c87694bb" y="208.106542"/>
     <use style="stroke:#000000;" x="170.664034" xlink:href="#m51c87694bb" y="230.850903"/>
     <use style="stroke:#000000;" x="174.271307" xlink:href="#m51c87694bb" y="234.127829"/>
     <use style="stroke:#000000;" x="177.87858" xlink:href="#m51c87694bb" y="235.080945"/>
     <use style="stroke:#000000;" x="181.485852" xlink:href="#m51c87694bb" y="243.180141"/>
     <use style="stroke:#000000;" x="185.093125" xlink:href="#m51c87694bb" y="245.373815"/>
     <use style="stroke:#000000;" x="188.700398" xlink:href="#m51c87694bb" y="237.211455"/>
     <use style="stroke:#000000;" x="192.30767" xlink:href="#m51c87694bb" y="236.067614"/>
     <use style="stroke:#000000;" x="195.914943" xlink:href="#m51c87694bb" y="240.076878"/>
     <use style="stroke:#000000;" x="199.522216" xlink:href="#m51c87694bb" y="246.100416"/>
     <use style="stroke:#000000;" x="203.129489" xlink:href="#m51c87694bb" y="251.139228"/>
     <use style="stroke:#000000;" x="206.736761" xlink:href="#m51c87694bb" y="259.848568"/>
     <use style="stroke:#000000;" x="210.344034" xlink:href="#m51c87694bb" y="267.848224"/>
     <use style="stroke:#000000;" x="213.951307" xlink:href="#m51c87694bb" y="270.592497"/>
     <use style="stroke:#000000;" x="217.55858" xlink:href="#m51c87694bb" y="264.075256"/>
     <use style="stroke:#000000;" x="221.165852" xlink:href="#m51c87694bb" y="272.250384"/>
     <use style="stroke:#000000;" x="224.773125" xlink:href="#m51c87694bb" y="265.271494"/>
     <use style="stroke:#000000;" x="228.380398" xlink:href="#m51c87694bb" y="262.797218"/>
     <use style="stroke:#000000;" x="231.98767" xlink:href="#m51c87694bb" y="266.239937"/>
     <use style="stroke:#000000;" x="235.594943" xlink:href="#m51c87694bb" y="288.430125"/>
     <use style="stroke:#000000;" x="239.202216" xlink:href="#m51c87694bb" y="284.522946"/>
     <use style="stroke:#000000;" x="242.809489" xlink:href="#m51c87694bb" y="286.406834"/>
     <use style="stroke:#000000;" x="246.416761" xlink:href="#m51c87694bb" y="268.900321"/>
     <use style="stroke:#000000;" x="250.024034" xlink:href="#m51c87694bb" y="265.117881"/>
     <use style="stroke:#000000;" x="253.631307" xlink:href="#m51c87694bb" y="249.334317"/>
     <use style="stroke:#000000;" x="257.23858" xlink:href="#m51c87694bb" y="209.603078"/>
     <use style="stroke:#000000;" x="260.845852" xlink:href="#m51c87694bb" y="217.768865"/>
     <use style="stroke:#000000;" x="264.453125" xlink:href="#m51c87694bb" y="229.123144"/>
     <use style="stroke:#000000;" x="268.060398" xlink:href="#m51c87694bb" y="231.399957"/>
     <use style="stroke:#000000;" x="271.66767" xlink:href="#m51c87694bb" y="210.951164"/>
     <use style="stroke:#000000;" x="275.274943" xlink:href="#m51c87694bb" y="231.833261"/>
     <use style="stroke:#000000;" x="278.882216" xlink:href="#m51c87694bb" y="217.340504"/>
     <use style="stroke:#000000;" x="282.489489" xlink:href="#m51c87694bb" y="220.541322"/>
     <use style="stroke:#000000;" x="286.096761" xlink:href="#m51c87694bb" y="220.091882"/>
     <use style="stroke:#000000;" x="289.704034" xlink:href="#m51c87694bb" y="219.551903"/>
     <use style="stroke:#000000;" x="293.311307" xlink:href="#m51c87694bb" y="220.398344"/>
     <use style="stroke:#000000;" x="296.91858" xlink:href="#m51c87694bb" y="196.984706"/>
     <use style="stroke:#000000;" x="300.525852" xlink:href="#m51c87694bb" y="203.048813"/>
     <use style="stroke:#000000;" x="304.133125" xlink:href="#m51c87694bb" y="172.687058"/>
     <use style="stroke:#000000;" x="307.740398" xlink:href="#m51c87694bb" y="173.238201"/>
     <use style="stroke:#000000;" x="311.34767" xlink:href="#m51c87694bb" y="165.976017"/>
     <use style="stroke:#000000;" x="314.954943" xlink:href="#m51c87694bb" y="140.302364"/>
     <use style="stroke:#000000;" x="318.562216" xlink:href="#m51c87694bb" y="166.312634"/>
     <use style="stroke:#000000;" x="322.169489" xlink:href="#m51c87694bb" y="170.135158"/>
     <use style="stroke:#000000;" x="325.776761" xlink:href="#m51c87694bb" y="202.74241"/>
     <use style="stroke:#000000;" x="329.384034" xlink:href="#m51c87694bb" y="204.515489"/>
     <use style="stroke:#000000;" x="332.991307" xlink:href="#m51c87694bb" y="203.506079"/>
     <use style="stroke:#000000;" x="336.59858" xlink:href="#m51c87694bb" y="231.928374"/>
     <use style="stroke:#000000;" x="340.205852" xlink:href="#m51c87694bb" y="234.673427"/>
     <use style="stroke:#000000;" x="343.813125" xlink:href="#m51c87694bb" y="218.985947"/>
     <use style="stroke:#000000;" x="347.420398" xlink:href="#m51c87694bb" y="209.136869"/>
     <use style="stroke:#000000;" x="351.02767" xlink:href="#m51c87694bb" y="187.679784"/>
     <use style="stroke:#000000;" x="354.634943" xlink:href="#m51c87694bb" y="206.133087"/>
     <use style="stroke:#000000;" x="358.242216" xlink:href="#m51c87694bb" y="198.778643"/>
     <use style="stroke:#000000;" x="361.849489" xlink:href="#m51c87694bb" y="181.801283"/>
     <use style="stroke:#000000;" x="365.456761" xlink:href="#m51c87694bb" y="194.37026"/>
     <use style="stroke:#000000;" x="369.064034" xlink:href="#m51c87694bb" y="200.538895"/>
     <use style="stroke:#000000;" x="372.671307" xlink:href="#m51c87694bb" y="209.783537"/>
     <use style="stroke:#000000;" x="376.27858" xlink:href="#m51c87694bb" y="216.923689"/>
     <use style="stroke:#000000;" x="379.885852" xlink:href="#m51c87694bb" y="212.455262"/>
     <use style="stroke:#000000;" x="383.493125" xlink:href="#m51c87694bb" y="205.16963"/>
     <use style="stroke:#000000;" x="387.100398" xlink:href="#m51c87694bb" y="187.861449"/>
     <use style="stroke:#000000;" x="390.70767" xlink:href="#m51c87694bb" y="202.627939"/>
     <use style="stroke:#000000;" x="394.314943" xlink:href="#m51c87694bb" y="211.89847"/>
     <use style="stroke:#000000;" x="397.922216" xlink:href="#m51c87694bb" y="221.761434"/>
     <use style="stroke:#000000;" x="401.529489" xlink:href="#m51c87694bb" y="225.529076"/>
     <use style="stroke:#000000;" x="405.136761" xlink:href="#m51c87694bb" y="240.598057"/>
     <use style="stroke:#000000;" x="408.744034" xlink:href="#m51c87694bb" y="250.35901"/>
     <use style="stroke:#000000;" x="412.351307" xlink:href="#m51c87694bb" y="258.481433"/>
     <use style="stroke:#000000;" x="415.95858" xlink:href="#m51c87694bb" y="254.026847"/>
     <use style="stroke:#000000;" x="419.565852" xlink:href="#m51c87694bb" y="261.513957"/>
     <use style="stroke:#000000;" x="423.173125" xlink:href="#m51c87694bb" y="260.36204"/>
    </g>
   </g>
   <g id="matplotlib.axis_1">
    <g id="xtick_1">
     <g id="line2d_1">
      <defs>
       <path d="M 0 0 
L 0 3.5 
" id="mfed5265eb7" style="stroke:#000000;stroke-width:0.8;"/>
      </defs>
      <g>
       <use style="stroke:#000000;stroke-width:0.8;" x="137.44575" xlink:href="#mfed5265eb7" y="288.430125"/>
      </g>
     </g>
     <g id="text_1">
      <!-- 2 -->
      <defs>
       <path d="M 19.1875 8.296875 
L 53.609375 8.296875 
L 53.609375 0 
L 7.328125 0 
L 7.328125 8.296875 
Q 12.9375 14.109375 22.625 23.890625 
Q 32.328125 33.6875 34.8125 36.53125 
Q 39.546875 41.84375 41.421875 45.53125 
Q 43.3125 49.21875 43.3125 52.78125 
Q 43.3125 58.59375 39.234375 62.25 
Q 35.15625 65.921875 28.609375 65.921875 
Q 23.96875 65.921875 18.8125 64.3125 
Q 13.671875 62.703125 7.8125 59.421875 
L 7.8125 69.390625 
Q 13.765625 71.78125 18.9375 73 
Q 24.125 74.21875 28.421875 74.21875 
Q 39.75 74.21875 46.484375 68.546875 
Q 53.21875 62.890625 53.21875 53.421875 
Q 53.21875 48.921875 51.53125 44.890625 
Q 49.859375 40.875 45.40625 35.40625 
Q 44.1875 33.984375 37.640625 27.21875 
Q 31.109375 20.453125 19.1875 8.296875 
z
" id="DejaVuSans-32"/>
      </defs>
      <g transform="translate(134.2645 303.028562)scale(0.1 -0.1)">
       <use xlink:href="#DejaVuSans-32"/>
      </g>
     </g>
    </g>
    <g id="xtick_2">
     <g id="line2d_2">
      <g>
       <use style="stroke:#000000;stroke-width:0.8;" x="212.445648" xlink:href="#mfed5265eb7" y="288.430125"/>
      </g>
     </g>
     <g id="text_2">
      <!-- 4 -->
      <defs>
       <path d="M 37.796875 64.3125 
L 12.890625 25.390625 
L 37.796875 25.390625 
z
M 35.203125 72.90625 
L 47.609375 72.90625 
L 47.609375 25.390625 
L 58.015625 25.390625 
L 58.015625 17.1875 
L 47.609375 17.1875 
L 47.609375 0 
L 37.796875 0 
L 37.796875 17.1875 
L 4.890625 17.1875 
L 4.890625 26.703125 
z
" id="DejaVuSans-34"/>
      </defs>
      <g transform="translate(209.264398 303.028562)scale(0.1 -0.1)">
       <use xlink:href="#DejaVuSans-34"/>
      </g>
     </g>
    </g>
    <g id="xtick_3">
     <g id="line2d_3">
      <g>
       <use style="stroke:#000000;stroke-width:0.8;" x="287.445546" xlink:href="#mfed5265eb7" y="288.430125"/>
      </g>
     </g>
     <g id="text_3">
      <!-- 6 -->
      <defs>
       <path d="M 33.015625 40.375 
Q 26.375 40.375 22.484375 35.828125 
Q 18.609375 31.296875 18.609375 23.390625 
Q 18.609375 15.53125 22.484375 10.953125 
Q 26.375 6.390625 33.015625 6.390625 
Q 39.65625 6.390625 43.53125 10.953125 
Q 47.40625 15.53125 47.40625 23.390625 
Q 47.40625 31.296875 43.53125 35.828125 
Q 39.65625 40.375 33.015625 40.375 
z
M 52.59375 71.296875 
L 52.59375 62.3125 
Q 48.875 64.0625 45.09375 64.984375 
Q 41.3125 65.921875 37.59375 65.921875 
Q 27.828125 65.921875 22.671875 59.328125 
Q 17.53125 52.734375 16.796875 39.40625 
Q 19.671875 43.65625 24.015625 45.921875 
Q 28.375 48.1875 33.59375 48.1875 
Q 44.578125 48.1875 50.953125 41.515625 
Q 57.328125 34.859375 57.328125 23.390625 
Q 57.328125 12.15625 50.6875 5.359375 
Q 44.046875 -1.421875 33.015625 -1.421875 
Q 20.359375 -1.421875 13.671875 8.265625 
Q 6.984375 17.96875 6.984375 36.375 
Q 6.984375 53.65625 15.1875 63.9375 
Q 23.390625 74.21875 37.203125 74.21875 
Q 40.921875 74.21875 44.703125 73.484375 
Q 48.484375 72.75 52.59375 71.296875 
z
" id="DejaVuSans-36"/>
      </defs>
      <g transform="translate(284.264296 303.028562)scale(0.1 -0.1)">
       <use xlink:href="#DejaVuSans-36"/>
      </g>
     </g>
    </g>
    <g id="xtick_4">
     <g id="line2d_4">
      <g>
       <use style="stroke:#000000;stroke-width:0.8;" x="362.445444" xlink:href="#mfed5265eb7" y="288.430125"/>
      </g>
     </g>
     <g id="text_4">
      <!-- 8 -->
      <defs>
       <path d="M 31.78125 34.625 
Q 24.75 34.625 20.71875 30.859375 
Q 16.703125 27.09375 16.703125 20.515625 
Q 16.703125 13.921875 20.71875 10.15625 
Q 24.75 6.390625 31.78125 6.390625 
Q 38.8125 6.390625 42.859375 10.171875 
Q 46.921875 13.96875 46.921875 20.515625 
Q 46.921875 27.09375 42.890625 30.859375 
Q 38.875 34.625 31.78125 34.625 
z
M 21.921875 38.8125 
Q 15.578125 40.375 12.03125 44.71875 
Q 8.5 49.078125 8.5 55.328125 
Q 8.5 64.0625 14.71875 69.140625 
Q 20.953125 74.21875 31.78125 74.21875 
Q 42.671875 74.21875 48.875 69.140625 
Q 55.078125 64.0625 55.078125 55.328125 
Q 55.078125 49.078125 51.53125 44.71875 
Q 48 40.375 41.703125 38.8125 
Q 48.828125 37.15625 52.796875 32.3125 
Q 56.78125 27.484375 56.78125 20.515625 
Q 56.78125 9.90625 50.3125 4.234375 
Q 43.84375 -1.421875 31.78125 -1.421875 
Q 19.734375 -1.421875 13.25 4.234375 
Q 6.78125 9.90625 6.78125 20.515625 
Q 6.78125 27.484375 10.78125 32.3125 
Q 14.796875 37.15625 21.921875 38.8125 
z
M 18.3125 54.390625 
Q 18.3125 48.734375 21.84375 45.5625 
Q 25.390625 42.390625 31.78125 42.390625 
Q 38.140625 42.390625 41.71875 45.5625 
Q 45.3125 48.734375 45.3125 54.390625 
Q 45.3125 60.0625 41.71875 63.234375 
Q 38.140625 66.40625 31.78125 66.40625 
Q 25.390625 66.40625 21.84375 63.234375 
Q 18.3125 60.0625 18.3125 54.390625 
z
" id="DejaVuSans-38"/>
      </defs>
      <g transform="translate(359.264194 303.028562)scale(0.1 -0.1)">
       <use xlink:href="#DejaVuSans-38"/>
      </g>
     </g>
    </g>
    <g id="text_5">
     <!-- Input Distance -->
     <defs>
      <path d="M 9.8125 72.90625 
L 19.671875 72.90625 
L 19.671875 0 
L 9.8125 0 
z
" id="DejaVuSans-49"/>
      <path d="M 54.890625 33.015625 
L 54.890625 0 
L 45.90625 0 
L 45.90625 32.71875 
Q 45.90625 40.484375 42.875 44.328125 
Q 39.84375 48.1875 33.796875 48.1875 
Q 26.515625 48.1875 22.3125 43.546875 
Q 18.109375 38.921875 18.109375 30.90625 
L 18.109375 0 
L 9.078125 0 
L 9.078125 54.6875 
L 18.109375 54.6875 
L 18.109375 46.1875 
Q 21.34375 51.125 25.703125 53.5625 
Q 30.078125 56 35.796875 56 
Q 45.21875 56 50.046875 50.171875 
Q 54.890625 44.34375 54.890625 33.015625 
z
" id="DejaVuSans-6e"/>
      <path d="M 18.109375 8.203125 
L 18.109375 -20.796875 
L 9.078125 -20.796875 
L 9.078125 54.6875 
L 18.109375 54.6875 
L 18.109375 46.390625 
Q 20.953125 51.265625 25.265625 53.625 
Q 29.59375 56 35.59375 56 
Q 45.5625 56 51.78125 48.09375 
Q 58.015625 40.1875 58.015625 27.296875 
Q 58.015625 14.40625 51.78125 6.484375 
Q 45.5625 -1.421875 35.59375 -1.421875 
Q 29.59375 -1.421875 25.265625 0.953125 
Q 20.953125 3.328125 18.109375 8.203125 
z
M 48.6875 27.296875 
Q 48.6875 37.203125 44.609375 42.84375 
Q 40.53125 48.484375 33.40625 48.484375 
Q 26.265625 48.484375 22.1875 42.84375 
Q 18.109375 37.203125 18.109375 27.296875 
Q 18.109375 17.390625 22.1875 11.75 
Q 26.265625 6.109375 33.40625 6.109375 
Q 40.53125 6.109375 44.609375 11.75 
Q 48.6875 17.390625 48.6875 27.296875 
z
" id="DejaVuSans-70"/>
      <path d="M 8.5 21.578125 
L 8.5 54.6875 
L 17.484375 54.6875 
L 17.484375 21.921875 
Q 17.484375 14.15625 20.5 10.265625 
Q 23.53125 6.390625 29.59375 6.390625 
Q 36.859375 6.390625 41.078125 11.03125 
Q 45.3125 15.671875 45.3125 23.6875 
L 45.3125 54.6875 
L 54.296875 54.6875 
L 54.296875 0 
L 45.3125 0 
L 45.3125 8.40625 
Q 42.046875 3.421875 37.71875 1 
Q 33.40625 -1.421875 27.6875 -1.421875 
Q 18.265625 -1.421875 13.375 4.4375 
Q 8.5 10.296875 8.5 21.578125 
z
M 31.109375 56 
z
" id="DejaVuSans-75"/>
      <path d="M 18.3125 70.21875 
L 18.3125 54.6875 
L 36.8125 54.6875 
L 36.8125 47.703125 
L 18.3125 47.703125 
L 18.3125 18.015625 
Q 18.3125 11.328125 20.140625 9.421875 
Q 21.96875 7.515625 27.59375 7.515625 
L 36.8125 7.515625 
L 36.8125 0 
L 27.59375 0 
Q 17.1875 0 13.234375 3.875 
Q 9.28125 7.765625 9.28125 18.015625 
L 9.28125 47.703125 
L 2.6875 47.703125 
L 2.6875 54.6875 
L 9.28125 54.6875 
L 9.28125 70.21875 
z
" id="DejaVuSans-74"/>
      <path id="DejaVuSans-20"/>
      <path d="M 19.671875 64.796875 
L 19.671875 8.109375 
L 31.59375 8.109375 
Q 46.6875 8.109375 53.6875 14.9375 
Q 60.6875 21.78125 60.6875 36.53125 
Q 60.6875 51.171875 53.6875 57.984375 
Q 46.6875 64.796875 31.59375 64.796875 
z
M 9.8125 72.90625 
L 30.078125 72.90625 
Q 51.265625 72.90625 61.171875 64.09375 
Q 71.09375 55.28125 71.09375 36.53125 
Q 71.09375 17.671875 61.125 8.828125 
Q 51.171875 0 30.078125 0 
L 9.8125 0 
z
" id="DejaVuSans-44"/>
      <path d="M 9.421875 54.6875 
L 18.40625 54.6875 
L 18.40625 0 
L 9.421875 0 
z
M 9.421875 75.984375 
L 18.40625 75.984375 
L 18.40625 64.59375 
L 9.421875 64.59375 
z
" id="DejaVuSans-69"/>
      <path d="M 44.28125 53.078125 
L 44.28125 44.578125 
Q 40.484375 46.53125 36.375 47.5 
Q 32.28125 48.484375 27.875 48.484375 
Q 21.1875 48.484375 17.84375 46.4375 
Q 14.5 44.390625 14.5 40.28125 
Q 14.5 37.15625 16.890625 35.375 
Q 19.28125 33.59375 26.515625 31.984375 
L 29.59375 31.296875 
Q 39.15625 29.25 43.1875 25.515625 
Q 47.21875 21.78125 47.21875 15.09375 
Q 47.21875 7.46875 41.1875 3.015625 
Q 35.15625 -1.421875 24.609375 -1.421875 
Q 20.21875 -1.421875 15.453125 -0.5625 
Q 10.6875 0.296875 5.421875 2 
L 5.421875 11.28125 
Q 10.40625 8.6875 15.234375 7.390625 
Q 20.0625 6.109375 24.8125 6.109375 
Q 31.15625 6.109375 34.5625 8.28125 
Q 37.984375 10.453125 37.984375 14.40625 
Q 37.984375 18.0625 35.515625 20.015625 
Q 33.0625 21.96875 24.703125 23.78125 
L 21.578125 24.515625 
Q 13.234375 26.265625 9.515625 29.90625 
Q 5.8125 33.546875 5.8125 39.890625 
Q 5.8125 47.609375 11.28125 51.796875 
Q 16.75 56 26.8125 56 
Q 31.78125 56 36.171875 55.265625 
Q 40.578125 54.546875 44.28125 53.078125 
z
" id="DejaVuSans-73"/>
      <path d="M 34.28125 27.484375 
Q 23.390625 27.484375 19.1875 25 
Q 14.984375 22.515625 14.984375 16.5 
Q 14.984375 11.71875 18.140625 8.90625 
Q 21.296875 6.109375 26.703125 6.109375 
Q 34.1875 6.109375 38.703125 11.40625 
Q 43.21875 16.703125 43.21875 25.484375 
L 43.21875 27.484375 
z
M 52.203125 31.203125 
L 52.203125 0 
L 43.21875 0 
L 43.21875 8.296875 
Q 40.140625 3.328125 35.546875 0.953125 
Q 30.953125 -1.421875 24.3125 -1.421875 
Q 15.921875 -1.421875 10.953125 3.296875 
Q 6 8.015625 6 15.921875 
Q 6 25.140625 12.171875 29.828125 
Q 18.359375 34.515625 30.609375 34.515625 
L 43.21875 34.515625 
L 43.21875 35.40625 
Q 43.21875 41.609375 39.140625 45 
Q 35.0625 48.390625 27.6875 48.390625 
Q 23 48.390625 18.546875 47.265625 
Q 14.109375 46.140625 10.015625 43.890625 
L 10.015625 52.203125 
Q 14.9375 54.109375 19.578125 55.046875 
Q 24.21875 56 28.609375 56 
Q 40.484375 56 46.34375 49.84375 
Q 52.203125 43.703125 52.203125 31.203125 
z
" id="DejaVuSans-61"/>
      <path d="M 48.78125 52.59375 
L 48.78125 44.1875 
Q 44.96875 46.296875 41.140625 47.34375 
Q 37.3125 48.390625 33.40625 48.390625 
Q 24.65625 48.390625 19.8125 42.84375 
Q 14.984375 37.3125 14.984375 27.296875 
Q 14.984375 17.28125 19.8125 11.734375 
Q 24.65625 6.203125 33.40625 6.203125 
Q 37.3125 6.203125 41.140625 7.25 
Q 44.96875 8.296875 48.78125 10.40625 
L 48.78125 2.09375 
Q 45.015625 0.34375 40.984375 -0.53125 
Q 36.96875 -1.421875 32.421875 -1.421875 
Q 20.0625 -1.421875 12.78125 6.34375 
Q 5.515625 14.109375 5.515625 27.296875 
Q 5.515625 40.671875 12.859375 48.328125 
Q 20.21875 56 33.015625 56 
Q 37.15625 56 41.109375 55.140625 
Q 45.0625 54.296875 48.78125 52.59375 
z
" id="DejaVuSans-63"/>
      <path d="M 56.203125 29.59375 
L 56.203125 25.203125 
L 14.890625 25.203125 
Q 15.484375 15.921875 20.484375 11.0625 
Q 25.484375 6.203125 34.421875 6.203125 
Q 39.59375 6.203125 44.453125 7.46875 
Q 49.3125 8.734375 54.109375 11.28125 
L 54.109375 2.78125 
Q 49.265625 0.734375 44.1875 -0.34375 
Q 39.109375 -1.421875 33.890625 -1.421875 
Q 20.796875 -1.421875 13.15625 6.1875 
Q 5.515625 13.8125 5.515625 26.8125 
Q 5.515625 40.234375 12.765625 48.109375 
Q 20.015625 56 32.328125 56 
Q 43.359375 56 49.78125 48.890625 
Q 56.203125 41.796875 56.203125 29.59375 
z
M 47.21875 32.234375 
Q 47.125 39.59375 43.09375 43.984375 
Q 39.0625 48.390625 32.421875 48.390625 
Q 24.90625 48.390625 20.390625 44.140625 
Q 15.875 39.890625 15.1875 32.171875 
z
" id="DejaVuSans-65"/>
     </defs>
     <g transform="translate(208.214688 316.706687)scale(0.1 -0.1)">
      <use xlink:href="#DejaVuSans-49"/>
      <use x="29.492188" xlink:href="#DejaVuSans-6e"/>
      <use x="92.871094" xlink:href="#DejaVuSans-70"/>
      <use x="156.347656" xlink:href="#DejaVuSans-75"/>
      <use x="219.726562" xlink:href="#DejaVuSans-74"/>
      <use x="258.935547" xlink:href="#DejaVuSans-20"/>
      <use x="290.722656" xlink:href="#DejaVuSans-44"/>
      <use x="367.724609" xlink:href="#DejaVuSans-69"/>
      <use x="395.507812" xlink:href="#DejaVuSans-73"/>
      <use x="447.607422" xlink:href="#DejaVuSans-74"/>
      <use x="486.816406" xlink:href="#DejaVuSans-61"/>
      <use x="548.095703" xlink:href="#DejaVuSans-6e"/>
      <use x="611.474609" xlink:href="#DejaVuSans-63"/>
      <use x="666.455078" xlink:href="#DejaVuSans-65"/>
     </g>
    </g>
   </g>
   <g id="matplotlib.axis_2">
    <g id="ytick_1">
     <g id="line2d_5">
      <defs>
       <path d="M 0 0 
L -3.5 0 
" id="mb59749e237" style="stroke:#000000;stroke-width:0.8;"/>
      </defs>
      <g>
       <use style="stroke:#000000;stroke-width:0.8;" x="66.053125" xlink:href="#mb59749e237" y="271.14292"/>
      </g>
     </g>
     <g id="text_6">
      <!-- 200000 -->
      <defs>
       <path d="M 31.78125 66.40625 
Q 24.171875 66.40625 20.328125 58.90625 
Q 16.5 51.421875 16.5 36.375 
Q 16.5 21.390625 20.328125 13.890625 
Q 24.171875 6.390625 31.78125 6.390625 
Q 39.453125 6.390625 43.28125 13.890625 
Q 47.125 21.390625 47.125 36.375 
Q 47.125 51.421875 43.28125 58.90625 
Q 39.453125 66.40625 31.78125 66.40625 
z
M 31.78125 74.21875 
Q 44.046875 74.21875 50.515625 64.515625 
Q 56.984375 54.828125 56.984375 36.375 
Q 56.984375 17.96875 50.515625 8.265625 
Q 44.046875 -1.421875 31.78125 -1.421875 
Q 19.53125 -1.421875 13.0625 8.265625 
Q 6.59375 17.96875 6.59375 36.375 
Q 6.59375 54.828125 13.0625 64.515625 
Q 19.53125 74.21875 31.78125 74.21875 
z
" id="DejaVuSans-30"/>
      </defs>
      <g transform="translate(20.878125 274.942138)scale(0.1 -0.1)">
       <use xlink:href="#DejaVuSans-32"/>
       <use x="63.623047" xlink:href="#DejaVuSans-30"/>
       <use x="127.246094" xlink:href="#DejaVuSans-30"/>
       <use x="190.869141" xlink:href="#DejaVuSans-30"/>
       <use x="254.492188" xlink:href="#DejaVuSans-30"/>
       <use x="318.115234" xlink:href="#DejaVuSans-30"/>
      </g>
     </g>
    </g>
    <g id="ytick_2">
     <g id="line2d_6">
      <g>
       <use style="stroke:#000000;stroke-width:0.8;" x="66.053125" xlink:href="#mb59749e237" y="224.071844"/>
      </g>
     </g>
     <g id="text_7">
      <!-- 250000 -->
      <defs>
       <path d="M 10.796875 72.90625 
L 49.515625 72.90625 
L 49.515625 64.59375 
L 19.828125 64.59375 
L 19.828125 46.734375 
Q 21.96875 47.46875 24.109375 47.828125 
Q 26.265625 48.1875 28.421875 48.1875 
Q 40.625 48.1875 47.75 41.5 
Q 54.890625 34.8125 54.890625 23.390625 
Q 54.890625 11.625 47.5625 5.09375 
Q 40.234375 -1.421875 26.90625 -1.421875 
Q 22.3125 -1.421875 17.546875 -0.640625 
Q 12.796875 0.140625 7.71875 1.703125 
L 7.71875 11.625 
Q 12.109375 9.234375 16.796875 8.0625 
Q 21.484375 6.890625 26.703125 6.890625 
Q 35.15625 6.890625 40.078125 11.328125 
Q 45.015625 15.765625 45.015625 23.390625 
Q 45.015625 31 40.078125 35.4375 
Q 35.15625 39.890625 26.703125 39.890625 
Q 22.75 39.890625 18.8125 39.015625 
Q 14.890625 38.140625 10.796875 36.28125 
z
" id="DejaVuSans-35"/>
      </defs>
      <g transform="translate(20.878125 227.871063)scale(0.1 -0.1)">
       <use xlink:href="#DejaVuSans-32"/>
       <use x="63.623047" xlink:href="#DejaVuSans-35"/>
       <use x="127.246094" xlink:href="#DejaVuSans-30"/>
       <use x="190.869141" xlink:href="#DejaVuSans-30"/>
       <use x="254.492188" xlink:href="#DejaVuSans-30"/>
       <use x="318.115234" xlink:href="#DejaVuSans-30"/>
      </g>
     </g>
    </g>
    <g id="ytick_3">
     <g id="line2d_7">
      <g>
       <use style="stroke:#000000;stroke-width:0.8;" x="66.053125" xlink:href="#mb59749e237" y="177.000769"/>
      </g>
     </g>
     <g id="text_8">
      <!-- 300000 -->
      <defs>
       <path d="M 40.578125 39.3125 
Q 47.65625 37.796875 51.625 33 
Q 55.609375 28.21875 55.609375 21.1875 
Q 55.609375 10.40625 48.1875 4.484375 
Q 40.765625 -1.421875 27.09375 -1.421875 
Q 22.515625 -1.421875 17.65625 -0.515625 
Q 12.796875 0.390625 7.625 2.203125 
L 7.625 11.71875 
Q 11.71875 9.328125 16.59375 8.109375 
Q 21.484375 6.890625 26.8125 6.890625 
Q 36.078125 6.890625 40.9375 10.546875 
Q 45.796875 14.203125 45.796875 21.1875 
Q 45.796875 27.640625 41.28125 31.265625 
Q 36.765625 34.90625 28.71875 34.90625 
L 20.21875 34.90625 
L 20.21875 43.015625 
L 29.109375 43.015625 
Q 36.375 43.015625 40.234375 45.921875 
Q 44.09375 48.828125 44.09375 54.296875 
Q 44.09375 59.90625 40.109375 62.90625 
Q 36.140625 65.921875 28.71875 65.921875 
Q 24.65625 65.921875 20.015625 65.03125 
Q 15.375 64.15625 9.8125 62.3125 
L 9.8125 71.09375 
Q 15.4375 72.65625 20.34375 73.4375 
Q 25.25 74.21875 29.59375 74.21875 
Q 40.828125 74.21875 47.359375 69.109375 
Q 53.90625 64.015625 53.90625 55.328125 
Q 53.90625 49.265625 50.4375 45.09375 
Q 46.96875 40.921875 40.578125 39.3125 
z
" id="DejaVuSans-33"/>
      </defs>
      <g transform="translate(20.878125 180.799988)scale(0.1 -0.1)">
       <use xlink:href="#DejaVuSans-33"/>
       <use x="63.623047" xlink:href="#DejaVuSans-30"/>
       <use x="127.246094" xlink:href="#DejaVuSans-30"/>
       <use x="190.869141" xlink:href="#DejaVuSans-30"/>
       <use x="254.492188" xlink:href="#DejaVuSans-30"/>
       <use x="318.115234" xlink:href="#DejaVuSans-30"/>
      </g>
     </g>
    </g>
    <g id="ytick_4">
     <g id="line2d_8">
      <g>
       <use style="stroke:#000000;stroke-width:0.8;" x="66.053125" xlink:href="#mb59749e237" y="129.929693"/>
      </g>
     </g>
     <g id="text_9">
      <!-- 350000 -->
      <g transform="translate(20.878125 133.728912)scale(0.1 -0.1)">
       <use xlink:href="#DejaVuSans-33"/>
       <use x="63.623047" xlink:href="#DejaVuSans-35"/>
       <use x="127.246094" xlink:href="#DejaVuSans-30"/>
       <use x="190.869141" xlink:href="#DejaVuSans-30"/>
       <use x="254.492188" xlink:href="#DejaVuSans-30"/>
       <use x="318.115234" xlink:href="#DejaVuSans-30"/>
      </g>
     </g>
    </g>
    <g id="ytick_5">
     <g id="line2d_9">
      <g>
       <use style="stroke:#000000;stroke-width:0.8;" x="66.053125" xlink:href="#mb59749e237" y="82.858618"/>
      </g>
     </g>
     <g id="text_10">
      <!-- 400000 -->
      <g transform="translate(20.878125 86.657837)scale(0.1 -0.1)">
       <use xlink:href="#DejaVuSans-34"/>
       <use x="63.623047" xlink:href="#DejaVuSans-30"/>
       <use x="127.246094" xlink:href="#DejaVuSans-30"/>
       <use x="190.869141" xlink:href="#DejaVuSans-30"/>
       <use x="254.492188" xlink:href="#DejaVuSans-30"/>
       <use x="318.115234" xlink:href="#DejaVuSans-30"/>
      </g>
     </g>
    </g>
    <g id="ytick_6">
     <g id="line2d_10">
      <g>
       <use style="stroke:#000000;stroke-width:0.8;" x="66.053125" xlink:href="#mb59749e237" y="35.787543"/>
      </g>
     </g>
     <g id="text_11">
      <!-- 450000 -->
      <g transform="translate(20.878125 39.586761)scale(0.1 -0.1)">
       <use xlink:href="#DejaVuSans-34"/>
       <use x="63.623047" xlink:href="#DejaVuSans-35"/>
       <use x="127.246094" xlink:href="#DejaVuSans-30"/>
       <use x="190.869141" xlink:href="#DejaVuSans-30"/>
       <use x="254.492188" xlink:href="#DejaVuSans-30"/>
       <use x="318.115234" xlink:href="#DejaVuSans-30"/>
      </g>
     </g>
    </g>
    <g id="text_12">
     <!-- Persistence Distance -->
     <defs>
      <path d="M 19.671875 64.796875 
L 19.671875 37.40625 
L 32.078125 37.40625 
Q 38.96875 37.40625 42.71875 40.96875 
Q 46.484375 44.53125 46.484375 51.125 
Q 46.484375 57.671875 42.71875 61.234375 
Q 38.96875 64.796875 32.078125 64.796875 
z
M 9.8125 72.90625 
L 32.078125 72.90625 
Q 44.34375 72.90625 50.609375 67.359375 
Q 56.890625 61.8125 56.890625 51.125 
Q 56.890625 40.328125 50.609375 34.8125 
Q 44.34375 29.296875 32.078125 29.296875 
L 19.671875 29.296875 
L 19.671875 0 
L 9.8125 0 
z
" id="DejaVuSans-50"/>
      <path d="M 41.109375 46.296875 
Q 39.59375 47.171875 37.8125 47.578125 
Q 36.03125 48 33.890625 48 
Q 26.265625 48 22.1875 43.046875 
Q 18.109375 38.09375 18.109375 28.8125 
L 18.109375 0 
L 9.078125 0 
L 9.078125 54.6875 
L 18.109375 54.6875 
L 18.109375 46.1875 
Q 20.953125 51.171875 25.484375 53.578125 
Q 30.03125 56 36.53125 56 
Q 37.453125 56 38.578125 55.875 
Q 39.703125 55.765625 41.0625 55.515625 
z
" id="DejaVuSans-72"/>
     </defs>
     <g transform="translate(14.798438 207.599906)rotate(-90)scale(0.1 -0.1)">
      <use xlink:href="#DejaVuSans-50"/>
      <use x="60.255859" xlink:href="#DejaVuSans-65"/>
      <use x="121.779297" xlink:href="#DejaVuSans-72"/>
      <use x="162.892578" xlink:href="#DejaVuSans-73"/>
      <use x="214.992188" xlink:href="#DejaVuSans-69"/>
      <use x="242.775391" xlink:href="#DejaVuSans-73"/>
      <use x="294.875" xlink:href="#DejaVuSans-74"/>
      <use x="334.083984" xlink:href="#DejaVuSans-65"/>
      <use x="395.607422" xlink:href="#DejaVuSans-6e"/>
      <use x="458.986328" xlink:href="#DejaVuSans-63"/>
      <use x="513.966797" xlink:href="#DejaVuSans-65"/>
      <use x="575.490234" xlink:href="#DejaVuSans-20"/>
      <use x="607.277344" xlink:href="#DejaVuSans-44"/>
      <use x="684.279297" xlink:href="#DejaVuSans-69"/>
      <use x="712.0625" xlink:href="#DejaVuSans-73"/>
      <use x="764.162109" xlink:href="#DejaVuSans-74"/>
      <use x="803.371094" xlink:href="#DejaVuSans-61"/>
      <use x="864.650391" xlink:href="#DejaVuSans-6e"/>
      <use x="928.029297" xlink:href="#DejaVuSans-63"/>
      <use x="983.009766" xlink:href="#DejaVuSans-65"/>
     </g>
    </g>
   </g>
   <g id="line2d_11">
    <path clip-path="url(#pe6bb5b20e9)" d="M 66.053125 110.644863 
L 69.660398 112.581563 
L 73.26767 114.518263 
L 76.874943 116.454963 
L 80.482216 118.391663 
L 84.089489 120.328362 
L 87.696761 122.265062 
L 91.304034 124.201762 
L 94.911307 126.138462 
L 98.51858 128.075162 
L 102.125852 130.011862 
L 105.733125 131.948562 
L 109.340398 133.885261 
L 112.94767 135.821961 
L 116.554943 137.758661 
L 120.162216 139.695361 
L 123.769489 141.632061 
L 127.376761 143.568761 
L 130.984034 145.505461 
L 134.591307 147.44216 
L 138.19858 149.37886 
L 141.805852 151.31556 
L 145.413125 153.25226 
L 149.020398 155.18896 
L 152.62767 157.12566 
L 156.234943 159.06236 
L 159.842216 160.999059 
L 163.449489 162.935759 
L 167.056761 164.872459 
L 170.664034 166.809159 
L 174.271307 168.745859 
L 177.87858 170.682559 
L 181.485852 172.619259 
L 185.093125 174.555958 
L 188.700398 176.492658 
L 192.30767 178.429358 
L 195.914943 180.366058 
L 199.522216 182.302758 
L 203.129489 184.239458 
L 206.736761 186.176158 
L 210.344034 188.112857 
L 213.951307 190.049557 
L 217.55858 191.986257 
L 221.165852 193.922957 
L 224.773125 195.859657 
L 228.380398 197.796357 
L 231.98767 199.733057 
L 235.594943 201.669757 
L 239.202216 203.606456 
L 242.809489 205.543156 
L 246.416761 207.479856 
L 250.024034 209.416556 
L 253.631307 211.353256 
L 257.23858 213.289956 
L 260.845852 215.226656 
L 264.453125 217.163355 
L 268.060398 219.100055 
L 271.66767 221.036755 
L 275.274943 222.973455 
L 278.882216 224.910155 
L 282.489489 226.846855 
L 286.096761 228.783555 
L 289.704034 230.720254 
L 293.311307 232.656954 
L 296.91858 234.593654 
L 300.525852 236.530354 
L 304.133125 238.467054 
L 307.740398 240.403754 
L 311.34767 242.340454 
L 314.954943 244.277153 
L 318.562216 246.213853 
L 322.169489 248.150553 
L 325.776761 250.087253 
L 329.384034 252.023953 
L 332.991307 253.960653 
L 336.59858 255.897353 
L 340.205852 257.834052 
L 343.813125 259.770752 
L 347.420398 261.707452 
L 351.02767 263.644152 
L 354.634943 265.580852 
L 358.242216 267.517552 
L 361.849489 269.454252 
L 365.456761 271.390951 
L 369.064034 273.327651 
L 372.671307 275.264351 
L 376.27858 277.201051 
L 379.885852 279.137751 
L 383.493125 281.074451 
L 387.100398 283.011151 
L 390.70767 284.94785 
L 394.314943 286.88455 
L 397.922216 288.82125 
L 401.529489 290.75795 
L 405.136761 292.69465 
L 408.744034 294.63135 
L 412.351307 296.56805 
L 415.95858 298.504749 
L 419.565852 300.441449 
L 423.173125 302.378149 
" style="fill:none;stroke:#c0c0c0;stroke-linecap:square;stroke-width:3;"/>
   </g>
   <g id="patch_3">
    <path d="M 66.053125 288.430125 
L 66.053125 22.318125 
" style="fill:none;stroke:#000000;stroke-linecap:square;stroke-linejoin:miter;stroke-width:0.8;"/>
   </g>
   <g id="patch_4">
    <path d="M 423.173125 288.430125 
L 423.173125 22.318125 
" style="fill:none;stroke:#000000;stroke-linecap:square;stroke-linejoin:miter;stroke-width:0.8;"/>
   </g>
   <g id="patch_5">
    <path d="M 66.053125 288.430125 
L 423.173125 288.430125 
" style="fill:none;stroke:#000000;stroke-linecap:square;stroke-linejoin:miter;stroke-width:0.8;"/>
   </g>
   <g id="patch_6">
    <path d="M 66.053125 22.318125 
L 423.173125 22.318125 
" style="fill:none;stroke:#000000;stroke-linecap:square;stroke-linejoin:miter;stroke-width:0.8;"/>
   </g>
   <g id="text_13">
    <!-- Input Distance vs Persistence Distance -->
    <defs>
     <path d="M 2.984375 54.6875 
L 12.5 54.6875 
L 29.59375 8.796875 
L 46.6875 54.6875 
L 56.203125 54.6875 
L 35.6875 0 
L 23.484375 0 
z
" id="DejaVuSans-76"/>
    </defs>
    <g transform="translate(127.773438 16.318125)scale(0.12 -0.12)">
     <use xlink:href="#DejaVuSans-49"/>
     <use x="29.492188" xlink:href="#DejaVuSans-6e"/>
     <use x="92.871094" xlink:href="#DejaVuSans-70"/>
     <use x="156.347656" xlink:href="#DejaVuSans-75"/>
     <use x="219.726562" xlink:href="#DejaVuSans-74"/>
     <use x="258.935547" xlink:href="#DejaVuSans-20"/>
     <use x="290.722656" xlink:href="#DejaVuSans-44"/>
     <use x="367.724609" xlink:href="#DejaVuSans-69"/>
     <use x="395.507812" xlink:href="#DejaVuSans-73"/>
     <use x="447.607422" xlink:href="#DejaVuSans-74"/>
     <use x="486.816406" xlink:href="#DejaVuSans-61"/>
     <use x="548.095703" xlink:href="#DejaVuSans-6e"/>
     <use x="611.474609" xlink:href="#DejaVuSans-63"/>
     <use x="666.455078" xlink:href="#DejaVuSans-65"/>
     <use x="727.978516" xlink:href="#DejaVuSans-20"/>
     <use x="759.765625" xlink:href="#DejaVuSans-76"/>
     <use x="818.945312" xlink:href="#DejaVuSans-73"/>
     <use x="871.044922" xlink:href="#DejaVuSans-20"/>
     <use x="902.832031" xlink:href="#DejaVuSans-50"/>
     <use x="963.087891" xlink:href="#DejaVuSans-65"/>
     <use x="1024.611328" xlink:href="#DejaVuSans-72"/>
     <use x="1065.724609" xlink:href="#DejaVuSans-73"/>
     <use x="1117.824219" xlink:href="#DejaVuSans-69"/>
     <use x="1145.607422" xlink:href="#DejaVuSans-73"/>
     <use x="1197.707031" xlink:href="#DejaVuSans-74"/>
     <use x="1236.916016" xlink:href="#DejaVuSans-65"/>
     <use x="1298.439453" xlink:href="#DejaVuSans-6e"/>
     <use x="1361.818359" xlink:href="#DejaVuSans-63"/>
     <use x="1416.798828" xlink:href="#DejaVuSans-65"/>
     <use x="1478.322266" xlink:href="#DejaVuSans-20"/>
     <use x="1510.109375" xlink:href="#DejaVuSans-44"/>
     <use x="1587.111328" xlink:href="#DejaVuSans-69"/>
     <use x="1614.894531" xlink:href="#DejaVuSans-73"/>
     <use x="1666.994141" xlink:href="#DejaVuSans-74"/>
     <use x="1706.203125" xlink:href="#DejaVuSans-61"/>
     <use x="1767.482422" xlink:href="#DejaVuSans-6e"/>
     <use x="1830.861328" xlink:href="#DejaVuSans-63"/>
     <use x="1885.841797" xlink:href="#DejaVuSans-65"/>
    </g>
   </g>
  </g>
 </g>
 <defs>
  <clipPath id="pe6bb5b20e9">
   <rect height="266.112" width="357.12" x="66.053125" y="22.318125"/>
  </clipPath>
 </defs>
</svg>
