<?xml version="1.0" encoding="utf-8" standalone="no"?>
<!DOCTYPE svg PUBLIC "-//W3C//DTD SVG 1.1//EN"
  "http://www.w3.org/Graphics/SVG/1.1/DTD/svg11.dtd">
<!-- Created with matplotlib (http://matplotlib.org/) -->
<svg height="325pt" version="1.1" viewBox="0 0 417 325" width="417pt" xmlns="http://www.w3.org/2000/svg" xmlns:xlink="http://www.w3.org/1999/xlink">
 <defs>
  <style type="text/css">
*{stroke-linecap:butt;stroke-linejoin:round;}
  </style>
 </defs>
 <g id="figure_1">
  <g id="patch_1">
   <path d="M 0 325.986375 
L 417.96375 325.986375 
L 417.96375 0 
L 0 0 
z
" style="fill:#ffffff;"/>
  </g>
  <g id="axes_1">
   <g id="patch_2">
    <path d="M 50.14375 288.430125 
L 407.26375 288.430125 
L 407.26375 22.318125 
L 50.14375 22.318125 
z
" style="fill:#ffffff;"/>
   </g>
   <g id="PathCollection_1">
    <defs>
     <path d="M 0 3 
C 0.795609 3 1.55874 2.683901 2.12132 2.12132 
C 2.683901 1.55874 3 0.795609 3 0 
C 3 -0.795609 2.683901 -1.55874 2.12132 -2.12132 
C 1.55874 -2.683901 0.795609 -3 0 -3 
C -0.795609 -3 -1.55874 -2.683901 -2.12132 -2.12132 
C -2.683901 -1.55874 -3 -0.795609 -3 0 
C -3 0.795609 -2.683901 1.55874 -2.12132 2.12132 
C -1.55874 2.683901 -0.795609 3 0 3 
z
" id="mea36322da6" style="stroke:#000000;"/>
    </defs>
    <g clip-path="url(#ped1819b905)">
     <use style="stroke:#000000;" x="50.14375" xlink:href="#mea36322da6" y="39.153768"/>
     <use style="stroke:#000000;" x="53.751023" xlink:href="#mea36322da6" y="37.857403"/>
     <use style="stroke:#000000;" x="57.358295" xlink:href="#mea36322da6" y="36.353982"/>
     <use style="stroke:#000000;" x="60.965568" xlink:href="#mea36322da6" y="34.830095"/>
     <use style="stroke:#000000;" x="64.572841" xlink:href="#mea36322da6" y="33.223689"/>
     <use style="stroke:#000000;" x="68.180114" xlink:href="#mea36322da6" y="31.747666"/>
     <use style="stroke:#000000;" x="71.787386" xlink:href="#mea36322da6" y="30.463971"/>
     <use style="stroke:#000000;" x="75.394659" xlink:href="#mea36322da6" y="29.27763"/>
     <use style="stroke:#000000;" x="79.001932" xlink:href="#mea36322da6" y="28.126593"/>
     <use style="stroke:#000000;" x="82.609205" xlink:href="#mea36322da6" y="27.241412"/>
     <use style="stroke:#000000;" x="86.216477" xlink:href="#mea36322da6" y="26.116365"/>
     <use style="stroke:#000000;" x="89.82375" xlink:href="#mea36322da6" y="25.236707"/>
     <use style="stroke:#000000;" x="93.431023" xlink:href="#mea36322da6" y="24.742354"/>
     <use style="stroke:#000000;" x="97.038295" xlink:href="#mea36322da6" y="24.359649"/>
     <use style="stroke:#000000;" x="100.645568" xlink:href="#mea36322da6" y="23.979652"/>
     <use style="stroke:#000000;" x="104.252841" xlink:href="#mea36322da6" y="23.590991"/>
     <use style="stroke:#000000;" x="107.860114" xlink:href="#mea36322da6" y="23.302501"/>
     <use style="stroke:#000000;" x="111.467386" xlink:href="#mea36322da6" y="23.135623"/>
     <use style="stroke:#000000;" x="115.074659" xlink:href="#mea36322da6" y="22.859911"/>
     <use style="stroke:#000000;" x="118.681932" xlink:href="#mea36322da6" y="22.634013"/>
     <use style="stroke:#000000;" x="122.289205" xlink:href="#mea36322da6" y="22.475798"/>
     <use style="stroke:#000000;" x="125.896477" xlink:href="#mea36322da6" y="22.439737"/>
     <use style="stroke:#000000;" x="129.50375" xlink:href="#mea36322da6" y="22.352778"/>
     <use style="stroke:#000000;" x="133.111023" xlink:href="#mea36322da6" y="22.318125"/>
     <use style="stroke:#000000;" x="136.718295" xlink:href="#mea36322da6" y="22.53341"/>
     <use style="stroke:#000000;" x="140.325568" xlink:href="#mea36322da6" y="22.743172"/>
     <use style="stroke:#000000;" x="143.932841" xlink:href="#mea36322da6" y="22.953259"/>
     <use style="stroke:#000000;" x="147.540114" xlink:href="#mea36322da6" y="23.30954"/>
     <use style="stroke:#000000;" x="151.147386" xlink:href="#mea36322da6" y="23.813315"/>
     <use style="stroke:#000000;" x="154.754659" xlink:href="#mea36322da6" y="24.293374"/>
     <use style="stroke:#000000;" x="158.361932" xlink:href="#mea36322da6" y="24.561722"/>
     <use style="stroke:#000000;" x="161.969205" xlink:href="#mea36322da6" y="24.713765"/>
     <use style="stroke:#000000;" x="165.576477" xlink:href="#mea36322da6" y="24.815667"/>
     <use style="stroke:#000000;" x="169.18375" xlink:href="#mea36322da6" y="24.930132"/>
     <use style="stroke:#000000;" x="172.791023" xlink:href="#mea36322da6" y="25.002688"/>
     <use style="stroke:#000000;" x="176.398295" xlink:href="#mea36322da6" y="24.958288"/>
     <use style="stroke:#000000;" x="180.005568" xlink:href="#mea36322da6" y="25.066689"/>
     <use style="stroke:#000000;" x="183.612841" xlink:href="#mea36322da6" y="25.204978"/>
     <use style="stroke:#000000;" x="187.220114" xlink:href="#mea36322da6" y="25.321609"/>
     <use style="stroke:#000000;" x="190.827386" xlink:href="#mea36322da6" y="25.259124"/>
     <use style="stroke:#000000;" x="194.434659" xlink:href="#mea36322da6" y="25.318035"/>
     <use style="stroke:#000000;" x="198.041932" xlink:href="#mea36322da6" y="25.575121"/>
     <use style="stroke:#000000;" x="201.649205" xlink:href="#mea36322da6" y="26.239818"/>
     <use style="stroke:#000000;" x="205.256477" xlink:href="#mea36322da6" y="27.218996"/>
     <use style="stroke:#000000;" x="208.86375" xlink:href="#mea36322da6" y="28.145219"/>
     <use style="stroke:#000000;" x="212.471023" xlink:href="#mea36322da6" y="29.061479"/>
     <use style="stroke:#000000;" x="216.078295" xlink:href="#mea36322da6" y="29.888615"/>
     <use style="stroke:#000000;" x="219.685568" xlink:href="#mea36322da6" y="31.409362"/>
     <use style="stroke:#000000;" x="223.292841" xlink:href="#mea36322da6" y="33.033419"/>
     <use style="stroke:#000000;" x="226.900114" xlink:href="#mea36322da6" y="34.948783"/>
     <use style="stroke:#000000;" x="230.507386" xlink:href="#mea36322da6" y="37.084846"/>
     <use style="stroke:#000000;" x="234.114659" xlink:href="#mea36322da6" y="39.094099"/>
     <use style="stroke:#000000;" x="237.721932" xlink:href="#mea36322da6" y="41.077471"/>
     <use style="stroke:#000000;" x="241.329205" xlink:href="#mea36322da6" y="42.772785"/>
     <use style="stroke:#000000;" x="244.936477" xlink:href="#mea36322da6" y="44.763412"/>
     <use style="stroke:#000000;" x="248.54375" xlink:href="#mea36322da6" y="46.87695"/>
     <use style="stroke:#000000;" x="252.151023" xlink:href="#mea36322da6" y="49.205773"/>
     <use style="stroke:#000000;" x="255.758295" xlink:href="#mea36322da6" y="51.6143"/>
     <use style="stroke:#000000;" x="259.365568" xlink:href="#mea36322da6" y="53.850858"/>
     <use style="stroke:#000000;" x="262.972841" xlink:href="#mea36322da6" y="56.028072"/>
     <use style="stroke:#000000;" x="266.580114" xlink:href="#mea36322da6" y="58.320618"/>
     <use style="stroke:#000000;" x="270.187386" xlink:href="#mea36322da6" y="60.610672"/>
     <use style="stroke:#000000;" x="273.794659" xlink:href="#mea36322da6" y="63.041182"/>
     <use style="stroke:#000000;" x="277.401932" xlink:href="#mea36322da6" y="66.014344"/>
     <use style="stroke:#000000;" x="281.009205" xlink:href="#mea36322da6" y="69.616683"/>
     <use style="stroke:#000000;" x="284.616477" xlink:href="#mea36322da6" y="73.772612"/>
     <use style="stroke:#000000;" x="288.22375" xlink:href="#mea36322da6" y="77.972724"/>
     <use style="stroke:#000000;" x="291.831023" xlink:href="#mea36322da6" y="82.288492"/>
     <use style="stroke:#000000;" x="295.438295" xlink:href="#mea36322da6" y="86.748722"/>
     <use style="stroke:#000000;" x="299.045568" xlink:href="#mea36322da6" y="90.892631"/>
     <use style="stroke:#000000;" x="302.652841" xlink:href="#mea36322da6" y="95.470682"/>
     <use style="stroke:#000000;" x="306.260114" xlink:href="#mea36322da6" y="100.419202"/>
     <use style="stroke:#000000;" x="309.867386" xlink:href="#mea36322da6" y="105.397393"/>
     <use style="stroke:#000000;" x="313.474659" xlink:href="#mea36322da6" y="110.170479"/>
     <use style="stroke:#000000;" x="317.081932" xlink:href="#mea36322da6" y="114.520684"/>
     <use style="stroke:#000000;" x="320.689205" xlink:href="#mea36322da6" y="118.741589"/>
     <use style="stroke:#000000;" x="324.296477" xlink:href="#mea36322da6" y="122.580221"/>
     <use style="stroke:#000000;" x="327.90375" xlink:href="#mea36322da6" y="126.741348"/>
     <use style="stroke:#000000;" x="331.511023" xlink:href="#mea36322da6" y="131.040006"/>
     <use style="stroke:#000000;" x="335.118295" xlink:href="#mea36322da6" y="135.603222"/>
     <use style="stroke:#000000;" x="338.725568" xlink:href="#mea36322da6" y="140.18658"/>
     <use style="stroke:#000000;" x="342.332841" xlink:href="#mea36322da6" y="144.934218"/>
     <use style="stroke:#000000;" x="345.940114" xlink:href="#mea36322da6" y="150.016911"/>
     <use style="stroke:#000000;" x="349.547386" xlink:href="#mea36322da6" y="155.144437"/>
     <use style="stroke:#000000;" x="353.154659" xlink:href="#mea36322da6" y="159.911459"/>
     <use style="stroke:#000000;" x="356.761932" xlink:href="#mea36322da6" y="165.700759"/>
     <use style="stroke:#000000;" x="360.369205" xlink:href="#mea36322da6" y="172.615756"/>
     <use style="stroke:#000000;" x="363.976477" xlink:href="#mea36322da6" y="180.026731"/>
     <use style="stroke:#000000;" x="367.58375" xlink:href="#mea36322da6" y="187.453192"/>
     <use style="stroke:#000000;" x="371.191023" xlink:href="#mea36322da6" y="194.903044"/>
     <use style="stroke:#000000;" x="374.798295" xlink:href="#mea36322da6" y="203.269914"/>
     <use style="stroke:#000000;" x="378.405568" xlink:href="#mea36322da6" y="212.219938"/>
     <use style="stroke:#000000;" x="382.012841" xlink:href="#mea36322da6" y="221.447514"/>
     <use style="stroke:#000000;" x="385.620114" xlink:href="#mea36322da6" y="230.565066"/>
     <use style="stroke:#000000;" x="389.227386" xlink:href="#mea36322da6" y="239.737847"/>
     <use style="stroke:#000000;" x="392.834659" xlink:href="#mea36322da6" y="249.143456"/>
     <use style="stroke:#000000;" x="396.441932" xlink:href="#mea36322da6" y="258.691144"/>
     <use style="stroke:#000000;" x="400.049205" xlink:href="#mea36322da6" y="268.321892"/>
     <use style="stroke:#000000;" x="403.656477" xlink:href="#mea36322da6" y="278.220988"/>
     <use style="stroke:#000000;" x="407.26375" xlink:href="#mea36322da6" y="288.430125"/>
    </g>
   </g>
   <g id="matplotlib.axis_1">
    <g id="xtick_1">
     <g id="line2d_1">
      <defs>
       <path d="M 0 0 
L 0 3.5 
" id="m3c47bfa3ab" style="stroke:#000000;stroke-width:0.8;"/>
      </defs>
      <g>
       <use style="stroke:#000000;stroke-width:0.8;" x="121.536375" xlink:href="#m3c47bfa3ab" y="288.430125"/>
      </g>
     </g>
     <g id="text_1">
      <!-- 2 -->
      <defs>
       <path d="M 19.1875 8.296875 
L 53.609375 8.296875 
L 53.609375 0 
L 7.328125 0 
L 7.328125 8.296875 
Q 12.9375 14.109375 22.625 23.890625 
Q 32.328125 33.6875 34.8125 36.53125 
Q 39.546875 41.84375 41.421875 45.53125 
Q 43.3125 49.21875 43.3125 52.78125 
Q 43.3125 58.59375 39.234375 62.25 
Q 35.15625 65.921875 28.609375 65.921875 
Q 23.96875 65.921875 18.8125 64.3125 
Q 13.671875 62.703125 7.8125 59.421875 
L 7.8125 69.390625 
Q 13.765625 71.78125 18.9375 73 
Q 24.125 74.21875 28.421875 74.21875 
Q 39.75 74.21875 46.484375 68.546875 
Q 53.21875 62.890625 53.21875 53.421875 
Q 53.21875 48.921875 51.53125 44.890625 
Q 49.859375 40.875 45.40625 35.40625 
Q 44.1875 33.984375 37.640625 27.21875 
Q 31.109375 20.453125 19.1875 8.296875 
z
" id="DejaVuSans-32"/>
      </defs>
      <g transform="translate(118.355125 303.028562)scale(0.1 -0.1)">
       <use xlink:href="#DejaVuSans-32"/>
      </g>
     </g>
    </g>
    <g id="xtick_2">
     <g id="line2d_2">
      <g>
       <use style="stroke:#000000;stroke-width:0.8;" x="196.536273" xlink:href="#m3c47bfa3ab" y="288.430125"/>
      </g>
     </g>
     <g id="text_2">
      <!-- 4 -->
      <defs>
       <path d="M 37.796875 64.3125 
L 12.890625 25.390625 
L 37.796875 25.390625 
z
M 35.203125 72.90625 
L 47.609375 72.90625 
L 47.609375 25.390625 
L 58.015625 25.390625 
L 58.015625 17.1875 
L 47.609375 17.1875 
L 47.609375 0 
L 37.796875 0 
L 37.796875 17.1875 
L 4.890625 17.1875 
L 4.890625 26.703125 
z
" id="DejaVuSans-34"/>
      </defs>
      <g transform="translate(193.355023 303.028562)scale(0.1 -0.1)">
       <use xlink:href="#DejaVuSans-34"/>
      </g>
     </g>
    </g>
    <g id="xtick_3">
     <g id="line2d_3">
      <g>
       <use style="stroke:#000000;stroke-width:0.8;" x="271.536171" xlink:href="#m3c47bfa3ab" y="288.430125"/>
      </g>
     </g>
     <g id="text_3">
      <!-- 6 -->
      <defs>
       <path d="M 33.015625 40.375 
Q 26.375 40.375 22.484375 35.828125 
Q 18.609375 31.296875 18.609375 23.390625 
Q 18.609375 15.53125 22.484375 10.953125 
Q 26.375 6.390625 33.015625 6.390625 
Q 39.65625 6.390625 43.53125 10.953125 
Q 47.40625 15.53125 47.40625 23.390625 
Q 47.40625 31.296875 43.53125 35.828125 
Q 39.65625 40.375 33.015625 40.375 
z
M 52.59375 71.296875 
L 52.59375 62.3125 
Q 48.875 64.0625 45.09375 64.984375 
Q 41.3125 65.921875 37.59375 65.921875 
Q 27.828125 65.921875 22.671875 59.328125 
Q 17.53125 52.734375 16.796875 39.40625 
Q 19.671875 43.65625 24.015625 45.921875 
Q 28.375 48.1875 33.59375 48.1875 
Q 44.578125 48.1875 50.953125 41.515625 
Q 57.328125 34.859375 57.328125 23.390625 
Q 57.328125 12.15625 50.6875 5.359375 
Q 44.046875 -1.421875 33.015625 -1.421875 
Q 20.359375 -1.421875 13.671875 8.265625 
Q 6.984375 17.96875 6.984375 36.375 
Q 6.984375 53.65625 15.1875 63.9375 
Q 23.390625 74.21875 37.203125 74.21875 
Q 40.921875 74.21875 44.703125 73.484375 
Q 48.484375 72.75 52.59375 71.296875 
z
" id="DejaVuSans-36"/>
      </defs>
      <g transform="translate(268.354921 303.028562)scale(0.1 -0.1)">
       <use xlink:href="#DejaVuSans-36"/>
      </g>
     </g>
    </g>
    <g id="xtick_4">
     <g id="line2d_4">
      <g>
       <use style="stroke:#000000;stroke-width:0.8;" x="346.536069" xlink:href="#m3c47bfa3ab" y="288.430125"/>
      </g>
     </g>
     <g id="text_4">
      <!-- 8 -->
      <defs>
       <path d="M 31.78125 34.625 
Q 24.75 34.625 20.71875 30.859375 
Q 16.703125 27.09375 16.703125 20.515625 
Q 16.703125 13.921875 20.71875 10.15625 
Q 24.75 6.390625 31.78125 6.390625 
Q 38.8125 6.390625 42.859375 10.171875 
Q 46.921875 13.96875 46.921875 20.515625 
Q 46.921875 27.09375 42.890625 30.859375 
Q 38.875 34.625 31.78125 34.625 
z
M 21.921875 38.8125 
Q 15.578125 40.375 12.03125 44.71875 
Q 8.5 49.078125 8.5 55.328125 
Q 8.5 64.0625 14.71875 69.140625 
Q 20.953125 74.21875 31.78125 74.21875 
Q 42.671875 74.21875 48.875 69.140625 
Q 55.078125 64.0625 55.078125 55.328125 
Q 55.078125 49.078125 51.53125 44.71875 
Q 48 40.375 41.703125 38.8125 
Q 48.828125 37.15625 52.796875 32.3125 
Q 56.78125 27.484375 56.78125 20.515625 
Q 56.78125 9.90625 50.3125 4.234375 
Q 43.84375 -1.421875 31.78125 -1.421875 
Q 19.734375 -1.421875 13.25 4.234375 
Q 6.78125 9.90625 6.78125 20.515625 
Q 6.78125 27.484375 10.78125 32.3125 
Q 14.796875 37.15625 21.921875 38.8125 
z
M 18.3125 54.390625 
Q 18.3125 48.734375 21.84375 45.5625 
Q 25.390625 42.390625 31.78125 42.390625 
Q 38.140625 42.390625 41.71875 45.5625 
Q 45.3125 48.734375 45.3125 54.390625 
Q 45.3125 60.0625 41.71875 63.234375 
Q 38.140625 66.40625 31.78125 66.40625 
Q 25.390625 66.40625 21.84375 63.234375 
Q 18.3125 60.0625 18.3125 54.390625 
z
" id="DejaVuSans-38"/>
      </defs>
      <g transform="translate(343.354819 303.028562)scale(0.1 -0.1)">
       <use xlink:href="#DejaVuSans-38"/>
      </g>
     </g>
    </g>
    <g id="text_5">
     <!-- Input Distance -->
     <defs>
      <path d="M 9.8125 72.90625 
L 19.671875 72.90625 
L 19.671875 0 
L 9.8125 0 
z
" id="DejaVuSans-49"/>
      <path d="M 54.890625 33.015625 
L 54.890625 0 
L 45.90625 0 
L 45.90625 32.71875 
Q 45.90625 40.484375 42.875 44.328125 
Q 39.84375 48.1875 33.796875 48.1875 
Q 26.515625 48.1875 22.3125 43.546875 
Q 18.109375 38.921875 18.109375 30.90625 
L 18.109375 0 
L 9.078125 0 
L 9.078125 54.6875 
L 18.109375 54.6875 
L 18.109375 46.1875 
Q 21.34375 51.125 25.703125 53.5625 
Q 30.078125 56 35.796875 56 
Q 45.21875 56 50.046875 50.171875 
Q 54.890625 44.34375 54.890625 33.015625 
z
" id="DejaVuSans-6e"/>
      <path d="M 18.109375 8.203125 
L 18.109375 -20.796875 
L 9.078125 -20.796875 
L 9.078125 54.6875 
L 18.109375 54.6875 
L 18.109375 46.390625 
Q 20.953125 51.265625 25.265625 53.625 
Q 29.59375 56 35.59375 56 
Q 45.5625 56 51.78125 48.09375 
Q 58.015625 40.1875 58.015625 27.296875 
Q 58.015625 14.40625 51.78125 6.484375 
Q 45.5625 -1.421875 35.59375 -1.421875 
Q 29.59375 -1.421875 25.265625 0.953125 
Q 20.953125 3.328125 18.109375 8.203125 
z
M 48.6875 27.296875 
Q 48.6875 37.203125 44.609375 42.84375 
Q 40.53125 48.484375 33.40625 48.484375 
Q 26.265625 48.484375 22.1875 42.84375 
Q 18.109375 37.203125 18.109375 27.296875 
Q 18.109375 17.390625 22.1875 11.75 
Q 26.265625 6.109375 33.40625 6.109375 
Q 40.53125 6.109375 44.609375 11.75 
Q 48.6875 17.390625 48.6875 27.296875 
z
" id="DejaVuSans-70"/>
      <path d="M 8.5 21.578125 
L 8.5 54.6875 
L 17.484375 54.6875 
L 17.484375 21.921875 
Q 17.484375 14.15625 20.5 10.265625 
Q 23.53125 6.390625 29.59375 6.390625 
Q 36.859375 6.390625 41.078125 11.03125 
Q 45.3125 15.671875 45.3125 23.6875 
L 45.3125 54.6875 
L 54.296875 54.6875 
L 54.296875 0 
L 45.3125 0 
L 45.3125 8.40625 
Q 42.046875 3.421875 37.71875 1 
Q 33.40625 -1.421875 27.6875 -1.421875 
Q 18.265625 -1.421875 13.375 4.4375 
Q 8.5 10.296875 8.5 21.578125 
z
M 31.109375 56 
z
" id="DejaVuSans-75"/>
      <path d="M 18.3125 70.21875 
L 18.3125 54.6875 
L 36.8125 54.6875 
L 36.8125 47.703125 
L 18.3125 47.703125 
L 18.3125 18.015625 
Q 18.3125 11.328125 20.140625 9.421875 
Q 21.96875 7.515625 27.59375 7.515625 
L 36.8125 7.515625 
L 36.8125 0 
L 27.59375 0 
Q 17.1875 0 13.234375 3.875 
Q 9.28125 7.765625 9.28125 18.015625 
L 9.28125 47.703125 
L 2.6875 47.703125 
L 2.6875 54.6875 
L 9.28125 54.6875 
L 9.28125 70.21875 
z
" id="DejaVuSans-74"/>
      <path id="DejaVuSans-20"/>
      <path d="M 19.671875 64.796875 
L 19.671875 8.109375 
L 31.59375 8.109375 
Q 46.6875 8.109375 53.6875 14.9375 
Q 60.6875 21.78125 60.6875 36.53125 
Q 60.6875 51.171875 53.6875 57.984375 
Q 46.6875 64.796875 31.59375 64.796875 
z
M 9.8125 72.90625 
L 30.078125 72.90625 
Q 51.265625 72.90625 61.171875 64.09375 
Q 71.09375 55.28125 71.09375 36.53125 
Q 71.09375 17.671875 61.125 8.828125 
Q 51.171875 0 30.078125 0 
L 9.8125 0 
z
" id="DejaVuSans-44"/>
      <path d="M 9.421875 54.6875 
L 18.40625 54.6875 
L 18.40625 0 
L 9.421875 0 
z
M 9.421875 75.984375 
L 18.40625 75.984375 
L 18.40625 64.59375 
L 9.421875 64.59375 
z
" id="DejaVuSans-69"/>
      <path d="M 44.28125 53.078125 
L 44.28125 44.578125 
Q 40.484375 46.53125 36.375 47.5 
Q 32.28125 48.484375 27.875 48.484375 
Q 21.1875 48.484375 17.84375 46.4375 
Q 14.5 44.390625 14.5 40.28125 
Q 14.5 37.15625 16.890625 35.375 
Q 19.28125 33.59375 26.515625 31.984375 
L 29.59375 31.296875 
Q 39.15625 29.25 43.1875 25.515625 
Q 47.21875 21.78125 47.21875 15.09375 
Q 47.21875 7.46875 41.1875 3.015625 
Q 35.15625 -1.421875 24.609375 -1.421875 
Q 20.21875 -1.421875 15.453125 -0.5625 
Q 10.6875 0.296875 5.421875 2 
L 5.421875 11.28125 
Q 10.40625 8.6875 15.234375 7.390625 
Q 20.0625 6.109375 24.8125 6.109375 
Q 31.15625 6.109375 34.5625 8.28125 
Q 37.984375 10.453125 37.984375 14.40625 
Q 37.984375 18.0625 35.515625 20.015625 
Q 33.0625 21.96875 24.703125 23.78125 
L 21.578125 24.515625 
Q 13.234375 26.265625 9.515625 29.90625 
Q 5.8125 33.546875 5.8125 39.890625 
Q 5.8125 47.609375 11.28125 51.796875 
Q 16.75 56 26.8125 56 
Q 31.78125 56 36.171875 55.265625 
Q 40.578125 54.546875 44.28125 53.078125 
z
" id="DejaVuSans-73"/>
      <path d="M 34.28125 27.484375 
Q 23.390625 27.484375 19.1875 25 
Q 14.984375 22.515625 14.984375 16.5 
Q 14.984375 11.71875 18.140625 8.90625 
Q 21.296875 6.109375 26.703125 6.109375 
Q 34.1875 6.109375 38.703125 11.40625 
Q 43.21875 16.703125 43.21875 25.484375 
L 43.21875 27.484375 
z
M 52.203125 31.203125 
L 52.203125 0 
L 43.21875 0 
L 43.21875 8.296875 
Q 40.140625 3.328125 35.546875 0.953125 
Q 30.953125 -1.421875 24.3125 -1.421875 
Q 15.921875 -1.421875 10.953125 3.296875 
Q 6 8.015625 6 15.921875 
Q 6 25.140625 12.171875 29.828125 
Q 18.359375 34.515625 30.609375 34.515625 
L 43.21875 34.515625 
L 43.21875 35.40625 
Q 43.21875 41.609375 39.140625 45 
Q 35.0625 48.390625 27.6875 48.390625 
Q 23 48.390625 18.546875 47.265625 
Q 14.109375 46.140625 10.015625 43.890625 
L 10.015625 52.203125 
Q 14.9375 54.109375 19.578125 55.046875 
Q 24.21875 56 28.609375 56 
Q 40.484375 56 46.34375 49.84375 
Q 52.203125 43.703125 52.203125 31.203125 
z
" id="DejaVuSans-61"/>
      <path d="M 48.78125 52.59375 
L 48.78125 44.1875 
Q 44.96875 46.296875 41.140625 47.34375 
Q 37.3125 48.390625 33.40625 48.390625 
Q 24.65625 48.390625 19.8125 42.84375 
Q 14.984375 37.3125 14.984375 27.296875 
Q 14.984375 17.28125 19.8125 11.734375 
Q 24.65625 6.203125 33.40625 6.203125 
Q 37.3125 6.203125 41.140625 7.25 
Q 44.96875 8.296875 48.78125 10.40625 
L 48.78125 2.09375 
Q 45.015625 0.34375 40.984375 -0.53125 
Q 36.96875 -1.421875 32.421875 -1.421875 
Q 20.0625 -1.421875 12.78125 6.34375 
Q 5.515625 14.109375 5.515625 27.296875 
Q 5.515625 40.671875 12.859375 48.328125 
Q 20.21875 56 33.015625 56 
Q 37.15625 56 41.109375 55.140625 
Q 45.0625 54.296875 48.78125 52.59375 
z
" id="DejaVuSans-63"/>
      <path d="M 56.203125 29.59375 
L 56.203125 25.203125 
L 14.890625 25.203125 
Q 15.484375 15.921875 20.484375 11.0625 
Q 25.484375 6.203125 34.421875 6.203125 
Q 39.59375 6.203125 44.453125 7.46875 
Q 49.3125 8.734375 54.109375 11.28125 
L 54.109375 2.78125 
Q 49.265625 0.734375 44.1875 -0.34375 
Q 39.109375 -1.421875 33.890625 -1.421875 
Q 20.796875 -1.421875 13.15625 6.1875 
Q 5.515625 13.8125 5.515625 26.8125 
Q 5.515625 40.234375 12.765625 48.109375 
Q 20.015625 56 32.328125 56 
Q 43.359375 56 49.78125 48.890625 
Q 56.203125 41.796875 56.203125 29.59375 
z
M 47.21875 32.234375 
Q 47.125 39.59375 43.09375 43.984375 
Q 39.0625 48.390625 32.421875 48.390625 
Q 24.90625 48.390625 20.390625 44.140625 
Q 15.875 39.890625 15.1875 32.171875 
z
" id="DejaVuSans-65"/>
     </defs>
     <g transform="translate(192.305313 316.706687)scale(0.1 -0.1)">
      <use xlink:href="#DejaVuSans-49"/>
      <use x="29.492188" xlink:href="#DejaVuSans-6e"/>
      <use x="92.871094" xlink:href="#DejaVuSans-70"/>
      <use x="156.347656" xlink:href="#DejaVuSans-75"/>
      <use x="219.726562" xlink:href="#DejaVuSans-74"/>
      <use x="258.935547" xlink:href="#DejaVuSans-20"/>
      <use x="290.722656" xlink:href="#DejaVuSans-44"/>
      <use x="367.724609" xlink:href="#DejaVuSans-69"/>
      <use x="395.507812" xlink:href="#DejaVuSans-73"/>
      <use x="447.607422" xlink:href="#DejaVuSans-74"/>
      <use x="486.816406" xlink:href="#DejaVuSans-61"/>
      <use x="548.095703" xlink:href="#DejaVuSans-6e"/>
      <use x="611.474609" xlink:href="#DejaVuSans-63"/>
      <use x="666.455078" xlink:href="#DejaVuSans-65"/>
     </g>
    </g>
   </g>
   <g id="matplotlib.axis_2">
    <g id="ytick_1">
     <g id="line2d_5">
      <defs>
       <path d="M 0 0 
L -3.5 0 
" id="mf9c8bb9640" style="stroke:#000000;stroke-width:0.8;"/>
      </defs>
      <g>
       <use style="stroke:#000000;stroke-width:0.8;" x="50.14375" xlink:href="#mf9c8bb9640" y="271.31601"/>
      </g>
     </g>
     <g id="text_6">
      <!-- 0.78 -->
      <defs>
       <path d="M 31.78125 66.40625 
Q 24.171875 66.40625 20.328125 58.90625 
Q 16.5 51.421875 16.5 36.375 
Q 16.5 21.390625 20.328125 13.890625 
Q 24.171875 6.390625 31.78125 6.390625 
Q 39.453125 6.390625 43.28125 13.890625 
Q 47.125 21.390625 47.125 36.375 
Q 47.125 51.421875 43.28125 58.90625 
Q 39.453125 66.40625 31.78125 66.40625 
z
M 31.78125 74.21875 
Q 44.046875 74.21875 50.515625 64.515625 
Q 56.984375 54.828125 56.984375 36.375 
Q 56.984375 17.96875 50.515625 8.265625 
Q 44.046875 -1.421875 31.78125 -1.421875 
Q 19.53125 -1.421875 13.0625 8.265625 
Q 6.59375 17.96875 6.59375 36.375 
Q 6.59375 54.828125 13.0625 64.515625 
Q 19.53125 74.21875 31.78125 74.21875 
z
" id="DejaVuSans-30"/>
       <path d="M 10.6875 12.40625 
L 21 12.40625 
L 21 0 
L 10.6875 0 
z
" id="DejaVuSans-2e"/>
       <path d="M 8.203125 72.90625 
L 55.078125 72.90625 
L 55.078125 68.703125 
L 28.609375 0 
L 18.3125 0 
L 43.21875 64.59375 
L 8.203125 64.59375 
z
" id="DejaVuSans-37"/>
      </defs>
      <g transform="translate(20.878125 275.115229)scale(0.1 -0.1)">
       <use xlink:href="#DejaVuSans-30"/>
       <use x="63.623047" xlink:href="#DejaVuSans-2e"/>
       <use x="95.410156" xlink:href="#DejaVuSans-37"/>
       <use x="159.033203" xlink:href="#DejaVuSans-38"/>
      </g>
     </g>
    </g>
    <g id="ytick_2">
     <g id="line2d_6">
      <g>
       <use style="stroke:#000000;stroke-width:0.8;" x="50.14375" xlink:href="#mf9c8bb9640" y="234.979185"/>
      </g>
     </g>
     <g id="text_7">
      <!-- 0.80 -->
      <g transform="translate(20.878125 238.778404)scale(0.1 -0.1)">
       <use xlink:href="#DejaVuSans-30"/>
       <use x="63.623047" xlink:href="#DejaVuSans-2e"/>
       <use x="95.410156" xlink:href="#DejaVuSans-38"/>
       <use x="159.033203" xlink:href="#DejaVuSans-30"/>
      </g>
     </g>
    </g>
    <g id="ytick_3">
     <g id="line2d_7">
      <g>
       <use style="stroke:#000000;stroke-width:0.8;" x="50.14375" xlink:href="#mf9c8bb9640" y="198.64236"/>
      </g>
     </g>
     <g id="text_8">
      <!-- 0.82 -->
      <g transform="translate(20.878125 202.441579)scale(0.1 -0.1)">
       <use xlink:href="#DejaVuSans-30"/>
       <use x="63.623047" xlink:href="#DejaVuSans-2e"/>
       <use x="95.410156" xlink:href="#DejaVuSans-38"/>
       <use x="159.033203" xlink:href="#DejaVuSans-32"/>
      </g>
     </g>
    </g>
    <g id="ytick_4">
     <g id="line2d_8">
      <g>
       <use style="stroke:#000000;stroke-width:0.8;" x="50.14375" xlink:href="#mf9c8bb9640" y="162.305535"/>
      </g>
     </g>
     <g id="text_9">
      <!-- 0.84 -->
      <g transform="translate(20.878125 166.104754)scale(0.1 -0.1)">
       <use xlink:href="#DejaVuSans-30"/>
       <use x="63.623047" xlink:href="#DejaVuSans-2e"/>
       <use x="95.410156" xlink:href="#DejaVuSans-38"/>
       <use x="159.033203" xlink:href="#DejaVuSans-34"/>
      </g>
     </g>
    </g>
    <g id="ytick_5">
     <g id="line2d_9">
      <g>
       <use style="stroke:#000000;stroke-width:0.8;" x="50.14375" xlink:href="#mf9c8bb9640" y="125.96871"/>
      </g>
     </g>
     <g id="text_10">
      <!-- 0.86 -->
      <g transform="translate(20.878125 129.767928)scale(0.1 -0.1)">
       <use xlink:href="#DejaVuSans-30"/>
       <use x="63.623047" xlink:href="#DejaVuSans-2e"/>
       <use x="95.410156" xlink:href="#DejaVuSans-38"/>
       <use x="159.033203" xlink:href="#DejaVuSans-36"/>
      </g>
     </g>
    </g>
    <g id="ytick_6">
     <g id="line2d_10">
      <g>
       <use style="stroke:#000000;stroke-width:0.8;" x="50.14375" xlink:href="#mf9c8bb9640" y="89.631884"/>
      </g>
     </g>
     <g id="text_11">
      <!-- 0.88 -->
      <g transform="translate(20.878125 93.431103)scale(0.1 -0.1)">
       <use xlink:href="#DejaVuSans-30"/>
       <use x="63.623047" xlink:href="#DejaVuSans-2e"/>
       <use x="95.410156" xlink:href="#DejaVuSans-38"/>
       <use x="159.033203" xlink:href="#DejaVuSans-38"/>
      </g>
     </g>
    </g>
    <g id="ytick_7">
     <g id="line2d_11">
      <g>
       <use style="stroke:#000000;stroke-width:0.8;" x="50.14375" xlink:href="#mf9c8bb9640" y="53.295059"/>
      </g>
     </g>
     <g id="text_12">
      <!-- 0.90 -->
      <defs>
       <path d="M 10.984375 1.515625 
L 10.984375 10.5 
Q 14.703125 8.734375 18.5 7.8125 
Q 22.3125 6.890625 25.984375 6.890625 
Q 35.75 6.890625 40.890625 13.453125 
Q 46.046875 20.015625 46.78125 33.40625 
Q 43.953125 29.203125 39.59375 26.953125 
Q 35.25 24.703125 29.984375 24.703125 
Q 19.046875 24.703125 12.671875 31.3125 
Q 6.296875 37.9375 6.296875 49.421875 
Q 6.296875 60.640625 12.9375 67.421875 
Q 19.578125 74.21875 30.609375 74.21875 
Q 43.265625 74.21875 49.921875 64.515625 
Q 56.59375 54.828125 56.59375 36.375 
Q 56.59375 19.140625 48.40625 8.859375 
Q 40.234375 -1.421875 26.421875 -1.421875 
Q 22.703125 -1.421875 18.890625 -0.6875 
Q 15.09375 0.046875 10.984375 1.515625 
z
M 30.609375 32.421875 
Q 37.25 32.421875 41.125 36.953125 
Q 45.015625 41.5 45.015625 49.421875 
Q 45.015625 57.28125 41.125 61.84375 
Q 37.25 66.40625 30.609375 66.40625 
Q 23.96875 66.40625 20.09375 61.84375 
Q 16.21875 57.28125 16.21875 49.421875 
Q 16.21875 41.5 20.09375 36.953125 
Q 23.96875 32.421875 30.609375 32.421875 
z
" id="DejaVuSans-39"/>
      </defs>
      <g transform="translate(20.878125 57.094278)scale(0.1 -0.1)">
       <use xlink:href="#DejaVuSans-30"/>
       <use x="63.623047" xlink:href="#DejaVuSans-2e"/>
       <use x="95.410156" xlink:href="#DejaVuSans-39"/>
       <use x="159.033203" xlink:href="#DejaVuSans-30"/>
      </g>
     </g>
    </g>
    <g id="text_13">
     <!-- Correct Class Probability -->
     <defs>
      <path d="M 64.40625 67.28125 
L 64.40625 56.890625 
Q 59.421875 61.53125 53.78125 63.8125 
Q 48.140625 66.109375 41.796875 66.109375 
Q 29.296875 66.109375 22.65625 58.46875 
Q 16.015625 50.828125 16.015625 36.375 
Q 16.015625 21.96875 22.65625 14.328125 
Q 29.296875 6.6875 41.796875 6.6875 
Q 48.140625 6.6875 53.78125 8.984375 
Q 59.421875 11.28125 64.40625 15.921875 
L 64.40625 5.609375 
Q 59.234375 2.09375 53.4375 0.328125 
Q 47.65625 -1.421875 41.21875 -1.421875 
Q 24.65625 -1.421875 15.125 8.703125 
Q 5.609375 18.84375 5.609375 36.375 
Q 5.609375 53.953125 15.125 64.078125 
Q 24.65625 74.21875 41.21875 74.21875 
Q 47.75 74.21875 53.53125 72.484375 
Q 59.328125 70.75 64.40625 67.28125 
z
" id="DejaVuSans-43"/>
      <path d="M 30.609375 48.390625 
Q 23.390625 48.390625 19.1875 42.75 
Q 14.984375 37.109375 14.984375 27.296875 
Q 14.984375 17.484375 19.15625 11.84375 
Q 23.34375 6.203125 30.609375 6.203125 
Q 37.796875 6.203125 41.984375 11.859375 
Q 46.1875 17.53125 46.1875 27.296875 
Q 46.1875 37.015625 41.984375 42.703125 
Q 37.796875 48.390625 30.609375 48.390625 
z
M 30.609375 56 
Q 42.328125 56 49.015625 48.375 
Q 55.71875 40.765625 55.71875 27.296875 
Q 55.71875 13.875 49.015625 6.21875 
Q 42.328125 -1.421875 30.609375 -1.421875 
Q 18.84375 -1.421875 12.171875 6.21875 
Q 5.515625 13.875 5.515625 27.296875 
Q 5.515625 40.765625 12.171875 48.375 
Q 18.84375 56 30.609375 56 
z
" id="DejaVuSans-6f"/>
      <path d="M 41.109375 46.296875 
Q 39.59375 47.171875 37.8125 47.578125 
Q 36.03125 48 33.890625 48 
Q 26.265625 48 22.1875 43.046875 
Q 18.109375 38.09375 18.109375 28.8125 
L 18.109375 0 
L 9.078125 0 
L 9.078125 54.6875 
L 18.109375 54.6875 
L 18.109375 46.1875 
Q 20.953125 51.171875 25.484375 53.578125 
Q 30.03125 56 36.53125 56 
Q 37.453125 56 38.578125 55.875 
Q 39.703125 55.765625 41.0625 55.515625 
z
" id="DejaVuSans-72"/>
      <path d="M 9.421875 75.984375 
L 18.40625 75.984375 
L 18.40625 0 
L 9.421875 0 
z
" id="DejaVuSans-6c"/>
      <path d="M 19.671875 64.796875 
L 19.671875 37.40625 
L 32.078125 37.40625 
Q 38.96875 37.40625 42.71875 40.96875 
Q 46.484375 44.53125 46.484375 51.125 
Q 46.484375 57.671875 42.71875 61.234375 
Q 38.96875 64.796875 32.078125 64.796875 
z
M 9.8125 72.90625 
L 32.078125 72.90625 
Q 44.34375 72.90625 50.609375 67.359375 
Q 56.890625 61.8125 56.890625 51.125 
Q 56.890625 40.328125 50.609375 34.8125 
Q 44.34375 29.296875 32.078125 29.296875 
L 19.671875 29.296875 
L 19.671875 0 
L 9.8125 0 
z
" id="DejaVuSans-50"/>
      <path d="M 48.6875 27.296875 
Q 48.6875 37.203125 44.609375 42.84375 
Q 40.53125 48.484375 33.40625 48.484375 
Q 26.265625 48.484375 22.1875 42.84375 
Q 18.109375 37.203125 18.109375 27.296875 
Q 18.109375 17.390625 22.1875 11.75 
Q 26.265625 6.109375 33.40625 6.109375 
Q 40.53125 6.109375 44.609375 11.75 
Q 48.6875 17.390625 48.6875 27.296875 
z
M 18.109375 46.390625 
Q 20.953125 51.265625 25.265625 53.625 
Q 29.59375 56 35.59375 56 
Q 45.5625 56 51.78125 48.09375 
Q 58.015625 40.1875 58.015625 27.296875 
Q 58.015625 14.40625 51.78125 6.484375 
Q 45.5625 -1.421875 35.59375 -1.421875 
Q 29.59375 -1.421875 25.265625 0.953125 
Q 20.953125 3.328125 18.109375 8.203125 
L 18.109375 0 
L 9.078125 0 
L 9.078125 75.984375 
L 18.109375 75.984375 
z
" id="DejaVuSans-62"/>
      <path d="M 32.171875 -5.078125 
Q 28.375 -14.84375 24.75 -17.8125 
Q 21.140625 -20.796875 15.09375 -20.796875 
L 7.90625 -20.796875 
L 7.90625 -13.28125 
L 13.1875 -13.28125 
Q 16.890625 -13.28125 18.9375 -11.515625 
Q 21 -9.765625 23.484375 -3.21875 
L 25.09375 0.875 
L 2.984375 54.6875 
L 12.5 54.6875 
L 29.59375 11.921875 
L 46.6875 54.6875 
L 56.203125 54.6875 
z
" id="DejaVuSans-79"/>
     </defs>
     <g transform="translate(14.798438 216.778031)rotate(-90)scale(0.1 -0.1)">
      <use xlink:href="#DejaVuSans-43"/>
      <use x="69.824219" xlink:href="#DejaVuSans-6f"/>
      <use x="131.005859" xlink:href="#DejaVuSans-72"/>
      <use x="172.103516" xlink:href="#DejaVuSans-72"/>
      <use x="213.185547" xlink:href="#DejaVuSans-65"/>
      <use x="274.708984" xlink:href="#DejaVuSans-63"/>
      <use x="329.689453" xlink:href="#DejaVuSans-74"/>
      <use x="368.898438" xlink:href="#DejaVuSans-20"/>
      <use x="400.685547" xlink:href="#DejaVuSans-43"/>
      <use x="470.509766" xlink:href="#DejaVuSans-6c"/>
      <use x="498.292969" xlink:href="#DejaVuSans-61"/>
      <use x="559.572266" xlink:href="#DejaVuSans-73"/>
      <use x="611.671875" xlink:href="#DejaVuSans-73"/>
      <use x="663.771484" xlink:href="#DejaVuSans-20"/>
      <use x="695.558594" xlink:href="#DejaVuSans-50"/>
      <use x="755.845703" xlink:href="#DejaVuSans-72"/>
      <use x="796.927734" xlink:href="#DejaVuSans-6f"/>
      <use x="858.109375" xlink:href="#DejaVuSans-62"/>
      <use x="921.585938" xlink:href="#DejaVuSans-61"/>
      <use x="982.865234" xlink:href="#DejaVuSans-62"/>
      <use x="1046.341797" xlink:href="#DejaVuSans-69"/>
      <use x="1074.125" xlink:href="#DejaVuSans-6c"/>
      <use x="1101.908203" xlink:href="#DejaVuSans-69"/>
      <use x="1129.691406" xlink:href="#DejaVuSans-74"/>
      <use x="1168.900391" xlink:href="#DejaVuSans-79"/>
     </g>
    </g>
   </g>
   <g id="line2d_12">
    <path clip-path="url(#ped1819b905)" d="M 50.14375 3.650686 
L 53.751023 4.726135 
L 57.358295 5.801583 
L 60.965568 6.877032 
L 64.572841 7.95248 
L 68.180114 9.027929 
L 71.787386 10.103377 
L 75.394659 11.178825 
L 79.001932 12.254274 
L 82.609205 13.329722 
L 86.216477 14.405171 
L 89.82375 15.480619 
L 93.431023 16.556068 
L 97.038295 17.631516 
L 100.645568 18.706965 
L 104.252841 19.782413 
L 107.860114 20.857862 
L 111.467386 21.93331 
L 115.074659 23.008759 
L 118.681932 24.084207 
L 122.289205 25.159656 
L 125.896477 26.235104 
L 129.50375 27.310553 
L 133.111023 28.386001 
L 136.718295 29.461449 
L 140.325568 30.536898 
L 143.932841 31.612346 
L 147.540114 32.687795 
L 151.147386 33.763243 
L 154.754659 34.838692 
L 158.361932 35.91414 
L 161.969205 36.989589 
L 165.576477 38.065037 
L 169.18375 39.140486 
L 172.791023 40.215934 
L 176.398295 41.291383 
L 180.005568 42.366831 
L 183.612841 43.44228 
L 187.220114 44.517728 
L 190.827386 45.593177 
L 194.434659 46.668625 
L 198.041932 47.744074 
L 201.649205 48.819522 
L 205.256477 49.89497 
L 208.86375 50.970419 
L 212.471023 52.045867 
L 216.078295 53.121316 
L 219.685568 54.196764 
L 223.292841 55.272213 
L 226.900114 56.347661 
L 230.507386 57.42311 
L 234.114659 58.498558 
L 237.721932 59.574007 
L 241.329205 60.649455 
L 244.936477 61.724904 
L 248.54375 62.800352 
L 252.151023 63.875801 
L 255.758295 64.951249 
L 259.365568 66.026698 
L 262.972841 67.102146 
L 266.580114 68.177594 
L 270.187386 69.253043 
L 273.794659 70.328491 
L 277.401932 71.40394 
L 281.009205 72.479388 
L 284.616477 73.554837 
L 288.22375 74.630285 
L 291.831023 75.705734 
L 295.438295 76.781182 
L 299.045568 77.856631 
L 302.652841 78.932079 
L 306.260114 80.007528 
L 309.867386 81.082976 
L 313.474659 82.158425 
L 317.081932 83.233873 
L 320.689205 84.309322 
L 324.296477 85.38477 
L 327.90375 86.460218 
L 331.511023 87.535667 
L 335.118295 88.611115 
L 338.725568 89.686564 
L 342.332841 90.762012 
L 345.940114 91.837461 
L 349.547386 92.912909 
L 353.154659 93.988358 
L 356.761932 95.063806 
L 360.369205 96.139255 
L 363.976477 97.214703 
L 367.58375 98.290152 
L 371.191023 99.3656 
L 374.798295 100.441049 
L 378.405568 101.516497 
L 382.012841 102.591946 
L 385.620114 103.667394 
L 389.227386 104.742843 
L 392.834659 105.818291 
L 396.441932 106.893739 
L 400.049205 107.969188 
L 403.656477 109.044636 
L 407.26375 110.120085 
" style="fill:none;stroke:#c0c0c0;stroke-linecap:square;stroke-width:3;"/>
   </g>
   <g id="patch_3">
    <path d="M 50.14375 288.430125 
L 50.14375 22.318125 
" style="fill:none;stroke:#000000;stroke-linecap:square;stroke-linejoin:miter;stroke-width:0.8;"/>
   </g>
   <g id="patch_4">
    <path d="M 407.26375 288.430125 
L 407.26375 22.318125 
" style="fill:none;stroke:#000000;stroke-linecap:square;stroke-linejoin:miter;stroke-width:0.8;"/>
   </g>
   <g id="patch_5">
    <path d="M 50.14375 288.430125 
L 407.26375 288.430125 
" style="fill:none;stroke:#000000;stroke-linecap:square;stroke-linejoin:miter;stroke-width:0.8;"/>
   </g>
   <g id="patch_6">
    <path d="M 50.14375 22.318125 
L 407.26375 22.318125 
" style="fill:none;stroke:#000000;stroke-linecap:square;stroke-linejoin:miter;stroke-width:0.8;"/>
   </g>
   <g id="text_14">
    <!-- Input Distance vs Correct Class Probability -->
    <defs>
     <path d="M 2.984375 54.6875 
L 12.5 54.6875 
L 29.59375 8.796875 
L 46.6875 54.6875 
L 56.203125 54.6875 
L 35.6875 0 
L 23.484375 0 
z
" id="DejaVuSans-76"/>
    </defs>
    <g transform="translate(100.850313 16.318125)scale(0.12 -0.12)">
     <use xlink:href="#DejaVuSans-49"/>
     <use x="29.492188" xlink:href="#DejaVuSans-6e"/>
     <use x="92.871094" xlink:href="#DejaVuSans-70"/>
     <use x="156.347656" xlink:href="#DejaVuSans-75"/>
     <use x="219.726562" xlink:href="#DejaVuSans-74"/>
     <use x="258.935547" xlink:href="#DejaVuSans-20"/>
     <use x="290.722656" xlink:href="#DejaVuSans-44"/>
     <use x="367.724609" xlink:href="#DejaVuSans-69"/>
     <use x="395.507812" xlink:href="#DejaVuSans-73"/>
     <use x="447.607422" xlink:href="#DejaVuSans-74"/>
     <use x="486.816406" xlink:href="#DejaVuSans-61"/>
     <use x="548.095703" xlink:href="#DejaVuSans-6e"/>
     <use x="611.474609" xlink:href="#DejaVuSans-63"/>
     <use x="666.455078" xlink:href="#DejaVuSans-65"/>
     <use x="727.978516" xlink:href="#DejaVuSans-20"/>
     <use x="759.765625" xlink:href="#DejaVuSans-76"/>
     <use x="818.945312" xlink:href="#DejaVuSans-73"/>
     <use x="871.044922" xlink:href="#DejaVuSans-20"/>
     <use x="902.832031" xlink:href="#DejaVuSans-43"/>
     <use x="972.65625" xlink:href="#DejaVuSans-6f"/>
     <use x="1033.837891" xlink:href="#DejaVuSans-72"/>
     <use x="1074.935547" xlink:href="#DejaVuSans-72"/>
     <use x="1116.017578" xlink:href="#DejaVuSans-65"/>
     <use x="1177.541016" xlink:href="#DejaVuSans-63"/>
     <use x="1232.521484" xlink:href="#DejaVuSans-74"/>
     <use x="1271.730469" xlink:href="#DejaVuSans-20"/>
     <use x="1303.517578" xlink:href="#DejaVuSans-43"/>
     <use x="1373.341797" xlink:href="#DejaVuSans-6c"/>
     <use x="1401.125" xlink:href="#DejaVuSans-61"/>
     <use x="1462.404297" xlink:href="#DejaVuSans-73"/>
     <use x="1514.503906" xlink:href="#DejaVuSans-73"/>
     <use x="1566.603516" xlink:href="#DejaVuSans-20"/>
     <use x="1598.390625" xlink:href="#DejaVuSans-50"/>
     <use x="1658.677734" xlink:href="#DejaVuSans-72"/>
     <use x="1699.759766" xlink:href="#DejaVuSans-6f"/>
     <use x="1760.941406" xlink:href="#DejaVuSans-62"/>
     <use x="1824.417969" xlink:href="#DejaVuSans-61"/>
     <use x="1885.697266" xlink:href="#DejaVuSans-62"/>
     <use x="1949.173828" xlink:href="#DejaVuSans-69"/>
     <use x="1976.957031" xlink:href="#DejaVuSans-6c"/>
     <use x="2004.740234" xlink:href="#DejaVuSans-69"/>
     <use x="2032.523438" xlink:href="#DejaVuSans-74"/>
     <use x="2071.732422" xlink:href="#DejaVuSans-79"/>
    </g>
   </g>
  </g>
 </g>
 <defs>
  <clipPath id="ped1819b905">
   <rect height="266.112" width="357.12" x="50.14375" y="22.318125"/>
  </clipPath>
 </defs>
</svg>
