<?xml version="1.0" encoding="utf-8" standalone="no"?>
<!DOCTYPE svg PUBLIC "-//W3C//DTD SVG 1.1//EN"
  "http://www.w3.org/Graphics/SVG/1.1/DTD/svg11.dtd">
<!-- Created with matplotlib (http://matplotlib.org/) -->
<svg height="314pt" version="1.1" viewBox="0 0 325 314" width="325pt" xmlns="http://www.w3.org/2000/svg" xmlns:xlink="http://www.w3.org/1999/xlink">
 <defs>
  <style type="text/css">
*{stroke-linecap:butt;stroke-linejoin:round;}
  </style>
 </defs>
 <g id="figure_1">
  <g id="patch_1">
   <path d="M 0 314.667469 
L 325.044812 314.667469 
L 325.044812 0 
L 0 0 
z
" style="fill:#ffffff;"/>
  </g>
  <g id="axes_1">
   <g id="patch_2">
    <path d="M 43.78125 277.111219 
L 309.89325 277.111219 
L 309.89325 10.999219 
L 43.78125 10.999219 
z
" style="fill:#ffffff;"/>
   </g>
   <g id="line2d_1">
    <path clip-path="url(#p68c8c16275)" d="M 43.78125 277.111219 
L 309.89325 10.999219 
" style="fill:none;opacity:0.75;stroke:#000000;stroke-linecap:square;stroke-width:1.5;"/>
   </g>
   <g id="matplotlib.axis_1">
    <g id="xtick_1">
     <g id="line2d_2">
      <defs>
       <path d="M 0 0 
L 0 3.5 
" id="m4246b9d894" style="stroke:#000000;stroke-width:0.8;"/>
      </defs>
      <g>
       <use style="stroke:#000000;stroke-width:0.8;" x="43.78125" xlink:href="#m4246b9d894" y="277.111219"/>
      </g>
     </g>
     <g id="text_1">
      <!-- 0.0 -->
      <defs>
       <path d="M 31.78125 66.40625 
Q 24.171875 66.40625 20.328125 58.90625 
Q 16.5 51.421875 16.5 36.375 
Q 16.5 21.390625 20.328125 13.890625 
Q 24.171875 6.390625 31.78125 6.390625 
Q 39.453125 6.390625 43.28125 13.890625 
Q 47.125 21.390625 47.125 36.375 
Q 47.125 51.421875 43.28125 58.90625 
Q 39.453125 66.40625 31.78125 66.40625 
z
M 31.78125 74.21875 
Q 44.046875 74.21875 50.515625 64.515625 
Q 56.984375 54.828125 56.984375 36.375 
Q 56.984375 17.96875 50.515625 8.265625 
Q 44.046875 -1.421875 31.78125 -1.421875 
Q 19.53125 -1.421875 13.0625 8.265625 
Q 6.59375 17.96875 6.59375 36.375 
Q 6.59375 54.828125 13.0625 64.515625 
Q 19.53125 74.21875 31.78125 74.21875 
z
" id="DejaVuSans-30"/>
       <path d="M 10.6875 12.40625 
L 21 12.40625 
L 21 0 
L 10.6875 0 
z
" id="DejaVuSans-2e"/>
      </defs>
      <g transform="translate(35.829688 291.709656)scale(0.1 -0.1)">
       <use xlink:href="#DejaVuSans-30"/>
       <use x="63.623047" xlink:href="#DejaVuSans-2e"/>
       <use x="95.410156" xlink:href="#DejaVuSans-30"/>
      </g>
     </g>
    </g>
    <g id="xtick_2">
     <g id="line2d_3">
      <g>
       <use style="stroke:#000000;stroke-width:0.8;" x="97.00365" xlink:href="#m4246b9d894" y="277.111219"/>
      </g>
     </g>
     <g id="text_2">
      <!-- 0.2 -->
      <defs>
       <path d="M 19.1875 8.296875 
L 53.609375 8.296875 
L 53.609375 0 
L 7.328125 0 
L 7.328125 8.296875 
Q 12.9375 14.109375 22.625 23.890625 
Q 32.328125 33.6875 34.8125 36.53125 
Q 39.546875 41.84375 41.421875 45.53125 
Q 43.3125 49.21875 43.3125 52.78125 
Q 43.3125 58.59375 39.234375 62.25 
Q 35.15625 65.921875 28.609375 65.921875 
Q 23.96875 65.921875 18.8125 64.3125 
Q 13.671875 62.703125 7.8125 59.421875 
L 7.8125 69.390625 
Q 13.765625 71.78125 18.9375 73 
Q 24.125 74.21875 28.421875 74.21875 
Q 39.75 74.21875 46.484375 68.546875 
Q 53.21875 62.890625 53.21875 53.421875 
Q 53.21875 48.921875 51.53125 44.890625 
Q 49.859375 40.875 45.40625 35.40625 
Q 44.1875 33.984375 37.640625 27.21875 
Q 31.109375 20.453125 19.1875 8.296875 
z
" id="DejaVuSans-32"/>
      </defs>
      <g transform="translate(89.052088 291.709656)scale(0.1 -0.1)">
       <use xlink:href="#DejaVuSans-30"/>
       <use x="63.623047" xlink:href="#DejaVuSans-2e"/>
       <use x="95.410156" xlink:href="#DejaVuSans-32"/>
      </g>
     </g>
    </g>
    <g id="xtick_3">
     <g id="line2d_4">
      <g>
       <use style="stroke:#000000;stroke-width:0.8;" x="150.22605" xlink:href="#m4246b9d894" y="277.111219"/>
      </g>
     </g>
     <g id="text_3">
      <!-- 0.4 -->
      <defs>
       <path d="M 37.796875 64.3125 
L 12.890625 25.390625 
L 37.796875 25.390625 
z
M 35.203125 72.90625 
L 47.609375 72.90625 
L 47.609375 25.390625 
L 58.015625 25.390625 
L 58.015625 17.1875 
L 47.609375 17.1875 
L 47.609375 0 
L 37.796875 0 
L 37.796875 17.1875 
L 4.890625 17.1875 
L 4.890625 26.703125 
z
" id="DejaVuSans-34"/>
      </defs>
      <g transform="translate(142.274488 291.709656)scale(0.1 -0.1)">
       <use xlink:href="#DejaVuSans-30"/>
       <use x="63.623047" xlink:href="#DejaVuSans-2e"/>
       <use x="95.410156" xlink:href="#DejaVuSans-34"/>
      </g>
     </g>
    </g>
    <g id="xtick_4">
     <g id="line2d_5">
      <g>
       <use style="stroke:#000000;stroke-width:0.8;" x="203.44845" xlink:href="#m4246b9d894" y="277.111219"/>
      </g>
     </g>
     <g id="text_4">
      <!-- 0.6 -->
      <defs>
       <path d="M 33.015625 40.375 
Q 26.375 40.375 22.484375 35.828125 
Q 18.609375 31.296875 18.609375 23.390625 
Q 18.609375 15.53125 22.484375 10.953125 
Q 26.375 6.390625 33.015625 6.390625 
Q 39.65625 6.390625 43.53125 10.953125 
Q 47.40625 15.53125 47.40625 23.390625 
Q 47.40625 31.296875 43.53125 35.828125 
Q 39.65625 40.375 33.015625 40.375 
z
M 52.59375 71.296875 
L 52.59375 62.3125 
Q 48.875 64.0625 45.09375 64.984375 
Q 41.3125 65.921875 37.59375 65.921875 
Q 27.828125 65.921875 22.671875 59.328125 
Q 17.53125 52.734375 16.796875 39.40625 
Q 19.671875 43.65625 24.015625 45.921875 
Q 28.375 48.1875 33.59375 48.1875 
Q 44.578125 48.1875 50.953125 41.515625 
Q 57.328125 34.859375 57.328125 23.390625 
Q 57.328125 12.15625 50.6875 5.359375 
Q 44.046875 -1.421875 33.015625 -1.421875 
Q 20.359375 -1.421875 13.671875 8.265625 
Q 6.984375 17.96875 6.984375 36.375 
Q 6.984375 53.65625 15.1875 63.9375 
Q 23.390625 74.21875 37.203125 74.21875 
Q 40.921875 74.21875 44.703125 73.484375 
Q 48.484375 72.75 52.59375 71.296875 
z
" id="DejaVuSans-36"/>
      </defs>
      <g transform="translate(195.496888 291.709656)scale(0.1 -0.1)">
       <use xlink:href="#DejaVuSans-30"/>
       <use x="63.623047" xlink:href="#DejaVuSans-2e"/>
       <use x="95.410156" xlink:href="#DejaVuSans-36"/>
      </g>
     </g>
    </g>
    <g id="xtick_5">
     <g id="line2d_6">
      <g>
       <use style="stroke:#000000;stroke-width:0.8;" x="256.67085" xlink:href="#m4246b9d894" y="277.111219"/>
      </g>
     </g>
     <g id="text_5">
      <!-- 0.8 -->
      <defs>
       <path d="M 31.78125 34.625 
Q 24.75 34.625 20.71875 30.859375 
Q 16.703125 27.09375 16.703125 20.515625 
Q 16.703125 13.921875 20.71875 10.15625 
Q 24.75 6.390625 31.78125 6.390625 
Q 38.8125 6.390625 42.859375 10.171875 
Q 46.921875 13.96875 46.921875 20.515625 
Q 46.921875 27.09375 42.890625 30.859375 
Q 38.875 34.625 31.78125 34.625 
z
M 21.921875 38.8125 
Q 15.578125 40.375 12.03125 44.71875 
Q 8.5 49.078125 8.5 55.328125 
Q 8.5 64.0625 14.71875 69.140625 
Q 20.953125 74.21875 31.78125 74.21875 
Q 42.671875 74.21875 48.875 69.140625 
Q 55.078125 64.0625 55.078125 55.328125 
Q 55.078125 49.078125 51.53125 44.71875 
Q 48 40.375 41.703125 38.8125 
Q 48.828125 37.15625 52.796875 32.3125 
Q 56.78125 27.484375 56.78125 20.515625 
Q 56.78125 9.90625 50.3125 4.234375 
Q 43.84375 -1.421875 31.78125 -1.421875 
Q 19.734375 -1.421875 13.25 4.234375 
Q 6.78125 9.90625 6.78125 20.515625 
Q 6.78125 27.484375 10.78125 32.3125 
Q 14.796875 37.15625 21.921875 38.8125 
z
M 18.3125 54.390625 
Q 18.3125 48.734375 21.84375 45.5625 
Q 25.390625 42.390625 31.78125 42.390625 
Q 38.140625 42.390625 41.71875 45.5625 
Q 45.3125 48.734375 45.3125 54.390625 
Q 45.3125 60.0625 41.71875 63.234375 
Q 38.140625 66.40625 31.78125 66.40625 
Q 25.390625 66.40625 21.84375 63.234375 
Q 18.3125 60.0625 18.3125 54.390625 
z
" id="DejaVuSans-38"/>
      </defs>
      <g transform="translate(248.719288 291.709656)scale(0.1 -0.1)">
       <use xlink:href="#DejaVuSans-30"/>
       <use x="63.623047" xlink:href="#DejaVuSans-2e"/>
       <use x="95.410156" xlink:href="#DejaVuSans-38"/>
      </g>
     </g>
    </g>
    <g id="xtick_6">
     <g id="line2d_7">
      <g>
       <use style="stroke:#000000;stroke-width:0.8;" x="309.89325" xlink:href="#m4246b9d894" y="277.111219"/>
      </g>
     </g>
     <g id="text_6">
      <!-- 1.0 -->
      <defs>
       <path d="M 12.40625 8.296875 
L 28.515625 8.296875 
L 28.515625 63.921875 
L 10.984375 60.40625 
L 10.984375 69.390625 
L 28.421875 72.90625 
L 38.28125 72.90625 
L 38.28125 8.296875 
L 54.390625 8.296875 
L 54.390625 0 
L 12.40625 0 
z
" id="DejaVuSans-31"/>
      </defs>
      <g transform="translate(301.941688 291.709656)scale(0.1 -0.1)">
       <use xlink:href="#DejaVuSans-31"/>
       <use x="63.623047" xlink:href="#DejaVuSans-2e"/>
       <use x="95.410156" xlink:href="#DejaVuSans-30"/>
      </g>
     </g>
    </g>
    <g id="text_7">
     <!-- Birth Time -->
     <defs>
      <path d="M 19.671875 34.8125 
L 19.671875 8.109375 
L 35.5 8.109375 
Q 43.453125 8.109375 47.28125 11.40625 
Q 51.125 14.703125 51.125 21.484375 
Q 51.125 28.328125 47.28125 31.5625 
Q 43.453125 34.8125 35.5 34.8125 
z
M 19.671875 64.796875 
L 19.671875 42.828125 
L 34.28125 42.828125 
Q 41.5 42.828125 45.03125 45.53125 
Q 48.578125 48.25 48.578125 53.8125 
Q 48.578125 59.328125 45.03125 62.0625 
Q 41.5 64.796875 34.28125 64.796875 
z
M 9.8125 72.90625 
L 35.015625 72.90625 
Q 46.296875 72.90625 52.390625 68.21875 
Q 58.5 63.53125 58.5 54.890625 
Q 58.5 48.1875 55.375 44.234375 
Q 52.25 40.28125 46.1875 39.3125 
Q 53.46875 37.75 57.5 32.78125 
Q 61.53125 27.828125 61.53125 20.40625 
Q 61.53125 10.640625 54.890625 5.3125 
Q 48.25 0 35.984375 0 
L 9.8125 0 
z
" id="DejaVuSans-42"/>
      <path d="M 9.421875 54.6875 
L 18.40625 54.6875 
L 18.40625 0 
L 9.421875 0 
z
M 9.421875 75.984375 
L 18.40625 75.984375 
L 18.40625 64.59375 
L 9.421875 64.59375 
z
" id="DejaVuSans-69"/>
      <path d="M 41.109375 46.296875 
Q 39.59375 47.171875 37.8125 47.578125 
Q 36.03125 48 33.890625 48 
Q 26.265625 48 22.1875 43.046875 
Q 18.109375 38.09375 18.109375 28.8125 
L 18.109375 0 
L 9.078125 0 
L 9.078125 54.6875 
L 18.109375 54.6875 
L 18.109375 46.1875 
Q 20.953125 51.171875 25.484375 53.578125 
Q 30.03125 56 36.53125 56 
Q 37.453125 56 38.578125 55.875 
Q 39.703125 55.765625 41.0625 55.515625 
z
" id="DejaVuSans-72"/>
      <path d="M 18.3125 70.21875 
L 18.3125 54.6875 
L 36.8125 54.6875 
L 36.8125 47.703125 
L 18.3125 47.703125 
L 18.3125 18.015625 
Q 18.3125 11.328125 20.140625 9.421875 
Q 21.96875 7.515625 27.59375 7.515625 
L 36.8125 7.515625 
L 36.8125 0 
L 27.59375 0 
Q 17.1875 0 13.234375 3.875 
Q 9.28125 7.765625 9.28125 18.015625 
L 9.28125 47.703125 
L 2.6875 47.703125 
L 2.6875 54.6875 
L 9.28125 54.6875 
L 9.28125 70.21875 
z
" id="DejaVuSans-74"/>
      <path d="M 54.890625 33.015625 
L 54.890625 0 
L 45.90625 0 
L 45.90625 32.71875 
Q 45.90625 40.484375 42.875 44.328125 
Q 39.84375 48.1875 33.796875 48.1875 
Q 26.515625 48.1875 22.3125 43.546875 
Q 18.109375 38.921875 18.109375 30.90625 
L 18.109375 0 
L 9.078125 0 
L 9.078125 75.984375 
L 18.109375 75.984375 
L 18.109375 46.1875 
Q 21.34375 51.125 25.703125 53.5625 
Q 30.078125 56 35.796875 56 
Q 45.21875 56 50.046875 50.171875 
Q 54.890625 44.34375 54.890625 33.015625 
z
" id="DejaVuSans-68"/>
      <path id="DejaVuSans-20"/>
      <path d="M -0.296875 72.90625 
L 61.375 72.90625 
L 61.375 64.59375 
L 35.5 64.59375 
L 35.5 0 
L 25.59375 0 
L 25.59375 64.59375 
L -0.296875 64.59375 
z
" id="DejaVuSans-54"/>
      <path d="M 52 44.1875 
Q 55.375 50.25 60.0625 53.125 
Q 64.75 56 71.09375 56 
Q 79.640625 56 84.28125 50.015625 
Q 88.921875 44.046875 88.921875 33.015625 
L 88.921875 0 
L 79.890625 0 
L 79.890625 32.71875 
Q 79.890625 40.578125 77.09375 44.375 
Q 74.3125 48.1875 68.609375 48.1875 
Q 61.625 48.1875 57.5625 43.546875 
Q 53.515625 38.921875 53.515625 30.90625 
L 53.515625 0 
L 44.484375 0 
L 44.484375 32.71875 
Q 44.484375 40.625 41.703125 44.40625 
Q 38.921875 48.1875 33.109375 48.1875 
Q 26.21875 48.1875 22.15625 43.53125 
Q 18.109375 38.875 18.109375 30.90625 
L 18.109375 0 
L 9.078125 0 
L 9.078125 54.6875 
L 18.109375 54.6875 
L 18.109375 46.1875 
Q 21.1875 51.21875 25.484375 53.609375 
Q 29.78125 56 35.6875 56 
Q 41.65625 56 45.828125 52.96875 
Q 50 49.953125 52 44.1875 
z
" id="DejaVuSans-6d"/>
      <path d="M 56.203125 29.59375 
L 56.203125 25.203125 
L 14.890625 25.203125 
Q 15.484375 15.921875 20.484375 11.0625 
Q 25.484375 6.203125 34.421875 6.203125 
Q 39.59375 6.203125 44.453125 7.46875 
Q 49.3125 8.734375 54.109375 11.28125 
L 54.109375 2.78125 
Q 49.265625 0.734375 44.1875 -0.34375 
Q 39.109375 -1.421875 33.890625 -1.421875 
Q 20.796875 -1.421875 13.15625 6.1875 
Q 5.515625 13.8125 5.515625 26.8125 
Q 5.515625 40.234375 12.765625 48.109375 
Q 20.015625 56 32.328125 56 
Q 43.359375 56 49.78125 48.890625 
Q 56.203125 41.796875 56.203125 29.59375 
z
M 47.21875 32.234375 
Q 47.125 39.59375 43.09375 43.984375 
Q 39.0625 48.390625 32.421875 48.390625 
Q 24.90625 48.390625 20.390625 44.140625 
Q 15.875 39.890625 15.1875 32.171875 
z
" id="DejaVuSans-65"/>
     </defs>
     <g transform="translate(150.856781 305.387781)scale(0.1 -0.1)">
      <use xlink:href="#DejaVuSans-42"/>
      <use x="68.603516" xlink:href="#DejaVuSans-69"/>
      <use x="96.386719" xlink:href="#DejaVuSans-72"/>
      <use x="137.5" xlink:href="#DejaVuSans-74"/>
      <use x="176.708984" xlink:href="#DejaVuSans-68"/>
      <use x="240.087891" xlink:href="#DejaVuSans-20"/>
      <use x="271.875" xlink:href="#DejaVuSans-54"/>
      <use x="332.912109" xlink:href="#DejaVuSans-69"/>
      <use x="360.695312" xlink:href="#DejaVuSans-6d"/>
      <use x="458.107422" xlink:href="#DejaVuSans-65"/>
     </g>
    </g>
   </g>
   <g id="matplotlib.axis_2">
    <g id="ytick_1">
     <g id="line2d_8">
      <defs>
       <path d="M 0 0 
L -3.5 0 
" id="me45ba0e713" style="stroke:#000000;stroke-width:0.8;"/>
      </defs>
      <g>
       <use style="stroke:#000000;stroke-width:0.8;" x="43.78125" xlink:href="#me45ba0e713" y="277.111219"/>
      </g>
     </g>
     <g id="text_8">
      <!-- 0.0 -->
      <g transform="translate(20.878125 280.910437)scale(0.1 -0.1)">
       <use xlink:href="#DejaVuSans-30"/>
       <use x="63.623047" xlink:href="#DejaVuSans-2e"/>
       <use x="95.410156" xlink:href="#DejaVuSans-30"/>
      </g>
     </g>
    </g>
    <g id="ytick_2">
     <g id="line2d_9">
      <g>
       <use style="stroke:#000000;stroke-width:0.8;" x="43.78125" xlink:href="#me45ba0e713" y="223.888819"/>
      </g>
     </g>
     <g id="text_9">
      <!-- 0.2 -->
      <g transform="translate(20.878125 227.688037)scale(0.1 -0.1)">
       <use xlink:href="#DejaVuSans-30"/>
       <use x="63.623047" xlink:href="#DejaVuSans-2e"/>
       <use x="95.410156" xlink:href="#DejaVuSans-32"/>
      </g>
     </g>
    </g>
    <g id="ytick_3">
     <g id="line2d_10">
      <g>
       <use style="stroke:#000000;stroke-width:0.8;" x="43.78125" xlink:href="#me45ba0e713" y="170.666419"/>
      </g>
     </g>
     <g id="text_10">
      <!-- 0.4 -->
      <g transform="translate(20.878125 174.465637)scale(0.1 -0.1)">
       <use xlink:href="#DejaVuSans-30"/>
       <use x="63.623047" xlink:href="#DejaVuSans-2e"/>
       <use x="95.410156" xlink:href="#DejaVuSans-34"/>
      </g>
     </g>
    </g>
    <g id="ytick_4">
     <g id="line2d_11">
      <g>
       <use style="stroke:#000000;stroke-width:0.8;" x="43.78125" xlink:href="#me45ba0e713" y="117.444019"/>
      </g>
     </g>
     <g id="text_11">
      <!-- 0.6 -->
      <g transform="translate(20.878125 121.243237)scale(0.1 -0.1)">
       <use xlink:href="#DejaVuSans-30"/>
       <use x="63.623047" xlink:href="#DejaVuSans-2e"/>
       <use x="95.410156" xlink:href="#DejaVuSans-36"/>
      </g>
     </g>
    </g>
    <g id="ytick_5">
     <g id="line2d_12">
      <g>
       <use style="stroke:#000000;stroke-width:0.8;" x="43.78125" xlink:href="#me45ba0e713" y="64.221619"/>
      </g>
     </g>
     <g id="text_12">
      <!-- 0.8 -->
      <g transform="translate(20.878125 68.020837)scale(0.1 -0.1)">
       <use xlink:href="#DejaVuSans-30"/>
       <use x="63.623047" xlink:href="#DejaVuSans-2e"/>
       <use x="95.410156" xlink:href="#DejaVuSans-38"/>
      </g>
     </g>
    </g>
    <g id="ytick_6">
     <g id="line2d_13">
      <g>
       <use style="stroke:#000000;stroke-width:0.8;" x="43.78125" xlink:href="#me45ba0e713" y="10.999219"/>
      </g>
     </g>
     <g id="text_13">
      <!-- 1.0 -->
      <g transform="translate(20.878125 14.798437)scale(0.1 -0.1)">
       <use xlink:href="#DejaVuSans-31"/>
       <use x="63.623047" xlink:href="#DejaVuSans-2e"/>
       <use x="95.410156" xlink:href="#DejaVuSans-30"/>
      </g>
     </g>
    </g>
    <g id="text_14">
     <!-- Death Time -->
     <defs>
      <path d="M 19.671875 64.796875 
L 19.671875 8.109375 
L 31.59375 8.109375 
Q 46.6875 8.109375 53.6875 14.9375 
Q 60.6875 21.78125 60.6875 36.53125 
Q 60.6875 51.171875 53.6875 57.984375 
Q 46.6875 64.796875 31.59375 64.796875 
z
M 9.8125 72.90625 
L 30.078125 72.90625 
Q 51.265625 72.90625 61.171875 64.09375 
Q 71.09375 55.28125 71.09375 36.53125 
Q 71.09375 17.671875 61.125 8.828125 
Q 51.171875 0 30.078125 0 
L 9.8125 0 
z
" id="DejaVuSans-44"/>
      <path d="M 34.28125 27.484375 
Q 23.390625 27.484375 19.1875 25 
Q 14.984375 22.515625 14.984375 16.5 
Q 14.984375 11.71875 18.140625 8.90625 
Q 21.296875 6.109375 26.703125 6.109375 
Q 34.1875 6.109375 38.703125 11.40625 
Q 43.21875 16.703125 43.21875 25.484375 
L 43.21875 27.484375 
z
M 52.203125 31.203125 
L 52.203125 0 
L 43.21875 0 
L 43.21875 8.296875 
Q 40.140625 3.328125 35.546875 0.953125 
Q 30.953125 -1.421875 24.3125 -1.421875 
Q 15.921875 -1.421875 10.953125 3.296875 
Q 6 8.015625 6 15.921875 
Q 6 25.140625 12.171875 29.828125 
Q 18.359375 34.515625 30.609375 34.515625 
L 43.21875 34.515625 
L 43.21875 35.40625 
Q 43.21875 41.609375 39.140625 45 
Q 35.0625 48.390625 27.6875 48.390625 
Q 23 48.390625 18.546875 47.265625 
Q 14.109375 46.140625 10.015625 43.890625 
L 10.015625 52.203125 
Q 14.9375 54.109375 19.578125 55.046875 
Q 24.21875 56 28.609375 56 
Q 40.484375 56 46.34375 49.84375 
Q 52.203125 43.703125 52.203125 31.203125 
z
" id="DejaVuSans-61"/>
     </defs>
     <g transform="translate(14.798438 173.151312)rotate(-90)scale(0.1 -0.1)">
      <use xlink:href="#DejaVuSans-44"/>
      <use x="77.001953" xlink:href="#DejaVuSans-65"/>
      <use x="138.525391" xlink:href="#DejaVuSans-61"/>
      <use x="199.804688" xlink:href="#DejaVuSans-74"/>
      <use x="239.013672" xlink:href="#DejaVuSans-68"/>
      <use x="302.392578" xlink:href="#DejaVuSans-20"/>
      <use x="334.179688" xlink:href="#DejaVuSans-54"/>
      <use x="395.216797" xlink:href="#DejaVuSans-69"/>
      <use x="423" xlink:href="#DejaVuSans-6d"/>
      <use x="520.412109" xlink:href="#DejaVuSans-65"/>
     </g>
    </g>
   </g>
   <g id="patch_3">
    <path d="M 43.78125 277.111219 
L 43.78125 10.999219 
" style="fill:none;stroke:#000000;stroke-linecap:square;stroke-linejoin:miter;stroke-width:0.8;"/>
   </g>
   <g id="patch_4">
    <path d="M 309.89325 277.111219 
L 309.89325 10.999219 
" style="fill:none;stroke:#000000;stroke-linecap:square;stroke-linejoin:miter;stroke-width:0.8;"/>
   </g>
   <g id="patch_5">
    <path d="M 43.78125 277.111219 
L 309.89325 277.111219 
" style="fill:none;stroke:#000000;stroke-linecap:square;stroke-linejoin:miter;stroke-width:0.8;"/>
   </g>
   <g id="patch_6">
    <path d="M 43.78125 10.999219 
L 309.89325 10.999219 
" style="fill:none;stroke:#000000;stroke-linecap:square;stroke-linejoin:miter;stroke-width:0.8;"/>
   </g>
   <g id="PathCollection_1">
    <defs>
     <path d="M 0 2.5 
C 0.663008 2.5 1.29895 2.236584 1.767767 1.767767 
C 2.236584 1.29895 2.5 0.663008 2.5 0 
C 2.5 -0.663008 2.236584 -1.29895 1.767767 -1.767767 
C 1.29895 -2.236584 0.663008 -2.5 0 -2.5 
C -0.663008 -2.5 -1.29895 -2.236584 -1.767767 -1.767767 
C -2.236584 -1.29895 -2.5 -0.663008 -2.5 0 
C -2.5 0.663008 -2.236584 1.29895 -1.767767 1.767767 
C -1.29895 2.236584 -0.663008 2.5 0 2.5 
z
" id="C0_0_b8e5a7e00d"/>
    </defs>
    <g clip-path="url(#p68c8c16275)">
     <use style="fill:#b40426;stroke:#b40426;" x="994.953355" xlink:href="#C0_0_b8e5a7e00d" y="-121.591085"/>
    </g>
    <g clip-path="url(#p68c8c16275)">
     <use style="fill:#cdd9ec;stroke:#cdd9ec;" x="723.284936" xlink:href="#C0_0_b8e5a7e00d" y="-161.481274"/>
    </g>
    <g clip-path="url(#p68c8c16275)">
     <use style="fill:#cbd8ee;stroke:#cbd8ee;" x="711.623909" xlink:href="#C0_0_b8e5a7e00d" y="-122.801895"/>
    </g>
    <g clip-path="url(#p68c8c16275)">
     <use style="fill:#ccd9ed;stroke:#ccd9ed;" x="691.258357" xlink:href="#C0_0_b8e5a7e00d" y="-14.427783"/>
    </g>
    <g clip-path="url(#p68c8c16275)">
     <use style="fill:#97b8ff;stroke:#97b8ff;" x="576.85947" xlink:href="#C0_0_b8e5a7e00d" y="3.747667"/>
    </g>
    <g clip-path="url(#p68c8c16275)">
     <use style="fill:#85a8fc;stroke:#85a8fc;" x="549.332844" xlink:href="#C0_0_b8e5a7e00d" y="-38.353913"/>
    </g>
    <g clip-path="url(#p68c8c16275)">
     <use style="fill:#688aef;stroke:#688aef;" x="512.484316" xlink:href="#C0_0_b8e5a7e00d" y="-151.616502"/>
    </g>
    <g clip-path="url(#p68c8c16275)">
     <use style="fill:#3b4cc0;stroke:#3b4cc0;" x="128.883868" xlink:href="#C0_0_b8e5a7e00d" y="204.215957"/>
    </g>
    <g clip-path="url(#p68c8c16275)">
     <use style="fill:#4055c8;stroke:#4055c8;" x="128.189049" xlink:href="#C0_0_b8e5a7e00d" y="261.471284"/>
    </g>
    <g clip-path="url(#p68c8c16275)">
     <use style="fill:#4257c9;stroke:#4257c9;" x="127.858006" xlink:href="#C0_0_b8e5a7e00d" y="277.111219"/>
    </g>
    <g clip-path="url(#p68c8c16275)">
     <use style="fill:#4257c9;stroke:#4257c9;" x="127.858006" xlink:href="#C0_0_b8e5a7e00d" y="277.111219"/>
    </g>
    <g clip-path="url(#p68c8c16275)">
     <use style="fill:#4257c9;stroke:#4257c9;" x="127.858006" xlink:href="#C0_0_b8e5a7e00d" y="277.111219"/>
    </g>
    <g clip-path="url(#p68c8c16275)">
     <use style="fill:#4257c9;stroke:#4257c9;" x="127.858006" xlink:href="#C0_0_b8e5a7e00d" y="268.893627"/>
    </g>
    <g clip-path="url(#p68c8c16275)">
     <use style="fill:#4257c9;stroke:#4257c9;" x="127.858006" xlink:href="#C0_0_b8e5a7e00d" y="277.111219"/>
    </g>
    <g clip-path="url(#p68c8c16275)">
     <use style="fill:#4257c9;stroke:#4257c9;" x="127.858006" xlink:href="#C0_0_b8e5a7e00d" y="277.111219"/>
    </g>
    <g clip-path="url(#p68c8c16275)">
     <use style="fill:#4257c9;stroke:#4257c9;" x="127.858006" xlink:href="#C0_0_b8e5a7e00d" y="277.111219"/>
    </g>
    <g clip-path="url(#p68c8c16275)">
     <use style="fill:#4257c9;stroke:#4257c9;" x="127.858006" xlink:href="#C0_0_b8e5a7e00d" y="277.111219"/>
    </g>
    <g clip-path="url(#p68c8c16275)">
     <use style="fill:#4257c9;stroke:#4257c9;" x="127.858006" xlink:href="#C0_0_b8e5a7e00d" y="277.111219"/>
    </g>
    <g clip-path="url(#p68c8c16275)">
     <use style="fill:#4257c9;stroke:#4257c9;" x="127.858006" xlink:href="#C0_0_b8e5a7e00d" y="277.111219"/>
    </g>
    <g clip-path="url(#p68c8c16275)">
     <use style="fill:#4257c9;stroke:#4257c9;" x="127.858006" xlink:href="#C0_0_b8e5a7e00d" y="277.111219"/>
    </g>
    <g clip-path="url(#p68c8c16275)">
     <use style="fill:#4257c9;stroke:#4257c9;" x="127.858006" xlink:href="#C0_0_b8e5a7e00d" y="277.111219"/>
    </g>
    <g clip-path="url(#p68c8c16275)">
     <use style="fill:#4257c9;stroke:#4257c9;" x="127.858006" xlink:href="#C0_0_b8e5a7e00d" y="277.111219"/>
    </g>
    <g clip-path="url(#p68c8c16275)">
     <use style="fill:#4257c9;stroke:#4257c9;" x="127.858006" xlink:href="#C0_0_b8e5a7e00d" y="277.111219"/>
    </g>
    <g clip-path="url(#p68c8c16275)">
     <use style="fill:#4257c9;stroke:#4257c9;" x="127.858006" xlink:href="#C0_0_b8e5a7e00d" y="277.111219"/>
    </g>
    <g clip-path="url(#p68c8c16275)">
     <use style="fill:#4257c9;stroke:#4257c9;" x="127.858006" xlink:href="#C0_0_b8e5a7e00d" y="277.111219"/>
    </g>
    <g clip-path="url(#p68c8c16275)">
     <use style="fill:#3d50c3;stroke:#3d50c3;" x="127.858006" xlink:href="#C0_0_b8e5a7e00d" y="224.624618"/>
    </g>
    <g clip-path="url(#p68c8c16275)">
     <use style="fill:#4257c9;stroke:#4257c9;" x="127.858006" xlink:href="#C0_0_b8e5a7e00d" y="277.111219"/>
    </g>
    <g clip-path="url(#p68c8c16275)">
     <use style="fill:#4257c9;stroke:#4257c9;" x="127.858006" xlink:href="#C0_0_b8e5a7e00d" y="277.111219"/>
    </g>
    <g clip-path="url(#p68c8c16275)">
     <use style="fill:#4257c9;stroke:#4257c9;" x="127.858006" xlink:href="#C0_0_b8e5a7e00d" y="277.111219"/>
    </g>
    <g clip-path="url(#p68c8c16275)">
     <use style="fill:#4257c9;stroke:#4257c9;" x="127.858006" xlink:href="#C0_0_b8e5a7e00d" y="277.111219"/>
    </g>
    <g clip-path="url(#p68c8c16275)">
     <use style="fill:#4257c9;stroke:#4257c9;" x="127.858006" xlink:href="#C0_0_b8e5a7e00d" y="277.111219"/>
    </g>
    <g clip-path="url(#p68c8c16275)">
     <use style="fill:#4055c8;stroke:#4055c8;" x="127.858006" xlink:href="#C0_0_b8e5a7e00d" y="261.206184"/>
    </g>
    <g clip-path="url(#p68c8c16275)">
     <use style="fill:#4257c9;stroke:#4257c9;" x="127.858006" xlink:href="#C0_0_b8e5a7e00d" y="277.111219"/>
    </g>
    <g clip-path="url(#p68c8c16275)">
     <use style="fill:#4257c9;stroke:#4257c9;" x="127.858006" xlink:href="#C0_0_b8e5a7e00d" y="277.111219"/>
    </g>
    <g clip-path="url(#p68c8c16275)">
     <use style="fill:#4257c9;stroke:#4257c9;" x="127.858006" xlink:href="#C0_0_b8e5a7e00d" y="277.111219"/>
    </g>
    <g clip-path="url(#p68c8c16275)">
     <use style="fill:#4257c9;stroke:#4257c9;" x="127.858006" xlink:href="#C0_0_b8e5a7e00d" y="277.111219"/>
    </g>
    <g clip-path="url(#p68c8c16275)">
     <use style="fill:#3c4ec2;stroke:#3c4ec2;" x="127.526963" xlink:href="#C0_0_b8e5a7e00d" y="210.840283"/>
    </g>
    <g clip-path="url(#p68c8c16275)">
     <use style="fill:#4257c9;stroke:#4257c9;" x="126.864876" xlink:href="#C0_0_b8e5a7e00d" y="277.111219"/>
    </g>
    <g clip-path="url(#p68c8c16275)">
     <use style="fill:#4257c9;stroke:#4257c9;" x="126.533833" xlink:href="#C0_0_b8e5a7e00d" y="277.111219"/>
    </g>
    <g clip-path="url(#p68c8c16275)">
     <use style="fill:#4257c9;stroke:#4257c9;" x="126.202789" xlink:href="#C0_0_b8e5a7e00d" y="277.111219"/>
    </g>
    <g clip-path="url(#p68c8c16275)">
     <use style="fill:#4257c9;stroke:#4257c9;" x="125.872012" xlink:href="#C0_0_b8e5a7e00d" y="277.111219"/>
    </g>
    <g clip-path="url(#p68c8c16275)">
     <use style="fill:#3b4cc0;stroke:#3b4cc0;" x="124.114608" xlink:href="#C0_0_b8e5a7e00d" y="202.577505"/>
    </g>
    <g clip-path="url(#p68c8c16275)">
     <use style="fill:#4257c9;stroke:#4257c9;" x="123.885752" xlink:href="#C0_0_b8e5a7e00d" y="277.111219"/>
    </g>
    <g clip-path="url(#p68c8c16275)">
     <use style="fill:#4257c9;stroke:#4257c9;" x="123.554709" xlink:href="#C0_0_b8e5a7e00d" y="277.111219"/>
    </g>
    <g clip-path="url(#p68c8c16275)">
     <use style="fill:#4257c9;stroke:#4257c9;" x="123.223665" xlink:href="#C0_0_b8e5a7e00d" y="277.111219"/>
    </g>
    <g clip-path="url(#p68c8c16275)">
     <use style="fill:#3b4cc0;stroke:#3b4cc0;" x="122.961545" xlink:href="#C0_0_b8e5a7e00d" y="198.129443"/>
    </g>
    <g clip-path="url(#p68c8c16275)">
     <use style="fill:#4257c9;stroke:#4257c9;" x="122.561845" xlink:href="#C0_0_b8e5a7e00d" y="277.111219"/>
    </g>
    <g clip-path="url(#p68c8c16275)">
     <use style="fill:#3b4cc0;stroke:#3b4cc0;" x="122.17545" xlink:href="#C0_0_b8e5a7e00d" y="201.512525"/>
    </g>
    <g clip-path="url(#p68c8c16275)">
     <use style="fill:#3d50c3;stroke:#3d50c3;" x="121.899758" xlink:href="#C0_0_b8e5a7e00d" y="224.624618"/>
    </g>
    <g clip-path="url(#p68c8c16275)">
     <use style="fill:#3b4cc0;stroke:#3b4cc0;" x="121.204141" xlink:href="#C0_0_b8e5a7e00d" y="200.107188"/>
    </g>
    <g clip-path="url(#p68c8c16275)">
     <use style="fill:#3b4cc0;stroke:#3b4cc0;" x="121.003493" xlink:href="#C0_0_b8e5a7e00d" y="205.142825"/>
    </g>
    <g clip-path="url(#p68c8c16275)">
     <use style="fill:#4055c8;stroke:#4055c8;" x="120.906628" xlink:href="#C0_0_b8e5a7e00d" y="259.350611"/>
    </g>
    <g clip-path="url(#p68c8c16275)">
     <use style="fill:#3b4cc0;stroke:#3b4cc0;" x="120.770911" xlink:href="#C0_0_b8e5a7e00d" y="205.906833"/>
    </g>
    <g clip-path="url(#p68c8c16275)">
     <use style="fill:#3b4cc0;stroke:#3b4cc0;" x="120.715294" xlink:href="#C0_0_b8e5a7e00d" y="201.308417"/>
    </g>
    <g clip-path="url(#p68c8c16275)">
     <use style="fill:#3b4cc0;stroke:#3b4cc0;" x="120.389306" xlink:href="#C0_0_b8e5a7e00d" y="201.36643"/>
    </g>
    <g clip-path="url(#p68c8c16275)">
     <use style="fill:#3b4cc0;stroke:#3b4cc0;" x="119.896201" xlink:href="#C0_0_b8e5a7e00d" y="203.18291"/>
    </g>
    <g clip-path="url(#p68c8c16275)">
     <use style="fill:#4257c9;stroke:#4257c9;" x="119.582721" xlink:href="#C0_0_b8e5a7e00d" y="277.111219"/>
    </g>
    <g clip-path="url(#p68c8c16275)">
     <use style="fill:#3b4cc0;stroke:#3b4cc0;" x="119.383669" xlink:href="#C0_0_b8e5a7e00d" y="202.605181"/>
    </g>
    <g clip-path="url(#p68c8c16275)">
     <use style="fill:#3e51c5;stroke:#3e51c5;" x="118.920634" xlink:href="#C0_0_b8e5a7e00d" y="237.08345"/>
    </g>
    <g clip-path="url(#p68c8c16275)">
     <use style="fill:#4055c8;stroke:#4055c8;" x="118.258548" xlink:href="#C0_0_b8e5a7e00d" y="267.568203"/>
    </g>
    <g clip-path="url(#p68c8c16275)">
     <use style="fill:#4257c9;stroke:#4257c9;" x="117.927504" xlink:href="#C0_0_b8e5a7e00d" y="277.111219"/>
    </g>
    <g clip-path="url(#p68c8c16275)">
     <use style="fill:#3b4cc0;stroke:#3b4cc0;" x="117.822656" xlink:href="#C0_0_b8e5a7e00d" y="203.095892"/>
    </g>
    <g clip-path="url(#p68c8c16275)">
     <use style="fill:#4257c9;stroke:#4257c9;" x="117.265684" xlink:href="#C0_0_b8e5a7e00d" y="277.111219"/>
    </g>
    <g clip-path="url(#p68c8c16275)">
     <use style="fill:#3b4cc0;stroke:#3b4cc0;" x="117.047472" xlink:href="#C0_0_b8e5a7e00d" y="209.145682"/>
    </g>
    <g clip-path="url(#p68c8c16275)">
     <use style="fill:#4257c9;stroke:#4257c9;" x="116.93464" xlink:href="#C0_0_b8e5a7e00d" y="277.111219"/>
    </g>
    <g clip-path="url(#p68c8c16275)">
     <use style="fill:#3b4cc0;stroke:#3b4cc0;" x="116.71563" xlink:href="#C0_0_b8e5a7e00d" y="204.476747"/>
    </g>
    <g clip-path="url(#p68c8c16275)">
     <use style="fill:#3b4cc0;stroke:#3b4cc0;" x="116.60546" xlink:href="#C0_0_b8e5a7e00d" y="211.088299"/>
    </g>
    <g clip-path="url(#p68c8c16275)">
     <use style="fill:#3b4cc0;stroke:#3b4cc0;" x="116.485177" xlink:href="#C0_0_b8e5a7e00d" y="209.741506"/>
    </g>
    <g clip-path="url(#p68c8c16275)">
     <use style="fill:#3e51c5;stroke:#3e51c5;" x="116.272554" xlink:href="#C0_0_b8e5a7e00d" y="241.855104"/>
    </g>
    <g clip-path="url(#p68c8c16275)">
     <use style="fill:#4257c9;stroke:#4257c9;" x="116.272554" xlink:href="#C0_0_b8e5a7e00d" y="277.111219"/>
    </g>
    <g clip-path="url(#p68c8c16275)">
     <use style="fill:#3b4cc0;stroke:#3b4cc0;" x="115.869128" xlink:href="#C0_0_b8e5a7e00d" y="209.157391"/>
    </g>
    <g clip-path="url(#p68c8c16275)">
     <use style="fill:#3b4cc0;stroke:#3b4cc0;" x="115.490451" xlink:href="#C0_0_b8e5a7e00d" y="209.736983"/>
    </g>
    <g clip-path="url(#p68c8c16275)">
     <use style="fill:#3b4cc0;stroke:#3b4cc0;" x="114.742942" xlink:href="#C0_0_b8e5a7e00d" y="208.491578"/>
    </g>
    <g clip-path="url(#p68c8c16275)">
     <use style="fill:#3b4cc0;stroke:#3b4cc0;" x="114.284963" xlink:href="#C0_0_b8e5a7e00d" y="208.925873"/>
    </g>
    <g clip-path="url(#p68c8c16275)">
     <use style="fill:#3b4cc0;stroke:#3b4cc0;" x="114.195284" xlink:href="#C0_0_b8e5a7e00d" y="208.682381"/>
    </g>
    <g clip-path="url(#p68c8c16275)">
     <use style="fill:#3b4cc0;stroke:#3b4cc0;" x="113.916664" xlink:href="#C0_0_b8e5a7e00d" y="208.7851"/>
    </g>
    <g clip-path="url(#p68c8c16275)">
     <use style="fill:#3b4cc0;stroke:#3b4cc0;" x="113.422228" xlink:href="#C0_0_b8e5a7e00d" y="209.314663"/>
    </g>
    <g clip-path="url(#p68c8c16275)">
     <use style="fill:#3b4cc0;stroke:#3b4cc0;" x="113.021197" xlink:href="#C0_0_b8e5a7e00d" y="210.844009"/>
    </g>
    <g clip-path="url(#p68c8c16275)">
     <use style="fill:#3c4ec2;stroke:#3c4ec2;" x="112.962387" xlink:href="#C0_0_b8e5a7e00d" y="216.40708"/>
    </g>
    <g clip-path="url(#p68c8c16275)">
     <use style="fill:#3b4cc0;stroke:#3b4cc0;" x="112.847958" xlink:href="#C0_0_b8e5a7e00d" y="208.300244"/>
    </g>
    <g clip-path="url(#p68c8c16275)">
     <use style="fill:#3b4cc0;stroke:#3b4cc0;" x="112.588765" xlink:href="#C0_0_b8e5a7e00d" y="208.357192"/>
    </g>
    <g clip-path="url(#p68c8c16275)">
     <use style="fill:#3b4cc0;stroke:#3b4cc0;" x="112.539801" xlink:href="#C0_0_b8e5a7e00d" y="208.840185"/>
    </g>
    <g clip-path="url(#p68c8c16275)">
     <use style="fill:#3b4cc0;stroke:#3b4cc0;" x="112.420316" xlink:href="#C0_0_b8e5a7e00d" y="208.994264"/>
    </g>
    <g clip-path="url(#p68c8c16275)">
     <use style="fill:#3f53c6;stroke:#3f53c6;" x="112.300566" xlink:href="#C0_0_b8e5a7e00d" y="260.941109"/>
    </g>
    <g clip-path="url(#p68c8c16275)">
     <use style="fill:#3b4cc0;stroke:#3b4cc0;" x="112.081024" xlink:href="#C0_0_b8e5a7e00d" y="210.517223"/>
    </g>
    <g clip-path="url(#p68c8c16275)">
     <use style="fill:#3b4cc0;stroke:#3b4cc0;" x="112.050421" xlink:href="#C0_0_b8e5a7e00d" y="211.227476"/>
    </g>
    <g clip-path="url(#p68c8c16275)">
     <use style="fill:#3b4cc0;stroke:#3b4cc0;" x="111.661365" xlink:href="#C0_0_b8e5a7e00d" y="210.091444"/>
    </g>
    <g clip-path="url(#p68c8c16275)">
     <use style="fill:#4257c9;stroke:#4257c9;" x="111.638479" xlink:href="#C0_0_b8e5a7e00d" y="277.111219"/>
    </g>
    <g clip-path="url(#p68c8c16275)">
     <use style="fill:#3b4cc0;stroke:#3b4cc0;" x="111.495045" xlink:href="#C0_0_b8e5a7e00d" y="209.785681"/>
    </g>
    <g clip-path="url(#p68c8c16275)">
     <use style="fill:#3b4cc0;stroke:#3b4cc0;" x="111.122488" xlink:href="#C0_0_b8e5a7e00d" y="211.106661"/>
    </g>
    <g clip-path="url(#p68c8c16275)">
     <use style="fill:#3b4cc0;stroke:#3b4cc0;" x="111.104127" xlink:href="#C0_0_b8e5a7e00d" y="210.849863"/>
    </g>
    <g clip-path="url(#p68c8c16275)">
     <use style="fill:#4257c9;stroke:#4257c9;" x="110.976393" xlink:href="#C0_0_b8e5a7e00d" y="277.111219"/>
    </g>
    <g clip-path="url(#p68c8c16275)">
     <use style="fill:#3b4cc0;stroke:#3b4cc0;" x="110.835353" xlink:href="#C0_0_b8e5a7e00d" y="211.344299"/>
    </g>
    <g clip-path="url(#p68c8c16275)">
     <use style="fill:#3b4cc0;stroke:#3b4cc0;" x="110.711345" xlink:href="#C0_0_b8e5a7e00d" y="210.458146"/>
    </g>
    <g clip-path="url(#p68c8c16275)">
     <use style="fill:#3b4cc0;stroke:#3b4cc0;" x="110.464393" xlink:href="#C0_0_b8e5a7e00d" y="211.40311"/>
    </g>
    <g clip-path="url(#p68c8c16275)">
     <use style="fill:#3b4cc0;stroke:#3b4cc0;" x="110.329741" xlink:href="#C0_0_b8e5a7e00d" y="210.712549"/>
    </g>
    <g clip-path="url(#p68c8c16275)">
     <use style="fill:#3b4cc0;stroke:#3b4cc0;" x="110.304194" xlink:href="#C0_0_b8e5a7e00d" y="211.558519"/>
    </g>
    <g clip-path="url(#p68c8c16275)">
     <use style="fill:#3b4cc0;stroke:#3b4cc0;" x="109.709966" xlink:href="#C0_0_b8e5a7e00d" y="212.109105"/>
    </g>
    <g clip-path="url(#p68c8c16275)">
     <use style="fill:#4055c8;stroke:#4055c8;" x="109.321442" xlink:href="#C0_0_b8e5a7e00d" y="277.111219"/>
    </g>
    <g clip-path="url(#p68c8c16275)">
     <use style="fill:#4055c8;stroke:#4055c8;" x="109.321442" xlink:href="#C0_0_b8e5a7e00d" y="277.111219"/>
    </g>
    <g clip-path="url(#p68c8c16275)">
     <use style="fill:#4055c8;stroke:#4055c8;" x="109.321442" xlink:href="#C0_0_b8e5a7e00d" y="277.111219"/>
    </g>
    <g clip-path="url(#p68c8c16275)">
     <use style="fill:#4055c8;stroke:#4055c8;" x="109.321442" xlink:href="#C0_0_b8e5a7e00d" y="277.111219"/>
    </g>
    <g clip-path="url(#p68c8c16275)">
     <use style="fill:#4055c8;stroke:#4055c8;" x="109.321442" xlink:href="#C0_0_b8e5a7e00d" y="277.111219"/>
    </g>
    <g clip-path="url(#p68c8c16275)">
     <use style="fill:#4055c8;stroke:#4055c8;" x="109.321442" xlink:href="#C0_0_b8e5a7e00d" y="277.111219"/>
    </g>
    <g clip-path="url(#p68c8c16275)">
     <use style="fill:#4055c8;stroke:#4055c8;" x="109.321442" xlink:href="#C0_0_b8e5a7e00d" y="277.111219"/>
    </g>
    <g clip-path="url(#p68c8c16275)">
     <use style="fill:#4055c8;stroke:#4055c8;" x="109.321442" xlink:href="#C0_0_b8e5a7e00d" y="277.111219"/>
    </g>
    <g clip-path="url(#p68c8c16275)">
     <use style="fill:#3b4cc0;stroke:#3b4cc0;" x="109.315854" xlink:href="#C0_0_b8e5a7e00d" y="212.762144"/>
    </g>
    <g clip-path="url(#p68c8c16275)">
     <use style="fill:#3b4cc0;stroke:#3b4cc0;" x="107.621785" xlink:href="#C0_0_b8e5a7e00d" y="214.051456"/>
    </g>
    <g clip-path="url(#p68c8c16275)">
     <use style="fill:#3b4cc0;stroke:#3b4cc0;" x="107.337843" xlink:href="#C0_0_b8e5a7e00d" y="214.788853"/>
    </g>
    <g clip-path="url(#p68c8c16275)">
     <use style="fill:#3b4cc0;stroke:#3b4cc0;" x="107.246833" xlink:href="#C0_0_b8e5a7e00d" y="214.619606"/>
    </g>
    <g clip-path="url(#p68c8c16275)">
     <use style="fill:#4055c8;stroke:#4055c8;" x="105.680232" xlink:href="#C0_0_b8e5a7e00d" y="277.111219"/>
    </g>
    <g clip-path="url(#p68c8c16275)">
     <use style="fill:#4055c8;stroke:#4055c8;" x="105.018145" xlink:href="#C0_0_b8e5a7e00d" y="277.111219"/>
    </g>
    <g clip-path="url(#p68c8c16275)">
     <use style="fill:#3b4cc0;stroke:#3b4cc0;" x="104.795942" xlink:href="#C0_0_b8e5a7e00d" y="216.523637"/>
    </g>
    <g clip-path="url(#p68c8c16275)">
     <use style="fill:#3b4cc0;stroke:#3b4cc0;" x="104.539676" xlink:href="#C0_0_b8e5a7e00d" y="216.689425"/>
    </g>
    <g clip-path="url(#p68c8c16275)">
     <use style="fill:#4055c8;stroke:#4055c8;" x="104.025281" xlink:href="#C0_0_b8e5a7e00d" y="277.111219"/>
    </g>
    <g clip-path="url(#p68c8c16275)">
     <use style="fill:#3b4cc0;stroke:#3b4cc0;" x="103.954762" xlink:href="#C0_0_b8e5a7e00d" y="217.018339"/>
    </g>
    <g clip-path="url(#p68c8c16275)">
     <use style="fill:#3b4cc0;stroke:#3b4cc0;" x="102.439254" xlink:href="#C0_0_b8e5a7e00d" y="218.690321"/>
    </g>
    <g clip-path="url(#p68c8c16275)">
     <use style="fill:#4055c8;stroke:#4055c8;" x="100.053027" xlink:href="#C0_0_b8e5a7e00d" y="277.111219"/>
    </g>
    <g clip-path="url(#p68c8c16275)">
     <use style="fill:#4055c8;stroke:#4055c8;" x="98.72912" xlink:href="#C0_0_b8e5a7e00d" y="277.111219"/>
    </g>
    <g clip-path="url(#p68c8c16275)">
     <use style="fill:#3d50c3;stroke:#3d50c3;" x="97.73599" xlink:href="#C0_0_b8e5a7e00d" y="234.962804"/>
    </g>
   </g>
  </g>
 </g>
 <defs>
  <clipPath id="p68c8c16275">
   <rect height="266.112" width="266.112" x="43.78125" y="10.999219"/>
  </clipPath>
 </defs>
</svg>
