<?xml version="1.0" encoding="utf-8" standalone="no"?>
<!DOCTYPE svg PUBLIC "-//W3C//DTD SVG 1.1//EN"
  "http://www.w3.org/Graphics/SVG/1.1/DTD/svg11.dtd">
<!-- Created with matplotlib (http://matplotlib.org/) -->
<svg height="325pt" version="1.1" viewBox="0 0 440 325" width="440pt" xmlns="http://www.w3.org/2000/svg" xmlns:xlink="http://www.w3.org/1999/xlink">
 <defs>
  <style type="text/css">
*{stroke-linecap:butt;stroke-linejoin:round;}
  </style>
 </defs>
 <g id="figure_1">
  <g id="patch_1">
   <path d="M 0 325.986375 
L 440.235625 325.986375 
L 440.235625 0 
L 0 0 
z
" style="fill:#ffffff;"/>
  </g>
  <g id="axes_1">
   <g id="patch_2">
    <path d="M 72.415625 288.430125 
L 429.535625 288.430125 
L 429.535625 22.318125 
L 72.415625 22.318125 
z
" style="fill:#ffffff;"/>
   </g>
   <g id="PathCollection_1">
    <defs>
     <path d="M 0 3 
C 0.795609 3 1.55874 2.683901 2.12132 2.12132 
C 2.683901 1.55874 3 0.795609 3 0 
C 3 -0.795609 2.683901 -1.55874 2.12132 -2.12132 
C 1.55874 -2.683901 0.795609 -3 0 -3 
C -0.795609 -3 -1.55874 -2.683901 -2.12132 -2.12132 
C -2.683901 -1.55874 -3 -0.795609 -3 0 
C -3 0.795609 -2.683901 1.55874 -2.12132 2.12132 
C -1.55874 2.683901 -0.795609 3 0 3 
z
" id="mfdefde7344" style="stroke:#000000;"/>
    </defs>
    <g clip-path="url(#p48789fee5f)">
     <use style="stroke:#000000;" x="429.535625" xlink:href="#mfdefde7344" y="177.40153"/>
     <use style="stroke:#000000;" x="429.049491" xlink:href="#mfdefde7344" y="176.248878"/>
     <use style="stroke:#000000;" x="428.188039" xlink:href="#mfdefde7344" y="175.580874"/>
     <use style="stroke:#000000;" x="426.828631" xlink:href="#mfdefde7344" y="175.342086"/>
     <use style="stroke:#000000;" x="425.414717" xlink:href="#mfdefde7344" y="166.929623"/>
     <use style="stroke:#000000;" x="423.963353" xlink:href="#mfdefde7344" y="161.235465"/>
     <use style="stroke:#000000;" x="422.366247" xlink:href="#mfdefde7344" y="153.733232"/>
     <use style="stroke:#000000;" x="420.791431" xlink:href="#mfdefde7344" y="150.514063"/>
     <use style="stroke:#000000;" x="418.962042" xlink:href="#mfdefde7344" y="153.215652"/>
     <use style="stroke:#000000;" x="417.290487" xlink:href="#mfdefde7344" y="162.052355"/>
     <use style="stroke:#000000;" x="415.871429" xlink:href="#mfdefde7344" y="162.469409"/>
     <use style="stroke:#000000;" x="414.93616" xlink:href="#mfdefde7344" y="159.582705"/>
     <use style="stroke:#000000;" x="413.828437" xlink:href="#mfdefde7344" y="155.271182"/>
     <use style="stroke:#000000;" x="412.719451" xlink:href="#mfdefde7344" y="158.190845"/>
     <use style="stroke:#000000;" x="411.798079" xlink:href="#mfdefde7344" y="160.070317"/>
     <use style="stroke:#000000;" x="410.960993" xlink:href="#mfdefde7344" y="166.042903"/>
     <use style="stroke:#000000;" x="410.095661" xlink:href="#mfdefde7344" y="172.489766"/>
     <use style="stroke:#000000;" x="409.530204" xlink:href="#mfdefde7344" y="179.129041"/>
     <use style="stroke:#000000;" x="409.13016" xlink:href="#mfdefde7344" y="178.302144"/>
     <use style="stroke:#000000;" x="408.399018" xlink:href="#mfdefde7344" y="175.387652"/>
     <use style="stroke:#000000;" x="407.425847" xlink:href="#mfdefde7344" y="165.850044"/>
     <use style="stroke:#000000;" x="406.216422" xlink:href="#mfdefde7344" y="163.57275"/>
     <use style="stroke:#000000;" x="405.066737" xlink:href="#mfdefde7344" y="161.065026"/>
     <use style="stroke:#000000;" x="404.015596" xlink:href="#mfdefde7344" y="149.305921"/>
     <use style="stroke:#000000;" x="402.98494" xlink:href="#mfdefde7344" y="146.412647"/>
     <use style="stroke:#000000;" x="401.804934" xlink:href="#mfdefde7344" y="153.371219"/>
     <use style="stroke:#000000;" x="400.621408" xlink:href="#mfdefde7344" y="148.421018"/>
     <use style="stroke:#000000;" x="399.570358" xlink:href="#mfdefde7344" y="141.932278"/>
     <use style="stroke:#000000;" x="398.918449" xlink:href="#mfdefde7344" y="151.244209"/>
     <use style="stroke:#000000;" x="398.441158" xlink:href="#mfdefde7344" y="151.078131"/>
     <use style="stroke:#000000;" x="398.04698" xlink:href="#mfdefde7344" y="166.444526"/>
     <use style="stroke:#000000;" x="397.951053" xlink:href="#mfdefde7344" y="176.279069"/>
     <use style="stroke:#000000;" x="398.029924" xlink:href="#mfdefde7344" y="191.67367"/>
     <use style="stroke:#000000;" x="398.449009" xlink:href="#mfdefde7344" y="200.156412"/>
     <use style="stroke:#000000;" x="398.992898" xlink:href="#mfdefde7344" y="212.066667"/>
     <use style="stroke:#000000;" x="399.639122" xlink:href="#mfdefde7344" y="214.14663"/>
     <use style="stroke:#000000;" x="400.110638" xlink:href="#mfdefde7344" y="219.356082"/>
     <use style="stroke:#000000;" x="400.452294" xlink:href="#mfdefde7344" y="228.58605"/>
     <use style="stroke:#000000;" x="401.101316" xlink:href="#mfdefde7344" y="243.024269"/>
     <use style="stroke:#000000;" x="401.872345" xlink:href="#mfdefde7344" y="243.948197"/>
     <use style="stroke:#000000;" x="402.454678" xlink:href="#mfdefde7344" y="251.908243"/>
     <use style="stroke:#000000;" x="403.33147" xlink:href="#mfdefde7344" y="236.556496"/>
     <use style="stroke:#000000;" x="404.351658" xlink:href="#mfdefde7344" y="242.532352"/>
     <use style="stroke:#000000;" x="405.788674" xlink:href="#mfdefde7344" y="251.917524"/>
     <use style="stroke:#000000;" x="407.646489" xlink:href="#mfdefde7344" y="260.948399"/>
     <use style="stroke:#000000;" x="410.076439" xlink:href="#mfdefde7344" y="256.668772"/>
     <use style="stroke:#000000;" x="411.934255" xlink:href="#mfdefde7344" y="259.075301"/>
     <use style="stroke:#000000;" x="413.724388" xlink:href="#mfdefde7344" y="276.067843"/>
     <use style="stroke:#000000;" x="416.096042" xlink:href="#mfdefde7344" y="262.50944"/>
     <use style="stroke:#000000;" x="418.515705" xlink:href="#mfdefde7344" y="263.868062"/>
     <use style="stroke:#000000;" x="420.768329" xlink:href="#mfdefde7344" y="256.01634"/>
     <use style="stroke:#000000;" x="422.6617" xlink:href="#mfdefde7344" y="252.859622"/>
     <use style="stroke:#000000;" x="424.215038" xlink:href="#mfdefde7344" y="269.271184"/>
     <use style="stroke:#000000;" x="425.180629" xlink:href="#mfdefde7344" y="278.680397"/>
     <use style="stroke:#000000;" x="426.455751" xlink:href="#mfdefde7344" y="281.12813"/>
     <use style="stroke:#000000;" x="427.178229" xlink:href="#mfdefde7344" y="284.847267"/>
     <use style="stroke:#000000;" x="427.740618" xlink:href="#mfdefde7344" y="288.430125"/>
     <use style="stroke:#000000;" x="427.673298" xlink:href="#mfdefde7344" y="275.528879"/>
     <use style="stroke:#000000;" x="427.093763" xlink:href="#mfdefde7344" y="273.117402"/>
     <use style="stroke:#000000;" x="425.70638" xlink:href="#mfdefde7344" y="258.36394"/>
     <use style="stroke:#000000;" x="423.565836" xlink:href="#mfdefde7344" y="261.226939"/>
     <use style="stroke:#000000;" x="420.808307" xlink:href="#mfdefde7344" y="250.791959"/>
     <use style="stroke:#000000;" x="417.398778" xlink:href="#mfdefde7344" y="233.537426"/>
     <use style="stroke:#000000;" x="414.105751" xlink:href="#mfdefde7344" y="215.098065"/>
     <use style="stroke:#000000;" x="410.098819" xlink:href="#mfdefde7344" y="214.214587"/>
     <use style="stroke:#000000;" x="405.180261" xlink:href="#mfdefde7344" y="200.559545"/>
     <use style="stroke:#000000;" x="400.378567" xlink:href="#mfdefde7344" y="177.883887"/>
     <use style="stroke:#000000;" x="395.712957" xlink:href="#mfdefde7344" y="186.858629"/>
     <use style="stroke:#000000;" x="389.498251" xlink:href="#mfdefde7344" y="174.083011"/>
     <use style="stroke:#000000;" x="382.37977" xlink:href="#mfdefde7344" y="172.61011"/>
     <use style="stroke:#000000;" x="373.768142" xlink:href="#mfdefde7344" y="163.492576"/>
     <use style="stroke:#000000;" x="364.297589" xlink:href="#mfdefde7344" y="156.315175"/>
     <use style="stroke:#000000;" x="353.762991" xlink:href="#mfdefde7344" y="149.32739"/>
     <use style="stroke:#000000;" x="342.683872" xlink:href="#mfdefde7344" y="139.500228"/>
     <use style="stroke:#000000;" x="330.75765" xlink:href="#mfdefde7344" y="131.121422"/>
     <use style="stroke:#000000;" x="317.138124" xlink:href="#mfdefde7344" y="114.515771"/>
     <use style="stroke:#000000;" x="302.932566" xlink:href="#mfdefde7344" y="121.439987"/>
     <use style="stroke:#000000;" x="288.264426" xlink:href="#mfdefde7344" y="104.503717"/>
     <use style="stroke:#000000;" x="272.08067" xlink:href="#mfdefde7344" y="106.371531"/>
     <use style="stroke:#000000;" x="255.97768" xlink:href="#mfdefde7344" y="100.281034"/>
     <use style="stroke:#000000;" x="239.834893" xlink:href="#mfdefde7344" y="78.736419"/>
     <use style="stroke:#000000;" x="224.33436" xlink:href="#mfdefde7344" y="66.042567"/>
     <use style="stroke:#000000;" x="208.881835" xlink:href="#mfdefde7344" y="59.505523"/>
     <use style="stroke:#000000;" x="192.845625" xlink:href="#mfdefde7344" y="48.443382"/>
     <use style="stroke:#000000;" x="176.251898" xlink:href="#mfdefde7344" y="31.937249"/>
     <use style="stroke:#000000;" x="159.483102" xlink:href="#mfdefde7344" y="37.881349"/>
     <use style="stroke:#000000;" x="144.547033" xlink:href="#mfdefde7344" y="33.744123"/>
     <use style="stroke:#000000;" x="131.210417" xlink:href="#mfdefde7344" y="39.259734"/>
     <use style="stroke:#000000;" x="119.264883" xlink:href="#mfdefde7344" y="42.4072"/>
     <use style="stroke:#000000;" x="108.47517" xlink:href="#mfdefde7344" y="40.863155"/>
     <use style="stroke:#000000;" x="99.374971" xlink:href="#mfdefde7344" y="40.26884"/>
     <use style="stroke:#000000;" x="91.30642" xlink:href="#mfdefde7344" y="30.507147"/>
     <use style="stroke:#000000;" x="84.464712" xlink:href="#mfdefde7344" y="34.180662"/>
     <use style="stroke:#000000;" x="79.741257" xlink:href="#mfdefde7344" y="22.318125"/>
     <use style="stroke:#000000;" x="76.557153" xlink:href="#mfdefde7344" y="24.201091"/>
     <use style="stroke:#000000;" x="74.474229" xlink:href="#mfdefde7344" y="32.395761"/>
     <use style="stroke:#000000;" x="73.420155" xlink:href="#mfdefde7344" y="34.240485"/>
     <use style="stroke:#000000;" x="72.436742" xlink:href="#mfdefde7344" y="32.078532"/>
     <use style="stroke:#000000;" x="72.415625" xlink:href="#mfdefde7344" y="40.95451"/>
     <use style="stroke:#000000;" x="72.454519" xlink:href="#mfdefde7344" y="61.859077"/>
    </g>
   </g>
   <g id="matplotlib.axis_1">
    <g id="xtick_1">
     <g id="line2d_1">
      <defs>
       <path d="M 0 0 
L 0 3.5 
" id="m3bbb3fc1fe" style="stroke:#000000;stroke-width:0.8;"/>
      </defs>
      <g>
       <use style="stroke:#000000;stroke-width:0.8;" x="76.156027" xlink:href="#m3bbb3fc1fe" y="288.430125"/>
      </g>
     </g>
     <g id="text_1">
      <!-- 0.50 -->
      <defs>
       <path d="M 31.78125 66.40625 
Q 24.171875 66.40625 20.328125 58.90625 
Q 16.5 51.421875 16.5 36.375 
Q 16.5 21.390625 20.328125 13.890625 
Q 24.171875 6.390625 31.78125 6.390625 
Q 39.453125 6.390625 43.28125 13.890625 
Q 47.125 21.390625 47.125 36.375 
Q 47.125 51.421875 43.28125 58.90625 
Q 39.453125 66.40625 31.78125 66.40625 
z
M 31.78125 74.21875 
Q 44.046875 74.21875 50.515625 64.515625 
Q 56.984375 54.828125 56.984375 36.375 
Q 56.984375 17.96875 50.515625 8.265625 
Q 44.046875 -1.421875 31.78125 -1.421875 
Q 19.53125 -1.421875 13.0625 8.265625 
Q 6.59375 17.96875 6.59375 36.375 
Q 6.59375 54.828125 13.0625 64.515625 
Q 19.53125 74.21875 31.78125 74.21875 
z
" id="DejaVuSans-30"/>
       <path d="M 10.6875 12.40625 
L 21 12.40625 
L 21 0 
L 10.6875 0 
z
" id="DejaVuSans-2e"/>
       <path d="M 10.796875 72.90625 
L 49.515625 72.90625 
L 49.515625 64.59375 
L 19.828125 64.59375 
L 19.828125 46.734375 
Q 21.96875 47.46875 24.109375 47.828125 
Q 26.265625 48.1875 28.421875 48.1875 
Q 40.625 48.1875 47.75 41.5 
Q 54.890625 34.8125 54.890625 23.390625 
Q 54.890625 11.625 47.5625 5.09375 
Q 40.234375 -1.421875 26.90625 -1.421875 
Q 22.3125 -1.421875 17.546875 -0.640625 
Q 12.796875 0.140625 7.71875 1.703125 
L 7.71875 11.625 
Q 12.109375 9.234375 16.796875 8.0625 
Q 21.484375 6.890625 26.703125 6.890625 
Q 35.15625 6.890625 40.078125 11.328125 
Q 45.015625 15.765625 45.015625 23.390625 
Q 45.015625 31 40.078125 35.4375 
Q 35.15625 39.890625 26.703125 39.890625 
Q 22.75 39.890625 18.8125 39.015625 
Q 14.890625 38.140625 10.796875 36.28125 
z
" id="DejaVuSans-35"/>
      </defs>
      <g transform="translate(65.023214 303.028562)scale(0.1 -0.1)">
       <use xlink:href="#DejaVuSans-30"/>
       <use x="63.623047" xlink:href="#DejaVuSans-2e"/>
       <use x="95.410156" xlink:href="#DejaVuSans-35"/>
       <use x="159.033203" xlink:href="#DejaVuSans-30"/>
      </g>
     </g>
    </g>
    <g id="xtick_2">
     <g id="line2d_2">
      <g>
       <use style="stroke:#000000;stroke-width:0.8;" x="151.856629" xlink:href="#m3bbb3fc1fe" y="288.430125"/>
      </g>
     </g>
     <g id="text_2">
      <!-- 0.55 -->
      <g transform="translate(140.723817 303.028562)scale(0.1 -0.1)">
       <use xlink:href="#DejaVuSans-30"/>
       <use x="63.623047" xlink:href="#DejaVuSans-2e"/>
       <use x="95.410156" xlink:href="#DejaVuSans-35"/>
       <use x="159.033203" xlink:href="#DejaVuSans-35"/>
      </g>
     </g>
    </g>
    <g id="xtick_3">
     <g id="line2d_3">
      <g>
       <use style="stroke:#000000;stroke-width:0.8;" x="227.557232" xlink:href="#m3bbb3fc1fe" y="288.430125"/>
      </g>
     </g>
     <g id="text_3">
      <!-- 0.60 -->
      <defs>
       <path d="M 33.015625 40.375 
Q 26.375 40.375 22.484375 35.828125 
Q 18.609375 31.296875 18.609375 23.390625 
Q 18.609375 15.53125 22.484375 10.953125 
Q 26.375 6.390625 33.015625 6.390625 
Q 39.65625 6.390625 43.53125 10.953125 
Q 47.40625 15.53125 47.40625 23.390625 
Q 47.40625 31.296875 43.53125 35.828125 
Q 39.65625 40.375 33.015625 40.375 
z
M 52.59375 71.296875 
L 52.59375 62.3125 
Q 48.875 64.0625 45.09375 64.984375 
Q 41.3125 65.921875 37.59375 65.921875 
Q 27.828125 65.921875 22.671875 59.328125 
Q 17.53125 52.734375 16.796875 39.40625 
Q 19.671875 43.65625 24.015625 45.921875 
Q 28.375 48.1875 33.59375 48.1875 
Q 44.578125 48.1875 50.953125 41.515625 
Q 57.328125 34.859375 57.328125 23.390625 
Q 57.328125 12.15625 50.6875 5.359375 
Q 44.046875 -1.421875 33.015625 -1.421875 
Q 20.359375 -1.421875 13.671875 8.265625 
Q 6.984375 17.96875 6.984375 36.375 
Q 6.984375 53.65625 15.1875 63.9375 
Q 23.390625 74.21875 37.203125 74.21875 
Q 40.921875 74.21875 44.703125 73.484375 
Q 48.484375 72.75 52.59375 71.296875 
z
" id="DejaVuSans-36"/>
      </defs>
      <g transform="translate(216.424419 303.028562)scale(0.1 -0.1)">
       <use xlink:href="#DejaVuSans-30"/>
       <use x="63.623047" xlink:href="#DejaVuSans-2e"/>
       <use x="95.410156" xlink:href="#DejaVuSans-36"/>
       <use x="159.033203" xlink:href="#DejaVuSans-30"/>
      </g>
     </g>
    </g>
    <g id="xtick_4">
     <g id="line2d_4">
      <g>
       <use style="stroke:#000000;stroke-width:0.8;" x="303.257835" xlink:href="#m3bbb3fc1fe" y="288.430125"/>
      </g>
     </g>
     <g id="text_4">
      <!-- 0.65 -->
      <g transform="translate(292.125022 303.028562)scale(0.1 -0.1)">
       <use xlink:href="#DejaVuSans-30"/>
       <use x="63.623047" xlink:href="#DejaVuSans-2e"/>
       <use x="95.410156" xlink:href="#DejaVuSans-36"/>
       <use x="159.033203" xlink:href="#DejaVuSans-35"/>
      </g>
     </g>
    </g>
    <g id="xtick_5">
     <g id="line2d_5">
      <g>
       <use style="stroke:#000000;stroke-width:0.8;" x="378.958437" xlink:href="#m3bbb3fc1fe" y="288.430125"/>
      </g>
     </g>
     <g id="text_5">
      <!-- 0.70 -->
      <defs>
       <path d="M 8.203125 72.90625 
L 55.078125 72.90625 
L 55.078125 68.703125 
L 28.609375 0 
L 18.3125 0 
L 43.21875 64.59375 
L 8.203125 64.59375 
z
" id="DejaVuSans-37"/>
      </defs>
      <g transform="translate(367.825625 303.028562)scale(0.1 -0.1)">
       <use xlink:href="#DejaVuSans-30"/>
       <use x="63.623047" xlink:href="#DejaVuSans-2e"/>
       <use x="95.410156" xlink:href="#DejaVuSans-37"/>
       <use x="159.033203" xlink:href="#DejaVuSans-30"/>
      </g>
     </g>
    </g>
    <g id="text_6">
     <!-- Correct Class Probability -->
     <defs>
      <path d="M 64.40625 67.28125 
L 64.40625 56.890625 
Q 59.421875 61.53125 53.78125 63.8125 
Q 48.140625 66.109375 41.796875 66.109375 
Q 29.296875 66.109375 22.65625 58.46875 
Q 16.015625 50.828125 16.015625 36.375 
Q 16.015625 21.96875 22.65625 14.328125 
Q 29.296875 6.6875 41.796875 6.6875 
Q 48.140625 6.6875 53.78125 8.984375 
Q 59.421875 11.28125 64.40625 15.921875 
L 64.40625 5.609375 
Q 59.234375 2.09375 53.4375 0.328125 
Q 47.65625 -1.421875 41.21875 -1.421875 
Q 24.65625 -1.421875 15.125 8.703125 
Q 5.609375 18.84375 5.609375 36.375 
Q 5.609375 53.953125 15.125 64.078125 
Q 24.65625 74.21875 41.21875 74.21875 
Q 47.75 74.21875 53.53125 72.484375 
Q 59.328125 70.75 64.40625 67.28125 
z
" id="DejaVuSans-43"/>
      <path d="M 30.609375 48.390625 
Q 23.390625 48.390625 19.1875 42.75 
Q 14.984375 37.109375 14.984375 27.296875 
Q 14.984375 17.484375 19.15625 11.84375 
Q 23.34375 6.203125 30.609375 6.203125 
Q 37.796875 6.203125 41.984375 11.859375 
Q 46.1875 17.53125 46.1875 27.296875 
Q 46.1875 37.015625 41.984375 42.703125 
Q 37.796875 48.390625 30.609375 48.390625 
z
M 30.609375 56 
Q 42.328125 56 49.015625 48.375 
Q 55.71875 40.765625 55.71875 27.296875 
Q 55.71875 13.875 49.015625 6.21875 
Q 42.328125 -1.421875 30.609375 -1.421875 
Q 18.84375 -1.421875 12.171875 6.21875 
Q 5.515625 13.875 5.515625 27.296875 
Q 5.515625 40.765625 12.171875 48.375 
Q 18.84375 56 30.609375 56 
z
" id="DejaVuSans-6f"/>
      <path d="M 41.109375 46.296875 
Q 39.59375 47.171875 37.8125 47.578125 
Q 36.03125 48 33.890625 48 
Q 26.265625 48 22.1875 43.046875 
Q 18.109375 38.09375 18.109375 28.8125 
L 18.109375 0 
L 9.078125 0 
L 9.078125 54.6875 
L 18.109375 54.6875 
L 18.109375 46.1875 
Q 20.953125 51.171875 25.484375 53.578125 
Q 30.03125 56 36.53125 56 
Q 37.453125 56 38.578125 55.875 
Q 39.703125 55.765625 41.0625 55.515625 
z
" id="DejaVuSans-72"/>
      <path d="M 56.203125 29.59375 
L 56.203125 25.203125 
L 14.890625 25.203125 
Q 15.484375 15.921875 20.484375 11.0625 
Q 25.484375 6.203125 34.421875 6.203125 
Q 39.59375 6.203125 44.453125 7.46875 
Q 49.3125 8.734375 54.109375 11.28125 
L 54.109375 2.78125 
Q 49.265625 0.734375 44.1875 -0.34375 
Q 39.109375 -1.421875 33.890625 -1.421875 
Q 20.796875 -1.421875 13.15625 6.1875 
Q 5.515625 13.8125 5.515625 26.8125 
Q 5.515625 40.234375 12.765625 48.109375 
Q 20.015625 56 32.328125 56 
Q 43.359375 56 49.78125 48.890625 
Q 56.203125 41.796875 56.203125 29.59375 
z
M 47.21875 32.234375 
Q 47.125 39.59375 43.09375 43.984375 
Q 39.0625 48.390625 32.421875 48.390625 
Q 24.90625 48.390625 20.390625 44.140625 
Q 15.875 39.890625 15.1875 32.171875 
z
" id="DejaVuSans-65"/>
      <path d="M 48.78125 52.59375 
L 48.78125 44.1875 
Q 44.96875 46.296875 41.140625 47.34375 
Q 37.3125 48.390625 33.40625 48.390625 
Q 24.65625 48.390625 19.8125 42.84375 
Q 14.984375 37.3125 14.984375 27.296875 
Q 14.984375 17.28125 19.8125 11.734375 
Q 24.65625 6.203125 33.40625 6.203125 
Q 37.3125 6.203125 41.140625 7.25 
Q 44.96875 8.296875 48.78125 10.40625 
L 48.78125 2.09375 
Q 45.015625 0.34375 40.984375 -0.53125 
Q 36.96875 -1.421875 32.421875 -1.421875 
Q 20.0625 -1.421875 12.78125 6.34375 
Q 5.515625 14.109375 5.515625 27.296875 
Q 5.515625 40.671875 12.859375 48.328125 
Q 20.21875 56 33.015625 56 
Q 37.15625 56 41.109375 55.140625 
Q 45.0625 54.296875 48.78125 52.59375 
z
" id="DejaVuSans-63"/>
      <path d="M 18.3125 70.21875 
L 18.3125 54.6875 
L 36.8125 54.6875 
L 36.8125 47.703125 
L 18.3125 47.703125 
L 18.3125 18.015625 
Q 18.3125 11.328125 20.140625 9.421875 
Q 21.96875 7.515625 27.59375 7.515625 
L 36.8125 7.515625 
L 36.8125 0 
L 27.59375 0 
Q 17.1875 0 13.234375 3.875 
Q 9.28125 7.765625 9.28125 18.015625 
L 9.28125 47.703125 
L 2.6875 47.703125 
L 2.6875 54.6875 
L 9.28125 54.6875 
L 9.28125 70.21875 
z
" id="DejaVuSans-74"/>
      <path id="DejaVuSans-20"/>
      <path d="M 9.421875 75.984375 
L 18.40625 75.984375 
L 18.40625 0 
L 9.421875 0 
z
" id="DejaVuSans-6c"/>
      <path d="M 34.28125 27.484375 
Q 23.390625 27.484375 19.1875 25 
Q 14.984375 22.515625 14.984375 16.5 
Q 14.984375 11.71875 18.140625 8.90625 
Q 21.296875 6.109375 26.703125 6.109375 
Q 34.1875 6.109375 38.703125 11.40625 
Q 43.21875 16.703125 43.21875 25.484375 
L 43.21875 27.484375 
z
M 52.203125 31.203125 
L 52.203125 0 
L 43.21875 0 
L 43.21875 8.296875 
Q 40.140625 3.328125 35.546875 0.953125 
Q 30.953125 -1.421875 24.3125 -1.421875 
Q 15.921875 -1.421875 10.953125 3.296875 
Q 6 8.015625 6 15.921875 
Q 6 25.140625 12.171875 29.828125 
Q 18.359375 34.515625 30.609375 34.515625 
L 43.21875 34.515625 
L 43.21875 35.40625 
Q 43.21875 41.609375 39.140625 45 
Q 35.0625 48.390625 27.6875 48.390625 
Q 23 48.390625 18.546875 47.265625 
Q 14.109375 46.140625 10.015625 43.890625 
L 10.015625 52.203125 
Q 14.9375 54.109375 19.578125 55.046875 
Q 24.21875 56 28.609375 56 
Q 40.484375 56 46.34375 49.84375 
Q 52.203125 43.703125 52.203125 31.203125 
z
" id="DejaVuSans-61"/>
      <path d="M 44.28125 53.078125 
L 44.28125 44.578125 
Q 40.484375 46.53125 36.375 47.5 
Q 32.28125 48.484375 27.875 48.484375 
Q 21.1875 48.484375 17.84375 46.4375 
Q 14.5 44.390625 14.5 40.28125 
Q 14.5 37.15625 16.890625 35.375 
Q 19.28125 33.59375 26.515625 31.984375 
L 29.59375 31.296875 
Q 39.15625 29.25 43.1875 25.515625 
Q 47.21875 21.78125 47.21875 15.09375 
Q 47.21875 7.46875 41.1875 3.015625 
Q 35.15625 -1.421875 24.609375 -1.421875 
Q 20.21875 -1.421875 15.453125 -0.5625 
Q 10.6875 0.296875 5.421875 2 
L 5.421875 11.28125 
Q 10.40625 8.6875 15.234375 7.390625 
Q 20.0625 6.109375 24.8125 6.109375 
Q 31.15625 6.109375 34.5625 8.28125 
Q 37.984375 10.453125 37.984375 14.40625 
Q 37.984375 18.0625 35.515625 20.015625 
Q 33.0625 21.96875 24.703125 23.78125 
L 21.578125 24.515625 
Q 13.234375 26.265625 9.515625 29.90625 
Q 5.8125 33.546875 5.8125 39.890625 
Q 5.8125 47.609375 11.28125 51.796875 
Q 16.75 56 26.8125 56 
Q 31.78125 56 36.171875 55.265625 
Q 40.578125 54.546875 44.28125 53.078125 
z
" id="DejaVuSans-73"/>
      <path d="M 19.671875 64.796875 
L 19.671875 37.40625 
L 32.078125 37.40625 
Q 38.96875 37.40625 42.71875 40.96875 
Q 46.484375 44.53125 46.484375 51.125 
Q 46.484375 57.671875 42.71875 61.234375 
Q 38.96875 64.796875 32.078125 64.796875 
z
M 9.8125 72.90625 
L 32.078125 72.90625 
Q 44.34375 72.90625 50.609375 67.359375 
Q 56.890625 61.8125 56.890625 51.125 
Q 56.890625 40.328125 50.609375 34.8125 
Q 44.34375 29.296875 32.078125 29.296875 
L 19.671875 29.296875 
L 19.671875 0 
L 9.8125 0 
z
" id="DejaVuSans-50"/>
      <path d="M 48.6875 27.296875 
Q 48.6875 37.203125 44.609375 42.84375 
Q 40.53125 48.484375 33.40625 48.484375 
Q 26.265625 48.484375 22.1875 42.84375 
Q 18.109375 37.203125 18.109375 27.296875 
Q 18.109375 17.390625 22.1875 11.75 
Q 26.265625 6.109375 33.40625 6.109375 
Q 40.53125 6.109375 44.609375 11.75 
Q 48.6875 17.390625 48.6875 27.296875 
z
M 18.109375 46.390625 
Q 20.953125 51.265625 25.265625 53.625 
Q 29.59375 56 35.59375 56 
Q 45.5625 56 51.78125 48.09375 
Q 58.015625 40.1875 58.015625 27.296875 
Q 58.015625 14.40625 51.78125 6.484375 
Q 45.5625 -1.421875 35.59375 -1.421875 
Q 29.59375 -1.421875 25.265625 0.953125 
Q 20.953125 3.328125 18.109375 8.203125 
L 18.109375 0 
L 9.078125 0 
L 9.078125 75.984375 
L 18.109375 75.984375 
z
" id="DejaVuSans-62"/>
      <path d="M 9.421875 54.6875 
L 18.40625 54.6875 
L 18.40625 0 
L 9.421875 0 
z
M 9.421875 75.984375 
L 18.40625 75.984375 
L 18.40625 64.59375 
L 9.421875 64.59375 
z
" id="DejaVuSans-69"/>
      <path d="M 32.171875 -5.078125 
Q 28.375 -14.84375 24.75 -17.8125 
Q 21.140625 -20.796875 15.09375 -20.796875 
L 7.90625 -20.796875 
L 7.90625 -13.28125 
L 13.1875 -13.28125 
Q 16.890625 -13.28125 18.9375 -11.515625 
Q 21 -9.765625 23.484375 -3.21875 
L 25.09375 0.875 
L 2.984375 54.6875 
L 12.5 54.6875 
L 29.59375 11.921875 
L 46.6875 54.6875 
L 56.203125 54.6875 
z
" id="DejaVuSans-79"/>
     </defs>
     <g transform="translate(189.571719 316.706687)scale(0.1 -0.1)">
      <use xlink:href="#DejaVuSans-43"/>
      <use x="69.824219" xlink:href="#DejaVuSans-6f"/>
      <use x="131.005859" xlink:href="#DejaVuSans-72"/>
      <use x="172.103516" xlink:href="#DejaVuSans-72"/>
      <use x="213.185547" xlink:href="#DejaVuSans-65"/>
      <use x="274.708984" xlink:href="#DejaVuSans-63"/>
      <use x="329.689453" xlink:href="#DejaVuSans-74"/>
      <use x="368.898438" xlink:href="#DejaVuSans-20"/>
      <use x="400.685547" xlink:href="#DejaVuSans-43"/>
      <use x="470.509766" xlink:href="#DejaVuSans-6c"/>
      <use x="498.292969" xlink:href="#DejaVuSans-61"/>
      <use x="559.572266" xlink:href="#DejaVuSans-73"/>
      <use x="611.671875" xlink:href="#DejaVuSans-73"/>
      <use x="663.771484" xlink:href="#DejaVuSans-20"/>
      <use x="695.558594" xlink:href="#DejaVuSans-50"/>
      <use x="755.845703" xlink:href="#DejaVuSans-72"/>
      <use x="796.927734" xlink:href="#DejaVuSans-6f"/>
      <use x="858.109375" xlink:href="#DejaVuSans-62"/>
      <use x="921.585938" xlink:href="#DejaVuSans-61"/>
      <use x="982.865234" xlink:href="#DejaVuSans-62"/>
      <use x="1046.341797" xlink:href="#DejaVuSans-69"/>
      <use x="1074.125" xlink:href="#DejaVuSans-6c"/>
      <use x="1101.908203" xlink:href="#DejaVuSans-69"/>
      <use x="1129.691406" xlink:href="#DejaVuSans-74"/>
      <use x="1168.900391" xlink:href="#DejaVuSans-79"/>
     </g>
    </g>
   </g>
   <g id="matplotlib.axis_2">
    <g id="ytick_1">
     <g id="line2d_6">
      <defs>
       <path d="M 0 0 
L -3.5 0 
" id="m11f7e32a5a" style="stroke:#000000;stroke-width:0.8;"/>
      </defs>
      <g>
       <use style="stroke:#000000;stroke-width:0.8;" x="72.415625" xlink:href="#m11f7e32a5a" y="244.958728"/>
      </g>
     </g>
     <g id="text_7">
      <!-- 600000 -->
      <g transform="translate(27.240625 248.757946)scale(0.1 -0.1)">
       <use xlink:href="#DejaVuSans-36"/>
       <use x="63.623047" xlink:href="#DejaVuSans-30"/>
       <use x="127.246094" xlink:href="#DejaVuSans-30"/>
       <use x="190.869141" xlink:href="#DejaVuSans-30"/>
       <use x="254.492188" xlink:href="#DejaVuSans-30"/>
       <use x="318.115234" xlink:href="#DejaVuSans-30"/>
      </g>
     </g>
    </g>
    <g id="ytick_2">
     <g id="line2d_7">
      <g>
       <use style="stroke:#000000;stroke-width:0.8;" x="72.415625" xlink:href="#m11f7e32a5a" y="200.231358"/>
      </g>
     </g>
     <g id="text_8">
      <!-- 700000 -->
      <g transform="translate(27.240625 204.030577)scale(0.1 -0.1)">
       <use xlink:href="#DejaVuSans-37"/>
       <use x="63.623047" xlink:href="#DejaVuSans-30"/>
       <use x="127.246094" xlink:href="#DejaVuSans-30"/>
       <use x="190.869141" xlink:href="#DejaVuSans-30"/>
       <use x="254.492188" xlink:href="#DejaVuSans-30"/>
       <use x="318.115234" xlink:href="#DejaVuSans-30"/>
      </g>
     </g>
    </g>
    <g id="ytick_3">
     <g id="line2d_8">
      <g>
       <use style="stroke:#000000;stroke-width:0.8;" x="72.415625" xlink:href="#m11f7e32a5a" y="155.503988"/>
      </g>
     </g>
     <g id="text_9">
      <!-- 800000 -->
      <defs>
       <path d="M 31.78125 34.625 
Q 24.75 34.625 20.71875 30.859375 
Q 16.703125 27.09375 16.703125 20.515625 
Q 16.703125 13.921875 20.71875 10.15625 
Q 24.75 6.390625 31.78125 6.390625 
Q 38.8125 6.390625 42.859375 10.171875 
Q 46.921875 13.96875 46.921875 20.515625 
Q 46.921875 27.09375 42.890625 30.859375 
Q 38.875 34.625 31.78125 34.625 
z
M 21.921875 38.8125 
Q 15.578125 40.375 12.03125 44.71875 
Q 8.5 49.078125 8.5 55.328125 
Q 8.5 64.0625 14.71875 69.140625 
Q 20.953125 74.21875 31.78125 74.21875 
Q 42.671875 74.21875 48.875 69.140625 
Q 55.078125 64.0625 55.078125 55.328125 
Q 55.078125 49.078125 51.53125 44.71875 
Q 48 40.375 41.703125 38.8125 
Q 48.828125 37.15625 52.796875 32.3125 
Q 56.78125 27.484375 56.78125 20.515625 
Q 56.78125 9.90625 50.3125 4.234375 
Q 43.84375 -1.421875 31.78125 -1.421875 
Q 19.734375 -1.421875 13.25 4.234375 
Q 6.78125 9.90625 6.78125 20.515625 
Q 6.78125 27.484375 10.78125 32.3125 
Q 14.796875 37.15625 21.921875 38.8125 
z
M 18.3125 54.390625 
Q 18.3125 48.734375 21.84375 45.5625 
Q 25.390625 42.390625 31.78125 42.390625 
Q 38.140625 42.390625 41.71875 45.5625 
Q 45.3125 48.734375 45.3125 54.390625 
Q 45.3125 60.0625 41.71875 63.234375 
Q 38.140625 66.40625 31.78125 66.40625 
Q 25.390625 66.40625 21.84375 63.234375 
Q 18.3125 60.0625 18.3125 54.390625 
z
" id="DejaVuSans-38"/>
      </defs>
      <g transform="translate(27.240625 159.303207)scale(0.1 -0.1)">
       <use xlink:href="#DejaVuSans-38"/>
       <use x="63.623047" xlink:href="#DejaVuSans-30"/>
       <use x="127.246094" xlink:href="#DejaVuSans-30"/>
       <use x="190.869141" xlink:href="#DejaVuSans-30"/>
       <use x="254.492188" xlink:href="#DejaVuSans-30"/>
       <use x="318.115234" xlink:href="#DejaVuSans-30"/>
      </g>
     </g>
    </g>
    <g id="ytick_4">
     <g id="line2d_9">
      <g>
       <use style="stroke:#000000;stroke-width:0.8;" x="72.415625" xlink:href="#m11f7e32a5a" y="110.776618"/>
      </g>
     </g>
     <g id="text_10">
      <!-- 900000 -->
      <defs>
       <path d="M 10.984375 1.515625 
L 10.984375 10.5 
Q 14.703125 8.734375 18.5 7.8125 
Q 22.3125 6.890625 25.984375 6.890625 
Q 35.75 6.890625 40.890625 13.453125 
Q 46.046875 20.015625 46.78125 33.40625 
Q 43.953125 29.203125 39.59375 26.953125 
Q 35.25 24.703125 29.984375 24.703125 
Q 19.046875 24.703125 12.671875 31.3125 
Q 6.296875 37.9375 6.296875 49.421875 
Q 6.296875 60.640625 12.9375 67.421875 
Q 19.578125 74.21875 30.609375 74.21875 
Q 43.265625 74.21875 49.921875 64.515625 
Q 56.59375 54.828125 56.59375 36.375 
Q 56.59375 19.140625 48.40625 8.859375 
Q 40.234375 -1.421875 26.421875 -1.421875 
Q 22.703125 -1.421875 18.890625 -0.6875 
Q 15.09375 0.046875 10.984375 1.515625 
z
M 30.609375 32.421875 
Q 37.25 32.421875 41.125 36.953125 
Q 45.015625 41.5 45.015625 49.421875 
Q 45.015625 57.28125 41.125 61.84375 
Q 37.25 66.40625 30.609375 66.40625 
Q 23.96875 66.40625 20.09375 61.84375 
Q 16.21875 57.28125 16.21875 49.421875 
Q 16.21875 41.5 20.09375 36.953125 
Q 23.96875 32.421875 30.609375 32.421875 
z
" id="DejaVuSans-39"/>
      </defs>
      <g transform="translate(27.240625 114.575837)scale(0.1 -0.1)">
       <use xlink:href="#DejaVuSans-39"/>
       <use x="63.623047" xlink:href="#DejaVuSans-30"/>
       <use x="127.246094" xlink:href="#DejaVuSans-30"/>
       <use x="190.869141" xlink:href="#DejaVuSans-30"/>
       <use x="254.492188" xlink:href="#DejaVuSans-30"/>
       <use x="318.115234" xlink:href="#DejaVuSans-30"/>
      </g>
     </g>
    </g>
    <g id="ytick_5">
     <g id="line2d_10">
      <g>
       <use style="stroke:#000000;stroke-width:0.8;" x="72.415625" xlink:href="#m11f7e32a5a" y="66.049249"/>
      </g>
     </g>
     <g id="text_11">
      <!-- 1000000 -->
      <defs>
       <path d="M 12.40625 8.296875 
L 28.515625 8.296875 
L 28.515625 63.921875 
L 10.984375 60.40625 
L 10.984375 69.390625 
L 28.421875 72.90625 
L 38.28125 72.90625 
L 38.28125 8.296875 
L 54.390625 8.296875 
L 54.390625 0 
L 12.40625 0 
z
" id="DejaVuSans-31"/>
      </defs>
      <g transform="translate(20.878125 69.848467)scale(0.1 -0.1)">
       <use xlink:href="#DejaVuSans-31"/>
       <use x="63.623047" xlink:href="#DejaVuSans-30"/>
       <use x="127.246094" xlink:href="#DejaVuSans-30"/>
       <use x="190.869141" xlink:href="#DejaVuSans-30"/>
       <use x="254.492188" xlink:href="#DejaVuSans-30"/>
       <use x="318.115234" xlink:href="#DejaVuSans-30"/>
       <use x="381.738281" xlink:href="#DejaVuSans-30"/>
      </g>
     </g>
    </g>
    <g id="text_12">
     <!-- Persistence Distance -->
     <defs>
      <path d="M 54.890625 33.015625 
L 54.890625 0 
L 45.90625 0 
L 45.90625 32.71875 
Q 45.90625 40.484375 42.875 44.328125 
Q 39.84375 48.1875 33.796875 48.1875 
Q 26.515625 48.1875 22.3125 43.546875 
Q 18.109375 38.921875 18.109375 30.90625 
L 18.109375 0 
L 9.078125 0 
L 9.078125 54.6875 
L 18.109375 54.6875 
L 18.109375 46.1875 
Q 21.34375 51.125 25.703125 53.5625 
Q 30.078125 56 35.796875 56 
Q 45.21875 56 50.046875 50.171875 
Q 54.890625 44.34375 54.890625 33.015625 
z
" id="DejaVuSans-6e"/>
      <path d="M 19.671875 64.796875 
L 19.671875 8.109375 
L 31.59375 8.109375 
Q 46.6875 8.109375 53.6875 14.9375 
Q 60.6875 21.78125 60.6875 36.53125 
Q 60.6875 51.171875 53.6875 57.984375 
Q 46.6875 64.796875 31.59375 64.796875 
z
M 9.8125 72.90625 
L 30.078125 72.90625 
Q 51.265625 72.90625 61.171875 64.09375 
Q 71.09375 55.28125 71.09375 36.53125 
Q 71.09375 17.671875 61.125 8.828125 
Q 51.171875 0 30.078125 0 
L 9.8125 0 
z
" id="DejaVuSans-44"/>
     </defs>
     <g transform="translate(14.798438 207.599906)rotate(-90)scale(0.1 -0.1)">
      <use xlink:href="#DejaVuSans-50"/>
      <use x="60.255859" xlink:href="#DejaVuSans-65"/>
      <use x="121.779297" xlink:href="#DejaVuSans-72"/>
      <use x="162.892578" xlink:href="#DejaVuSans-73"/>
      <use x="214.992188" xlink:href="#DejaVuSans-69"/>
      <use x="242.775391" xlink:href="#DejaVuSans-73"/>
      <use x="294.875" xlink:href="#DejaVuSans-74"/>
      <use x="334.083984" xlink:href="#DejaVuSans-65"/>
      <use x="395.607422" xlink:href="#DejaVuSans-6e"/>
      <use x="458.986328" xlink:href="#DejaVuSans-63"/>
      <use x="513.966797" xlink:href="#DejaVuSans-65"/>
      <use x="575.490234" xlink:href="#DejaVuSans-20"/>
      <use x="607.277344" xlink:href="#DejaVuSans-44"/>
      <use x="684.279297" xlink:href="#DejaVuSans-69"/>
      <use x="712.0625" xlink:href="#DejaVuSans-73"/>
      <use x="764.162109" xlink:href="#DejaVuSans-74"/>
      <use x="803.371094" xlink:href="#DejaVuSans-61"/>
      <use x="864.650391" xlink:href="#DejaVuSans-6e"/>
      <use x="928.029297" xlink:href="#DejaVuSans-63"/>
      <use x="983.009766" xlink:href="#DejaVuSans-65"/>
     </g>
    </g>
   </g>
   <g id="line2d_11">
    <path clip-path="url(#p48789fee5f)" d="M 429.535625 219.98005 
L 429.049491 219.57108 
L 428.188039 218.846368 
L 426.828631 217.702741 
L 425.414717 216.51326 
L 423.963353 215.292273 
L 422.366247 213.948678 
L 420.791431 212.623835 
L 418.962042 211.084828 
L 417.290487 209.678601 
L 415.871429 208.484793 
L 414.93616 207.69798 
L 413.828437 206.766088 
L 412.719451 205.833133 
L 411.798079 205.058012 
L 410.960993 204.353797 
L 410.095661 203.625821 
L 409.530204 203.150119 
L 409.13016 202.813576 
L 408.399018 202.198489 
L 407.425847 201.379791 
L 406.216422 200.362339 
L 405.066737 199.395145 
L 404.015596 198.510854 
L 402.98494 197.643796 
L 401.804934 196.651094 
L 400.621408 195.655431 
L 399.570358 194.771215 
L 398.918449 194.222785 
L 398.441158 193.821255 
L 398.04698 193.489646 
L 397.951053 193.408945 
L 398.029924 193.475297 
L 398.449009 193.82786 
L 398.992898 194.285417 
L 399.639122 194.829065 
L 400.110638 195.225736 
L 400.452294 195.513161 
L 401.101316 196.059162 
L 401.872345 196.707805 
L 402.454678 197.197703 
L 403.33147 197.935321 
L 404.351658 198.793572 
L 405.788674 200.002488 
L 407.646489 201.56541 
L 410.076439 203.60965 
L 411.934255 205.172572 
L 413.724388 206.678555 
L 416.096042 208.673752 
L 418.515705 210.709338 
L 420.768329 212.6044 
L 422.6617 214.197233 
L 424.215038 215.504008 
L 425.180629 216.316329 
L 426.455751 217.389048 
L 427.178229 217.996847 
L 427.740618 218.469967 
L 427.673298 218.413332 
L 427.093763 217.925788 
L 425.70638 216.758626 
L 423.565836 214.957854 
L 420.808307 212.638032 
L 417.398778 209.769703 
L 414.105751 206.999383 
L 410.098819 203.628478 
L 405.180261 199.49065 
L 400.378567 195.451136 
L 395.712957 191.526106 
L 389.498251 186.29787 
L 382.37977 180.309316 
L 373.768142 173.064625 
L 364.297589 165.097347 
L 353.762991 156.234922 
L 342.683872 146.914409 
L 330.75765 136.881255 
L 317.138124 125.423577 
L 302.932566 113.472889 
L 288.264426 101.133045 
L 272.08067 87.518162 
L 255.97768 73.971224 
L 239.834893 60.390807 
L 224.33436 47.350697 
L 208.881835 34.350976 
L 192.845625 20.860217 
L 176.251898 6.900439 
L 166.860795 -1 
" style="fill:none;stroke:#c0c0c0;stroke-linecap:square;stroke-width:3;"/>
   </g>
   <g id="patch_3">
    <path d="M 72.415625 288.430125 
L 72.415625 22.318125 
" style="fill:none;stroke:#000000;stroke-linecap:square;stroke-linejoin:miter;stroke-width:0.8;"/>
   </g>
   <g id="patch_4">
    <path d="M 429.535625 288.430125 
L 429.535625 22.318125 
" style="fill:none;stroke:#000000;stroke-linecap:square;stroke-linejoin:miter;stroke-width:0.8;"/>
   </g>
   <g id="patch_5">
    <path d="M 72.415625 288.430125 
L 429.535625 288.430125 
" style="fill:none;stroke:#000000;stroke-linecap:square;stroke-linejoin:miter;stroke-width:0.8;"/>
   </g>
   <g id="patch_6">
    <path d="M 72.415625 22.318125 
L 429.535625 22.318125 
" style="fill:none;stroke:#000000;stroke-linecap:square;stroke-linejoin:miter;stroke-width:0.8;"/>
   </g>
   <g id="text_13">
    <!-- Correct Class Probability vs Persistence Distance -->
    <defs>
     <path d="M 2.984375 54.6875 
L 12.5 54.6875 
L 29.59375 8.796875 
L 46.6875 54.6875 
L 56.203125 54.6875 
L 35.6875 0 
L 23.484375 0 
z
" id="DejaVuSans-76"/>
    </defs>
    <g transform="translate(104.129375 16.318125)scale(0.12 -0.12)">
     <use xlink:href="#DejaVuSans-43"/>
     <use x="69.824219" xlink:href="#DejaVuSans-6f"/>
     <use x="131.005859" xlink:href="#DejaVuSans-72"/>
     <use x="172.103516" xlink:href="#DejaVuSans-72"/>
     <use x="213.185547" xlink:href="#DejaVuSans-65"/>
     <use x="274.708984" xlink:href="#DejaVuSans-63"/>
     <use x="329.689453" xlink:href="#DejaVuSans-74"/>
     <use x="368.898438" xlink:href="#DejaVuSans-20"/>
     <use x="400.685547" xlink:href="#DejaVuSans-43"/>
     <use x="470.509766" xlink:href="#DejaVuSans-6c"/>
     <use x="498.292969" xlink:href="#DejaVuSans-61"/>
     <use x="559.572266" xlink:href="#DejaVuSans-73"/>
     <use x="611.671875" xlink:href="#DejaVuSans-73"/>
     <use x="663.771484" xlink:href="#DejaVuSans-20"/>
     <use x="695.558594" xlink:href="#DejaVuSans-50"/>
     <use x="755.845703" xlink:href="#DejaVuSans-72"/>
     <use x="796.927734" xlink:href="#DejaVuSans-6f"/>
     <use x="858.109375" xlink:href="#DejaVuSans-62"/>
     <use x="921.585938" xlink:href="#DejaVuSans-61"/>
     <use x="982.865234" xlink:href="#DejaVuSans-62"/>
     <use x="1046.341797" xlink:href="#DejaVuSans-69"/>
     <use x="1074.125" xlink:href="#DejaVuSans-6c"/>
     <use x="1101.908203" xlink:href="#DejaVuSans-69"/>
     <use x="1129.691406" xlink:href="#DejaVuSans-74"/>
     <use x="1168.900391" xlink:href="#DejaVuSans-79"/>
     <use x="1228.080078" xlink:href="#DejaVuSans-20"/>
     <use x="1259.867188" xlink:href="#DejaVuSans-76"/>
     <use x="1319.046875" xlink:href="#DejaVuSans-73"/>
     <use x="1371.146484" xlink:href="#DejaVuSans-20"/>
     <use x="1402.933594" xlink:href="#DejaVuSans-50"/>
     <use x="1463.189453" xlink:href="#DejaVuSans-65"/>
     <use x="1524.712891" xlink:href="#DejaVuSans-72"/>
     <use x="1565.826172" xlink:href="#DejaVuSans-73"/>
     <use x="1617.925781" xlink:href="#DejaVuSans-69"/>
     <use x="1645.708984" xlink:href="#DejaVuSans-73"/>
     <use x="1697.808594" xlink:href="#DejaVuSans-74"/>
     <use x="1737.017578" xlink:href="#DejaVuSans-65"/>
     <use x="1798.541016" xlink:href="#DejaVuSans-6e"/>
     <use x="1861.919922" xlink:href="#DejaVuSans-63"/>
     <use x="1916.900391" xlink:href="#DejaVuSans-65"/>
     <use x="1978.423828" xlink:href="#DejaVuSans-20"/>
     <use x="2010.210938" xlink:href="#DejaVuSans-44"/>
     <use x="2087.212891" xlink:href="#DejaVuSans-69"/>
     <use x="2114.996094" xlink:href="#DejaVuSans-73"/>
     <use x="2167.095703" xlink:href="#DejaVuSans-74"/>
     <use x="2206.304688" xlink:href="#DejaVuSans-61"/>
     <use x="2267.583984" xlink:href="#DejaVuSans-6e"/>
     <use x="2330.962891" xlink:href="#DejaVuSans-63"/>
     <use x="2385.943359" xlink:href="#DejaVuSans-65"/>
    </g>
   </g>
  </g>
 </g>
 <defs>
  <clipPath id="p48789fee5f">
   <rect height="266.112" width="357.12" x="72.415625" y="22.318125"/>
  </clipPath>
 </defs>
</svg>
