<?xml version="1.0" encoding="utf-8" standalone="no"?>
<!DOCTYPE svg PUBLIC "-//W3C//DTD SVG 1.1//EN"
  "http://www.w3.org/Graphics/SVG/1.1/DTD/svg11.dtd">
<!-- Created with matplotlib (http://matplotlib.org/) -->
<svg height="325pt" version="1.1" viewBox="0 0 417 325" width="417pt" xmlns="http://www.w3.org/2000/svg" xmlns:xlink="http://www.w3.org/1999/xlink">
 <defs>
  <style type="text/css">
*{stroke-linecap:butt;stroke-linejoin:round;}
  </style>
 </defs>
 <g id="figure_1">
  <g id="patch_1">
   <path d="M 0 325.986375 
L 417.96375 325.986375 
L 417.96375 0 
L 0 0 
z
" style="fill:#ffffff;"/>
  </g>
  <g id="axes_1">
   <g id="patch_2">
    <path d="M 50.14375 288.430125 
L 407.26375 288.430125 
L 407.26375 22.318125 
L 50.14375 22.318125 
z
" style="fill:#ffffff;"/>
   </g>
   <g id="PathCollection_1">
    <defs>
     <path d="M 0 3 
C 0.795609 3 1.55874 2.683901 2.12132 2.12132 
C 2.683901 1.55874 3 0.795609 3 0 
C 3 -0.795609 2.683901 -1.55874 2.12132 -2.12132 
C 1.55874 -2.683901 0.795609 -3 0 -3 
C -0.795609 -3 -1.55874 -2.683901 -2.12132 -2.12132 
C -2.683901 -1.55874 -3 -0.795609 -3 0 
C -3 0.795609 -2.683901 1.55874 -2.12132 2.12132 
C -1.55874 2.683901 -0.795609 3 0 3 
z
" id="m81927b4d5f" style="stroke:#000000;"/>
    </defs>
    <g clip-path="url(#p020553db6f)">
     <use style="stroke:#000000;" x="50.14375" xlink:href="#m81927b4d5f" y="22.318125"/>
     <use style="stroke:#000000;" x="53.751023" xlink:href="#m81927b4d5f" y="22.680374"/>
     <use style="stroke:#000000;" x="57.358295" xlink:href="#m81927b4d5f" y="23.322294"/>
     <use style="stroke:#000000;" x="60.965568" xlink:href="#m81927b4d5f" y="24.335272"/>
     <use style="stroke:#000000;" x="64.572841" xlink:href="#m81927b4d5f" y="25.388866"/>
     <use style="stroke:#000000;" x="68.180114" xlink:href="#m81927b4d5f" y="26.470367"/>
     <use style="stroke:#000000;" x="71.787386" xlink:href="#m81927b4d5f" y="27.660468"/>
     <use style="stroke:#000000;" x="75.394659" xlink:href="#m81927b4d5f" y="28.83396"/>
     <use style="stroke:#000000;" x="79.001932" xlink:href="#m81927b4d5f" y="30.197149"/>
     <use style="stroke:#000000;" x="82.609205" xlink:href="#m81927b4d5f" y="31.442728"/>
     <use style="stroke:#000000;" x="86.216477" xlink:href="#m81927b4d5f" y="32.500155"/>
     <use style="stroke:#000000;" x="89.82375" xlink:href="#m81927b4d5f" y="33.197081"/>
     <use style="stroke:#000000;" x="93.431023" xlink:href="#m81927b4d5f" y="34.022513"/>
     <use style="stroke:#000000;" x="97.038295" xlink:href="#m81927b4d5f" y="34.848887"/>
     <use style="stroke:#000000;" x="100.645568" xlink:href="#m81927b4d5f" y="35.535458"/>
     <use style="stroke:#000000;" x="104.252841" xlink:href="#m81927b4d5f" y="36.159222"/>
     <use style="stroke:#000000;" x="107.860114" xlink:href="#m81927b4d5f" y="36.804034"/>
     <use style="stroke:#000000;" x="111.467386" xlink:href="#m81927b4d5f" y="37.225391"/>
     <use style="stroke:#000000;" x="115.074659" xlink:href="#m81927b4d5f" y="37.523488"/>
     <use style="stroke:#000000;" x="118.681932" xlink:href="#m81927b4d5f" y="38.068306"/>
     <use style="stroke:#000000;" x="122.289205" xlink:href="#m81927b4d5f" y="38.793476"/>
     <use style="stroke:#000000;" x="125.896477" xlink:href="#m81927b4d5f" y="39.694693"/>
     <use style="stroke:#000000;" x="129.50375" xlink:href="#m81927b4d5f" y="40.551393"/>
     <use style="stroke:#000000;" x="133.111023" xlink:href="#m81927b4d5f" y="41.334663"/>
     <use style="stroke:#000000;" x="136.718295" xlink:href="#m81927b4d5f" y="42.102667"/>
     <use style="stroke:#000000;" x="140.325568" xlink:href="#m81927b4d5f" y="42.981962"/>
     <use style="stroke:#000000;" x="143.932841" xlink:href="#m81927b4d5f" y="43.86388"/>
     <use style="stroke:#000000;" x="147.540114" xlink:href="#m81927b4d5f" y="44.647082"/>
     <use style="stroke:#000000;" x="151.147386" xlink:href="#m81927b4d5f" y="45.13286"/>
     <use style="stroke:#000000;" x="154.754659" xlink:href="#m81927b4d5f" y="45.488518"/>
     <use style="stroke:#000000;" x="158.361932" xlink:href="#m81927b4d5f" y="45.782244"/>
     <use style="stroke:#000000;" x="161.969205" xlink:href="#m81927b4d5f" y="45.853726"/>
     <use style="stroke:#000000;" x="165.576477" xlink:href="#m81927b4d5f" y="45.794953"/>
     <use style="stroke:#000000;" x="169.18375" xlink:href="#m81927b4d5f" y="45.482668"/>
     <use style="stroke:#000000;" x="172.791023" xlink:href="#m81927b4d5f" y="45.077383"/>
     <use style="stroke:#000000;" x="176.398295" xlink:href="#m81927b4d5f" y="44.595841"/>
     <use style="stroke:#000000;" x="180.005568" xlink:href="#m81927b4d5f" y="44.244487"/>
     <use style="stroke:#000000;" x="183.612841" xlink:href="#m81927b4d5f" y="43.989897"/>
     <use style="stroke:#000000;" x="187.220114" xlink:href="#m81927b4d5f" y="43.506271"/>
     <use style="stroke:#000000;" x="190.827386" xlink:href="#m81927b4d5f" y="42.93173"/>
     <use style="stroke:#000000;" x="194.434659" xlink:href="#m81927b4d5f" y="42.497799"/>
     <use style="stroke:#000000;" x="198.041932" xlink:href="#m81927b4d5f" y="41.844447"/>
     <use style="stroke:#000000;" x="201.649205" xlink:href="#m81927b4d5f" y="41.084242"/>
     <use style="stroke:#000000;" x="205.256477" xlink:href="#m81927b4d5f" y="40.013434"/>
     <use style="stroke:#000000;" x="208.86375" xlink:href="#m81927b4d5f" y="38.629062"/>
     <use style="stroke:#000000;" x="212.471023" xlink:href="#m81927b4d5f" y="36.818357"/>
     <use style="stroke:#000000;" x="216.078295" xlink:href="#m81927b4d5f" y="35.433985"/>
     <use style="stroke:#000000;" x="219.685568" xlink:href="#m81927b4d5f" y="34.100047"/>
     <use style="stroke:#000000;" x="223.292841" xlink:href="#m81927b4d5f" y="32.332782"/>
     <use style="stroke:#000000;" x="226.900114" xlink:href="#m81927b4d5f" y="30.529743"/>
     <use style="stroke:#000000;" x="230.507386" xlink:href="#m81927b4d5f" y="28.851174"/>
     <use style="stroke:#000000;" x="234.114659" xlink:href="#m81927b4d5f" y="27.440308"/>
     <use style="stroke:#000000;" x="237.721932" xlink:href="#m81927b4d5f" y="26.28282"/>
     <use style="stroke:#000000;" x="241.329205" xlink:href="#m81927b4d5f" y="25.563299"/>
     <use style="stroke:#000000;" x="244.936477" xlink:href="#m81927b4d5f" y="24.613128"/>
     <use style="stroke:#000000;" x="248.54375" xlink:href="#m81927b4d5f" y="24.074765"/>
     <use style="stroke:#000000;" x="252.151023" xlink:href="#m81927b4d5f" y="23.655694"/>
     <use style="stroke:#000000;" x="255.758295" xlink:href="#m81927b4d5f" y="23.705859"/>
     <use style="stroke:#000000;" x="259.365568" xlink:href="#m81927b4d5f" y="24.137706"/>
     <use style="stroke:#000000;" x="262.972841" xlink:href="#m81927b4d5f" y="25.17153"/>
     <use style="stroke:#000000;" x="266.580114" xlink:href="#m81927b4d5f" y="26.766581"/>
     <use style="stroke:#000000;" x="270.187386" xlink:href="#m81927b4d5f" y="28.821385"/>
     <use style="stroke:#000000;" x="273.794659" xlink:href="#m81927b4d5f" y="31.362034"/>
     <use style="stroke:#000000;" x="277.401932" xlink:href="#m81927b4d5f" y="33.81587"/>
     <use style="stroke:#000000;" x="281.009205" xlink:href="#m81927b4d5f" y="36.80168"/>
     <use style="stroke:#000000;" x="284.616477" xlink:href="#m81927b4d5f" y="40.466799"/>
     <use style="stroke:#000000;" x="288.22375" xlink:href="#m81927b4d5f" y="44.044836"/>
     <use style="stroke:#000000;" x="291.831023" xlink:href="#m81927b4d5f" y="47.521468"/>
     <use style="stroke:#000000;" x="295.438295" xlink:href="#m81927b4d5f" y="52.152426"/>
     <use style="stroke:#000000;" x="299.045568" xlink:href="#m81927b4d5f" y="57.456843"/>
     <use style="stroke:#000000;" x="302.652841" xlink:href="#m81927b4d5f" y="63.873895"/>
     <use style="stroke:#000000;" x="306.260114" xlink:href="#m81927b4d5f" y="70.930984"/>
     <use style="stroke:#000000;" x="309.867386" xlink:href="#m81927b4d5f" y="78.780959"/>
     <use style="stroke:#000000;" x="313.474659" xlink:href="#m81927b4d5f" y="87.036689"/>
     <use style="stroke:#000000;" x="317.081932" xlink:href="#m81927b4d5f" y="95.923648"/>
     <use style="stroke:#000000;" x="320.689205" xlink:href="#m81927b4d5f" y="106.072392"/>
     <use style="stroke:#000000;" x="324.296477" xlink:href="#m81927b4d5f" y="116.657824"/>
     <use style="stroke:#000000;" x="327.90375" xlink:href="#m81927b4d5f" y="127.587954"/>
     <use style="stroke:#000000;" x="331.511023" xlink:href="#m81927b4d5f" y="139.647463"/>
     <use style="stroke:#000000;" x="335.118295" xlink:href="#m81927b4d5f" y="151.646787"/>
     <use style="stroke:#000000;" x="338.725568" xlink:href="#m81927b4d5f" y="163.675767"/>
     <use style="stroke:#000000;" x="342.332841" xlink:href="#m81927b4d5f" y="175.226164"/>
     <use style="stroke:#000000;" x="345.940114" xlink:href="#m81927b4d5f" y="186.740788"/>
     <use style="stroke:#000000;" x="349.547386" xlink:href="#m81927b4d5f" y="198.690351"/>
     <use style="stroke:#000000;" x="353.154659" xlink:href="#m81927b4d5f" y="211.055354"/>
     <use style="stroke:#000000;" x="356.761932" xlink:href="#m81927b4d5f" y="223.550812"/>
     <use style="stroke:#000000;" x="360.369205" xlink:href="#m81927b4d5f" y="234.680592"/>
     <use style="stroke:#000000;" x="363.976477" xlink:href="#m81927b4d5f" y="244.618522"/>
     <use style="stroke:#000000;" x="367.58375" xlink:href="#m81927b4d5f" y="253.519872"/>
     <use style="stroke:#000000;" x="371.191023" xlink:href="#m81927b4d5f" y="261.559948"/>
     <use style="stroke:#000000;" x="374.798295" xlink:href="#m81927b4d5f" y="268.341064"/>
     <use style="stroke:#000000;" x="378.405568" xlink:href="#m81927b4d5f" y="274.353435"/>
     <use style="stroke:#000000;" x="382.012841" xlink:href="#m81927b4d5f" y="279.451612"/>
     <use style="stroke:#000000;" x="385.620114" xlink:href="#m81927b4d5f" y="282.971347"/>
     <use style="stroke:#000000;" x="389.227386" xlink:href="#m81927b4d5f" y="285.344019"/>
     <use style="stroke:#000000;" x="392.834659" xlink:href="#m81927b4d5f" y="286.896133"/>
     <use style="stroke:#000000;" x="396.441932" xlink:href="#m81927b4d5f" y="287.681588"/>
     <use style="stroke:#000000;" x="400.049205" xlink:href="#m81927b4d5f" y="288.41439"/>
     <use style="stroke:#000000;" x="403.656477" xlink:href="#m81927b4d5f" y="288.430125"/>
     <use style="stroke:#000000;" x="407.26375" xlink:href="#m81927b4d5f" y="288.401142"/>
    </g>
   </g>
   <g id="matplotlib.axis_1">
    <g id="xtick_1">
     <g id="line2d_1">
      <defs>
       <path d="M 0 0 
L 0 3.5 
" id="mfca2a775ff" style="stroke:#000000;stroke-width:0.8;"/>
      </defs>
      <g>
       <use style="stroke:#000000;stroke-width:0.8;" x="88.188483" xlink:href="#mfca2a775ff" y="288.430125"/>
      </g>
     </g>
     <g id="text_1">
      <!-- 1 -->
      <defs>
       <path d="M 12.40625 8.296875 
L 28.515625 8.296875 
L 28.515625 63.921875 
L 10.984375 60.40625 
L 10.984375 69.390625 
L 28.421875 72.90625 
L 38.28125 72.90625 
L 38.28125 8.296875 
L 54.390625 8.296875 
L 54.390625 0 
L 12.40625 0 
z
" id="DejaVuSans-31"/>
      </defs>
      <g transform="translate(85.007233 303.028562)scale(0.1 -0.1)">
       <use xlink:href="#DejaVuSans-31"/>
      </g>
     </g>
    </g>
    <g id="xtick_2">
     <g id="line2d_2">
      <g>
       <use style="stroke:#000000;stroke-width:0.8;" x="129.840488" xlink:href="#mfca2a775ff" y="288.430125"/>
      </g>
     </g>
     <g id="text_2">
      <!-- 2 -->
      <defs>
       <path d="M 19.1875 8.296875 
L 53.609375 8.296875 
L 53.609375 0 
L 7.328125 0 
L 7.328125 8.296875 
Q 12.9375 14.109375 22.625 23.890625 
Q 32.328125 33.6875 34.8125 36.53125 
Q 39.546875 41.84375 41.421875 45.53125 
Q 43.3125 49.21875 43.3125 52.78125 
Q 43.3125 58.59375 39.234375 62.25 
Q 35.15625 65.921875 28.609375 65.921875 
Q 23.96875 65.921875 18.8125 64.3125 
Q 13.671875 62.703125 7.8125 59.421875 
L 7.8125 69.390625 
Q 13.765625 71.78125 18.9375 73 
Q 24.125 74.21875 28.421875 74.21875 
Q 39.75 74.21875 46.484375 68.546875 
Q 53.21875 62.890625 53.21875 53.421875 
Q 53.21875 48.921875 51.53125 44.890625 
Q 49.859375 40.875 45.40625 35.40625 
Q 44.1875 33.984375 37.640625 27.21875 
Q 31.109375 20.453125 19.1875 8.296875 
z
" id="DejaVuSans-32"/>
      </defs>
      <g transform="translate(126.659238 303.028562)scale(0.1 -0.1)">
       <use xlink:href="#DejaVuSans-32"/>
      </g>
     </g>
    </g>
    <g id="xtick_3">
     <g id="line2d_3">
      <g>
       <use style="stroke:#000000;stroke-width:0.8;" x="171.492494" xlink:href="#mfca2a775ff" y="288.430125"/>
      </g>
     </g>
     <g id="text_3">
      <!-- 3 -->
      <defs>
       <path d="M 40.578125 39.3125 
Q 47.65625 37.796875 51.625 33 
Q 55.609375 28.21875 55.609375 21.1875 
Q 55.609375 10.40625 48.1875 4.484375 
Q 40.765625 -1.421875 27.09375 -1.421875 
Q 22.515625 -1.421875 17.65625 -0.515625 
Q 12.796875 0.390625 7.625 2.203125 
L 7.625 11.71875 
Q 11.71875 9.328125 16.59375 8.109375 
Q 21.484375 6.890625 26.8125 6.890625 
Q 36.078125 6.890625 40.9375 10.546875 
Q 45.796875 14.203125 45.796875 21.1875 
Q 45.796875 27.640625 41.28125 31.265625 
Q 36.765625 34.90625 28.71875 34.90625 
L 20.21875 34.90625 
L 20.21875 43.015625 
L 29.109375 43.015625 
Q 36.375 43.015625 40.234375 45.921875 
Q 44.09375 48.828125 44.09375 54.296875 
Q 44.09375 59.90625 40.109375 62.90625 
Q 36.140625 65.921875 28.71875 65.921875 
Q 24.65625 65.921875 20.015625 65.03125 
Q 15.375 64.15625 9.8125 62.3125 
L 9.8125 71.09375 
Q 15.4375 72.65625 20.34375 73.4375 
Q 25.25 74.21875 29.59375 74.21875 
Q 40.828125 74.21875 47.359375 69.109375 
Q 53.90625 64.015625 53.90625 55.328125 
Q 53.90625 49.265625 50.4375 45.09375 
Q 46.96875 40.921875 40.578125 39.3125 
z
" id="DejaVuSans-33"/>
      </defs>
      <g transform="translate(168.311244 303.028562)scale(0.1 -0.1)">
       <use xlink:href="#DejaVuSans-33"/>
      </g>
     </g>
    </g>
    <g id="xtick_4">
     <g id="line2d_4">
      <g>
       <use style="stroke:#000000;stroke-width:0.8;" x="213.144499" xlink:href="#mfca2a775ff" y="288.430125"/>
      </g>
     </g>
     <g id="text_4">
      <!-- 4 -->
      <defs>
       <path d="M 37.796875 64.3125 
L 12.890625 25.390625 
L 37.796875 25.390625 
z
M 35.203125 72.90625 
L 47.609375 72.90625 
L 47.609375 25.390625 
L 58.015625 25.390625 
L 58.015625 17.1875 
L 47.609375 17.1875 
L 47.609375 0 
L 37.796875 0 
L 37.796875 17.1875 
L 4.890625 17.1875 
L 4.890625 26.703125 
z
" id="DejaVuSans-34"/>
      </defs>
      <g transform="translate(209.963249 303.028562)scale(0.1 -0.1)">
       <use xlink:href="#DejaVuSans-34"/>
      </g>
     </g>
    </g>
    <g id="xtick_5">
     <g id="line2d_5">
      <g>
       <use style="stroke:#000000;stroke-width:0.8;" x="254.796505" xlink:href="#mfca2a775ff" y="288.430125"/>
      </g>
     </g>
     <g id="text_5">
      <!-- 5 -->
      <defs>
       <path d="M 10.796875 72.90625 
L 49.515625 72.90625 
L 49.515625 64.59375 
L 19.828125 64.59375 
L 19.828125 46.734375 
Q 21.96875 47.46875 24.109375 47.828125 
Q 26.265625 48.1875 28.421875 48.1875 
Q 40.625 48.1875 47.75 41.5 
Q 54.890625 34.8125 54.890625 23.390625 
Q 54.890625 11.625 47.5625 5.09375 
Q 40.234375 -1.421875 26.90625 -1.421875 
Q 22.3125 -1.421875 17.546875 -0.640625 
Q 12.796875 0.140625 7.71875 1.703125 
L 7.71875 11.625 
Q 12.109375 9.234375 16.796875 8.0625 
Q 21.484375 6.890625 26.703125 6.890625 
Q 35.15625 6.890625 40.078125 11.328125 
Q 45.015625 15.765625 45.015625 23.390625 
Q 45.015625 31 40.078125 35.4375 
Q 35.15625 39.890625 26.703125 39.890625 
Q 22.75 39.890625 18.8125 39.015625 
Q 14.890625 38.140625 10.796875 36.28125 
z
" id="DejaVuSans-35"/>
      </defs>
      <g transform="translate(251.615255 303.028562)scale(0.1 -0.1)">
       <use xlink:href="#DejaVuSans-35"/>
      </g>
     </g>
    </g>
    <g id="xtick_6">
     <g id="line2d_6">
      <g>
       <use style="stroke:#000000;stroke-width:0.8;" x="296.448511" xlink:href="#mfca2a775ff" y="288.430125"/>
      </g>
     </g>
     <g id="text_6">
      <!-- 6 -->
      <defs>
       <path d="M 33.015625 40.375 
Q 26.375 40.375 22.484375 35.828125 
Q 18.609375 31.296875 18.609375 23.390625 
Q 18.609375 15.53125 22.484375 10.953125 
Q 26.375 6.390625 33.015625 6.390625 
Q 39.65625 6.390625 43.53125 10.953125 
Q 47.40625 15.53125 47.40625 23.390625 
Q 47.40625 31.296875 43.53125 35.828125 
Q 39.65625 40.375 33.015625 40.375 
z
M 52.59375 71.296875 
L 52.59375 62.3125 
Q 48.875 64.0625 45.09375 64.984375 
Q 41.3125 65.921875 37.59375 65.921875 
Q 27.828125 65.921875 22.671875 59.328125 
Q 17.53125 52.734375 16.796875 39.40625 
Q 19.671875 43.65625 24.015625 45.921875 
Q 28.375 48.1875 33.59375 48.1875 
Q 44.578125 48.1875 50.953125 41.515625 
Q 57.328125 34.859375 57.328125 23.390625 
Q 57.328125 12.15625 50.6875 5.359375 
Q 44.046875 -1.421875 33.015625 -1.421875 
Q 20.359375 -1.421875 13.671875 8.265625 
Q 6.984375 17.96875 6.984375 36.375 
Q 6.984375 53.65625 15.1875 63.9375 
Q 23.390625 74.21875 37.203125 74.21875 
Q 40.921875 74.21875 44.703125 73.484375 
Q 48.484375 72.75 52.59375 71.296875 
z
" id="DejaVuSans-36"/>
      </defs>
      <g transform="translate(293.267261 303.028562)scale(0.1 -0.1)">
       <use xlink:href="#DejaVuSans-36"/>
      </g>
     </g>
    </g>
    <g id="xtick_7">
     <g id="line2d_7">
      <g>
       <use style="stroke:#000000;stroke-width:0.8;" x="338.100516" xlink:href="#mfca2a775ff" y="288.430125"/>
      </g>
     </g>
     <g id="text_7">
      <!-- 7 -->
      <defs>
       <path d="M 8.203125 72.90625 
L 55.078125 72.90625 
L 55.078125 68.703125 
L 28.609375 0 
L 18.3125 0 
L 43.21875 64.59375 
L 8.203125 64.59375 
z
" id="DejaVuSans-37"/>
      </defs>
      <g transform="translate(334.919266 303.028562)scale(0.1 -0.1)">
       <use xlink:href="#DejaVuSans-37"/>
      </g>
     </g>
    </g>
    <g id="xtick_8">
     <g id="line2d_8">
      <g>
       <use style="stroke:#000000;stroke-width:0.8;" x="379.752522" xlink:href="#mfca2a775ff" y="288.430125"/>
      </g>
     </g>
     <g id="text_8">
      <!-- 8 -->
      <defs>
       <path d="M 31.78125 34.625 
Q 24.75 34.625 20.71875 30.859375 
Q 16.703125 27.09375 16.703125 20.515625 
Q 16.703125 13.921875 20.71875 10.15625 
Q 24.75 6.390625 31.78125 6.390625 
Q 38.8125 6.390625 42.859375 10.171875 
Q 46.921875 13.96875 46.921875 20.515625 
Q 46.921875 27.09375 42.890625 30.859375 
Q 38.875 34.625 31.78125 34.625 
z
M 21.921875 38.8125 
Q 15.578125 40.375 12.03125 44.71875 
Q 8.5 49.078125 8.5 55.328125 
Q 8.5 64.0625 14.71875 69.140625 
Q 20.953125 74.21875 31.78125 74.21875 
Q 42.671875 74.21875 48.875 69.140625 
Q 55.078125 64.0625 55.078125 55.328125 
Q 55.078125 49.078125 51.53125 44.71875 
Q 48 40.375 41.703125 38.8125 
Q 48.828125 37.15625 52.796875 32.3125 
Q 56.78125 27.484375 56.78125 20.515625 
Q 56.78125 9.90625 50.3125 4.234375 
Q 43.84375 -1.421875 31.78125 -1.421875 
Q 19.734375 -1.421875 13.25 4.234375 
Q 6.78125 9.90625 6.78125 20.515625 
Q 6.78125 27.484375 10.78125 32.3125 
Q 14.796875 37.15625 21.921875 38.8125 
z
M 18.3125 54.390625 
Q 18.3125 48.734375 21.84375 45.5625 
Q 25.390625 42.390625 31.78125 42.390625 
Q 38.140625 42.390625 41.71875 45.5625 
Q 45.3125 48.734375 45.3125 54.390625 
Q 45.3125 60.0625 41.71875 63.234375 
Q 38.140625 66.40625 31.78125 66.40625 
Q 25.390625 66.40625 21.84375 63.234375 
Q 18.3125 60.0625 18.3125 54.390625 
z
" id="DejaVuSans-38"/>
      </defs>
      <g transform="translate(376.571272 303.028562)scale(0.1 -0.1)">
       <use xlink:href="#DejaVuSans-38"/>
      </g>
     </g>
    </g>
    <g id="text_9">
     <!-- Input Distance -->
     <defs>
      <path d="M 9.8125 72.90625 
L 19.671875 72.90625 
L 19.671875 0 
L 9.8125 0 
z
" id="DejaVuSans-49"/>
      <path d="M 54.890625 33.015625 
L 54.890625 0 
L 45.90625 0 
L 45.90625 32.71875 
Q 45.90625 40.484375 42.875 44.328125 
Q 39.84375 48.1875 33.796875 48.1875 
Q 26.515625 48.1875 22.3125 43.546875 
Q 18.109375 38.921875 18.109375 30.90625 
L 18.109375 0 
L 9.078125 0 
L 9.078125 54.6875 
L 18.109375 54.6875 
L 18.109375 46.1875 
Q 21.34375 51.125 25.703125 53.5625 
Q 30.078125 56 35.796875 56 
Q 45.21875 56 50.046875 50.171875 
Q 54.890625 44.34375 54.890625 33.015625 
z
" id="DejaVuSans-6e"/>
      <path d="M 18.109375 8.203125 
L 18.109375 -20.796875 
L 9.078125 -20.796875 
L 9.078125 54.6875 
L 18.109375 54.6875 
L 18.109375 46.390625 
Q 20.953125 51.265625 25.265625 53.625 
Q 29.59375 56 35.59375 56 
Q 45.5625 56 51.78125 48.09375 
Q 58.015625 40.1875 58.015625 27.296875 
Q 58.015625 14.40625 51.78125 6.484375 
Q 45.5625 -1.421875 35.59375 -1.421875 
Q 29.59375 -1.421875 25.265625 0.953125 
Q 20.953125 3.328125 18.109375 8.203125 
z
M 48.6875 27.296875 
Q 48.6875 37.203125 44.609375 42.84375 
Q 40.53125 48.484375 33.40625 48.484375 
Q 26.265625 48.484375 22.1875 42.84375 
Q 18.109375 37.203125 18.109375 27.296875 
Q 18.109375 17.390625 22.1875 11.75 
Q 26.265625 6.109375 33.40625 6.109375 
Q 40.53125 6.109375 44.609375 11.75 
Q 48.6875 17.390625 48.6875 27.296875 
z
" id="DejaVuSans-70"/>
      <path d="M 8.5 21.578125 
L 8.5 54.6875 
L 17.484375 54.6875 
L 17.484375 21.921875 
Q 17.484375 14.15625 20.5 10.265625 
Q 23.53125 6.390625 29.59375 6.390625 
Q 36.859375 6.390625 41.078125 11.03125 
Q 45.3125 15.671875 45.3125 23.6875 
L 45.3125 54.6875 
L 54.296875 54.6875 
L 54.296875 0 
L 45.3125 0 
L 45.3125 8.40625 
Q 42.046875 3.421875 37.71875 1 
Q 33.40625 -1.421875 27.6875 -1.421875 
Q 18.265625 -1.421875 13.375 4.4375 
Q 8.5 10.296875 8.5 21.578125 
z
M 31.109375 56 
z
" id="DejaVuSans-75"/>
      <path d="M 18.3125 70.21875 
L 18.3125 54.6875 
L 36.8125 54.6875 
L 36.8125 47.703125 
L 18.3125 47.703125 
L 18.3125 18.015625 
Q 18.3125 11.328125 20.140625 9.421875 
Q 21.96875 7.515625 27.59375 7.515625 
L 36.8125 7.515625 
L 36.8125 0 
L 27.59375 0 
Q 17.1875 0 13.234375 3.875 
Q 9.28125 7.765625 9.28125 18.015625 
L 9.28125 47.703125 
L 2.6875 47.703125 
L 2.6875 54.6875 
L 9.28125 54.6875 
L 9.28125 70.21875 
z
" id="DejaVuSans-74"/>
      <path id="DejaVuSans-20"/>
      <path d="M 19.671875 64.796875 
L 19.671875 8.109375 
L 31.59375 8.109375 
Q 46.6875 8.109375 53.6875 14.9375 
Q 60.6875 21.78125 60.6875 36.53125 
Q 60.6875 51.171875 53.6875 57.984375 
Q 46.6875 64.796875 31.59375 64.796875 
z
M 9.8125 72.90625 
L 30.078125 72.90625 
Q 51.265625 72.90625 61.171875 64.09375 
Q 71.09375 55.28125 71.09375 36.53125 
Q 71.09375 17.671875 61.125 8.828125 
Q 51.171875 0 30.078125 0 
L 9.8125 0 
z
" id="DejaVuSans-44"/>
      <path d="M 9.421875 54.6875 
L 18.40625 54.6875 
L 18.40625 0 
L 9.421875 0 
z
M 9.421875 75.984375 
L 18.40625 75.984375 
L 18.40625 64.59375 
L 9.421875 64.59375 
z
" id="DejaVuSans-69"/>
      <path d="M 44.28125 53.078125 
L 44.28125 44.578125 
Q 40.484375 46.53125 36.375 47.5 
Q 32.28125 48.484375 27.875 48.484375 
Q 21.1875 48.484375 17.84375 46.4375 
Q 14.5 44.390625 14.5 40.28125 
Q 14.5 37.15625 16.890625 35.375 
Q 19.28125 33.59375 26.515625 31.984375 
L 29.59375 31.296875 
Q 39.15625 29.25 43.1875 25.515625 
Q 47.21875 21.78125 47.21875 15.09375 
Q 47.21875 7.46875 41.1875 3.015625 
Q 35.15625 -1.421875 24.609375 -1.421875 
Q 20.21875 -1.421875 15.453125 -0.5625 
Q 10.6875 0.296875 5.421875 2 
L 5.421875 11.28125 
Q 10.40625 8.6875 15.234375 7.390625 
Q 20.0625 6.109375 24.8125 6.109375 
Q 31.15625 6.109375 34.5625 8.28125 
Q 37.984375 10.453125 37.984375 14.40625 
Q 37.984375 18.0625 35.515625 20.015625 
Q 33.0625 21.96875 24.703125 23.78125 
L 21.578125 24.515625 
Q 13.234375 26.265625 9.515625 29.90625 
Q 5.8125 33.546875 5.8125 39.890625 
Q 5.8125 47.609375 11.28125 51.796875 
Q 16.75 56 26.8125 56 
Q 31.78125 56 36.171875 55.265625 
Q 40.578125 54.546875 44.28125 53.078125 
z
" id="DejaVuSans-73"/>
      <path d="M 34.28125 27.484375 
Q 23.390625 27.484375 19.1875 25 
Q 14.984375 22.515625 14.984375 16.5 
Q 14.984375 11.71875 18.140625 8.90625 
Q 21.296875 6.109375 26.703125 6.109375 
Q 34.1875 6.109375 38.703125 11.40625 
Q 43.21875 16.703125 43.21875 25.484375 
L 43.21875 27.484375 
z
M 52.203125 31.203125 
L 52.203125 0 
L 43.21875 0 
L 43.21875 8.296875 
Q 40.140625 3.328125 35.546875 0.953125 
Q 30.953125 -1.421875 24.3125 -1.421875 
Q 15.921875 -1.421875 10.953125 3.296875 
Q 6 8.015625 6 15.921875 
Q 6 25.140625 12.171875 29.828125 
Q 18.359375 34.515625 30.609375 34.515625 
L 43.21875 34.515625 
L 43.21875 35.40625 
Q 43.21875 41.609375 39.140625 45 
Q 35.0625 48.390625 27.6875 48.390625 
Q 23 48.390625 18.546875 47.265625 
Q 14.109375 46.140625 10.015625 43.890625 
L 10.015625 52.203125 
Q 14.9375 54.109375 19.578125 55.046875 
Q 24.21875 56 28.609375 56 
Q 40.484375 56 46.34375 49.84375 
Q 52.203125 43.703125 52.203125 31.203125 
z
" id="DejaVuSans-61"/>
      <path d="M 48.78125 52.59375 
L 48.78125 44.1875 
Q 44.96875 46.296875 41.140625 47.34375 
Q 37.3125 48.390625 33.40625 48.390625 
Q 24.65625 48.390625 19.8125 42.84375 
Q 14.984375 37.3125 14.984375 27.296875 
Q 14.984375 17.28125 19.8125 11.734375 
Q 24.65625 6.203125 33.40625 6.203125 
Q 37.3125 6.203125 41.140625 7.25 
Q 44.96875 8.296875 48.78125 10.40625 
L 48.78125 2.09375 
Q 45.015625 0.34375 40.984375 -0.53125 
Q 36.96875 -1.421875 32.421875 -1.421875 
Q 20.0625 -1.421875 12.78125 6.34375 
Q 5.515625 14.109375 5.515625 27.296875 
Q 5.515625 40.671875 12.859375 48.328125 
Q 20.21875 56 33.015625 56 
Q 37.15625 56 41.109375 55.140625 
Q 45.0625 54.296875 48.78125 52.59375 
z
" id="DejaVuSans-63"/>
      <path d="M 56.203125 29.59375 
L 56.203125 25.203125 
L 14.890625 25.203125 
Q 15.484375 15.921875 20.484375 11.0625 
Q 25.484375 6.203125 34.421875 6.203125 
Q 39.59375 6.203125 44.453125 7.46875 
Q 49.3125 8.734375 54.109375 11.28125 
L 54.109375 2.78125 
Q 49.265625 0.734375 44.1875 -0.34375 
Q 39.109375 -1.421875 33.890625 -1.421875 
Q 20.796875 -1.421875 13.15625 6.1875 
Q 5.515625 13.8125 5.515625 26.8125 
Q 5.515625 40.234375 12.765625 48.109375 
Q 20.015625 56 32.328125 56 
Q 43.359375 56 49.78125 48.890625 
Q 56.203125 41.796875 56.203125 29.59375 
z
M 47.21875 32.234375 
Q 47.125 39.59375 43.09375 43.984375 
Q 39.0625 48.390625 32.421875 48.390625 
Q 24.90625 48.390625 20.390625 44.140625 
Q 15.875 39.890625 15.1875 32.171875 
z
" id="DejaVuSans-65"/>
     </defs>
     <g transform="translate(192.305313 316.706687)scale(0.1 -0.1)">
      <use xlink:href="#DejaVuSans-49"/>
      <use x="29.492188" xlink:href="#DejaVuSans-6e"/>
      <use x="92.871094" xlink:href="#DejaVuSans-70"/>
      <use x="156.347656" xlink:href="#DejaVuSans-75"/>
      <use x="219.726562" xlink:href="#DejaVuSans-74"/>
      <use x="258.935547" xlink:href="#DejaVuSans-20"/>
      <use x="290.722656" xlink:href="#DejaVuSans-44"/>
      <use x="367.724609" xlink:href="#DejaVuSans-69"/>
      <use x="395.507812" xlink:href="#DejaVuSans-73"/>
      <use x="447.607422" xlink:href="#DejaVuSans-74"/>
      <use x="486.816406" xlink:href="#DejaVuSans-61"/>
      <use x="548.095703" xlink:href="#DejaVuSans-6e"/>
      <use x="611.474609" xlink:href="#DejaVuSans-63"/>
      <use x="666.455078" xlink:href="#DejaVuSans-65"/>
     </g>
    </g>
   </g>
   <g id="matplotlib.axis_2">
    <g id="ytick_1">
     <g id="line2d_9">
      <defs>
       <path d="M 0 0 
L -3.5 0 
" id="m657567d7cb" style="stroke:#000000;stroke-width:0.8;"/>
      </defs>
      <g>
       <use style="stroke:#000000;stroke-width:0.8;" x="50.14375" xlink:href="#m657567d7cb" y="285.642922"/>
      </g>
     </g>
     <g id="text_10">
      <!-- 0.50 -->
      <defs>
       <path d="M 31.78125 66.40625 
Q 24.171875 66.40625 20.328125 58.90625 
Q 16.5 51.421875 16.5 36.375 
Q 16.5 21.390625 20.328125 13.890625 
Q 24.171875 6.390625 31.78125 6.390625 
Q 39.453125 6.390625 43.28125 13.890625 
Q 47.125 21.390625 47.125 36.375 
Q 47.125 51.421875 43.28125 58.90625 
Q 39.453125 66.40625 31.78125 66.40625 
z
M 31.78125 74.21875 
Q 44.046875 74.21875 50.515625 64.515625 
Q 56.984375 54.828125 56.984375 36.375 
Q 56.984375 17.96875 50.515625 8.265625 
Q 44.046875 -1.421875 31.78125 -1.421875 
Q 19.53125 -1.421875 13.0625 8.265625 
Q 6.59375 17.96875 6.59375 36.375 
Q 6.59375 54.828125 13.0625 64.515625 
Q 19.53125 74.21875 31.78125 74.21875 
z
" id="DejaVuSans-30"/>
       <path d="M 10.6875 12.40625 
L 21 12.40625 
L 21 0 
L 10.6875 0 
z
" id="DejaVuSans-2e"/>
      </defs>
      <g transform="translate(20.878125 289.442141)scale(0.1 -0.1)">
       <use xlink:href="#DejaVuSans-30"/>
       <use x="63.623047" xlink:href="#DejaVuSans-2e"/>
       <use x="95.410156" xlink:href="#DejaVuSans-35"/>
       <use x="159.033203" xlink:href="#DejaVuSans-30"/>
      </g>
     </g>
    </g>
    <g id="ytick_2">
     <g id="line2d_10">
      <g>
       <use style="stroke:#000000;stroke-width:0.8;" x="50.14375" xlink:href="#m657567d7cb" y="229.233764"/>
      </g>
     </g>
     <g id="text_11">
      <!-- 0.55 -->
      <g transform="translate(20.878125 233.032982)scale(0.1 -0.1)">
       <use xlink:href="#DejaVuSans-30"/>
       <use x="63.623047" xlink:href="#DejaVuSans-2e"/>
       <use x="95.410156" xlink:href="#DejaVuSans-35"/>
       <use x="159.033203" xlink:href="#DejaVuSans-35"/>
      </g>
     </g>
    </g>
    <g id="ytick_3">
     <g id="line2d_11">
      <g>
       <use style="stroke:#000000;stroke-width:0.8;" x="50.14375" xlink:href="#m657567d7cb" y="172.824605"/>
      </g>
     </g>
     <g id="text_12">
      <!-- 0.60 -->
      <g transform="translate(20.878125 176.623824)scale(0.1 -0.1)">
       <use xlink:href="#DejaVuSans-30"/>
       <use x="63.623047" xlink:href="#DejaVuSans-2e"/>
       <use x="95.410156" xlink:href="#DejaVuSans-36"/>
       <use x="159.033203" xlink:href="#DejaVuSans-30"/>
      </g>
     </g>
    </g>
    <g id="ytick_4">
     <g id="line2d_12">
      <g>
       <use style="stroke:#000000;stroke-width:0.8;" x="50.14375" xlink:href="#m657567d7cb" y="116.415446"/>
      </g>
     </g>
     <g id="text_13">
      <!-- 0.65 -->
      <g transform="translate(20.878125 120.214665)scale(0.1 -0.1)">
       <use xlink:href="#DejaVuSans-30"/>
       <use x="63.623047" xlink:href="#DejaVuSans-2e"/>
       <use x="95.410156" xlink:href="#DejaVuSans-36"/>
       <use x="159.033203" xlink:href="#DejaVuSans-35"/>
      </g>
     </g>
    </g>
    <g id="ytick_5">
     <g id="line2d_13">
      <g>
       <use style="stroke:#000000;stroke-width:0.8;" x="50.14375" xlink:href="#m657567d7cb" y="60.006288"/>
      </g>
     </g>
     <g id="text_14">
      <!-- 0.70 -->
      <g transform="translate(20.878125 63.805506)scale(0.1 -0.1)">
       <use xlink:href="#DejaVuSans-30"/>
       <use x="63.623047" xlink:href="#DejaVuSans-2e"/>
       <use x="95.410156" xlink:href="#DejaVuSans-37"/>
       <use x="159.033203" xlink:href="#DejaVuSans-30"/>
      </g>
     </g>
    </g>
    <g id="text_15">
     <!-- Correct Class Probability -->
     <defs>
      <path d="M 64.40625 67.28125 
L 64.40625 56.890625 
Q 59.421875 61.53125 53.78125 63.8125 
Q 48.140625 66.109375 41.796875 66.109375 
Q 29.296875 66.109375 22.65625 58.46875 
Q 16.015625 50.828125 16.015625 36.375 
Q 16.015625 21.96875 22.65625 14.328125 
Q 29.296875 6.6875 41.796875 6.6875 
Q 48.140625 6.6875 53.78125 8.984375 
Q 59.421875 11.28125 64.40625 15.921875 
L 64.40625 5.609375 
Q 59.234375 2.09375 53.4375 0.328125 
Q 47.65625 -1.421875 41.21875 -1.421875 
Q 24.65625 -1.421875 15.125 8.703125 
Q 5.609375 18.84375 5.609375 36.375 
Q 5.609375 53.953125 15.125 64.078125 
Q 24.65625 74.21875 41.21875 74.21875 
Q 47.75 74.21875 53.53125 72.484375 
Q 59.328125 70.75 64.40625 67.28125 
z
" id="DejaVuSans-43"/>
      <path d="M 30.609375 48.390625 
Q 23.390625 48.390625 19.1875 42.75 
Q 14.984375 37.109375 14.984375 27.296875 
Q 14.984375 17.484375 19.15625 11.84375 
Q 23.34375 6.203125 30.609375 6.203125 
Q 37.796875 6.203125 41.984375 11.859375 
Q 46.1875 17.53125 46.1875 27.296875 
Q 46.1875 37.015625 41.984375 42.703125 
Q 37.796875 48.390625 30.609375 48.390625 
z
M 30.609375 56 
Q 42.328125 56 49.015625 48.375 
Q 55.71875 40.765625 55.71875 27.296875 
Q 55.71875 13.875 49.015625 6.21875 
Q 42.328125 -1.421875 30.609375 -1.421875 
Q 18.84375 -1.421875 12.171875 6.21875 
Q 5.515625 13.875 5.515625 27.296875 
Q 5.515625 40.765625 12.171875 48.375 
Q 18.84375 56 30.609375 56 
z
" id="DejaVuSans-6f"/>
      <path d="M 41.109375 46.296875 
Q 39.59375 47.171875 37.8125 47.578125 
Q 36.03125 48 33.890625 48 
Q 26.265625 48 22.1875 43.046875 
Q 18.109375 38.09375 18.109375 28.8125 
L 18.109375 0 
L 9.078125 0 
L 9.078125 54.6875 
L 18.109375 54.6875 
L 18.109375 46.1875 
Q 20.953125 51.171875 25.484375 53.578125 
Q 30.03125 56 36.53125 56 
Q 37.453125 56 38.578125 55.875 
Q 39.703125 55.765625 41.0625 55.515625 
z
" id="DejaVuSans-72"/>
      <path d="M 9.421875 75.984375 
L 18.40625 75.984375 
L 18.40625 0 
L 9.421875 0 
z
" id="DejaVuSans-6c"/>
      <path d="M 19.671875 64.796875 
L 19.671875 37.40625 
L 32.078125 37.40625 
Q 38.96875 37.40625 42.71875 40.96875 
Q 46.484375 44.53125 46.484375 51.125 
Q 46.484375 57.671875 42.71875 61.234375 
Q 38.96875 64.796875 32.078125 64.796875 
z
M 9.8125 72.90625 
L 32.078125 72.90625 
Q 44.34375 72.90625 50.609375 67.359375 
Q 56.890625 61.8125 56.890625 51.125 
Q 56.890625 40.328125 50.609375 34.8125 
Q 44.34375 29.296875 32.078125 29.296875 
L 19.671875 29.296875 
L 19.671875 0 
L 9.8125 0 
z
" id="DejaVuSans-50"/>
      <path d="M 48.6875 27.296875 
Q 48.6875 37.203125 44.609375 42.84375 
Q 40.53125 48.484375 33.40625 48.484375 
Q 26.265625 48.484375 22.1875 42.84375 
Q 18.109375 37.203125 18.109375 27.296875 
Q 18.109375 17.390625 22.1875 11.75 
Q 26.265625 6.109375 33.40625 6.109375 
Q 40.53125 6.109375 44.609375 11.75 
Q 48.6875 17.390625 48.6875 27.296875 
z
M 18.109375 46.390625 
Q 20.953125 51.265625 25.265625 53.625 
Q 29.59375 56 35.59375 56 
Q 45.5625 56 51.78125 48.09375 
Q 58.015625 40.1875 58.015625 27.296875 
Q 58.015625 14.40625 51.78125 6.484375 
Q 45.5625 -1.421875 35.59375 -1.421875 
Q 29.59375 -1.421875 25.265625 0.953125 
Q 20.953125 3.328125 18.109375 8.203125 
L 18.109375 0 
L 9.078125 0 
L 9.078125 75.984375 
L 18.109375 75.984375 
z
" id="DejaVuSans-62"/>
      <path d="M 32.171875 -5.078125 
Q 28.375 -14.84375 24.75 -17.8125 
Q 21.140625 -20.796875 15.09375 -20.796875 
L 7.90625 -20.796875 
L 7.90625 -13.28125 
L 13.1875 -13.28125 
Q 16.890625 -13.28125 18.9375 -11.515625 
Q 21 -9.765625 23.484375 -3.21875 
L 25.09375 0.875 
L 2.984375 54.6875 
L 12.5 54.6875 
L 29.59375 11.921875 
L 46.6875 54.6875 
L 56.203125 54.6875 
z
" id="DejaVuSans-79"/>
     </defs>
     <g transform="translate(14.798438 216.778031)rotate(-90)scale(0.1 -0.1)">
      <use xlink:href="#DejaVuSans-43"/>
      <use x="69.824219" xlink:href="#DejaVuSans-6f"/>
      <use x="131.005859" xlink:href="#DejaVuSans-72"/>
      <use x="172.103516" xlink:href="#DejaVuSans-72"/>
      <use x="213.185547" xlink:href="#DejaVuSans-65"/>
      <use x="274.708984" xlink:href="#DejaVuSans-63"/>
      <use x="329.689453" xlink:href="#DejaVuSans-74"/>
      <use x="368.898438" xlink:href="#DejaVuSans-20"/>
      <use x="400.685547" xlink:href="#DejaVuSans-43"/>
      <use x="470.509766" xlink:href="#DejaVuSans-6c"/>
      <use x="498.292969" xlink:href="#DejaVuSans-61"/>
      <use x="559.572266" xlink:href="#DejaVuSans-73"/>
      <use x="611.671875" xlink:href="#DejaVuSans-73"/>
      <use x="663.771484" xlink:href="#DejaVuSans-20"/>
      <use x="695.558594" xlink:href="#DejaVuSans-50"/>
      <use x="755.845703" xlink:href="#DejaVuSans-72"/>
      <use x="796.927734" xlink:href="#DejaVuSans-6f"/>
      <use x="858.109375" xlink:href="#DejaVuSans-62"/>
      <use x="921.585938" xlink:href="#DejaVuSans-61"/>
      <use x="982.865234" xlink:href="#DejaVuSans-62"/>
      <use x="1046.341797" xlink:href="#DejaVuSans-69"/>
      <use x="1074.125" xlink:href="#DejaVuSans-6c"/>
      <use x="1101.908203" xlink:href="#DejaVuSans-69"/>
      <use x="1129.691406" xlink:href="#DejaVuSans-74"/>
      <use x="1168.900391" xlink:href="#DejaVuSans-79"/>
     </g>
    </g>
   </g>
   <g id="line2d_14">
    <path clip-path="url(#p020553db6f)" d="M 50.14375 19.989042 
L 53.751023 20.607843 
L 57.358295 21.226643 
L 60.965568 21.845444 
L 64.572841 22.464244 
L 68.180114 23.083045 
L 71.787386 23.701845 
L 75.394659 24.320646 
L 79.001932 24.939447 
L 82.609205 25.558247 
L 86.216477 26.177048 
L 89.82375 26.795848 
L 93.431023 27.414649 
L 97.038295 28.03345 
L 100.645568 28.65225 
L 104.252841 29.271051 
L 107.860114 29.889851 
L 111.467386 30.508652 
L 115.074659 31.127453 
L 118.681932 31.746253 
L 122.289205 32.365054 
L 125.896477 32.983854 
L 129.50375 33.602655 
L 133.111023 34.221456 
L 136.718295 34.840256 
L 140.325568 35.459057 
L 143.932841 36.077857 
L 147.540114 36.696658 
L 151.147386 37.315459 
L 154.754659 37.934259 
L 158.361932 38.55306 
L 161.969205 39.17186 
L 165.576477 39.790661 
L 169.18375 40.409462 
L 172.791023 41.028262 
L 176.398295 41.647063 
L 180.005568 42.265863 
L 183.612841 42.884664 
L 187.220114 43.503464 
L 190.827386 44.122265 
L 194.434659 44.741066 
L 198.041932 45.359866 
L 201.649205 45.978667 
L 205.256477 46.597467 
L 208.86375 47.216268 
L 212.471023 47.835069 
L 216.078295 48.453869 
L 219.685568 49.07267 
L 223.292841 49.69147 
L 226.900114 50.310271 
L 230.507386 50.929072 
L 234.114659 51.547872 
L 237.721932 52.166673 
L 241.329205 52.785473 
L 244.936477 53.404274 
L 248.54375 54.023075 
L 252.151023 54.641875 
L 255.758295 55.260676 
L 259.365568 55.879476 
L 262.972841 56.498277 
L 266.580114 57.117078 
L 270.187386 57.735878 
L 273.794659 58.354679 
L 277.401932 58.973479 
L 281.009205 59.59228 
L 284.616477 60.21108 
L 288.22375 60.829881 
L 291.831023 61.448682 
L 295.438295 62.067482 
L 299.045568 62.686283 
L 302.652841 63.305083 
L 306.260114 63.923884 
L 309.867386 64.542685 
L 313.474659 65.161485 
L 317.081932 65.780286 
L 320.689205 66.399086 
L 324.296477 67.017887 
L 327.90375 67.636688 
L 331.511023 68.255488 
L 335.118295 68.874289 
L 338.725568 69.493089 
L 342.332841 70.11189 
L 345.940114 70.730691 
L 349.547386 71.349491 
L 353.154659 71.968292 
L 356.761932 72.587092 
L 360.369205 73.205893 
L 363.976477 73.824694 
L 367.58375 74.443494 
L 371.191023 75.062295 
L 374.798295 75.681095 
L 378.405568 76.299896 
L 382.012841 76.918697 
L 385.620114 77.537497 
L 389.227386 78.156298 
L 392.834659 78.775098 
L 396.441932 79.393899 
L 400.049205 80.012699 
L 403.656477 80.6315 
L 407.26375 81.250301 
" style="fill:none;stroke:#c0c0c0;stroke-linecap:square;stroke-width:3;"/>
   </g>
   <g id="patch_3">
    <path d="M 50.14375 288.430125 
L 50.14375 22.318125 
" style="fill:none;stroke:#000000;stroke-linecap:square;stroke-linejoin:miter;stroke-width:0.8;"/>
   </g>
   <g id="patch_4">
    <path d="M 407.26375 288.430125 
L 407.26375 22.318125 
" style="fill:none;stroke:#000000;stroke-linecap:square;stroke-linejoin:miter;stroke-width:0.8;"/>
   </g>
   <g id="patch_5">
    <path d="M 50.14375 288.430125 
L 407.26375 288.430125 
" style="fill:none;stroke:#000000;stroke-linecap:square;stroke-linejoin:miter;stroke-width:0.8;"/>
   </g>
   <g id="patch_6">
    <path d="M 50.14375 22.318125 
L 407.26375 22.318125 
" style="fill:none;stroke:#000000;stroke-linecap:square;stroke-linejoin:miter;stroke-width:0.8;"/>
   </g>
   <g id="text_16">
    <!-- Input Distance vs Correct Class Probability -->
    <defs>
     <path d="M 2.984375 54.6875 
L 12.5 54.6875 
L 29.59375 8.796875 
L 46.6875 54.6875 
L 56.203125 54.6875 
L 35.6875 0 
L 23.484375 0 
z
" id="DejaVuSans-76"/>
    </defs>
    <g transform="translate(100.850313 16.318125)scale(0.12 -0.12)">
     <use xlink:href="#DejaVuSans-49"/>
     <use x="29.492188" xlink:href="#DejaVuSans-6e"/>
     <use x="92.871094" xlink:href="#DejaVuSans-70"/>
     <use x="156.347656" xlink:href="#DejaVuSans-75"/>
     <use x="219.726562" xlink:href="#DejaVuSans-74"/>
     <use x="258.935547" xlink:href="#DejaVuSans-20"/>
     <use x="290.722656" xlink:href="#DejaVuSans-44"/>
     <use x="367.724609" xlink:href="#DejaVuSans-69"/>
     <use x="395.507812" xlink:href="#DejaVuSans-73"/>
     <use x="447.607422" xlink:href="#DejaVuSans-74"/>
     <use x="486.816406" xlink:href="#DejaVuSans-61"/>
     <use x="548.095703" xlink:href="#DejaVuSans-6e"/>
     <use x="611.474609" xlink:href="#DejaVuSans-63"/>
     <use x="666.455078" xlink:href="#DejaVuSans-65"/>
     <use x="727.978516" xlink:href="#DejaVuSans-20"/>
     <use x="759.765625" xlink:href="#DejaVuSans-76"/>
     <use x="818.945312" xlink:href="#DejaVuSans-73"/>
     <use x="871.044922" xlink:href="#DejaVuSans-20"/>
     <use x="902.832031" xlink:href="#DejaVuSans-43"/>
     <use x="972.65625" xlink:href="#DejaVuSans-6f"/>
     <use x="1033.837891" xlink:href="#DejaVuSans-72"/>
     <use x="1074.935547" xlink:href="#DejaVuSans-72"/>
     <use x="1116.017578" xlink:href="#DejaVuSans-65"/>
     <use x="1177.541016" xlink:href="#DejaVuSans-63"/>
     <use x="1232.521484" xlink:href="#DejaVuSans-74"/>
     <use x="1271.730469" xlink:href="#DejaVuSans-20"/>
     <use x="1303.517578" xlink:href="#DejaVuSans-43"/>
     <use x="1373.341797" xlink:href="#DejaVuSans-6c"/>
     <use x="1401.125" xlink:href="#DejaVuSans-61"/>
     <use x="1462.404297" xlink:href="#DejaVuSans-73"/>
     <use x="1514.503906" xlink:href="#DejaVuSans-73"/>
     <use x="1566.603516" xlink:href="#DejaVuSans-20"/>
     <use x="1598.390625" xlink:href="#DejaVuSans-50"/>
     <use x="1658.677734" xlink:href="#DejaVuSans-72"/>
     <use x="1699.759766" xlink:href="#DejaVuSans-6f"/>
     <use x="1760.941406" xlink:href="#DejaVuSans-62"/>
     <use x="1824.417969" xlink:href="#DejaVuSans-61"/>
     <use x="1885.697266" xlink:href="#DejaVuSans-62"/>
     <use x="1949.173828" xlink:href="#DejaVuSans-69"/>
     <use x="1976.957031" xlink:href="#DejaVuSans-6c"/>
     <use x="2004.740234" xlink:href="#DejaVuSans-69"/>
     <use x="2032.523438" xlink:href="#DejaVuSans-74"/>
     <use x="2071.732422" xlink:href="#DejaVuSans-79"/>
    </g>
   </g>
  </g>
 </g>
 <defs>
  <clipPath id="p020553db6f">
   <rect height="266.112" width="357.12" x="50.14375" y="22.318125"/>
  </clipPath>
 </defs>
</svg>
