<?xml version="1.0" encoding="utf-8" standalone="no"?>
<!DOCTYPE svg PUBLIC "-//W3C//DTD SVG 1.1//EN"
  "http://www.w3.org/Graphics/SVG/1.1/DTD/svg11.dtd">
<!-- Created with matplotlib (http://matplotlib.org/) -->
<svg height="325pt" version="1.1" viewBox="0 0 440 325" width="440pt" xmlns="http://www.w3.org/2000/svg" xmlns:xlink="http://www.w3.org/1999/xlink">
 <defs>
  <style type="text/css">
*{stroke-linecap:butt;stroke-linejoin:round;}
  </style>
 </defs>
 <g id="figure_1">
  <g id="patch_1">
   <path d="M 0 325.986375 
L 440.235625 325.986375 
L 440.235625 0 
L 0 0 
z
" style="fill:#ffffff;"/>
  </g>
  <g id="axes_1">
   <g id="patch_2">
    <path d="M 72.415625 288.430125 
L 429.535625 288.430125 
L 429.535625 22.318125 
L 72.415625 22.318125 
z
" style="fill:#ffffff;"/>
   </g>
   <g id="PathCollection_1">
    <defs>
     <path d="M 0 3 
C 0.795609 3 1.55874 2.683901 2.12132 2.12132 
C 2.683901 1.55874 3 0.795609 3 0 
C 3 -0.795609 2.683901 -1.55874 2.12132 -2.12132 
C 1.55874 -2.683901 0.795609 -3 0 -3 
C -0.795609 -3 -1.55874 -2.683901 -2.12132 -2.12132 
C -2.683901 -1.55874 -3 -0.795609 -3 0 
C -3 0.795609 -2.683901 1.55874 -2.12132 2.12132 
C -1.55874 2.683901 -0.795609 3 0 3 
z
" id="m6f901a9261" style="stroke:#000000;"/>
    </defs>
    <g clip-path="url(#p067ef7036f)">
     <use style="stroke:#000000;" x="72.415625" xlink:href="#m6f901a9261" y="177.40153"/>
     <use style="stroke:#000000;" x="76.022898" xlink:href="#m6f901a9261" y="176.248878"/>
     <use style="stroke:#000000;" x="79.63017" xlink:href="#m6f901a9261" y="175.580874"/>
     <use style="stroke:#000000;" x="83.237443" xlink:href="#m6f901a9261" y="175.342086"/>
     <use style="stroke:#000000;" x="86.844716" xlink:href="#m6f901a9261" y="166.929623"/>
     <use style="stroke:#000000;" x="90.451989" xlink:href="#m6f901a9261" y="161.235465"/>
     <use style="stroke:#000000;" x="94.059261" xlink:href="#m6f901a9261" y="153.733232"/>
     <use style="stroke:#000000;" x="97.666534" xlink:href="#m6f901a9261" y="150.514063"/>
     <use style="stroke:#000000;" x="101.273807" xlink:href="#m6f901a9261" y="153.215652"/>
     <use style="stroke:#000000;" x="104.88108" xlink:href="#m6f901a9261" y="162.052355"/>
     <use style="stroke:#000000;" x="108.488352" xlink:href="#m6f901a9261" y="162.469409"/>
     <use style="stroke:#000000;" x="112.095625" xlink:href="#m6f901a9261" y="159.582705"/>
     <use style="stroke:#000000;" x="115.702898" xlink:href="#m6f901a9261" y="155.271182"/>
     <use style="stroke:#000000;" x="119.31017" xlink:href="#m6f901a9261" y="158.190845"/>
     <use style="stroke:#000000;" x="122.917443" xlink:href="#m6f901a9261" y="160.070317"/>
     <use style="stroke:#000000;" x="126.524716" xlink:href="#m6f901a9261" y="166.042903"/>
     <use style="stroke:#000000;" x="130.131989" xlink:href="#m6f901a9261" y="172.489766"/>
     <use style="stroke:#000000;" x="133.739261" xlink:href="#m6f901a9261" y="179.129041"/>
     <use style="stroke:#000000;" x="137.346534" xlink:href="#m6f901a9261" y="178.302144"/>
     <use style="stroke:#000000;" x="140.953807" xlink:href="#m6f901a9261" y="175.387652"/>
     <use style="stroke:#000000;" x="144.56108" xlink:href="#m6f901a9261" y="165.850044"/>
     <use style="stroke:#000000;" x="148.168352" xlink:href="#m6f901a9261" y="163.57275"/>
     <use style="stroke:#000000;" x="151.775625" xlink:href="#m6f901a9261" y="161.065026"/>
     <use style="stroke:#000000;" x="155.382898" xlink:href="#m6f901a9261" y="149.305921"/>
     <use style="stroke:#000000;" x="158.99017" xlink:href="#m6f901a9261" y="146.412647"/>
     <use style="stroke:#000000;" x="162.597443" xlink:href="#m6f901a9261" y="153.371219"/>
     <use style="stroke:#000000;" x="166.204716" xlink:href="#m6f901a9261" y="148.421018"/>
     <use style="stroke:#000000;" x="169.811989" xlink:href="#m6f901a9261" y="141.932278"/>
     <use style="stroke:#000000;" x="173.419261" xlink:href="#m6f901a9261" y="151.244209"/>
     <use style="stroke:#000000;" x="177.026534" xlink:href="#m6f901a9261" y="151.078131"/>
     <use style="stroke:#000000;" x="180.633807" xlink:href="#m6f901a9261" y="166.444526"/>
     <use style="stroke:#000000;" x="184.24108" xlink:href="#m6f901a9261" y="176.279069"/>
     <use style="stroke:#000000;" x="187.848352" xlink:href="#m6f901a9261" y="191.67367"/>
     <use style="stroke:#000000;" x="191.455625" xlink:href="#m6f901a9261" y="200.156412"/>
     <use style="stroke:#000000;" x="195.062898" xlink:href="#m6f901a9261" y="212.066667"/>
     <use style="stroke:#000000;" x="198.67017" xlink:href="#m6f901a9261" y="214.14663"/>
     <use style="stroke:#000000;" x="202.277443" xlink:href="#m6f901a9261" y="219.356082"/>
     <use style="stroke:#000000;" x="205.884716" xlink:href="#m6f901a9261" y="228.58605"/>
     <use style="stroke:#000000;" x="209.491989" xlink:href="#m6f901a9261" y="243.024269"/>
     <use style="stroke:#000000;" x="213.099261" xlink:href="#m6f901a9261" y="243.948197"/>
     <use style="stroke:#000000;" x="216.706534" xlink:href="#m6f901a9261" y="251.908243"/>
     <use style="stroke:#000000;" x="220.313807" xlink:href="#m6f901a9261" y="236.556496"/>
     <use style="stroke:#000000;" x="223.92108" xlink:href="#m6f901a9261" y="242.532352"/>
     <use style="stroke:#000000;" x="227.528352" xlink:href="#m6f901a9261" y="251.917524"/>
     <use style="stroke:#000000;" x="231.135625" xlink:href="#m6f901a9261" y="260.948399"/>
     <use style="stroke:#000000;" x="234.742898" xlink:href="#m6f901a9261" y="256.668772"/>
     <use style="stroke:#000000;" x="238.35017" xlink:href="#m6f901a9261" y="259.075301"/>
     <use style="stroke:#000000;" x="241.957443" xlink:href="#m6f901a9261" y="276.067843"/>
     <use style="stroke:#000000;" x="245.564716" xlink:href="#m6f901a9261" y="262.50944"/>
     <use style="stroke:#000000;" x="249.171989" xlink:href="#m6f901a9261" y="263.868062"/>
     <use style="stroke:#000000;" x="252.779261" xlink:href="#m6f901a9261" y="256.01634"/>
     <use style="stroke:#000000;" x="256.386534" xlink:href="#m6f901a9261" y="252.859622"/>
     <use style="stroke:#000000;" x="259.993807" xlink:href="#m6f901a9261" y="269.271184"/>
     <use style="stroke:#000000;" x="263.60108" xlink:href="#m6f901a9261" y="278.680397"/>
     <use style="stroke:#000000;" x="267.208352" xlink:href="#m6f901a9261" y="281.12813"/>
     <use style="stroke:#000000;" x="270.815625" xlink:href="#m6f901a9261" y="284.847267"/>
     <use style="stroke:#000000;" x="274.422898" xlink:href="#m6f901a9261" y="288.430125"/>
     <use style="stroke:#000000;" x="278.03017" xlink:href="#m6f901a9261" y="275.528879"/>
     <use style="stroke:#000000;" x="281.637443" xlink:href="#m6f901a9261" y="273.117402"/>
     <use style="stroke:#000000;" x="285.244716" xlink:href="#m6f901a9261" y="258.36394"/>
     <use style="stroke:#000000;" x="288.851989" xlink:href="#m6f901a9261" y="261.226939"/>
     <use style="stroke:#000000;" x="292.459261" xlink:href="#m6f901a9261" y="250.791959"/>
     <use style="stroke:#000000;" x="296.066534" xlink:href="#m6f901a9261" y="233.537426"/>
     <use style="stroke:#000000;" x="299.673807" xlink:href="#m6f901a9261" y="215.098065"/>
     <use style="stroke:#000000;" x="303.28108" xlink:href="#m6f901a9261" y="214.214587"/>
     <use style="stroke:#000000;" x="306.888352" xlink:href="#m6f901a9261" y="200.559545"/>
     <use style="stroke:#000000;" x="310.495625" xlink:href="#m6f901a9261" y="177.883887"/>
     <use style="stroke:#000000;" x="314.102898" xlink:href="#m6f901a9261" y="186.858629"/>
     <use style="stroke:#000000;" x="317.71017" xlink:href="#m6f901a9261" y="174.083011"/>
     <use style="stroke:#000000;" x="321.317443" xlink:href="#m6f901a9261" y="172.61011"/>
     <use style="stroke:#000000;" x="324.924716" xlink:href="#m6f901a9261" y="163.492576"/>
     <use style="stroke:#000000;" x="328.531989" xlink:href="#m6f901a9261" y="156.315175"/>
     <use style="stroke:#000000;" x="332.139261" xlink:href="#m6f901a9261" y="149.32739"/>
     <use style="stroke:#000000;" x="335.746534" xlink:href="#m6f901a9261" y="139.500228"/>
     <use style="stroke:#000000;" x="339.353807" xlink:href="#m6f901a9261" y="131.121422"/>
     <use style="stroke:#000000;" x="342.96108" xlink:href="#m6f901a9261" y="114.515771"/>
     <use style="stroke:#000000;" x="346.568352" xlink:href="#m6f901a9261" y="121.439987"/>
     <use style="stroke:#000000;" x="350.175625" xlink:href="#m6f901a9261" y="104.503717"/>
     <use style="stroke:#000000;" x="353.782898" xlink:href="#m6f901a9261" y="106.371531"/>
     <use style="stroke:#000000;" x="357.39017" xlink:href="#m6f901a9261" y="100.281034"/>
     <use style="stroke:#000000;" x="360.997443" xlink:href="#m6f901a9261" y="78.736419"/>
     <use style="stroke:#000000;" x="364.604716" xlink:href="#m6f901a9261" y="66.042567"/>
     <use style="stroke:#000000;" x="368.211989" xlink:href="#m6f901a9261" y="59.505523"/>
     <use style="stroke:#000000;" x="371.819261" xlink:href="#m6f901a9261" y="48.443382"/>
     <use style="stroke:#000000;" x="375.426534" xlink:href="#m6f901a9261" y="31.937249"/>
     <use style="stroke:#000000;" x="379.033807" xlink:href="#m6f901a9261" y="37.881349"/>
     <use style="stroke:#000000;" x="382.64108" xlink:href="#m6f901a9261" y="33.744123"/>
     <use style="stroke:#000000;" x="386.248352" xlink:href="#m6f901a9261" y="39.259734"/>
     <use style="stroke:#000000;" x="389.855625" xlink:href="#m6f901a9261" y="42.4072"/>
     <use style="stroke:#000000;" x="393.462898" xlink:href="#m6f901a9261" y="40.863155"/>
     <use style="stroke:#000000;" x="397.07017" xlink:href="#m6f901a9261" y="40.26884"/>
     <use style="stroke:#000000;" x="400.677443" xlink:href="#m6f901a9261" y="30.507147"/>
     <use style="stroke:#000000;" x="404.284716" xlink:href="#m6f901a9261" y="34.180662"/>
     <use style="stroke:#000000;" x="407.891989" xlink:href="#m6f901a9261" y="22.318125"/>
     <use style="stroke:#000000;" x="411.499261" xlink:href="#m6f901a9261" y="24.201091"/>
     <use style="stroke:#000000;" x="415.106534" xlink:href="#m6f901a9261" y="32.395761"/>
     <use style="stroke:#000000;" x="418.713807" xlink:href="#m6f901a9261" y="34.240485"/>
     <use style="stroke:#000000;" x="422.32108" xlink:href="#m6f901a9261" y="32.078532"/>
     <use style="stroke:#000000;" x="425.928352" xlink:href="#m6f901a9261" y="40.95451"/>
     <use style="stroke:#000000;" x="429.535625" xlink:href="#m6f901a9261" y="61.859077"/>
    </g>
   </g>
   <g id="matplotlib.axis_1">
    <g id="xtick_1">
     <g id="line2d_1">
      <defs>
       <path d="M 0 0 
L 0 3.5 
" id="me953ad2fc1" style="stroke:#000000;stroke-width:0.8;"/>
      </defs>
      <g>
       <use style="stroke:#000000;stroke-width:0.8;" x="72.415625" xlink:href="#me953ad2fc1" y="288.430125"/>
      </g>
     </g>
     <g id="text_1">
      <!-- 0 -->
      <defs>
       <path d="M 31.78125 66.40625 
Q 24.171875 66.40625 20.328125 58.90625 
Q 16.5 51.421875 16.5 36.375 
Q 16.5 21.390625 20.328125 13.890625 
Q 24.171875 6.390625 31.78125 6.390625 
Q 39.453125 6.390625 43.28125 13.890625 
Q 47.125 21.390625 47.125 36.375 
Q 47.125 51.421875 43.28125 58.90625 
Q 39.453125 66.40625 31.78125 66.40625 
z
M 31.78125 74.21875 
Q 44.046875 74.21875 50.515625 64.515625 
Q 56.984375 54.828125 56.984375 36.375 
Q 56.984375 17.96875 50.515625 8.265625 
Q 44.046875 -1.421875 31.78125 -1.421875 
Q 19.53125 -1.421875 13.0625 8.265625 
Q 6.59375 17.96875 6.59375 36.375 
Q 6.59375 54.828125 13.0625 64.515625 
Q 19.53125 74.21875 31.78125 74.21875 
z
" id="DejaVuSans-30"/>
      </defs>
      <g transform="translate(69.234375 303.028562)scale(0.1 -0.1)">
       <use xlink:href="#DejaVuSans-30"/>
      </g>
     </g>
    </g>
    <g id="xtick_2">
     <g id="line2d_2">
      <g>
       <use style="stroke:#000000;stroke-width:0.8;" x="144.56108" xlink:href="#me953ad2fc1" y="288.430125"/>
      </g>
     </g>
     <g id="text_2">
      <!-- 20 -->
      <defs>
       <path d="M 19.1875 8.296875 
L 53.609375 8.296875 
L 53.609375 0 
L 7.328125 0 
L 7.328125 8.296875 
Q 12.9375 14.109375 22.625 23.890625 
Q 32.328125 33.6875 34.8125 36.53125 
Q 39.546875 41.84375 41.421875 45.53125 
Q 43.3125 49.21875 43.3125 52.78125 
Q 43.3125 58.59375 39.234375 62.25 
Q 35.15625 65.921875 28.609375 65.921875 
Q 23.96875 65.921875 18.8125 64.3125 
Q 13.671875 62.703125 7.8125 59.421875 
L 7.8125 69.390625 
Q 13.765625 71.78125 18.9375 73 
Q 24.125 74.21875 28.421875 74.21875 
Q 39.75 74.21875 46.484375 68.546875 
Q 53.21875 62.890625 53.21875 53.421875 
Q 53.21875 48.921875 51.53125 44.890625 
Q 49.859375 40.875 45.40625 35.40625 
Q 44.1875 33.984375 37.640625 27.21875 
Q 31.109375 20.453125 19.1875 8.296875 
z
" id="DejaVuSans-32"/>
      </defs>
      <g transform="translate(138.19858 303.028562)scale(0.1 -0.1)">
       <use xlink:href="#DejaVuSans-32"/>
       <use x="63.623047" xlink:href="#DejaVuSans-30"/>
      </g>
     </g>
    </g>
    <g id="xtick_3">
     <g id="line2d_3">
      <g>
       <use style="stroke:#000000;stroke-width:0.8;" x="216.706534" xlink:href="#me953ad2fc1" y="288.430125"/>
      </g>
     </g>
     <g id="text_3">
      <!-- 40 -->
      <defs>
       <path d="M 37.796875 64.3125 
L 12.890625 25.390625 
L 37.796875 25.390625 
z
M 35.203125 72.90625 
L 47.609375 72.90625 
L 47.609375 25.390625 
L 58.015625 25.390625 
L 58.015625 17.1875 
L 47.609375 17.1875 
L 47.609375 0 
L 37.796875 0 
L 37.796875 17.1875 
L 4.890625 17.1875 
L 4.890625 26.703125 
z
" id="DejaVuSans-34"/>
      </defs>
      <g transform="translate(210.344034 303.028562)scale(0.1 -0.1)">
       <use xlink:href="#DejaVuSans-34"/>
       <use x="63.623047" xlink:href="#DejaVuSans-30"/>
      </g>
     </g>
    </g>
    <g id="xtick_4">
     <g id="line2d_4">
      <g>
       <use style="stroke:#000000;stroke-width:0.8;" x="288.851989" xlink:href="#me953ad2fc1" y="288.430125"/>
      </g>
     </g>
     <g id="text_4">
      <!-- 60 -->
      <defs>
       <path d="M 33.015625 40.375 
Q 26.375 40.375 22.484375 35.828125 
Q 18.609375 31.296875 18.609375 23.390625 
Q 18.609375 15.53125 22.484375 10.953125 
Q 26.375 6.390625 33.015625 6.390625 
Q 39.65625 6.390625 43.53125 10.953125 
Q 47.40625 15.53125 47.40625 23.390625 
Q 47.40625 31.296875 43.53125 35.828125 
Q 39.65625 40.375 33.015625 40.375 
z
M 52.59375 71.296875 
L 52.59375 62.3125 
Q 48.875 64.0625 45.09375 64.984375 
Q 41.3125 65.921875 37.59375 65.921875 
Q 27.828125 65.921875 22.671875 59.328125 
Q 17.53125 52.734375 16.796875 39.40625 
Q 19.671875 43.65625 24.015625 45.921875 
Q 28.375 48.1875 33.59375 48.1875 
Q 44.578125 48.1875 50.953125 41.515625 
Q 57.328125 34.859375 57.328125 23.390625 
Q 57.328125 12.15625 50.6875 5.359375 
Q 44.046875 -1.421875 33.015625 -1.421875 
Q 20.359375 -1.421875 13.671875 8.265625 
Q 6.984375 17.96875 6.984375 36.375 
Q 6.984375 53.65625 15.1875 63.9375 
Q 23.390625 74.21875 37.203125 74.21875 
Q 40.921875 74.21875 44.703125 73.484375 
Q 48.484375 72.75 52.59375 71.296875 
z
" id="DejaVuSans-36"/>
      </defs>
      <g transform="translate(282.489489 303.028562)scale(0.1 -0.1)">
       <use xlink:href="#DejaVuSans-36"/>
       <use x="63.623047" xlink:href="#DejaVuSans-30"/>
      </g>
     </g>
    </g>
    <g id="xtick_5">
     <g id="line2d_5">
      <g>
       <use style="stroke:#000000;stroke-width:0.8;" x="360.997443" xlink:href="#me953ad2fc1" y="288.430125"/>
      </g>
     </g>
     <g id="text_5">
      <!-- 80 -->
      <defs>
       <path d="M 31.78125 34.625 
Q 24.75 34.625 20.71875 30.859375 
Q 16.703125 27.09375 16.703125 20.515625 
Q 16.703125 13.921875 20.71875 10.15625 
Q 24.75 6.390625 31.78125 6.390625 
Q 38.8125 6.390625 42.859375 10.171875 
Q 46.921875 13.96875 46.921875 20.515625 
Q 46.921875 27.09375 42.890625 30.859375 
Q 38.875 34.625 31.78125 34.625 
z
M 21.921875 38.8125 
Q 15.578125 40.375 12.03125 44.71875 
Q 8.5 49.078125 8.5 55.328125 
Q 8.5 64.0625 14.71875 69.140625 
Q 20.953125 74.21875 31.78125 74.21875 
Q 42.671875 74.21875 48.875 69.140625 
Q 55.078125 64.0625 55.078125 55.328125 
Q 55.078125 49.078125 51.53125 44.71875 
Q 48 40.375 41.703125 38.8125 
Q 48.828125 37.15625 52.796875 32.3125 
Q 56.78125 27.484375 56.78125 20.515625 
Q 56.78125 9.90625 50.3125 4.234375 
Q 43.84375 -1.421875 31.78125 -1.421875 
Q 19.734375 -1.421875 13.25 4.234375 
Q 6.78125 9.90625 6.78125 20.515625 
Q 6.78125 27.484375 10.78125 32.3125 
Q 14.796875 37.15625 21.921875 38.8125 
z
M 18.3125 54.390625 
Q 18.3125 48.734375 21.84375 45.5625 
Q 25.390625 42.390625 31.78125 42.390625 
Q 38.140625 42.390625 41.71875 45.5625 
Q 45.3125 48.734375 45.3125 54.390625 
Q 45.3125 60.0625 41.71875 63.234375 
Q 38.140625 66.40625 31.78125 66.40625 
Q 25.390625 66.40625 21.84375 63.234375 
Q 18.3125 60.0625 18.3125 54.390625 
z
" id="DejaVuSans-38"/>
      </defs>
      <g transform="translate(354.634943 303.028562)scale(0.1 -0.1)">
       <use xlink:href="#DejaVuSans-38"/>
       <use x="63.623047" xlink:href="#DejaVuSans-30"/>
      </g>
     </g>
    </g>
    <g id="text_6">
     <!-- Step -->
     <defs>
      <path d="M 53.515625 70.515625 
L 53.515625 60.890625 
Q 47.90625 63.578125 42.921875 64.890625 
Q 37.9375 66.21875 33.296875 66.21875 
Q 25.25 66.21875 20.875 63.09375 
Q 16.5 59.96875 16.5 54.203125 
Q 16.5 49.359375 19.40625 46.890625 
Q 22.3125 44.4375 30.421875 42.921875 
L 36.375 41.703125 
Q 47.40625 39.59375 52.65625 34.296875 
Q 57.90625 29 57.90625 20.125 
Q 57.90625 9.515625 50.796875 4.046875 
Q 43.703125 -1.421875 29.984375 -1.421875 
Q 24.8125 -1.421875 18.96875 -0.25 
Q 13.140625 0.921875 6.890625 3.21875 
L 6.890625 13.375 
Q 12.890625 10.015625 18.65625 8.296875 
Q 24.421875 6.59375 29.984375 6.59375 
Q 38.421875 6.59375 43.015625 9.90625 
Q 47.609375 13.234375 47.609375 19.390625 
Q 47.609375 24.75 44.3125 27.78125 
Q 41.015625 30.8125 33.5 32.328125 
L 27.484375 33.5 
Q 16.453125 35.6875 11.515625 40.375 
Q 6.59375 45.0625 6.59375 53.421875 
Q 6.59375 63.09375 13.40625 68.65625 
Q 20.21875 74.21875 32.171875 74.21875 
Q 37.3125 74.21875 42.625 73.28125 
Q 47.953125 72.359375 53.515625 70.515625 
z
" id="DejaVuSans-53"/>
      <path d="M 18.3125 70.21875 
L 18.3125 54.6875 
L 36.8125 54.6875 
L 36.8125 47.703125 
L 18.3125 47.703125 
L 18.3125 18.015625 
Q 18.3125 11.328125 20.140625 9.421875 
Q 21.96875 7.515625 27.59375 7.515625 
L 36.8125 7.515625 
L 36.8125 0 
L 27.59375 0 
Q 17.1875 0 13.234375 3.875 
Q 9.28125 7.765625 9.28125 18.015625 
L 9.28125 47.703125 
L 2.6875 47.703125 
L 2.6875 54.6875 
L 9.28125 54.6875 
L 9.28125 70.21875 
z
" id="DejaVuSans-74"/>
      <path d="M 56.203125 29.59375 
L 56.203125 25.203125 
L 14.890625 25.203125 
Q 15.484375 15.921875 20.484375 11.0625 
Q 25.484375 6.203125 34.421875 6.203125 
Q 39.59375 6.203125 44.453125 7.46875 
Q 49.3125 8.734375 54.109375 11.28125 
L 54.109375 2.78125 
Q 49.265625 0.734375 44.1875 -0.34375 
Q 39.109375 -1.421875 33.890625 -1.421875 
Q 20.796875 -1.421875 13.15625 6.1875 
Q 5.515625 13.8125 5.515625 26.8125 
Q 5.515625 40.234375 12.765625 48.109375 
Q 20.015625 56 32.328125 56 
Q 43.359375 56 49.78125 48.890625 
Q 56.203125 41.796875 56.203125 29.59375 
z
M 47.21875 32.234375 
Q 47.125 39.59375 43.09375 43.984375 
Q 39.0625 48.390625 32.421875 48.390625 
Q 24.90625 48.390625 20.390625 44.140625 
Q 15.875 39.890625 15.1875 32.171875 
z
" id="DejaVuSans-65"/>
      <path d="M 18.109375 8.203125 
L 18.109375 -20.796875 
L 9.078125 -20.796875 
L 9.078125 54.6875 
L 18.109375 54.6875 
L 18.109375 46.390625 
Q 20.953125 51.265625 25.265625 53.625 
Q 29.59375 56 35.59375 56 
Q 45.5625 56 51.78125 48.09375 
Q 58.015625 40.1875 58.015625 27.296875 
Q 58.015625 14.40625 51.78125 6.484375 
Q 45.5625 -1.421875 35.59375 -1.421875 
Q 29.59375 -1.421875 25.265625 0.953125 
Q 20.953125 3.328125 18.109375 8.203125 
z
M 48.6875 27.296875 
Q 48.6875 37.203125 44.609375 42.84375 
Q 40.53125 48.484375 33.40625 48.484375 
Q 26.265625 48.484375 22.1875 42.84375 
Q 18.109375 37.203125 18.109375 27.296875 
Q 18.109375 17.390625 22.1875 11.75 
Q 26.265625 6.109375 33.40625 6.109375 
Q 40.53125 6.109375 44.609375 11.75 
Q 48.6875 17.390625 48.6875 27.296875 
z
" id="DejaVuSans-70"/>
     </defs>
     <g transform="translate(239.590469 316.706687)scale(0.1 -0.1)">
      <use xlink:href="#DejaVuSans-53"/>
      <use x="63.476562" xlink:href="#DejaVuSans-74"/>
      <use x="102.685547" xlink:href="#DejaVuSans-65"/>
      <use x="164.208984" xlink:href="#DejaVuSans-70"/>
     </g>
    </g>
   </g>
   <g id="matplotlib.axis_2">
    <g id="ytick_1">
     <g id="line2d_6">
      <defs>
       <path d="M 0 0 
L -3.5 0 
" id="mf952ef94ba" style="stroke:#000000;stroke-width:0.8;"/>
      </defs>
      <g>
       <use style="stroke:#000000;stroke-width:0.8;" x="72.415625" xlink:href="#mf952ef94ba" y="244.958728"/>
      </g>
     </g>
     <g id="text_7">
      <!-- 600000 -->
      <g transform="translate(27.240625 248.757946)scale(0.1 -0.1)">
       <use xlink:href="#DejaVuSans-36"/>
       <use x="63.623047" xlink:href="#DejaVuSans-30"/>
       <use x="127.246094" xlink:href="#DejaVuSans-30"/>
       <use x="190.869141" xlink:href="#DejaVuSans-30"/>
       <use x="254.492188" xlink:href="#DejaVuSans-30"/>
       <use x="318.115234" xlink:href="#DejaVuSans-30"/>
      </g>
     </g>
    </g>
    <g id="ytick_2">
     <g id="line2d_7">
      <g>
       <use style="stroke:#000000;stroke-width:0.8;" x="72.415625" xlink:href="#mf952ef94ba" y="200.231358"/>
      </g>
     </g>
     <g id="text_8">
      <!-- 700000 -->
      <defs>
       <path d="M 8.203125 72.90625 
L 55.078125 72.90625 
L 55.078125 68.703125 
L 28.609375 0 
L 18.3125 0 
L 43.21875 64.59375 
L 8.203125 64.59375 
z
" id="DejaVuSans-37"/>
      </defs>
      <g transform="translate(27.240625 204.030577)scale(0.1 -0.1)">
       <use xlink:href="#DejaVuSans-37"/>
       <use x="63.623047" xlink:href="#DejaVuSans-30"/>
       <use x="127.246094" xlink:href="#DejaVuSans-30"/>
       <use x="190.869141" xlink:href="#DejaVuSans-30"/>
       <use x="254.492188" xlink:href="#DejaVuSans-30"/>
       <use x="318.115234" xlink:href="#DejaVuSans-30"/>
      </g>
     </g>
    </g>
    <g id="ytick_3">
     <g id="line2d_8">
      <g>
       <use style="stroke:#000000;stroke-width:0.8;" x="72.415625" xlink:href="#mf952ef94ba" y="155.503988"/>
      </g>
     </g>
     <g id="text_9">
      <!-- 800000 -->
      <g transform="translate(27.240625 159.303207)scale(0.1 -0.1)">
       <use xlink:href="#DejaVuSans-38"/>
       <use x="63.623047" xlink:href="#DejaVuSans-30"/>
       <use x="127.246094" xlink:href="#DejaVuSans-30"/>
       <use x="190.869141" xlink:href="#DejaVuSans-30"/>
       <use x="254.492188" xlink:href="#DejaVuSans-30"/>
       <use x="318.115234" xlink:href="#DejaVuSans-30"/>
      </g>
     </g>
    </g>
    <g id="ytick_4">
     <g id="line2d_9">
      <g>
       <use style="stroke:#000000;stroke-width:0.8;" x="72.415625" xlink:href="#mf952ef94ba" y="110.776618"/>
      </g>
     </g>
     <g id="text_10">
      <!-- 900000 -->
      <defs>
       <path d="M 10.984375 1.515625 
L 10.984375 10.5 
Q 14.703125 8.734375 18.5 7.8125 
Q 22.3125 6.890625 25.984375 6.890625 
Q 35.75 6.890625 40.890625 13.453125 
Q 46.046875 20.015625 46.78125 33.40625 
Q 43.953125 29.203125 39.59375 26.953125 
Q 35.25 24.703125 29.984375 24.703125 
Q 19.046875 24.703125 12.671875 31.3125 
Q 6.296875 37.9375 6.296875 49.421875 
Q 6.296875 60.640625 12.9375 67.421875 
Q 19.578125 74.21875 30.609375 74.21875 
Q 43.265625 74.21875 49.921875 64.515625 
Q 56.59375 54.828125 56.59375 36.375 
Q 56.59375 19.140625 48.40625 8.859375 
Q 40.234375 -1.421875 26.421875 -1.421875 
Q 22.703125 -1.421875 18.890625 -0.6875 
Q 15.09375 0.046875 10.984375 1.515625 
z
M 30.609375 32.421875 
Q 37.25 32.421875 41.125 36.953125 
Q 45.015625 41.5 45.015625 49.421875 
Q 45.015625 57.28125 41.125 61.84375 
Q 37.25 66.40625 30.609375 66.40625 
Q 23.96875 66.40625 20.09375 61.84375 
Q 16.21875 57.28125 16.21875 49.421875 
Q 16.21875 41.5 20.09375 36.953125 
Q 23.96875 32.421875 30.609375 32.421875 
z
" id="DejaVuSans-39"/>
      </defs>
      <g transform="translate(27.240625 114.575837)scale(0.1 -0.1)">
       <use xlink:href="#DejaVuSans-39"/>
       <use x="63.623047" xlink:href="#DejaVuSans-30"/>
       <use x="127.246094" xlink:href="#DejaVuSans-30"/>
       <use x="190.869141" xlink:href="#DejaVuSans-30"/>
       <use x="254.492188" xlink:href="#DejaVuSans-30"/>
       <use x="318.115234" xlink:href="#DejaVuSans-30"/>
      </g>
     </g>
    </g>
    <g id="ytick_5">
     <g id="line2d_10">
      <g>
       <use style="stroke:#000000;stroke-width:0.8;" x="72.415625" xlink:href="#mf952ef94ba" y="66.049249"/>
      </g>
     </g>
     <g id="text_11">
      <!-- 1000000 -->
      <defs>
       <path d="M 12.40625 8.296875 
L 28.515625 8.296875 
L 28.515625 63.921875 
L 10.984375 60.40625 
L 10.984375 69.390625 
L 28.421875 72.90625 
L 38.28125 72.90625 
L 38.28125 8.296875 
L 54.390625 8.296875 
L 54.390625 0 
L 12.40625 0 
z
" id="DejaVuSans-31"/>
      </defs>
      <g transform="translate(20.878125 69.848467)scale(0.1 -0.1)">
       <use xlink:href="#DejaVuSans-31"/>
       <use x="63.623047" xlink:href="#DejaVuSans-30"/>
       <use x="127.246094" xlink:href="#DejaVuSans-30"/>
       <use x="190.869141" xlink:href="#DejaVuSans-30"/>
       <use x="254.492188" xlink:href="#DejaVuSans-30"/>
       <use x="318.115234" xlink:href="#DejaVuSans-30"/>
       <use x="381.738281" xlink:href="#DejaVuSans-30"/>
      </g>
     </g>
    </g>
    <g id="text_12">
     <!-- Persistence Distance -->
     <defs>
      <path d="M 19.671875 64.796875 
L 19.671875 37.40625 
L 32.078125 37.40625 
Q 38.96875 37.40625 42.71875 40.96875 
Q 46.484375 44.53125 46.484375 51.125 
Q 46.484375 57.671875 42.71875 61.234375 
Q 38.96875 64.796875 32.078125 64.796875 
z
M 9.8125 72.90625 
L 32.078125 72.90625 
Q 44.34375 72.90625 50.609375 67.359375 
Q 56.890625 61.8125 56.890625 51.125 
Q 56.890625 40.328125 50.609375 34.8125 
Q 44.34375 29.296875 32.078125 29.296875 
L 19.671875 29.296875 
L 19.671875 0 
L 9.8125 0 
z
" id="DejaVuSans-50"/>
      <path d="M 41.109375 46.296875 
Q 39.59375 47.171875 37.8125 47.578125 
Q 36.03125 48 33.890625 48 
Q 26.265625 48 22.1875 43.046875 
Q 18.109375 38.09375 18.109375 28.8125 
L 18.109375 0 
L 9.078125 0 
L 9.078125 54.6875 
L 18.109375 54.6875 
L 18.109375 46.1875 
Q 20.953125 51.171875 25.484375 53.578125 
Q 30.03125 56 36.53125 56 
Q 37.453125 56 38.578125 55.875 
Q 39.703125 55.765625 41.0625 55.515625 
z
" id="DejaVuSans-72"/>
      <path d="M 44.28125 53.078125 
L 44.28125 44.578125 
Q 40.484375 46.53125 36.375 47.5 
Q 32.28125 48.484375 27.875 48.484375 
Q 21.1875 48.484375 17.84375 46.4375 
Q 14.5 44.390625 14.5 40.28125 
Q 14.5 37.15625 16.890625 35.375 
Q 19.28125 33.59375 26.515625 31.984375 
L 29.59375 31.296875 
Q 39.15625 29.25 43.1875 25.515625 
Q 47.21875 21.78125 47.21875 15.09375 
Q 47.21875 7.46875 41.1875 3.015625 
Q 35.15625 -1.421875 24.609375 -1.421875 
Q 20.21875 -1.421875 15.453125 -0.5625 
Q 10.6875 0.296875 5.421875 2 
L 5.421875 11.28125 
Q 10.40625 8.6875 15.234375 7.390625 
Q 20.0625 6.109375 24.8125 6.109375 
Q 31.15625 6.109375 34.5625 8.28125 
Q 37.984375 10.453125 37.984375 14.40625 
Q 37.984375 18.0625 35.515625 20.015625 
Q 33.0625 21.96875 24.703125 23.78125 
L 21.578125 24.515625 
Q 13.234375 26.265625 9.515625 29.90625 
Q 5.8125 33.546875 5.8125 39.890625 
Q 5.8125 47.609375 11.28125 51.796875 
Q 16.75 56 26.8125 56 
Q 31.78125 56 36.171875 55.265625 
Q 40.578125 54.546875 44.28125 53.078125 
z
" id="DejaVuSans-73"/>
      <path d="M 9.421875 54.6875 
L 18.40625 54.6875 
L 18.40625 0 
L 9.421875 0 
z
M 9.421875 75.984375 
L 18.40625 75.984375 
L 18.40625 64.59375 
L 9.421875 64.59375 
z
" id="DejaVuSans-69"/>
      <path d="M 54.890625 33.015625 
L 54.890625 0 
L 45.90625 0 
L 45.90625 32.71875 
Q 45.90625 40.484375 42.875 44.328125 
Q 39.84375 48.1875 33.796875 48.1875 
Q 26.515625 48.1875 22.3125 43.546875 
Q 18.109375 38.921875 18.109375 30.90625 
L 18.109375 0 
L 9.078125 0 
L 9.078125 54.6875 
L 18.109375 54.6875 
L 18.109375 46.1875 
Q 21.34375 51.125 25.703125 53.5625 
Q 30.078125 56 35.796875 56 
Q 45.21875 56 50.046875 50.171875 
Q 54.890625 44.34375 54.890625 33.015625 
z
" id="DejaVuSans-6e"/>
      <path d="M 48.78125 52.59375 
L 48.78125 44.1875 
Q 44.96875 46.296875 41.140625 47.34375 
Q 37.3125 48.390625 33.40625 48.390625 
Q 24.65625 48.390625 19.8125 42.84375 
Q 14.984375 37.3125 14.984375 27.296875 
Q 14.984375 17.28125 19.8125 11.734375 
Q 24.65625 6.203125 33.40625 6.203125 
Q 37.3125 6.203125 41.140625 7.25 
Q 44.96875 8.296875 48.78125 10.40625 
L 48.78125 2.09375 
Q 45.015625 0.34375 40.984375 -0.53125 
Q 36.96875 -1.421875 32.421875 -1.421875 
Q 20.0625 -1.421875 12.78125 6.34375 
Q 5.515625 14.109375 5.515625 27.296875 
Q 5.515625 40.671875 12.859375 48.328125 
Q 20.21875 56 33.015625 56 
Q 37.15625 56 41.109375 55.140625 
Q 45.0625 54.296875 48.78125 52.59375 
z
" id="DejaVuSans-63"/>
      <path id="DejaVuSans-20"/>
      <path d="M 19.671875 64.796875 
L 19.671875 8.109375 
L 31.59375 8.109375 
Q 46.6875 8.109375 53.6875 14.9375 
Q 60.6875 21.78125 60.6875 36.53125 
Q 60.6875 51.171875 53.6875 57.984375 
Q 46.6875 64.796875 31.59375 64.796875 
z
M 9.8125 72.90625 
L 30.078125 72.90625 
Q 51.265625 72.90625 61.171875 64.09375 
Q 71.09375 55.28125 71.09375 36.53125 
Q 71.09375 17.671875 61.125 8.828125 
Q 51.171875 0 30.078125 0 
L 9.8125 0 
z
" id="DejaVuSans-44"/>
      <path d="M 34.28125 27.484375 
Q 23.390625 27.484375 19.1875 25 
Q 14.984375 22.515625 14.984375 16.5 
Q 14.984375 11.71875 18.140625 8.90625 
Q 21.296875 6.109375 26.703125 6.109375 
Q 34.1875 6.109375 38.703125 11.40625 
Q 43.21875 16.703125 43.21875 25.484375 
L 43.21875 27.484375 
z
M 52.203125 31.203125 
L 52.203125 0 
L 43.21875 0 
L 43.21875 8.296875 
Q 40.140625 3.328125 35.546875 0.953125 
Q 30.953125 -1.421875 24.3125 -1.421875 
Q 15.921875 -1.421875 10.953125 3.296875 
Q 6 8.015625 6 15.921875 
Q 6 25.140625 12.171875 29.828125 
Q 18.359375 34.515625 30.609375 34.515625 
L 43.21875 34.515625 
L 43.21875 35.40625 
Q 43.21875 41.609375 39.140625 45 
Q 35.0625 48.390625 27.6875 48.390625 
Q 23 48.390625 18.546875 47.265625 
Q 14.109375 46.140625 10.015625 43.890625 
L 10.015625 52.203125 
Q 14.9375 54.109375 19.578125 55.046875 
Q 24.21875 56 28.609375 56 
Q 40.484375 56 46.34375 49.84375 
Q 52.203125 43.703125 52.203125 31.203125 
z
" id="DejaVuSans-61"/>
     </defs>
     <g transform="translate(14.798438 207.599906)rotate(-90)scale(0.1 -0.1)">
      <use xlink:href="#DejaVuSans-50"/>
      <use x="60.255859" xlink:href="#DejaVuSans-65"/>
      <use x="121.779297" xlink:href="#DejaVuSans-72"/>
      <use x="162.892578" xlink:href="#DejaVuSans-73"/>
      <use x="214.992188" xlink:href="#DejaVuSans-69"/>
      <use x="242.775391" xlink:href="#DejaVuSans-73"/>
      <use x="294.875" xlink:href="#DejaVuSans-74"/>
      <use x="334.083984" xlink:href="#DejaVuSans-65"/>
      <use x="395.607422" xlink:href="#DejaVuSans-6e"/>
      <use x="458.986328" xlink:href="#DejaVuSans-63"/>
      <use x="513.966797" xlink:href="#DejaVuSans-65"/>
      <use x="575.490234" xlink:href="#DejaVuSans-20"/>
      <use x="607.277344" xlink:href="#DejaVuSans-44"/>
      <use x="684.279297" xlink:href="#DejaVuSans-69"/>
      <use x="712.0625" xlink:href="#DejaVuSans-73"/>
      <use x="764.162109" xlink:href="#DejaVuSans-74"/>
      <use x="803.371094" xlink:href="#DejaVuSans-61"/>
      <use x="864.650391" xlink:href="#DejaVuSans-6e"/>
      <use x="928.029297" xlink:href="#DejaVuSans-63"/>
      <use x="983.009766" xlink:href="#DejaVuSans-65"/>
     </g>
    </g>
   </g>
   <g id="line2d_11">
    <path clip-path="url(#p067ef7036f)" d="M 72.415625 179.053195 
L 76.022898 179.457276 
L 79.63017 179.861358 
L 83.237443 180.265439 
L 86.844716 180.669521 
L 90.451989 181.073602 
L 94.059261 181.477684 
L 97.666534 181.881765 
L 101.273807 182.285847 
L 104.88108 182.689929 
L 108.488352 183.09401 
L 112.095625 183.498092 
L 115.702898 183.902173 
L 119.31017 184.306255 
L 122.917443 184.710336 
L 126.524716 185.114418 
L 130.131989 185.518499 
L 133.739261 185.922581 
L 137.346534 186.326662 
L 140.953807 186.730744 
L 144.56108 187.134825 
L 148.168352 187.538907 
L 151.775625 187.942989 
L 155.382898 188.34707 
L 158.99017 188.751152 
L 162.597443 189.155233 
L 166.204716 189.559315 
L 169.811989 189.963396 
L 173.419261 190.367478 
L 177.026534 190.771559 
L 180.633807 191.175641 
L 184.24108 191.579722 
L 187.848352 191.983804 
L 191.455625 192.387885 
L 195.062898 192.791967 
L 198.67017 193.196049 
L 202.277443 193.60013 
L 205.884716 194.004212 
L 209.491989 194.408293 
L 213.099261 194.812375 
L 216.706534 195.216456 
L 220.313807 195.620538 
L 223.92108 196.024619 
L 227.528352 196.428701 
L 231.135625 196.832782 
L 234.742898 197.236864 
L 238.35017 197.640946 
L 241.957443 198.045027 
L 245.564716 198.449109 
L 249.171989 198.85319 
L 252.779261 199.257272 
L 256.386534 199.661353 
L 259.993807 200.065435 
L 263.60108 200.469516 
L 267.208352 200.873598 
L 270.815625 201.277679 
L 274.422898 201.681761 
L 278.03017 202.085842 
L 281.637443 202.489924 
L 285.244716 202.894006 
L 288.851989 203.298087 
L 292.459261 203.702169 
L 296.066534 204.10625 
L 299.673807 204.510332 
L 303.28108 204.914413 
L 306.888352 205.318495 
L 310.495625 205.722576 
L 314.102898 206.126658 
L 317.71017 206.530739 
L 321.317443 206.934821 
L 324.924716 207.338902 
L 328.531989 207.742984 
L 332.139261 208.147066 
L 335.746534 208.551147 
L 339.353807 208.955229 
L 342.96108 209.35931 
L 346.568352 209.763392 
L 350.175625 210.167473 
L 353.782898 210.571555 
L 357.39017 210.975636 
L 360.997443 211.379718 
L 364.604716 211.783799 
L 368.211989 212.187881 
L 371.819261 212.591963 
L 375.426534 212.996044 
L 379.033807 213.400126 
L 382.64108 213.804207 
L 386.248352 214.208289 
L 389.855625 214.61237 
L 393.462898 215.016452 
L 397.07017 215.420533 
L 400.677443 215.824615 
L 404.284716 216.228696 
L 407.891989 216.632778 
L 411.499261 217.036859 
L 415.106534 217.440941 
L 418.713807 217.845023 
L 422.32108 218.249104 
L 425.928352 218.653186 
L 429.535625 219.057267 
" style="fill:none;stroke:#c0c0c0;stroke-linecap:square;stroke-width:3;"/>
   </g>
   <g id="patch_3">
    <path d="M 72.415625 288.430125 
L 72.415625 22.318125 
" style="fill:none;stroke:#000000;stroke-linecap:square;stroke-linejoin:miter;stroke-width:0.8;"/>
   </g>
   <g id="patch_4">
    <path d="M 429.535625 288.430125 
L 429.535625 22.318125 
" style="fill:none;stroke:#000000;stroke-linecap:square;stroke-linejoin:miter;stroke-width:0.8;"/>
   </g>
   <g id="patch_5">
    <path d="M 72.415625 288.430125 
L 429.535625 288.430125 
" style="fill:none;stroke:#000000;stroke-linecap:square;stroke-linejoin:miter;stroke-width:0.8;"/>
   </g>
   <g id="patch_6">
    <path d="M 72.415625 22.318125 
L 429.535625 22.318125 
" style="fill:none;stroke:#000000;stroke-linecap:square;stroke-linejoin:miter;stroke-width:0.8;"/>
   </g>
   <g id="text_13">
    <!-- Step vs Persistence Distance -->
    <defs>
     <path d="M 2.984375 54.6875 
L 12.5 54.6875 
L 29.59375 8.796875 
L 46.6875 54.6875 
L 56.203125 54.6875 
L 35.6875 0 
L 23.484375 0 
z
" id="DejaVuSans-76"/>
    </defs>
    <g transform="translate(164.151875 16.318125)scale(0.12 -0.12)">
     <use xlink:href="#DejaVuSans-53"/>
     <use x="63.476562" xlink:href="#DejaVuSans-74"/>
     <use x="102.685547" xlink:href="#DejaVuSans-65"/>
     <use x="164.208984" xlink:href="#DejaVuSans-70"/>
     <use x="227.685547" xlink:href="#DejaVuSans-20"/>
     <use x="259.472656" xlink:href="#DejaVuSans-76"/>
     <use x="318.652344" xlink:href="#DejaVuSans-73"/>
     <use x="370.751953" xlink:href="#DejaVuSans-20"/>
     <use x="402.539062" xlink:href="#DejaVuSans-50"/>
     <use x="462.794922" xlink:href="#DejaVuSans-65"/>
     <use x="524.318359" xlink:href="#DejaVuSans-72"/>
     <use x="565.431641" xlink:href="#DejaVuSans-73"/>
     <use x="617.53125" xlink:href="#DejaVuSans-69"/>
     <use x="645.314453" xlink:href="#DejaVuSans-73"/>
     <use x="697.414062" xlink:href="#DejaVuSans-74"/>
     <use x="736.623047" xlink:href="#DejaVuSans-65"/>
     <use x="798.146484" xlink:href="#DejaVuSans-6e"/>
     <use x="861.525391" xlink:href="#DejaVuSans-63"/>
     <use x="916.505859" xlink:href="#DejaVuSans-65"/>
     <use x="978.029297" xlink:href="#DejaVuSans-20"/>
     <use x="1009.816406" xlink:href="#DejaVuSans-44"/>
     <use x="1086.818359" xlink:href="#DejaVuSans-69"/>
     <use x="1114.601562" xlink:href="#DejaVuSans-73"/>
     <use x="1166.701172" xlink:href="#DejaVuSans-74"/>
     <use x="1205.910156" xlink:href="#DejaVuSans-61"/>
     <use x="1267.189453" xlink:href="#DejaVuSans-6e"/>
     <use x="1330.568359" xlink:href="#DejaVuSans-63"/>
     <use x="1385.548828" xlink:href="#DejaVuSans-65"/>
    </g>
   </g>
  </g>
 </g>
 <defs>
  <clipPath id="p067ef7036f">
   <rect height="266.112" width="357.12" x="72.415625" y="22.318125"/>
  </clipPath>
 </defs>
</svg>
