<?xml version="1.0" encoding="utf-8" standalone="no"?>
<!DOCTYPE svg PUBLIC "-//W3C//DTD SVG 1.1//EN"
  "http://www.w3.org/Graphics/SVG/1.1/DTD/svg11.dtd">
<!-- Created with matplotlib (http://matplotlib.org/) -->
<svg height="325pt" version="1.1" viewBox="0 0 433 325" width="433pt" xmlns="http://www.w3.org/2000/svg" xmlns:xlink="http://www.w3.org/1999/xlink">
 <defs>
  <style type="text/css">
*{stroke-linecap:butt;stroke-linejoin:round;}
  </style>
 </defs>
 <g id="figure_1">
  <g id="patch_1">
   <path d="M 0 325.986375 
L 433.873125 325.986375 
L 433.873125 0 
L 0 0 
z
" style="fill:#ffffff;"/>
  </g>
  <g id="axes_1">
   <g id="patch_2">
    <path d="M 66.053125 288.430125 
L 423.173125 288.430125 
L 423.173125 22.318125 
L 66.053125 22.318125 
z
" style="fill:#ffffff;"/>
   </g>
   <g id="PathCollection_1">
    <defs>
     <path d="M 0 3 
C 0.795609 3 1.55874 2.683901 2.12132 2.12132 
C 2.683901 1.55874 3 0.795609 3 0 
C 3 -0.795609 2.683901 -1.55874 2.12132 -2.12132 
C 1.55874 -2.683901 0.795609 -3 0 -3 
C -0.795609 -3 -1.55874 -2.683901 -2.12132 -2.12132 
C -2.683901 -1.55874 -3 -0.795609 -3 0 
C -3 0.795609 -2.683901 1.55874 -2.12132 2.12132 
C -1.55874 2.683901 -0.795609 3 0 3 
z
" id="mc8246a27ef" style="stroke:#000000;"/>
    </defs>
    <g clip-path="url(#p2832521e4a)">
     <use style="stroke:#000000;" x="423.173125" xlink:href="#mc8246a27ef" y="171.639644"/>
     <use style="stroke:#000000;" x="422.218978" xlink:href="#mc8246a27ef" y="174.55772"/>
     <use style="stroke:#000000;" x="421.144586" xlink:href="#mc8246a27ef" y="178.714526"/>
     <use style="stroke:#000000;" x="420.114784" xlink:href="#mc8246a27ef" y="188.439185"/>
     <use style="stroke:#000000;" x="418.96789" xlink:href="#mc8246a27ef" y="192.887307"/>
     <use style="stroke:#000000;" x="417.624287" xlink:href="#mc8246a27ef" y="187.945251"/>
     <use style="stroke:#000000;" x="416.083302" xlink:href="#mc8246a27ef" y="183.68534"/>
     <use style="stroke:#000000;" x="414.433119" xlink:href="#mc8246a27ef" y="186.885281"/>
     <use style="stroke:#000000;" x="412.619905" xlink:href="#mc8246a27ef" y="174.849172"/>
     <use style="stroke:#000000;" x="410.620087" xlink:href="#mc8246a27ef" y="179.303151"/>
     <use style="stroke:#000000;" x="408.370646" xlink:href="#mc8246a27ef" y="187.625392"/>
     <use style="stroke:#000000;" x="405.93169" xlink:href="#mc8246a27ef" y="182.207598"/>
     <use style="stroke:#000000;" x="403.226809" xlink:href="#mc8246a27ef" y="172.776226"/>
     <use style="stroke:#000000;" x="400.231622" xlink:href="#mc8246a27ef" y="164.637782"/>
     <use style="stroke:#000000;" x="396.974418" xlink:href="#mc8246a27ef" y="150.165056"/>
     <use style="stroke:#000000;" x="393.840638" xlink:href="#mc8246a27ef" y="156.251093"/>
     <use style="stroke:#000000;" x="390.669165" xlink:href="#mc8246a27ef" y="152.192316"/>
     <use style="stroke:#000000;" x="387.683084" xlink:href="#mc8246a27ef" y="146.375494"/>
     <use style="stroke:#000000;" x="384.42173" xlink:href="#mc8246a27ef" y="151.450703"/>
     <use style="stroke:#000000;" x="380.61654" xlink:href="#mc8246a27ef" y="159.557303"/>
     <use style="stroke:#000000;" x="376.463573" xlink:href="#mc8246a27ef" y="161.752644"/>
     <use style="stroke:#000000;" x="371.828845" xlink:href="#mc8246a27ef" y="172.489245"/>
     <use style="stroke:#000000;" x="366.784723" xlink:href="#mc8246a27ef" y="181.102489"/>
     <use style="stroke:#000000;" x="361.456841" xlink:href="#mc8246a27ef" y="193.846182"/>
     <use style="stroke:#000000;" x="355.99263" xlink:href="#mc8246a27ef" y="213.097432"/>
     <use style="stroke:#000000;" x="349.662159" xlink:href="#mc8246a27ef" y="231.317803"/>
     <use style="stroke:#000000;" x="342.828506" xlink:href="#mc8246a27ef" y="254.452134"/>
     <use style="stroke:#000000;" x="335.872184" xlink:href="#mc8246a27ef" y="267.253774"/>
     <use style="stroke:#000000;" x="328.504178" xlink:href="#mc8246a27ef" y="281.40746"/>
     <use style="stroke:#000000;" x="321.429632" xlink:href="#mc8246a27ef" y="285.699498"/>
     <use style="stroke:#000000;" x="314.075663" xlink:href="#mc8246a27ef" y="288.430125"/>
     <use style="stroke:#000000;" x="306.65" xlink:href="#mc8246a27ef" y="265.157243"/>
     <use style="stroke:#000000;" x="298.828873" xlink:href="#mc8246a27ef" y="214.486457"/>
     <use style="stroke:#000000;" x="290.641635" xlink:href="#mc8246a27ef" y="206.531714"/>
     <use style="stroke:#000000;" x="282.552442" xlink:href="#mc8246a27ef" y="194.27434"/>
     <use style="stroke:#000000;" x="274.713883" xlink:href="#mc8246a27ef" y="149.643925"/>
     <use style="stroke:#000000;" x="266.405538" xlink:href="#mc8246a27ef" y="127.690866"/>
     <use style="stroke:#000000;" x="257.687342" xlink:href="#mc8246a27ef" y="136.827935"/>
     <use style="stroke:#000000;" x="248.423193" xlink:href="#mc8246a27ef" y="137.239303"/>
     <use style="stroke:#000000;" x="239.0811" xlink:href="#mc8246a27ef" y="112.196339"/>
     <use style="stroke:#000000;" x="229.727165" xlink:href="#mc8246a27ef" y="108.318314"/>
     <use style="stroke:#000000;" x="220.129803" xlink:href="#mc8246a27ef" y="83.857278"/>
     <use style="stroke:#000000;" x="210.246243" xlink:href="#mc8246a27ef" y="95.831711"/>
     <use style="stroke:#000000;" x="200.446717" xlink:href="#mc8246a27ef" y="124.081255"/>
     <use style="stroke:#000000;" x="190.436203" xlink:href="#mc8246a27ef" y="93.887916"/>
     <use style="stroke:#000000;" x="180.545632" xlink:href="#mc8246a27ef" y="112.094424"/>
     <use style="stroke:#000000;" x="172.204545" xlink:href="#mc8246a27ef" y="101.684047"/>
     <use style="stroke:#000000;" x="164.481826" xlink:href="#mc8246a27ef" y="89.576208"/>
     <use style="stroke:#000000;" x="157.195793" xlink:href="#mc8246a27ef" y="65.287489"/>
     <use style="stroke:#000000;" x="150.665003" xlink:href="#mc8246a27ef" y="90.272409"/>
     <use style="stroke:#000000;" x="144.050206" xlink:href="#mc8246a27ef" y="101.801093"/>
     <use style="stroke:#000000;" x="137.005053" xlink:href="#mc8246a27ef" y="114.064109"/>
     <use style="stroke:#000000;" x="129.5647" xlink:href="#mc8246a27ef" y="71.21386"/>
     <use style="stroke:#000000;" x="122.2119" xlink:href="#mc8246a27ef" y="46.310218"/>
     <use style="stroke:#000000;" x="115.168688" xlink:href="#mc8246a27ef" y="22.318125"/>
     <use style="stroke:#000000;" x="108.490232" xlink:href="#mc8246a27ef" y="54.037059"/>
     <use style="stroke:#000000;" x="102.084449" xlink:href="#mc8246a27ef" y="53.015805"/>
     <use style="stroke:#000000;" x="96.284252" xlink:href="#mc8246a27ef" y="74.990458"/>
     <use style="stroke:#000000;" x="91.669046" xlink:href="#mc8246a27ef" y="46.550595"/>
     <use style="stroke:#000000;" x="87.762258" xlink:href="#mc8246a27ef" y="28.982829"/>
     <use style="stroke:#000000;" x="85.00279" xlink:href="#mc8246a27ef" y="52.067101"/>
     <use style="stroke:#000000;" x="82.716213" xlink:href="#mc8246a27ef" y="40.157702"/>
     <use style="stroke:#000000;" x="80.633123" xlink:href="#mc8246a27ef" y="31.143535"/>
     <use style="stroke:#000000;" x="78.864514" xlink:href="#mc8246a27ef" y="50.063016"/>
     <use style="stroke:#000000;" x="77.562872" xlink:href="#mc8246a27ef" y="52.065579"/>
     <use style="stroke:#000000;" x="76.179798" xlink:href="#mc8246a27ef" y="43.627014"/>
     <use style="stroke:#000000;" x="74.759807" xlink:href="#mc8246a27ef" y="49.911706"/>
     <use style="stroke:#000000;" x="73.591465" xlink:href="#mc8246a27ef" y="43.929985"/>
     <use style="stroke:#000000;" x="72.59912" xlink:href="#mc8246a27ef" y="81.441962"/>
     <use style="stroke:#000000;" x="71.556721" xlink:href="#mc8246a27ef" y="82.755234"/>
     <use style="stroke:#000000;" x="70.959429" xlink:href="#mc8246a27ef" y="99.407331"/>
     <use style="stroke:#000000;" x="70.439553" xlink:href="#mc8246a27ef" y="113.619082"/>
     <use style="stroke:#000000;" x="69.949002" xlink:href="#mc8246a27ef" y="118.441534"/>
     <use style="stroke:#000000;" x="69.09553" xlink:href="#mc8246a27ef" y="141.482619"/>
     <use style="stroke:#000000;" x="68.211277" xlink:href="#mc8246a27ef" y="144.464186"/>
     <use style="stroke:#000000;" x="67.606556" xlink:href="#mc8246a27ef" y="140.290043"/>
     <use style="stroke:#000000;" x="67.072365" xlink:href="#mc8246a27ef" y="137.198245"/>
     <use style="stroke:#000000;" x="66.67338" xlink:href="#mc8246a27ef" y="157.037338"/>
     <use style="stroke:#000000;" x="66.269382" xlink:href="#mc8246a27ef" y="165.999201"/>
     <use style="stroke:#000000;" x="66.053125" xlink:href="#mc8246a27ef" y="160.695993"/>
     <use style="stroke:#000000;" x="66.12281" xlink:href="#mc8246a27ef" y="158.740053"/>
     <use style="stroke:#000000;" x="66.65729" xlink:href="#mc8246a27ef" y="158.541496"/>
     <use style="stroke:#000000;" x="67.361873" xlink:href="#mc8246a27ef" y="158.038288"/>
     <use style="stroke:#000000;" x="68.029622" xlink:href="#mc8246a27ef" y="161.093772"/>
     <use style="stroke:#000000;" x="69.155316" xlink:href="#mc8246a27ef" y="152.66249"/>
     <use style="stroke:#000000;" x="70.410824" xlink:href="#mc8246a27ef" y="140.388346"/>
     <use style="stroke:#000000;" x="71.676714" xlink:href="#mc8246a27ef" y="149.289157"/>
     <use style="stroke:#000000;" x="73.256745" xlink:href="#mc8246a27ef" y="155.140986"/>
     <use style="stroke:#000000;" x="75.033194" xlink:href="#mc8246a27ef" y="164.6789"/>
     <use style="stroke:#000000;" x="76.493046" xlink:href="#mc8246a27ef" y="161.814203"/>
     <use style="stroke:#000000;" x="77.677978" xlink:href="#mc8246a27ef" y="166.882246"/>
     <use style="stroke:#000000;" x="78.837703" xlink:href="#mc8246a27ef" y="152.372014"/>
     <use style="stroke:#000000;" x="80.129113" xlink:href="#mc8246a27ef" y="162.84063"/>
     <use style="stroke:#000000;" x="81.499261" xlink:href="#mc8246a27ef" y="162.798752"/>
     <use style="stroke:#000000;" x="83.43118" xlink:href="#mc8246a27ef" y="163.170955"/>
     <use style="stroke:#000000;" x="85.567707" xlink:href="#mc8246a27ef" y="145.355822"/>
     <use style="stroke:#000000;" x="87.736967" xlink:href="#mc8246a27ef" y="146.284591"/>
     <use style="stroke:#000000;" x="89.972764" xlink:href="#mc8246a27ef" y="156.819159"/>
     <use style="stroke:#000000;" x="92.318995" xlink:href="#mc8246a27ef" y="157.367506"/>
     <use style="stroke:#000000;" x="94.838641" xlink:href="#mc8246a27ef" y="154.707556"/>
    </g>
   </g>
   <g id="matplotlib.axis_1">
    <g id="xtick_1">
     <g id="line2d_1">
      <defs>
       <path d="M 0 0 
L 0 3.5 
" id="m50625c8131" style="stroke:#000000;stroke-width:0.8;"/>
      </defs>
      <g>
       <use style="stroke:#000000;stroke-width:0.8;" x="70.55721" xlink:href="#m50625c8131" y="288.430125"/>
      </g>
     </g>
     <g id="text_1">
      <!-- 0.0 -->
      <defs>
       <path d="M 31.78125 66.40625 
Q 24.171875 66.40625 20.328125 58.90625 
Q 16.5 51.421875 16.5 36.375 
Q 16.5 21.390625 20.328125 13.890625 
Q 24.171875 6.390625 31.78125 6.390625 
Q 39.453125 6.390625 43.28125 13.890625 
Q 47.125 21.390625 47.125 36.375 
Q 47.125 51.421875 43.28125 58.90625 
Q 39.453125 66.40625 31.78125 66.40625 
z
M 31.78125 74.21875 
Q 44.046875 74.21875 50.515625 64.515625 
Q 56.984375 54.828125 56.984375 36.375 
Q 56.984375 17.96875 50.515625 8.265625 
Q 44.046875 -1.421875 31.78125 -1.421875 
Q 19.53125 -1.421875 13.0625 8.265625 
Q 6.59375 17.96875 6.59375 36.375 
Q 6.59375 54.828125 13.0625 64.515625 
Q 19.53125 74.21875 31.78125 74.21875 
z
" id="DejaVuSans-30"/>
       <path d="M 10.6875 12.40625 
L 21 12.40625 
L 21 0 
L 10.6875 0 
z
" id="DejaVuSans-2e"/>
      </defs>
      <g transform="translate(62.605647 303.028562)scale(0.1 -0.1)">
       <use xlink:href="#DejaVuSans-30"/>
       <use x="63.623047" xlink:href="#DejaVuSans-2e"/>
       <use x="95.410156" xlink:href="#DejaVuSans-30"/>
      </g>
     </g>
    </g>
    <g id="xtick_2">
     <g id="line2d_2">
      <g>
       <use style="stroke:#000000;stroke-width:0.8;" x="115.759472" xlink:href="#m50625c8131" y="288.430125"/>
      </g>
     </g>
     <g id="text_2">
      <!-- 0.1 -->
      <defs>
       <path d="M 12.40625 8.296875 
L 28.515625 8.296875 
L 28.515625 63.921875 
L 10.984375 60.40625 
L 10.984375 69.390625 
L 28.421875 72.90625 
L 38.28125 72.90625 
L 38.28125 8.296875 
L 54.390625 8.296875 
L 54.390625 0 
L 12.40625 0 
z
" id="DejaVuSans-31"/>
      </defs>
      <g transform="translate(107.807909 303.028562)scale(0.1 -0.1)">
       <use xlink:href="#DejaVuSans-30"/>
       <use x="63.623047" xlink:href="#DejaVuSans-2e"/>
       <use x="95.410156" xlink:href="#DejaVuSans-31"/>
      </g>
     </g>
    </g>
    <g id="xtick_3">
     <g id="line2d_3">
      <g>
       <use style="stroke:#000000;stroke-width:0.8;" x="160.961734" xlink:href="#m50625c8131" y="288.430125"/>
      </g>
     </g>
     <g id="text_3">
      <!-- 0.2 -->
      <defs>
       <path d="M 19.1875 8.296875 
L 53.609375 8.296875 
L 53.609375 0 
L 7.328125 0 
L 7.328125 8.296875 
Q 12.9375 14.109375 22.625 23.890625 
Q 32.328125 33.6875 34.8125 36.53125 
Q 39.546875 41.84375 41.421875 45.53125 
Q 43.3125 49.21875 43.3125 52.78125 
Q 43.3125 58.59375 39.234375 62.25 
Q 35.15625 65.921875 28.609375 65.921875 
Q 23.96875 65.921875 18.8125 64.3125 
Q 13.671875 62.703125 7.8125 59.421875 
L 7.8125 69.390625 
Q 13.765625 71.78125 18.9375 73 
Q 24.125 74.21875 28.421875 74.21875 
Q 39.75 74.21875 46.484375 68.546875 
Q 53.21875 62.890625 53.21875 53.421875 
Q 53.21875 48.921875 51.53125 44.890625 
Q 49.859375 40.875 45.40625 35.40625 
Q 44.1875 33.984375 37.640625 27.21875 
Q 31.109375 20.453125 19.1875 8.296875 
z
" id="DejaVuSans-32"/>
      </defs>
      <g transform="translate(153.010171 303.028562)scale(0.1 -0.1)">
       <use xlink:href="#DejaVuSans-30"/>
       <use x="63.623047" xlink:href="#DejaVuSans-2e"/>
       <use x="95.410156" xlink:href="#DejaVuSans-32"/>
      </g>
     </g>
    </g>
    <g id="xtick_4">
     <g id="line2d_4">
      <g>
       <use style="stroke:#000000;stroke-width:0.8;" x="206.163995" xlink:href="#m50625c8131" y="288.430125"/>
      </g>
     </g>
     <g id="text_4">
      <!-- 0.3 -->
      <defs>
       <path d="M 40.578125 39.3125 
Q 47.65625 37.796875 51.625 33 
Q 55.609375 28.21875 55.609375 21.1875 
Q 55.609375 10.40625 48.1875 4.484375 
Q 40.765625 -1.421875 27.09375 -1.421875 
Q 22.515625 -1.421875 17.65625 -0.515625 
Q 12.796875 0.390625 7.625 2.203125 
L 7.625 11.71875 
Q 11.71875 9.328125 16.59375 8.109375 
Q 21.484375 6.890625 26.8125 6.890625 
Q 36.078125 6.890625 40.9375 10.546875 
Q 45.796875 14.203125 45.796875 21.1875 
Q 45.796875 27.640625 41.28125 31.265625 
Q 36.765625 34.90625 28.71875 34.90625 
L 20.21875 34.90625 
L 20.21875 43.015625 
L 29.109375 43.015625 
Q 36.375 43.015625 40.234375 45.921875 
Q 44.09375 48.828125 44.09375 54.296875 
Q 44.09375 59.90625 40.109375 62.90625 
Q 36.140625 65.921875 28.71875 65.921875 
Q 24.65625 65.921875 20.015625 65.03125 
Q 15.375 64.15625 9.8125 62.3125 
L 9.8125 71.09375 
Q 15.4375 72.65625 20.34375 73.4375 
Q 25.25 74.21875 29.59375 74.21875 
Q 40.828125 74.21875 47.359375 69.109375 
Q 53.90625 64.015625 53.90625 55.328125 
Q 53.90625 49.265625 50.4375 45.09375 
Q 46.96875 40.921875 40.578125 39.3125 
z
" id="DejaVuSans-33"/>
      </defs>
      <g transform="translate(198.212433 303.028562)scale(0.1 -0.1)">
       <use xlink:href="#DejaVuSans-30"/>
       <use x="63.623047" xlink:href="#DejaVuSans-2e"/>
       <use x="95.410156" xlink:href="#DejaVuSans-33"/>
      </g>
     </g>
    </g>
    <g id="xtick_5">
     <g id="line2d_5">
      <g>
       <use style="stroke:#000000;stroke-width:0.8;" x="251.366257" xlink:href="#m50625c8131" y="288.430125"/>
      </g>
     </g>
     <g id="text_5">
      <!-- 0.4 -->
      <defs>
       <path d="M 37.796875 64.3125 
L 12.890625 25.390625 
L 37.796875 25.390625 
z
M 35.203125 72.90625 
L 47.609375 72.90625 
L 47.609375 25.390625 
L 58.015625 25.390625 
L 58.015625 17.1875 
L 47.609375 17.1875 
L 47.609375 0 
L 37.796875 0 
L 37.796875 17.1875 
L 4.890625 17.1875 
L 4.890625 26.703125 
z
" id="DejaVuSans-34"/>
      </defs>
      <g transform="translate(243.414695 303.028562)scale(0.1 -0.1)">
       <use xlink:href="#DejaVuSans-30"/>
       <use x="63.623047" xlink:href="#DejaVuSans-2e"/>
       <use x="95.410156" xlink:href="#DejaVuSans-34"/>
      </g>
     </g>
    </g>
    <g id="xtick_6">
     <g id="line2d_6">
      <g>
       <use style="stroke:#000000;stroke-width:0.8;" x="296.568519" xlink:href="#m50625c8131" y="288.430125"/>
      </g>
     </g>
     <g id="text_6">
      <!-- 0.5 -->
      <defs>
       <path d="M 10.796875 72.90625 
L 49.515625 72.90625 
L 49.515625 64.59375 
L 19.828125 64.59375 
L 19.828125 46.734375 
Q 21.96875 47.46875 24.109375 47.828125 
Q 26.265625 48.1875 28.421875 48.1875 
Q 40.625 48.1875 47.75 41.5 
Q 54.890625 34.8125 54.890625 23.390625 
Q 54.890625 11.625 47.5625 5.09375 
Q 40.234375 -1.421875 26.90625 -1.421875 
Q 22.3125 -1.421875 17.546875 -0.640625 
Q 12.796875 0.140625 7.71875 1.703125 
L 7.71875 11.625 
Q 12.109375 9.234375 16.796875 8.0625 
Q 21.484375 6.890625 26.703125 6.890625 
Q 35.15625 6.890625 40.078125 11.328125 
Q 45.015625 15.765625 45.015625 23.390625 
Q 45.015625 31 40.078125 35.4375 
Q 35.15625 39.890625 26.703125 39.890625 
Q 22.75 39.890625 18.8125 39.015625 
Q 14.890625 38.140625 10.796875 36.28125 
z
" id="DejaVuSans-35"/>
      </defs>
      <g transform="translate(288.616957 303.028562)scale(0.1 -0.1)">
       <use xlink:href="#DejaVuSans-30"/>
       <use x="63.623047" xlink:href="#DejaVuSans-2e"/>
       <use x="95.410156" xlink:href="#DejaVuSans-35"/>
      </g>
     </g>
    </g>
    <g id="xtick_7">
     <g id="line2d_7">
      <g>
       <use style="stroke:#000000;stroke-width:0.8;" x="341.770781" xlink:href="#m50625c8131" y="288.430125"/>
      </g>
     </g>
     <g id="text_7">
      <!-- 0.6 -->
      <defs>
       <path d="M 33.015625 40.375 
Q 26.375 40.375 22.484375 35.828125 
Q 18.609375 31.296875 18.609375 23.390625 
Q 18.609375 15.53125 22.484375 10.953125 
Q 26.375 6.390625 33.015625 6.390625 
Q 39.65625 6.390625 43.53125 10.953125 
Q 47.40625 15.53125 47.40625 23.390625 
Q 47.40625 31.296875 43.53125 35.828125 
Q 39.65625 40.375 33.015625 40.375 
z
M 52.59375 71.296875 
L 52.59375 62.3125 
Q 48.875 64.0625 45.09375 64.984375 
Q 41.3125 65.921875 37.59375 65.921875 
Q 27.828125 65.921875 22.671875 59.328125 
Q 17.53125 52.734375 16.796875 39.40625 
Q 19.671875 43.65625 24.015625 45.921875 
Q 28.375 48.1875 33.59375 48.1875 
Q 44.578125 48.1875 50.953125 41.515625 
Q 57.328125 34.859375 57.328125 23.390625 
Q 57.328125 12.15625 50.6875 5.359375 
Q 44.046875 -1.421875 33.015625 -1.421875 
Q 20.359375 -1.421875 13.671875 8.265625 
Q 6.984375 17.96875 6.984375 36.375 
Q 6.984375 53.65625 15.1875 63.9375 
Q 23.390625 74.21875 37.203125 74.21875 
Q 40.921875 74.21875 44.703125 73.484375 
Q 48.484375 72.75 52.59375 71.296875 
z
" id="DejaVuSans-36"/>
      </defs>
      <g transform="translate(333.819219 303.028562)scale(0.1 -0.1)">
       <use xlink:href="#DejaVuSans-30"/>
       <use x="63.623047" xlink:href="#DejaVuSans-2e"/>
       <use x="95.410156" xlink:href="#DejaVuSans-36"/>
      </g>
     </g>
    </g>
    <g id="xtick_8">
     <g id="line2d_8">
      <g>
       <use style="stroke:#000000;stroke-width:0.8;" x="386.973043" xlink:href="#m50625c8131" y="288.430125"/>
      </g>
     </g>
     <g id="text_8">
      <!-- 0.7 -->
      <defs>
       <path d="M 8.203125 72.90625 
L 55.078125 72.90625 
L 55.078125 68.703125 
L 28.609375 0 
L 18.3125 0 
L 43.21875 64.59375 
L 8.203125 64.59375 
z
" id="DejaVuSans-37"/>
      </defs>
      <g transform="translate(379.02148 303.028562)scale(0.1 -0.1)">
       <use xlink:href="#DejaVuSans-30"/>
       <use x="63.623047" xlink:href="#DejaVuSans-2e"/>
       <use x="95.410156" xlink:href="#DejaVuSans-37"/>
      </g>
     </g>
    </g>
    <g id="text_9">
     <!-- Correct Class Probability -->
     <defs>
      <path d="M 64.40625 67.28125 
L 64.40625 56.890625 
Q 59.421875 61.53125 53.78125 63.8125 
Q 48.140625 66.109375 41.796875 66.109375 
Q 29.296875 66.109375 22.65625 58.46875 
Q 16.015625 50.828125 16.015625 36.375 
Q 16.015625 21.96875 22.65625 14.328125 
Q 29.296875 6.6875 41.796875 6.6875 
Q 48.140625 6.6875 53.78125 8.984375 
Q 59.421875 11.28125 64.40625 15.921875 
L 64.40625 5.609375 
Q 59.234375 2.09375 53.4375 0.328125 
Q 47.65625 -1.421875 41.21875 -1.421875 
Q 24.65625 -1.421875 15.125 8.703125 
Q 5.609375 18.84375 5.609375 36.375 
Q 5.609375 53.953125 15.125 64.078125 
Q 24.65625 74.21875 41.21875 74.21875 
Q 47.75 74.21875 53.53125 72.484375 
Q 59.328125 70.75 64.40625 67.28125 
z
" id="DejaVuSans-43"/>
      <path d="M 30.609375 48.390625 
Q 23.390625 48.390625 19.1875 42.75 
Q 14.984375 37.109375 14.984375 27.296875 
Q 14.984375 17.484375 19.15625 11.84375 
Q 23.34375 6.203125 30.609375 6.203125 
Q 37.796875 6.203125 41.984375 11.859375 
Q 46.1875 17.53125 46.1875 27.296875 
Q 46.1875 37.015625 41.984375 42.703125 
Q 37.796875 48.390625 30.609375 48.390625 
z
M 30.609375 56 
Q 42.328125 56 49.015625 48.375 
Q 55.71875 40.765625 55.71875 27.296875 
Q 55.71875 13.875 49.015625 6.21875 
Q 42.328125 -1.421875 30.609375 -1.421875 
Q 18.84375 -1.421875 12.171875 6.21875 
Q 5.515625 13.875 5.515625 27.296875 
Q 5.515625 40.765625 12.171875 48.375 
Q 18.84375 56 30.609375 56 
z
" id="DejaVuSans-6f"/>
      <path d="M 41.109375 46.296875 
Q 39.59375 47.171875 37.8125 47.578125 
Q 36.03125 48 33.890625 48 
Q 26.265625 48 22.1875 43.046875 
Q 18.109375 38.09375 18.109375 28.8125 
L 18.109375 0 
L 9.078125 0 
L 9.078125 54.6875 
L 18.109375 54.6875 
L 18.109375 46.1875 
Q 20.953125 51.171875 25.484375 53.578125 
Q 30.03125 56 36.53125 56 
Q 37.453125 56 38.578125 55.875 
Q 39.703125 55.765625 41.0625 55.515625 
z
" id="DejaVuSans-72"/>
      <path d="M 56.203125 29.59375 
L 56.203125 25.203125 
L 14.890625 25.203125 
Q 15.484375 15.921875 20.484375 11.0625 
Q 25.484375 6.203125 34.421875 6.203125 
Q 39.59375 6.203125 44.453125 7.46875 
Q 49.3125 8.734375 54.109375 11.28125 
L 54.109375 2.78125 
Q 49.265625 0.734375 44.1875 -0.34375 
Q 39.109375 -1.421875 33.890625 -1.421875 
Q 20.796875 -1.421875 13.15625 6.1875 
Q 5.515625 13.8125 5.515625 26.8125 
Q 5.515625 40.234375 12.765625 48.109375 
Q 20.015625 56 32.328125 56 
Q 43.359375 56 49.78125 48.890625 
Q 56.203125 41.796875 56.203125 29.59375 
z
M 47.21875 32.234375 
Q 47.125 39.59375 43.09375 43.984375 
Q 39.0625 48.390625 32.421875 48.390625 
Q 24.90625 48.390625 20.390625 44.140625 
Q 15.875 39.890625 15.1875 32.171875 
z
" id="DejaVuSans-65"/>
      <path d="M 48.78125 52.59375 
L 48.78125 44.1875 
Q 44.96875 46.296875 41.140625 47.34375 
Q 37.3125 48.390625 33.40625 48.390625 
Q 24.65625 48.390625 19.8125 42.84375 
Q 14.984375 37.3125 14.984375 27.296875 
Q 14.984375 17.28125 19.8125 11.734375 
Q 24.65625 6.203125 33.40625 6.203125 
Q 37.3125 6.203125 41.140625 7.25 
Q 44.96875 8.296875 48.78125 10.40625 
L 48.78125 2.09375 
Q 45.015625 0.34375 40.984375 -0.53125 
Q 36.96875 -1.421875 32.421875 -1.421875 
Q 20.0625 -1.421875 12.78125 6.34375 
Q 5.515625 14.109375 5.515625 27.296875 
Q 5.515625 40.671875 12.859375 48.328125 
Q 20.21875 56 33.015625 56 
Q 37.15625 56 41.109375 55.140625 
Q 45.0625 54.296875 48.78125 52.59375 
z
" id="DejaVuSans-63"/>
      <path d="M 18.3125 70.21875 
L 18.3125 54.6875 
L 36.8125 54.6875 
L 36.8125 47.703125 
L 18.3125 47.703125 
L 18.3125 18.015625 
Q 18.3125 11.328125 20.140625 9.421875 
Q 21.96875 7.515625 27.59375 7.515625 
L 36.8125 7.515625 
L 36.8125 0 
L 27.59375 0 
Q 17.1875 0 13.234375 3.875 
Q 9.28125 7.765625 9.28125 18.015625 
L 9.28125 47.703125 
L 2.6875 47.703125 
L 2.6875 54.6875 
L 9.28125 54.6875 
L 9.28125 70.21875 
z
" id="DejaVuSans-74"/>
      <path id="DejaVuSans-20"/>
      <path d="M 9.421875 75.984375 
L 18.40625 75.984375 
L 18.40625 0 
L 9.421875 0 
z
" id="DejaVuSans-6c"/>
      <path d="M 34.28125 27.484375 
Q 23.390625 27.484375 19.1875 25 
Q 14.984375 22.515625 14.984375 16.5 
Q 14.984375 11.71875 18.140625 8.90625 
Q 21.296875 6.109375 26.703125 6.109375 
Q 34.1875 6.109375 38.703125 11.40625 
Q 43.21875 16.703125 43.21875 25.484375 
L 43.21875 27.484375 
z
M 52.203125 31.203125 
L 52.203125 0 
L 43.21875 0 
L 43.21875 8.296875 
Q 40.140625 3.328125 35.546875 0.953125 
Q 30.953125 -1.421875 24.3125 -1.421875 
Q 15.921875 -1.421875 10.953125 3.296875 
Q 6 8.015625 6 15.921875 
Q 6 25.140625 12.171875 29.828125 
Q 18.359375 34.515625 30.609375 34.515625 
L 43.21875 34.515625 
L 43.21875 35.40625 
Q 43.21875 41.609375 39.140625 45 
Q 35.0625 48.390625 27.6875 48.390625 
Q 23 48.390625 18.546875 47.265625 
Q 14.109375 46.140625 10.015625 43.890625 
L 10.015625 52.203125 
Q 14.9375 54.109375 19.578125 55.046875 
Q 24.21875 56 28.609375 56 
Q 40.484375 56 46.34375 49.84375 
Q 52.203125 43.703125 52.203125 31.203125 
z
" id="DejaVuSans-61"/>
      <path d="M 44.28125 53.078125 
L 44.28125 44.578125 
Q 40.484375 46.53125 36.375 47.5 
Q 32.28125 48.484375 27.875 48.484375 
Q 21.1875 48.484375 17.84375 46.4375 
Q 14.5 44.390625 14.5 40.28125 
Q 14.5 37.15625 16.890625 35.375 
Q 19.28125 33.59375 26.515625 31.984375 
L 29.59375 31.296875 
Q 39.15625 29.25 43.1875 25.515625 
Q 47.21875 21.78125 47.21875 15.09375 
Q 47.21875 7.46875 41.1875 3.015625 
Q 35.15625 -1.421875 24.609375 -1.421875 
Q 20.21875 -1.421875 15.453125 -0.5625 
Q 10.6875 0.296875 5.421875 2 
L 5.421875 11.28125 
Q 10.40625 8.6875 15.234375 7.390625 
Q 20.0625 6.109375 24.8125 6.109375 
Q 31.15625 6.109375 34.5625 8.28125 
Q 37.984375 10.453125 37.984375 14.40625 
Q 37.984375 18.0625 35.515625 20.015625 
Q 33.0625 21.96875 24.703125 23.78125 
L 21.578125 24.515625 
Q 13.234375 26.265625 9.515625 29.90625 
Q 5.8125 33.546875 5.8125 39.890625 
Q 5.8125 47.609375 11.28125 51.796875 
Q 16.75 56 26.8125 56 
Q 31.78125 56 36.171875 55.265625 
Q 40.578125 54.546875 44.28125 53.078125 
z
" id="DejaVuSans-73"/>
      <path d="M 19.671875 64.796875 
L 19.671875 37.40625 
L 32.078125 37.40625 
Q 38.96875 37.40625 42.71875 40.96875 
Q 46.484375 44.53125 46.484375 51.125 
Q 46.484375 57.671875 42.71875 61.234375 
Q 38.96875 64.796875 32.078125 64.796875 
z
M 9.8125 72.90625 
L 32.078125 72.90625 
Q 44.34375 72.90625 50.609375 67.359375 
Q 56.890625 61.8125 56.890625 51.125 
Q 56.890625 40.328125 50.609375 34.8125 
Q 44.34375 29.296875 32.078125 29.296875 
L 19.671875 29.296875 
L 19.671875 0 
L 9.8125 0 
z
" id="DejaVuSans-50"/>
      <path d="M 48.6875 27.296875 
Q 48.6875 37.203125 44.609375 42.84375 
Q 40.53125 48.484375 33.40625 48.484375 
Q 26.265625 48.484375 22.1875 42.84375 
Q 18.109375 37.203125 18.109375 27.296875 
Q 18.109375 17.390625 22.1875 11.75 
Q 26.265625 6.109375 33.40625 6.109375 
Q 40.53125 6.109375 44.609375 11.75 
Q 48.6875 17.390625 48.6875 27.296875 
z
M 18.109375 46.390625 
Q 20.953125 51.265625 25.265625 53.625 
Q 29.59375 56 35.59375 56 
Q 45.5625 56 51.78125 48.09375 
Q 58.015625 40.1875 58.015625 27.296875 
Q 58.015625 14.40625 51.78125 6.484375 
Q 45.5625 -1.421875 35.59375 -1.421875 
Q 29.59375 -1.421875 25.265625 0.953125 
Q 20.953125 3.328125 18.109375 8.203125 
L 18.109375 0 
L 9.078125 0 
L 9.078125 75.984375 
L 18.109375 75.984375 
z
" id="DejaVuSans-62"/>
      <path d="M 9.421875 54.6875 
L 18.40625 54.6875 
L 18.40625 0 
L 9.421875 0 
z
M 9.421875 75.984375 
L 18.40625 75.984375 
L 18.40625 64.59375 
L 9.421875 64.59375 
z
" id="DejaVuSans-69"/>
      <path d="M 32.171875 -5.078125 
Q 28.375 -14.84375 24.75 -17.8125 
Q 21.140625 -20.796875 15.09375 -20.796875 
L 7.90625 -20.796875 
L 7.90625 -13.28125 
L 13.1875 -13.28125 
Q 16.890625 -13.28125 18.9375 -11.515625 
Q 21 -9.765625 23.484375 -3.21875 
L 25.09375 0.875 
L 2.984375 54.6875 
L 12.5 54.6875 
L 29.59375 11.921875 
L 46.6875 54.6875 
L 56.203125 54.6875 
z
" id="DejaVuSans-79"/>
     </defs>
     <g transform="translate(183.209219 316.706687)scale(0.1 -0.1)">
      <use xlink:href="#DejaVuSans-43"/>
      <use x="69.824219" xlink:href="#DejaVuSans-6f"/>
      <use x="131.005859" xlink:href="#DejaVuSans-72"/>
      <use x="172.103516" xlink:href="#DejaVuSans-72"/>
      <use x="213.185547" xlink:href="#DejaVuSans-65"/>
      <use x="274.708984" xlink:href="#DejaVuSans-63"/>
      <use x="329.689453" xlink:href="#DejaVuSans-74"/>
      <use x="368.898438" xlink:href="#DejaVuSans-20"/>
      <use x="400.685547" xlink:href="#DejaVuSans-43"/>
      <use x="470.509766" xlink:href="#DejaVuSans-6c"/>
      <use x="498.292969" xlink:href="#DejaVuSans-61"/>
      <use x="559.572266" xlink:href="#DejaVuSans-73"/>
      <use x="611.671875" xlink:href="#DejaVuSans-73"/>
      <use x="663.771484" xlink:href="#DejaVuSans-20"/>
      <use x="695.558594" xlink:href="#DejaVuSans-50"/>
      <use x="755.845703" xlink:href="#DejaVuSans-72"/>
      <use x="796.927734" xlink:href="#DejaVuSans-6f"/>
      <use x="858.109375" xlink:href="#DejaVuSans-62"/>
      <use x="921.585938" xlink:href="#DejaVuSans-61"/>
      <use x="982.865234" xlink:href="#DejaVuSans-62"/>
      <use x="1046.341797" xlink:href="#DejaVuSans-69"/>
      <use x="1074.125" xlink:href="#DejaVuSans-6c"/>
      <use x="1101.908203" xlink:href="#DejaVuSans-69"/>
      <use x="1129.691406" xlink:href="#DejaVuSans-74"/>
      <use x="1168.900391" xlink:href="#DejaVuSans-79"/>
     </g>
    </g>
   </g>
   <g id="matplotlib.axis_2">
    <g id="ytick_1">
     <g id="line2d_9">
      <defs>
       <path d="M 0 0 
L -3.5 0 
" id="m0b6d4fb56b" style="stroke:#000000;stroke-width:0.8;"/>
      </defs>
      <g>
       <use style="stroke:#000000;stroke-width:0.8;" x="66.053125" xlink:href="#m0b6d4fb56b" y="272.096687"/>
      </g>
     </g>
     <g id="text_10">
      <!-- 100000 -->
      <g transform="translate(20.878125 275.895906)scale(0.1 -0.1)">
       <use xlink:href="#DejaVuSans-31"/>
       <use x="63.623047" xlink:href="#DejaVuSans-30"/>
       <use x="127.246094" xlink:href="#DejaVuSans-30"/>
       <use x="190.869141" xlink:href="#DejaVuSans-30"/>
       <use x="254.492188" xlink:href="#DejaVuSans-30"/>
       <use x="318.115234" xlink:href="#DejaVuSans-30"/>
      </g>
     </g>
    </g>
    <g id="ytick_2">
     <g id="line2d_10">
      <g>
       <use style="stroke:#000000;stroke-width:0.8;" x="66.053125" xlink:href="#m0b6d4fb56b" y="240.858508"/>
      </g>
     </g>
     <g id="text_11">
      <!-- 125000 -->
      <g transform="translate(20.878125 244.657727)scale(0.1 -0.1)">
       <use xlink:href="#DejaVuSans-31"/>
       <use x="63.623047" xlink:href="#DejaVuSans-32"/>
       <use x="127.246094" xlink:href="#DejaVuSans-35"/>
       <use x="190.869141" xlink:href="#DejaVuSans-30"/>
       <use x="254.492188" xlink:href="#DejaVuSans-30"/>
       <use x="318.115234" xlink:href="#DejaVuSans-30"/>
      </g>
     </g>
    </g>
    <g id="ytick_3">
     <g id="line2d_11">
      <g>
       <use style="stroke:#000000;stroke-width:0.8;" x="66.053125" xlink:href="#m0b6d4fb56b" y="209.62033"/>
      </g>
     </g>
     <g id="text_12">
      <!-- 150000 -->
      <g transform="translate(20.878125 213.419549)scale(0.1 -0.1)">
       <use xlink:href="#DejaVuSans-31"/>
       <use x="63.623047" xlink:href="#DejaVuSans-35"/>
       <use x="127.246094" xlink:href="#DejaVuSans-30"/>
       <use x="190.869141" xlink:href="#DejaVuSans-30"/>
       <use x="254.492188" xlink:href="#DejaVuSans-30"/>
       <use x="318.115234" xlink:href="#DejaVuSans-30"/>
      </g>
     </g>
    </g>
    <g id="ytick_4">
     <g id="line2d_12">
      <g>
       <use style="stroke:#000000;stroke-width:0.8;" x="66.053125" xlink:href="#m0b6d4fb56b" y="178.382151"/>
      </g>
     </g>
     <g id="text_13">
      <!-- 175000 -->
      <g transform="translate(20.878125 182.18137)scale(0.1 -0.1)">
       <use xlink:href="#DejaVuSans-31"/>
       <use x="63.623047" xlink:href="#DejaVuSans-37"/>
       <use x="127.246094" xlink:href="#DejaVuSans-35"/>
       <use x="190.869141" xlink:href="#DejaVuSans-30"/>
       <use x="254.492188" xlink:href="#DejaVuSans-30"/>
       <use x="318.115234" xlink:href="#DejaVuSans-30"/>
      </g>
     </g>
    </g>
    <g id="ytick_5">
     <g id="line2d_13">
      <g>
       <use style="stroke:#000000;stroke-width:0.8;" x="66.053125" xlink:href="#m0b6d4fb56b" y="147.143973"/>
      </g>
     </g>
     <g id="text_14">
      <!-- 200000 -->
      <g transform="translate(20.878125 150.943192)scale(0.1 -0.1)">
       <use xlink:href="#DejaVuSans-32"/>
       <use x="63.623047" xlink:href="#DejaVuSans-30"/>
       <use x="127.246094" xlink:href="#DejaVuSans-30"/>
       <use x="190.869141" xlink:href="#DejaVuSans-30"/>
       <use x="254.492188" xlink:href="#DejaVuSans-30"/>
       <use x="318.115234" xlink:href="#DejaVuSans-30"/>
      </g>
     </g>
    </g>
    <g id="ytick_6">
     <g id="line2d_14">
      <g>
       <use style="stroke:#000000;stroke-width:0.8;" x="66.053125" xlink:href="#m0b6d4fb56b" y="115.905794"/>
      </g>
     </g>
     <g id="text_15">
      <!-- 225000 -->
      <g transform="translate(20.878125 119.705013)scale(0.1 -0.1)">
       <use xlink:href="#DejaVuSans-32"/>
       <use x="63.623047" xlink:href="#DejaVuSans-32"/>
       <use x="127.246094" xlink:href="#DejaVuSans-35"/>
       <use x="190.869141" xlink:href="#DejaVuSans-30"/>
       <use x="254.492188" xlink:href="#DejaVuSans-30"/>
       <use x="318.115234" xlink:href="#DejaVuSans-30"/>
      </g>
     </g>
    </g>
    <g id="ytick_7">
     <g id="line2d_15">
      <g>
       <use style="stroke:#000000;stroke-width:0.8;" x="66.053125" xlink:href="#m0b6d4fb56b" y="84.667616"/>
      </g>
     </g>
     <g id="text_16">
      <!-- 250000 -->
      <g transform="translate(20.878125 88.466835)scale(0.1 -0.1)">
       <use xlink:href="#DejaVuSans-32"/>
       <use x="63.623047" xlink:href="#DejaVuSans-35"/>
       <use x="127.246094" xlink:href="#DejaVuSans-30"/>
       <use x="190.869141" xlink:href="#DejaVuSans-30"/>
       <use x="254.492188" xlink:href="#DejaVuSans-30"/>
       <use x="318.115234" xlink:href="#DejaVuSans-30"/>
      </g>
     </g>
    </g>
    <g id="ytick_8">
     <g id="line2d_16">
      <g>
       <use style="stroke:#000000;stroke-width:0.8;" x="66.053125" xlink:href="#m0b6d4fb56b" y="53.429437"/>
      </g>
     </g>
     <g id="text_17">
      <!-- 275000 -->
      <g transform="translate(20.878125 57.228656)scale(0.1 -0.1)">
       <use xlink:href="#DejaVuSans-32"/>
       <use x="63.623047" xlink:href="#DejaVuSans-37"/>
       <use x="127.246094" xlink:href="#DejaVuSans-35"/>
       <use x="190.869141" xlink:href="#DejaVuSans-30"/>
       <use x="254.492188" xlink:href="#DejaVuSans-30"/>
       <use x="318.115234" xlink:href="#DejaVuSans-30"/>
      </g>
     </g>
    </g>
    <g id="ytick_9">
     <g id="line2d_17">
      <g>
       <use style="stroke:#000000;stroke-width:0.8;" x="66.053125" xlink:href="#m0b6d4fb56b" y="22.191259"/>
      </g>
     </g>
     <g id="text_18">
      <!-- 300000 -->
      <g transform="translate(20.878125 25.990478)scale(0.1 -0.1)">
       <use xlink:href="#DejaVuSans-33"/>
       <use x="63.623047" xlink:href="#DejaVuSans-30"/>
       <use x="127.246094" xlink:href="#DejaVuSans-30"/>
       <use x="190.869141" xlink:href="#DejaVuSans-30"/>
       <use x="254.492188" xlink:href="#DejaVuSans-30"/>
       <use x="318.115234" xlink:href="#DejaVuSans-30"/>
      </g>
     </g>
    </g>
    <g id="text_19">
     <!-- Persistence Distance -->
     <defs>
      <path d="M 54.890625 33.015625 
L 54.890625 0 
L 45.90625 0 
L 45.90625 32.71875 
Q 45.90625 40.484375 42.875 44.328125 
Q 39.84375 48.1875 33.796875 48.1875 
Q 26.515625 48.1875 22.3125 43.546875 
Q 18.109375 38.921875 18.109375 30.90625 
L 18.109375 0 
L 9.078125 0 
L 9.078125 54.6875 
L 18.109375 54.6875 
L 18.109375 46.1875 
Q 21.34375 51.125 25.703125 53.5625 
Q 30.078125 56 35.796875 56 
Q 45.21875 56 50.046875 50.171875 
Q 54.890625 44.34375 54.890625 33.015625 
z
" id="DejaVuSans-6e"/>
      <path d="M 19.671875 64.796875 
L 19.671875 8.109375 
L 31.59375 8.109375 
Q 46.6875 8.109375 53.6875 14.9375 
Q 60.6875 21.78125 60.6875 36.53125 
Q 60.6875 51.171875 53.6875 57.984375 
Q 46.6875 64.796875 31.59375 64.796875 
z
M 9.8125 72.90625 
L 30.078125 72.90625 
Q 51.265625 72.90625 61.171875 64.09375 
Q 71.09375 55.28125 71.09375 36.53125 
Q 71.09375 17.671875 61.125 8.828125 
Q 51.171875 0 30.078125 0 
L 9.8125 0 
z
" id="DejaVuSans-44"/>
     </defs>
     <g transform="translate(14.798438 207.599906)rotate(-90)scale(0.1 -0.1)">
      <use xlink:href="#DejaVuSans-50"/>
      <use x="60.255859" xlink:href="#DejaVuSans-65"/>
      <use x="121.779297" xlink:href="#DejaVuSans-72"/>
      <use x="162.892578" xlink:href="#DejaVuSans-73"/>
      <use x="214.992188" xlink:href="#DejaVuSans-69"/>
      <use x="242.775391" xlink:href="#DejaVuSans-73"/>
      <use x="294.875" xlink:href="#DejaVuSans-74"/>
      <use x="334.083984" xlink:href="#DejaVuSans-65"/>
      <use x="395.607422" xlink:href="#DejaVuSans-6e"/>
      <use x="458.986328" xlink:href="#DejaVuSans-63"/>
      <use x="513.966797" xlink:href="#DejaVuSans-65"/>
      <use x="575.490234" xlink:href="#DejaVuSans-20"/>
      <use x="607.277344" xlink:href="#DejaVuSans-44"/>
      <use x="684.279297" xlink:href="#DejaVuSans-69"/>
      <use x="712.0625" xlink:href="#DejaVuSans-73"/>
      <use x="764.162109" xlink:href="#DejaVuSans-74"/>
      <use x="803.371094" xlink:href="#DejaVuSans-61"/>
      <use x="864.650391" xlink:href="#DejaVuSans-6e"/>
      <use x="928.029297" xlink:href="#DejaVuSans-63"/>
      <use x="983.009766" xlink:href="#DejaVuSans-65"/>
     </g>
    </g>
   </g>
   <g id="patch_3">
    <path d="M 66.053125 288.430125 
L 66.053125 22.318125 
" style="fill:none;stroke:#000000;stroke-linecap:square;stroke-linejoin:miter;stroke-width:0.8;"/>
   </g>
   <g id="patch_4">
    <path d="M 423.173125 288.430125 
L 423.173125 22.318125 
" style="fill:none;stroke:#000000;stroke-linecap:square;stroke-linejoin:miter;stroke-width:0.8;"/>
   </g>
   <g id="patch_5">
    <path d="M 66.053125 288.430125 
L 423.173125 288.430125 
" style="fill:none;stroke:#000000;stroke-linecap:square;stroke-linejoin:miter;stroke-width:0.8;"/>
   </g>
   <g id="patch_6">
    <path d="M 66.053125 22.318125 
L 423.173125 22.318125 
" style="fill:none;stroke:#000000;stroke-linecap:square;stroke-linejoin:miter;stroke-width:0.8;"/>
   </g>
   <g id="text_20">
    <!-- Correct Class Probability vs Persistence Distance -->
    <defs>
     <path d="M 2.984375 54.6875 
L 12.5 54.6875 
L 29.59375 8.796875 
L 46.6875 54.6875 
L 56.203125 54.6875 
L 35.6875 0 
L 23.484375 0 
z
" id="DejaVuSans-76"/>
    </defs>
    <g transform="translate(97.766875 16.318125)scale(0.12 -0.12)">
     <use xlink:href="#DejaVuSans-43"/>
     <use x="69.824219" xlink:href="#DejaVuSans-6f"/>
     <use x="131.005859" xlink:href="#DejaVuSans-72"/>
     <use x="172.103516" xlink:href="#DejaVuSans-72"/>
     <use x="213.185547" xlink:href="#DejaVuSans-65"/>
     <use x="274.708984" xlink:href="#DejaVuSans-63"/>
     <use x="329.689453" xlink:href="#DejaVuSans-74"/>
     <use x="368.898438" xlink:href="#DejaVuSans-20"/>
     <use x="400.685547" xlink:href="#DejaVuSans-43"/>
     <use x="470.509766" xlink:href="#DejaVuSans-6c"/>
     <use x="498.292969" xlink:href="#DejaVuSans-61"/>
     <use x="559.572266" xlink:href="#DejaVuSans-73"/>
     <use x="611.671875" xlink:href="#DejaVuSans-73"/>
     <use x="663.771484" xlink:href="#DejaVuSans-20"/>
     <use x="695.558594" xlink:href="#DejaVuSans-50"/>
     <use x="755.845703" xlink:href="#DejaVuSans-72"/>
     <use x="796.927734" xlink:href="#DejaVuSans-6f"/>
     <use x="858.109375" xlink:href="#DejaVuSans-62"/>
     <use x="921.585938" xlink:href="#DejaVuSans-61"/>
     <use x="982.865234" xlink:href="#DejaVuSans-62"/>
     <use x="1046.341797" xlink:href="#DejaVuSans-69"/>
     <use x="1074.125" xlink:href="#DejaVuSans-6c"/>
     <use x="1101.908203" xlink:href="#DejaVuSans-69"/>
     <use x="1129.691406" xlink:href="#DejaVuSans-74"/>
     <use x="1168.900391" xlink:href="#DejaVuSans-79"/>
     <use x="1228.080078" xlink:href="#DejaVuSans-20"/>
     <use x="1259.867188" xlink:href="#DejaVuSans-76"/>
     <use x="1319.046875" xlink:href="#DejaVuSans-73"/>
     <use x="1371.146484" xlink:href="#DejaVuSans-20"/>
     <use x="1402.933594" xlink:href="#DejaVuSans-50"/>
     <use x="1463.189453" xlink:href="#DejaVuSans-65"/>
     <use x="1524.712891" xlink:href="#DejaVuSans-72"/>
     <use x="1565.826172" xlink:href="#DejaVuSans-73"/>
     <use x="1617.925781" xlink:href="#DejaVuSans-69"/>
     <use x="1645.708984" xlink:href="#DejaVuSans-73"/>
     <use x="1697.808594" xlink:href="#DejaVuSans-74"/>
     <use x="1737.017578" xlink:href="#DejaVuSans-65"/>
     <use x="1798.541016" xlink:href="#DejaVuSans-6e"/>
     <use x="1861.919922" xlink:href="#DejaVuSans-63"/>
     <use x="1916.900391" xlink:href="#DejaVuSans-65"/>
     <use x="1978.423828" xlink:href="#DejaVuSans-20"/>
     <use x="2010.210938" xlink:href="#DejaVuSans-44"/>
     <use x="2087.212891" xlink:href="#DejaVuSans-69"/>
     <use x="2114.996094" xlink:href="#DejaVuSans-73"/>
     <use x="2167.095703" xlink:href="#DejaVuSans-74"/>
     <use x="2206.304688" xlink:href="#DejaVuSans-61"/>
     <use x="2267.583984" xlink:href="#DejaVuSans-6e"/>
     <use x="2330.962891" xlink:href="#DejaVuSans-63"/>
     <use x="2385.943359" xlink:href="#DejaVuSans-65"/>
    </g>
   </g>
  </g>
 </g>
 <defs>
  <clipPath id="p2832521e4a">
   <rect height="266.112" width="357.12" x="66.053125" y="22.318125"/>
  </clipPath>
 </defs>
</svg>
