<?xml version="1.0" encoding="utf-8" standalone="no"?>
<!DOCTYPE svg PUBLIC "-//W3C//DTD SVG 1.1//EN"
  "http://www.w3.org/Graphics/SVG/1.1/DTD/svg11.dtd">
<!-- Created with matplotlib (http://matplotlib.org/) -->
<svg height="325pt" version="1.1" viewBox="0 0 440 325" width="440pt" xmlns="http://www.w3.org/2000/svg" xmlns:xlink="http://www.w3.org/1999/xlink">
 <defs>
  <style type="text/css">
*{stroke-linecap:butt;stroke-linejoin:round;}
  </style>
 </defs>
 <g id="figure_1">
  <g id="patch_1">
   <path d="M 0 325.986375 
L 440.235625 325.986375 
L 440.235625 0 
L 0 0 
z
" style="fill:#ffffff;"/>
  </g>
  <g id="axes_1">
   <g id="patch_2">
    <path d="M 72.415625 288.430125 
L 429.535625 288.430125 
L 429.535625 22.318125 
L 72.415625 22.318125 
z
" style="fill:#ffffff;"/>
   </g>
   <g id="PathCollection_1">
    <defs>
     <path d="M 0 3 
C 0.795609 3 1.55874 2.683901 2.12132 2.12132 
C 2.683901 1.55874 3 0.795609 3 0 
C 3 -0.795609 2.683901 -1.55874 2.12132 -2.12132 
C 1.55874 -2.683901 0.795609 -3 0 -3 
C -0.795609 -3 -1.55874 -2.683901 -2.12132 -2.12132 
C -2.683901 -1.55874 -3 -0.795609 -3 0 
C -3 0.795609 -2.683901 1.55874 -2.12132 2.12132 
C -1.55874 2.683901 -0.795609 3 0 3 
z
" id="mba34b64b3e" style="stroke:#000000;"/>
    </defs>
    <g clip-path="url(#p456848f75c)">
     <use style="stroke:#000000;" x="72.415625" xlink:href="#mba34b64b3e" y="109.534779"/>
     <use style="stroke:#000000;" x="72.415625" xlink:href="#mba34b64b3e" y="109.562824"/>
     <use style="stroke:#000000;" x="72.415625" xlink:href="#mba34b64b3e" y="107.351162"/>
     <use style="stroke:#000000;" x="72.415625" xlink:href="#mba34b64b3e" y="106.615287"/>
     <use style="stroke:#000000;" x="72.415625" xlink:href="#mba34b64b3e" y="104.331984"/>
     <use style="stroke:#000000;" x="72.415625" xlink:href="#mba34b64b3e" y="101.948603"/>
     <use style="stroke:#000000;" x="72.415625" xlink:href="#mba34b64b3e" y="97.322067"/>
     <use style="stroke:#000000;" x="72.415625" xlink:href="#mba34b64b3e" y="80.736917"/>
     <use style="stroke:#000000;" x="72.415625" xlink:href="#mba34b64b3e" y="74.374771"/>
     <use style="stroke:#000000;" x="72.415625" xlink:href="#mba34b64b3e" y="80.587582"/>
     <use style="stroke:#000000;" x="72.415625" xlink:href="#mba34b64b3e" y="75.903589"/>
     <use style="stroke:#000000;" x="72.415625" xlink:href="#mba34b64b3e" y="71.749396"/>
     <use style="stroke:#000000;" x="72.415625" xlink:href="#mba34b64b3e" y="67.140949"/>
     <use style="stroke:#000000;" x="72.415625" xlink:href="#mba34b64b3e" y="61.042467"/>
     <use style="stroke:#000000;" x="72.415625" xlink:href="#mba34b64b3e" y="61.064265"/>
     <use style="stroke:#000000;" x="72.415625" xlink:href="#mba34b64b3e" y="59.497837"/>
     <use style="stroke:#000000;" x="72.415625" xlink:href="#mba34b64b3e" y="50.148982"/>
     <use style="stroke:#000000;" x="72.415625" xlink:href="#mba34b64b3e" y="50.122954"/>
     <use style="stroke:#000000;" x="72.415871" xlink:href="#mba34b64b3e" y="47.274975"/>
     <use style="stroke:#000000;" x="72.415871" xlink:href="#mba34b64b3e" y="34.31487"/>
     <use style="stroke:#000000;" x="72.415871" xlink:href="#mba34b64b3e" y="35.40876"/>
     <use style="stroke:#000000;" x="72.415871" xlink:href="#mba34b64b3e" y="39.518381"/>
     <use style="stroke:#000000;" x="72.415871" xlink:href="#mba34b64b3e" y="37.776199"/>
     <use style="stroke:#000000;" x="72.416117" xlink:href="#mba34b64b3e" y="35.512156"/>
     <use style="stroke:#000000;" x="72.416117" xlink:href="#mba34b64b3e" y="35.371996"/>
     <use style="stroke:#000000;" x="72.416363" xlink:href="#mba34b64b3e" y="34.501035"/>
     <use style="stroke:#000000;" x="72.416363" xlink:href="#mba34b64b3e" y="34.456332"/>
     <use style="stroke:#000000;" x="72.416609" xlink:href="#mba34b64b3e" y="30.118771"/>
     <use style="stroke:#000000;" x="72.416855" xlink:href="#mba34b64b3e" y="34.721622"/>
     <use style="stroke:#000000;" x="72.417101" xlink:href="#mba34b64b3e" y="29.895516"/>
     <use style="stroke:#000000;" x="72.417347" xlink:href="#mba34b64b3e" y="27.272158"/>
     <use style="stroke:#000000;" x="72.417838" xlink:href="#mba34b64b3e" y="24.793254"/>
     <use style="stroke:#000000;" x="72.41833" xlink:href="#mba34b64b3e" y="24.579435"/>
     <use style="stroke:#000000;" x="72.419068" xlink:href="#mba34b64b3e" y="23.252594"/>
     <use style="stroke:#000000;" x="72.419806" xlink:href="#mba34b64b3e" y="25.383504"/>
     <use style="stroke:#000000;" x="72.42079" xlink:href="#mba34b64b3e" y="22.318125"/>
     <use style="stroke:#000000;" x="72.42202" xlink:href="#mba34b64b3e" y="25.106306"/>
     <use style="stroke:#000000;" x="72.423495" xlink:href="#mba34b64b3e" y="27.443552"/>
     <use style="stroke:#000000;" x="72.425217" xlink:href="#mba34b64b3e" y="24.967447"/>
     <use style="stroke:#000000;" x="72.42743" xlink:href="#mba34b64b3e" y="23.417481"/>
     <use style="stroke:#000000;" x="72.430136" xlink:href="#mba34b64b3e" y="24.127459"/>
     <use style="stroke:#000000;" x="72.433333" xlink:href="#mba34b64b3e" y="31.517839"/>
     <use style="stroke:#000000;" x="72.437022" xlink:href="#mba34b64b3e" y="28.654308"/>
     <use style="stroke:#000000;" x="72.442187" xlink:href="#mba34b64b3e" y="28.657887"/>
     <use style="stroke:#000000;" x="72.448089" xlink:href="#mba34b64b3e" y="28.773191"/>
     <use style="stroke:#000000;" x="72.455713" xlink:href="#mba34b64b3e" y="27.292069"/>
     <use style="stroke:#000000;" x="72.464321" xlink:href="#mba34b64b3e" y="29.016422"/>
     <use style="stroke:#000000;" x="72.474896" xlink:href="#mba34b64b3e" y="26.63161"/>
     <use style="stroke:#000000;" x="72.488177" xlink:href="#mba34b64b3e" y="33.410268"/>
     <use style="stroke:#000000;" x="72.503917" xlink:href="#mba34b64b3e" y="34.810182"/>
     <use style="stroke:#000000;" x="72.523345" xlink:href="#mba34b64b3e" y="37.539084"/>
     <use style="stroke:#000000;" x="72.547446" xlink:href="#mba34b64b3e" y="36.643071"/>
     <use style="stroke:#000000;" x="72.576711" xlink:href="#mba34b64b3e" y="41.359273"/>
     <use style="stroke:#000000;" x="72.611632" xlink:href="#mba34b64b3e" y="45.811552"/>
     <use style="stroke:#000000;" x="72.6527" xlink:href="#mba34b64b3e" y="51.349783"/>
     <use style="stroke:#000000;" x="72.702621" xlink:href="#mba34b64b3e" y="51.297011"/>
     <use style="stroke:#000000;" x="72.763113" xlink:href="#mba34b64b3e" y="44.016273"/>
     <use style="stroke:#000000;" x="72.835899" xlink:href="#mba34b64b3e" y="41.403716"/>
     <use style="stroke:#000000;" x="72.924418" xlink:href="#mba34b64b3e" y="44.273299"/>
     <use style="stroke:#000000;" x="73.031374" xlink:href="#mba34b64b3e" y="48.912264"/>
     <use style="stroke:#000000;" x="73.16119" xlink:href="#mba34b64b3e" y="53.455055"/>
     <use style="stroke:#000000;" x="73.316072" xlink:href="#mba34b64b3e" y="58.122585"/>
     <use style="stroke:#000000;" x="73.496753" xlink:href="#mba34b64b3e" y="60.108128"/>
     <use style="stroke:#000000;" x="73.70888" xlink:href="#mba34b64b3e" y="69.460692"/>
     <use style="stroke:#000000;" x="73.960061" xlink:href="#mba34b64b3e" y="66.391669"/>
     <use style="stroke:#000000;" x="74.247825" xlink:href="#mba34b64b3e" y="70.842451"/>
     <use style="stroke:#000000;" x="74.586405" xlink:href="#mba34b64b3e" y="72.779387"/>
     <use style="stroke:#000000;" x="74.989534" xlink:href="#mba34b64b3e" y="66.529227"/>
     <use style="stroke:#000000;" x="75.467242" xlink:href="#mba34b64b3e" y="67.202831"/>
     <use style="stroke:#000000;" x="76.031752" xlink:href="#mba34b64b3e" y="64.3963"/>
     <use style="stroke:#000000;" x="76.703364" xlink:href="#mba34b64b3e" y="61.379073"/>
     <use style="stroke:#000000;" x="77.501601" xlink:href="#mba34b64b3e" y="70.700469"/>
     <use style="stroke:#000000;" x="78.440785" xlink:href="#mba34b64b3e" y="77.586492"/>
     <use style="stroke:#000000;" x="79.547927" xlink:href="#mba34b64b3e" y="81.943444"/>
     <use style="stroke:#000000;" x="80.856316" xlink:href="#mba34b64b3e" y="80.205426"/>
     <use style="stroke:#000000;" x="82.423329" xlink:href="#mba34b64b3e" y="74.756537"/>
     <use style="stroke:#000000;" x="84.235418" xlink:href="#mba34b64b3e" y="81.792677"/>
     <use style="stroke:#000000;" x="86.363757" xlink:href="#mba34b64b3e" y="83.939463"/>
     <use style="stroke:#000000;" x="88.901547" xlink:href="#mba34b64b3e" y="103.153567"/>
     <use style="stroke:#000000;" x="91.748357" xlink:href="#mba34b64b3e" y="102.741154"/>
     <use style="stroke:#000000;" x="95.051301" xlink:href="#mba34b64b3e" y="119.269498"/>
     <use style="stroke:#000000;" x="98.887823" xlink:href="#mba34b64b3e" y="125.165027"/>
     <use style="stroke:#000000;" x="103.241862" xlink:href="#mba34b64b3e" y="138.306547"/>
     <use style="stroke:#000000;" x="108.337099" xlink:href="#mba34b64b3e" y="143.936916"/>
     <use style="stroke:#000000;" x="114.260337" xlink:href="#mba34b64b3e" y="156.679948"/>
     <use style="stroke:#000000;" x="121.066887" xlink:href="#mba34b64b3e" y="169.017789"/>
     <use style="stroke:#000000;" x="128.963114" xlink:href="#mba34b64b3e" y="175.809461"/>
     <use style="stroke:#000000;" x="138.171129" xlink:href="#mba34b64b3e" y="183.369479"/>
     <use style="stroke:#000000;" x="148.892308" xlink:href="#mba34b64b3e" y="189.986113"/>
     <use style="stroke:#000000;" x="161.36022" xlink:href="#mba34b64b3e" y="191.261939"/>
     <use style="stroke:#000000;" x="175.742353" xlink:href="#mba34b64b3e" y="200.117043"/>
     <use style="stroke:#000000;" x="192.237698" xlink:href="#mba34b64b3e" y="213.773201"/>
     <use style="stroke:#000000;" x="211.197584" xlink:href="#mba34b64b3e" y="225.762658"/>
     <use style="stroke:#000000;" x="232.715508" xlink:href="#mba34b64b3e" y="241.684875"/>
     <use style="stroke:#000000;" x="256.543929" xlink:href="#mba34b64b3e" y="249.769422"/>
     <use style="stroke:#000000;" x="283.701864" xlink:href="#mba34b64b3e" y="259.893064"/>
     <use style="stroke:#000000;" x="314.89116" xlink:href="#mba34b64b3e" y="261.976212"/>
     <use style="stroke:#000000;" x="350.09114" xlink:href="#mba34b64b3e" y="269.475324"/>
     <use style="stroke:#000000;" x="388.183841" xlink:href="#mba34b64b3e" y="285.063278"/>
     <use style="stroke:#000000;" x="429.535625" xlink:href="#mba34b64b3e" y="288.430125"/>
    </g>
   </g>
   <g id="matplotlib.axis_1">
    <g id="xtick_1">
     <g id="line2d_1">
      <defs>
       <path d="M 0 0 
L 0 3.5 
" id="m909f464cb5" style="stroke:#000000;stroke-width:0.8;"/>
      </defs>
      <g>
       <use style="stroke:#000000;stroke-width:0.8;" x="72.415625" xlink:href="#m909f464cb5" y="288.430125"/>
      </g>
     </g>
     <g id="text_1">
      <!-- 0.00 -->
      <defs>
       <path d="M 31.78125 66.40625 
Q 24.171875 66.40625 20.328125 58.90625 
Q 16.5 51.421875 16.5 36.375 
Q 16.5 21.390625 20.328125 13.890625 
Q 24.171875 6.390625 31.78125 6.390625 
Q 39.453125 6.390625 43.28125 13.890625 
Q 47.125 21.390625 47.125 36.375 
Q 47.125 51.421875 43.28125 58.90625 
Q 39.453125 66.40625 31.78125 66.40625 
z
M 31.78125 74.21875 
Q 44.046875 74.21875 50.515625 64.515625 
Q 56.984375 54.828125 56.984375 36.375 
Q 56.984375 17.96875 50.515625 8.265625 
Q 44.046875 -1.421875 31.78125 -1.421875 
Q 19.53125 -1.421875 13.0625 8.265625 
Q 6.59375 17.96875 6.59375 36.375 
Q 6.59375 54.828125 13.0625 64.515625 
Q 19.53125 74.21875 31.78125 74.21875 
z
" id="DejaVuSans-30"/>
       <path d="M 10.6875 12.40625 
L 21 12.40625 
L 21 0 
L 10.6875 0 
z
" id="DejaVuSans-2e"/>
      </defs>
      <g transform="translate(61.282813 303.028562)scale(0.1 -0.1)">
       <use xlink:href="#DejaVuSans-30"/>
       <use x="63.623047" xlink:href="#DejaVuSans-2e"/>
       <use x="95.410156" xlink:href="#DejaVuSans-30"/>
       <use x="159.033203" xlink:href="#DejaVuSans-30"/>
      </g>
     </g>
    </g>
    <g id="xtick_2">
     <g id="line2d_2">
      <g>
       <use style="stroke:#000000;stroke-width:0.8;" x="113.678017" xlink:href="#m909f464cb5" y="288.430125"/>
      </g>
     </g>
     <g id="text_2">
      <!-- 0.02 -->
      <defs>
       <path d="M 19.1875 8.296875 
L 53.609375 8.296875 
L 53.609375 0 
L 7.328125 0 
L 7.328125 8.296875 
Q 12.9375 14.109375 22.625 23.890625 
Q 32.328125 33.6875 34.8125 36.53125 
Q 39.546875 41.84375 41.421875 45.53125 
Q 43.3125 49.21875 43.3125 52.78125 
Q 43.3125 58.59375 39.234375 62.25 
Q 35.15625 65.921875 28.609375 65.921875 
Q 23.96875 65.921875 18.8125 64.3125 
Q 13.671875 62.703125 7.8125 59.421875 
L 7.8125 69.390625 
Q 13.765625 71.78125 18.9375 73 
Q 24.125 74.21875 28.421875 74.21875 
Q 39.75 74.21875 46.484375 68.546875 
Q 53.21875 62.890625 53.21875 53.421875 
Q 53.21875 48.921875 51.53125 44.890625 
Q 49.859375 40.875 45.40625 35.40625 
Q 44.1875 33.984375 37.640625 27.21875 
Q 31.109375 20.453125 19.1875 8.296875 
z
" id="DejaVuSans-32"/>
      </defs>
      <g transform="translate(102.545205 303.028562)scale(0.1 -0.1)">
       <use xlink:href="#DejaVuSans-30"/>
       <use x="63.623047" xlink:href="#DejaVuSans-2e"/>
       <use x="95.410156" xlink:href="#DejaVuSans-30"/>
       <use x="159.033203" xlink:href="#DejaVuSans-32"/>
      </g>
     </g>
    </g>
    <g id="xtick_3">
     <g id="line2d_3">
      <g>
       <use style="stroke:#000000;stroke-width:0.8;" x="154.94041" xlink:href="#m909f464cb5" y="288.430125"/>
      </g>
     </g>
     <g id="text_3">
      <!-- 0.04 -->
      <defs>
       <path d="M 37.796875 64.3125 
L 12.890625 25.390625 
L 37.796875 25.390625 
z
M 35.203125 72.90625 
L 47.609375 72.90625 
L 47.609375 25.390625 
L 58.015625 25.390625 
L 58.015625 17.1875 
L 47.609375 17.1875 
L 47.609375 0 
L 37.796875 0 
L 37.796875 17.1875 
L 4.890625 17.1875 
L 4.890625 26.703125 
z
" id="DejaVuSans-34"/>
      </defs>
      <g transform="translate(143.807597 303.028562)scale(0.1 -0.1)">
       <use xlink:href="#DejaVuSans-30"/>
       <use x="63.623047" xlink:href="#DejaVuSans-2e"/>
       <use x="95.410156" xlink:href="#DejaVuSans-30"/>
       <use x="159.033203" xlink:href="#DejaVuSans-34"/>
      </g>
     </g>
    </g>
    <g id="xtick_4">
     <g id="line2d_4">
      <g>
       <use style="stroke:#000000;stroke-width:0.8;" x="196.202802" xlink:href="#m909f464cb5" y="288.430125"/>
      </g>
     </g>
     <g id="text_4">
      <!-- 0.06 -->
      <defs>
       <path d="M 33.015625 40.375 
Q 26.375 40.375 22.484375 35.828125 
Q 18.609375 31.296875 18.609375 23.390625 
Q 18.609375 15.53125 22.484375 10.953125 
Q 26.375 6.390625 33.015625 6.390625 
Q 39.65625 6.390625 43.53125 10.953125 
Q 47.40625 15.53125 47.40625 23.390625 
Q 47.40625 31.296875 43.53125 35.828125 
Q 39.65625 40.375 33.015625 40.375 
z
M 52.59375 71.296875 
L 52.59375 62.3125 
Q 48.875 64.0625 45.09375 64.984375 
Q 41.3125 65.921875 37.59375 65.921875 
Q 27.828125 65.921875 22.671875 59.328125 
Q 17.53125 52.734375 16.796875 39.40625 
Q 19.671875 43.65625 24.015625 45.921875 
Q 28.375 48.1875 33.59375 48.1875 
Q 44.578125 48.1875 50.953125 41.515625 
Q 57.328125 34.859375 57.328125 23.390625 
Q 57.328125 12.15625 50.6875 5.359375 
Q 44.046875 -1.421875 33.015625 -1.421875 
Q 20.359375 -1.421875 13.671875 8.265625 
Q 6.984375 17.96875 6.984375 36.375 
Q 6.984375 53.65625 15.1875 63.9375 
Q 23.390625 74.21875 37.203125 74.21875 
Q 40.921875 74.21875 44.703125 73.484375 
Q 48.484375 72.75 52.59375 71.296875 
z
" id="DejaVuSans-36"/>
      </defs>
      <g transform="translate(185.06999 303.028562)scale(0.1 -0.1)">
       <use xlink:href="#DejaVuSans-30"/>
       <use x="63.623047" xlink:href="#DejaVuSans-2e"/>
       <use x="95.410156" xlink:href="#DejaVuSans-30"/>
       <use x="159.033203" xlink:href="#DejaVuSans-36"/>
      </g>
     </g>
    </g>
    <g id="xtick_5">
     <g id="line2d_5">
      <g>
       <use style="stroke:#000000;stroke-width:0.8;" x="237.465194" xlink:href="#m909f464cb5" y="288.430125"/>
      </g>
     </g>
     <g id="text_5">
      <!-- 0.08 -->
      <defs>
       <path d="M 31.78125 34.625 
Q 24.75 34.625 20.71875 30.859375 
Q 16.703125 27.09375 16.703125 20.515625 
Q 16.703125 13.921875 20.71875 10.15625 
Q 24.75 6.390625 31.78125 6.390625 
Q 38.8125 6.390625 42.859375 10.171875 
Q 46.921875 13.96875 46.921875 20.515625 
Q 46.921875 27.09375 42.890625 30.859375 
Q 38.875 34.625 31.78125 34.625 
z
M 21.921875 38.8125 
Q 15.578125 40.375 12.03125 44.71875 
Q 8.5 49.078125 8.5 55.328125 
Q 8.5 64.0625 14.71875 69.140625 
Q 20.953125 74.21875 31.78125 74.21875 
Q 42.671875 74.21875 48.875 69.140625 
Q 55.078125 64.0625 55.078125 55.328125 
Q 55.078125 49.078125 51.53125 44.71875 
Q 48 40.375 41.703125 38.8125 
Q 48.828125 37.15625 52.796875 32.3125 
Q 56.78125 27.484375 56.78125 20.515625 
Q 56.78125 9.90625 50.3125 4.234375 
Q 43.84375 -1.421875 31.78125 -1.421875 
Q 19.734375 -1.421875 13.25 4.234375 
Q 6.78125 9.90625 6.78125 20.515625 
Q 6.78125 27.484375 10.78125 32.3125 
Q 14.796875 37.15625 21.921875 38.8125 
z
M 18.3125 54.390625 
Q 18.3125 48.734375 21.84375 45.5625 
Q 25.390625 42.390625 31.78125 42.390625 
Q 38.140625 42.390625 41.71875 45.5625 
Q 45.3125 48.734375 45.3125 54.390625 
Q 45.3125 60.0625 41.71875 63.234375 
Q 38.140625 66.40625 31.78125 66.40625 
Q 25.390625 66.40625 21.84375 63.234375 
Q 18.3125 60.0625 18.3125 54.390625 
z
" id="DejaVuSans-38"/>
      </defs>
      <g transform="translate(226.332382 303.028562)scale(0.1 -0.1)">
       <use xlink:href="#DejaVuSans-30"/>
       <use x="63.623047" xlink:href="#DejaVuSans-2e"/>
       <use x="95.410156" xlink:href="#DejaVuSans-30"/>
       <use x="159.033203" xlink:href="#DejaVuSans-38"/>
      </g>
     </g>
    </g>
    <g id="xtick_6">
     <g id="line2d_6">
      <g>
       <use style="stroke:#000000;stroke-width:0.8;" x="278.727587" xlink:href="#m909f464cb5" y="288.430125"/>
      </g>
     </g>
     <g id="text_6">
      <!-- 0.10 -->
      <defs>
       <path d="M 12.40625 8.296875 
L 28.515625 8.296875 
L 28.515625 63.921875 
L 10.984375 60.40625 
L 10.984375 69.390625 
L 28.421875 72.90625 
L 38.28125 72.90625 
L 38.28125 8.296875 
L 54.390625 8.296875 
L 54.390625 0 
L 12.40625 0 
z
" id="DejaVuSans-31"/>
      </defs>
      <g transform="translate(267.594774 303.028562)scale(0.1 -0.1)">
       <use xlink:href="#DejaVuSans-30"/>
       <use x="63.623047" xlink:href="#DejaVuSans-2e"/>
       <use x="95.410156" xlink:href="#DejaVuSans-31"/>
       <use x="159.033203" xlink:href="#DejaVuSans-30"/>
      </g>
     </g>
    </g>
    <g id="xtick_7">
     <g id="line2d_7">
      <g>
       <use style="stroke:#000000;stroke-width:0.8;" x="319.989979" xlink:href="#m909f464cb5" y="288.430125"/>
      </g>
     </g>
     <g id="text_7">
      <!-- 0.12 -->
      <g transform="translate(308.857167 303.028562)scale(0.1 -0.1)">
       <use xlink:href="#DejaVuSans-30"/>
       <use x="63.623047" xlink:href="#DejaVuSans-2e"/>
       <use x="95.410156" xlink:href="#DejaVuSans-31"/>
       <use x="159.033203" xlink:href="#DejaVuSans-32"/>
      </g>
     </g>
    </g>
    <g id="xtick_8">
     <g id="line2d_8">
      <g>
       <use style="stroke:#000000;stroke-width:0.8;" x="361.252372" xlink:href="#m909f464cb5" y="288.430125"/>
      </g>
     </g>
     <g id="text_8">
      <!-- 0.14 -->
      <g transform="translate(350.119559 303.028562)scale(0.1 -0.1)">
       <use xlink:href="#DejaVuSans-30"/>
       <use x="63.623047" xlink:href="#DejaVuSans-2e"/>
       <use x="95.410156" xlink:href="#DejaVuSans-31"/>
       <use x="159.033203" xlink:href="#DejaVuSans-34"/>
      </g>
     </g>
    </g>
    <g id="xtick_9">
     <g id="line2d_9">
      <g>
       <use style="stroke:#000000;stroke-width:0.8;" x="402.514764" xlink:href="#m909f464cb5" y="288.430125"/>
      </g>
     </g>
     <g id="text_9">
      <!-- 0.16 -->
      <g transform="translate(391.381951 303.028562)scale(0.1 -0.1)">
       <use xlink:href="#DejaVuSans-30"/>
       <use x="63.623047" xlink:href="#DejaVuSans-2e"/>
       <use x="95.410156" xlink:href="#DejaVuSans-31"/>
       <use x="159.033203" xlink:href="#DejaVuSans-36"/>
      </g>
     </g>
    </g>
    <g id="text_10">
     <!-- Cross-Entropy -->
     <defs>
      <path d="M 64.40625 67.28125 
L 64.40625 56.890625 
Q 59.421875 61.53125 53.78125 63.8125 
Q 48.140625 66.109375 41.796875 66.109375 
Q 29.296875 66.109375 22.65625 58.46875 
Q 16.015625 50.828125 16.015625 36.375 
Q 16.015625 21.96875 22.65625 14.328125 
Q 29.296875 6.6875 41.796875 6.6875 
Q 48.140625 6.6875 53.78125 8.984375 
Q 59.421875 11.28125 64.40625 15.921875 
L 64.40625 5.609375 
Q 59.234375 2.09375 53.4375 0.328125 
Q 47.65625 -1.421875 41.21875 -1.421875 
Q 24.65625 -1.421875 15.125 8.703125 
Q 5.609375 18.84375 5.609375 36.375 
Q 5.609375 53.953125 15.125 64.078125 
Q 24.65625 74.21875 41.21875 74.21875 
Q 47.75 74.21875 53.53125 72.484375 
Q 59.328125 70.75 64.40625 67.28125 
z
" id="DejaVuSans-43"/>
      <path d="M 41.109375 46.296875 
Q 39.59375 47.171875 37.8125 47.578125 
Q 36.03125 48 33.890625 48 
Q 26.265625 48 22.1875 43.046875 
Q 18.109375 38.09375 18.109375 28.8125 
L 18.109375 0 
L 9.078125 0 
L 9.078125 54.6875 
L 18.109375 54.6875 
L 18.109375 46.1875 
Q 20.953125 51.171875 25.484375 53.578125 
Q 30.03125 56 36.53125 56 
Q 37.453125 56 38.578125 55.875 
Q 39.703125 55.765625 41.0625 55.515625 
z
" id="DejaVuSans-72"/>
      <path d="M 30.609375 48.390625 
Q 23.390625 48.390625 19.1875 42.75 
Q 14.984375 37.109375 14.984375 27.296875 
Q 14.984375 17.484375 19.15625 11.84375 
Q 23.34375 6.203125 30.609375 6.203125 
Q 37.796875 6.203125 41.984375 11.859375 
Q 46.1875 17.53125 46.1875 27.296875 
Q 46.1875 37.015625 41.984375 42.703125 
Q 37.796875 48.390625 30.609375 48.390625 
z
M 30.609375 56 
Q 42.328125 56 49.015625 48.375 
Q 55.71875 40.765625 55.71875 27.296875 
Q 55.71875 13.875 49.015625 6.21875 
Q 42.328125 -1.421875 30.609375 -1.421875 
Q 18.84375 -1.421875 12.171875 6.21875 
Q 5.515625 13.875 5.515625 27.296875 
Q 5.515625 40.765625 12.171875 48.375 
Q 18.84375 56 30.609375 56 
z
" id="DejaVuSans-6f"/>
      <path d="M 44.28125 53.078125 
L 44.28125 44.578125 
Q 40.484375 46.53125 36.375 47.5 
Q 32.28125 48.484375 27.875 48.484375 
Q 21.1875 48.484375 17.84375 46.4375 
Q 14.5 44.390625 14.5 40.28125 
Q 14.5 37.15625 16.890625 35.375 
Q 19.28125 33.59375 26.515625 31.984375 
L 29.59375 31.296875 
Q 39.15625 29.25 43.1875 25.515625 
Q 47.21875 21.78125 47.21875 15.09375 
Q 47.21875 7.46875 41.1875 3.015625 
Q 35.15625 -1.421875 24.609375 -1.421875 
Q 20.21875 -1.421875 15.453125 -0.5625 
Q 10.6875 0.296875 5.421875 2 
L 5.421875 11.28125 
Q 10.40625 8.6875 15.234375 7.390625 
Q 20.0625 6.109375 24.8125 6.109375 
Q 31.15625 6.109375 34.5625 8.28125 
Q 37.984375 10.453125 37.984375 14.40625 
Q 37.984375 18.0625 35.515625 20.015625 
Q 33.0625 21.96875 24.703125 23.78125 
L 21.578125 24.515625 
Q 13.234375 26.265625 9.515625 29.90625 
Q 5.8125 33.546875 5.8125 39.890625 
Q 5.8125 47.609375 11.28125 51.796875 
Q 16.75 56 26.8125 56 
Q 31.78125 56 36.171875 55.265625 
Q 40.578125 54.546875 44.28125 53.078125 
z
" id="DejaVuSans-73"/>
      <path d="M 4.890625 31.390625 
L 31.203125 31.390625 
L 31.203125 23.390625 
L 4.890625 23.390625 
z
" id="DejaVuSans-2d"/>
      <path d="M 9.8125 72.90625 
L 55.90625 72.90625 
L 55.90625 64.59375 
L 19.671875 64.59375 
L 19.671875 43.015625 
L 54.390625 43.015625 
L 54.390625 34.71875 
L 19.671875 34.71875 
L 19.671875 8.296875 
L 56.78125 8.296875 
L 56.78125 0 
L 9.8125 0 
z
" id="DejaVuSans-45"/>
      <path d="M 54.890625 33.015625 
L 54.890625 0 
L 45.90625 0 
L 45.90625 32.71875 
Q 45.90625 40.484375 42.875 44.328125 
Q 39.84375 48.1875 33.796875 48.1875 
Q 26.515625 48.1875 22.3125 43.546875 
Q 18.109375 38.921875 18.109375 30.90625 
L 18.109375 0 
L 9.078125 0 
L 9.078125 54.6875 
L 18.109375 54.6875 
L 18.109375 46.1875 
Q 21.34375 51.125 25.703125 53.5625 
Q 30.078125 56 35.796875 56 
Q 45.21875 56 50.046875 50.171875 
Q 54.890625 44.34375 54.890625 33.015625 
z
" id="DejaVuSans-6e"/>
      <path d="M 18.3125 70.21875 
L 18.3125 54.6875 
L 36.8125 54.6875 
L 36.8125 47.703125 
L 18.3125 47.703125 
L 18.3125 18.015625 
Q 18.3125 11.328125 20.140625 9.421875 
Q 21.96875 7.515625 27.59375 7.515625 
L 36.8125 7.515625 
L 36.8125 0 
L 27.59375 0 
Q 17.1875 0 13.234375 3.875 
Q 9.28125 7.765625 9.28125 18.015625 
L 9.28125 47.703125 
L 2.6875 47.703125 
L 2.6875 54.6875 
L 9.28125 54.6875 
L 9.28125 70.21875 
z
" id="DejaVuSans-74"/>
      <path d="M 18.109375 8.203125 
L 18.109375 -20.796875 
L 9.078125 -20.796875 
L 9.078125 54.6875 
L 18.109375 54.6875 
L 18.109375 46.390625 
Q 20.953125 51.265625 25.265625 53.625 
Q 29.59375 56 35.59375 56 
Q 45.5625 56 51.78125 48.09375 
Q 58.015625 40.1875 58.015625 27.296875 
Q 58.015625 14.40625 51.78125 6.484375 
Q 45.5625 -1.421875 35.59375 -1.421875 
Q 29.59375 -1.421875 25.265625 0.953125 
Q 20.953125 3.328125 18.109375 8.203125 
z
M 48.6875 27.296875 
Q 48.6875 37.203125 44.609375 42.84375 
Q 40.53125 48.484375 33.40625 48.484375 
Q 26.265625 48.484375 22.1875 42.84375 
Q 18.109375 37.203125 18.109375 27.296875 
Q 18.109375 17.390625 22.1875 11.75 
Q 26.265625 6.109375 33.40625 6.109375 
Q 40.53125 6.109375 44.609375 11.75 
Q 48.6875 17.390625 48.6875 27.296875 
z
" id="DejaVuSans-70"/>
      <path d="M 32.171875 -5.078125 
Q 28.375 -14.84375 24.75 -17.8125 
Q 21.140625 -20.796875 15.09375 -20.796875 
L 7.90625 -20.796875 
L 7.90625 -13.28125 
L 13.1875 -13.28125 
Q 16.890625 -13.28125 18.9375 -11.515625 
Q 21 -9.765625 23.484375 -3.21875 
L 25.09375 0.875 
L 2.984375 54.6875 
L 12.5 54.6875 
L 29.59375 11.921875 
L 46.6875 54.6875 
L 56.203125 54.6875 
z
" id="DejaVuSans-79"/>
     </defs>
     <g transform="translate(215.8225 316.706687)scale(0.1 -0.1)">
      <use xlink:href="#DejaVuSans-43"/>
      <use x="69.824219" xlink:href="#DejaVuSans-72"/>
      <use x="110.90625" xlink:href="#DejaVuSans-6f"/>
      <use x="172.087891" xlink:href="#DejaVuSans-73"/>
      <use x="224.1875" xlink:href="#DejaVuSans-73"/>
      <use x="276.287109" xlink:href="#DejaVuSans-2d"/>
      <use x="312.371094" xlink:href="#DejaVuSans-45"/>
      <use x="375.554688" xlink:href="#DejaVuSans-6e"/>
      <use x="438.933594" xlink:href="#DejaVuSans-74"/>
      <use x="478.142578" xlink:href="#DejaVuSans-72"/>
      <use x="519.224609" xlink:href="#DejaVuSans-6f"/>
      <use x="580.40625" xlink:href="#DejaVuSans-70"/>
      <use x="643.882812" xlink:href="#DejaVuSans-79"/>
     </g>
    </g>
   </g>
   <g id="matplotlib.axis_2">
    <g id="ytick_1">
     <g id="line2d_10">
      <defs>
       <path d="M 0 0 
L -3.5 0 
" id="me84916f9e6" style="stroke:#000000;stroke-width:0.8;"/>
      </defs>
      <g>
       <use style="stroke:#000000;stroke-width:0.8;" x="72.415625" xlink:href="#me84916f9e6" y="247.385195"/>
      </g>
     </g>
     <g id="text_11">
      <!-- 2400000 -->
      <g transform="translate(20.878125 251.184414)scale(0.1 -0.1)">
       <use xlink:href="#DejaVuSans-32"/>
       <use x="63.623047" xlink:href="#DejaVuSans-34"/>
       <use x="127.246094" xlink:href="#DejaVuSans-30"/>
       <use x="190.869141" xlink:href="#DejaVuSans-30"/>
       <use x="254.492188" xlink:href="#DejaVuSans-30"/>
       <use x="318.115234" xlink:href="#DejaVuSans-30"/>
       <use x="381.738281" xlink:href="#DejaVuSans-30"/>
      </g>
     </g>
    </g>
    <g id="ytick_2">
     <g id="line2d_11">
      <g>
       <use style="stroke:#000000;stroke-width:0.8;" x="72.415625" xlink:href="#me84916f9e6" y="195.329264"/>
      </g>
     </g>
     <g id="text_12">
      <!-- 2600000 -->
      <g transform="translate(20.878125 199.128483)scale(0.1 -0.1)">
       <use xlink:href="#DejaVuSans-32"/>
       <use x="63.623047" xlink:href="#DejaVuSans-36"/>
       <use x="127.246094" xlink:href="#DejaVuSans-30"/>
       <use x="190.869141" xlink:href="#DejaVuSans-30"/>
       <use x="254.492188" xlink:href="#DejaVuSans-30"/>
       <use x="318.115234" xlink:href="#DejaVuSans-30"/>
       <use x="381.738281" xlink:href="#DejaVuSans-30"/>
      </g>
     </g>
    </g>
    <g id="ytick_3">
     <g id="line2d_12">
      <g>
       <use style="stroke:#000000;stroke-width:0.8;" x="72.415625" xlink:href="#me84916f9e6" y="143.273333"/>
      </g>
     </g>
     <g id="text_13">
      <!-- 2800000 -->
      <g transform="translate(20.878125 147.072552)scale(0.1 -0.1)">
       <use xlink:href="#DejaVuSans-32"/>
       <use x="63.623047" xlink:href="#DejaVuSans-38"/>
       <use x="127.246094" xlink:href="#DejaVuSans-30"/>
       <use x="190.869141" xlink:href="#DejaVuSans-30"/>
       <use x="254.492188" xlink:href="#DejaVuSans-30"/>
       <use x="318.115234" xlink:href="#DejaVuSans-30"/>
       <use x="381.738281" xlink:href="#DejaVuSans-30"/>
      </g>
     </g>
    </g>
    <g id="ytick_4">
     <g id="line2d_13">
      <g>
       <use style="stroke:#000000;stroke-width:0.8;" x="72.415625" xlink:href="#me84916f9e6" y="91.217403"/>
      </g>
     </g>
     <g id="text_14">
      <!-- 3000000 -->
      <defs>
       <path d="M 40.578125 39.3125 
Q 47.65625 37.796875 51.625 33 
Q 55.609375 28.21875 55.609375 21.1875 
Q 55.609375 10.40625 48.1875 4.484375 
Q 40.765625 -1.421875 27.09375 -1.421875 
Q 22.515625 -1.421875 17.65625 -0.515625 
Q 12.796875 0.390625 7.625 2.203125 
L 7.625 11.71875 
Q 11.71875 9.328125 16.59375 8.109375 
Q 21.484375 6.890625 26.8125 6.890625 
Q 36.078125 6.890625 40.9375 10.546875 
Q 45.796875 14.203125 45.796875 21.1875 
Q 45.796875 27.640625 41.28125 31.265625 
Q 36.765625 34.90625 28.71875 34.90625 
L 20.21875 34.90625 
L 20.21875 43.015625 
L 29.109375 43.015625 
Q 36.375 43.015625 40.234375 45.921875 
Q 44.09375 48.828125 44.09375 54.296875 
Q 44.09375 59.90625 40.109375 62.90625 
Q 36.140625 65.921875 28.71875 65.921875 
Q 24.65625 65.921875 20.015625 65.03125 
Q 15.375 64.15625 9.8125 62.3125 
L 9.8125 71.09375 
Q 15.4375 72.65625 20.34375 73.4375 
Q 25.25 74.21875 29.59375 74.21875 
Q 40.828125 74.21875 47.359375 69.109375 
Q 53.90625 64.015625 53.90625 55.328125 
Q 53.90625 49.265625 50.4375 45.09375 
Q 46.96875 40.921875 40.578125 39.3125 
z
" id="DejaVuSans-33"/>
      </defs>
      <g transform="translate(20.878125 95.016622)scale(0.1 -0.1)">
       <use xlink:href="#DejaVuSans-33"/>
       <use x="63.623047" xlink:href="#DejaVuSans-30"/>
       <use x="127.246094" xlink:href="#DejaVuSans-30"/>
       <use x="190.869141" xlink:href="#DejaVuSans-30"/>
       <use x="254.492188" xlink:href="#DejaVuSans-30"/>
       <use x="318.115234" xlink:href="#DejaVuSans-30"/>
       <use x="381.738281" xlink:href="#DejaVuSans-30"/>
      </g>
     </g>
    </g>
    <g id="ytick_5">
     <g id="line2d_14">
      <g>
       <use style="stroke:#000000;stroke-width:0.8;" x="72.415625" xlink:href="#me84916f9e6" y="39.161472"/>
      </g>
     </g>
     <g id="text_15">
      <!-- 3200000 -->
      <g transform="translate(20.878125 42.960691)scale(0.1 -0.1)">
       <use xlink:href="#DejaVuSans-33"/>
       <use x="63.623047" xlink:href="#DejaVuSans-32"/>
       <use x="127.246094" xlink:href="#DejaVuSans-30"/>
       <use x="190.869141" xlink:href="#DejaVuSans-30"/>
       <use x="254.492188" xlink:href="#DejaVuSans-30"/>
       <use x="318.115234" xlink:href="#DejaVuSans-30"/>
       <use x="381.738281" xlink:href="#DejaVuSans-30"/>
      </g>
     </g>
    </g>
    <g id="text_16">
     <!-- Persistence Distance -->
     <defs>
      <path d="M 19.671875 64.796875 
L 19.671875 37.40625 
L 32.078125 37.40625 
Q 38.96875 37.40625 42.71875 40.96875 
Q 46.484375 44.53125 46.484375 51.125 
Q 46.484375 57.671875 42.71875 61.234375 
Q 38.96875 64.796875 32.078125 64.796875 
z
M 9.8125 72.90625 
L 32.078125 72.90625 
Q 44.34375 72.90625 50.609375 67.359375 
Q 56.890625 61.8125 56.890625 51.125 
Q 56.890625 40.328125 50.609375 34.8125 
Q 44.34375 29.296875 32.078125 29.296875 
L 19.671875 29.296875 
L 19.671875 0 
L 9.8125 0 
z
" id="DejaVuSans-50"/>
      <path d="M 56.203125 29.59375 
L 56.203125 25.203125 
L 14.890625 25.203125 
Q 15.484375 15.921875 20.484375 11.0625 
Q 25.484375 6.203125 34.421875 6.203125 
Q 39.59375 6.203125 44.453125 7.46875 
Q 49.3125 8.734375 54.109375 11.28125 
L 54.109375 2.78125 
Q 49.265625 0.734375 44.1875 -0.34375 
Q 39.109375 -1.421875 33.890625 -1.421875 
Q 20.796875 -1.421875 13.15625 6.1875 
Q 5.515625 13.8125 5.515625 26.8125 
Q 5.515625 40.234375 12.765625 48.109375 
Q 20.015625 56 32.328125 56 
Q 43.359375 56 49.78125 48.890625 
Q 56.203125 41.796875 56.203125 29.59375 
z
M 47.21875 32.234375 
Q 47.125 39.59375 43.09375 43.984375 
Q 39.0625 48.390625 32.421875 48.390625 
Q 24.90625 48.390625 20.390625 44.140625 
Q 15.875 39.890625 15.1875 32.171875 
z
" id="DejaVuSans-65"/>
      <path d="M 9.421875 54.6875 
L 18.40625 54.6875 
L 18.40625 0 
L 9.421875 0 
z
M 9.421875 75.984375 
L 18.40625 75.984375 
L 18.40625 64.59375 
L 9.421875 64.59375 
z
" id="DejaVuSans-69"/>
      <path d="M 48.78125 52.59375 
L 48.78125 44.1875 
Q 44.96875 46.296875 41.140625 47.34375 
Q 37.3125 48.390625 33.40625 48.390625 
Q 24.65625 48.390625 19.8125 42.84375 
Q 14.984375 37.3125 14.984375 27.296875 
Q 14.984375 17.28125 19.8125 11.734375 
Q 24.65625 6.203125 33.40625 6.203125 
Q 37.3125 6.203125 41.140625 7.25 
Q 44.96875 8.296875 48.78125 10.40625 
L 48.78125 2.09375 
Q 45.015625 0.34375 40.984375 -0.53125 
Q 36.96875 -1.421875 32.421875 -1.421875 
Q 20.0625 -1.421875 12.78125 6.34375 
Q 5.515625 14.109375 5.515625 27.296875 
Q 5.515625 40.671875 12.859375 48.328125 
Q 20.21875 56 33.015625 56 
Q 37.15625 56 41.109375 55.140625 
Q 45.0625 54.296875 48.78125 52.59375 
z
" id="DejaVuSans-63"/>
      <path id="DejaVuSans-20"/>
      <path d="M 19.671875 64.796875 
L 19.671875 8.109375 
L 31.59375 8.109375 
Q 46.6875 8.109375 53.6875 14.9375 
Q 60.6875 21.78125 60.6875 36.53125 
Q 60.6875 51.171875 53.6875 57.984375 
Q 46.6875 64.796875 31.59375 64.796875 
z
M 9.8125 72.90625 
L 30.078125 72.90625 
Q 51.265625 72.90625 61.171875 64.09375 
Q 71.09375 55.28125 71.09375 36.53125 
Q 71.09375 17.671875 61.125 8.828125 
Q 51.171875 0 30.078125 0 
L 9.8125 0 
z
" id="DejaVuSans-44"/>
      <path d="M 34.28125 27.484375 
Q 23.390625 27.484375 19.1875 25 
Q 14.984375 22.515625 14.984375 16.5 
Q 14.984375 11.71875 18.140625 8.90625 
Q 21.296875 6.109375 26.703125 6.109375 
Q 34.1875 6.109375 38.703125 11.40625 
Q 43.21875 16.703125 43.21875 25.484375 
L 43.21875 27.484375 
z
M 52.203125 31.203125 
L 52.203125 0 
L 43.21875 0 
L 43.21875 8.296875 
Q 40.140625 3.328125 35.546875 0.953125 
Q 30.953125 -1.421875 24.3125 -1.421875 
Q 15.921875 -1.421875 10.953125 3.296875 
Q 6 8.015625 6 15.921875 
Q 6 25.140625 12.171875 29.828125 
Q 18.359375 34.515625 30.609375 34.515625 
L 43.21875 34.515625 
L 43.21875 35.40625 
Q 43.21875 41.609375 39.140625 45 
Q 35.0625 48.390625 27.6875 48.390625 
Q 23 48.390625 18.546875 47.265625 
Q 14.109375 46.140625 10.015625 43.890625 
L 10.015625 52.203125 
Q 14.9375 54.109375 19.578125 55.046875 
Q 24.21875 56 28.609375 56 
Q 40.484375 56 46.34375 49.84375 
Q 52.203125 43.703125 52.203125 31.203125 
z
" id="DejaVuSans-61"/>
     </defs>
     <g transform="translate(14.798438 207.599906)rotate(-90)scale(0.1 -0.1)">
      <use xlink:href="#DejaVuSans-50"/>
      <use x="60.255859" xlink:href="#DejaVuSans-65"/>
      <use x="121.779297" xlink:href="#DejaVuSans-72"/>
      <use x="162.892578" xlink:href="#DejaVuSans-73"/>
      <use x="214.992188" xlink:href="#DejaVuSans-69"/>
      <use x="242.775391" xlink:href="#DejaVuSans-73"/>
      <use x="294.875" xlink:href="#DejaVuSans-74"/>
      <use x="334.083984" xlink:href="#DejaVuSans-65"/>
      <use x="395.607422" xlink:href="#DejaVuSans-6e"/>
      <use x="458.986328" xlink:href="#DejaVuSans-63"/>
      <use x="513.966797" xlink:href="#DejaVuSans-65"/>
      <use x="575.490234" xlink:href="#DejaVuSans-20"/>
      <use x="607.277344" xlink:href="#DejaVuSans-44"/>
      <use x="684.279297" xlink:href="#DejaVuSans-69"/>
      <use x="712.0625" xlink:href="#DejaVuSans-73"/>
      <use x="764.162109" xlink:href="#DejaVuSans-74"/>
      <use x="803.371094" xlink:href="#DejaVuSans-61"/>
      <use x="864.650391" xlink:href="#DejaVuSans-6e"/>
      <use x="928.029297" xlink:href="#DejaVuSans-63"/>
      <use x="983.009766" xlink:href="#DejaVuSans-65"/>
     </g>
    </g>
   </g>
   <g id="patch_3">
    <path d="M 72.415625 288.430125 
L 72.415625 22.318125 
" style="fill:none;stroke:#000000;stroke-linecap:square;stroke-linejoin:miter;stroke-width:0.8;"/>
   </g>
   <g id="patch_4">
    <path d="M 429.535625 288.430125 
L 429.535625 22.318125 
" style="fill:none;stroke:#000000;stroke-linecap:square;stroke-linejoin:miter;stroke-width:0.8;"/>
   </g>
   <g id="patch_5">
    <path d="M 72.415625 288.430125 
L 429.535625 288.430125 
" style="fill:none;stroke:#000000;stroke-linecap:square;stroke-linejoin:miter;stroke-width:0.8;"/>
   </g>
   <g id="patch_6">
    <path d="M 72.415625 22.318125 
L 429.535625 22.318125 
" style="fill:none;stroke:#000000;stroke-linecap:square;stroke-linejoin:miter;stroke-width:0.8;"/>
   </g>
   <g id="text_17">
    <!-- Cross-Entropy vs Persistence Distance -->
    <defs>
     <path d="M 2.984375 54.6875 
L 12.5 54.6875 
L 29.59375 8.796875 
L 46.6875 54.6875 
L 56.203125 54.6875 
L 35.6875 0 
L 23.484375 0 
z
" id="DejaVuSans-76"/>
    </defs>
    <g transform="translate(135.630313 16.318125)scale(0.12 -0.12)">
     <use xlink:href="#DejaVuSans-43"/>
     <use x="69.824219" xlink:href="#DejaVuSans-72"/>
     <use x="110.90625" xlink:href="#DejaVuSans-6f"/>
     <use x="172.087891" xlink:href="#DejaVuSans-73"/>
     <use x="224.1875" xlink:href="#DejaVuSans-73"/>
     <use x="276.287109" xlink:href="#DejaVuSans-2d"/>
     <use x="312.371094" xlink:href="#DejaVuSans-45"/>
     <use x="375.554688" xlink:href="#DejaVuSans-6e"/>
     <use x="438.933594" xlink:href="#DejaVuSans-74"/>
     <use x="478.142578" xlink:href="#DejaVuSans-72"/>
     <use x="519.224609" xlink:href="#DejaVuSans-6f"/>
     <use x="580.40625" xlink:href="#DejaVuSans-70"/>
     <use x="643.882812" xlink:href="#DejaVuSans-79"/>
     <use x="703.0625" xlink:href="#DejaVuSans-20"/>
     <use x="734.849609" xlink:href="#DejaVuSans-76"/>
     <use x="794.029297" xlink:href="#DejaVuSans-73"/>
     <use x="846.128906" xlink:href="#DejaVuSans-20"/>
     <use x="877.916016" xlink:href="#DejaVuSans-50"/>
     <use x="938.171875" xlink:href="#DejaVuSans-65"/>
     <use x="999.695312" xlink:href="#DejaVuSans-72"/>
     <use x="1040.808594" xlink:href="#DejaVuSans-73"/>
     <use x="1092.908203" xlink:href="#DejaVuSans-69"/>
     <use x="1120.691406" xlink:href="#DejaVuSans-73"/>
     <use x="1172.791016" xlink:href="#DejaVuSans-74"/>
     <use x="1212" xlink:href="#DejaVuSans-65"/>
     <use x="1273.523438" xlink:href="#DejaVuSans-6e"/>
     <use x="1336.902344" xlink:href="#DejaVuSans-63"/>
     <use x="1391.882812" xlink:href="#DejaVuSans-65"/>
     <use x="1453.40625" xlink:href="#DejaVuSans-20"/>
     <use x="1485.193359" xlink:href="#DejaVuSans-44"/>
     <use x="1562.195312" xlink:href="#DejaVuSans-69"/>
     <use x="1589.978516" xlink:href="#DejaVuSans-73"/>
     <use x="1642.078125" xlink:href="#DejaVuSans-74"/>
     <use x="1681.287109" xlink:href="#DejaVuSans-61"/>
     <use x="1742.566406" xlink:href="#DejaVuSans-6e"/>
     <use x="1805.945312" xlink:href="#DejaVuSans-63"/>
     <use x="1860.925781" xlink:href="#DejaVuSans-65"/>
    </g>
   </g>
  </g>
 </g>
 <defs>
  <clipPath id="p456848f75c">
   <rect height="266.112" width="357.12" x="72.415625" y="22.318125"/>
  </clipPath>
 </defs>
</svg>
