<?xml version="1.0" encoding="utf-8" standalone="no"?>
<!DOCTYPE svg PUBLIC "-//W3C//DTD SVG 1.1//EN"
  "http://www.w3.org/Graphics/SVG/1.1/DTD/svg11.dtd">
<!-- Created with matplotlib (http://matplotlib.org/) -->
<svg height="325pt" version="1.1" viewBox="0 0 440 325" width="440pt" xmlns="http://www.w3.org/2000/svg" xmlns:xlink="http://www.w3.org/1999/xlink">
 <defs>
  <style type="text/css">
*{stroke-linecap:butt;stroke-linejoin:round;}
  </style>
 </defs>
 <g id="figure_1">
  <g id="patch_1">
   <path d="M 0 325.986375 
L 440.235625 325.986375 
L 440.235625 0 
L 0 0 
z
" style="fill:#ffffff;"/>
  </g>
  <g id="axes_1">
   <g id="patch_2">
    <path d="M 72.415625 288.430125 
L 429.535625 288.430125 
L 429.535625 22.318125 
L 72.415625 22.318125 
z
" style="fill:#ffffff;"/>
   </g>
   <g id="PathCollection_1">
    <defs>
     <path d="M 0 3 
C 0.795609 3 1.55874 2.683901 2.12132 2.12132 
C 2.683901 1.55874 3 0.795609 3 0 
C 3 -0.795609 2.683901 -1.55874 2.12132 -2.12132 
C 1.55874 -2.683901 0.795609 -3 0 -3 
C -0.795609 -3 -1.55874 -2.683901 -2.12132 -2.12132 
C -2.683901 -1.55874 -3 -0.795609 -3 0 
C -3 0.795609 -2.683901 1.55874 -2.12132 2.12132 
C -1.55874 2.683901 -0.795609 3 0 3 
z
" id="m90eb066a20" style="stroke:#000000;"/>
    </defs>
    <g clip-path="url(#pf168c55b29)">
     <use style="stroke:#000000;" x="429.535625" xlink:href="#m90eb066a20" y="75.628284"/>
     <use style="stroke:#000000;" x="429.045856" xlink:href="#m90eb066a20" y="77.648275"/>
     <use style="stroke:#000000;" x="428.39944" xlink:href="#m90eb066a20" y="78.090779"/>
     <use style="stroke:#000000;" x="427.611156" xlink:href="#m90eb066a20" y="81.605586"/>
     <use style="stroke:#000000;" x="426.580262" xlink:href="#m90eb066a20" y="86.894025"/>
     <use style="stroke:#000000;" x="425.370727" xlink:href="#m90eb066a20" y="86.852999"/>
     <use style="stroke:#000000;" x="424.026999" xlink:href="#m90eb066a20" y="88.648503"/>
     <use style="stroke:#000000;" x="422.424974" xlink:href="#m90eb066a20" y="94.955523"/>
     <use style="stroke:#000000;" x="420.555806" xlink:href="#m90eb066a20" y="104.241059"/>
     <use style="stroke:#000000;" x="418.271108" xlink:href="#m90eb066a20" y="104.530303"/>
     <use style="stroke:#000000;" x="415.92942" xlink:href="#m90eb066a20" y="117.360159"/>
     <use style="stroke:#000000;" x="413.580627" xlink:href="#m90eb066a20" y="115.930942"/>
     <use style="stroke:#000000;" x="410.963554" xlink:href="#m90eb066a20" y="120.4157"/>
     <use style="stroke:#000000;" x="407.845343" xlink:href="#m90eb066a20" y="126.679114"/>
     <use style="stroke:#000000;" x="404.293713" xlink:href="#m90eb066a20" y="129.146927"/>
     <use style="stroke:#000000;" x="400.193584" xlink:href="#m90eb066a20" y="140.248617"/>
     <use style="stroke:#000000;" x="395.559364" xlink:href="#m90eb066a20" y="154.291737"/>
     <use style="stroke:#000000;" x="390.946817" xlink:href="#m90eb066a20" y="169.209334"/>
     <use style="stroke:#000000;" x="386.452635" xlink:href="#m90eb066a20" y="188.24566"/>
     <use style="stroke:#000000;" x="381.614141" xlink:href="#m90eb066a20" y="203.127274"/>
     <use style="stroke:#000000;" x="376.808032" xlink:href="#m90eb066a20" y="217.633807"/>
     <use style="stroke:#000000;" x="371.220424" xlink:href="#m90eb066a20" y="223.426718"/>
     <use style="stroke:#000000;" x="365.461389" xlink:href="#m90eb066a20" y="223.084352"/>
     <use style="stroke:#000000;" x="360.089212" xlink:href="#m90eb066a20" y="199.322329"/>
     <use style="stroke:#000000;" x="354.654148" xlink:href="#m90eb066a20" y="171.323371"/>
     <use style="stroke:#000000;" x="348.238002" xlink:href="#m90eb066a20" y="149.885571"/>
     <use style="stroke:#000000;" x="341.344061" xlink:href="#m90eb066a20" y="132.303225"/>
     <use style="stroke:#000000;" x="334.714954" xlink:href="#m90eb066a20" y="109.284618"/>
     <use style="stroke:#000000;" x="327.919446" xlink:href="#m90eb066a20" y="96.124716"/>
     <use style="stroke:#000000;" x="321.486015" xlink:href="#m90eb066a20" y="71.729207"/>
     <use style="stroke:#000000;" x="315.073173" xlink:href="#m90eb066a20" y="56.209822"/>
     <use style="stroke:#000000;" x="308.666016" xlink:href="#m90eb066a20" y="51.014827"/>
     <use style="stroke:#000000;" x="301.516771" xlink:href="#m90eb066a20" y="34.79047"/>
     <use style="stroke:#000000;" x="294.048138" xlink:href="#m90eb066a20" y="37.145308"/>
     <use style="stroke:#000000;" x="285.933985" xlink:href="#m90eb066a20" y="40.905201"/>
     <use style="stroke:#000000;" x="277.445516" xlink:href="#m90eb066a20" y="45.9109"/>
     <use style="stroke:#000000;" x="269.115951" xlink:href="#m90eb066a20" y="32.622037"/>
     <use style="stroke:#000000;" x="261.017466" xlink:href="#m90eb066a20" y="22.318125"/>
     <use style="stroke:#000000;" x="252.89897" xlink:href="#m90eb066a20" y="31.262034"/>
     <use style="stroke:#000000;" x="244.914694" xlink:href="#m90eb066a20" y="28.275637"/>
     <use style="stroke:#000000;" x="237.247738" xlink:href="#m90eb066a20" y="29.246517"/>
     <use style="stroke:#000000;" x="229.567142" xlink:href="#m90eb066a20" y="34.528519"/>
     <use style="stroke:#000000;" x="221.871274" xlink:href="#m90eb066a20" y="35.132028"/>
     <use style="stroke:#000000;" x="214.40479" xlink:href="#m90eb066a20" y="42.349182"/>
     <use style="stroke:#000000;" x="207.882621" xlink:href="#m90eb066a20" y="46.691383"/>
     <use style="stroke:#000000;" x="201.63832" xlink:href="#m90eb066a20" y="53.929567"/>
     <use style="stroke:#000000;" x="195.424597" xlink:href="#m90eb066a20" y="43.528838"/>
     <use style="stroke:#000000;" x="189.956094" xlink:href="#m90eb066a20" y="69.15754"/>
     <use style="stroke:#000000;" x="184.666497" xlink:href="#m90eb066a20" y="67.063586"/>
     <use style="stroke:#000000;" x="179.528239" xlink:href="#m90eb066a20" y="69.441896"/>
     <use style="stroke:#000000;" x="174.665933" xlink:href="#m90eb066a20" y="68.550348"/>
     <use style="stroke:#000000;" x="169.852865" xlink:href="#m90eb066a20" y="64.219953"/>
     <use style="stroke:#000000;" x="165.328146" xlink:href="#m90eb066a20" y="73.052177"/>
     <use style="stroke:#000000;" x="161.113011" xlink:href="#m90eb066a20" y="69.792954"/>
     <use style="stroke:#000000;" x="157.030908" xlink:href="#m90eb066a20" y="70.078033"/>
     <use style="stroke:#000000;" x="153.160975" xlink:href="#m90eb066a20" y="84.183345"/>
     <use style="stroke:#000000;" x="149.466393" xlink:href="#m90eb066a20" y="94.036132"/>
     <use style="stroke:#000000;" x="145.637898" xlink:href="#m90eb066a20" y="108.914648"/>
     <use style="stroke:#000000;" x="142.138226" xlink:href="#m90eb066a20" y="105.735256"/>
     <use style="stroke:#000000;" x="138.829537" xlink:href="#m90eb066a20" y="117.400909"/>
     <use style="stroke:#000000;" x="135.76269" xlink:href="#m90eb066a20" y="116.46331"/>
     <use style="stroke:#000000;" x="132.875686" xlink:href="#m90eb066a20" y="120.662111"/>
     <use style="stroke:#000000;" x="129.904819" xlink:href="#m90eb066a20" y="126.763557"/>
     <use style="stroke:#000000;" x="127.098578" xlink:href="#m90eb066a20" y="140.328396"/>
     <use style="stroke:#000000;" x="124.207968" xlink:href="#m90eb066a20" y="136.771325"/>
     <use style="stroke:#000000;" x="121.359858" xlink:href="#m90eb066a20" y="146.948873"/>
     <use style="stroke:#000000;" x="118.575545" xlink:href="#m90eb066a20" y="160.301994"/>
     <use style="stroke:#000000;" x="116.00899" xlink:href="#m90eb066a20" y="165.939132"/>
     <use style="stroke:#000000;" x="113.6082" xlink:href="#m90eb066a20" y="171.639959"/>
     <use style="stroke:#000000;" x="111.218287" xlink:href="#m90eb066a20" y="184.550265"/>
     <use style="stroke:#000000;" x="108.853337" xlink:href="#m90eb066a20" y="192.224964"/>
     <use style="stroke:#000000;" x="106.473798" xlink:href="#m90eb066a20" y="204.33646"/>
     <use style="stroke:#000000;" x="104.114515" xlink:href="#m90eb066a20" y="219.751922"/>
     <use style="stroke:#000000;" x="101.614697" xlink:href="#m90eb066a20" y="225.282143"/>
     <use style="stroke:#000000;" x="98.908161" xlink:href="#m90eb066a20" y="230.977188"/>
     <use style="stroke:#000000;" x="96.384712" xlink:href="#m90eb066a20" y="242.189598"/>
     <use style="stroke:#000000;" x="94.191043" xlink:href="#m90eb066a20" y="245.261738"/>
     <use style="stroke:#000000;" x="92.007763" xlink:href="#m90eb066a20" y="242.480744"/>
     <use style="stroke:#000000;" x="90.012102" xlink:href="#m90eb066a20" y="246.370864"/>
     <use style="stroke:#000000;" x="88.161267" xlink:href="#m90eb066a20" y="252.480613"/>
     <use style="stroke:#000000;" x="86.383969" xlink:href="#m90eb066a20" y="254.592816"/>
     <use style="stroke:#000000;" x="84.795108" xlink:href="#m90eb066a20" y="256.9023"/>
     <use style="stroke:#000000;" x="83.416525" xlink:href="#m90eb066a20" y="256.899702"/>
     <use style="stroke:#000000;" x="82.242875" xlink:href="#m90eb066a20" y="258.400446"/>
     <use style="stroke:#000000;" x="81.083623" xlink:href="#m90eb066a20" y="262.456329"/>
     <use style="stroke:#000000;" x="80.054256" xlink:href="#m90eb066a20" y="266.835718"/>
     <use style="stroke:#000000;" x="79.245445" xlink:href="#m90eb066a20" y="272.655604"/>
     <use style="stroke:#000000;" x="78.475166" xlink:href="#m90eb066a20" y="276.934717"/>
     <use style="stroke:#000000;" x="77.751971" xlink:href="#m90eb066a20" y="282.222837"/>
     <use style="stroke:#000000;" x="77.044" xlink:href="#m90eb066a20" y="280.009205"/>
     <use style="stroke:#000000;" x="76.375289" xlink:href="#m90eb066a20" y="281.315517"/>
     <use style="stroke:#000000;" x="75.854344" xlink:href="#m90eb066a20" y="284.684033"/>
     <use style="stroke:#000000;" x="75.404785" xlink:href="#m90eb066a20" y="284.872838"/>
     <use style="stroke:#000000;" x="74.996965" xlink:href="#m90eb066a20" y="282.859602"/>
     <use style="stroke:#000000;" x="74.649632" xlink:href="#m90eb066a20" y="280.665674"/>
     <use style="stroke:#000000;" x="74.195597" xlink:href="#m90eb066a20" y="281.487191"/>
     <use style="stroke:#000000;" x="73.772881" xlink:href="#m90eb066a20" y="284.442432"/>
     <use style="stroke:#000000;" x="73.269709" xlink:href="#m90eb066a20" y="284.819586"/>
     <use style="stroke:#000000;" x="72.785341" xlink:href="#m90eb066a20" y="288.430125"/>
     <use style="stroke:#000000;" x="72.415625" xlink:href="#m90eb066a20" y="288.036468"/>
    </g>
   </g>
   <g id="matplotlib.axis_1">
    <g id="xtick_1">
     <g id="line2d_1">
      <defs>
       <path d="M 0 0 
L 0 3.5 
" id="m3bceb760c3" style="stroke:#000000;stroke-width:0.8;"/>
      </defs>
      <g>
       <use style="stroke:#000000;stroke-width:0.8;" x="102.330311" xlink:href="#m3bceb760c3" y="288.430125"/>
      </g>
     </g>
     <g id="text_1">
      <!-- −0.2 -->
      <defs>
       <path d="M 10.59375 35.5 
L 73.1875 35.5 
L 73.1875 27.203125 
L 10.59375 27.203125 
z
" id="DejaVuSans-2212"/>
       <path d="M 31.78125 66.40625 
Q 24.171875 66.40625 20.328125 58.90625 
Q 16.5 51.421875 16.5 36.375 
Q 16.5 21.390625 20.328125 13.890625 
Q 24.171875 6.390625 31.78125 6.390625 
Q 39.453125 6.390625 43.28125 13.890625 
Q 47.125 21.390625 47.125 36.375 
Q 47.125 51.421875 43.28125 58.90625 
Q 39.453125 66.40625 31.78125 66.40625 
z
M 31.78125 74.21875 
Q 44.046875 74.21875 50.515625 64.515625 
Q 56.984375 54.828125 56.984375 36.375 
Q 56.984375 17.96875 50.515625 8.265625 
Q 44.046875 -1.421875 31.78125 -1.421875 
Q 19.53125 -1.421875 13.0625 8.265625 
Q 6.59375 17.96875 6.59375 36.375 
Q 6.59375 54.828125 13.0625 64.515625 
Q 19.53125 74.21875 31.78125 74.21875 
z
" id="DejaVuSans-30"/>
       <path d="M 10.6875 12.40625 
L 21 12.40625 
L 21 0 
L 10.6875 0 
z
" id="DejaVuSans-2e"/>
       <path d="M 19.1875 8.296875 
L 53.609375 8.296875 
L 53.609375 0 
L 7.328125 0 
L 7.328125 8.296875 
Q 12.9375 14.109375 22.625 23.890625 
Q 32.328125 33.6875 34.8125 36.53125 
Q 39.546875 41.84375 41.421875 45.53125 
Q 43.3125 49.21875 43.3125 52.78125 
Q 43.3125 58.59375 39.234375 62.25 
Q 35.15625 65.921875 28.609375 65.921875 
Q 23.96875 65.921875 18.8125 64.3125 
Q 13.671875 62.703125 7.8125 59.421875 
L 7.8125 69.390625 
Q 13.765625 71.78125 18.9375 73 
Q 24.125 74.21875 28.421875 74.21875 
Q 39.75 74.21875 46.484375 68.546875 
Q 53.21875 62.890625 53.21875 53.421875 
Q 53.21875 48.921875 51.53125 44.890625 
Q 49.859375 40.875 45.40625 35.40625 
Q 44.1875 33.984375 37.640625 27.21875 
Q 31.109375 20.453125 19.1875 8.296875 
z
" id="DejaVuSans-32"/>
      </defs>
      <g transform="translate(90.188905 303.028562)scale(0.1 -0.1)">
       <use xlink:href="#DejaVuSans-2212"/>
       <use x="83.789062" xlink:href="#DejaVuSans-30"/>
       <use x="147.412109" xlink:href="#DejaVuSans-2e"/>
       <use x="179.199219" xlink:href="#DejaVuSans-32"/>
      </g>
     </g>
    </g>
    <g id="xtick_2">
     <g id="line2d_2">
      <g>
       <use style="stroke:#000000;stroke-width:0.8;" x="161.938242" xlink:href="#m3bceb760c3" y="288.430125"/>
      </g>
     </g>
     <g id="text_2">
      <!-- 0.0 -->
      <g transform="translate(153.98668 303.028562)scale(0.1 -0.1)">
       <use xlink:href="#DejaVuSans-30"/>
       <use x="63.623047" xlink:href="#DejaVuSans-2e"/>
       <use x="95.410156" xlink:href="#DejaVuSans-30"/>
      </g>
     </g>
    </g>
    <g id="xtick_3">
     <g id="line2d_3">
      <g>
       <use style="stroke:#000000;stroke-width:0.8;" x="221.546173" xlink:href="#m3bceb760c3" y="288.430125"/>
      </g>
     </g>
     <g id="text_3">
      <!-- 0.2 -->
      <g transform="translate(213.59461 303.028562)scale(0.1 -0.1)">
       <use xlink:href="#DejaVuSans-30"/>
       <use x="63.623047" xlink:href="#DejaVuSans-2e"/>
       <use x="95.410156" xlink:href="#DejaVuSans-32"/>
      </g>
     </g>
    </g>
    <g id="xtick_4">
     <g id="line2d_4">
      <g>
       <use style="stroke:#000000;stroke-width:0.8;" x="281.154103" xlink:href="#m3bceb760c3" y="288.430125"/>
      </g>
     </g>
     <g id="text_4">
      <!-- 0.4 -->
      <defs>
       <path d="M 37.796875 64.3125 
L 12.890625 25.390625 
L 37.796875 25.390625 
z
M 35.203125 72.90625 
L 47.609375 72.90625 
L 47.609375 25.390625 
L 58.015625 25.390625 
L 58.015625 17.1875 
L 47.609375 17.1875 
L 47.609375 0 
L 37.796875 0 
L 37.796875 17.1875 
L 4.890625 17.1875 
L 4.890625 26.703125 
z
" id="DejaVuSans-34"/>
      </defs>
      <g transform="translate(273.202541 303.028562)scale(0.1 -0.1)">
       <use xlink:href="#DejaVuSans-30"/>
       <use x="63.623047" xlink:href="#DejaVuSans-2e"/>
       <use x="95.410156" xlink:href="#DejaVuSans-34"/>
      </g>
     </g>
    </g>
    <g id="xtick_5">
     <g id="line2d_5">
      <g>
       <use style="stroke:#000000;stroke-width:0.8;" x="340.762034" xlink:href="#m3bceb760c3" y="288.430125"/>
      </g>
     </g>
     <g id="text_5">
      <!-- 0.6 -->
      <defs>
       <path d="M 33.015625 40.375 
Q 26.375 40.375 22.484375 35.828125 
Q 18.609375 31.296875 18.609375 23.390625 
Q 18.609375 15.53125 22.484375 10.953125 
Q 26.375 6.390625 33.015625 6.390625 
Q 39.65625 6.390625 43.53125 10.953125 
Q 47.40625 15.53125 47.40625 23.390625 
Q 47.40625 31.296875 43.53125 35.828125 
Q 39.65625 40.375 33.015625 40.375 
z
M 52.59375 71.296875 
L 52.59375 62.3125 
Q 48.875 64.0625 45.09375 64.984375 
Q 41.3125 65.921875 37.59375 65.921875 
Q 27.828125 65.921875 22.671875 59.328125 
Q 17.53125 52.734375 16.796875 39.40625 
Q 19.671875 43.65625 24.015625 45.921875 
Q 28.375 48.1875 33.59375 48.1875 
Q 44.578125 48.1875 50.953125 41.515625 
Q 57.328125 34.859375 57.328125 23.390625 
Q 57.328125 12.15625 50.6875 5.359375 
Q 44.046875 -1.421875 33.015625 -1.421875 
Q 20.359375 -1.421875 13.671875 8.265625 
Q 6.984375 17.96875 6.984375 36.375 
Q 6.984375 53.65625 15.1875 63.9375 
Q 23.390625 74.21875 37.203125 74.21875 
Q 40.921875 74.21875 44.703125 73.484375 
Q 48.484375 72.75 52.59375 71.296875 
z
" id="DejaVuSans-36"/>
      </defs>
      <g transform="translate(332.810472 303.028562)scale(0.1 -0.1)">
       <use xlink:href="#DejaVuSans-30"/>
       <use x="63.623047" xlink:href="#DejaVuSans-2e"/>
       <use x="95.410156" xlink:href="#DejaVuSans-36"/>
      </g>
     </g>
    </g>
    <g id="xtick_6">
     <g id="line2d_6">
      <g>
       <use style="stroke:#000000;stroke-width:0.8;" x="400.369965" xlink:href="#m3bceb760c3" y="288.430125"/>
      </g>
     </g>
     <g id="text_6">
      <!-- 0.8 -->
      <defs>
       <path d="M 31.78125 34.625 
Q 24.75 34.625 20.71875 30.859375 
Q 16.703125 27.09375 16.703125 20.515625 
Q 16.703125 13.921875 20.71875 10.15625 
Q 24.75 6.390625 31.78125 6.390625 
Q 38.8125 6.390625 42.859375 10.171875 
Q 46.921875 13.96875 46.921875 20.515625 
Q 46.921875 27.09375 42.890625 30.859375 
Q 38.875 34.625 31.78125 34.625 
z
M 21.921875 38.8125 
Q 15.578125 40.375 12.03125 44.71875 
Q 8.5 49.078125 8.5 55.328125 
Q 8.5 64.0625 14.71875 69.140625 
Q 20.953125 74.21875 31.78125 74.21875 
Q 42.671875 74.21875 48.875 69.140625 
Q 55.078125 64.0625 55.078125 55.328125 
Q 55.078125 49.078125 51.53125 44.71875 
Q 48 40.375 41.703125 38.8125 
Q 48.828125 37.15625 52.796875 32.3125 
Q 56.78125 27.484375 56.78125 20.515625 
Q 56.78125 9.90625 50.3125 4.234375 
Q 43.84375 -1.421875 31.78125 -1.421875 
Q 19.734375 -1.421875 13.25 4.234375 
Q 6.78125 9.90625 6.78125 20.515625 
Q 6.78125 27.484375 10.78125 32.3125 
Q 14.796875 37.15625 21.921875 38.8125 
z
M 18.3125 54.390625 
Q 18.3125 48.734375 21.84375 45.5625 
Q 25.390625 42.390625 31.78125 42.390625 
Q 38.140625 42.390625 41.71875 45.5625 
Q 45.3125 48.734375 45.3125 54.390625 
Q 45.3125 60.0625 41.71875 63.234375 
Q 38.140625 66.40625 31.78125 66.40625 
Q 25.390625 66.40625 21.84375 63.234375 
Q 18.3125 60.0625 18.3125 54.390625 
z
" id="DejaVuSans-38"/>
      </defs>
      <g transform="translate(392.418402 303.028562)scale(0.1 -0.1)">
       <use xlink:href="#DejaVuSans-30"/>
       <use x="63.623047" xlink:href="#DejaVuSans-2e"/>
       <use x="95.410156" xlink:href="#DejaVuSans-38"/>
      </g>
     </g>
    </g>
    <g id="text_7">
     <!-- Correct Class Probability -->
     <defs>
      <path d="M 64.40625 67.28125 
L 64.40625 56.890625 
Q 59.421875 61.53125 53.78125 63.8125 
Q 48.140625 66.109375 41.796875 66.109375 
Q 29.296875 66.109375 22.65625 58.46875 
Q 16.015625 50.828125 16.015625 36.375 
Q 16.015625 21.96875 22.65625 14.328125 
Q 29.296875 6.6875 41.796875 6.6875 
Q 48.140625 6.6875 53.78125 8.984375 
Q 59.421875 11.28125 64.40625 15.921875 
L 64.40625 5.609375 
Q 59.234375 2.09375 53.4375 0.328125 
Q 47.65625 -1.421875 41.21875 -1.421875 
Q 24.65625 -1.421875 15.125 8.703125 
Q 5.609375 18.84375 5.609375 36.375 
Q 5.609375 53.953125 15.125 64.078125 
Q 24.65625 74.21875 41.21875 74.21875 
Q 47.75 74.21875 53.53125 72.484375 
Q 59.328125 70.75 64.40625 67.28125 
z
" id="DejaVuSans-43"/>
      <path d="M 30.609375 48.390625 
Q 23.390625 48.390625 19.1875 42.75 
Q 14.984375 37.109375 14.984375 27.296875 
Q 14.984375 17.484375 19.15625 11.84375 
Q 23.34375 6.203125 30.609375 6.203125 
Q 37.796875 6.203125 41.984375 11.859375 
Q 46.1875 17.53125 46.1875 27.296875 
Q 46.1875 37.015625 41.984375 42.703125 
Q 37.796875 48.390625 30.609375 48.390625 
z
M 30.609375 56 
Q 42.328125 56 49.015625 48.375 
Q 55.71875 40.765625 55.71875 27.296875 
Q 55.71875 13.875 49.015625 6.21875 
Q 42.328125 -1.421875 30.609375 -1.421875 
Q 18.84375 -1.421875 12.171875 6.21875 
Q 5.515625 13.875 5.515625 27.296875 
Q 5.515625 40.765625 12.171875 48.375 
Q 18.84375 56 30.609375 56 
z
" id="DejaVuSans-6f"/>
      <path d="M 41.109375 46.296875 
Q 39.59375 47.171875 37.8125 47.578125 
Q 36.03125 48 33.890625 48 
Q 26.265625 48 22.1875 43.046875 
Q 18.109375 38.09375 18.109375 28.8125 
L 18.109375 0 
L 9.078125 0 
L 9.078125 54.6875 
L 18.109375 54.6875 
L 18.109375 46.1875 
Q 20.953125 51.171875 25.484375 53.578125 
Q 30.03125 56 36.53125 56 
Q 37.453125 56 38.578125 55.875 
Q 39.703125 55.765625 41.0625 55.515625 
z
" id="DejaVuSans-72"/>
      <path d="M 56.203125 29.59375 
L 56.203125 25.203125 
L 14.890625 25.203125 
Q 15.484375 15.921875 20.484375 11.0625 
Q 25.484375 6.203125 34.421875 6.203125 
Q 39.59375 6.203125 44.453125 7.46875 
Q 49.3125 8.734375 54.109375 11.28125 
L 54.109375 2.78125 
Q 49.265625 0.734375 44.1875 -0.34375 
Q 39.109375 -1.421875 33.890625 -1.421875 
Q 20.796875 -1.421875 13.15625 6.1875 
Q 5.515625 13.8125 5.515625 26.8125 
Q 5.515625 40.234375 12.765625 48.109375 
Q 20.015625 56 32.328125 56 
Q 43.359375 56 49.78125 48.890625 
Q 56.203125 41.796875 56.203125 29.59375 
z
M 47.21875 32.234375 
Q 47.125 39.59375 43.09375 43.984375 
Q 39.0625 48.390625 32.421875 48.390625 
Q 24.90625 48.390625 20.390625 44.140625 
Q 15.875 39.890625 15.1875 32.171875 
z
" id="DejaVuSans-65"/>
      <path d="M 48.78125 52.59375 
L 48.78125 44.1875 
Q 44.96875 46.296875 41.140625 47.34375 
Q 37.3125 48.390625 33.40625 48.390625 
Q 24.65625 48.390625 19.8125 42.84375 
Q 14.984375 37.3125 14.984375 27.296875 
Q 14.984375 17.28125 19.8125 11.734375 
Q 24.65625 6.203125 33.40625 6.203125 
Q 37.3125 6.203125 41.140625 7.25 
Q 44.96875 8.296875 48.78125 10.40625 
L 48.78125 2.09375 
Q 45.015625 0.34375 40.984375 -0.53125 
Q 36.96875 -1.421875 32.421875 -1.421875 
Q 20.0625 -1.421875 12.78125 6.34375 
Q 5.515625 14.109375 5.515625 27.296875 
Q 5.515625 40.671875 12.859375 48.328125 
Q 20.21875 56 33.015625 56 
Q 37.15625 56 41.109375 55.140625 
Q 45.0625 54.296875 48.78125 52.59375 
z
" id="DejaVuSans-63"/>
      <path d="M 18.3125 70.21875 
L 18.3125 54.6875 
L 36.8125 54.6875 
L 36.8125 47.703125 
L 18.3125 47.703125 
L 18.3125 18.015625 
Q 18.3125 11.328125 20.140625 9.421875 
Q 21.96875 7.515625 27.59375 7.515625 
L 36.8125 7.515625 
L 36.8125 0 
L 27.59375 0 
Q 17.1875 0 13.234375 3.875 
Q 9.28125 7.765625 9.28125 18.015625 
L 9.28125 47.703125 
L 2.6875 47.703125 
L 2.6875 54.6875 
L 9.28125 54.6875 
L 9.28125 70.21875 
z
" id="DejaVuSans-74"/>
      <path id="DejaVuSans-20"/>
      <path d="M 9.421875 75.984375 
L 18.40625 75.984375 
L 18.40625 0 
L 9.421875 0 
z
" id="DejaVuSans-6c"/>
      <path d="M 34.28125 27.484375 
Q 23.390625 27.484375 19.1875 25 
Q 14.984375 22.515625 14.984375 16.5 
Q 14.984375 11.71875 18.140625 8.90625 
Q 21.296875 6.109375 26.703125 6.109375 
Q 34.1875 6.109375 38.703125 11.40625 
Q 43.21875 16.703125 43.21875 25.484375 
L 43.21875 27.484375 
z
M 52.203125 31.203125 
L 52.203125 0 
L 43.21875 0 
L 43.21875 8.296875 
Q 40.140625 3.328125 35.546875 0.953125 
Q 30.953125 -1.421875 24.3125 -1.421875 
Q 15.921875 -1.421875 10.953125 3.296875 
Q 6 8.015625 6 15.921875 
Q 6 25.140625 12.171875 29.828125 
Q 18.359375 34.515625 30.609375 34.515625 
L 43.21875 34.515625 
L 43.21875 35.40625 
Q 43.21875 41.609375 39.140625 45 
Q 35.0625 48.390625 27.6875 48.390625 
Q 23 48.390625 18.546875 47.265625 
Q 14.109375 46.140625 10.015625 43.890625 
L 10.015625 52.203125 
Q 14.9375 54.109375 19.578125 55.046875 
Q 24.21875 56 28.609375 56 
Q 40.484375 56 46.34375 49.84375 
Q 52.203125 43.703125 52.203125 31.203125 
z
" id="DejaVuSans-61"/>
      <path d="M 44.28125 53.078125 
L 44.28125 44.578125 
Q 40.484375 46.53125 36.375 47.5 
Q 32.28125 48.484375 27.875 48.484375 
Q 21.1875 48.484375 17.84375 46.4375 
Q 14.5 44.390625 14.5 40.28125 
Q 14.5 37.15625 16.890625 35.375 
Q 19.28125 33.59375 26.515625 31.984375 
L 29.59375 31.296875 
Q 39.15625 29.25 43.1875 25.515625 
Q 47.21875 21.78125 47.21875 15.09375 
Q 47.21875 7.46875 41.1875 3.015625 
Q 35.15625 -1.421875 24.609375 -1.421875 
Q 20.21875 -1.421875 15.453125 -0.5625 
Q 10.6875 0.296875 5.421875 2 
L 5.421875 11.28125 
Q 10.40625 8.6875 15.234375 7.390625 
Q 20.0625 6.109375 24.8125 6.109375 
Q 31.15625 6.109375 34.5625 8.28125 
Q 37.984375 10.453125 37.984375 14.40625 
Q 37.984375 18.0625 35.515625 20.015625 
Q 33.0625 21.96875 24.703125 23.78125 
L 21.578125 24.515625 
Q 13.234375 26.265625 9.515625 29.90625 
Q 5.8125 33.546875 5.8125 39.890625 
Q 5.8125 47.609375 11.28125 51.796875 
Q 16.75 56 26.8125 56 
Q 31.78125 56 36.171875 55.265625 
Q 40.578125 54.546875 44.28125 53.078125 
z
" id="DejaVuSans-73"/>
      <path d="M 19.671875 64.796875 
L 19.671875 37.40625 
L 32.078125 37.40625 
Q 38.96875 37.40625 42.71875 40.96875 
Q 46.484375 44.53125 46.484375 51.125 
Q 46.484375 57.671875 42.71875 61.234375 
Q 38.96875 64.796875 32.078125 64.796875 
z
M 9.8125 72.90625 
L 32.078125 72.90625 
Q 44.34375 72.90625 50.609375 67.359375 
Q 56.890625 61.8125 56.890625 51.125 
Q 56.890625 40.328125 50.609375 34.8125 
Q 44.34375 29.296875 32.078125 29.296875 
L 19.671875 29.296875 
L 19.671875 0 
L 9.8125 0 
z
" id="DejaVuSans-50"/>
      <path d="M 48.6875 27.296875 
Q 48.6875 37.203125 44.609375 42.84375 
Q 40.53125 48.484375 33.40625 48.484375 
Q 26.265625 48.484375 22.1875 42.84375 
Q 18.109375 37.203125 18.109375 27.296875 
Q 18.109375 17.390625 22.1875 11.75 
Q 26.265625 6.109375 33.40625 6.109375 
Q 40.53125 6.109375 44.609375 11.75 
Q 48.6875 17.390625 48.6875 27.296875 
z
M 18.109375 46.390625 
Q 20.953125 51.265625 25.265625 53.625 
Q 29.59375 56 35.59375 56 
Q 45.5625 56 51.78125 48.09375 
Q 58.015625 40.1875 58.015625 27.296875 
Q 58.015625 14.40625 51.78125 6.484375 
Q 45.5625 -1.421875 35.59375 -1.421875 
Q 29.59375 -1.421875 25.265625 0.953125 
Q 20.953125 3.328125 18.109375 8.203125 
L 18.109375 0 
L 9.078125 0 
L 9.078125 75.984375 
L 18.109375 75.984375 
z
" id="DejaVuSans-62"/>
      <path d="M 9.421875 54.6875 
L 18.40625 54.6875 
L 18.40625 0 
L 9.421875 0 
z
M 9.421875 75.984375 
L 18.40625 75.984375 
L 18.40625 64.59375 
L 9.421875 64.59375 
z
" id="DejaVuSans-69"/>
      <path d="M 32.171875 -5.078125 
Q 28.375 -14.84375 24.75 -17.8125 
Q 21.140625 -20.796875 15.09375 -20.796875 
L 7.90625 -20.796875 
L 7.90625 -13.28125 
L 13.1875 -13.28125 
Q 16.890625 -13.28125 18.9375 -11.515625 
Q 21 -9.765625 23.484375 -3.21875 
L 25.09375 0.875 
L 2.984375 54.6875 
L 12.5 54.6875 
L 29.59375 11.921875 
L 46.6875 54.6875 
L 56.203125 54.6875 
z
" id="DejaVuSans-79"/>
     </defs>
     <g transform="translate(189.571719 316.706687)scale(0.1 -0.1)">
      <use xlink:href="#DejaVuSans-43"/>
      <use x="69.824219" xlink:href="#DejaVuSans-6f"/>
      <use x="131.005859" xlink:href="#DejaVuSans-72"/>
      <use x="172.103516" xlink:href="#DejaVuSans-72"/>
      <use x="213.185547" xlink:href="#DejaVuSans-65"/>
      <use x="274.708984" xlink:href="#DejaVuSans-63"/>
      <use x="329.689453" xlink:href="#DejaVuSans-74"/>
      <use x="368.898438" xlink:href="#DejaVuSans-20"/>
      <use x="400.685547" xlink:href="#DejaVuSans-43"/>
      <use x="470.509766" xlink:href="#DejaVuSans-6c"/>
      <use x="498.292969" xlink:href="#DejaVuSans-61"/>
      <use x="559.572266" xlink:href="#DejaVuSans-73"/>
      <use x="611.671875" xlink:href="#DejaVuSans-73"/>
      <use x="663.771484" xlink:href="#DejaVuSans-20"/>
      <use x="695.558594" xlink:href="#DejaVuSans-50"/>
      <use x="755.845703" xlink:href="#DejaVuSans-72"/>
      <use x="796.927734" xlink:href="#DejaVuSans-6f"/>
      <use x="858.109375" xlink:href="#DejaVuSans-62"/>
      <use x="921.585938" xlink:href="#DejaVuSans-61"/>
      <use x="982.865234" xlink:href="#DejaVuSans-62"/>
      <use x="1046.341797" xlink:href="#DejaVuSans-69"/>
      <use x="1074.125" xlink:href="#DejaVuSans-6c"/>
      <use x="1101.908203" xlink:href="#DejaVuSans-69"/>
      <use x="1129.691406" xlink:href="#DejaVuSans-74"/>
      <use x="1168.900391" xlink:href="#DejaVuSans-79"/>
     </g>
    </g>
   </g>
   <g id="matplotlib.axis_2">
    <g id="ytick_1">
     <g id="line2d_7">
      <defs>
       <path d="M 0 0 
L -3.5 0 
" id="m5087b512f0" style="stroke:#000000;stroke-width:0.8;"/>
      </defs>
      <g>
       <use style="stroke:#000000;stroke-width:0.8;" x="72.415625" xlink:href="#m5087b512f0" y="260.398032"/>
      </g>
     </g>
     <g id="text_8">
      <!-- 400000 -->
      <g transform="translate(27.240625 264.19725)scale(0.1 -0.1)">
       <use xlink:href="#DejaVuSans-34"/>
       <use x="63.623047" xlink:href="#DejaVuSans-30"/>
       <use x="127.246094" xlink:href="#DejaVuSans-30"/>
       <use x="190.869141" xlink:href="#DejaVuSans-30"/>
       <use x="254.492188" xlink:href="#DejaVuSans-30"/>
       <use x="318.115234" xlink:href="#DejaVuSans-30"/>
      </g>
     </g>
    </g>
    <g id="ytick_2">
     <g id="line2d_8">
      <g>
       <use style="stroke:#000000;stroke-width:0.8;" x="72.415625" xlink:href="#m5087b512f0" y="205.330211"/>
      </g>
     </g>
     <g id="text_9">
      <!-- 600000 -->
      <g transform="translate(27.240625 209.12943)scale(0.1 -0.1)">
       <use xlink:href="#DejaVuSans-36"/>
       <use x="63.623047" xlink:href="#DejaVuSans-30"/>
       <use x="127.246094" xlink:href="#DejaVuSans-30"/>
       <use x="190.869141" xlink:href="#DejaVuSans-30"/>
       <use x="254.492188" xlink:href="#DejaVuSans-30"/>
       <use x="318.115234" xlink:href="#DejaVuSans-30"/>
      </g>
     </g>
    </g>
    <g id="ytick_3">
     <g id="line2d_9">
      <g>
       <use style="stroke:#000000;stroke-width:0.8;" x="72.415625" xlink:href="#m5087b512f0" y="150.26239"/>
      </g>
     </g>
     <g id="text_10">
      <!-- 800000 -->
      <g transform="translate(27.240625 154.061609)scale(0.1 -0.1)">
       <use xlink:href="#DejaVuSans-38"/>
       <use x="63.623047" xlink:href="#DejaVuSans-30"/>
       <use x="127.246094" xlink:href="#DejaVuSans-30"/>
       <use x="190.869141" xlink:href="#DejaVuSans-30"/>
       <use x="254.492188" xlink:href="#DejaVuSans-30"/>
       <use x="318.115234" xlink:href="#DejaVuSans-30"/>
      </g>
     </g>
    </g>
    <g id="ytick_4">
     <g id="line2d_10">
      <g>
       <use style="stroke:#000000;stroke-width:0.8;" x="72.415625" xlink:href="#m5087b512f0" y="95.194569"/>
      </g>
     </g>
     <g id="text_11">
      <!-- 1000000 -->
      <defs>
       <path d="M 12.40625 8.296875 
L 28.515625 8.296875 
L 28.515625 63.921875 
L 10.984375 60.40625 
L 10.984375 69.390625 
L 28.421875 72.90625 
L 38.28125 72.90625 
L 38.28125 8.296875 
L 54.390625 8.296875 
L 54.390625 0 
L 12.40625 0 
z
" id="DejaVuSans-31"/>
      </defs>
      <g transform="translate(20.878125 98.993788)scale(0.1 -0.1)">
       <use xlink:href="#DejaVuSans-31"/>
       <use x="63.623047" xlink:href="#DejaVuSans-30"/>
       <use x="127.246094" xlink:href="#DejaVuSans-30"/>
       <use x="190.869141" xlink:href="#DejaVuSans-30"/>
       <use x="254.492188" xlink:href="#DejaVuSans-30"/>
       <use x="318.115234" xlink:href="#DejaVuSans-30"/>
       <use x="381.738281" xlink:href="#DejaVuSans-30"/>
      </g>
     </g>
    </g>
    <g id="ytick_5">
     <g id="line2d_11">
      <g>
       <use style="stroke:#000000;stroke-width:0.8;" x="72.415625" xlink:href="#m5087b512f0" y="40.126748"/>
      </g>
     </g>
     <g id="text_12">
      <!-- 1200000 -->
      <g transform="translate(20.878125 43.925967)scale(0.1 -0.1)">
       <use xlink:href="#DejaVuSans-31"/>
       <use x="63.623047" xlink:href="#DejaVuSans-32"/>
       <use x="127.246094" xlink:href="#DejaVuSans-30"/>
       <use x="190.869141" xlink:href="#DejaVuSans-30"/>
       <use x="254.492188" xlink:href="#DejaVuSans-30"/>
       <use x="318.115234" xlink:href="#DejaVuSans-30"/>
       <use x="381.738281" xlink:href="#DejaVuSans-30"/>
      </g>
     </g>
    </g>
    <g id="text_13">
     <!-- Persistence Distance -->
     <defs>
      <path d="M 54.890625 33.015625 
L 54.890625 0 
L 45.90625 0 
L 45.90625 32.71875 
Q 45.90625 40.484375 42.875 44.328125 
Q 39.84375 48.1875 33.796875 48.1875 
Q 26.515625 48.1875 22.3125 43.546875 
Q 18.109375 38.921875 18.109375 30.90625 
L 18.109375 0 
L 9.078125 0 
L 9.078125 54.6875 
L 18.109375 54.6875 
L 18.109375 46.1875 
Q 21.34375 51.125 25.703125 53.5625 
Q 30.078125 56 35.796875 56 
Q 45.21875 56 50.046875 50.171875 
Q 54.890625 44.34375 54.890625 33.015625 
z
" id="DejaVuSans-6e"/>
      <path d="M 19.671875 64.796875 
L 19.671875 8.109375 
L 31.59375 8.109375 
Q 46.6875 8.109375 53.6875 14.9375 
Q 60.6875 21.78125 60.6875 36.53125 
Q 60.6875 51.171875 53.6875 57.984375 
Q 46.6875 64.796875 31.59375 64.796875 
z
M 9.8125 72.90625 
L 30.078125 72.90625 
Q 51.265625 72.90625 61.171875 64.09375 
Q 71.09375 55.28125 71.09375 36.53125 
Q 71.09375 17.671875 61.125 8.828125 
Q 51.171875 0 30.078125 0 
L 9.8125 0 
z
" id="DejaVuSans-44"/>
     </defs>
     <g transform="translate(14.798438 207.599906)rotate(-90)scale(0.1 -0.1)">
      <use xlink:href="#DejaVuSans-50"/>
      <use x="60.255859" xlink:href="#DejaVuSans-65"/>
      <use x="121.779297" xlink:href="#DejaVuSans-72"/>
      <use x="162.892578" xlink:href="#DejaVuSans-73"/>
      <use x="214.992188" xlink:href="#DejaVuSans-69"/>
      <use x="242.775391" xlink:href="#DejaVuSans-73"/>
      <use x="294.875" xlink:href="#DejaVuSans-74"/>
      <use x="334.083984" xlink:href="#DejaVuSans-65"/>
      <use x="395.607422" xlink:href="#DejaVuSans-6e"/>
      <use x="458.986328" xlink:href="#DejaVuSans-63"/>
      <use x="513.966797" xlink:href="#DejaVuSans-65"/>
      <use x="575.490234" xlink:href="#DejaVuSans-20"/>
      <use x="607.277344" xlink:href="#DejaVuSans-44"/>
      <use x="684.279297" xlink:href="#DejaVuSans-69"/>
      <use x="712.0625" xlink:href="#DejaVuSans-73"/>
      <use x="764.162109" xlink:href="#DejaVuSans-74"/>
      <use x="803.371094" xlink:href="#DejaVuSans-61"/>
      <use x="864.650391" xlink:href="#DejaVuSans-6e"/>
      <use x="928.029297" xlink:href="#DejaVuSans-63"/>
      <use x="983.009766" xlink:href="#DejaVuSans-65"/>
     </g>
    </g>
   </g>
   <g id="line2d_12">
    <path clip-path="url(#pf168c55b29)" d="M 429.535625 96.940459 
L 429.045856 96.999463 
L 428.39944 97.077338 
L 427.611156 97.172305 
L 426.580262 97.2965 
L 425.370727 97.442217 
L 424.026999 97.6041 
L 422.424974 97.797101 
L 420.555806 98.022285 
L 418.271108 98.29753 
L 415.92942 98.57964 
L 413.580627 98.862607 
L 410.963554 99.177894 
L 407.845343 99.553554 
L 404.293713 99.98143 
L 400.193584 100.475386 
L 395.559364 101.033685 
L 390.946817 101.589372 
L 386.452635 102.130801 
L 381.614141 102.713709 
L 376.808032 103.292716 
L 371.220424 103.965873 
L 365.461389 104.659681 
L 360.089212 105.306884 
L 354.654148 105.961663 
L 348.238002 106.734636 
L 341.344061 107.565171 
L 334.714954 108.3638 
L 327.919446 109.182476 
L 321.486015 109.957532 
L 315.073173 110.730107 
L 308.666016 111.501997 
L 301.516771 112.363289 
L 294.048138 113.263058 
L 285.933985 114.240595 
L 277.445516 115.263228 
L 269.115951 116.266717 
L 261.017466 117.242366 
L 252.89897 118.220427 
L 244.914694 119.182317 
L 237.247738 120.105979 
L 229.567142 121.031285 
L 221.871274 121.95843 
L 214.40479 122.85794 
L 207.882621 123.643687 
L 201.63832 124.395957 
L 195.424597 125.144543 
L 189.956094 125.803351 
L 184.666497 126.440605 
L 179.528239 127.059627 
L 174.665933 127.645404 
L 169.852865 128.22525 
L 165.328146 128.770357 
L 161.113011 129.278167 
L 157.030908 129.769951 
L 153.160975 130.236174 
L 149.466393 130.681271 
L 145.637898 131.142502 
L 142.138226 131.564119 
L 138.829537 131.962727 
L 135.76269 132.332199 
L 132.875686 132.680006 
L 129.904819 133.037915 
L 127.098578 133.375992 
L 124.207968 133.724233 
L 121.359858 134.067353 
L 118.575545 134.402788 
L 116.00899 134.711989 
L 113.6082 135.00122 
L 111.218287 135.28914 
L 108.853337 135.574053 
L 106.473798 135.860723 
L 104.114515 136.144953 
L 101.614697 136.446114 
L 98.908161 136.772179 
L 96.384712 137.076187 
L 94.191043 137.340465 
L 92.007763 137.603492 
L 90.012102 137.843915 
L 88.161267 138.066891 
L 86.383969 138.281008 
L 84.795108 138.472423 
L 83.416525 138.638505 
L 82.242875 138.779898 
L 81.083623 138.919557 
L 80.054256 139.043568 
L 79.245445 139.141008 
L 78.475166 139.233806 
L 77.751971 139.320931 
L 77.044 139.406223 
L 76.375289 139.486784 
L 75.854344 139.549544 
L 75.404785 139.603704 
L 74.996965 139.652835 
L 74.649632 139.69468 
L 74.195597 139.749379 
L 73.772881 139.800305 
L 73.269709 139.860923 
L 72.785341 139.919277 
L 72.415625 139.963817 
" style="fill:none;stroke:#c0c0c0;stroke-linecap:square;stroke-width:3;"/>
   </g>
   <g id="patch_3">
    <path d="M 72.415625 288.430125 
L 72.415625 22.318125 
" style="fill:none;stroke:#000000;stroke-linecap:square;stroke-linejoin:miter;stroke-width:0.8;"/>
   </g>
   <g id="patch_4">
    <path d="M 429.535625 288.430125 
L 429.535625 22.318125 
" style="fill:none;stroke:#000000;stroke-linecap:square;stroke-linejoin:miter;stroke-width:0.8;"/>
   </g>
   <g id="patch_5">
    <path d="M 72.415625 288.430125 
L 429.535625 288.430125 
" style="fill:none;stroke:#000000;stroke-linecap:square;stroke-linejoin:miter;stroke-width:0.8;"/>
   </g>
   <g id="patch_6">
    <path d="M 72.415625 22.318125 
L 429.535625 22.318125 
" style="fill:none;stroke:#000000;stroke-linecap:square;stroke-linejoin:miter;stroke-width:0.8;"/>
   </g>
   <g id="text_14">
    <!-- Correct Class Probability vs Persistence Distance -->
    <defs>
     <path d="M 2.984375 54.6875 
L 12.5 54.6875 
L 29.59375 8.796875 
L 46.6875 54.6875 
L 56.203125 54.6875 
L 35.6875 0 
L 23.484375 0 
z
" id="DejaVuSans-76"/>
    </defs>
    <g transform="translate(104.129375 16.318125)scale(0.12 -0.12)">
     <use xlink:href="#DejaVuSans-43"/>
     <use x="69.824219" xlink:href="#DejaVuSans-6f"/>
     <use x="131.005859" xlink:href="#DejaVuSans-72"/>
     <use x="172.103516" xlink:href="#DejaVuSans-72"/>
     <use x="213.185547" xlink:href="#DejaVuSans-65"/>
     <use x="274.708984" xlink:href="#DejaVuSans-63"/>
     <use x="329.689453" xlink:href="#DejaVuSans-74"/>
     <use x="368.898438" xlink:href="#DejaVuSans-20"/>
     <use x="400.685547" xlink:href="#DejaVuSans-43"/>
     <use x="470.509766" xlink:href="#DejaVuSans-6c"/>
     <use x="498.292969" xlink:href="#DejaVuSans-61"/>
     <use x="559.572266" xlink:href="#DejaVuSans-73"/>
     <use x="611.671875" xlink:href="#DejaVuSans-73"/>
     <use x="663.771484" xlink:href="#DejaVuSans-20"/>
     <use x="695.558594" xlink:href="#DejaVuSans-50"/>
     <use x="755.845703" xlink:href="#DejaVuSans-72"/>
     <use x="796.927734" xlink:href="#DejaVuSans-6f"/>
     <use x="858.109375" xlink:href="#DejaVuSans-62"/>
     <use x="921.585938" xlink:href="#DejaVuSans-61"/>
     <use x="982.865234" xlink:href="#DejaVuSans-62"/>
     <use x="1046.341797" xlink:href="#DejaVuSans-69"/>
     <use x="1074.125" xlink:href="#DejaVuSans-6c"/>
     <use x="1101.908203" xlink:href="#DejaVuSans-69"/>
     <use x="1129.691406" xlink:href="#DejaVuSans-74"/>
     <use x="1168.900391" xlink:href="#DejaVuSans-79"/>
     <use x="1228.080078" xlink:href="#DejaVuSans-20"/>
     <use x="1259.867188" xlink:href="#DejaVuSans-76"/>
     <use x="1319.046875" xlink:href="#DejaVuSans-73"/>
     <use x="1371.146484" xlink:href="#DejaVuSans-20"/>
     <use x="1402.933594" xlink:href="#DejaVuSans-50"/>
     <use x="1463.189453" xlink:href="#DejaVuSans-65"/>
     <use x="1524.712891" xlink:href="#DejaVuSans-72"/>
     <use x="1565.826172" xlink:href="#DejaVuSans-73"/>
     <use x="1617.925781" xlink:href="#DejaVuSans-69"/>
     <use x="1645.708984" xlink:href="#DejaVuSans-73"/>
     <use x="1697.808594" xlink:href="#DejaVuSans-74"/>
     <use x="1737.017578" xlink:href="#DejaVuSans-65"/>
     <use x="1798.541016" xlink:href="#DejaVuSans-6e"/>
     <use x="1861.919922" xlink:href="#DejaVuSans-63"/>
     <use x="1916.900391" xlink:href="#DejaVuSans-65"/>
     <use x="1978.423828" xlink:href="#DejaVuSans-20"/>
     <use x="2010.210938" xlink:href="#DejaVuSans-44"/>
     <use x="2087.212891" xlink:href="#DejaVuSans-69"/>
     <use x="2114.996094" xlink:href="#DejaVuSans-73"/>
     <use x="2167.095703" xlink:href="#DejaVuSans-74"/>
     <use x="2206.304688" xlink:href="#DejaVuSans-61"/>
     <use x="2267.583984" xlink:href="#DejaVuSans-6e"/>
     <use x="2330.962891" xlink:href="#DejaVuSans-63"/>
     <use x="2385.943359" xlink:href="#DejaVuSans-65"/>
    </g>
   </g>
  </g>
 </g>
 <defs>
  <clipPath id="pf168c55b29">
   <rect height="266.112" width="357.12" x="72.415625" y="22.318125"/>
  </clipPath>
 </defs>
</svg>
