<?xml version="1.0" encoding="utf-8" standalone="no"?>
<!DOCTYPE svg PUBLIC "-//W3C//DTD SVG 1.1//EN"
  "http://www.w3.org/Graphics/SVG/1.1/DTD/svg11.dtd">
<!-- Created with matplotlib (http://matplotlib.org/) -->
<svg height="325pt" version="1.1" viewBox="0 0 419 325" width="419pt" xmlns="http://www.w3.org/2000/svg" xmlns:xlink="http://www.w3.org/1999/xlink">
 <defs>
  <style type="text/css">
*{stroke-linecap:butt;stroke-linejoin:round;}
  </style>
 </defs>
 <g id="figure_1">
  <g id="patch_1">
   <path d="M 0 325.986375 
L 419.980937 325.986375 
L 419.980937 0 
L 0 0 
z
" style="fill:#ffffff;"/>
  </g>
  <g id="axes_1">
   <g id="patch_2">
    <path d="M 52.160938 288.430125 
L 409.280938 288.430125 
L 409.280938 22.318125 
L 52.160938 22.318125 
z
" style="fill:#ffffff;"/>
   </g>
   <g id="PathCollection_1">
    <defs>
     <path d="M 0 3 
C 0.795609 3 1.55874 2.683901 2.12132 2.12132 
C 2.683901 1.55874 3 0.795609 3 0 
C 3 -0.795609 2.683901 -1.55874 2.12132 -2.12132 
C 1.55874 -2.683901 0.795609 -3 0 -3 
C -0.795609 -3 -1.55874 -2.683901 -2.12132 -2.12132 
C -2.683901 -1.55874 -3 -0.795609 -3 0 
C -3 0.795609 -2.683901 1.55874 -2.12132 2.12132 
C -1.55874 2.683901 -0.795609 3 0 3 
z
" id="me9dcebb6bf" style="stroke:#000000;"/>
    </defs>
    <g clip-path="url(#p0864074e52)">
     <use style="stroke:#000000;" x="52.160938" xlink:href="#me9dcebb6bf" y="22.318125"/>
     <use style="stroke:#000000;" x="55.76821" xlink:href="#me9dcebb6bf" y="22.683082"/>
     <use style="stroke:#000000;" x="59.375483" xlink:href="#me9dcebb6bf" y="23.164766"/>
     <use style="stroke:#000000;" x="62.982756" xlink:href="#me9dcebb6bf" y="23.752165"/>
     <use style="stroke:#000000;" x="66.590028" xlink:href="#me9dcebb6bf" y="24.520347"/>
     <use style="stroke:#000000;" x="70.197301" xlink:href="#me9dcebb6bf" y="25.421646"/>
     <use style="stroke:#000000;" x="73.804574" xlink:href="#me9dcebb6bf" y="26.42294"/>
     <use style="stroke:#000000;" x="77.411847" xlink:href="#me9dcebb6bf" y="27.616707"/>
     <use style="stroke:#000000;" x="81.019119" xlink:href="#me9dcebb6bf" y="29.009538"/>
     <use style="stroke:#000000;" x="84.626392" xlink:href="#me9dcebb6bf" y="30.712007"/>
     <use style="stroke:#000000;" x="88.233665" xlink:href="#me9dcebb6bf" y="32.456942"/>
     <use style="stroke:#000000;" x="91.840938" xlink:href="#me9dcebb6bf" y="34.207172"/>
     <use style="stroke:#000000;" x="95.44821" xlink:href="#me9dcebb6bf" y="36.157313"/>
     <use style="stroke:#000000;" x="99.055483" xlink:href="#me9dcebb6bf" y="38.480883"/>
     <use style="stroke:#000000;" x="102.662756" xlink:href="#me9dcebb6bf" y="41.127421"/>
     <use style="stroke:#000000;" x="106.270028" xlink:href="#me9dcebb6bf" y="44.182678"/>
     <use style="stroke:#000000;" x="109.877301" xlink:href="#me9dcebb6bf" y="47.635919"/>
     <use style="stroke:#000000;" x="113.484574" xlink:href="#me9dcebb6bf" y="51.073011"/>
     <use style="stroke:#000000;" x="117.091847" xlink:href="#me9dcebb6bf" y="54.421901"/>
     <use style="stroke:#000000;" x="120.699119" xlink:href="#me9dcebb6bf" y="58.02736"/>
     <use style="stroke:#000000;" x="124.306392" xlink:href="#me9dcebb6bf" y="61.608687"/>
     <use style="stroke:#000000;" x="127.913665" xlink:href="#me9dcebb6bf" y="65.772355"/>
     <use style="stroke:#000000;" x="131.520938" xlink:href="#me9dcebb6bf" y="70.063766"/>
     <use style="stroke:#000000;" x="135.12821" xlink:href="#me9dcebb6bf" y="74.066904"/>
     <use style="stroke:#000000;" x="138.735483" xlink:href="#me9dcebb6bf" y="78.116903"/>
     <use style="stroke:#000000;" x="142.342756" xlink:href="#me9dcebb6bf" y="82.897966"/>
     <use style="stroke:#000000;" x="145.950028" xlink:href="#me9dcebb6bf" y="88.035065"/>
     <use style="stroke:#000000;" x="149.557301" xlink:href="#me9dcebb6bf" y="92.974819"/>
     <use style="stroke:#000000;" x="153.164574" xlink:href="#me9dcebb6bf" y="98.038568"/>
     <use style="stroke:#000000;" x="156.771847" xlink:href="#me9dcebb6bf" y="102.832512"/>
     <use style="stroke:#000000;" x="160.379119" xlink:href="#me9dcebb6bf" y="107.611113"/>
     <use style="stroke:#000000;" x="163.986392" xlink:href="#me9dcebb6bf" y="112.385479"/>
     <use style="stroke:#000000;" x="167.593665" xlink:href="#me9dcebb6bf" y="117.712819"/>
     <use style="stroke:#000000;" x="171.200938" xlink:href="#me9dcebb6bf" y="123.278156"/>
     <use style="stroke:#000000;" x="174.80821" xlink:href="#me9dcebb6bf" y="129.324508"/>
     <use style="stroke:#000000;" x="178.415483" xlink:href="#me9dcebb6bf" y="135.649787"/>
     <use style="stroke:#000000;" x="182.022756" xlink:href="#me9dcebb6bf" y="141.856657"/>
     <use style="stroke:#000000;" x="185.630028" xlink:href="#me9dcebb6bf" y="147.891334"/>
     <use style="stroke:#000000;" x="189.237301" xlink:href="#me9dcebb6bf" y="153.940922"/>
     <use style="stroke:#000000;" x="192.844574" xlink:href="#me9dcebb6bf" y="159.890496"/>
     <use style="stroke:#000000;" x="196.451847" xlink:href="#me9dcebb6bf" y="165.603615"/>
     <use style="stroke:#000000;" x="200.059119" xlink:href="#me9dcebb6bf" y="171.326898"/>
     <use style="stroke:#000000;" x="203.666392" xlink:href="#me9dcebb6bf" y="177.061561"/>
     <use style="stroke:#000000;" x="207.273665" xlink:href="#me9dcebb6bf" y="182.625296"/>
     <use style="stroke:#000000;" x="210.880938" xlink:href="#me9dcebb6bf" y="187.485364"/>
     <use style="stroke:#000000;" x="214.48821" xlink:href="#me9dcebb6bf" y="192.138375"/>
     <use style="stroke:#000000;" x="218.095483" xlink:href="#me9dcebb6bf" y="196.768601"/>
     <use style="stroke:#000000;" x="221.702756" xlink:href="#me9dcebb6bf" y="200.843518"/>
     <use style="stroke:#000000;" x="225.310028" xlink:href="#me9dcebb6bf" y="204.78512"/>
     <use style="stroke:#000000;" x="228.917301" xlink:href="#me9dcebb6bf" y="208.613952"/>
     <use style="stroke:#000000;" x="232.524574" xlink:href="#me9dcebb6bf" y="212.237153"/>
     <use style="stroke:#000000;" x="236.131847" xlink:href="#me9dcebb6bf" y="215.823665"/>
     <use style="stroke:#000000;" x="239.739119" xlink:href="#me9dcebb6bf" y="219.195311"/>
     <use style="stroke:#000000;" x="243.346392" xlink:href="#me9dcebb6bf" y="222.336266"/>
     <use style="stroke:#000000;" x="246.953665" xlink:href="#me9dcebb6bf" y="225.378092"/>
     <use style="stroke:#000000;" x="250.560938" xlink:href="#me9dcebb6bf" y="228.261816"/>
     <use style="stroke:#000000;" x="254.16821" xlink:href="#me9dcebb6bf" y="231.014876"/>
     <use style="stroke:#000000;" x="257.775483" xlink:href="#me9dcebb6bf" y="233.867721"/>
     <use style="stroke:#000000;" x="261.382756" xlink:href="#me9dcebb6bf" y="236.475542"/>
     <use style="stroke:#000000;" x="264.990028" xlink:href="#me9dcebb6bf" y="238.941049"/>
     <use style="stroke:#000000;" x="268.597301" xlink:href="#me9dcebb6bf" y="241.226345"/>
     <use style="stroke:#000000;" x="272.204574" xlink:href="#me9dcebb6bf" y="243.377628"/>
     <use style="stroke:#000000;" x="275.811847" xlink:href="#me9dcebb6bf" y="245.591403"/>
     <use style="stroke:#000000;" x="279.419119" xlink:href="#me9dcebb6bf" y="247.682505"/>
     <use style="stroke:#000000;" x="283.026392" xlink:href="#me9dcebb6bf" y="249.836476"/>
     <use style="stroke:#000000;" x="286.633665" xlink:href="#me9dcebb6bf" y="251.958777"/>
     <use style="stroke:#000000;" x="290.240938" xlink:href="#me9dcebb6bf" y="254.033539"/>
     <use style="stroke:#000000;" x="293.84821" xlink:href="#me9dcebb6bf" y="255.946037"/>
     <use style="stroke:#000000;" x="297.455483" xlink:href="#me9dcebb6bf" y="257.735012"/>
     <use style="stroke:#000000;" x="301.062756" xlink:href="#me9dcebb6bf" y="259.515883"/>
     <use style="stroke:#000000;" x="304.670028" xlink:href="#me9dcebb6bf" y="261.278153"/>
     <use style="stroke:#000000;" x="308.277301" xlink:href="#me9dcebb6bf" y="263.051293"/>
     <use style="stroke:#000000;" x="311.884574" xlink:href="#me9dcebb6bf" y="264.809339"/>
     <use style="stroke:#000000;" x="315.491847" xlink:href="#me9dcebb6bf" y="266.672107"/>
     <use style="stroke:#000000;" x="319.099119" xlink:href="#me9dcebb6bf" y="268.688912"/>
     <use style="stroke:#000000;" x="322.706392" xlink:href="#me9dcebb6bf" y="270.569289"/>
     <use style="stroke:#000000;" x="326.313665" xlink:href="#me9dcebb6bf" y="272.203926"/>
     <use style="stroke:#000000;" x="329.920938" xlink:href="#me9dcebb6bf" y="273.830822"/>
     <use style="stroke:#000000;" x="333.52821" xlink:href="#me9dcebb6bf" y="275.317911"/>
     <use style="stroke:#000000;" x="337.135483" xlink:href="#me9dcebb6bf" y="276.697082"/>
     <use style="stroke:#000000;" x="340.742756" xlink:href="#me9dcebb6bf" y="278.021456"/>
     <use style="stroke:#000000;" x="344.350028" xlink:href="#me9dcebb6bf" y="279.205414"/>
     <use style="stroke:#000000;" x="347.957301" xlink:href="#me9dcebb6bf" y="280.23268"/>
     <use style="stroke:#000000;" x="351.564574" xlink:href="#me9dcebb6bf" y="281.107239"/>
     <use style="stroke:#000000;" x="355.171847" xlink:href="#me9dcebb6bf" y="281.971069"/>
     <use style="stroke:#000000;" x="358.779119" xlink:href="#me9dcebb6bf" y="282.738113"/>
     <use style="stroke:#000000;" x="362.386392" xlink:href="#me9dcebb6bf" y="283.340807"/>
     <use style="stroke:#000000;" x="365.993665" xlink:href="#me9dcebb6bf" y="283.91479"/>
     <use style="stroke:#000000;" x="369.600938" xlink:href="#me9dcebb6bf" y="284.453687"/>
     <use style="stroke:#000000;" x="373.20821" xlink:href="#me9dcebb6bf" y="284.981239"/>
     <use style="stroke:#000000;" x="376.815483" xlink:href="#me9dcebb6bf" y="285.479536"/>
     <use style="stroke:#000000;" x="380.422756" xlink:href="#me9dcebb6bf" y="285.867725"/>
     <use style="stroke:#000000;" x="384.030028" xlink:href="#me9dcebb6bf" y="286.202718"/>
     <use style="stroke:#000000;" x="387.637301" xlink:href="#me9dcebb6bf" y="286.506611"/>
     <use style="stroke:#000000;" x="391.244574" xlink:href="#me9dcebb6bf" y="286.765429"/>
     <use style="stroke:#000000;" x="394.851847" xlink:href="#me9dcebb6bf" y="287.103759"/>
     <use style="stroke:#000000;" x="398.459119" xlink:href="#me9dcebb6bf" y="287.41875"/>
     <use style="stroke:#000000;" x="402.066392" xlink:href="#me9dcebb6bf" y="287.793695"/>
     <use style="stroke:#000000;" x="405.673665" xlink:href="#me9dcebb6bf" y="288.154627"/>
     <use style="stroke:#000000;" x="409.280938" xlink:href="#me9dcebb6bf" y="288.430125"/>
    </g>
   </g>
   <g id="matplotlib.axis_1">
    <g id="xtick_1">
     <g id="line2d_1">
      <defs>
       <path d="M 0 0 
L 0 3.5 
" id="mdc69dcc884" style="stroke:#000000;stroke-width:0.8;"/>
      </defs>
      <g>
       <use style="stroke:#000000;stroke-width:0.8;" x="121.368821" xlink:href="#mdc69dcc884" y="288.430125"/>
      </g>
     </g>
     <g id="text_1">
      <!-- 2 -->
      <defs>
       <path d="M 19.1875 8.296875 
L 53.609375 8.296875 
L 53.609375 0 
L 7.328125 0 
L 7.328125 8.296875 
Q 12.9375 14.109375 22.625 23.890625 
Q 32.328125 33.6875 34.8125 36.53125 
Q 39.546875 41.84375 41.421875 45.53125 
Q 43.3125 49.21875 43.3125 52.78125 
Q 43.3125 58.59375 39.234375 62.25 
Q 35.15625 65.921875 28.609375 65.921875 
Q 23.96875 65.921875 18.8125 64.3125 
Q 13.671875 62.703125 7.8125 59.421875 
L 7.8125 69.390625 
Q 13.765625 71.78125 18.9375 73 
Q 24.125 74.21875 28.421875 74.21875 
Q 39.75 74.21875 46.484375 68.546875 
Q 53.21875 62.890625 53.21875 53.421875 
Q 53.21875 48.921875 51.53125 44.890625 
Q 49.859375 40.875 45.40625 35.40625 
Q 44.1875 33.984375 37.640625 27.21875 
Q 31.109375 20.453125 19.1875 8.296875 
z
" id="DejaVuSans-32"/>
      </defs>
      <g transform="translate(118.187571 303.028562)scale(0.1 -0.1)">
       <use xlink:href="#DejaVuSans-32"/>
      </g>
     </g>
    </g>
    <g id="xtick_2">
     <g id="line2d_2">
      <g>
       <use style="stroke:#000000;stroke-width:0.8;" x="194.183977" xlink:href="#mdc69dcc884" y="288.430125"/>
      </g>
     </g>
     <g id="text_2">
      <!-- 4 -->
      <defs>
       <path d="M 37.796875 64.3125 
L 12.890625 25.390625 
L 37.796875 25.390625 
z
M 35.203125 72.90625 
L 47.609375 72.90625 
L 47.609375 25.390625 
L 58.015625 25.390625 
L 58.015625 17.1875 
L 47.609375 17.1875 
L 47.609375 0 
L 37.796875 0 
L 37.796875 17.1875 
L 4.890625 17.1875 
L 4.890625 26.703125 
z
" id="DejaVuSans-34"/>
      </defs>
      <g transform="translate(191.002727 303.028562)scale(0.1 -0.1)">
       <use xlink:href="#DejaVuSans-34"/>
      </g>
     </g>
    </g>
    <g id="xtick_3">
     <g id="line2d_3">
      <g>
       <use style="stroke:#000000;stroke-width:0.8;" x="266.999133" xlink:href="#mdc69dcc884" y="288.430125"/>
      </g>
     </g>
     <g id="text_3">
      <!-- 6 -->
      <defs>
       <path d="M 33.015625 40.375 
Q 26.375 40.375 22.484375 35.828125 
Q 18.609375 31.296875 18.609375 23.390625 
Q 18.609375 15.53125 22.484375 10.953125 
Q 26.375 6.390625 33.015625 6.390625 
Q 39.65625 6.390625 43.53125 10.953125 
Q 47.40625 15.53125 47.40625 23.390625 
Q 47.40625 31.296875 43.53125 35.828125 
Q 39.65625 40.375 33.015625 40.375 
z
M 52.59375 71.296875 
L 52.59375 62.3125 
Q 48.875 64.0625 45.09375 64.984375 
Q 41.3125 65.921875 37.59375 65.921875 
Q 27.828125 65.921875 22.671875 59.328125 
Q 17.53125 52.734375 16.796875 39.40625 
Q 19.671875 43.65625 24.015625 45.921875 
Q 28.375 48.1875 33.59375 48.1875 
Q 44.578125 48.1875 50.953125 41.515625 
Q 57.328125 34.859375 57.328125 23.390625 
Q 57.328125 12.15625 50.6875 5.359375 
Q 44.046875 -1.421875 33.015625 -1.421875 
Q 20.359375 -1.421875 13.671875 8.265625 
Q 6.984375 17.96875 6.984375 36.375 
Q 6.984375 53.65625 15.1875 63.9375 
Q 23.390625 74.21875 37.203125 74.21875 
Q 40.921875 74.21875 44.703125 73.484375 
Q 48.484375 72.75 52.59375 71.296875 
z
" id="DejaVuSans-36"/>
      </defs>
      <g transform="translate(263.817883 303.028562)scale(0.1 -0.1)">
       <use xlink:href="#DejaVuSans-36"/>
      </g>
     </g>
    </g>
    <g id="xtick_4">
     <g id="line2d_4">
      <g>
       <use style="stroke:#000000;stroke-width:0.8;" x="339.814289" xlink:href="#mdc69dcc884" y="288.430125"/>
      </g>
     </g>
     <g id="text_4">
      <!-- 8 -->
      <defs>
       <path d="M 31.78125 34.625 
Q 24.75 34.625 20.71875 30.859375 
Q 16.703125 27.09375 16.703125 20.515625 
Q 16.703125 13.921875 20.71875 10.15625 
Q 24.75 6.390625 31.78125 6.390625 
Q 38.8125 6.390625 42.859375 10.171875 
Q 46.921875 13.96875 46.921875 20.515625 
Q 46.921875 27.09375 42.890625 30.859375 
Q 38.875 34.625 31.78125 34.625 
z
M 21.921875 38.8125 
Q 15.578125 40.375 12.03125 44.71875 
Q 8.5 49.078125 8.5 55.328125 
Q 8.5 64.0625 14.71875 69.140625 
Q 20.953125 74.21875 31.78125 74.21875 
Q 42.671875 74.21875 48.875 69.140625 
Q 55.078125 64.0625 55.078125 55.328125 
Q 55.078125 49.078125 51.53125 44.71875 
Q 48 40.375 41.703125 38.8125 
Q 48.828125 37.15625 52.796875 32.3125 
Q 56.78125 27.484375 56.78125 20.515625 
Q 56.78125 9.90625 50.3125 4.234375 
Q 43.84375 -1.421875 31.78125 -1.421875 
Q 19.734375 -1.421875 13.25 4.234375 
Q 6.78125 9.90625 6.78125 20.515625 
Q 6.78125 27.484375 10.78125 32.3125 
Q 14.796875 37.15625 21.921875 38.8125 
z
M 18.3125 54.390625 
Q 18.3125 48.734375 21.84375 45.5625 
Q 25.390625 42.390625 31.78125 42.390625 
Q 38.140625 42.390625 41.71875 45.5625 
Q 45.3125 48.734375 45.3125 54.390625 
Q 45.3125 60.0625 41.71875 63.234375 
Q 38.140625 66.40625 31.78125 66.40625 
Q 25.390625 66.40625 21.84375 63.234375 
Q 18.3125 60.0625 18.3125 54.390625 
z
" id="DejaVuSans-38"/>
      </defs>
      <g transform="translate(336.633039 303.028562)scale(0.1 -0.1)">
       <use xlink:href="#DejaVuSans-38"/>
      </g>
     </g>
    </g>
    <g id="text_5">
     <!-- Input Distance -->
     <defs>
      <path d="M 9.8125 72.90625 
L 19.671875 72.90625 
L 19.671875 0 
L 9.8125 0 
z
" id="DejaVuSans-49"/>
      <path d="M 54.890625 33.015625 
L 54.890625 0 
L 45.90625 0 
L 45.90625 32.71875 
Q 45.90625 40.484375 42.875 44.328125 
Q 39.84375 48.1875 33.796875 48.1875 
Q 26.515625 48.1875 22.3125 43.546875 
Q 18.109375 38.921875 18.109375 30.90625 
L 18.109375 0 
L 9.078125 0 
L 9.078125 54.6875 
L 18.109375 54.6875 
L 18.109375 46.1875 
Q 21.34375 51.125 25.703125 53.5625 
Q 30.078125 56 35.796875 56 
Q 45.21875 56 50.046875 50.171875 
Q 54.890625 44.34375 54.890625 33.015625 
z
" id="DejaVuSans-6e"/>
      <path d="M 18.109375 8.203125 
L 18.109375 -20.796875 
L 9.078125 -20.796875 
L 9.078125 54.6875 
L 18.109375 54.6875 
L 18.109375 46.390625 
Q 20.953125 51.265625 25.265625 53.625 
Q 29.59375 56 35.59375 56 
Q 45.5625 56 51.78125 48.09375 
Q 58.015625 40.1875 58.015625 27.296875 
Q 58.015625 14.40625 51.78125 6.484375 
Q 45.5625 -1.421875 35.59375 -1.421875 
Q 29.59375 -1.421875 25.265625 0.953125 
Q 20.953125 3.328125 18.109375 8.203125 
z
M 48.6875 27.296875 
Q 48.6875 37.203125 44.609375 42.84375 
Q 40.53125 48.484375 33.40625 48.484375 
Q 26.265625 48.484375 22.1875 42.84375 
Q 18.109375 37.203125 18.109375 27.296875 
Q 18.109375 17.390625 22.1875 11.75 
Q 26.265625 6.109375 33.40625 6.109375 
Q 40.53125 6.109375 44.609375 11.75 
Q 48.6875 17.390625 48.6875 27.296875 
z
" id="DejaVuSans-70"/>
      <path d="M 8.5 21.578125 
L 8.5 54.6875 
L 17.484375 54.6875 
L 17.484375 21.921875 
Q 17.484375 14.15625 20.5 10.265625 
Q 23.53125 6.390625 29.59375 6.390625 
Q 36.859375 6.390625 41.078125 11.03125 
Q 45.3125 15.671875 45.3125 23.6875 
L 45.3125 54.6875 
L 54.296875 54.6875 
L 54.296875 0 
L 45.3125 0 
L 45.3125 8.40625 
Q 42.046875 3.421875 37.71875 1 
Q 33.40625 -1.421875 27.6875 -1.421875 
Q 18.265625 -1.421875 13.375 4.4375 
Q 8.5 10.296875 8.5 21.578125 
z
M 31.109375 56 
z
" id="DejaVuSans-75"/>
      <path d="M 18.3125 70.21875 
L 18.3125 54.6875 
L 36.8125 54.6875 
L 36.8125 47.703125 
L 18.3125 47.703125 
L 18.3125 18.015625 
Q 18.3125 11.328125 20.140625 9.421875 
Q 21.96875 7.515625 27.59375 7.515625 
L 36.8125 7.515625 
L 36.8125 0 
L 27.59375 0 
Q 17.1875 0 13.234375 3.875 
Q 9.28125 7.765625 9.28125 18.015625 
L 9.28125 47.703125 
L 2.6875 47.703125 
L 2.6875 54.6875 
L 9.28125 54.6875 
L 9.28125 70.21875 
z
" id="DejaVuSans-74"/>
      <path id="DejaVuSans-20"/>
      <path d="M 19.671875 64.796875 
L 19.671875 8.109375 
L 31.59375 8.109375 
Q 46.6875 8.109375 53.6875 14.9375 
Q 60.6875 21.78125 60.6875 36.53125 
Q 60.6875 51.171875 53.6875 57.984375 
Q 46.6875 64.796875 31.59375 64.796875 
z
M 9.8125 72.90625 
L 30.078125 72.90625 
Q 51.265625 72.90625 61.171875 64.09375 
Q 71.09375 55.28125 71.09375 36.53125 
Q 71.09375 17.671875 61.125 8.828125 
Q 51.171875 0 30.078125 0 
L 9.8125 0 
z
" id="DejaVuSans-44"/>
      <path d="M 9.421875 54.6875 
L 18.40625 54.6875 
L 18.40625 0 
L 9.421875 0 
z
M 9.421875 75.984375 
L 18.40625 75.984375 
L 18.40625 64.59375 
L 9.421875 64.59375 
z
" id="DejaVuSans-69"/>
      <path d="M 44.28125 53.078125 
L 44.28125 44.578125 
Q 40.484375 46.53125 36.375 47.5 
Q 32.28125 48.484375 27.875 48.484375 
Q 21.1875 48.484375 17.84375 46.4375 
Q 14.5 44.390625 14.5 40.28125 
Q 14.5 37.15625 16.890625 35.375 
Q 19.28125 33.59375 26.515625 31.984375 
L 29.59375 31.296875 
Q 39.15625 29.25 43.1875 25.515625 
Q 47.21875 21.78125 47.21875 15.09375 
Q 47.21875 7.46875 41.1875 3.015625 
Q 35.15625 -1.421875 24.609375 -1.421875 
Q 20.21875 -1.421875 15.453125 -0.5625 
Q 10.6875 0.296875 5.421875 2 
L 5.421875 11.28125 
Q 10.40625 8.6875 15.234375 7.390625 
Q 20.0625 6.109375 24.8125 6.109375 
Q 31.15625 6.109375 34.5625 8.28125 
Q 37.984375 10.453125 37.984375 14.40625 
Q 37.984375 18.0625 35.515625 20.015625 
Q 33.0625 21.96875 24.703125 23.78125 
L 21.578125 24.515625 
Q 13.234375 26.265625 9.515625 29.90625 
Q 5.8125 33.546875 5.8125 39.890625 
Q 5.8125 47.609375 11.28125 51.796875 
Q 16.75 56 26.8125 56 
Q 31.78125 56 36.171875 55.265625 
Q 40.578125 54.546875 44.28125 53.078125 
z
" id="DejaVuSans-73"/>
      <path d="M 34.28125 27.484375 
Q 23.390625 27.484375 19.1875 25 
Q 14.984375 22.515625 14.984375 16.5 
Q 14.984375 11.71875 18.140625 8.90625 
Q 21.296875 6.109375 26.703125 6.109375 
Q 34.1875 6.109375 38.703125 11.40625 
Q 43.21875 16.703125 43.21875 25.484375 
L 43.21875 27.484375 
z
M 52.203125 31.203125 
L 52.203125 0 
L 43.21875 0 
L 43.21875 8.296875 
Q 40.140625 3.328125 35.546875 0.953125 
Q 30.953125 -1.421875 24.3125 -1.421875 
Q 15.921875 -1.421875 10.953125 3.296875 
Q 6 8.015625 6 15.921875 
Q 6 25.140625 12.171875 29.828125 
Q 18.359375 34.515625 30.609375 34.515625 
L 43.21875 34.515625 
L 43.21875 35.40625 
Q 43.21875 41.609375 39.140625 45 
Q 35.0625 48.390625 27.6875 48.390625 
Q 23 48.390625 18.546875 47.265625 
Q 14.109375 46.140625 10.015625 43.890625 
L 10.015625 52.203125 
Q 14.9375 54.109375 19.578125 55.046875 
Q 24.21875 56 28.609375 56 
Q 40.484375 56 46.34375 49.84375 
Q 52.203125 43.703125 52.203125 31.203125 
z
" id="DejaVuSans-61"/>
      <path d="M 48.78125 52.59375 
L 48.78125 44.1875 
Q 44.96875 46.296875 41.140625 47.34375 
Q 37.3125 48.390625 33.40625 48.390625 
Q 24.65625 48.390625 19.8125 42.84375 
Q 14.984375 37.3125 14.984375 27.296875 
Q 14.984375 17.28125 19.8125 11.734375 
Q 24.65625 6.203125 33.40625 6.203125 
Q 37.3125 6.203125 41.140625 7.25 
Q 44.96875 8.296875 48.78125 10.40625 
L 48.78125 2.09375 
Q 45.015625 0.34375 40.984375 -0.53125 
Q 36.96875 -1.421875 32.421875 -1.421875 
Q 20.0625 -1.421875 12.78125 6.34375 
Q 5.515625 14.109375 5.515625 27.296875 
Q 5.515625 40.671875 12.859375 48.328125 
Q 20.21875 56 33.015625 56 
Q 37.15625 56 41.109375 55.140625 
Q 45.0625 54.296875 48.78125 52.59375 
z
" id="DejaVuSans-63"/>
      <path d="M 56.203125 29.59375 
L 56.203125 25.203125 
L 14.890625 25.203125 
Q 15.484375 15.921875 20.484375 11.0625 
Q 25.484375 6.203125 34.421875 6.203125 
Q 39.59375 6.203125 44.453125 7.46875 
Q 49.3125 8.734375 54.109375 11.28125 
L 54.109375 2.78125 
Q 49.265625 0.734375 44.1875 -0.34375 
Q 39.109375 -1.421875 33.890625 -1.421875 
Q 20.796875 -1.421875 13.15625 6.1875 
Q 5.515625 13.8125 5.515625 26.8125 
Q 5.515625 40.234375 12.765625 48.109375 
Q 20.015625 56 32.328125 56 
Q 43.359375 56 49.78125 48.890625 
Q 56.203125 41.796875 56.203125 29.59375 
z
M 47.21875 32.234375 
Q 47.125 39.59375 43.09375 43.984375 
Q 39.0625 48.390625 32.421875 48.390625 
Q 24.90625 48.390625 20.390625 44.140625 
Q 15.875 39.890625 15.1875 32.171875 
z
" id="DejaVuSans-65"/>
     </defs>
     <g transform="translate(194.3225 316.706687)scale(0.1 -0.1)">
      <use xlink:href="#DejaVuSans-49"/>
      <use x="29.492188" xlink:href="#DejaVuSans-6e"/>
      <use x="92.871094" xlink:href="#DejaVuSans-70"/>
      <use x="156.347656" xlink:href="#DejaVuSans-75"/>
      <use x="219.726562" xlink:href="#DejaVuSans-74"/>
      <use x="258.935547" xlink:href="#DejaVuSans-20"/>
      <use x="290.722656" xlink:href="#DejaVuSans-44"/>
      <use x="367.724609" xlink:href="#DejaVuSans-69"/>
      <use x="395.507812" xlink:href="#DejaVuSans-73"/>
      <use x="447.607422" xlink:href="#DejaVuSans-74"/>
      <use x="486.816406" xlink:href="#DejaVuSans-61"/>
      <use x="548.095703" xlink:href="#DejaVuSans-6e"/>
      <use x="611.474609" xlink:href="#DejaVuSans-63"/>
      <use x="666.455078" xlink:href="#DejaVuSans-65"/>
     </g>
    </g>
   </g>
   <g id="matplotlib.axis_2">
    <g id="ytick_1">
     <g id="line2d_5">
      <defs>
       <path d="M 0 0 
L -3.5 0 
" id="m54ea711f1c" style="stroke:#000000;stroke-width:0.8;"/>
      </defs>
      <g>
       <use style="stroke:#000000;stroke-width:0.8;" x="52.160938" xlink:href="#m54ea711f1c" y="266.138859"/>
      </g>
     </g>
     <g id="text_6">
      <!-- −0.2 -->
      <defs>
       <path d="M 10.59375 35.5 
L 73.1875 35.5 
L 73.1875 27.203125 
L 10.59375 27.203125 
z
" id="DejaVuSans-2212"/>
       <path d="M 31.78125 66.40625 
Q 24.171875 66.40625 20.328125 58.90625 
Q 16.5 51.421875 16.5 36.375 
Q 16.5 21.390625 20.328125 13.890625 
Q 24.171875 6.390625 31.78125 6.390625 
Q 39.453125 6.390625 43.28125 13.890625 
Q 47.125 21.390625 47.125 36.375 
Q 47.125 51.421875 43.28125 58.90625 
Q 39.453125 66.40625 31.78125 66.40625 
z
M 31.78125 74.21875 
Q 44.046875 74.21875 50.515625 64.515625 
Q 56.984375 54.828125 56.984375 36.375 
Q 56.984375 17.96875 50.515625 8.265625 
Q 44.046875 -1.421875 31.78125 -1.421875 
Q 19.53125 -1.421875 13.0625 8.265625 
Q 6.59375 17.96875 6.59375 36.375 
Q 6.59375 54.828125 13.0625 64.515625 
Q 19.53125 74.21875 31.78125 74.21875 
z
" id="DejaVuSans-30"/>
       <path d="M 10.6875 12.40625 
L 21 12.40625 
L 21 0 
L 10.6875 0 
z
" id="DejaVuSans-2e"/>
      </defs>
      <g transform="translate(20.878125 269.938077)scale(0.1 -0.1)">
       <use xlink:href="#DejaVuSans-2212"/>
       <use x="83.789062" xlink:href="#DejaVuSans-30"/>
       <use x="147.412109" xlink:href="#DejaVuSans-2e"/>
       <use x="179.199219" xlink:href="#DejaVuSans-32"/>
      </g>
     </g>
    </g>
    <g id="ytick_2">
     <g id="line2d_6">
      <g>
       <use style="stroke:#000000;stroke-width:0.8;" x="52.160938" xlink:href="#m54ea711f1c" y="221.721336"/>
      </g>
     </g>
     <g id="text_7">
      <!-- 0.0 -->
      <g transform="translate(29.257813 225.520555)scale(0.1 -0.1)">
       <use xlink:href="#DejaVuSans-30"/>
       <use x="63.623047" xlink:href="#DejaVuSans-2e"/>
       <use x="95.410156" xlink:href="#DejaVuSans-30"/>
      </g>
     </g>
    </g>
    <g id="ytick_3">
     <g id="line2d_7">
      <g>
       <use style="stroke:#000000;stroke-width:0.8;" x="52.160938" xlink:href="#m54ea711f1c" y="177.303814"/>
      </g>
     </g>
     <g id="text_8">
      <!-- 0.2 -->
      <g transform="translate(29.257813 181.103032)scale(0.1 -0.1)">
       <use xlink:href="#DejaVuSans-30"/>
       <use x="63.623047" xlink:href="#DejaVuSans-2e"/>
       <use x="95.410156" xlink:href="#DejaVuSans-32"/>
      </g>
     </g>
    </g>
    <g id="ytick_4">
     <g id="line2d_8">
      <g>
       <use style="stroke:#000000;stroke-width:0.8;" x="52.160938" xlink:href="#m54ea711f1c" y="132.886291"/>
      </g>
     </g>
     <g id="text_9">
      <!-- 0.4 -->
      <g transform="translate(29.257813 136.68551)scale(0.1 -0.1)">
       <use xlink:href="#DejaVuSans-30"/>
       <use x="63.623047" xlink:href="#DejaVuSans-2e"/>
       <use x="95.410156" xlink:href="#DejaVuSans-34"/>
      </g>
     </g>
    </g>
    <g id="ytick_5">
     <g id="line2d_9">
      <g>
       <use style="stroke:#000000;stroke-width:0.8;" x="52.160938" xlink:href="#m54ea711f1c" y="88.468769"/>
      </g>
     </g>
     <g id="text_10">
      <!-- 0.6 -->
      <g transform="translate(29.257813 92.267987)scale(0.1 -0.1)">
       <use xlink:href="#DejaVuSans-30"/>
       <use x="63.623047" xlink:href="#DejaVuSans-2e"/>
       <use x="95.410156" xlink:href="#DejaVuSans-36"/>
      </g>
     </g>
    </g>
    <g id="ytick_6">
     <g id="line2d_10">
      <g>
       <use style="stroke:#000000;stroke-width:0.8;" x="52.160938" xlink:href="#m54ea711f1c" y="44.051246"/>
      </g>
     </g>
     <g id="text_11">
      <!-- 0.8 -->
      <g transform="translate(29.257813 47.850465)scale(0.1 -0.1)">
       <use xlink:href="#DejaVuSans-30"/>
       <use x="63.623047" xlink:href="#DejaVuSans-2e"/>
       <use x="95.410156" xlink:href="#DejaVuSans-38"/>
      </g>
     </g>
    </g>
    <g id="text_12">
     <!-- Correct Class Probability -->
     <defs>
      <path d="M 64.40625 67.28125 
L 64.40625 56.890625 
Q 59.421875 61.53125 53.78125 63.8125 
Q 48.140625 66.109375 41.796875 66.109375 
Q 29.296875 66.109375 22.65625 58.46875 
Q 16.015625 50.828125 16.015625 36.375 
Q 16.015625 21.96875 22.65625 14.328125 
Q 29.296875 6.6875 41.796875 6.6875 
Q 48.140625 6.6875 53.78125 8.984375 
Q 59.421875 11.28125 64.40625 15.921875 
L 64.40625 5.609375 
Q 59.234375 2.09375 53.4375 0.328125 
Q 47.65625 -1.421875 41.21875 -1.421875 
Q 24.65625 -1.421875 15.125 8.703125 
Q 5.609375 18.84375 5.609375 36.375 
Q 5.609375 53.953125 15.125 64.078125 
Q 24.65625 74.21875 41.21875 74.21875 
Q 47.75 74.21875 53.53125 72.484375 
Q 59.328125 70.75 64.40625 67.28125 
z
" id="DejaVuSans-43"/>
      <path d="M 30.609375 48.390625 
Q 23.390625 48.390625 19.1875 42.75 
Q 14.984375 37.109375 14.984375 27.296875 
Q 14.984375 17.484375 19.15625 11.84375 
Q 23.34375 6.203125 30.609375 6.203125 
Q 37.796875 6.203125 41.984375 11.859375 
Q 46.1875 17.53125 46.1875 27.296875 
Q 46.1875 37.015625 41.984375 42.703125 
Q 37.796875 48.390625 30.609375 48.390625 
z
M 30.609375 56 
Q 42.328125 56 49.015625 48.375 
Q 55.71875 40.765625 55.71875 27.296875 
Q 55.71875 13.875 49.015625 6.21875 
Q 42.328125 -1.421875 30.609375 -1.421875 
Q 18.84375 -1.421875 12.171875 6.21875 
Q 5.515625 13.875 5.515625 27.296875 
Q 5.515625 40.765625 12.171875 48.375 
Q 18.84375 56 30.609375 56 
z
" id="DejaVuSans-6f"/>
      <path d="M 41.109375 46.296875 
Q 39.59375 47.171875 37.8125 47.578125 
Q 36.03125 48 33.890625 48 
Q 26.265625 48 22.1875 43.046875 
Q 18.109375 38.09375 18.109375 28.8125 
L 18.109375 0 
L 9.078125 0 
L 9.078125 54.6875 
L 18.109375 54.6875 
L 18.109375 46.1875 
Q 20.953125 51.171875 25.484375 53.578125 
Q 30.03125 56 36.53125 56 
Q 37.453125 56 38.578125 55.875 
Q 39.703125 55.765625 41.0625 55.515625 
z
" id="DejaVuSans-72"/>
      <path d="M 9.421875 75.984375 
L 18.40625 75.984375 
L 18.40625 0 
L 9.421875 0 
z
" id="DejaVuSans-6c"/>
      <path d="M 19.671875 64.796875 
L 19.671875 37.40625 
L 32.078125 37.40625 
Q 38.96875 37.40625 42.71875 40.96875 
Q 46.484375 44.53125 46.484375 51.125 
Q 46.484375 57.671875 42.71875 61.234375 
Q 38.96875 64.796875 32.078125 64.796875 
z
M 9.8125 72.90625 
L 32.078125 72.90625 
Q 44.34375 72.90625 50.609375 67.359375 
Q 56.890625 61.8125 56.890625 51.125 
Q 56.890625 40.328125 50.609375 34.8125 
Q 44.34375 29.296875 32.078125 29.296875 
L 19.671875 29.296875 
L 19.671875 0 
L 9.8125 0 
z
" id="DejaVuSans-50"/>
      <path d="M 48.6875 27.296875 
Q 48.6875 37.203125 44.609375 42.84375 
Q 40.53125 48.484375 33.40625 48.484375 
Q 26.265625 48.484375 22.1875 42.84375 
Q 18.109375 37.203125 18.109375 27.296875 
Q 18.109375 17.390625 22.1875 11.75 
Q 26.265625 6.109375 33.40625 6.109375 
Q 40.53125 6.109375 44.609375 11.75 
Q 48.6875 17.390625 48.6875 27.296875 
z
M 18.109375 46.390625 
Q 20.953125 51.265625 25.265625 53.625 
Q 29.59375 56 35.59375 56 
Q 45.5625 56 51.78125 48.09375 
Q 58.015625 40.1875 58.015625 27.296875 
Q 58.015625 14.40625 51.78125 6.484375 
Q 45.5625 -1.421875 35.59375 -1.421875 
Q 29.59375 -1.421875 25.265625 0.953125 
Q 20.953125 3.328125 18.109375 8.203125 
L 18.109375 0 
L 9.078125 0 
L 9.078125 75.984375 
L 18.109375 75.984375 
z
" id="DejaVuSans-62"/>
      <path d="M 32.171875 -5.078125 
Q 28.375 -14.84375 24.75 -17.8125 
Q 21.140625 -20.796875 15.09375 -20.796875 
L 7.90625 -20.796875 
L 7.90625 -13.28125 
L 13.1875 -13.28125 
Q 16.890625 -13.28125 18.9375 -11.515625 
Q 21 -9.765625 23.484375 -3.21875 
L 25.09375 0.875 
L 2.984375 54.6875 
L 12.5 54.6875 
L 29.59375 11.921875 
L 46.6875 54.6875 
L 56.203125 54.6875 
z
" id="DejaVuSans-79"/>
     </defs>
     <g transform="translate(14.798438 216.778031)rotate(-90)scale(0.1 -0.1)">
      <use xlink:href="#DejaVuSans-43"/>
      <use x="69.824219" xlink:href="#DejaVuSans-6f"/>
      <use x="131.005859" xlink:href="#DejaVuSans-72"/>
      <use x="172.103516" xlink:href="#DejaVuSans-72"/>
      <use x="213.185547" xlink:href="#DejaVuSans-65"/>
      <use x="274.708984" xlink:href="#DejaVuSans-63"/>
      <use x="329.689453" xlink:href="#DejaVuSans-74"/>
      <use x="368.898438" xlink:href="#DejaVuSans-20"/>
      <use x="400.685547" xlink:href="#DejaVuSans-43"/>
      <use x="470.509766" xlink:href="#DejaVuSans-6c"/>
      <use x="498.292969" xlink:href="#DejaVuSans-61"/>
      <use x="559.572266" xlink:href="#DejaVuSans-73"/>
      <use x="611.671875" xlink:href="#DejaVuSans-73"/>
      <use x="663.771484" xlink:href="#DejaVuSans-20"/>
      <use x="695.558594" xlink:href="#DejaVuSans-50"/>
      <use x="755.845703" xlink:href="#DejaVuSans-72"/>
      <use x="796.927734" xlink:href="#DejaVuSans-6f"/>
      <use x="858.109375" xlink:href="#DejaVuSans-62"/>
      <use x="921.585938" xlink:href="#DejaVuSans-61"/>
      <use x="982.865234" xlink:href="#DejaVuSans-62"/>
      <use x="1046.341797" xlink:href="#DejaVuSans-69"/>
      <use x="1074.125" xlink:href="#DejaVuSans-6c"/>
      <use x="1101.908203" xlink:href="#DejaVuSans-69"/>
      <use x="1129.691406" xlink:href="#DejaVuSans-74"/>
      <use x="1168.900391" xlink:href="#DejaVuSans-79"/>
     </g>
    </g>
   </g>
   <g id="line2d_11">
    <path clip-path="url(#p0864074e52)" d="M 52.160938 0.78088 
L 55.76821 4.618119 
L 59.375483 8.455359 
L 62.982756 12.292598 
L 66.590028 16.129838 
L 70.197301 19.967077 
L 73.804574 23.804316 
L 77.411847 27.641556 
L 81.019119 31.478795 
L 84.626392 35.316035 
L 88.233665 39.153274 
L 91.840938 42.990514 
L 95.44821 46.827753 
L 99.055483 50.664992 
L 102.662756 54.502232 
L 106.270028 58.339471 
L 109.877301 62.176711 
L 113.484574 66.01395 
L 117.091847 69.851189 
L 120.699119 73.688429 
L 124.306392 77.525668 
L 127.913665 81.362908 
L 131.520938 85.200147 
L 135.12821 89.037387 
L 138.735483 92.874626 
L 142.342756 96.711865 
L 145.950028 100.549105 
L 149.557301 104.386344 
L 153.164574 108.223584 
L 156.771847 112.060823 
L 160.379119 115.898063 
L 163.986392 119.735302 
L 167.593665 123.572541 
L 171.200938 127.409781 
L 174.80821 131.24702 
L 178.415483 135.08426 
L 182.022756 138.921499 
L 185.630028 142.758739 
L 189.237301 146.595978 
L 192.844574 150.433217 
L 196.451847 154.270457 
L 200.059119 158.107696 
L 203.666392 161.944936 
L 207.273665 165.782175 
L 210.880938 169.619415 
L 214.48821 173.456654 
L 218.095483 177.293893 
L 221.702756 181.131133 
L 225.310028 184.968372 
L 228.917301 188.805612 
L 232.524574 192.642851 
L 236.131847 196.48009 
L 239.739119 200.31733 
L 243.346392 204.154569 
L 246.953665 207.991809 
L 250.560938 211.829048 
L 254.16821 215.666288 
L 257.775483 219.503527 
L 261.382756 223.340766 
L 264.990028 227.178006 
L 268.597301 231.015245 
L 272.204574 234.852485 
L 275.811847 238.689724 
L 279.419119 242.526964 
L 283.026392 246.364203 
L 286.633665 250.201442 
L 290.240938 254.038682 
L 293.84821 257.875921 
L 297.455483 261.713161 
L 301.062756 265.5504 
L 304.670028 269.38764 
L 308.277301 273.224879 
L 311.884574 277.062118 
L 315.491847 280.899358 
L 319.099119 284.736597 
L 322.706392 288.573837 
L 326.313665 292.411076 
L 329.920938 296.248316 
L 333.52821 300.085555 
L 337.135483 303.922794 
L 340.742756 307.760034 
L 344.350028 311.597273 
L 347.957301 315.434513 
L 351.564574 319.271752 
L 355.171847 323.108991 
L 358.779119 326.946231 
L 358.816858 326.986375 
" style="fill:none;stroke:#c0c0c0;stroke-linecap:square;stroke-width:3;"/>
   </g>
   <g id="patch_3">
    <path d="M 52.160938 288.430125 
L 52.160938 22.318125 
" style="fill:none;stroke:#000000;stroke-linecap:square;stroke-linejoin:miter;stroke-width:0.8;"/>
   </g>
   <g id="patch_4">
    <path d="M 409.280938 288.430125 
L 409.280938 22.318125 
" style="fill:none;stroke:#000000;stroke-linecap:square;stroke-linejoin:miter;stroke-width:0.8;"/>
   </g>
   <g id="patch_5">
    <path d="M 52.160938 288.430125 
L 409.280938 288.430125 
" style="fill:none;stroke:#000000;stroke-linecap:square;stroke-linejoin:miter;stroke-width:0.8;"/>
   </g>
   <g id="patch_6">
    <path d="M 52.160938 22.318125 
L 409.280938 22.318125 
" style="fill:none;stroke:#000000;stroke-linecap:square;stroke-linejoin:miter;stroke-width:0.8;"/>
   </g>
   <g id="text_13">
    <!-- Input Distance vs Correct Class Probability -->
    <defs>
     <path d="M 2.984375 54.6875 
L 12.5 54.6875 
L 29.59375 8.796875 
L 46.6875 54.6875 
L 56.203125 54.6875 
L 35.6875 0 
L 23.484375 0 
z
" id="DejaVuSans-76"/>
    </defs>
    <g transform="translate(102.8675 16.318125)scale(0.12 -0.12)">
     <use xlink:href="#DejaVuSans-49"/>
     <use x="29.492188" xlink:href="#DejaVuSans-6e"/>
     <use x="92.871094" xlink:href="#DejaVuSans-70"/>
     <use x="156.347656" xlink:href="#DejaVuSans-75"/>
     <use x="219.726562" xlink:href="#DejaVuSans-74"/>
     <use x="258.935547" xlink:href="#DejaVuSans-20"/>
     <use x="290.722656" xlink:href="#DejaVuSans-44"/>
     <use x="367.724609" xlink:href="#DejaVuSans-69"/>
     <use x="395.507812" xlink:href="#DejaVuSans-73"/>
     <use x="447.607422" xlink:href="#DejaVuSans-74"/>
     <use x="486.816406" xlink:href="#DejaVuSans-61"/>
     <use x="548.095703" xlink:href="#DejaVuSans-6e"/>
     <use x="611.474609" xlink:href="#DejaVuSans-63"/>
     <use x="666.455078" xlink:href="#DejaVuSans-65"/>
     <use x="727.978516" xlink:href="#DejaVuSans-20"/>
     <use x="759.765625" xlink:href="#DejaVuSans-76"/>
     <use x="818.945312" xlink:href="#DejaVuSans-73"/>
     <use x="871.044922" xlink:href="#DejaVuSans-20"/>
     <use x="902.832031" xlink:href="#DejaVuSans-43"/>
     <use x="972.65625" xlink:href="#DejaVuSans-6f"/>
     <use x="1033.837891" xlink:href="#DejaVuSans-72"/>
     <use x="1074.935547" xlink:href="#DejaVuSans-72"/>
     <use x="1116.017578" xlink:href="#DejaVuSans-65"/>
     <use x="1177.541016" xlink:href="#DejaVuSans-63"/>
     <use x="1232.521484" xlink:href="#DejaVuSans-74"/>
     <use x="1271.730469" xlink:href="#DejaVuSans-20"/>
     <use x="1303.517578" xlink:href="#DejaVuSans-43"/>
     <use x="1373.341797" xlink:href="#DejaVuSans-6c"/>
     <use x="1401.125" xlink:href="#DejaVuSans-61"/>
     <use x="1462.404297" xlink:href="#DejaVuSans-73"/>
     <use x="1514.503906" xlink:href="#DejaVuSans-73"/>
     <use x="1566.603516" xlink:href="#DejaVuSans-20"/>
     <use x="1598.390625" xlink:href="#DejaVuSans-50"/>
     <use x="1658.677734" xlink:href="#DejaVuSans-72"/>
     <use x="1699.759766" xlink:href="#DejaVuSans-6f"/>
     <use x="1760.941406" xlink:href="#DejaVuSans-62"/>
     <use x="1824.417969" xlink:href="#DejaVuSans-61"/>
     <use x="1885.697266" xlink:href="#DejaVuSans-62"/>
     <use x="1949.173828" xlink:href="#DejaVuSans-69"/>
     <use x="1976.957031" xlink:href="#DejaVuSans-6c"/>
     <use x="2004.740234" xlink:href="#DejaVuSans-69"/>
     <use x="2032.523438" xlink:href="#DejaVuSans-74"/>
     <use x="2071.732422" xlink:href="#DejaVuSans-79"/>
    </g>
   </g>
  </g>
 </g>
 <defs>
  <clipPath id="p0864074e52">
   <rect height="266.112" width="357.12" x="52.160938" y="22.318125"/>
  </clipPath>
 </defs>
</svg>
