<?xml version="1.0" encoding="utf-8" standalone="no"?>
<!DOCTYPE svg PUBLIC "-//W3C//DTD SVG 1.1//EN"
  "http://www.w3.org/Graphics/SVG/1.1/DTD/svg11.dtd">
<!-- Created with matplotlib (http://matplotlib.org/) -->
<svg height="325pt" version="1.1" viewBox="0 0 443 325" width="443pt" xmlns="http://www.w3.org/2000/svg" xmlns:xlink="http://www.w3.org/1999/xlink">
 <defs>
  <style type="text/css">
*{stroke-linecap:butt;stroke-linejoin:round;}
  </style>
 </defs>
 <g id="figure_1">
  <g id="patch_1">
   <path d="M 0 325.986375 
L 443.176311 325.986375 
L 443.176311 0 
L 0 0 
z
" style="fill:#ffffff;"/>
  </g>
  <g id="axes_1">
   <g id="patch_2">
    <path d="M 72.415625 288.430125 
L 429.535625 288.430125 
L 429.535625 22.318125 
L 72.415625 22.318125 
z
" style="fill:#ffffff;"/>
   </g>
   <g id="PathCollection_1">
    <defs>
     <path d="M 0 3 
C 0.795609 3 1.55874 2.683901 2.12132 2.12132 
C 2.683901 1.55874 3 0.795609 3 0 
C 3 -0.795609 2.683901 -1.55874 2.12132 -2.12132 
C 1.55874 -2.683901 0.795609 -3 0 -3 
C -0.795609 -3 -1.55874 -2.683901 -2.12132 -2.12132 
C -2.683901 -1.55874 -3 -0.795609 -3 0 
C -3 0.795609 -2.683901 1.55874 -2.12132 2.12132 
C -1.55874 2.683901 -0.795609 3 0 3 
z
" id="m51c9607934" style="stroke:#000000;"/>
    </defs>
    <g clip-path="url(#p73b13024b7)">
     <use style="stroke:#000000;" x="72.415625" xlink:href="#m51c9607934" y="75.628284"/>
     <use style="stroke:#000000;" x="72.426111" xlink:href="#m51c9607934" y="77.648275"/>
     <use style="stroke:#000000;" x="72.440596" xlink:href="#m51c9607934" y="78.090779"/>
     <use style="stroke:#000000;" x="72.460319" xlink:href="#m51c9607934" y="81.605586"/>
     <use style="stroke:#000000;" x="72.488205" xlink:href="#m51c9607934" y="86.894025"/>
     <use style="stroke:#000000;" x="72.526896" xlink:href="#m51c9607934" y="86.852999"/>
     <use style="stroke:#000000;" x="72.580062" xlink:href="#m51c9607934" y="88.648503"/>
     <use style="stroke:#000000;" x="72.65337" xlink:href="#m51c9607934" y="94.955523"/>
     <use style="stroke:#000000;" x="72.753415" xlink:href="#m51c9607934" y="104.241059"/>
     <use style="stroke:#000000;" x="72.893901" xlink:href="#m51c9607934" y="104.530303"/>
     <use style="stroke:#000000;" x="73.071866" xlink:href="#m51c9607934" y="117.360159"/>
     <use style="stroke:#000000;" x="73.304704" xlink:href="#m51c9607934" y="115.930942"/>
     <use style="stroke:#000000;" x="73.614569" xlink:href="#m51c9607934" y="120.4157"/>
     <use style="stroke:#000000;" x="74.032946" xlink:href="#m51c9607934" y="126.679114"/>
     <use style="stroke:#000000;" x="74.588187" xlink:href="#m51c9607934" y="129.146927"/>
     <use style="stroke:#000000;" x="75.344575" xlink:href="#m51c9607934" y="140.248617"/>
     <use style="stroke:#000000;" x="76.282814" xlink:href="#m51c9607934" y="154.291737"/>
     <use style="stroke:#000000;" x="77.324608" xlink:href="#m51c9607934" y="169.209334"/>
     <use style="stroke:#000000;" x="78.464996" xlink:href="#m51c9607934" y="188.24566"/>
     <use style="stroke:#000000;" x="79.827306" xlink:href="#m51c9607934" y="203.127274"/>
     <use style="stroke:#000000;" x="81.379182" xlink:href="#m51c9607934" y="217.633807"/>
     <use style="stroke:#000000;" x="83.250446" xlink:href="#m51c9607934" y="223.426718"/>
     <use style="stroke:#000000;" x="85.292321" xlink:href="#m51c9607934" y="223.084352"/>
     <use style="stroke:#000000;" x="87.361342" xlink:href="#m51c9607934" y="199.322329"/>
     <use style="stroke:#000000;" x="89.548305" xlink:href="#m51c9607934" y="171.323371"/>
     <use style="stroke:#000000;" x="92.123296" xlink:href="#m51c9607934" y="149.885571"/>
     <use style="stroke:#000000;" x="94.951521" xlink:href="#m51c9607934" y="132.303225"/>
     <use style="stroke:#000000;" x="97.850236" xlink:href="#m51c9607934" y="109.284618"/>
     <use style="stroke:#000000;" x="100.924626" xlink:href="#m51c9607934" y="96.124716"/>
     <use style="stroke:#000000;" x="103.807316" xlink:href="#m51c9607934" y="71.729207"/>
     <use style="stroke:#000000;" x="106.658898" xlink:href="#m51c9607934" y="56.209822"/>
     <use style="stroke:#000000;" x="109.583972" xlink:href="#m51c9607934" y="51.014827"/>
     <use style="stroke:#000000;" x="112.934045" xlink:href="#m51c9607934" y="34.79047"/>
     <use style="stroke:#000000;" x="116.493351" xlink:href="#m51c9607934" y="37.145308"/>
     <use style="stroke:#000000;" x="120.447549" xlink:href="#m51c9607934" y="40.905201"/>
     <use style="stroke:#000000;" x="124.619548" xlink:href="#m51c9607934" y="45.9109"/>
     <use style="stroke:#000000;" x="128.738185" xlink:href="#m51c9607934" y="32.622037"/>
     <use style="stroke:#000000;" x="132.904618" xlink:href="#m51c9607934" y="22.318125"/>
     <use style="stroke:#000000;" x="137.126966" xlink:href="#m51c9607934" y="31.262034"/>
     <use style="stroke:#000000;" x="141.301546" xlink:href="#m51c9607934" y="28.275637"/>
     <use style="stroke:#000000;" x="145.36742" xlink:href="#m51c9607934" y="29.246517"/>
     <use style="stroke:#000000;" x="149.357321" xlink:href="#m51c9607934" y="34.528519"/>
     <use style="stroke:#000000;" x="153.428492" xlink:href="#m51c9607934" y="35.132028"/>
     <use style="stroke:#000000;" x="157.442019" xlink:href="#m51c9607934" y="42.349182"/>
     <use style="stroke:#000000;" x="161.019484" xlink:href="#m51c9607934" y="46.691383"/>
     <use style="stroke:#000000;" x="164.527535" xlink:href="#m51c9607934" y="53.929567"/>
     <use style="stroke:#000000;" x="168.041488" xlink:href="#m51c9607934" y="43.528838"/>
     <use style="stroke:#000000;" x="171.367147" xlink:href="#m51c9607934" y="69.15754"/>
     <use style="stroke:#000000;" x="174.778589" xlink:href="#m51c9607934" y="67.063586"/>
     <use style="stroke:#000000;" x="178.167384" xlink:href="#m51c9607934" y="69.441896"/>
     <use style="stroke:#000000;" x="181.400506" xlink:href="#m51c9607934" y="68.550348"/>
     <use style="stroke:#000000;" x="184.67996" xlink:href="#m51c9607934" y="64.219953"/>
     <use style="stroke:#000000;" x="188.019356" xlink:href="#m51c9607934" y="73.052177"/>
     <use style="stroke:#000000;" x="191.326831" xlink:href="#m51c9607934" y="69.792954"/>
     <use style="stroke:#000000;" x="194.590418" xlink:href="#m51c9607934" y="70.078033"/>
     <use style="stroke:#000000;" x="197.783288" xlink:href="#m51c9607934" y="84.183345"/>
     <use style="stroke:#000000;" x="201.202506" xlink:href="#m51c9607934" y="94.036132"/>
     <use style="stroke:#000000;" x="204.847221" xlink:href="#m51c9607934" y="108.914648"/>
     <use style="stroke:#000000;" x="208.451778" xlink:href="#m51c9607934" y="105.735256"/>
     <use style="stroke:#000000;" x="212.062621" xlink:href="#m51c9607934" y="117.400909"/>
     <use style="stroke:#000000;" x="215.604715" xlink:href="#m51c9607934" y="116.46331"/>
     <use style="stroke:#000000;" x="219.133947" xlink:href="#m51c9607934" y="120.662111"/>
     <use style="stroke:#000000;" x="222.930836" xlink:href="#m51c9607934" y="126.763557"/>
     <use style="stroke:#000000;" x="226.767056" xlink:href="#m51c9607934" y="140.328396"/>
     <use style="stroke:#000000;" x="230.837409" xlink:href="#m51c9607934" y="136.771325"/>
     <use style="stroke:#000000;" x="234.951131" xlink:href="#m51c9607934" y="146.948873"/>
     <use style="stroke:#000000;" x="239.205435" xlink:href="#m51c9607934" y="160.301994"/>
     <use style="stroke:#000000;" x="243.509836" xlink:href="#m51c9607934" y="165.939132"/>
     <use style="stroke:#000000;" x="247.892372" xlink:href="#m51c9607934" y="171.639959"/>
     <use style="stroke:#000000;" x="252.373109" xlink:href="#m51c9607934" y="184.550265"/>
     <use style="stroke:#000000;" x="256.935814" xlink:href="#m51c9607934" y="192.224964"/>
     <use style="stroke:#000000;" x="261.634332" xlink:href="#m51c9607934" y="204.33646"/>
     <use style="stroke:#000000;" x="266.46638" xlink:href="#m51c9607934" y="219.751922"/>
     <use style="stroke:#000000;" x="271.590186" xlink:href="#m51c9607934" y="225.282143"/>
     <use style="stroke:#000000;" x="277.173043" xlink:href="#m51c9607934" y="230.977188"/>
     <use style="stroke:#000000;" x="282.797004" xlink:href="#m51c9607934" y="242.189598"/>
     <use style="stroke:#000000;" x="288.264506" xlink:href="#m51c9607934" y="245.261738"/>
     <use style="stroke:#000000;" x="293.745926" xlink:href="#m51c9607934" y="242.480744"/>
     <use style="stroke:#000000;" x="299.206563" xlink:href="#m51c9607934" y="246.370864"/>
     <use style="stroke:#000000;" x="304.832925" xlink:href="#m51c9607934" y="252.480613"/>
     <use style="stroke:#000000;" x="310.540148" xlink:href="#m51c9607934" y="254.592816"/>
     <use style="stroke:#000000;" x="316.19632" xlink:href="#m51c9607934" y="256.9023"/>
     <use style="stroke:#000000;" x="322.055009" xlink:href="#m51c9607934" y="256.899702"/>
     <use style="stroke:#000000;" x="327.800712" xlink:href="#m51c9607934" y="258.400446"/>
     <use style="stroke:#000000;" x="333.704303" xlink:href="#m51c9607934" y="262.456329"/>
     <use style="stroke:#000000;" x="339.656816" xlink:href="#m51c9607934" y="266.835718"/>
     <use style="stroke:#000000;" x="345.456874" xlink:href="#m51c9607934" y="272.655604"/>
     <use style="stroke:#000000;" x="351.204536" xlink:href="#m51c9607934" y="276.934717"/>
     <use style="stroke:#000000;" x="356.927481" xlink:href="#m51c9607934" y="282.222837"/>
     <use style="stroke:#000000;" x="363.029433" xlink:href="#m51c9607934" y="280.009205"/>
     <use style="stroke:#000000;" x="369.337481" xlink:href="#m51c9607934" y="281.315517"/>
     <use style="stroke:#000000;" x="375.505985" xlink:href="#m51c9607934" y="284.684033"/>
     <use style="stroke:#000000;" x="381.65841" xlink:href="#m51c9607934" y="284.872838"/>
     <use style="stroke:#000000;" x="387.846844" xlink:href="#m51c9607934" y="282.859602"/>
     <use style="stroke:#000000;" x="394.125252" xlink:href="#m51c9607934" y="280.665674"/>
     <use style="stroke:#000000;" x="400.947592" xlink:href="#m51c9607934" y="281.487191"/>
     <use style="stroke:#000000;" x="407.841236" xlink:href="#m51c9607934" y="284.442432"/>
     <use style="stroke:#000000;" x="414.920312" xlink:href="#m51c9607934" y="284.819586"/>
     <use style="stroke:#000000;" x="422.192112" xlink:href="#m51c9607934" y="288.430125"/>
     <use style="stroke:#000000;" x="429.535625" xlink:href="#m51c9607934" y="288.036468"/>
    </g>
   </g>
   <g id="matplotlib.axis_1">
    <g id="xtick_1">
     <g id="line2d_1">
      <defs>
       <path d="M 0 0 
L 0 3.5 
" id="mbd8d6bcd74" style="stroke:#000000;stroke-width:0.8;"/>
      </defs>
      <g>
       <use style="stroke:#000000;stroke-width:0.8;" x="72.383998" xlink:href="#mbd8d6bcd74" y="288.430125"/>
      </g>
     </g>
     <g id="text_1">
      <!-- 0 -->
      <defs>
       <path d="M 31.78125 66.40625 
Q 24.171875 66.40625 20.328125 58.90625 
Q 16.5 51.421875 16.5 36.375 
Q 16.5 21.390625 20.328125 13.890625 
Q 24.171875 6.390625 31.78125 6.390625 
Q 39.453125 6.390625 43.28125 13.890625 
Q 47.125 21.390625 47.125 36.375 
Q 47.125 51.421875 43.28125 58.90625 
Q 39.453125 66.40625 31.78125 66.40625 
z
M 31.78125 74.21875 
Q 44.046875 74.21875 50.515625 64.515625 
Q 56.984375 54.828125 56.984375 36.375 
Q 56.984375 17.96875 50.515625 8.265625 
Q 44.046875 -1.421875 31.78125 -1.421875 
Q 19.53125 -1.421875 13.0625 8.265625 
Q 6.59375 17.96875 6.59375 36.375 
Q 6.59375 54.828125 13.0625 64.515625 
Q 19.53125 74.21875 31.78125 74.21875 
z
" id="DejaVuSans-30"/>
      </defs>
      <g transform="translate(69.202748 303.028562)scale(0.1 -0.1)">
       <use xlink:href="#DejaVuSans-30"/>
      </g>
     </g>
    </g>
    <g id="xtick_2">
     <g id="line2d_2">
      <g>
       <use style="stroke:#000000;stroke-width:0.8;" x="143.829961" xlink:href="#mbd8d6bcd74" y="288.430125"/>
      </g>
     </g>
     <g id="text_2">
      <!-- 2 -->
      <defs>
       <path d="M 19.1875 8.296875 
L 53.609375 8.296875 
L 53.609375 0 
L 7.328125 0 
L 7.328125 8.296875 
Q 12.9375 14.109375 22.625 23.890625 
Q 32.328125 33.6875 34.8125 36.53125 
Q 39.546875 41.84375 41.421875 45.53125 
Q 43.3125 49.21875 43.3125 52.78125 
Q 43.3125 58.59375 39.234375 62.25 
Q 35.15625 65.921875 28.609375 65.921875 
Q 23.96875 65.921875 18.8125 64.3125 
Q 13.671875 62.703125 7.8125 59.421875 
L 7.8125 69.390625 
Q 13.765625 71.78125 18.9375 73 
Q 24.125 74.21875 28.421875 74.21875 
Q 39.75 74.21875 46.484375 68.546875 
Q 53.21875 62.890625 53.21875 53.421875 
Q 53.21875 48.921875 51.53125 44.890625 
Q 49.859375 40.875 45.40625 35.40625 
Q 44.1875 33.984375 37.640625 27.21875 
Q 31.109375 20.453125 19.1875 8.296875 
z
" id="DejaVuSans-32"/>
      </defs>
      <g transform="translate(140.648711 303.028562)scale(0.1 -0.1)">
       <use xlink:href="#DejaVuSans-32"/>
      </g>
     </g>
    </g>
    <g id="xtick_3">
     <g id="line2d_3">
      <g>
       <use style="stroke:#000000;stroke-width:0.8;" x="215.275923" xlink:href="#mbd8d6bcd74" y="288.430125"/>
      </g>
     </g>
     <g id="text_3">
      <!-- 4 -->
      <defs>
       <path d="M 37.796875 64.3125 
L 12.890625 25.390625 
L 37.796875 25.390625 
z
M 35.203125 72.90625 
L 47.609375 72.90625 
L 47.609375 25.390625 
L 58.015625 25.390625 
L 58.015625 17.1875 
L 47.609375 17.1875 
L 47.609375 0 
L 37.796875 0 
L 37.796875 17.1875 
L 4.890625 17.1875 
L 4.890625 26.703125 
z
" id="DejaVuSans-34"/>
      </defs>
      <g transform="translate(212.094673 303.028562)scale(0.1 -0.1)">
       <use xlink:href="#DejaVuSans-34"/>
      </g>
     </g>
    </g>
    <g id="xtick_4">
     <g id="line2d_4">
      <g>
       <use style="stroke:#000000;stroke-width:0.8;" x="286.721886" xlink:href="#mbd8d6bcd74" y="288.430125"/>
      </g>
     </g>
     <g id="text_4">
      <!-- 6 -->
      <defs>
       <path d="M 33.015625 40.375 
Q 26.375 40.375 22.484375 35.828125 
Q 18.609375 31.296875 18.609375 23.390625 
Q 18.609375 15.53125 22.484375 10.953125 
Q 26.375 6.390625 33.015625 6.390625 
Q 39.65625 6.390625 43.53125 10.953125 
Q 47.40625 15.53125 47.40625 23.390625 
Q 47.40625 31.296875 43.53125 35.828125 
Q 39.65625 40.375 33.015625 40.375 
z
M 52.59375 71.296875 
L 52.59375 62.3125 
Q 48.875 64.0625 45.09375 64.984375 
Q 41.3125 65.921875 37.59375 65.921875 
Q 27.828125 65.921875 22.671875 59.328125 
Q 17.53125 52.734375 16.796875 39.40625 
Q 19.671875 43.65625 24.015625 45.921875 
Q 28.375 48.1875 33.59375 48.1875 
Q 44.578125 48.1875 50.953125 41.515625 
Q 57.328125 34.859375 57.328125 23.390625 
Q 57.328125 12.15625 50.6875 5.359375 
Q 44.046875 -1.421875 33.015625 -1.421875 
Q 20.359375 -1.421875 13.671875 8.265625 
Q 6.984375 17.96875 6.984375 36.375 
Q 6.984375 53.65625 15.1875 63.9375 
Q 23.390625 74.21875 37.203125 74.21875 
Q 40.921875 74.21875 44.703125 73.484375 
Q 48.484375 72.75 52.59375 71.296875 
z
" id="DejaVuSans-36"/>
      </defs>
      <g transform="translate(283.540636 303.028562)scale(0.1 -0.1)">
       <use xlink:href="#DejaVuSans-36"/>
      </g>
     </g>
    </g>
    <g id="xtick_5">
     <g id="line2d_5">
      <g>
       <use style="stroke:#000000;stroke-width:0.8;" x="358.167849" xlink:href="#mbd8d6bcd74" y="288.430125"/>
      </g>
     </g>
     <g id="text_5">
      <!-- 8 -->
      <defs>
       <path d="M 31.78125 34.625 
Q 24.75 34.625 20.71875 30.859375 
Q 16.703125 27.09375 16.703125 20.515625 
Q 16.703125 13.921875 20.71875 10.15625 
Q 24.75 6.390625 31.78125 6.390625 
Q 38.8125 6.390625 42.859375 10.171875 
Q 46.921875 13.96875 46.921875 20.515625 
Q 46.921875 27.09375 42.890625 30.859375 
Q 38.875 34.625 31.78125 34.625 
z
M 21.921875 38.8125 
Q 15.578125 40.375 12.03125 44.71875 
Q 8.5 49.078125 8.5 55.328125 
Q 8.5 64.0625 14.71875 69.140625 
Q 20.953125 74.21875 31.78125 74.21875 
Q 42.671875 74.21875 48.875 69.140625 
Q 55.078125 64.0625 55.078125 55.328125 
Q 55.078125 49.078125 51.53125 44.71875 
Q 48 40.375 41.703125 38.8125 
Q 48.828125 37.15625 52.796875 32.3125 
Q 56.78125 27.484375 56.78125 20.515625 
Q 56.78125 9.90625 50.3125 4.234375 
Q 43.84375 -1.421875 31.78125 -1.421875 
Q 19.734375 -1.421875 13.25 4.234375 
Q 6.78125 9.90625 6.78125 20.515625 
Q 6.78125 27.484375 10.78125 32.3125 
Q 14.796875 37.15625 21.921875 38.8125 
z
M 18.3125 54.390625 
Q 18.3125 48.734375 21.84375 45.5625 
Q 25.390625 42.390625 31.78125 42.390625 
Q 38.140625 42.390625 41.71875 45.5625 
Q 45.3125 48.734375 45.3125 54.390625 
Q 45.3125 60.0625 41.71875 63.234375 
Q 38.140625 66.40625 31.78125 66.40625 
Q 25.390625 66.40625 21.84375 63.234375 
Q 18.3125 60.0625 18.3125 54.390625 
z
" id="DejaVuSans-38"/>
      </defs>
      <g transform="translate(354.986599 303.028562)scale(0.1 -0.1)">
       <use xlink:href="#DejaVuSans-38"/>
      </g>
     </g>
    </g>
    <g id="xtick_6">
     <g id="line2d_6">
      <g>
       <use style="stroke:#000000;stroke-width:0.8;" x="429.613811" xlink:href="#mbd8d6bcd74" y="288.430125"/>
      </g>
     </g>
     <g id="text_6">
      <!-- 10 -->
      <defs>
       <path d="M 12.40625 8.296875 
L 28.515625 8.296875 
L 28.515625 63.921875 
L 10.984375 60.40625 
L 10.984375 69.390625 
L 28.421875 72.90625 
L 38.28125 72.90625 
L 38.28125 8.296875 
L 54.390625 8.296875 
L 54.390625 0 
L 12.40625 0 
z
" id="DejaVuSans-31"/>
      </defs>
      <g transform="translate(423.251311 303.028562)scale(0.1 -0.1)">
       <use xlink:href="#DejaVuSans-31"/>
       <use x="63.623047" xlink:href="#DejaVuSans-30"/>
      </g>
     </g>
    </g>
    <g id="text_7">
     <!-- Cross-Entropy -->
     <defs>
      <path d="M 64.40625 67.28125 
L 64.40625 56.890625 
Q 59.421875 61.53125 53.78125 63.8125 
Q 48.140625 66.109375 41.796875 66.109375 
Q 29.296875 66.109375 22.65625 58.46875 
Q 16.015625 50.828125 16.015625 36.375 
Q 16.015625 21.96875 22.65625 14.328125 
Q 29.296875 6.6875 41.796875 6.6875 
Q 48.140625 6.6875 53.78125 8.984375 
Q 59.421875 11.28125 64.40625 15.921875 
L 64.40625 5.609375 
Q 59.234375 2.09375 53.4375 0.328125 
Q 47.65625 -1.421875 41.21875 -1.421875 
Q 24.65625 -1.421875 15.125 8.703125 
Q 5.609375 18.84375 5.609375 36.375 
Q 5.609375 53.953125 15.125 64.078125 
Q 24.65625 74.21875 41.21875 74.21875 
Q 47.75 74.21875 53.53125 72.484375 
Q 59.328125 70.75 64.40625 67.28125 
z
" id="DejaVuSans-43"/>
      <path d="M 41.109375 46.296875 
Q 39.59375 47.171875 37.8125 47.578125 
Q 36.03125 48 33.890625 48 
Q 26.265625 48 22.1875 43.046875 
Q 18.109375 38.09375 18.109375 28.8125 
L 18.109375 0 
L 9.078125 0 
L 9.078125 54.6875 
L 18.109375 54.6875 
L 18.109375 46.1875 
Q 20.953125 51.171875 25.484375 53.578125 
Q 30.03125 56 36.53125 56 
Q 37.453125 56 38.578125 55.875 
Q 39.703125 55.765625 41.0625 55.515625 
z
" id="DejaVuSans-72"/>
      <path d="M 30.609375 48.390625 
Q 23.390625 48.390625 19.1875 42.75 
Q 14.984375 37.109375 14.984375 27.296875 
Q 14.984375 17.484375 19.15625 11.84375 
Q 23.34375 6.203125 30.609375 6.203125 
Q 37.796875 6.203125 41.984375 11.859375 
Q 46.1875 17.53125 46.1875 27.296875 
Q 46.1875 37.015625 41.984375 42.703125 
Q 37.796875 48.390625 30.609375 48.390625 
z
M 30.609375 56 
Q 42.328125 56 49.015625 48.375 
Q 55.71875 40.765625 55.71875 27.296875 
Q 55.71875 13.875 49.015625 6.21875 
Q 42.328125 -1.421875 30.609375 -1.421875 
Q 18.84375 -1.421875 12.171875 6.21875 
Q 5.515625 13.875 5.515625 27.296875 
Q 5.515625 40.765625 12.171875 48.375 
Q 18.84375 56 30.609375 56 
z
" id="DejaVuSans-6f"/>
      <path d="M 44.28125 53.078125 
L 44.28125 44.578125 
Q 40.484375 46.53125 36.375 47.5 
Q 32.28125 48.484375 27.875 48.484375 
Q 21.1875 48.484375 17.84375 46.4375 
Q 14.5 44.390625 14.5 40.28125 
Q 14.5 37.15625 16.890625 35.375 
Q 19.28125 33.59375 26.515625 31.984375 
L 29.59375 31.296875 
Q 39.15625 29.25 43.1875 25.515625 
Q 47.21875 21.78125 47.21875 15.09375 
Q 47.21875 7.46875 41.1875 3.015625 
Q 35.15625 -1.421875 24.609375 -1.421875 
Q 20.21875 -1.421875 15.453125 -0.5625 
Q 10.6875 0.296875 5.421875 2 
L 5.421875 11.28125 
Q 10.40625 8.6875 15.234375 7.390625 
Q 20.0625 6.109375 24.8125 6.109375 
Q 31.15625 6.109375 34.5625 8.28125 
Q 37.984375 10.453125 37.984375 14.40625 
Q 37.984375 18.0625 35.515625 20.015625 
Q 33.0625 21.96875 24.703125 23.78125 
L 21.578125 24.515625 
Q 13.234375 26.265625 9.515625 29.90625 
Q 5.8125 33.546875 5.8125 39.890625 
Q 5.8125 47.609375 11.28125 51.796875 
Q 16.75 56 26.8125 56 
Q 31.78125 56 36.171875 55.265625 
Q 40.578125 54.546875 44.28125 53.078125 
z
" id="DejaVuSans-73"/>
      <path d="M 4.890625 31.390625 
L 31.203125 31.390625 
L 31.203125 23.390625 
L 4.890625 23.390625 
z
" id="DejaVuSans-2d"/>
      <path d="M 9.8125 72.90625 
L 55.90625 72.90625 
L 55.90625 64.59375 
L 19.671875 64.59375 
L 19.671875 43.015625 
L 54.390625 43.015625 
L 54.390625 34.71875 
L 19.671875 34.71875 
L 19.671875 8.296875 
L 56.78125 8.296875 
L 56.78125 0 
L 9.8125 0 
z
" id="DejaVuSans-45"/>
      <path d="M 54.890625 33.015625 
L 54.890625 0 
L 45.90625 0 
L 45.90625 32.71875 
Q 45.90625 40.484375 42.875 44.328125 
Q 39.84375 48.1875 33.796875 48.1875 
Q 26.515625 48.1875 22.3125 43.546875 
Q 18.109375 38.921875 18.109375 30.90625 
L 18.109375 0 
L 9.078125 0 
L 9.078125 54.6875 
L 18.109375 54.6875 
L 18.109375 46.1875 
Q 21.34375 51.125 25.703125 53.5625 
Q 30.078125 56 35.796875 56 
Q 45.21875 56 50.046875 50.171875 
Q 54.890625 44.34375 54.890625 33.015625 
z
" id="DejaVuSans-6e"/>
      <path d="M 18.3125 70.21875 
L 18.3125 54.6875 
L 36.8125 54.6875 
L 36.8125 47.703125 
L 18.3125 47.703125 
L 18.3125 18.015625 
Q 18.3125 11.328125 20.140625 9.421875 
Q 21.96875 7.515625 27.59375 7.515625 
L 36.8125 7.515625 
L 36.8125 0 
L 27.59375 0 
Q 17.1875 0 13.234375 3.875 
Q 9.28125 7.765625 9.28125 18.015625 
L 9.28125 47.703125 
L 2.6875 47.703125 
L 2.6875 54.6875 
L 9.28125 54.6875 
L 9.28125 70.21875 
z
" id="DejaVuSans-74"/>
      <path d="M 18.109375 8.203125 
L 18.109375 -20.796875 
L 9.078125 -20.796875 
L 9.078125 54.6875 
L 18.109375 54.6875 
L 18.109375 46.390625 
Q 20.953125 51.265625 25.265625 53.625 
Q 29.59375 56 35.59375 56 
Q 45.5625 56 51.78125 48.09375 
Q 58.015625 40.1875 58.015625 27.296875 
Q 58.015625 14.40625 51.78125 6.484375 
Q 45.5625 -1.421875 35.59375 -1.421875 
Q 29.59375 -1.421875 25.265625 0.953125 
Q 20.953125 3.328125 18.109375 8.203125 
z
M 48.6875 27.296875 
Q 48.6875 37.203125 44.609375 42.84375 
Q 40.53125 48.484375 33.40625 48.484375 
Q 26.265625 48.484375 22.1875 42.84375 
Q 18.109375 37.203125 18.109375 27.296875 
Q 18.109375 17.390625 22.1875 11.75 
Q 26.265625 6.109375 33.40625 6.109375 
Q 40.53125 6.109375 44.609375 11.75 
Q 48.6875 17.390625 48.6875 27.296875 
z
" id="DejaVuSans-70"/>
      <path d="M 32.171875 -5.078125 
Q 28.375 -14.84375 24.75 -17.8125 
Q 21.140625 -20.796875 15.09375 -20.796875 
L 7.90625 -20.796875 
L 7.90625 -13.28125 
L 13.1875 -13.28125 
Q 16.890625 -13.28125 18.9375 -11.515625 
Q 21 -9.765625 23.484375 -3.21875 
L 25.09375 0.875 
L 2.984375 54.6875 
L 12.5 54.6875 
L 29.59375 11.921875 
L 46.6875 54.6875 
L 56.203125 54.6875 
z
" id="DejaVuSans-79"/>
     </defs>
     <g transform="translate(215.8225 316.706687)scale(0.1 -0.1)">
      <use xlink:href="#DejaVuSans-43"/>
      <use x="69.824219" xlink:href="#DejaVuSans-72"/>
      <use x="110.90625" xlink:href="#DejaVuSans-6f"/>
      <use x="172.087891" xlink:href="#DejaVuSans-73"/>
      <use x="224.1875" xlink:href="#DejaVuSans-73"/>
      <use x="276.287109" xlink:href="#DejaVuSans-2d"/>
      <use x="312.371094" xlink:href="#DejaVuSans-45"/>
      <use x="375.554688" xlink:href="#DejaVuSans-6e"/>
      <use x="438.933594" xlink:href="#DejaVuSans-74"/>
      <use x="478.142578" xlink:href="#DejaVuSans-72"/>
      <use x="519.224609" xlink:href="#DejaVuSans-6f"/>
      <use x="580.40625" xlink:href="#DejaVuSans-70"/>
      <use x="643.882812" xlink:href="#DejaVuSans-79"/>
     </g>
    </g>
   </g>
   <g id="matplotlib.axis_2">
    <g id="ytick_1">
     <g id="line2d_7">
      <defs>
       <path d="M 0 0 
L -3.5 0 
" id="mb22c92add4" style="stroke:#000000;stroke-width:0.8;"/>
      </defs>
      <g>
       <use style="stroke:#000000;stroke-width:0.8;" x="72.415625" xlink:href="#mb22c92add4" y="260.398032"/>
      </g>
     </g>
     <g id="text_8">
      <!-- 400000 -->
      <g transform="translate(27.240625 264.19725)scale(0.1 -0.1)">
       <use xlink:href="#DejaVuSans-34"/>
       <use x="63.623047" xlink:href="#DejaVuSans-30"/>
       <use x="127.246094" xlink:href="#DejaVuSans-30"/>
       <use x="190.869141" xlink:href="#DejaVuSans-30"/>
       <use x="254.492188" xlink:href="#DejaVuSans-30"/>
       <use x="318.115234" xlink:href="#DejaVuSans-30"/>
      </g>
     </g>
    </g>
    <g id="ytick_2">
     <g id="line2d_8">
      <g>
       <use style="stroke:#000000;stroke-width:0.8;" x="72.415625" xlink:href="#mb22c92add4" y="205.330211"/>
      </g>
     </g>
     <g id="text_9">
      <!-- 600000 -->
      <g transform="translate(27.240625 209.12943)scale(0.1 -0.1)">
       <use xlink:href="#DejaVuSans-36"/>
       <use x="63.623047" xlink:href="#DejaVuSans-30"/>
       <use x="127.246094" xlink:href="#DejaVuSans-30"/>
       <use x="190.869141" xlink:href="#DejaVuSans-30"/>
       <use x="254.492188" xlink:href="#DejaVuSans-30"/>
       <use x="318.115234" xlink:href="#DejaVuSans-30"/>
      </g>
     </g>
    </g>
    <g id="ytick_3">
     <g id="line2d_9">
      <g>
       <use style="stroke:#000000;stroke-width:0.8;" x="72.415625" xlink:href="#mb22c92add4" y="150.26239"/>
      </g>
     </g>
     <g id="text_10">
      <!-- 800000 -->
      <g transform="translate(27.240625 154.061609)scale(0.1 -0.1)">
       <use xlink:href="#DejaVuSans-38"/>
       <use x="63.623047" xlink:href="#DejaVuSans-30"/>
       <use x="127.246094" xlink:href="#DejaVuSans-30"/>
       <use x="190.869141" xlink:href="#DejaVuSans-30"/>
       <use x="254.492188" xlink:href="#DejaVuSans-30"/>
       <use x="318.115234" xlink:href="#DejaVuSans-30"/>
      </g>
     </g>
    </g>
    <g id="ytick_4">
     <g id="line2d_10">
      <g>
       <use style="stroke:#000000;stroke-width:0.8;" x="72.415625" xlink:href="#mb22c92add4" y="95.194569"/>
      </g>
     </g>
     <g id="text_11">
      <!-- 1000000 -->
      <g transform="translate(20.878125 98.993788)scale(0.1 -0.1)">
       <use xlink:href="#DejaVuSans-31"/>
       <use x="63.623047" xlink:href="#DejaVuSans-30"/>
       <use x="127.246094" xlink:href="#DejaVuSans-30"/>
       <use x="190.869141" xlink:href="#DejaVuSans-30"/>
       <use x="254.492188" xlink:href="#DejaVuSans-30"/>
       <use x="318.115234" xlink:href="#DejaVuSans-30"/>
       <use x="381.738281" xlink:href="#DejaVuSans-30"/>
      </g>
     </g>
    </g>
    <g id="ytick_5">
     <g id="line2d_11">
      <g>
       <use style="stroke:#000000;stroke-width:0.8;" x="72.415625" xlink:href="#mb22c92add4" y="40.126748"/>
      </g>
     </g>
     <g id="text_12">
      <!-- 1200000 -->
      <g transform="translate(20.878125 43.925967)scale(0.1 -0.1)">
       <use xlink:href="#DejaVuSans-31"/>
       <use x="63.623047" xlink:href="#DejaVuSans-32"/>
       <use x="127.246094" xlink:href="#DejaVuSans-30"/>
       <use x="190.869141" xlink:href="#DejaVuSans-30"/>
       <use x="254.492188" xlink:href="#DejaVuSans-30"/>
       <use x="318.115234" xlink:href="#DejaVuSans-30"/>
       <use x="381.738281" xlink:href="#DejaVuSans-30"/>
      </g>
     </g>
    </g>
    <g id="text_13">
     <!-- Persistence Distance -->
     <defs>
      <path d="M 19.671875 64.796875 
L 19.671875 37.40625 
L 32.078125 37.40625 
Q 38.96875 37.40625 42.71875 40.96875 
Q 46.484375 44.53125 46.484375 51.125 
Q 46.484375 57.671875 42.71875 61.234375 
Q 38.96875 64.796875 32.078125 64.796875 
z
M 9.8125 72.90625 
L 32.078125 72.90625 
Q 44.34375 72.90625 50.609375 67.359375 
Q 56.890625 61.8125 56.890625 51.125 
Q 56.890625 40.328125 50.609375 34.8125 
Q 44.34375 29.296875 32.078125 29.296875 
L 19.671875 29.296875 
L 19.671875 0 
L 9.8125 0 
z
" id="DejaVuSans-50"/>
      <path d="M 56.203125 29.59375 
L 56.203125 25.203125 
L 14.890625 25.203125 
Q 15.484375 15.921875 20.484375 11.0625 
Q 25.484375 6.203125 34.421875 6.203125 
Q 39.59375 6.203125 44.453125 7.46875 
Q 49.3125 8.734375 54.109375 11.28125 
L 54.109375 2.78125 
Q 49.265625 0.734375 44.1875 -0.34375 
Q 39.109375 -1.421875 33.890625 -1.421875 
Q 20.796875 -1.421875 13.15625 6.1875 
Q 5.515625 13.8125 5.515625 26.8125 
Q 5.515625 40.234375 12.765625 48.109375 
Q 20.015625 56 32.328125 56 
Q 43.359375 56 49.78125 48.890625 
Q 56.203125 41.796875 56.203125 29.59375 
z
M 47.21875 32.234375 
Q 47.125 39.59375 43.09375 43.984375 
Q 39.0625 48.390625 32.421875 48.390625 
Q 24.90625 48.390625 20.390625 44.140625 
Q 15.875 39.890625 15.1875 32.171875 
z
" id="DejaVuSans-65"/>
      <path d="M 9.421875 54.6875 
L 18.40625 54.6875 
L 18.40625 0 
L 9.421875 0 
z
M 9.421875 75.984375 
L 18.40625 75.984375 
L 18.40625 64.59375 
L 9.421875 64.59375 
z
" id="DejaVuSans-69"/>
      <path d="M 48.78125 52.59375 
L 48.78125 44.1875 
Q 44.96875 46.296875 41.140625 47.34375 
Q 37.3125 48.390625 33.40625 48.390625 
Q 24.65625 48.390625 19.8125 42.84375 
Q 14.984375 37.3125 14.984375 27.296875 
Q 14.984375 17.28125 19.8125 11.734375 
Q 24.65625 6.203125 33.40625 6.203125 
Q 37.3125 6.203125 41.140625 7.25 
Q 44.96875 8.296875 48.78125 10.40625 
L 48.78125 2.09375 
Q 45.015625 0.34375 40.984375 -0.53125 
Q 36.96875 -1.421875 32.421875 -1.421875 
Q 20.0625 -1.421875 12.78125 6.34375 
Q 5.515625 14.109375 5.515625 27.296875 
Q 5.515625 40.671875 12.859375 48.328125 
Q 20.21875 56 33.015625 56 
Q 37.15625 56 41.109375 55.140625 
Q 45.0625 54.296875 48.78125 52.59375 
z
" id="DejaVuSans-63"/>
      <path id="DejaVuSans-20"/>
      <path d="M 19.671875 64.796875 
L 19.671875 8.109375 
L 31.59375 8.109375 
Q 46.6875 8.109375 53.6875 14.9375 
Q 60.6875 21.78125 60.6875 36.53125 
Q 60.6875 51.171875 53.6875 57.984375 
Q 46.6875 64.796875 31.59375 64.796875 
z
M 9.8125 72.90625 
L 30.078125 72.90625 
Q 51.265625 72.90625 61.171875 64.09375 
Q 71.09375 55.28125 71.09375 36.53125 
Q 71.09375 17.671875 61.125 8.828125 
Q 51.171875 0 30.078125 0 
L 9.8125 0 
z
" id="DejaVuSans-44"/>
      <path d="M 34.28125 27.484375 
Q 23.390625 27.484375 19.1875 25 
Q 14.984375 22.515625 14.984375 16.5 
Q 14.984375 11.71875 18.140625 8.90625 
Q 21.296875 6.109375 26.703125 6.109375 
Q 34.1875 6.109375 38.703125 11.40625 
Q 43.21875 16.703125 43.21875 25.484375 
L 43.21875 27.484375 
z
M 52.203125 31.203125 
L 52.203125 0 
L 43.21875 0 
L 43.21875 8.296875 
Q 40.140625 3.328125 35.546875 0.953125 
Q 30.953125 -1.421875 24.3125 -1.421875 
Q 15.921875 -1.421875 10.953125 3.296875 
Q 6 8.015625 6 15.921875 
Q 6 25.140625 12.171875 29.828125 
Q 18.359375 34.515625 30.609375 34.515625 
L 43.21875 34.515625 
L 43.21875 35.40625 
Q 43.21875 41.609375 39.140625 45 
Q 35.0625 48.390625 27.6875 48.390625 
Q 23 48.390625 18.546875 47.265625 
Q 14.109375 46.140625 10.015625 43.890625 
L 10.015625 52.203125 
Q 14.9375 54.109375 19.578125 55.046875 
Q 24.21875 56 28.609375 56 
Q 40.484375 56 46.34375 49.84375 
Q 52.203125 43.703125 52.203125 31.203125 
z
" id="DejaVuSans-61"/>
     </defs>
     <g transform="translate(14.798438 207.599906)rotate(-90)scale(0.1 -0.1)">
      <use xlink:href="#DejaVuSans-50"/>
      <use x="60.255859" xlink:href="#DejaVuSans-65"/>
      <use x="121.779297" xlink:href="#DejaVuSans-72"/>
      <use x="162.892578" xlink:href="#DejaVuSans-73"/>
      <use x="214.992188" xlink:href="#DejaVuSans-69"/>
      <use x="242.775391" xlink:href="#DejaVuSans-73"/>
      <use x="294.875" xlink:href="#DejaVuSans-74"/>
      <use x="334.083984" xlink:href="#DejaVuSans-65"/>
      <use x="395.607422" xlink:href="#DejaVuSans-6e"/>
      <use x="458.986328" xlink:href="#DejaVuSans-63"/>
      <use x="513.966797" xlink:href="#DejaVuSans-65"/>
      <use x="575.490234" xlink:href="#DejaVuSans-20"/>
      <use x="607.277344" xlink:href="#DejaVuSans-44"/>
      <use x="684.279297" xlink:href="#DejaVuSans-69"/>
      <use x="712.0625" xlink:href="#DejaVuSans-73"/>
      <use x="764.162109" xlink:href="#DejaVuSans-74"/>
      <use x="803.371094" xlink:href="#DejaVuSans-61"/>
      <use x="864.650391" xlink:href="#DejaVuSans-6e"/>
      <use x="928.029297" xlink:href="#DejaVuSans-63"/>
      <use x="983.009766" xlink:href="#DejaVuSans-65"/>
     </g>
    </g>
   </g>
   <g id="line2d_12">
    <path clip-path="url(#p73b13024b7)" d="M 72.415625 88.917465 
L 72.426111 88.92118 
L 72.440596 88.926312 
L 72.460319 88.933299 
L 72.488205 88.943178 
L 72.526896 88.956884 
L 72.580062 88.975719 
L 72.65337 89.001689 
L 72.753415 89.037131 
L 72.893901 89.0869 
L 73.071866 89.149946 
L 73.304704 89.232431 
L 73.614569 89.342204 
L 74.032946 89.490418 
L 74.588187 89.687118 
L 75.344575 89.955076 
L 76.282814 90.287457 
L 77.324608 90.656523 
L 78.464996 91.060517 
L 79.827306 91.54313 
L 81.379182 92.092898 
L 83.250446 92.755812 
L 85.292321 93.479167 
L 87.361342 94.212139 
L 89.548305 94.986893 
L 92.123296 95.89911 
L 94.951521 96.901038 
L 97.850236 97.927937 
L 100.924626 99.017071 
L 103.807316 100.038294 
L 106.658898 101.048496 
L 109.583972 102.084734 
L 112.934045 103.271531 
L 116.493351 104.532452 
L 120.447549 105.933267 
L 124.619548 107.411241 
L 128.738185 108.87031 
L 132.904618 110.346312 
L 137.126966 111.842122 
L 141.301546 113.32101 
L 145.36742 114.761387 
L 149.357321 116.174851 
L 153.428492 117.617105 
L 157.442019 119.038938 
L 161.019484 120.306291 
L 164.527535 121.549054 
L 168.041488 122.793908 
L 171.367147 123.972057 
L 174.778589 125.180596 
L 178.167384 126.381111 
L 181.400506 127.526477 
L 184.67996 128.688258 
L 188.019356 129.871273 
L 191.326831 131.04298 
L 194.590418 132.199139 
L 197.783288 133.330246 
L 201.202506 134.541539 
L 204.847221 135.832717 
L 208.451778 137.109668 
L 212.062621 138.388846 
L 215.604715 139.643669 
L 219.133947 140.893936 
L 222.930836 142.239023 
L 226.767056 143.598043 
L 230.837409 145.040008 
L 234.951131 146.497336 
L 239.205435 148.004467 
L 243.509836 149.529345 
L 247.892372 151.081903 
L 252.373109 152.66925 
L 256.935814 154.285635 
L 261.634332 155.950134 
L 266.46638 157.661936 
L 271.590186 159.477097 
L 277.173043 161.454881 
L 282.797004 163.447227 
L 288.264506 165.384146 
L 293.745926 167.325995 
L 299.206563 169.260482 
L 304.832925 171.253678 
L 310.540148 173.275521 
L 316.19632 175.279277 
L 322.055009 177.354778 
L 327.800712 179.390252 
L 333.704303 181.48166 
L 339.656816 183.590399 
L 345.456874 185.645129 
L 351.204536 187.681297 
L 356.927481 189.708709 
L 363.029433 191.870388 
L 369.337481 194.105079 
L 375.505985 196.290335 
L 381.65841 198.469894 
L 387.846844 200.662211 
L 394.125252 202.886401 
L 400.947592 205.303285 
L 407.841236 207.745429 
L 414.920312 210.253264 
L 422.192112 212.829374 
L 429.535625 215.430889 
" style="fill:none;stroke:#c0c0c0;stroke-linecap:square;stroke-width:3;"/>
   </g>
   <g id="patch_3">
    <path d="M 72.415625 288.430125 
L 72.415625 22.318125 
" style="fill:none;stroke:#000000;stroke-linecap:square;stroke-linejoin:miter;stroke-width:0.8;"/>
   </g>
   <g id="patch_4">
    <path d="M 429.535625 288.430125 
L 429.535625 22.318125 
" style="fill:none;stroke:#000000;stroke-linecap:square;stroke-linejoin:miter;stroke-width:0.8;"/>
   </g>
   <g id="patch_5">
    <path d="M 72.415625 288.430125 
L 429.535625 288.430125 
" style="fill:none;stroke:#000000;stroke-linecap:square;stroke-linejoin:miter;stroke-width:0.8;"/>
   </g>
   <g id="patch_6">
    <path d="M 72.415625 22.318125 
L 429.535625 22.318125 
" style="fill:none;stroke:#000000;stroke-linecap:square;stroke-linejoin:miter;stroke-width:0.8;"/>
   </g>
   <g id="text_14">
    <!-- Cross-Entropy vs Persistence Distance -->
    <defs>
     <path d="M 2.984375 54.6875 
L 12.5 54.6875 
L 29.59375 8.796875 
L 46.6875 54.6875 
L 56.203125 54.6875 
L 35.6875 0 
L 23.484375 0 
z
" id="DejaVuSans-76"/>
    </defs>
    <g transform="translate(135.630313 16.318125)scale(0.12 -0.12)">
     <use xlink:href="#DejaVuSans-43"/>
     <use x="69.824219" xlink:href="#DejaVuSans-72"/>
     <use x="110.90625" xlink:href="#DejaVuSans-6f"/>
     <use x="172.087891" xlink:href="#DejaVuSans-73"/>
     <use x="224.1875" xlink:href="#DejaVuSans-73"/>
     <use x="276.287109" xlink:href="#DejaVuSans-2d"/>
     <use x="312.371094" xlink:href="#DejaVuSans-45"/>
     <use x="375.554688" xlink:href="#DejaVuSans-6e"/>
     <use x="438.933594" xlink:href="#DejaVuSans-74"/>
     <use x="478.142578" xlink:href="#DejaVuSans-72"/>
     <use x="519.224609" xlink:href="#DejaVuSans-6f"/>
     <use x="580.40625" xlink:href="#DejaVuSans-70"/>
     <use x="643.882812" xlink:href="#DejaVuSans-79"/>
     <use x="703.0625" xlink:href="#DejaVuSans-20"/>
     <use x="734.849609" xlink:href="#DejaVuSans-76"/>
     <use x="794.029297" xlink:href="#DejaVuSans-73"/>
     <use x="846.128906" xlink:href="#DejaVuSans-20"/>
     <use x="877.916016" xlink:href="#DejaVuSans-50"/>
     <use x="938.171875" xlink:href="#DejaVuSans-65"/>
     <use x="999.695312" xlink:href="#DejaVuSans-72"/>
     <use x="1040.808594" xlink:href="#DejaVuSans-73"/>
     <use x="1092.908203" xlink:href="#DejaVuSans-69"/>
     <use x="1120.691406" xlink:href="#DejaVuSans-73"/>
     <use x="1172.791016" xlink:href="#DejaVuSans-74"/>
     <use x="1212" xlink:href="#DejaVuSans-65"/>
     <use x="1273.523438" xlink:href="#DejaVuSans-6e"/>
     <use x="1336.902344" xlink:href="#DejaVuSans-63"/>
     <use x="1391.882812" xlink:href="#DejaVuSans-65"/>
     <use x="1453.40625" xlink:href="#DejaVuSans-20"/>
     <use x="1485.193359" xlink:href="#DejaVuSans-44"/>
     <use x="1562.195312" xlink:href="#DejaVuSans-69"/>
     <use x="1589.978516" xlink:href="#DejaVuSans-73"/>
     <use x="1642.078125" xlink:href="#DejaVuSans-74"/>
     <use x="1681.287109" xlink:href="#DejaVuSans-61"/>
     <use x="1742.566406" xlink:href="#DejaVuSans-6e"/>
     <use x="1805.945312" xlink:href="#DejaVuSans-63"/>
     <use x="1860.925781" xlink:href="#DejaVuSans-65"/>
    </g>
   </g>
  </g>
 </g>
 <defs>
  <clipPath id="p73b13024b7">
   <rect height="266.112" width="357.12" x="72.415625" y="22.318125"/>
  </clipPath>
 </defs>
</svg>
