<?xml version="1.0" encoding="utf-8" standalone="no"?>
<!DOCTYPE svg PUBLIC "-//W3C//DTD SVG 1.1//EN"
  "http://www.w3.org/Graphics/SVG/1.1/DTD/svg11.dtd">
<!-- Created with matplotlib (http://matplotlib.org/) -->
<svg height="325pt" version="1.1" viewBox="0 0 440 325" width="440pt" xmlns="http://www.w3.org/2000/svg" xmlns:xlink="http://www.w3.org/1999/xlink">
 <defs>
  <style type="text/css">
*{stroke-linecap:butt;stroke-linejoin:round;}
  </style>
 </defs>
 <g id="figure_1">
  <g id="patch_1">
   <path d="M 0 325.986375 
L 440.235625 325.986375 
L 440.235625 0 
L 0 0 
z
" style="fill:#ffffff;"/>
  </g>
  <g id="axes_1">
   <g id="patch_2">
    <path d="M 72.415625 288.430125 
L 429.535625 288.430125 
L 429.535625 22.318125 
L 72.415625 22.318125 
z
" style="fill:#ffffff;"/>
   </g>
   <g id="PathCollection_1">
    <defs>
     <path d="M 0 3 
C 0.795609 3 1.55874 2.683901 2.12132 2.12132 
C 2.683901 1.55874 3 0.795609 3 0 
C 3 -0.795609 2.683901 -1.55874 2.12132 -2.12132 
C 1.55874 -2.683901 0.795609 -3 0 -3 
C -0.795609 -3 -1.55874 -2.683901 -2.12132 -2.12132 
C -2.683901 -1.55874 -3 -0.795609 -3 0 
C -3 0.795609 -2.683901 1.55874 -2.12132 2.12132 
C -1.55874 2.683901 -0.795609 3 0 3 
z
" id="mb3074bdcc5" style="stroke:#000000;"/>
    </defs>
    <g clip-path="url(#p11b2e6b6af)">
     <use style="stroke:#000000;" x="72.415625" xlink:href="#mb3074bdcc5" y="75.628284"/>
     <use style="stroke:#000000;" x="76.022898" xlink:href="#mb3074bdcc5" y="77.648275"/>
     <use style="stroke:#000000;" x="79.63017" xlink:href="#mb3074bdcc5" y="78.090779"/>
     <use style="stroke:#000000;" x="83.237443" xlink:href="#mb3074bdcc5" y="81.605586"/>
     <use style="stroke:#000000;" x="86.844716" xlink:href="#mb3074bdcc5" y="86.894025"/>
     <use style="stroke:#000000;" x="90.451989" xlink:href="#mb3074bdcc5" y="86.852999"/>
     <use style="stroke:#000000;" x="94.059261" xlink:href="#mb3074bdcc5" y="88.648503"/>
     <use style="stroke:#000000;" x="97.666534" xlink:href="#mb3074bdcc5" y="94.955523"/>
     <use style="stroke:#000000;" x="101.273807" xlink:href="#mb3074bdcc5" y="104.241059"/>
     <use style="stroke:#000000;" x="104.88108" xlink:href="#mb3074bdcc5" y="104.530303"/>
     <use style="stroke:#000000;" x="108.488352" xlink:href="#mb3074bdcc5" y="117.360159"/>
     <use style="stroke:#000000;" x="112.095625" xlink:href="#mb3074bdcc5" y="115.930942"/>
     <use style="stroke:#000000;" x="115.702898" xlink:href="#mb3074bdcc5" y="120.4157"/>
     <use style="stroke:#000000;" x="119.31017" xlink:href="#mb3074bdcc5" y="126.679114"/>
     <use style="stroke:#000000;" x="122.917443" xlink:href="#mb3074bdcc5" y="129.146927"/>
     <use style="stroke:#000000;" x="126.524716" xlink:href="#mb3074bdcc5" y="140.248617"/>
     <use style="stroke:#000000;" x="130.131989" xlink:href="#mb3074bdcc5" y="154.291737"/>
     <use style="stroke:#000000;" x="133.739261" xlink:href="#mb3074bdcc5" y="169.209334"/>
     <use style="stroke:#000000;" x="137.346534" xlink:href="#mb3074bdcc5" y="188.24566"/>
     <use style="stroke:#000000;" x="140.953807" xlink:href="#mb3074bdcc5" y="203.127274"/>
     <use style="stroke:#000000;" x="144.56108" xlink:href="#mb3074bdcc5" y="217.633807"/>
     <use style="stroke:#000000;" x="148.168352" xlink:href="#mb3074bdcc5" y="223.426718"/>
     <use style="stroke:#000000;" x="151.775625" xlink:href="#mb3074bdcc5" y="223.084352"/>
     <use style="stroke:#000000;" x="155.382898" xlink:href="#mb3074bdcc5" y="199.322329"/>
     <use style="stroke:#000000;" x="158.99017" xlink:href="#mb3074bdcc5" y="171.323371"/>
     <use style="stroke:#000000;" x="162.597443" xlink:href="#mb3074bdcc5" y="149.885571"/>
     <use style="stroke:#000000;" x="166.204716" xlink:href="#mb3074bdcc5" y="132.303225"/>
     <use style="stroke:#000000;" x="169.811989" xlink:href="#mb3074bdcc5" y="109.284618"/>
     <use style="stroke:#000000;" x="173.419261" xlink:href="#mb3074bdcc5" y="96.124716"/>
     <use style="stroke:#000000;" x="177.026534" xlink:href="#mb3074bdcc5" y="71.729207"/>
     <use style="stroke:#000000;" x="180.633807" xlink:href="#mb3074bdcc5" y="56.209822"/>
     <use style="stroke:#000000;" x="184.24108" xlink:href="#mb3074bdcc5" y="51.014827"/>
     <use style="stroke:#000000;" x="187.848352" xlink:href="#mb3074bdcc5" y="34.79047"/>
     <use style="stroke:#000000;" x="191.455625" xlink:href="#mb3074bdcc5" y="37.145308"/>
     <use style="stroke:#000000;" x="195.062898" xlink:href="#mb3074bdcc5" y="40.905201"/>
     <use style="stroke:#000000;" x="198.67017" xlink:href="#mb3074bdcc5" y="45.9109"/>
     <use style="stroke:#000000;" x="202.277443" xlink:href="#mb3074bdcc5" y="32.622037"/>
     <use style="stroke:#000000;" x="205.884716" xlink:href="#mb3074bdcc5" y="22.318125"/>
     <use style="stroke:#000000;" x="209.491989" xlink:href="#mb3074bdcc5" y="31.262034"/>
     <use style="stroke:#000000;" x="213.099261" xlink:href="#mb3074bdcc5" y="28.275637"/>
     <use style="stroke:#000000;" x="216.706534" xlink:href="#mb3074bdcc5" y="29.246517"/>
     <use style="stroke:#000000;" x="220.313807" xlink:href="#mb3074bdcc5" y="34.528519"/>
     <use style="stroke:#000000;" x="223.92108" xlink:href="#mb3074bdcc5" y="35.132028"/>
     <use style="stroke:#000000;" x="227.528352" xlink:href="#mb3074bdcc5" y="42.349182"/>
     <use style="stroke:#000000;" x="231.135625" xlink:href="#mb3074bdcc5" y="46.691383"/>
     <use style="stroke:#000000;" x="234.742898" xlink:href="#mb3074bdcc5" y="53.929567"/>
     <use style="stroke:#000000;" x="238.35017" xlink:href="#mb3074bdcc5" y="43.528838"/>
     <use style="stroke:#000000;" x="241.957443" xlink:href="#mb3074bdcc5" y="69.15754"/>
     <use style="stroke:#000000;" x="245.564716" xlink:href="#mb3074bdcc5" y="67.063586"/>
     <use style="stroke:#000000;" x="249.171989" xlink:href="#mb3074bdcc5" y="69.441896"/>
     <use style="stroke:#000000;" x="252.779261" xlink:href="#mb3074bdcc5" y="68.550348"/>
     <use style="stroke:#000000;" x="256.386534" xlink:href="#mb3074bdcc5" y="64.219953"/>
     <use style="stroke:#000000;" x="259.993807" xlink:href="#mb3074bdcc5" y="73.052177"/>
     <use style="stroke:#000000;" x="263.60108" xlink:href="#mb3074bdcc5" y="69.792954"/>
     <use style="stroke:#000000;" x="267.208352" xlink:href="#mb3074bdcc5" y="70.078033"/>
     <use style="stroke:#000000;" x="270.815625" xlink:href="#mb3074bdcc5" y="84.183345"/>
     <use style="stroke:#000000;" x="274.422898" xlink:href="#mb3074bdcc5" y="94.036132"/>
     <use style="stroke:#000000;" x="278.03017" xlink:href="#mb3074bdcc5" y="108.914648"/>
     <use style="stroke:#000000;" x="281.637443" xlink:href="#mb3074bdcc5" y="105.735256"/>
     <use style="stroke:#000000;" x="285.244716" xlink:href="#mb3074bdcc5" y="117.400909"/>
     <use style="stroke:#000000;" x="288.851989" xlink:href="#mb3074bdcc5" y="116.46331"/>
     <use style="stroke:#000000;" x="292.459261" xlink:href="#mb3074bdcc5" y="120.662111"/>
     <use style="stroke:#000000;" x="296.066534" xlink:href="#mb3074bdcc5" y="126.763557"/>
     <use style="stroke:#000000;" x="299.673807" xlink:href="#mb3074bdcc5" y="140.328396"/>
     <use style="stroke:#000000;" x="303.28108" xlink:href="#mb3074bdcc5" y="136.771325"/>
     <use style="stroke:#000000;" x="306.888352" xlink:href="#mb3074bdcc5" y="146.948873"/>
     <use style="stroke:#000000;" x="310.495625" xlink:href="#mb3074bdcc5" y="160.301994"/>
     <use style="stroke:#000000;" x="314.102898" xlink:href="#mb3074bdcc5" y="165.939132"/>
     <use style="stroke:#000000;" x="317.71017" xlink:href="#mb3074bdcc5" y="171.639959"/>
     <use style="stroke:#000000;" x="321.317443" xlink:href="#mb3074bdcc5" y="184.550265"/>
     <use style="stroke:#000000;" x="324.924716" xlink:href="#mb3074bdcc5" y="192.224964"/>
     <use style="stroke:#000000;" x="328.531989" xlink:href="#mb3074bdcc5" y="204.33646"/>
     <use style="stroke:#000000;" x="332.139261" xlink:href="#mb3074bdcc5" y="219.751922"/>
     <use style="stroke:#000000;" x="335.746534" xlink:href="#mb3074bdcc5" y="225.282143"/>
     <use style="stroke:#000000;" x="339.353807" xlink:href="#mb3074bdcc5" y="230.977188"/>
     <use style="stroke:#000000;" x="342.96108" xlink:href="#mb3074bdcc5" y="242.189598"/>
     <use style="stroke:#000000;" x="346.568352" xlink:href="#mb3074bdcc5" y="245.261738"/>
     <use style="stroke:#000000;" x="350.175625" xlink:href="#mb3074bdcc5" y="242.480744"/>
     <use style="stroke:#000000;" x="353.782898" xlink:href="#mb3074bdcc5" y="246.370864"/>
     <use style="stroke:#000000;" x="357.39017" xlink:href="#mb3074bdcc5" y="252.480613"/>
     <use style="stroke:#000000;" x="360.997443" xlink:href="#mb3074bdcc5" y="254.592816"/>
     <use style="stroke:#000000;" x="364.604716" xlink:href="#mb3074bdcc5" y="256.9023"/>
     <use style="stroke:#000000;" x="368.211989" xlink:href="#mb3074bdcc5" y="256.899702"/>
     <use style="stroke:#000000;" x="371.819261" xlink:href="#mb3074bdcc5" y="258.400446"/>
     <use style="stroke:#000000;" x="375.426534" xlink:href="#mb3074bdcc5" y="262.456329"/>
     <use style="stroke:#000000;" x="379.033807" xlink:href="#mb3074bdcc5" y="266.835718"/>
     <use style="stroke:#000000;" x="382.64108" xlink:href="#mb3074bdcc5" y="272.655604"/>
     <use style="stroke:#000000;" x="386.248352" xlink:href="#mb3074bdcc5" y="276.934717"/>
     <use style="stroke:#000000;" x="389.855625" xlink:href="#mb3074bdcc5" y="282.222837"/>
     <use style="stroke:#000000;" x="393.462898" xlink:href="#mb3074bdcc5" y="280.009205"/>
     <use style="stroke:#000000;" x="397.07017" xlink:href="#mb3074bdcc5" y="281.315517"/>
     <use style="stroke:#000000;" x="400.677443" xlink:href="#mb3074bdcc5" y="284.684033"/>
     <use style="stroke:#000000;" x="404.284716" xlink:href="#mb3074bdcc5" y="284.872838"/>
     <use style="stroke:#000000;" x="407.891989" xlink:href="#mb3074bdcc5" y="282.859602"/>
     <use style="stroke:#000000;" x="411.499261" xlink:href="#mb3074bdcc5" y="280.665674"/>
     <use style="stroke:#000000;" x="415.106534" xlink:href="#mb3074bdcc5" y="281.487191"/>
     <use style="stroke:#000000;" x="418.713807" xlink:href="#mb3074bdcc5" y="284.442432"/>
     <use style="stroke:#000000;" x="422.32108" xlink:href="#mb3074bdcc5" y="284.819586"/>
     <use style="stroke:#000000;" x="425.928352" xlink:href="#mb3074bdcc5" y="288.430125"/>
     <use style="stroke:#000000;" x="429.535625" xlink:href="#mb3074bdcc5" y="288.036468"/>
    </g>
   </g>
   <g id="matplotlib.axis_1">
    <g id="xtick_1">
     <g id="line2d_1">
      <defs>
       <path d="M 0 0 
L 0 3.5 
" id="m3644b926b9" style="stroke:#000000;stroke-width:0.8;"/>
      </defs>
      <g>
       <use style="stroke:#000000;stroke-width:0.8;" x="141.623508" xlink:href="#m3644b926b9" y="288.430125"/>
      </g>
     </g>
     <g id="text_1">
      <!-- 2 -->
      <defs>
       <path d="M 19.1875 8.296875 
L 53.609375 8.296875 
L 53.609375 0 
L 7.328125 0 
L 7.328125 8.296875 
Q 12.9375 14.109375 22.625 23.890625 
Q 32.328125 33.6875 34.8125 36.53125 
Q 39.546875 41.84375 41.421875 45.53125 
Q 43.3125 49.21875 43.3125 52.78125 
Q 43.3125 58.59375 39.234375 62.25 
Q 35.15625 65.921875 28.609375 65.921875 
Q 23.96875 65.921875 18.8125 64.3125 
Q 13.671875 62.703125 7.8125 59.421875 
L 7.8125 69.390625 
Q 13.765625 71.78125 18.9375 73 
Q 24.125 74.21875 28.421875 74.21875 
Q 39.75 74.21875 46.484375 68.546875 
Q 53.21875 62.890625 53.21875 53.421875 
Q 53.21875 48.921875 51.53125 44.890625 
Q 49.859375 40.875 45.40625 35.40625 
Q 44.1875 33.984375 37.640625 27.21875 
Q 31.109375 20.453125 19.1875 8.296875 
z
" id="DejaVuSans-32"/>
      </defs>
      <g transform="translate(138.442258 303.028562)scale(0.1 -0.1)">
       <use xlink:href="#DejaVuSans-32"/>
      </g>
     </g>
    </g>
    <g id="xtick_2">
     <g id="line2d_2">
      <g>
       <use style="stroke:#000000;stroke-width:0.8;" x="214.438665" xlink:href="#m3644b926b9" y="288.430125"/>
      </g>
     </g>
     <g id="text_2">
      <!-- 4 -->
      <defs>
       <path d="M 37.796875 64.3125 
L 12.890625 25.390625 
L 37.796875 25.390625 
z
M 35.203125 72.90625 
L 47.609375 72.90625 
L 47.609375 25.390625 
L 58.015625 25.390625 
L 58.015625 17.1875 
L 47.609375 17.1875 
L 47.609375 0 
L 37.796875 0 
L 37.796875 17.1875 
L 4.890625 17.1875 
L 4.890625 26.703125 
z
" id="DejaVuSans-34"/>
      </defs>
      <g transform="translate(211.257415 303.028562)scale(0.1 -0.1)">
       <use xlink:href="#DejaVuSans-34"/>
      </g>
     </g>
    </g>
    <g id="xtick_3">
     <g id="line2d_3">
      <g>
       <use style="stroke:#000000;stroke-width:0.8;" x="287.253821" xlink:href="#m3644b926b9" y="288.430125"/>
      </g>
     </g>
     <g id="text_3">
      <!-- 6 -->
      <defs>
       <path d="M 33.015625 40.375 
Q 26.375 40.375 22.484375 35.828125 
Q 18.609375 31.296875 18.609375 23.390625 
Q 18.609375 15.53125 22.484375 10.953125 
Q 26.375 6.390625 33.015625 6.390625 
Q 39.65625 6.390625 43.53125 10.953125 
Q 47.40625 15.53125 47.40625 23.390625 
Q 47.40625 31.296875 43.53125 35.828125 
Q 39.65625 40.375 33.015625 40.375 
z
M 52.59375 71.296875 
L 52.59375 62.3125 
Q 48.875 64.0625 45.09375 64.984375 
Q 41.3125 65.921875 37.59375 65.921875 
Q 27.828125 65.921875 22.671875 59.328125 
Q 17.53125 52.734375 16.796875 39.40625 
Q 19.671875 43.65625 24.015625 45.921875 
Q 28.375 48.1875 33.59375 48.1875 
Q 44.578125 48.1875 50.953125 41.515625 
Q 57.328125 34.859375 57.328125 23.390625 
Q 57.328125 12.15625 50.6875 5.359375 
Q 44.046875 -1.421875 33.015625 -1.421875 
Q 20.359375 -1.421875 13.671875 8.265625 
Q 6.984375 17.96875 6.984375 36.375 
Q 6.984375 53.65625 15.1875 63.9375 
Q 23.390625 74.21875 37.203125 74.21875 
Q 40.921875 74.21875 44.703125 73.484375 
Q 48.484375 72.75 52.59375 71.296875 
z
" id="DejaVuSans-36"/>
      </defs>
      <g transform="translate(284.072571 303.028562)scale(0.1 -0.1)">
       <use xlink:href="#DejaVuSans-36"/>
      </g>
     </g>
    </g>
    <g id="xtick_4">
     <g id="line2d_4">
      <g>
       <use style="stroke:#000000;stroke-width:0.8;" x="360.068977" xlink:href="#m3644b926b9" y="288.430125"/>
      </g>
     </g>
     <g id="text_4">
      <!-- 8 -->
      <defs>
       <path d="M 31.78125 34.625 
Q 24.75 34.625 20.71875 30.859375 
Q 16.703125 27.09375 16.703125 20.515625 
Q 16.703125 13.921875 20.71875 10.15625 
Q 24.75 6.390625 31.78125 6.390625 
Q 38.8125 6.390625 42.859375 10.171875 
Q 46.921875 13.96875 46.921875 20.515625 
Q 46.921875 27.09375 42.890625 30.859375 
Q 38.875 34.625 31.78125 34.625 
z
M 21.921875 38.8125 
Q 15.578125 40.375 12.03125 44.71875 
Q 8.5 49.078125 8.5 55.328125 
Q 8.5 64.0625 14.71875 69.140625 
Q 20.953125 74.21875 31.78125 74.21875 
Q 42.671875 74.21875 48.875 69.140625 
Q 55.078125 64.0625 55.078125 55.328125 
Q 55.078125 49.078125 51.53125 44.71875 
Q 48 40.375 41.703125 38.8125 
Q 48.828125 37.15625 52.796875 32.3125 
Q 56.78125 27.484375 56.78125 20.515625 
Q 56.78125 9.90625 50.3125 4.234375 
Q 43.84375 -1.421875 31.78125 -1.421875 
Q 19.734375 -1.421875 13.25 4.234375 
Q 6.78125 9.90625 6.78125 20.515625 
Q 6.78125 27.484375 10.78125 32.3125 
Q 14.796875 37.15625 21.921875 38.8125 
z
M 18.3125 54.390625 
Q 18.3125 48.734375 21.84375 45.5625 
Q 25.390625 42.390625 31.78125 42.390625 
Q 38.140625 42.390625 41.71875 45.5625 
Q 45.3125 48.734375 45.3125 54.390625 
Q 45.3125 60.0625 41.71875 63.234375 
Q 38.140625 66.40625 31.78125 66.40625 
Q 25.390625 66.40625 21.84375 63.234375 
Q 18.3125 60.0625 18.3125 54.390625 
z
" id="DejaVuSans-38"/>
      </defs>
      <g transform="translate(356.887727 303.028562)scale(0.1 -0.1)">
       <use xlink:href="#DejaVuSans-38"/>
      </g>
     </g>
    </g>
    <g id="text_5">
     <!-- Input Distance -->
     <defs>
      <path d="M 9.8125 72.90625 
L 19.671875 72.90625 
L 19.671875 0 
L 9.8125 0 
z
" id="DejaVuSans-49"/>
      <path d="M 54.890625 33.015625 
L 54.890625 0 
L 45.90625 0 
L 45.90625 32.71875 
Q 45.90625 40.484375 42.875 44.328125 
Q 39.84375 48.1875 33.796875 48.1875 
Q 26.515625 48.1875 22.3125 43.546875 
Q 18.109375 38.921875 18.109375 30.90625 
L 18.109375 0 
L 9.078125 0 
L 9.078125 54.6875 
L 18.109375 54.6875 
L 18.109375 46.1875 
Q 21.34375 51.125 25.703125 53.5625 
Q 30.078125 56 35.796875 56 
Q 45.21875 56 50.046875 50.171875 
Q 54.890625 44.34375 54.890625 33.015625 
z
" id="DejaVuSans-6e"/>
      <path d="M 18.109375 8.203125 
L 18.109375 -20.796875 
L 9.078125 -20.796875 
L 9.078125 54.6875 
L 18.109375 54.6875 
L 18.109375 46.390625 
Q 20.953125 51.265625 25.265625 53.625 
Q 29.59375 56 35.59375 56 
Q 45.5625 56 51.78125 48.09375 
Q 58.015625 40.1875 58.015625 27.296875 
Q 58.015625 14.40625 51.78125 6.484375 
Q 45.5625 -1.421875 35.59375 -1.421875 
Q 29.59375 -1.421875 25.265625 0.953125 
Q 20.953125 3.328125 18.109375 8.203125 
z
M 48.6875 27.296875 
Q 48.6875 37.203125 44.609375 42.84375 
Q 40.53125 48.484375 33.40625 48.484375 
Q 26.265625 48.484375 22.1875 42.84375 
Q 18.109375 37.203125 18.109375 27.296875 
Q 18.109375 17.390625 22.1875 11.75 
Q 26.265625 6.109375 33.40625 6.109375 
Q 40.53125 6.109375 44.609375 11.75 
Q 48.6875 17.390625 48.6875 27.296875 
z
" id="DejaVuSans-70"/>
      <path d="M 8.5 21.578125 
L 8.5 54.6875 
L 17.484375 54.6875 
L 17.484375 21.921875 
Q 17.484375 14.15625 20.5 10.265625 
Q 23.53125 6.390625 29.59375 6.390625 
Q 36.859375 6.390625 41.078125 11.03125 
Q 45.3125 15.671875 45.3125 23.6875 
L 45.3125 54.6875 
L 54.296875 54.6875 
L 54.296875 0 
L 45.3125 0 
L 45.3125 8.40625 
Q 42.046875 3.421875 37.71875 1 
Q 33.40625 -1.421875 27.6875 -1.421875 
Q 18.265625 -1.421875 13.375 4.4375 
Q 8.5 10.296875 8.5 21.578125 
z
M 31.109375 56 
z
" id="DejaVuSans-75"/>
      <path d="M 18.3125 70.21875 
L 18.3125 54.6875 
L 36.8125 54.6875 
L 36.8125 47.703125 
L 18.3125 47.703125 
L 18.3125 18.015625 
Q 18.3125 11.328125 20.140625 9.421875 
Q 21.96875 7.515625 27.59375 7.515625 
L 36.8125 7.515625 
L 36.8125 0 
L 27.59375 0 
Q 17.1875 0 13.234375 3.875 
Q 9.28125 7.765625 9.28125 18.015625 
L 9.28125 47.703125 
L 2.6875 47.703125 
L 2.6875 54.6875 
L 9.28125 54.6875 
L 9.28125 70.21875 
z
" id="DejaVuSans-74"/>
      <path id="DejaVuSans-20"/>
      <path d="M 19.671875 64.796875 
L 19.671875 8.109375 
L 31.59375 8.109375 
Q 46.6875 8.109375 53.6875 14.9375 
Q 60.6875 21.78125 60.6875 36.53125 
Q 60.6875 51.171875 53.6875 57.984375 
Q 46.6875 64.796875 31.59375 64.796875 
z
M 9.8125 72.90625 
L 30.078125 72.90625 
Q 51.265625 72.90625 61.171875 64.09375 
Q 71.09375 55.28125 71.09375 36.53125 
Q 71.09375 17.671875 61.125 8.828125 
Q 51.171875 0 30.078125 0 
L 9.8125 0 
z
" id="DejaVuSans-44"/>
      <path d="M 9.421875 54.6875 
L 18.40625 54.6875 
L 18.40625 0 
L 9.421875 0 
z
M 9.421875 75.984375 
L 18.40625 75.984375 
L 18.40625 64.59375 
L 9.421875 64.59375 
z
" id="DejaVuSans-69"/>
      <path d="M 44.28125 53.078125 
L 44.28125 44.578125 
Q 40.484375 46.53125 36.375 47.5 
Q 32.28125 48.484375 27.875 48.484375 
Q 21.1875 48.484375 17.84375 46.4375 
Q 14.5 44.390625 14.5 40.28125 
Q 14.5 37.15625 16.890625 35.375 
Q 19.28125 33.59375 26.515625 31.984375 
L 29.59375 31.296875 
Q 39.15625 29.25 43.1875 25.515625 
Q 47.21875 21.78125 47.21875 15.09375 
Q 47.21875 7.46875 41.1875 3.015625 
Q 35.15625 -1.421875 24.609375 -1.421875 
Q 20.21875 -1.421875 15.453125 -0.5625 
Q 10.6875 0.296875 5.421875 2 
L 5.421875 11.28125 
Q 10.40625 8.6875 15.234375 7.390625 
Q 20.0625 6.109375 24.8125 6.109375 
Q 31.15625 6.109375 34.5625 8.28125 
Q 37.984375 10.453125 37.984375 14.40625 
Q 37.984375 18.0625 35.515625 20.015625 
Q 33.0625 21.96875 24.703125 23.78125 
L 21.578125 24.515625 
Q 13.234375 26.265625 9.515625 29.90625 
Q 5.8125 33.546875 5.8125 39.890625 
Q 5.8125 47.609375 11.28125 51.796875 
Q 16.75 56 26.8125 56 
Q 31.78125 56 36.171875 55.265625 
Q 40.578125 54.546875 44.28125 53.078125 
z
" id="DejaVuSans-73"/>
      <path d="M 34.28125 27.484375 
Q 23.390625 27.484375 19.1875 25 
Q 14.984375 22.515625 14.984375 16.5 
Q 14.984375 11.71875 18.140625 8.90625 
Q 21.296875 6.109375 26.703125 6.109375 
Q 34.1875 6.109375 38.703125 11.40625 
Q 43.21875 16.703125 43.21875 25.484375 
L 43.21875 27.484375 
z
M 52.203125 31.203125 
L 52.203125 0 
L 43.21875 0 
L 43.21875 8.296875 
Q 40.140625 3.328125 35.546875 0.953125 
Q 30.953125 -1.421875 24.3125 -1.421875 
Q 15.921875 -1.421875 10.953125 3.296875 
Q 6 8.015625 6 15.921875 
Q 6 25.140625 12.171875 29.828125 
Q 18.359375 34.515625 30.609375 34.515625 
L 43.21875 34.515625 
L 43.21875 35.40625 
Q 43.21875 41.609375 39.140625 45 
Q 35.0625 48.390625 27.6875 48.390625 
Q 23 48.390625 18.546875 47.265625 
Q 14.109375 46.140625 10.015625 43.890625 
L 10.015625 52.203125 
Q 14.9375 54.109375 19.578125 55.046875 
Q 24.21875 56 28.609375 56 
Q 40.484375 56 46.34375 49.84375 
Q 52.203125 43.703125 52.203125 31.203125 
z
" id="DejaVuSans-61"/>
      <path d="M 48.78125 52.59375 
L 48.78125 44.1875 
Q 44.96875 46.296875 41.140625 47.34375 
Q 37.3125 48.390625 33.40625 48.390625 
Q 24.65625 48.390625 19.8125 42.84375 
Q 14.984375 37.3125 14.984375 27.296875 
Q 14.984375 17.28125 19.8125 11.734375 
Q 24.65625 6.203125 33.40625 6.203125 
Q 37.3125 6.203125 41.140625 7.25 
Q 44.96875 8.296875 48.78125 10.40625 
L 48.78125 2.09375 
Q 45.015625 0.34375 40.984375 -0.53125 
Q 36.96875 -1.421875 32.421875 -1.421875 
Q 20.0625 -1.421875 12.78125 6.34375 
Q 5.515625 14.109375 5.515625 27.296875 
Q 5.515625 40.671875 12.859375 48.328125 
Q 20.21875 56 33.015625 56 
Q 37.15625 56 41.109375 55.140625 
Q 45.0625 54.296875 48.78125 52.59375 
z
" id="DejaVuSans-63"/>
      <path d="M 56.203125 29.59375 
L 56.203125 25.203125 
L 14.890625 25.203125 
Q 15.484375 15.921875 20.484375 11.0625 
Q 25.484375 6.203125 34.421875 6.203125 
Q 39.59375 6.203125 44.453125 7.46875 
Q 49.3125 8.734375 54.109375 11.28125 
L 54.109375 2.78125 
Q 49.265625 0.734375 44.1875 -0.34375 
Q 39.109375 -1.421875 33.890625 -1.421875 
Q 20.796875 -1.421875 13.15625 6.1875 
Q 5.515625 13.8125 5.515625 26.8125 
Q 5.515625 40.234375 12.765625 48.109375 
Q 20.015625 56 32.328125 56 
Q 43.359375 56 49.78125 48.890625 
Q 56.203125 41.796875 56.203125 29.59375 
z
M 47.21875 32.234375 
Q 47.125 39.59375 43.09375 43.984375 
Q 39.0625 48.390625 32.421875 48.390625 
Q 24.90625 48.390625 20.390625 44.140625 
Q 15.875 39.890625 15.1875 32.171875 
z
" id="DejaVuSans-65"/>
     </defs>
     <g transform="translate(214.577188 316.706687)scale(0.1 -0.1)">
      <use xlink:href="#DejaVuSans-49"/>
      <use x="29.492188" xlink:href="#DejaVuSans-6e"/>
      <use x="92.871094" xlink:href="#DejaVuSans-70"/>
      <use x="156.347656" xlink:href="#DejaVuSans-75"/>
      <use x="219.726562" xlink:href="#DejaVuSans-74"/>
      <use x="258.935547" xlink:href="#DejaVuSans-20"/>
      <use x="290.722656" xlink:href="#DejaVuSans-44"/>
      <use x="367.724609" xlink:href="#DejaVuSans-69"/>
      <use x="395.507812" xlink:href="#DejaVuSans-73"/>
      <use x="447.607422" xlink:href="#DejaVuSans-74"/>
      <use x="486.816406" xlink:href="#DejaVuSans-61"/>
      <use x="548.095703" xlink:href="#DejaVuSans-6e"/>
      <use x="611.474609" xlink:href="#DejaVuSans-63"/>
      <use x="666.455078" xlink:href="#DejaVuSans-65"/>
     </g>
    </g>
   </g>
   <g id="matplotlib.axis_2">
    <g id="ytick_1">
     <g id="line2d_5">
      <defs>
       <path d="M 0 0 
L -3.5 0 
" id="mac7b0c522f" style="stroke:#000000;stroke-width:0.8;"/>
      </defs>
      <g>
       <use style="stroke:#000000;stroke-width:0.8;" x="72.415625" xlink:href="#mac7b0c522f" y="260.398032"/>
      </g>
     </g>
     <g id="text_6">
      <!-- 400000 -->
      <defs>
       <path d="M 31.78125 66.40625 
Q 24.171875 66.40625 20.328125 58.90625 
Q 16.5 51.421875 16.5 36.375 
Q 16.5 21.390625 20.328125 13.890625 
Q 24.171875 6.390625 31.78125 6.390625 
Q 39.453125 6.390625 43.28125 13.890625 
Q 47.125 21.390625 47.125 36.375 
Q 47.125 51.421875 43.28125 58.90625 
Q 39.453125 66.40625 31.78125 66.40625 
z
M 31.78125 74.21875 
Q 44.046875 74.21875 50.515625 64.515625 
Q 56.984375 54.828125 56.984375 36.375 
Q 56.984375 17.96875 50.515625 8.265625 
Q 44.046875 -1.421875 31.78125 -1.421875 
Q 19.53125 -1.421875 13.0625 8.265625 
Q 6.59375 17.96875 6.59375 36.375 
Q 6.59375 54.828125 13.0625 64.515625 
Q 19.53125 74.21875 31.78125 74.21875 
z
" id="DejaVuSans-30"/>
      </defs>
      <g transform="translate(27.240625 264.19725)scale(0.1 -0.1)">
       <use xlink:href="#DejaVuSans-34"/>
       <use x="63.623047" xlink:href="#DejaVuSans-30"/>
       <use x="127.246094" xlink:href="#DejaVuSans-30"/>
       <use x="190.869141" xlink:href="#DejaVuSans-30"/>
       <use x="254.492188" xlink:href="#DejaVuSans-30"/>
       <use x="318.115234" xlink:href="#DejaVuSans-30"/>
      </g>
     </g>
    </g>
    <g id="ytick_2">
     <g id="line2d_6">
      <g>
       <use style="stroke:#000000;stroke-width:0.8;" x="72.415625" xlink:href="#mac7b0c522f" y="205.330211"/>
      </g>
     </g>
     <g id="text_7">
      <!-- 600000 -->
      <g transform="translate(27.240625 209.12943)scale(0.1 -0.1)">
       <use xlink:href="#DejaVuSans-36"/>
       <use x="63.623047" xlink:href="#DejaVuSans-30"/>
       <use x="127.246094" xlink:href="#DejaVuSans-30"/>
       <use x="190.869141" xlink:href="#DejaVuSans-30"/>
       <use x="254.492188" xlink:href="#DejaVuSans-30"/>
       <use x="318.115234" xlink:href="#DejaVuSans-30"/>
      </g>
     </g>
    </g>
    <g id="ytick_3">
     <g id="line2d_7">
      <g>
       <use style="stroke:#000000;stroke-width:0.8;" x="72.415625" xlink:href="#mac7b0c522f" y="150.26239"/>
      </g>
     </g>
     <g id="text_8">
      <!-- 800000 -->
      <g transform="translate(27.240625 154.061609)scale(0.1 -0.1)">
       <use xlink:href="#DejaVuSans-38"/>
       <use x="63.623047" xlink:href="#DejaVuSans-30"/>
       <use x="127.246094" xlink:href="#DejaVuSans-30"/>
       <use x="190.869141" xlink:href="#DejaVuSans-30"/>
       <use x="254.492188" xlink:href="#DejaVuSans-30"/>
       <use x="318.115234" xlink:href="#DejaVuSans-30"/>
      </g>
     </g>
    </g>
    <g id="ytick_4">
     <g id="line2d_8">
      <g>
       <use style="stroke:#000000;stroke-width:0.8;" x="72.415625" xlink:href="#mac7b0c522f" y="95.194569"/>
      </g>
     </g>
     <g id="text_9">
      <!-- 1000000 -->
      <defs>
       <path d="M 12.40625 8.296875 
L 28.515625 8.296875 
L 28.515625 63.921875 
L 10.984375 60.40625 
L 10.984375 69.390625 
L 28.421875 72.90625 
L 38.28125 72.90625 
L 38.28125 8.296875 
L 54.390625 8.296875 
L 54.390625 0 
L 12.40625 0 
z
" id="DejaVuSans-31"/>
      </defs>
      <g transform="translate(20.878125 98.993788)scale(0.1 -0.1)">
       <use xlink:href="#DejaVuSans-31"/>
       <use x="63.623047" xlink:href="#DejaVuSans-30"/>
       <use x="127.246094" xlink:href="#DejaVuSans-30"/>
       <use x="190.869141" xlink:href="#DejaVuSans-30"/>
       <use x="254.492188" xlink:href="#DejaVuSans-30"/>
       <use x="318.115234" xlink:href="#DejaVuSans-30"/>
       <use x="381.738281" xlink:href="#DejaVuSans-30"/>
      </g>
     </g>
    </g>
    <g id="ytick_5">
     <g id="line2d_9">
      <g>
       <use style="stroke:#000000;stroke-width:0.8;" x="72.415625" xlink:href="#mac7b0c522f" y="40.126748"/>
      </g>
     </g>
     <g id="text_10">
      <!-- 1200000 -->
      <g transform="translate(20.878125 43.925967)scale(0.1 -0.1)">
       <use xlink:href="#DejaVuSans-31"/>
       <use x="63.623047" xlink:href="#DejaVuSans-32"/>
       <use x="127.246094" xlink:href="#DejaVuSans-30"/>
       <use x="190.869141" xlink:href="#DejaVuSans-30"/>
       <use x="254.492188" xlink:href="#DejaVuSans-30"/>
       <use x="318.115234" xlink:href="#DejaVuSans-30"/>
       <use x="381.738281" xlink:href="#DejaVuSans-30"/>
      </g>
     </g>
    </g>
    <g id="text_11">
     <!-- Persistence Distance -->
     <defs>
      <path d="M 19.671875 64.796875 
L 19.671875 37.40625 
L 32.078125 37.40625 
Q 38.96875 37.40625 42.71875 40.96875 
Q 46.484375 44.53125 46.484375 51.125 
Q 46.484375 57.671875 42.71875 61.234375 
Q 38.96875 64.796875 32.078125 64.796875 
z
M 9.8125 72.90625 
L 32.078125 72.90625 
Q 44.34375 72.90625 50.609375 67.359375 
Q 56.890625 61.8125 56.890625 51.125 
Q 56.890625 40.328125 50.609375 34.8125 
Q 44.34375 29.296875 32.078125 29.296875 
L 19.671875 29.296875 
L 19.671875 0 
L 9.8125 0 
z
" id="DejaVuSans-50"/>
      <path d="M 41.109375 46.296875 
Q 39.59375 47.171875 37.8125 47.578125 
Q 36.03125 48 33.890625 48 
Q 26.265625 48 22.1875 43.046875 
Q 18.109375 38.09375 18.109375 28.8125 
L 18.109375 0 
L 9.078125 0 
L 9.078125 54.6875 
L 18.109375 54.6875 
L 18.109375 46.1875 
Q 20.953125 51.171875 25.484375 53.578125 
Q 30.03125 56 36.53125 56 
Q 37.453125 56 38.578125 55.875 
Q 39.703125 55.765625 41.0625 55.515625 
z
" id="DejaVuSans-72"/>
     </defs>
     <g transform="translate(14.798438 207.599906)rotate(-90)scale(0.1 -0.1)">
      <use xlink:href="#DejaVuSans-50"/>
      <use x="60.255859" xlink:href="#DejaVuSans-65"/>
      <use x="121.779297" xlink:href="#DejaVuSans-72"/>
      <use x="162.892578" xlink:href="#DejaVuSans-73"/>
      <use x="214.992188" xlink:href="#DejaVuSans-69"/>
      <use x="242.775391" xlink:href="#DejaVuSans-73"/>
      <use x="294.875" xlink:href="#DejaVuSans-74"/>
      <use x="334.083984" xlink:href="#DejaVuSans-65"/>
      <use x="395.607422" xlink:href="#DejaVuSans-6e"/>
      <use x="458.986328" xlink:href="#DejaVuSans-63"/>
      <use x="513.966797" xlink:href="#DejaVuSans-65"/>
      <use x="575.490234" xlink:href="#DejaVuSans-20"/>
      <use x="607.277344" xlink:href="#DejaVuSans-44"/>
      <use x="684.279297" xlink:href="#DejaVuSans-69"/>
      <use x="712.0625" xlink:href="#DejaVuSans-73"/>
      <use x="764.162109" xlink:href="#DejaVuSans-74"/>
      <use x="803.371094" xlink:href="#DejaVuSans-61"/>
      <use x="864.650391" xlink:href="#DejaVuSans-6e"/>
      <use x="928.029297" xlink:href="#DejaVuSans-63"/>
      <use x="983.009766" xlink:href="#DejaVuSans-65"/>
     </g>
    </g>
   </g>
   <g id="line2d_10">
    <path clip-path="url(#p11b2e6b6af)" d="M 72.415625 80.213255 
L 76.022898 81.168957 
L 79.63017 82.12466 
L 83.237443 83.080363 
L 86.844716 84.036066 
L 90.451989 84.991768 
L 94.059261 85.947471 
L 97.666534 86.903174 
L 101.273807 87.858877 
L 104.88108 88.814579 
L 108.488352 89.770282 
L 112.095625 90.725985 
L 115.702898 91.681688 
L 119.31017 92.63739 
L 122.917443 93.593093 
L 126.524716 94.548796 
L 130.131989 95.504499 
L 133.739261 96.460201 
L 137.346534 97.415904 
L 140.953807 98.371607 
L 144.56108 99.32731 
L 148.168352 100.283012 
L 151.775625 101.238715 
L 155.382898 102.194418 
L 158.99017 103.15012 
L 162.597443 104.105823 
L 166.204716 105.061526 
L 169.811989 106.017229 
L 173.419261 106.972931 
L 177.026534 107.928634 
L 180.633807 108.884337 
L 184.24108 109.84004 
L 187.848352 110.795742 
L 191.455625 111.751445 
L 195.062898 112.707148 
L 198.67017 113.662851 
L 202.277443 114.618553 
L 205.884716 115.574256 
L 209.491989 116.529959 
L 213.099261 117.485662 
L 216.706534 118.441364 
L 220.313807 119.397067 
L 223.92108 120.35277 
L 227.528352 121.308473 
L 231.135625 122.264175 
L 234.742898 123.219878 
L 238.35017 124.175581 
L 241.957443 125.131284 
L 245.564716 126.086986 
L 249.171989 127.042689 
L 252.779261 127.998392 
L 256.386534 128.954095 
L 259.993807 129.909797 
L 263.60108 130.8655 
L 267.208352 131.821203 
L 270.815625 132.776906 
L 274.422898 133.732608 
L 278.03017 134.688311 
L 281.637443 135.644014 
L 285.244716 136.599717 
L 288.851989 137.555419 
L 292.459261 138.511122 
L 296.066534 139.466825 
L 299.673807 140.422528 
L 303.28108 141.37823 
L 306.888352 142.333933 
L 310.495625 143.289636 
L 314.102898 144.245339 
L 317.71017 145.201041 
L 321.317443 146.156744 
L 324.924716 147.112447 
L 328.531989 148.06815 
L 332.139261 149.023852 
L 335.746534 149.979555 
L 339.353807 150.935258 
L 342.96108 151.89096 
L 346.568352 152.846663 
L 350.175625 153.802366 
L 353.782898 154.758069 
L 357.39017 155.713771 
L 360.997443 156.669474 
L 364.604716 157.625177 
L 368.211989 158.58088 
L 371.819261 159.536582 
L 375.426534 160.492285 
L 379.033807 161.447988 
L 382.64108 162.403691 
L 386.248352 163.359393 
L 389.855625 164.315096 
L 393.462898 165.270799 
L 397.07017 166.226502 
L 400.677443 167.182204 
L 404.284716 168.137907 
L 407.891989 169.09361 
L 411.499261 170.049313 
L 415.106534 171.005015 
L 418.713807 171.960718 
L 422.32108 172.916421 
L 425.928352 173.872124 
L 429.535625 174.827826 
" style="fill:none;stroke:#c0c0c0;stroke-linecap:square;stroke-width:3;"/>
   </g>
   <g id="patch_3">
    <path d="M 72.415625 288.430125 
L 72.415625 22.318125 
" style="fill:none;stroke:#000000;stroke-linecap:square;stroke-linejoin:miter;stroke-width:0.8;"/>
   </g>
   <g id="patch_4">
    <path d="M 429.535625 288.430125 
L 429.535625 22.318125 
" style="fill:none;stroke:#000000;stroke-linecap:square;stroke-linejoin:miter;stroke-width:0.8;"/>
   </g>
   <g id="patch_5">
    <path d="M 72.415625 288.430125 
L 429.535625 288.430125 
" style="fill:none;stroke:#000000;stroke-linecap:square;stroke-linejoin:miter;stroke-width:0.8;"/>
   </g>
   <g id="patch_6">
    <path d="M 72.415625 22.318125 
L 429.535625 22.318125 
" style="fill:none;stroke:#000000;stroke-linecap:square;stroke-linejoin:miter;stroke-width:0.8;"/>
   </g>
   <g id="text_12">
    <!-- Input Distance vs Persistence Distance -->
    <defs>
     <path d="M 2.984375 54.6875 
L 12.5 54.6875 
L 29.59375 8.796875 
L 46.6875 54.6875 
L 56.203125 54.6875 
L 35.6875 0 
L 23.484375 0 
z
" id="DejaVuSans-76"/>
    </defs>
    <g transform="translate(134.135938 16.318125)scale(0.12 -0.12)">
     <use xlink:href="#DejaVuSans-49"/>
     <use x="29.492188" xlink:href="#DejaVuSans-6e"/>
     <use x="92.871094" xlink:href="#DejaVuSans-70"/>
     <use x="156.347656" xlink:href="#DejaVuSans-75"/>
     <use x="219.726562" xlink:href="#DejaVuSans-74"/>
     <use x="258.935547" xlink:href="#DejaVuSans-20"/>
     <use x="290.722656" xlink:href="#DejaVuSans-44"/>
     <use x="367.724609" xlink:href="#DejaVuSans-69"/>
     <use x="395.507812" xlink:href="#DejaVuSans-73"/>
     <use x="447.607422" xlink:href="#DejaVuSans-74"/>
     <use x="486.816406" xlink:href="#DejaVuSans-61"/>
     <use x="548.095703" xlink:href="#DejaVuSans-6e"/>
     <use x="611.474609" xlink:href="#DejaVuSans-63"/>
     <use x="666.455078" xlink:href="#DejaVuSans-65"/>
     <use x="727.978516" xlink:href="#DejaVuSans-20"/>
     <use x="759.765625" xlink:href="#DejaVuSans-76"/>
     <use x="818.945312" xlink:href="#DejaVuSans-73"/>
     <use x="871.044922" xlink:href="#DejaVuSans-20"/>
     <use x="902.832031" xlink:href="#DejaVuSans-50"/>
     <use x="963.087891" xlink:href="#DejaVuSans-65"/>
     <use x="1024.611328" xlink:href="#DejaVuSans-72"/>
     <use x="1065.724609" xlink:href="#DejaVuSans-73"/>
     <use x="1117.824219" xlink:href="#DejaVuSans-69"/>
     <use x="1145.607422" xlink:href="#DejaVuSans-73"/>
     <use x="1197.707031" xlink:href="#DejaVuSans-74"/>
     <use x="1236.916016" xlink:href="#DejaVuSans-65"/>
     <use x="1298.439453" xlink:href="#DejaVuSans-6e"/>
     <use x="1361.818359" xlink:href="#DejaVuSans-63"/>
     <use x="1416.798828" xlink:href="#DejaVuSans-65"/>
     <use x="1478.322266" xlink:href="#DejaVuSans-20"/>
     <use x="1510.109375" xlink:href="#DejaVuSans-44"/>
     <use x="1587.111328" xlink:href="#DejaVuSans-69"/>
     <use x="1614.894531" xlink:href="#DejaVuSans-73"/>
     <use x="1666.994141" xlink:href="#DejaVuSans-74"/>
     <use x="1706.203125" xlink:href="#DejaVuSans-61"/>
     <use x="1767.482422" xlink:href="#DejaVuSans-6e"/>
     <use x="1830.861328" xlink:href="#DejaVuSans-63"/>
     <use x="1885.841797" xlink:href="#DejaVuSans-65"/>
    </g>
   </g>
  </g>
 </g>
 <defs>
  <clipPath id="p11b2e6b6af">
   <rect height="266.112" width="357.12" x="72.415625" y="22.318125"/>
  </clipPath>
 </defs>
</svg>
