<?xml version="1.0" encoding="utf-8" standalone="no"?>
<!DOCTYPE svg PUBLIC "-//W3C//DTD SVG 1.1//EN"
  "http://www.w3.org/Graphics/SVG/1.1/DTD/svg11.dtd">
<!-- Created with matplotlib (http://matplotlib.org/) -->
<svg height="325pt" version="1.1" viewBox="0 0 433 325" width="433pt" xmlns="http://www.w3.org/2000/svg" xmlns:xlink="http://www.w3.org/1999/xlink">
 <defs>
  <style type="text/css">
*{stroke-linecap:butt;stroke-linejoin:round;}
  </style>
 </defs>
 <g id="figure_1">
  <g id="patch_1">
   <path d="M 0 325.986375 
L 433.873125 325.986375 
L 433.873125 0 
L 0 0 
z
" style="fill:#ffffff;"/>
  </g>
  <g id="axes_1">
   <g id="patch_2">
    <path d="M 66.053125 288.430125 
L 423.173125 288.430125 
L 423.173125 22.318125 
L 66.053125 22.318125 
z
" style="fill:#ffffff;"/>
   </g>
   <g id="PathCollection_1">
    <defs>
     <path d="M 0 3 
C 0.795609 3 1.55874 2.683901 2.12132 2.12132 
C 2.683901 1.55874 3 0.795609 3 0 
C 3 -0.795609 2.683901 -1.55874 2.12132 -2.12132 
C 1.55874 -2.683901 0.795609 -3 0 -3 
C -0.795609 -3 -1.55874 -2.683901 -2.12132 -2.12132 
C -2.683901 -1.55874 -3 -0.795609 -3 0 
C -3 0.795609 -2.683901 1.55874 -2.12132 2.12132 
C -1.55874 2.683901 -0.795609 3 0 3 
z
" id="m276ea3b069" style="stroke:#000000;"/>
    </defs>
    <g clip-path="url(#p4876e39dc6)">
     <use style="stroke:#000000;" x="423.173125" xlink:href="#m276ea3b069" y="285.865078"/>
     <use style="stroke:#000000;" x="422.753469" xlink:href="#m276ea3b069" y="285.326687"/>
     <use style="stroke:#000000;" x="422.283809" xlink:href="#m276ea3b069" y="276.10725"/>
     <use style="stroke:#000000;" x="421.819622" xlink:href="#m276ea3b069" y="265.017183"/>
     <use style="stroke:#000000;" x="421.363359" xlink:href="#m276ea3b069" y="254.413702"/>
     <use style="stroke:#000000;" x="420.818788" xlink:href="#m276ea3b069" y="262.969471"/>
     <use style="stroke:#000000;" x="420.244592" xlink:href="#m276ea3b069" y="260.240303"/>
     <use style="stroke:#000000;" x="419.647752" xlink:href="#m276ea3b069" y="276.127015"/>
     <use style="stroke:#000000;" x="419.050441" xlink:href="#m276ea3b069" y="288.430125"/>
     <use style="stroke:#000000;" x="418.450771" xlink:href="#m276ea3b069" y="270.375481"/>
     <use style="stroke:#000000;" x="417.829684" xlink:href="#m276ea3b069" y="230.341122"/>
     <use style="stroke:#000000;" x="417.200955" xlink:href="#m276ea3b069" y="228.624845"/>
     <use style="stroke:#000000;" x="416.590813" xlink:href="#m276ea3b069" y="203.82383"/>
     <use style="stroke:#000000;" x="415.981897" xlink:href="#m276ea3b069" y="187.575809"/>
     <use style="stroke:#000000;" x="415.383831" xlink:href="#m276ea3b069" y="195.396758"/>
     <use style="stroke:#000000;" x="414.718495" xlink:href="#m276ea3b069" y="213.675957"/>
     <use style="stroke:#000000;" x="413.984569" xlink:href="#m276ea3b069" y="187.33932"/>
     <use style="stroke:#000000;" x="413.223849" xlink:href="#m276ea3b069" y="147.001082"/>
     <use style="stroke:#000000;" x="412.439541" xlink:href="#m276ea3b069" y="155.47939"/>
     <use style="stroke:#000000;" x="411.585512" xlink:href="#m276ea3b069" y="151.573476"/>
     <use style="stroke:#000000;" x="410.64289" xlink:href="#m276ea3b069" y="134.929824"/>
     <use style="stroke:#000000;" x="409.757348" xlink:href="#m276ea3b069" y="154.167372"/>
     <use style="stroke:#000000;" x="408.832275" xlink:href="#m276ea3b069" y="160.99508"/>
     <use style="stroke:#000000;" x="407.771059" xlink:href="#m276ea3b069" y="133.560147"/>
     <use style="stroke:#000000;" x="406.571153" xlink:href="#m276ea3b069" y="105.193396"/>
     <use style="stroke:#000000;" x="405.260672" xlink:href="#m276ea3b069" y="63.663552"/>
     <use style="stroke:#000000;" x="403.910849" xlink:href="#m276ea3b069" y="33.546391"/>
     <use style="stroke:#000000;" x="402.447809" xlink:href="#m276ea3b069" y="30.650061"/>
     <use style="stroke:#000000;" x="400.880987" xlink:href="#m276ea3b069" y="52.794847"/>
     <use style="stroke:#000000;" x="399.236895" xlink:href="#m276ea3b069" y="49.140854"/>
     <use style="stroke:#000000;" x="397.557517" xlink:href="#m276ea3b069" y="46.214118"/>
     <use style="stroke:#000000;" x="395.803699" xlink:href="#m276ea3b069" y="30.496051"/>
     <use style="stroke:#000000;" x="394.095357" xlink:href="#m276ea3b069" y="65.504003"/>
     <use style="stroke:#000000;" x="392.341256" xlink:href="#m276ea3b069" y="37.57454"/>
     <use style="stroke:#000000;" x="390.537434" xlink:href="#m276ea3b069" y="35.201664"/>
     <use style="stroke:#000000;" x="388.655493" xlink:href="#m276ea3b069" y="57.846871"/>
     <use style="stroke:#000000;" x="386.765627" xlink:href="#m276ea3b069" y="79.284317"/>
     <use style="stroke:#000000;" x="384.977278" xlink:href="#m276ea3b069" y="89.288934"/>
     <use style="stroke:#000000;" x="383.045427" xlink:href="#m276ea3b069" y="86.493023"/>
     <use style="stroke:#000000;" x="381.028853" xlink:href="#m276ea3b069" y="96.114971"/>
     <use style="stroke:#000000;" x="378.992371" xlink:href="#m276ea3b069" y="105.5842"/>
     <use style="stroke:#000000;" x="377.002874" xlink:href="#m276ea3b069" y="114.288734"/>
     <use style="stroke:#000000;" x="374.990168" xlink:href="#m276ea3b069" y="90.418929"/>
     <use style="stroke:#000000;" x="372.934346" xlink:href="#m276ea3b069" y="88.049703"/>
     <use style="stroke:#000000;" x="370.813895" xlink:href="#m276ea3b069" y="74.722527"/>
     <use style="stroke:#000000;" x="368.620986" xlink:href="#m276ea3b069" y="61.60934"/>
     <use style="stroke:#000000;" x="366.375054" xlink:href="#m276ea3b069" y="22.318125"/>
     <use style="stroke:#000000;" x="364.161577" xlink:href="#m276ea3b069" y="23.582138"/>
     <use style="stroke:#000000;" x="361.83328" xlink:href="#m276ea3b069" y="45.741975"/>
     <use style="stroke:#000000;" x="359.231754" xlink:href="#m276ea3b069" y="43.341809"/>
     <use style="stroke:#000000;" x="356.464743" xlink:href="#m276ea3b069" y="63.944359"/>
     <use style="stroke:#000000;" x="353.584421" xlink:href="#m276ea3b069" y="72.872194"/>
     <use style="stroke:#000000;" x="350.615318" xlink:href="#m276ea3b069" y="69.317784"/>
     <use style="stroke:#000000;" x="347.523565" xlink:href="#m276ea3b069" y="76.961765"/>
     <use style="stroke:#000000;" x="344.279818" xlink:href="#m276ea3b069" y="95.482052"/>
     <use style="stroke:#000000;" x="340.899834" xlink:href="#m276ea3b069" y="124.272295"/>
     <use style="stroke:#000000;" x="337.46711" xlink:href="#m276ea3b069" y="132.302975"/>
     <use style="stroke:#000000;" x="334.008063" xlink:href="#m276ea3b069" y="118.347822"/>
     <use style="stroke:#000000;" x="330.434385" xlink:href="#m276ea3b069" y="105.049343"/>
     <use style="stroke:#000000;" x="326.740131" xlink:href="#m276ea3b069" y="91.664775"/>
     <use style="stroke:#000000;" x="322.886241" xlink:href="#m276ea3b069" y="65.456948"/>
     <use style="stroke:#000000;" x="318.919702" xlink:href="#m276ea3b069" y="74.578019"/>
     <use style="stroke:#000000;" x="315.008544" xlink:href="#m276ea3b069" y="106.943919"/>
     <use style="stroke:#000000;" x="310.915485" xlink:href="#m276ea3b069" y="93.22974"/>
     <use style="stroke:#000000;" x="306.698076" xlink:href="#m276ea3b069" y="124.057851"/>
     <use style="stroke:#000000;" x="302.328391" xlink:href="#m276ea3b069" y="112.625973"/>
     <use style="stroke:#000000;" x="297.922383" xlink:href="#m276ea3b069" y="121.151069"/>
     <use style="stroke:#000000;" x="293.458823" xlink:href="#m276ea3b069" y="159.84973"/>
     <use style="stroke:#000000;" x="289.037436" xlink:href="#m276ea3b069" y="127.045325"/>
     <use style="stroke:#000000;" x="284.485095" xlink:href="#m276ea3b069" y="113.274817"/>
     <use style="stroke:#000000;" x="279.667733" xlink:href="#m276ea3b069" y="110.593502"/>
     <use style="stroke:#000000;" x="274.636864" xlink:href="#m276ea3b069" y="130.508629"/>
     <use style="stroke:#000000;" x="269.382581" xlink:href="#m276ea3b069" y="159.527341"/>
     <use style="stroke:#000000;" x="263.953756" xlink:href="#m276ea3b069" y="156.423675"/>
     <use style="stroke:#000000;" x="258.459549" xlink:href="#m276ea3b069" y="173.887058"/>
     <use style="stroke:#000000;" x="253.037139" xlink:href="#m276ea3b069" y="170.119458"/>
     <use style="stroke:#000000;" x="247.462831" xlink:href="#m276ea3b069" y="177.372824"/>
     <use style="stroke:#000000;" x="241.731907" xlink:href="#m276ea3b069" y="184.575222"/>
     <use style="stroke:#000000;" x="235.799551" xlink:href="#m276ea3b069" y="181.552362"/>
     <use style="stroke:#000000;" x="229.477637" xlink:href="#m276ea3b069" y="148.027048"/>
     <use style="stroke:#000000;" x="223.093548" xlink:href="#m276ea3b069" y="155.304892"/>
     <use style="stroke:#000000;" x="216.59511" xlink:href="#m276ea3b069" y="162.035261"/>
     <use style="stroke:#000000;" x="209.929961" xlink:href="#m276ea3b069" y="186.648742"/>
     <use style="stroke:#000000;" x="203.098289" xlink:href="#m276ea3b069" y="173.522556"/>
     <use style="stroke:#000000;" x="195.797713" xlink:href="#m276ea3b069" y="178.648848"/>
     <use style="stroke:#000000;" x="188.242116" xlink:href="#m276ea3b069" y="153.349313"/>
     <use style="stroke:#000000;" x="180.34687" xlink:href="#m276ea3b069" y="150.007105"/>
     <use style="stroke:#000000;" x="172.199905" xlink:href="#m276ea3b069" y="166.957258"/>
     <use style="stroke:#000000;" x="163.930762" xlink:href="#m276ea3b069" y="182.477604"/>
     <use style="stroke:#000000;" x="155.53991" xlink:href="#m276ea3b069" y="159.608528"/>
     <use style="stroke:#000000;" x="146.970271" xlink:href="#m276ea3b069" y="165.655274"/>
     <use style="stroke:#000000;" x="138.451391" xlink:href="#m276ea3b069" y="196.632113"/>
     <use style="stroke:#000000;" x="129.858919" xlink:href="#m276ea3b069" y="211.373702"/>
     <use style="stroke:#000000;" x="121.377872" xlink:href="#m276ea3b069" y="201.620929"/>
     <use style="stroke:#000000;" x="112.772381" xlink:href="#m276ea3b069" y="183.977385"/>
     <use style="stroke:#000000;" x="103.982442" xlink:href="#m276ea3b069" y="172.184616"/>
     <use style="stroke:#000000;" x="94.836814" xlink:href="#m276ea3b069" y="168.72135"/>
     <use style="stroke:#000000;" x="85.506737" xlink:href="#m276ea3b069" y="195.040846"/>
     <use style="stroke:#000000;" x="75.888147" xlink:href="#m276ea3b069" y="183.90095"/>
     <use style="stroke:#000000;" x="66.053125" xlink:href="#m276ea3b069" y="104.361312"/>
    </g>
   </g>
   <g id="matplotlib.axis_1">
    <g id="xtick_1">
     <g id="line2d_1">
      <defs>
       <path d="M 0 0 
L 0 3.5 
" id="m9e8d46d7af" style="stroke:#000000;stroke-width:0.8;"/>
      </defs>
      <g>
       <use style="stroke:#000000;stroke-width:0.8;" x="71.779596" xlink:href="#m9e8d46d7af" y="288.430125"/>
      </g>
     </g>
     <g id="text_1">
      <!-- 0.55 -->
      <defs>
       <path d="M 31.78125 66.40625 
Q 24.171875 66.40625 20.328125 58.90625 
Q 16.5 51.421875 16.5 36.375 
Q 16.5 21.390625 20.328125 13.890625 
Q 24.171875 6.390625 31.78125 6.390625 
Q 39.453125 6.390625 43.28125 13.890625 
Q 47.125 21.390625 47.125 36.375 
Q 47.125 51.421875 43.28125 58.90625 
Q 39.453125 66.40625 31.78125 66.40625 
z
M 31.78125 74.21875 
Q 44.046875 74.21875 50.515625 64.515625 
Q 56.984375 54.828125 56.984375 36.375 
Q 56.984375 17.96875 50.515625 8.265625 
Q 44.046875 -1.421875 31.78125 -1.421875 
Q 19.53125 -1.421875 13.0625 8.265625 
Q 6.59375 17.96875 6.59375 36.375 
Q 6.59375 54.828125 13.0625 64.515625 
Q 19.53125 74.21875 31.78125 74.21875 
z
" id="DejaVuSans-30"/>
       <path d="M 10.6875 12.40625 
L 21 12.40625 
L 21 0 
L 10.6875 0 
z
" id="DejaVuSans-2e"/>
       <path d="M 10.796875 72.90625 
L 49.515625 72.90625 
L 49.515625 64.59375 
L 19.828125 64.59375 
L 19.828125 46.734375 
Q 21.96875 47.46875 24.109375 47.828125 
Q 26.265625 48.1875 28.421875 48.1875 
Q 40.625 48.1875 47.75 41.5 
Q 54.890625 34.8125 54.890625 23.390625 
Q 54.890625 11.625 47.5625 5.09375 
Q 40.234375 -1.421875 26.90625 -1.421875 
Q 22.3125 -1.421875 17.546875 -0.640625 
Q 12.796875 0.140625 7.71875 1.703125 
L 7.71875 11.625 
Q 12.109375 9.234375 16.796875 8.0625 
Q 21.484375 6.890625 26.703125 6.890625 
Q 35.15625 6.890625 40.078125 11.328125 
Q 45.015625 15.765625 45.015625 23.390625 
Q 45.015625 31 40.078125 35.4375 
Q 35.15625 39.890625 26.703125 39.890625 
Q 22.75 39.890625 18.8125 39.015625 
Q 14.890625 38.140625 10.796875 36.28125 
z
" id="DejaVuSans-35"/>
      </defs>
      <g transform="translate(60.646784 303.028562)scale(0.1 -0.1)">
       <use xlink:href="#DejaVuSans-30"/>
       <use x="63.623047" xlink:href="#DejaVuSans-2e"/>
       <use x="95.410156" xlink:href="#DejaVuSans-35"/>
       <use x="159.033203" xlink:href="#DejaVuSans-35"/>
      </g>
     </g>
    </g>
    <g id="xtick_2">
     <g id="line2d_2">
      <g>
       <use style="stroke:#000000;stroke-width:0.8;" x="150.923659" xlink:href="#m9e8d46d7af" y="288.430125"/>
      </g>
     </g>
     <g id="text_2">
      <!-- 0.60 -->
      <defs>
       <path d="M 33.015625 40.375 
Q 26.375 40.375 22.484375 35.828125 
Q 18.609375 31.296875 18.609375 23.390625 
Q 18.609375 15.53125 22.484375 10.953125 
Q 26.375 6.390625 33.015625 6.390625 
Q 39.65625 6.390625 43.53125 10.953125 
Q 47.40625 15.53125 47.40625 23.390625 
Q 47.40625 31.296875 43.53125 35.828125 
Q 39.65625 40.375 33.015625 40.375 
z
M 52.59375 71.296875 
L 52.59375 62.3125 
Q 48.875 64.0625 45.09375 64.984375 
Q 41.3125 65.921875 37.59375 65.921875 
Q 27.828125 65.921875 22.671875 59.328125 
Q 17.53125 52.734375 16.796875 39.40625 
Q 19.671875 43.65625 24.015625 45.921875 
Q 28.375 48.1875 33.59375 48.1875 
Q 44.578125 48.1875 50.953125 41.515625 
Q 57.328125 34.859375 57.328125 23.390625 
Q 57.328125 12.15625 50.6875 5.359375 
Q 44.046875 -1.421875 33.015625 -1.421875 
Q 20.359375 -1.421875 13.671875 8.265625 
Q 6.984375 17.96875 6.984375 36.375 
Q 6.984375 53.65625 15.1875 63.9375 
Q 23.390625 74.21875 37.203125 74.21875 
Q 40.921875 74.21875 44.703125 73.484375 
Q 48.484375 72.75 52.59375 71.296875 
z
" id="DejaVuSans-36"/>
      </defs>
      <g transform="translate(139.790846 303.028562)scale(0.1 -0.1)">
       <use xlink:href="#DejaVuSans-30"/>
       <use x="63.623047" xlink:href="#DejaVuSans-2e"/>
       <use x="95.410156" xlink:href="#DejaVuSans-36"/>
       <use x="159.033203" xlink:href="#DejaVuSans-30"/>
      </g>
     </g>
    </g>
    <g id="xtick_3">
     <g id="line2d_3">
      <g>
       <use style="stroke:#000000;stroke-width:0.8;" x="230.067721" xlink:href="#m9e8d46d7af" y="288.430125"/>
      </g>
     </g>
     <g id="text_3">
      <!-- 0.65 -->
      <g transform="translate(218.934909 303.028562)scale(0.1 -0.1)">
       <use xlink:href="#DejaVuSans-30"/>
       <use x="63.623047" xlink:href="#DejaVuSans-2e"/>
       <use x="95.410156" xlink:href="#DejaVuSans-36"/>
       <use x="159.033203" xlink:href="#DejaVuSans-35"/>
      </g>
     </g>
    </g>
    <g id="xtick_4">
     <g id="line2d_4">
      <g>
       <use style="stroke:#000000;stroke-width:0.8;" x="309.211784" xlink:href="#m9e8d46d7af" y="288.430125"/>
      </g>
     </g>
     <g id="text_4">
      <!-- 0.70 -->
      <defs>
       <path d="M 8.203125 72.90625 
L 55.078125 72.90625 
L 55.078125 68.703125 
L 28.609375 0 
L 18.3125 0 
L 43.21875 64.59375 
L 8.203125 64.59375 
z
" id="DejaVuSans-37"/>
      </defs>
      <g transform="translate(298.078972 303.028562)scale(0.1 -0.1)">
       <use xlink:href="#DejaVuSans-30"/>
       <use x="63.623047" xlink:href="#DejaVuSans-2e"/>
       <use x="95.410156" xlink:href="#DejaVuSans-37"/>
       <use x="159.033203" xlink:href="#DejaVuSans-30"/>
      </g>
     </g>
    </g>
    <g id="xtick_5">
     <g id="line2d_5">
      <g>
       <use style="stroke:#000000;stroke-width:0.8;" x="388.355847" xlink:href="#m9e8d46d7af" y="288.430125"/>
      </g>
     </g>
     <g id="text_5">
      <!-- 0.75 -->
      <g transform="translate(377.223034 303.028562)scale(0.1 -0.1)">
       <use xlink:href="#DejaVuSans-30"/>
       <use x="63.623047" xlink:href="#DejaVuSans-2e"/>
       <use x="95.410156" xlink:href="#DejaVuSans-37"/>
       <use x="159.033203" xlink:href="#DejaVuSans-35"/>
      </g>
     </g>
    </g>
    <g id="text_6">
     <!-- Correct Class Probability -->
     <defs>
      <path d="M 64.40625 67.28125 
L 64.40625 56.890625 
Q 59.421875 61.53125 53.78125 63.8125 
Q 48.140625 66.109375 41.796875 66.109375 
Q 29.296875 66.109375 22.65625 58.46875 
Q 16.015625 50.828125 16.015625 36.375 
Q 16.015625 21.96875 22.65625 14.328125 
Q 29.296875 6.6875 41.796875 6.6875 
Q 48.140625 6.6875 53.78125 8.984375 
Q 59.421875 11.28125 64.40625 15.921875 
L 64.40625 5.609375 
Q 59.234375 2.09375 53.4375 0.328125 
Q 47.65625 -1.421875 41.21875 -1.421875 
Q 24.65625 -1.421875 15.125 8.703125 
Q 5.609375 18.84375 5.609375 36.375 
Q 5.609375 53.953125 15.125 64.078125 
Q 24.65625 74.21875 41.21875 74.21875 
Q 47.75 74.21875 53.53125 72.484375 
Q 59.328125 70.75 64.40625 67.28125 
z
" id="DejaVuSans-43"/>
      <path d="M 30.609375 48.390625 
Q 23.390625 48.390625 19.1875 42.75 
Q 14.984375 37.109375 14.984375 27.296875 
Q 14.984375 17.484375 19.15625 11.84375 
Q 23.34375 6.203125 30.609375 6.203125 
Q 37.796875 6.203125 41.984375 11.859375 
Q 46.1875 17.53125 46.1875 27.296875 
Q 46.1875 37.015625 41.984375 42.703125 
Q 37.796875 48.390625 30.609375 48.390625 
z
M 30.609375 56 
Q 42.328125 56 49.015625 48.375 
Q 55.71875 40.765625 55.71875 27.296875 
Q 55.71875 13.875 49.015625 6.21875 
Q 42.328125 -1.421875 30.609375 -1.421875 
Q 18.84375 -1.421875 12.171875 6.21875 
Q 5.515625 13.875 5.515625 27.296875 
Q 5.515625 40.765625 12.171875 48.375 
Q 18.84375 56 30.609375 56 
z
" id="DejaVuSans-6f"/>
      <path d="M 41.109375 46.296875 
Q 39.59375 47.171875 37.8125 47.578125 
Q 36.03125 48 33.890625 48 
Q 26.265625 48 22.1875 43.046875 
Q 18.109375 38.09375 18.109375 28.8125 
L 18.109375 0 
L 9.078125 0 
L 9.078125 54.6875 
L 18.109375 54.6875 
L 18.109375 46.1875 
Q 20.953125 51.171875 25.484375 53.578125 
Q 30.03125 56 36.53125 56 
Q 37.453125 56 38.578125 55.875 
Q 39.703125 55.765625 41.0625 55.515625 
z
" id="DejaVuSans-72"/>
      <path d="M 56.203125 29.59375 
L 56.203125 25.203125 
L 14.890625 25.203125 
Q 15.484375 15.921875 20.484375 11.0625 
Q 25.484375 6.203125 34.421875 6.203125 
Q 39.59375 6.203125 44.453125 7.46875 
Q 49.3125 8.734375 54.109375 11.28125 
L 54.109375 2.78125 
Q 49.265625 0.734375 44.1875 -0.34375 
Q 39.109375 -1.421875 33.890625 -1.421875 
Q 20.796875 -1.421875 13.15625 6.1875 
Q 5.515625 13.8125 5.515625 26.8125 
Q 5.515625 40.234375 12.765625 48.109375 
Q 20.015625 56 32.328125 56 
Q 43.359375 56 49.78125 48.890625 
Q 56.203125 41.796875 56.203125 29.59375 
z
M 47.21875 32.234375 
Q 47.125 39.59375 43.09375 43.984375 
Q 39.0625 48.390625 32.421875 48.390625 
Q 24.90625 48.390625 20.390625 44.140625 
Q 15.875 39.890625 15.1875 32.171875 
z
" id="DejaVuSans-65"/>
      <path d="M 48.78125 52.59375 
L 48.78125 44.1875 
Q 44.96875 46.296875 41.140625 47.34375 
Q 37.3125 48.390625 33.40625 48.390625 
Q 24.65625 48.390625 19.8125 42.84375 
Q 14.984375 37.3125 14.984375 27.296875 
Q 14.984375 17.28125 19.8125 11.734375 
Q 24.65625 6.203125 33.40625 6.203125 
Q 37.3125 6.203125 41.140625 7.25 
Q 44.96875 8.296875 48.78125 10.40625 
L 48.78125 2.09375 
Q 45.015625 0.34375 40.984375 -0.53125 
Q 36.96875 -1.421875 32.421875 -1.421875 
Q 20.0625 -1.421875 12.78125 6.34375 
Q 5.515625 14.109375 5.515625 27.296875 
Q 5.515625 40.671875 12.859375 48.328125 
Q 20.21875 56 33.015625 56 
Q 37.15625 56 41.109375 55.140625 
Q 45.0625 54.296875 48.78125 52.59375 
z
" id="DejaVuSans-63"/>
      <path d="M 18.3125 70.21875 
L 18.3125 54.6875 
L 36.8125 54.6875 
L 36.8125 47.703125 
L 18.3125 47.703125 
L 18.3125 18.015625 
Q 18.3125 11.328125 20.140625 9.421875 
Q 21.96875 7.515625 27.59375 7.515625 
L 36.8125 7.515625 
L 36.8125 0 
L 27.59375 0 
Q 17.1875 0 13.234375 3.875 
Q 9.28125 7.765625 9.28125 18.015625 
L 9.28125 47.703125 
L 2.6875 47.703125 
L 2.6875 54.6875 
L 9.28125 54.6875 
L 9.28125 70.21875 
z
" id="DejaVuSans-74"/>
      <path id="DejaVuSans-20"/>
      <path d="M 9.421875 75.984375 
L 18.40625 75.984375 
L 18.40625 0 
L 9.421875 0 
z
" id="DejaVuSans-6c"/>
      <path d="M 34.28125 27.484375 
Q 23.390625 27.484375 19.1875 25 
Q 14.984375 22.515625 14.984375 16.5 
Q 14.984375 11.71875 18.140625 8.90625 
Q 21.296875 6.109375 26.703125 6.109375 
Q 34.1875 6.109375 38.703125 11.40625 
Q 43.21875 16.703125 43.21875 25.484375 
L 43.21875 27.484375 
z
M 52.203125 31.203125 
L 52.203125 0 
L 43.21875 0 
L 43.21875 8.296875 
Q 40.140625 3.328125 35.546875 0.953125 
Q 30.953125 -1.421875 24.3125 -1.421875 
Q 15.921875 -1.421875 10.953125 3.296875 
Q 6 8.015625 6 15.921875 
Q 6 25.140625 12.171875 29.828125 
Q 18.359375 34.515625 30.609375 34.515625 
L 43.21875 34.515625 
L 43.21875 35.40625 
Q 43.21875 41.609375 39.140625 45 
Q 35.0625 48.390625 27.6875 48.390625 
Q 23 48.390625 18.546875 47.265625 
Q 14.109375 46.140625 10.015625 43.890625 
L 10.015625 52.203125 
Q 14.9375 54.109375 19.578125 55.046875 
Q 24.21875 56 28.609375 56 
Q 40.484375 56 46.34375 49.84375 
Q 52.203125 43.703125 52.203125 31.203125 
z
" id="DejaVuSans-61"/>
      <path d="M 44.28125 53.078125 
L 44.28125 44.578125 
Q 40.484375 46.53125 36.375 47.5 
Q 32.28125 48.484375 27.875 48.484375 
Q 21.1875 48.484375 17.84375 46.4375 
Q 14.5 44.390625 14.5 40.28125 
Q 14.5 37.15625 16.890625 35.375 
Q 19.28125 33.59375 26.515625 31.984375 
L 29.59375 31.296875 
Q 39.15625 29.25 43.1875 25.515625 
Q 47.21875 21.78125 47.21875 15.09375 
Q 47.21875 7.46875 41.1875 3.015625 
Q 35.15625 -1.421875 24.609375 -1.421875 
Q 20.21875 -1.421875 15.453125 -0.5625 
Q 10.6875 0.296875 5.421875 2 
L 5.421875 11.28125 
Q 10.40625 8.6875 15.234375 7.390625 
Q 20.0625 6.109375 24.8125 6.109375 
Q 31.15625 6.109375 34.5625 8.28125 
Q 37.984375 10.453125 37.984375 14.40625 
Q 37.984375 18.0625 35.515625 20.015625 
Q 33.0625 21.96875 24.703125 23.78125 
L 21.578125 24.515625 
Q 13.234375 26.265625 9.515625 29.90625 
Q 5.8125 33.546875 5.8125 39.890625 
Q 5.8125 47.609375 11.28125 51.796875 
Q 16.75 56 26.8125 56 
Q 31.78125 56 36.171875 55.265625 
Q 40.578125 54.546875 44.28125 53.078125 
z
" id="DejaVuSans-73"/>
      <path d="M 19.671875 64.796875 
L 19.671875 37.40625 
L 32.078125 37.40625 
Q 38.96875 37.40625 42.71875 40.96875 
Q 46.484375 44.53125 46.484375 51.125 
Q 46.484375 57.671875 42.71875 61.234375 
Q 38.96875 64.796875 32.078125 64.796875 
z
M 9.8125 72.90625 
L 32.078125 72.90625 
Q 44.34375 72.90625 50.609375 67.359375 
Q 56.890625 61.8125 56.890625 51.125 
Q 56.890625 40.328125 50.609375 34.8125 
Q 44.34375 29.296875 32.078125 29.296875 
L 19.671875 29.296875 
L 19.671875 0 
L 9.8125 0 
z
" id="DejaVuSans-50"/>
      <path d="M 48.6875 27.296875 
Q 48.6875 37.203125 44.609375 42.84375 
Q 40.53125 48.484375 33.40625 48.484375 
Q 26.265625 48.484375 22.1875 42.84375 
Q 18.109375 37.203125 18.109375 27.296875 
Q 18.109375 17.390625 22.1875 11.75 
Q 26.265625 6.109375 33.40625 6.109375 
Q 40.53125 6.109375 44.609375 11.75 
Q 48.6875 17.390625 48.6875 27.296875 
z
M 18.109375 46.390625 
Q 20.953125 51.265625 25.265625 53.625 
Q 29.59375 56 35.59375 56 
Q 45.5625 56 51.78125 48.09375 
Q 58.015625 40.1875 58.015625 27.296875 
Q 58.015625 14.40625 51.78125 6.484375 
Q 45.5625 -1.421875 35.59375 -1.421875 
Q 29.59375 -1.421875 25.265625 0.953125 
Q 20.953125 3.328125 18.109375 8.203125 
L 18.109375 0 
L 9.078125 0 
L 9.078125 75.984375 
L 18.109375 75.984375 
z
" id="DejaVuSans-62"/>
      <path d="M 9.421875 54.6875 
L 18.40625 54.6875 
L 18.40625 0 
L 9.421875 0 
z
M 9.421875 75.984375 
L 18.40625 75.984375 
L 18.40625 64.59375 
L 9.421875 64.59375 
z
" id="DejaVuSans-69"/>
      <path d="M 32.171875 -5.078125 
Q 28.375 -14.84375 24.75 -17.8125 
Q 21.140625 -20.796875 15.09375 -20.796875 
L 7.90625 -20.796875 
L 7.90625 -13.28125 
L 13.1875 -13.28125 
Q 16.890625 -13.28125 18.9375 -11.515625 
Q 21 -9.765625 23.484375 -3.21875 
L 25.09375 0.875 
L 2.984375 54.6875 
L 12.5 54.6875 
L 29.59375 11.921875 
L 46.6875 54.6875 
L 56.203125 54.6875 
z
" id="DejaVuSans-79"/>
     </defs>
     <g transform="translate(183.209219 316.706687)scale(0.1 -0.1)">
      <use xlink:href="#DejaVuSans-43"/>
      <use x="69.824219" xlink:href="#DejaVuSans-6f"/>
      <use x="131.005859" xlink:href="#DejaVuSans-72"/>
      <use x="172.103516" xlink:href="#DejaVuSans-72"/>
      <use x="213.185547" xlink:href="#DejaVuSans-65"/>
      <use x="274.708984" xlink:href="#DejaVuSans-63"/>
      <use x="329.689453" xlink:href="#DejaVuSans-74"/>
      <use x="368.898438" xlink:href="#DejaVuSans-20"/>
      <use x="400.685547" xlink:href="#DejaVuSans-43"/>
      <use x="470.509766" xlink:href="#DejaVuSans-6c"/>
      <use x="498.292969" xlink:href="#DejaVuSans-61"/>
      <use x="559.572266" xlink:href="#DejaVuSans-73"/>
      <use x="611.671875" xlink:href="#DejaVuSans-73"/>
      <use x="663.771484" xlink:href="#DejaVuSans-20"/>
      <use x="695.558594" xlink:href="#DejaVuSans-50"/>
      <use x="755.845703" xlink:href="#DejaVuSans-72"/>
      <use x="796.927734" xlink:href="#DejaVuSans-6f"/>
      <use x="858.109375" xlink:href="#DejaVuSans-62"/>
      <use x="921.585938" xlink:href="#DejaVuSans-61"/>
      <use x="982.865234" xlink:href="#DejaVuSans-62"/>
      <use x="1046.341797" xlink:href="#DejaVuSans-69"/>
      <use x="1074.125" xlink:href="#DejaVuSans-6c"/>
      <use x="1101.908203" xlink:href="#DejaVuSans-69"/>
      <use x="1129.691406" xlink:href="#DejaVuSans-74"/>
      <use x="1168.900391" xlink:href="#DejaVuSans-79"/>
     </g>
    </g>
   </g>
   <g id="matplotlib.axis_2">
    <g id="ytick_1">
     <g id="line2d_6">
      <defs>
       <path d="M 0 0 
L -3.5 0 
" id="m31ffbca2b1" style="stroke:#000000;stroke-width:0.8;"/>
      </defs>
      <g>
       <use style="stroke:#000000;stroke-width:0.8;" x="66.053125" xlink:href="#m31ffbca2b1" y="262.876616"/>
      </g>
     </g>
     <g id="text_7">
      <!-- 100000 -->
      <defs>
       <path d="M 12.40625 8.296875 
L 28.515625 8.296875 
L 28.515625 63.921875 
L 10.984375 60.40625 
L 10.984375 69.390625 
L 28.421875 72.90625 
L 38.28125 72.90625 
L 38.28125 8.296875 
L 54.390625 8.296875 
L 54.390625 0 
L 12.40625 0 
z
" id="DejaVuSans-31"/>
      </defs>
      <g transform="translate(20.878125 266.675835)scale(0.1 -0.1)">
       <use xlink:href="#DejaVuSans-31"/>
       <use x="63.623047" xlink:href="#DejaVuSans-30"/>
       <use x="127.246094" xlink:href="#DejaVuSans-30"/>
       <use x="190.869141" xlink:href="#DejaVuSans-30"/>
       <use x="254.492188" xlink:href="#DejaVuSans-30"/>
       <use x="318.115234" xlink:href="#DejaVuSans-30"/>
      </g>
     </g>
    </g>
    <g id="ytick_2">
     <g id="line2d_7">
      <g>
       <use style="stroke:#000000;stroke-width:0.8;" x="66.053125" xlink:href="#m31ffbca2b1" y="214.225637"/>
      </g>
     </g>
     <g id="text_8">
      <!-- 110000 -->
      <g transform="translate(20.878125 218.024856)scale(0.1 -0.1)">
       <use xlink:href="#DejaVuSans-31"/>
       <use x="63.623047" xlink:href="#DejaVuSans-31"/>
       <use x="127.246094" xlink:href="#DejaVuSans-30"/>
       <use x="190.869141" xlink:href="#DejaVuSans-30"/>
       <use x="254.492188" xlink:href="#DejaVuSans-30"/>
       <use x="318.115234" xlink:href="#DejaVuSans-30"/>
      </g>
     </g>
    </g>
    <g id="ytick_3">
     <g id="line2d_8">
      <g>
       <use style="stroke:#000000;stroke-width:0.8;" x="66.053125" xlink:href="#m31ffbca2b1" y="165.574658"/>
      </g>
     </g>
     <g id="text_9">
      <!-- 120000 -->
      <defs>
       <path d="M 19.1875 8.296875 
L 53.609375 8.296875 
L 53.609375 0 
L 7.328125 0 
L 7.328125 8.296875 
Q 12.9375 14.109375 22.625 23.890625 
Q 32.328125 33.6875 34.8125 36.53125 
Q 39.546875 41.84375 41.421875 45.53125 
Q 43.3125 49.21875 43.3125 52.78125 
Q 43.3125 58.59375 39.234375 62.25 
Q 35.15625 65.921875 28.609375 65.921875 
Q 23.96875 65.921875 18.8125 64.3125 
Q 13.671875 62.703125 7.8125 59.421875 
L 7.8125 69.390625 
Q 13.765625 71.78125 18.9375 73 
Q 24.125 74.21875 28.421875 74.21875 
Q 39.75 74.21875 46.484375 68.546875 
Q 53.21875 62.890625 53.21875 53.421875 
Q 53.21875 48.921875 51.53125 44.890625 
Q 49.859375 40.875 45.40625 35.40625 
Q 44.1875 33.984375 37.640625 27.21875 
Q 31.109375 20.453125 19.1875 8.296875 
z
" id="DejaVuSans-32"/>
      </defs>
      <g transform="translate(20.878125 169.373877)scale(0.1 -0.1)">
       <use xlink:href="#DejaVuSans-31"/>
       <use x="63.623047" xlink:href="#DejaVuSans-32"/>
       <use x="127.246094" xlink:href="#DejaVuSans-30"/>
       <use x="190.869141" xlink:href="#DejaVuSans-30"/>
       <use x="254.492188" xlink:href="#DejaVuSans-30"/>
       <use x="318.115234" xlink:href="#DejaVuSans-30"/>
      </g>
     </g>
    </g>
    <g id="ytick_4">
     <g id="line2d_9">
      <g>
       <use style="stroke:#000000;stroke-width:0.8;" x="66.053125" xlink:href="#m31ffbca2b1" y="116.923679"/>
      </g>
     </g>
     <g id="text_10">
      <!-- 130000 -->
      <defs>
       <path d="M 40.578125 39.3125 
Q 47.65625 37.796875 51.625 33 
Q 55.609375 28.21875 55.609375 21.1875 
Q 55.609375 10.40625 48.1875 4.484375 
Q 40.765625 -1.421875 27.09375 -1.421875 
Q 22.515625 -1.421875 17.65625 -0.515625 
Q 12.796875 0.390625 7.625 2.203125 
L 7.625 11.71875 
Q 11.71875 9.328125 16.59375 8.109375 
Q 21.484375 6.890625 26.8125 6.890625 
Q 36.078125 6.890625 40.9375 10.546875 
Q 45.796875 14.203125 45.796875 21.1875 
Q 45.796875 27.640625 41.28125 31.265625 
Q 36.765625 34.90625 28.71875 34.90625 
L 20.21875 34.90625 
L 20.21875 43.015625 
L 29.109375 43.015625 
Q 36.375 43.015625 40.234375 45.921875 
Q 44.09375 48.828125 44.09375 54.296875 
Q 44.09375 59.90625 40.109375 62.90625 
Q 36.140625 65.921875 28.71875 65.921875 
Q 24.65625 65.921875 20.015625 65.03125 
Q 15.375 64.15625 9.8125 62.3125 
L 9.8125 71.09375 
Q 15.4375 72.65625 20.34375 73.4375 
Q 25.25 74.21875 29.59375 74.21875 
Q 40.828125 74.21875 47.359375 69.109375 
Q 53.90625 64.015625 53.90625 55.328125 
Q 53.90625 49.265625 50.4375 45.09375 
Q 46.96875 40.921875 40.578125 39.3125 
z
" id="DejaVuSans-33"/>
      </defs>
      <g transform="translate(20.878125 120.722898)scale(0.1 -0.1)">
       <use xlink:href="#DejaVuSans-31"/>
       <use x="63.623047" xlink:href="#DejaVuSans-33"/>
       <use x="127.246094" xlink:href="#DejaVuSans-30"/>
       <use x="190.869141" xlink:href="#DejaVuSans-30"/>
       <use x="254.492188" xlink:href="#DejaVuSans-30"/>
       <use x="318.115234" xlink:href="#DejaVuSans-30"/>
      </g>
     </g>
    </g>
    <g id="ytick_5">
     <g id="line2d_10">
      <g>
       <use style="stroke:#000000;stroke-width:0.8;" x="66.053125" xlink:href="#m31ffbca2b1" y="68.2727"/>
      </g>
     </g>
     <g id="text_11">
      <!-- 140000 -->
      <defs>
       <path d="M 37.796875 64.3125 
L 12.890625 25.390625 
L 37.796875 25.390625 
z
M 35.203125 72.90625 
L 47.609375 72.90625 
L 47.609375 25.390625 
L 58.015625 25.390625 
L 58.015625 17.1875 
L 47.609375 17.1875 
L 47.609375 0 
L 37.796875 0 
L 37.796875 17.1875 
L 4.890625 17.1875 
L 4.890625 26.703125 
z
" id="DejaVuSans-34"/>
      </defs>
      <g transform="translate(20.878125 72.071918)scale(0.1 -0.1)">
       <use xlink:href="#DejaVuSans-31"/>
       <use x="63.623047" xlink:href="#DejaVuSans-34"/>
       <use x="127.246094" xlink:href="#DejaVuSans-30"/>
       <use x="190.869141" xlink:href="#DejaVuSans-30"/>
       <use x="254.492188" xlink:href="#DejaVuSans-30"/>
       <use x="318.115234" xlink:href="#DejaVuSans-30"/>
      </g>
     </g>
    </g>
    <g id="text_12">
     <!-- Persistence Distance -->
     <defs>
      <path d="M 54.890625 33.015625 
L 54.890625 0 
L 45.90625 0 
L 45.90625 32.71875 
Q 45.90625 40.484375 42.875 44.328125 
Q 39.84375 48.1875 33.796875 48.1875 
Q 26.515625 48.1875 22.3125 43.546875 
Q 18.109375 38.921875 18.109375 30.90625 
L 18.109375 0 
L 9.078125 0 
L 9.078125 54.6875 
L 18.109375 54.6875 
L 18.109375 46.1875 
Q 21.34375 51.125 25.703125 53.5625 
Q 30.078125 56 35.796875 56 
Q 45.21875 56 50.046875 50.171875 
Q 54.890625 44.34375 54.890625 33.015625 
z
" id="DejaVuSans-6e"/>
      <path d="M 19.671875 64.796875 
L 19.671875 8.109375 
L 31.59375 8.109375 
Q 46.6875 8.109375 53.6875 14.9375 
Q 60.6875 21.78125 60.6875 36.53125 
Q 60.6875 51.171875 53.6875 57.984375 
Q 46.6875 64.796875 31.59375 64.796875 
z
M 9.8125 72.90625 
L 30.078125 72.90625 
Q 51.265625 72.90625 61.171875 64.09375 
Q 71.09375 55.28125 71.09375 36.53125 
Q 71.09375 17.671875 61.125 8.828125 
Q 51.171875 0 30.078125 0 
L 9.8125 0 
z
" id="DejaVuSans-44"/>
     </defs>
     <g transform="translate(14.798438 207.599906)rotate(-90)scale(0.1 -0.1)">
      <use xlink:href="#DejaVuSans-50"/>
      <use x="60.255859" xlink:href="#DejaVuSans-65"/>
      <use x="121.779297" xlink:href="#DejaVuSans-72"/>
      <use x="162.892578" xlink:href="#DejaVuSans-73"/>
      <use x="214.992188" xlink:href="#DejaVuSans-69"/>
      <use x="242.775391" xlink:href="#DejaVuSans-73"/>
      <use x="294.875" xlink:href="#DejaVuSans-74"/>
      <use x="334.083984" xlink:href="#DejaVuSans-65"/>
      <use x="395.607422" xlink:href="#DejaVuSans-6e"/>
      <use x="458.986328" xlink:href="#DejaVuSans-63"/>
      <use x="513.966797" xlink:href="#DejaVuSans-65"/>
      <use x="575.490234" xlink:href="#DejaVuSans-20"/>
      <use x="607.277344" xlink:href="#DejaVuSans-44"/>
      <use x="684.279297" xlink:href="#DejaVuSans-69"/>
      <use x="712.0625" xlink:href="#DejaVuSans-73"/>
      <use x="764.162109" xlink:href="#DejaVuSans-74"/>
      <use x="803.371094" xlink:href="#DejaVuSans-61"/>
      <use x="864.650391" xlink:href="#DejaVuSans-6e"/>
      <use x="928.029297" xlink:href="#DejaVuSans-63"/>
      <use x="983.009766" xlink:href="#DejaVuSans-65"/>
     </g>
    </g>
   </g>
   <g id="line2d_11">
    <path clip-path="url(#p4876e39dc6)" d="M 423.173125 145.624888 
L 422.753469 145.523211 
L 422.283809 145.409419 
L 421.819622 145.296953 
L 421.363359 145.186407 
L 420.818788 145.054465 
L 420.244592 144.915345 
L 419.647752 144.770739 
L 419.050441 144.626019 
L 418.450771 144.480728 
L 417.829684 144.330247 
L 417.200955 144.177915 
L 416.590813 144.030086 
L 415.981897 143.882554 
L 415.383831 143.737651 
L 414.718495 143.57645 
L 413.984569 143.39863 
L 413.223849 143.214318 
L 412.439541 143.024291 
L 411.585512 142.817372 
L 410.64289 142.588988 
L 409.757348 142.374434 
L 408.832275 142.150302 
L 407.771059 141.893184 
L 406.571153 141.602464 
L 405.260672 141.284953 
L 403.910849 140.957909 
L 402.447809 140.603435 
L 400.880987 140.223816 
L 399.236895 139.825476 
L 397.557517 139.418586 
L 395.803699 138.993661 
L 394.095357 138.579754 
L 392.341256 138.15476 
L 390.537434 137.717719 
L 388.655493 137.261751 
L 386.765627 136.803863 
L 384.977278 136.370572 
L 383.045427 135.902511 
L 381.028853 135.413924 
L 378.992371 134.920513 
L 377.002874 134.438486 
L 374.990168 133.950836 
L 372.934346 133.452739 
L 370.813895 132.938983 
L 368.620986 132.407672 
L 366.375054 131.863515 
L 364.161577 131.32722 
L 361.83328 130.763107 
L 359.231754 130.132794 
L 356.464743 129.462386 
L 353.584421 128.764524 
L 350.615318 128.045153 
L 347.523565 127.296064 
L 344.279818 126.51015 
L 340.899834 125.691228 
L 337.46711 124.859527 
L 334.008063 124.021449 
L 330.434385 123.155597 
L 326.740131 122.260531 
L 322.886241 121.326788 
L 318.919702 120.365751 
L 315.008544 119.418133 
L 310.915485 118.426442 
L 306.698076 117.404623 
L 302.328391 116.34591 
L 297.922383 115.278396 
L 293.458823 114.196939 
L 289.037436 113.125699 
L 284.485095 112.022731 
L 279.667733 110.855552 
L 274.636864 109.636643 
L 269.382581 108.363604 
L 263.953756 107.048276 
L 258.459549 105.717107 
L 253.037139 104.403334 
L 247.462831 103.052757 
L 241.731907 101.664235 
L 235.799551 100.226909 
L 229.477637 98.695198 
L 223.093548 97.148423 
L 216.59511 95.573943 
L 209.929961 93.959071 
L 203.098289 92.303854 
L 195.797713 90.535027 
L 188.242116 88.704412 
L 180.34687 86.791505 
L 172.199905 84.81761 
L 163.930762 82.814113 
L 155.53991 80.781128 
L 146.970271 78.704825 
L 138.451391 76.64082 
L 129.858919 74.558986 
L 121.377872 72.504147 
L 112.772381 70.419158 
L 103.982442 68.289479 
L 94.836814 66.073622 
L 85.506737 63.813076 
L 75.888147 61.482627 
L 66.053125 59.09974 
" style="fill:none;stroke:#c0c0c0;stroke-linecap:square;stroke-width:3;"/>
   </g>
   <g id="patch_3">
    <path d="M 66.053125 288.430125 
L 66.053125 22.318125 
" style="fill:none;stroke:#000000;stroke-linecap:square;stroke-linejoin:miter;stroke-width:0.8;"/>
   </g>
   <g id="patch_4">
    <path d="M 423.173125 288.430125 
L 423.173125 22.318125 
" style="fill:none;stroke:#000000;stroke-linecap:square;stroke-linejoin:miter;stroke-width:0.8;"/>
   </g>
   <g id="patch_5">
    <path d="M 66.053125 288.430125 
L 423.173125 288.430125 
" style="fill:none;stroke:#000000;stroke-linecap:square;stroke-linejoin:miter;stroke-width:0.8;"/>
   </g>
   <g id="patch_6">
    <path d="M 66.053125 22.318125 
L 423.173125 22.318125 
" style="fill:none;stroke:#000000;stroke-linecap:square;stroke-linejoin:miter;stroke-width:0.8;"/>
   </g>
   <g id="text_13">
    <!-- Correct Class Probability vs Persistence Distance -->
    <defs>
     <path d="M 2.984375 54.6875 
L 12.5 54.6875 
L 29.59375 8.796875 
L 46.6875 54.6875 
L 56.203125 54.6875 
L 35.6875 0 
L 23.484375 0 
z
" id="DejaVuSans-76"/>
    </defs>
    <g transform="translate(97.766875 16.318125)scale(0.12 -0.12)">
     <use xlink:href="#DejaVuSans-43"/>
     <use x="69.824219" xlink:href="#DejaVuSans-6f"/>
     <use x="131.005859" xlink:href="#DejaVuSans-72"/>
     <use x="172.103516" xlink:href="#DejaVuSans-72"/>
     <use x="213.185547" xlink:href="#DejaVuSans-65"/>
     <use x="274.708984" xlink:href="#DejaVuSans-63"/>
     <use x="329.689453" xlink:href="#DejaVuSans-74"/>
     <use x="368.898438" xlink:href="#DejaVuSans-20"/>
     <use x="400.685547" xlink:href="#DejaVuSans-43"/>
     <use x="470.509766" xlink:href="#DejaVuSans-6c"/>
     <use x="498.292969" xlink:href="#DejaVuSans-61"/>
     <use x="559.572266" xlink:href="#DejaVuSans-73"/>
     <use x="611.671875" xlink:href="#DejaVuSans-73"/>
     <use x="663.771484" xlink:href="#DejaVuSans-20"/>
     <use x="695.558594" xlink:href="#DejaVuSans-50"/>
     <use x="755.845703" xlink:href="#DejaVuSans-72"/>
     <use x="796.927734" xlink:href="#DejaVuSans-6f"/>
     <use x="858.109375" xlink:href="#DejaVuSans-62"/>
     <use x="921.585938" xlink:href="#DejaVuSans-61"/>
     <use x="982.865234" xlink:href="#DejaVuSans-62"/>
     <use x="1046.341797" xlink:href="#DejaVuSans-69"/>
     <use x="1074.125" xlink:href="#DejaVuSans-6c"/>
     <use x="1101.908203" xlink:href="#DejaVuSans-69"/>
     <use x="1129.691406" xlink:href="#DejaVuSans-74"/>
     <use x="1168.900391" xlink:href="#DejaVuSans-79"/>
     <use x="1228.080078" xlink:href="#DejaVuSans-20"/>
     <use x="1259.867188" xlink:href="#DejaVuSans-76"/>
     <use x="1319.046875" xlink:href="#DejaVuSans-73"/>
     <use x="1371.146484" xlink:href="#DejaVuSans-20"/>
     <use x="1402.933594" xlink:href="#DejaVuSans-50"/>
     <use x="1463.189453" xlink:href="#DejaVuSans-65"/>
     <use x="1524.712891" xlink:href="#DejaVuSans-72"/>
     <use x="1565.826172" xlink:href="#DejaVuSans-73"/>
     <use x="1617.925781" xlink:href="#DejaVuSans-69"/>
     <use x="1645.708984" xlink:href="#DejaVuSans-73"/>
     <use x="1697.808594" xlink:href="#DejaVuSans-74"/>
     <use x="1737.017578" xlink:href="#DejaVuSans-65"/>
     <use x="1798.541016" xlink:href="#DejaVuSans-6e"/>
     <use x="1861.919922" xlink:href="#DejaVuSans-63"/>
     <use x="1916.900391" xlink:href="#DejaVuSans-65"/>
     <use x="1978.423828" xlink:href="#DejaVuSans-20"/>
     <use x="2010.210938" xlink:href="#DejaVuSans-44"/>
     <use x="2087.212891" xlink:href="#DejaVuSans-69"/>
     <use x="2114.996094" xlink:href="#DejaVuSans-73"/>
     <use x="2167.095703" xlink:href="#DejaVuSans-74"/>
     <use x="2206.304688" xlink:href="#DejaVuSans-61"/>
     <use x="2267.583984" xlink:href="#DejaVuSans-6e"/>
     <use x="2330.962891" xlink:href="#DejaVuSans-63"/>
     <use x="2385.943359" xlink:href="#DejaVuSans-65"/>
    </g>
   </g>
  </g>
 </g>
 <defs>
  <clipPath id="p4876e39dc6">
   <rect height="266.112" width="357.12" x="66.053125" y="22.318125"/>
  </clipPath>
 </defs>
</svg>
