<?xml version="1.0" encoding="utf-8" standalone="no"?>
<!DOCTYPE svg PUBLIC "-//W3C//DTD SVG 1.1//EN"
  "http://www.w3.org/Graphics/SVG/1.1/DTD/svg11.dtd">
<!-- Created with matplotlib (http://matplotlib.org/) -->
<svg height="325pt" version="1.1" viewBox="0 0 439 325" width="439pt" xmlns="http://www.w3.org/2000/svg" xmlns:xlink="http://www.w3.org/1999/xlink">
 <defs>
  <style type="text/css">
*{stroke-linecap:butt;stroke-linejoin:round;}
  </style>
 </defs>
 <g id="figure_1">
  <g id="patch_1">
   <path d="M 0 325.986375 
L 439.330836 325.986375 
L 439.330836 0 
L 0 0 
z
" style="fill:#ffffff;"/>
  </g>
  <g id="axes_1">
   <g id="patch_2">
    <path d="M 66.053125 288.430125 
L 423.173125 288.430125 
L 423.173125 22.318125 
L 66.053125 22.318125 
z
" style="fill:#ffffff;"/>
   </g>
   <g id="PathCollection_1">
    <defs>
     <path d="M 0 3 
C 0.795609 3 1.55874 2.683901 2.12132 2.12132 
C 2.683901 1.55874 3 0.795609 3 0 
C 3 -0.795609 2.683901 -1.55874 2.12132 -2.12132 
C 1.55874 -2.683901 0.795609 -3 0 -3 
C -0.795609 -3 -1.55874 -2.683901 -2.12132 -2.12132 
C -2.683901 -1.55874 -3 -0.795609 -3 0 
C -3 0.795609 -2.683901 1.55874 -2.12132 2.12132 
C -1.55874 2.683901 -0.795609 3 0 3 
z
" id="mbd5dcb82de" style="stroke:#000000;"/>
    </defs>
    <g clip-path="url(#padcb8e8d49)">
     <use style="stroke:#000000;" x="66.053125" xlink:href="#mbd5dcb82de" y="285.865078"/>
     <use style="stroke:#000000;" x="66.053125" xlink:href="#mbd5dcb82de" y="285.326687"/>
     <use style="stroke:#000000;" x="66.053125" xlink:href="#mbd5dcb82de" y="276.10725"/>
     <use style="stroke:#000000;" x="66.053125" xlink:href="#mbd5dcb82de" y="265.017183"/>
     <use style="stroke:#000000;" x="66.053125" xlink:href="#mbd5dcb82de" y="254.413702"/>
     <use style="stroke:#000000;" x="66.053125" xlink:href="#mbd5dcb82de" y="262.969471"/>
     <use style="stroke:#000000;" x="66.053125" xlink:href="#mbd5dcb82de" y="260.240303"/>
     <use style="stroke:#000000;" x="66.053125" xlink:href="#mbd5dcb82de" y="276.127015"/>
     <use style="stroke:#000000;" x="66.053125" xlink:href="#mbd5dcb82de" y="288.430125"/>
     <use style="stroke:#000000;" x="66.053125" xlink:href="#mbd5dcb82de" y="270.375481"/>
     <use style="stroke:#000000;" x="66.053125" xlink:href="#mbd5dcb82de" y="230.341122"/>
     <use style="stroke:#000000;" x="66.053125" xlink:href="#mbd5dcb82de" y="228.624845"/>
     <use style="stroke:#000000;" x="66.053125" xlink:href="#mbd5dcb82de" y="203.82383"/>
     <use style="stroke:#000000;" x="66.053125" xlink:href="#mbd5dcb82de" y="187.575809"/>
     <use style="stroke:#000000;" x="66.053125" xlink:href="#mbd5dcb82de" y="195.396758"/>
     <use style="stroke:#000000;" x="66.053125" xlink:href="#mbd5dcb82de" y="213.675957"/>
     <use style="stroke:#000000;" x="66.053125" xlink:href="#mbd5dcb82de" y="187.33932"/>
     <use style="stroke:#000000;" x="66.053125" xlink:href="#mbd5dcb82de" y="147.001082"/>
     <use style="stroke:#000000;" x="66.053125" xlink:href="#mbd5dcb82de" y="155.47939"/>
     <use style="stroke:#000000;" x="66.053125" xlink:href="#mbd5dcb82de" y="151.573476"/>
     <use style="stroke:#000000;" x="66.053125" xlink:href="#mbd5dcb82de" y="134.929824"/>
     <use style="stroke:#000000;" x="66.053125" xlink:href="#mbd5dcb82de" y="154.167372"/>
     <use style="stroke:#000000;" x="66.060114" xlink:href="#mbd5dcb82de" y="160.99508"/>
     <use style="stroke:#000000;" x="66.060114" xlink:href="#mbd5dcb82de" y="133.560147"/>
     <use style="stroke:#000000;" x="66.060114" xlink:href="#mbd5dcb82de" y="105.193396"/>
     <use style="stroke:#000000;" x="66.060114" xlink:href="#mbd5dcb82de" y="63.663552"/>
     <use style="stroke:#000000;" x="66.067103" xlink:href="#mbd5dcb82de" y="33.546391"/>
     <use style="stroke:#000000;" x="66.067103" xlink:href="#mbd5dcb82de" y="30.650061"/>
     <use style="stroke:#000000;" x="66.067103" xlink:href="#mbd5dcb82de" y="52.794847"/>
     <use style="stroke:#000000;" x="66.067103" xlink:href="#mbd5dcb82de" y="49.140854"/>
     <use style="stroke:#000000;" x="66.067103" xlink:href="#mbd5dcb82de" y="46.214118"/>
     <use style="stroke:#000000;" x="66.074092" xlink:href="#mbd5dcb82de" y="30.496051"/>
     <use style="stroke:#000000;" x="66.074092" xlink:href="#mbd5dcb82de" y="65.504003"/>
     <use style="stroke:#000000;" x="66.081081" xlink:href="#mbd5dcb82de" y="37.57454"/>
     <use style="stroke:#000000;" x="66.081081" xlink:href="#mbd5dcb82de" y="35.201664"/>
     <use style="stroke:#000000;" x="66.08807" xlink:href="#mbd5dcb82de" y="57.846871"/>
     <use style="stroke:#000000;" x="66.095058" xlink:href="#mbd5dcb82de" y="79.284317"/>
     <use style="stroke:#000000;" x="66.095058" xlink:href="#mbd5dcb82de" y="89.288934"/>
     <use style="stroke:#000000;" x="66.109036" xlink:href="#mbd5dcb82de" y="86.493023"/>
     <use style="stroke:#000000;" x="66.109036" xlink:href="#mbd5dcb82de" y="96.114971"/>
     <use style="stroke:#000000;" x="66.123014" xlink:href="#mbd5dcb82de" y="105.5842"/>
     <use style="stroke:#000000;" x="66.136992" xlink:href="#mbd5dcb82de" y="114.288734"/>
     <use style="stroke:#000000;" x="66.143981" xlink:href="#mbd5dcb82de" y="90.418929"/>
     <use style="stroke:#000000;" x="66.157959" xlink:href="#mbd5dcb82de" y="88.049703"/>
     <use style="stroke:#000000;" x="66.171936" xlink:href="#mbd5dcb82de" y="74.722527"/>
     <use style="stroke:#000000;" x="66.192903" xlink:href="#mbd5dcb82de" y="61.60934"/>
     <use style="stroke:#000000;" x="66.21387" xlink:href="#mbd5dcb82de" y="22.318125"/>
     <use style="stroke:#000000;" x="66.234837" xlink:href="#mbd5dcb82de" y="23.582138"/>
     <use style="stroke:#000000;" x="66.262792" xlink:href="#mbd5dcb82de" y="45.741975"/>
     <use style="stroke:#000000;" x="66.297737" xlink:href="#mbd5dcb82de" y="43.341809"/>
     <use style="stroke:#000000;" x="66.33967" xlink:href="#mbd5dcb82de" y="63.944359"/>
     <use style="stroke:#000000;" x="66.381603" xlink:href="#mbd5dcb82de" y="72.872194"/>
     <use style="stroke:#000000;" x="66.437514" xlink:href="#mbd5dcb82de" y="69.317784"/>
     <use style="stroke:#000000;" x="66.500414" xlink:href="#mbd5dcb82de" y="76.961765"/>
     <use style="stroke:#000000;" x="66.563314" xlink:href="#mbd5dcb82de" y="95.482052"/>
     <use style="stroke:#000000;" x="66.64718" xlink:href="#mbd5dcb82de" y="124.272295"/>
     <use style="stroke:#000000;" x="66.738035" xlink:href="#mbd5dcb82de" y="132.302975"/>
     <use style="stroke:#000000;" x="66.842867" xlink:href="#mbd5dcb82de" y="118.347822"/>
     <use style="stroke:#000000;" x="66.975655" xlink:href="#mbd5dcb82de" y="105.049343"/>
     <use style="stroke:#000000;" x="67.115431" xlink:href="#mbd5dcb82de" y="91.664775"/>
     <use style="stroke:#000000;" x="67.29015" xlink:href="#mbd5dcb82de" y="65.456948"/>
     <use style="stroke:#000000;" x="67.485835" xlink:href="#mbd5dcb82de" y="74.578019"/>
     <use style="stroke:#000000;" x="67.709475" xlink:href="#mbd5dcb82de" y="106.943919"/>
     <use style="stroke:#000000;" x="67.961068" xlink:href="#mbd5dcb82de" y="93.22974"/>
     <use style="stroke:#000000;" x="68.268569" xlink:href="#mbd5dcb82de" y="124.057851"/>
     <use style="stroke:#000000;" x="68.604024" xlink:href="#mbd5dcb82de" y="112.625973"/>
     <use style="stroke:#000000;" x="69.009362" xlink:href="#mbd5dcb82de" y="121.151069"/>
     <use style="stroke:#000000;" x="69.463617" xlink:href="#mbd5dcb82de" y="159.84973"/>
     <use style="stroke:#000000;" x="69.973776" xlink:href="#mbd5dcb82de" y="127.045325"/>
     <use style="stroke:#000000;" x="70.574779" xlink:href="#mbd5dcb82de" y="113.274817"/>
     <use style="stroke:#000000;" x="71.294578" xlink:href="#mbd5dcb82de" y="110.593502"/>
     <use style="stroke:#000000;" x="72.126178" xlink:href="#mbd5dcb82de" y="130.508629"/>
     <use style="stroke:#000000;" x="73.104517" xlink:href="#mbd5dcb82de" y="159.527341"/>
     <use style="stroke:#000000;" x="74.25055" xlink:href="#mbd5dcb82de" y="156.423675"/>
     <use style="stroke:#000000;" x="75.578243" xlink:href="#mbd5dcb82de" y="173.887058"/>
     <use style="stroke:#000000;" x="77.010721" xlink:href="#mbd5dcb82de" y="170.119458"/>
     <use style="stroke:#000000;" x="78.701698" xlink:href="#mbd5dcb82de" y="177.372824"/>
     <use style="stroke:#000000;" x="80.672114" xlink:href="#mbd5dcb82de" y="184.575222"/>
     <use style="stroke:#000000;" x="82.977836" xlink:href="#mbd5dcb82de" y="181.552362"/>
     <use style="stroke:#000000;" x="85.66773" xlink:href="#mbd5dcb82de" y="148.027048"/>
     <use style="stroke:#000000;" x="88.706813" xlink:href="#mbd5dcb82de" y="155.304892"/>
     <use style="stroke:#000000;" x="92.19283" xlink:href="#mbd5dcb82de" y="162.035261"/>
     <use style="stroke:#000000;" x="96.181587" xlink:href="#mbd5dcb82de" y="186.648742"/>
     <use style="stroke:#000000;" x="100.770765" xlink:href="#mbd5dcb82de" y="173.522556"/>
     <use style="stroke:#000000;" x="106.162769" xlink:href="#mbd5dcb82de" y="178.648848"/>
     <use style="stroke:#000000;" x="112.490051" xlink:href="#mbd5dcb82de" y="153.349313"/>
     <use style="stroke:#000000;" x="119.954814" xlink:href="#mbd5dcb82de" y="150.007105"/>
     <use style="stroke:#000000;" x="128.514724" xlink:href="#mbd5dcb82de" y="166.957258"/>
     <use style="stroke:#000000;" x="138.413622" xlink:href="#mbd5dcb82de" y="182.477604"/>
     <use style="stroke:#000000;" x="149.978824" xlink:href="#mbd5dcb82de" y="159.608528"/>
     <use style="stroke:#000000;" x="163.418679" xlink:href="#mbd5dcb82de" y="165.655274"/>
     <use style="stroke:#000000;" x="178.606337" xlink:href="#mbd5dcb82de" y="196.632113"/>
     <use style="stroke:#000000;" x="196.202912" xlink:href="#mbd5dcb82de" y="211.373702"/>
     <use style="stroke:#000000;" x="215.962242" xlink:href="#mbd5dcb82de" y="201.620929"/>
     <use style="stroke:#000000;" x="238.795016" xlink:href="#mbd5dcb82de" y="183.977385"/>
     <use style="stroke:#000000;" x="265.066788" xlink:href="#mbd5dcb82de" y="172.184616"/>
     <use style="stroke:#000000;" x="295.942507" xlink:href="#mbd5dcb82de" y="168.72135"/>
     <use style="stroke:#000000;" x="331.853167" xlink:href="#mbd5dcb82de" y="195.040846"/>
     <use style="stroke:#000000;" x="373.964497" xlink:href="#mbd5dcb82de" y="183.90095"/>
     <use style="stroke:#000000;" x="423.173125" xlink:href="#mbd5dcb82de" y="104.361312"/>
    </g>
   </g>
   <g id="matplotlib.axis_1">
    <g id="xtick_1">
     <g id="line2d_1">
      <defs>
       <path d="M 0 0 
L 0 3.5 
" id="m958fd34c6a" style="stroke:#000000;stroke-width:0.8;"/>
      </defs>
      <g>
       <use style="stroke:#000000;stroke-width:0.8;" x="66.053125" xlink:href="#m958fd34c6a" y="288.430125"/>
      </g>
     </g>
     <g id="text_1">
      <!-- 0.000 -->
      <defs>
       <path d="M 31.78125 66.40625 
Q 24.171875 66.40625 20.328125 58.90625 
Q 16.5 51.421875 16.5 36.375 
Q 16.5 21.390625 20.328125 13.890625 
Q 24.171875 6.390625 31.78125 6.390625 
Q 39.453125 6.390625 43.28125 13.890625 
Q 47.125 21.390625 47.125 36.375 
Q 47.125 51.421875 43.28125 58.90625 
Q 39.453125 66.40625 31.78125 66.40625 
z
M 31.78125 74.21875 
Q 44.046875 74.21875 50.515625 64.515625 
Q 56.984375 54.828125 56.984375 36.375 
Q 56.984375 17.96875 50.515625 8.265625 
Q 44.046875 -1.421875 31.78125 -1.421875 
Q 19.53125 -1.421875 13.0625 8.265625 
Q 6.59375 17.96875 6.59375 36.375 
Q 6.59375 54.828125 13.0625 64.515625 
Q 19.53125 74.21875 31.78125 74.21875 
z
" id="DejaVuSans-30"/>
       <path d="M 10.6875 12.40625 
L 21 12.40625 
L 21 0 
L 10.6875 0 
z
" id="DejaVuSans-2e"/>
      </defs>
      <g transform="translate(51.739063 303.028562)scale(0.1 -0.1)">
       <use xlink:href="#DejaVuSans-30"/>
       <use x="63.623047" xlink:href="#DejaVuSans-2e"/>
       <use x="95.410156" xlink:href="#DejaVuSans-30"/>
       <use x="159.033203" xlink:href="#DejaVuSans-30"/>
       <use x="222.65625" xlink:href="#DejaVuSans-30"/>
      </g>
     </g>
    </g>
    <g id="xtick_2">
     <g id="line2d_2">
      <g>
       <use style="stroke:#000000;stroke-width:0.8;" x="124.6804" xlink:href="#m958fd34c6a" y="288.430125"/>
      </g>
     </g>
     <g id="text_2">
      <!-- 0.001 -->
      <defs>
       <path d="M 12.40625 8.296875 
L 28.515625 8.296875 
L 28.515625 63.921875 
L 10.984375 60.40625 
L 10.984375 69.390625 
L 28.421875 72.90625 
L 38.28125 72.90625 
L 38.28125 8.296875 
L 54.390625 8.296875 
L 54.390625 0 
L 12.40625 0 
z
" id="DejaVuSans-31"/>
      </defs>
      <g transform="translate(110.366337 303.028562)scale(0.1 -0.1)">
       <use xlink:href="#DejaVuSans-30"/>
       <use x="63.623047" xlink:href="#DejaVuSans-2e"/>
       <use x="95.410156" xlink:href="#DejaVuSans-30"/>
       <use x="159.033203" xlink:href="#DejaVuSans-30"/>
       <use x="222.65625" xlink:href="#DejaVuSans-31"/>
      </g>
     </g>
    </g>
    <g id="xtick_3">
     <g id="line2d_3">
      <g>
       <use style="stroke:#000000;stroke-width:0.8;" x="183.307674" xlink:href="#m958fd34c6a" y="288.430125"/>
      </g>
     </g>
     <g id="text_3">
      <!-- 0.002 -->
      <defs>
       <path d="M 19.1875 8.296875 
L 53.609375 8.296875 
L 53.609375 0 
L 7.328125 0 
L 7.328125 8.296875 
Q 12.9375 14.109375 22.625 23.890625 
Q 32.328125 33.6875 34.8125 36.53125 
Q 39.546875 41.84375 41.421875 45.53125 
Q 43.3125 49.21875 43.3125 52.78125 
Q 43.3125 58.59375 39.234375 62.25 
Q 35.15625 65.921875 28.609375 65.921875 
Q 23.96875 65.921875 18.8125 64.3125 
Q 13.671875 62.703125 7.8125 59.421875 
L 7.8125 69.390625 
Q 13.765625 71.78125 18.9375 73 
Q 24.125 74.21875 28.421875 74.21875 
Q 39.75 74.21875 46.484375 68.546875 
Q 53.21875 62.890625 53.21875 53.421875 
Q 53.21875 48.921875 51.53125 44.890625 
Q 49.859375 40.875 45.40625 35.40625 
Q 44.1875 33.984375 37.640625 27.21875 
Q 31.109375 20.453125 19.1875 8.296875 
z
" id="DejaVuSans-32"/>
      </defs>
      <g transform="translate(168.993612 303.028562)scale(0.1 -0.1)">
       <use xlink:href="#DejaVuSans-30"/>
       <use x="63.623047" xlink:href="#DejaVuSans-2e"/>
       <use x="95.410156" xlink:href="#DejaVuSans-30"/>
       <use x="159.033203" xlink:href="#DejaVuSans-30"/>
       <use x="222.65625" xlink:href="#DejaVuSans-32"/>
      </g>
     </g>
    </g>
    <g id="xtick_4">
     <g id="line2d_4">
      <g>
       <use style="stroke:#000000;stroke-width:0.8;" x="241.934949" xlink:href="#m958fd34c6a" y="288.430125"/>
      </g>
     </g>
     <g id="text_4">
      <!-- 0.003 -->
      <defs>
       <path d="M 40.578125 39.3125 
Q 47.65625 37.796875 51.625 33 
Q 55.609375 28.21875 55.609375 21.1875 
Q 55.609375 10.40625 48.1875 4.484375 
Q 40.765625 -1.421875 27.09375 -1.421875 
Q 22.515625 -1.421875 17.65625 -0.515625 
Q 12.796875 0.390625 7.625 2.203125 
L 7.625 11.71875 
Q 11.71875 9.328125 16.59375 8.109375 
Q 21.484375 6.890625 26.8125 6.890625 
Q 36.078125 6.890625 40.9375 10.546875 
Q 45.796875 14.203125 45.796875 21.1875 
Q 45.796875 27.640625 41.28125 31.265625 
Q 36.765625 34.90625 28.71875 34.90625 
L 20.21875 34.90625 
L 20.21875 43.015625 
L 29.109375 43.015625 
Q 36.375 43.015625 40.234375 45.921875 
Q 44.09375 48.828125 44.09375 54.296875 
Q 44.09375 59.90625 40.109375 62.90625 
Q 36.140625 65.921875 28.71875 65.921875 
Q 24.65625 65.921875 20.015625 65.03125 
Q 15.375 64.15625 9.8125 62.3125 
L 9.8125 71.09375 
Q 15.4375 72.65625 20.34375 73.4375 
Q 25.25 74.21875 29.59375 74.21875 
Q 40.828125 74.21875 47.359375 69.109375 
Q 53.90625 64.015625 53.90625 55.328125 
Q 53.90625 49.265625 50.4375 45.09375 
Q 46.96875 40.921875 40.578125 39.3125 
z
" id="DejaVuSans-33"/>
      </defs>
      <g transform="translate(227.620887 303.028562)scale(0.1 -0.1)">
       <use xlink:href="#DejaVuSans-30"/>
       <use x="63.623047" xlink:href="#DejaVuSans-2e"/>
       <use x="95.410156" xlink:href="#DejaVuSans-30"/>
       <use x="159.033203" xlink:href="#DejaVuSans-30"/>
       <use x="222.65625" xlink:href="#DejaVuSans-33"/>
      </g>
     </g>
    </g>
    <g id="xtick_5">
     <g id="line2d_5">
      <g>
       <use style="stroke:#000000;stroke-width:0.8;" x="300.562224" xlink:href="#m958fd34c6a" y="288.430125"/>
      </g>
     </g>
     <g id="text_5">
      <!-- 0.004 -->
      <defs>
       <path d="M 37.796875 64.3125 
L 12.890625 25.390625 
L 37.796875 25.390625 
z
M 35.203125 72.90625 
L 47.609375 72.90625 
L 47.609375 25.390625 
L 58.015625 25.390625 
L 58.015625 17.1875 
L 47.609375 17.1875 
L 47.609375 0 
L 37.796875 0 
L 37.796875 17.1875 
L 4.890625 17.1875 
L 4.890625 26.703125 
z
" id="DejaVuSans-34"/>
      </defs>
      <g transform="translate(286.248161 303.028562)scale(0.1 -0.1)">
       <use xlink:href="#DejaVuSans-30"/>
       <use x="63.623047" xlink:href="#DejaVuSans-2e"/>
       <use x="95.410156" xlink:href="#DejaVuSans-30"/>
       <use x="159.033203" xlink:href="#DejaVuSans-30"/>
       <use x="222.65625" xlink:href="#DejaVuSans-34"/>
      </g>
     </g>
    </g>
    <g id="xtick_6">
     <g id="line2d_6">
      <g>
       <use style="stroke:#000000;stroke-width:0.8;" x="359.189499" xlink:href="#m958fd34c6a" y="288.430125"/>
      </g>
     </g>
     <g id="text_6">
      <!-- 0.005 -->
      <defs>
       <path d="M 10.796875 72.90625 
L 49.515625 72.90625 
L 49.515625 64.59375 
L 19.828125 64.59375 
L 19.828125 46.734375 
Q 21.96875 47.46875 24.109375 47.828125 
Q 26.265625 48.1875 28.421875 48.1875 
Q 40.625 48.1875 47.75 41.5 
Q 54.890625 34.8125 54.890625 23.390625 
Q 54.890625 11.625 47.5625 5.09375 
Q 40.234375 -1.421875 26.90625 -1.421875 
Q 22.3125 -1.421875 17.546875 -0.640625 
Q 12.796875 0.140625 7.71875 1.703125 
L 7.71875 11.625 
Q 12.109375 9.234375 16.796875 8.0625 
Q 21.484375 6.890625 26.703125 6.890625 
Q 35.15625 6.890625 40.078125 11.328125 
Q 45.015625 15.765625 45.015625 23.390625 
Q 45.015625 31 40.078125 35.4375 
Q 35.15625 39.890625 26.703125 39.890625 
Q 22.75 39.890625 18.8125 39.015625 
Q 14.890625 38.140625 10.796875 36.28125 
z
" id="DejaVuSans-35"/>
      </defs>
      <g transform="translate(344.875436 303.028562)scale(0.1 -0.1)">
       <use xlink:href="#DejaVuSans-30"/>
       <use x="63.623047" xlink:href="#DejaVuSans-2e"/>
       <use x="95.410156" xlink:href="#DejaVuSans-30"/>
       <use x="159.033203" xlink:href="#DejaVuSans-30"/>
       <use x="222.65625" xlink:href="#DejaVuSans-35"/>
      </g>
     </g>
    </g>
    <g id="xtick_7">
     <g id="line2d_7">
      <g>
       <use style="stroke:#000000;stroke-width:0.8;" x="417.816773" xlink:href="#m958fd34c6a" y="288.430125"/>
      </g>
     </g>
     <g id="text_7">
      <!-- 0.006 -->
      <defs>
       <path d="M 33.015625 40.375 
Q 26.375 40.375 22.484375 35.828125 
Q 18.609375 31.296875 18.609375 23.390625 
Q 18.609375 15.53125 22.484375 10.953125 
Q 26.375 6.390625 33.015625 6.390625 
Q 39.65625 6.390625 43.53125 10.953125 
Q 47.40625 15.53125 47.40625 23.390625 
Q 47.40625 31.296875 43.53125 35.828125 
Q 39.65625 40.375 33.015625 40.375 
z
M 52.59375 71.296875 
L 52.59375 62.3125 
Q 48.875 64.0625 45.09375 64.984375 
Q 41.3125 65.921875 37.59375 65.921875 
Q 27.828125 65.921875 22.671875 59.328125 
Q 17.53125 52.734375 16.796875 39.40625 
Q 19.671875 43.65625 24.015625 45.921875 
Q 28.375 48.1875 33.59375 48.1875 
Q 44.578125 48.1875 50.953125 41.515625 
Q 57.328125 34.859375 57.328125 23.390625 
Q 57.328125 12.15625 50.6875 5.359375 
Q 44.046875 -1.421875 33.015625 -1.421875 
Q 20.359375 -1.421875 13.671875 8.265625 
Q 6.984375 17.96875 6.984375 36.375 
Q 6.984375 53.65625 15.1875 63.9375 
Q 23.390625 74.21875 37.203125 74.21875 
Q 40.921875 74.21875 44.703125 73.484375 
Q 48.484375 72.75 52.59375 71.296875 
z
" id="DejaVuSans-36"/>
      </defs>
      <g transform="translate(403.502711 303.028562)scale(0.1 -0.1)">
       <use xlink:href="#DejaVuSans-30"/>
       <use x="63.623047" xlink:href="#DejaVuSans-2e"/>
       <use x="95.410156" xlink:href="#DejaVuSans-30"/>
       <use x="159.033203" xlink:href="#DejaVuSans-30"/>
       <use x="222.65625" xlink:href="#DejaVuSans-36"/>
      </g>
     </g>
    </g>
    <g id="text_8">
     <!-- Cross-Entropy -->
     <defs>
      <path d="M 64.40625 67.28125 
L 64.40625 56.890625 
Q 59.421875 61.53125 53.78125 63.8125 
Q 48.140625 66.109375 41.796875 66.109375 
Q 29.296875 66.109375 22.65625 58.46875 
Q 16.015625 50.828125 16.015625 36.375 
Q 16.015625 21.96875 22.65625 14.328125 
Q 29.296875 6.6875 41.796875 6.6875 
Q 48.140625 6.6875 53.78125 8.984375 
Q 59.421875 11.28125 64.40625 15.921875 
L 64.40625 5.609375 
Q 59.234375 2.09375 53.4375 0.328125 
Q 47.65625 -1.421875 41.21875 -1.421875 
Q 24.65625 -1.421875 15.125 8.703125 
Q 5.609375 18.84375 5.609375 36.375 
Q 5.609375 53.953125 15.125 64.078125 
Q 24.65625 74.21875 41.21875 74.21875 
Q 47.75 74.21875 53.53125 72.484375 
Q 59.328125 70.75 64.40625 67.28125 
z
" id="DejaVuSans-43"/>
      <path d="M 41.109375 46.296875 
Q 39.59375 47.171875 37.8125 47.578125 
Q 36.03125 48 33.890625 48 
Q 26.265625 48 22.1875 43.046875 
Q 18.109375 38.09375 18.109375 28.8125 
L 18.109375 0 
L 9.078125 0 
L 9.078125 54.6875 
L 18.109375 54.6875 
L 18.109375 46.1875 
Q 20.953125 51.171875 25.484375 53.578125 
Q 30.03125 56 36.53125 56 
Q 37.453125 56 38.578125 55.875 
Q 39.703125 55.765625 41.0625 55.515625 
z
" id="DejaVuSans-72"/>
      <path d="M 30.609375 48.390625 
Q 23.390625 48.390625 19.1875 42.75 
Q 14.984375 37.109375 14.984375 27.296875 
Q 14.984375 17.484375 19.15625 11.84375 
Q 23.34375 6.203125 30.609375 6.203125 
Q 37.796875 6.203125 41.984375 11.859375 
Q 46.1875 17.53125 46.1875 27.296875 
Q 46.1875 37.015625 41.984375 42.703125 
Q 37.796875 48.390625 30.609375 48.390625 
z
M 30.609375 56 
Q 42.328125 56 49.015625 48.375 
Q 55.71875 40.765625 55.71875 27.296875 
Q 55.71875 13.875 49.015625 6.21875 
Q 42.328125 -1.421875 30.609375 -1.421875 
Q 18.84375 -1.421875 12.171875 6.21875 
Q 5.515625 13.875 5.515625 27.296875 
Q 5.515625 40.765625 12.171875 48.375 
Q 18.84375 56 30.609375 56 
z
" id="DejaVuSans-6f"/>
      <path d="M 44.28125 53.078125 
L 44.28125 44.578125 
Q 40.484375 46.53125 36.375 47.5 
Q 32.28125 48.484375 27.875 48.484375 
Q 21.1875 48.484375 17.84375 46.4375 
Q 14.5 44.390625 14.5 40.28125 
Q 14.5 37.15625 16.890625 35.375 
Q 19.28125 33.59375 26.515625 31.984375 
L 29.59375 31.296875 
Q 39.15625 29.25 43.1875 25.515625 
Q 47.21875 21.78125 47.21875 15.09375 
Q 47.21875 7.46875 41.1875 3.015625 
Q 35.15625 -1.421875 24.609375 -1.421875 
Q 20.21875 -1.421875 15.453125 -0.5625 
Q 10.6875 0.296875 5.421875 2 
L 5.421875 11.28125 
Q 10.40625 8.6875 15.234375 7.390625 
Q 20.0625 6.109375 24.8125 6.109375 
Q 31.15625 6.109375 34.5625 8.28125 
Q 37.984375 10.453125 37.984375 14.40625 
Q 37.984375 18.0625 35.515625 20.015625 
Q 33.0625 21.96875 24.703125 23.78125 
L 21.578125 24.515625 
Q 13.234375 26.265625 9.515625 29.90625 
Q 5.8125 33.546875 5.8125 39.890625 
Q 5.8125 47.609375 11.28125 51.796875 
Q 16.75 56 26.8125 56 
Q 31.78125 56 36.171875 55.265625 
Q 40.578125 54.546875 44.28125 53.078125 
z
" id="DejaVuSans-73"/>
      <path d="M 4.890625 31.390625 
L 31.203125 31.390625 
L 31.203125 23.390625 
L 4.890625 23.390625 
z
" id="DejaVuSans-2d"/>
      <path d="M 9.8125 72.90625 
L 55.90625 72.90625 
L 55.90625 64.59375 
L 19.671875 64.59375 
L 19.671875 43.015625 
L 54.390625 43.015625 
L 54.390625 34.71875 
L 19.671875 34.71875 
L 19.671875 8.296875 
L 56.78125 8.296875 
L 56.78125 0 
L 9.8125 0 
z
" id="DejaVuSans-45"/>
      <path d="M 54.890625 33.015625 
L 54.890625 0 
L 45.90625 0 
L 45.90625 32.71875 
Q 45.90625 40.484375 42.875 44.328125 
Q 39.84375 48.1875 33.796875 48.1875 
Q 26.515625 48.1875 22.3125 43.546875 
Q 18.109375 38.921875 18.109375 30.90625 
L 18.109375 0 
L 9.078125 0 
L 9.078125 54.6875 
L 18.109375 54.6875 
L 18.109375 46.1875 
Q 21.34375 51.125 25.703125 53.5625 
Q 30.078125 56 35.796875 56 
Q 45.21875 56 50.046875 50.171875 
Q 54.890625 44.34375 54.890625 33.015625 
z
" id="DejaVuSans-6e"/>
      <path d="M 18.3125 70.21875 
L 18.3125 54.6875 
L 36.8125 54.6875 
L 36.8125 47.703125 
L 18.3125 47.703125 
L 18.3125 18.015625 
Q 18.3125 11.328125 20.140625 9.421875 
Q 21.96875 7.515625 27.59375 7.515625 
L 36.8125 7.515625 
L 36.8125 0 
L 27.59375 0 
Q 17.1875 0 13.234375 3.875 
Q 9.28125 7.765625 9.28125 18.015625 
L 9.28125 47.703125 
L 2.6875 47.703125 
L 2.6875 54.6875 
L 9.28125 54.6875 
L 9.28125 70.21875 
z
" id="DejaVuSans-74"/>
      <path d="M 18.109375 8.203125 
L 18.109375 -20.796875 
L 9.078125 -20.796875 
L 9.078125 54.6875 
L 18.109375 54.6875 
L 18.109375 46.390625 
Q 20.953125 51.265625 25.265625 53.625 
Q 29.59375 56 35.59375 56 
Q 45.5625 56 51.78125 48.09375 
Q 58.015625 40.1875 58.015625 27.296875 
Q 58.015625 14.40625 51.78125 6.484375 
Q 45.5625 -1.421875 35.59375 -1.421875 
Q 29.59375 -1.421875 25.265625 0.953125 
Q 20.953125 3.328125 18.109375 8.203125 
z
M 48.6875 27.296875 
Q 48.6875 37.203125 44.609375 42.84375 
Q 40.53125 48.484375 33.40625 48.484375 
Q 26.265625 48.484375 22.1875 42.84375 
Q 18.109375 37.203125 18.109375 27.296875 
Q 18.109375 17.390625 22.1875 11.75 
Q 26.265625 6.109375 33.40625 6.109375 
Q 40.53125 6.109375 44.609375 11.75 
Q 48.6875 17.390625 48.6875 27.296875 
z
" id="DejaVuSans-70"/>
      <path d="M 32.171875 -5.078125 
Q 28.375 -14.84375 24.75 -17.8125 
Q 21.140625 -20.796875 15.09375 -20.796875 
L 7.90625 -20.796875 
L 7.90625 -13.28125 
L 13.1875 -13.28125 
Q 16.890625 -13.28125 18.9375 -11.515625 
Q 21 -9.765625 23.484375 -3.21875 
L 25.09375 0.875 
L 2.984375 54.6875 
L 12.5 54.6875 
L 29.59375 11.921875 
L 46.6875 54.6875 
L 56.203125 54.6875 
z
" id="DejaVuSans-79"/>
     </defs>
     <g transform="translate(209.46 316.706687)scale(0.1 -0.1)">
      <use xlink:href="#DejaVuSans-43"/>
      <use x="69.824219" xlink:href="#DejaVuSans-72"/>
      <use x="110.90625" xlink:href="#DejaVuSans-6f"/>
      <use x="172.087891" xlink:href="#DejaVuSans-73"/>
      <use x="224.1875" xlink:href="#DejaVuSans-73"/>
      <use x="276.287109" xlink:href="#DejaVuSans-2d"/>
      <use x="312.371094" xlink:href="#DejaVuSans-45"/>
      <use x="375.554688" xlink:href="#DejaVuSans-6e"/>
      <use x="438.933594" xlink:href="#DejaVuSans-74"/>
      <use x="478.142578" xlink:href="#DejaVuSans-72"/>
      <use x="519.224609" xlink:href="#DejaVuSans-6f"/>
      <use x="580.40625" xlink:href="#DejaVuSans-70"/>
      <use x="643.882812" xlink:href="#DejaVuSans-79"/>
     </g>
    </g>
   </g>
   <g id="matplotlib.axis_2">
    <g id="ytick_1">
     <g id="line2d_8">
      <defs>
       <path d="M 0 0 
L -3.5 0 
" id="mf993f08915" style="stroke:#000000;stroke-width:0.8;"/>
      </defs>
      <g>
       <use style="stroke:#000000;stroke-width:0.8;" x="66.053125" xlink:href="#mf993f08915" y="262.876616"/>
      </g>
     </g>
     <g id="text_9">
      <!-- 100000 -->
      <g transform="translate(20.878125 266.675835)scale(0.1 -0.1)">
       <use xlink:href="#DejaVuSans-31"/>
       <use x="63.623047" xlink:href="#DejaVuSans-30"/>
       <use x="127.246094" xlink:href="#DejaVuSans-30"/>
       <use x="190.869141" xlink:href="#DejaVuSans-30"/>
       <use x="254.492188" xlink:href="#DejaVuSans-30"/>
       <use x="318.115234" xlink:href="#DejaVuSans-30"/>
      </g>
     </g>
    </g>
    <g id="ytick_2">
     <g id="line2d_9">
      <g>
       <use style="stroke:#000000;stroke-width:0.8;" x="66.053125" xlink:href="#mf993f08915" y="214.225637"/>
      </g>
     </g>
     <g id="text_10">
      <!-- 110000 -->
      <g transform="translate(20.878125 218.024856)scale(0.1 -0.1)">
       <use xlink:href="#DejaVuSans-31"/>
       <use x="63.623047" xlink:href="#DejaVuSans-31"/>
       <use x="127.246094" xlink:href="#DejaVuSans-30"/>
       <use x="190.869141" xlink:href="#DejaVuSans-30"/>
       <use x="254.492188" xlink:href="#DejaVuSans-30"/>
       <use x="318.115234" xlink:href="#DejaVuSans-30"/>
      </g>
     </g>
    </g>
    <g id="ytick_3">
     <g id="line2d_10">
      <g>
       <use style="stroke:#000000;stroke-width:0.8;" x="66.053125" xlink:href="#mf993f08915" y="165.574658"/>
      </g>
     </g>
     <g id="text_11">
      <!-- 120000 -->
      <g transform="translate(20.878125 169.373877)scale(0.1 -0.1)">
       <use xlink:href="#DejaVuSans-31"/>
       <use x="63.623047" xlink:href="#DejaVuSans-32"/>
       <use x="127.246094" xlink:href="#DejaVuSans-30"/>
       <use x="190.869141" xlink:href="#DejaVuSans-30"/>
       <use x="254.492188" xlink:href="#DejaVuSans-30"/>
       <use x="318.115234" xlink:href="#DejaVuSans-30"/>
      </g>
     </g>
    </g>
    <g id="ytick_4">
     <g id="line2d_11">
      <g>
       <use style="stroke:#000000;stroke-width:0.8;" x="66.053125" xlink:href="#mf993f08915" y="116.923679"/>
      </g>
     </g>
     <g id="text_12">
      <!-- 130000 -->
      <g transform="translate(20.878125 120.722898)scale(0.1 -0.1)">
       <use xlink:href="#DejaVuSans-31"/>
       <use x="63.623047" xlink:href="#DejaVuSans-33"/>
       <use x="127.246094" xlink:href="#DejaVuSans-30"/>
       <use x="190.869141" xlink:href="#DejaVuSans-30"/>
       <use x="254.492188" xlink:href="#DejaVuSans-30"/>
       <use x="318.115234" xlink:href="#DejaVuSans-30"/>
      </g>
     </g>
    </g>
    <g id="ytick_5">
     <g id="line2d_12">
      <g>
       <use style="stroke:#000000;stroke-width:0.8;" x="66.053125" xlink:href="#mf993f08915" y="68.2727"/>
      </g>
     </g>
     <g id="text_13">
      <!-- 140000 -->
      <g transform="translate(20.878125 72.071918)scale(0.1 -0.1)">
       <use xlink:href="#DejaVuSans-31"/>
       <use x="63.623047" xlink:href="#DejaVuSans-34"/>
       <use x="127.246094" xlink:href="#DejaVuSans-30"/>
       <use x="190.869141" xlink:href="#DejaVuSans-30"/>
       <use x="254.492188" xlink:href="#DejaVuSans-30"/>
       <use x="318.115234" xlink:href="#DejaVuSans-30"/>
      </g>
     </g>
    </g>
    <g id="text_14">
     <!-- Persistence Distance -->
     <defs>
      <path d="M 19.671875 64.796875 
L 19.671875 37.40625 
L 32.078125 37.40625 
Q 38.96875 37.40625 42.71875 40.96875 
Q 46.484375 44.53125 46.484375 51.125 
Q 46.484375 57.671875 42.71875 61.234375 
Q 38.96875 64.796875 32.078125 64.796875 
z
M 9.8125 72.90625 
L 32.078125 72.90625 
Q 44.34375 72.90625 50.609375 67.359375 
Q 56.890625 61.8125 56.890625 51.125 
Q 56.890625 40.328125 50.609375 34.8125 
Q 44.34375 29.296875 32.078125 29.296875 
L 19.671875 29.296875 
L 19.671875 0 
L 9.8125 0 
z
" id="DejaVuSans-50"/>
      <path d="M 56.203125 29.59375 
L 56.203125 25.203125 
L 14.890625 25.203125 
Q 15.484375 15.921875 20.484375 11.0625 
Q 25.484375 6.203125 34.421875 6.203125 
Q 39.59375 6.203125 44.453125 7.46875 
Q 49.3125 8.734375 54.109375 11.28125 
L 54.109375 2.78125 
Q 49.265625 0.734375 44.1875 -0.34375 
Q 39.109375 -1.421875 33.890625 -1.421875 
Q 20.796875 -1.421875 13.15625 6.1875 
Q 5.515625 13.8125 5.515625 26.8125 
Q 5.515625 40.234375 12.765625 48.109375 
Q 20.015625 56 32.328125 56 
Q 43.359375 56 49.78125 48.890625 
Q 56.203125 41.796875 56.203125 29.59375 
z
M 47.21875 32.234375 
Q 47.125 39.59375 43.09375 43.984375 
Q 39.0625 48.390625 32.421875 48.390625 
Q 24.90625 48.390625 20.390625 44.140625 
Q 15.875 39.890625 15.1875 32.171875 
z
" id="DejaVuSans-65"/>
      <path d="M 9.421875 54.6875 
L 18.40625 54.6875 
L 18.40625 0 
L 9.421875 0 
z
M 9.421875 75.984375 
L 18.40625 75.984375 
L 18.40625 64.59375 
L 9.421875 64.59375 
z
" id="DejaVuSans-69"/>
      <path d="M 48.78125 52.59375 
L 48.78125 44.1875 
Q 44.96875 46.296875 41.140625 47.34375 
Q 37.3125 48.390625 33.40625 48.390625 
Q 24.65625 48.390625 19.8125 42.84375 
Q 14.984375 37.3125 14.984375 27.296875 
Q 14.984375 17.28125 19.8125 11.734375 
Q 24.65625 6.203125 33.40625 6.203125 
Q 37.3125 6.203125 41.140625 7.25 
Q 44.96875 8.296875 48.78125 10.40625 
L 48.78125 2.09375 
Q 45.015625 0.34375 40.984375 -0.53125 
Q 36.96875 -1.421875 32.421875 -1.421875 
Q 20.0625 -1.421875 12.78125 6.34375 
Q 5.515625 14.109375 5.515625 27.296875 
Q 5.515625 40.671875 12.859375 48.328125 
Q 20.21875 56 33.015625 56 
Q 37.15625 56 41.109375 55.140625 
Q 45.0625 54.296875 48.78125 52.59375 
z
" id="DejaVuSans-63"/>
      <path id="DejaVuSans-20"/>
      <path d="M 19.671875 64.796875 
L 19.671875 8.109375 
L 31.59375 8.109375 
Q 46.6875 8.109375 53.6875 14.9375 
Q 60.6875 21.78125 60.6875 36.53125 
Q 60.6875 51.171875 53.6875 57.984375 
Q 46.6875 64.796875 31.59375 64.796875 
z
M 9.8125 72.90625 
L 30.078125 72.90625 
Q 51.265625 72.90625 61.171875 64.09375 
Q 71.09375 55.28125 71.09375 36.53125 
Q 71.09375 17.671875 61.125 8.828125 
Q 51.171875 0 30.078125 0 
L 9.8125 0 
z
" id="DejaVuSans-44"/>
      <path d="M 34.28125 27.484375 
Q 23.390625 27.484375 19.1875 25 
Q 14.984375 22.515625 14.984375 16.5 
Q 14.984375 11.71875 18.140625 8.90625 
Q 21.296875 6.109375 26.703125 6.109375 
Q 34.1875 6.109375 38.703125 11.40625 
Q 43.21875 16.703125 43.21875 25.484375 
L 43.21875 27.484375 
z
M 52.203125 31.203125 
L 52.203125 0 
L 43.21875 0 
L 43.21875 8.296875 
Q 40.140625 3.328125 35.546875 0.953125 
Q 30.953125 -1.421875 24.3125 -1.421875 
Q 15.921875 -1.421875 10.953125 3.296875 
Q 6 8.015625 6 15.921875 
Q 6 25.140625 12.171875 29.828125 
Q 18.359375 34.515625 30.609375 34.515625 
L 43.21875 34.515625 
L 43.21875 35.40625 
Q 43.21875 41.609375 39.140625 45 
Q 35.0625 48.390625 27.6875 48.390625 
Q 23 48.390625 18.546875 47.265625 
Q 14.109375 46.140625 10.015625 43.890625 
L 10.015625 52.203125 
Q 14.9375 54.109375 19.578125 55.046875 
Q 24.21875 56 28.609375 56 
Q 40.484375 56 46.34375 49.84375 
Q 52.203125 43.703125 52.203125 31.203125 
z
" id="DejaVuSans-61"/>
     </defs>
     <g transform="translate(14.798438 207.599906)rotate(-90)scale(0.1 -0.1)">
      <use xlink:href="#DejaVuSans-50"/>
      <use x="60.255859" xlink:href="#DejaVuSans-65"/>
      <use x="121.779297" xlink:href="#DejaVuSans-72"/>
      <use x="162.892578" xlink:href="#DejaVuSans-73"/>
      <use x="214.992188" xlink:href="#DejaVuSans-69"/>
      <use x="242.775391" xlink:href="#DejaVuSans-73"/>
      <use x="294.875" xlink:href="#DejaVuSans-74"/>
      <use x="334.083984" xlink:href="#DejaVuSans-65"/>
      <use x="395.607422" xlink:href="#DejaVuSans-6e"/>
      <use x="458.986328" xlink:href="#DejaVuSans-63"/>
      <use x="513.966797" xlink:href="#DejaVuSans-65"/>
      <use x="575.490234" xlink:href="#DejaVuSans-20"/>
      <use x="607.277344" xlink:href="#DejaVuSans-44"/>
      <use x="684.279297" xlink:href="#DejaVuSans-69"/>
      <use x="712.0625" xlink:href="#DejaVuSans-73"/>
      <use x="764.162109" xlink:href="#DejaVuSans-74"/>
      <use x="803.371094" xlink:href="#DejaVuSans-61"/>
      <use x="864.650391" xlink:href="#DejaVuSans-6e"/>
      <use x="928.029297" xlink:href="#DejaVuSans-63"/>
      <use x="983.009766" xlink:href="#DejaVuSans-65"/>
     </g>
    </g>
   </g>
   <g id="line2d_13">
    <path clip-path="url(#padcb8e8d49)" d="M 66.053125 126.648849 
L 66.053125 126.648849 
L 66.053125 126.648849 
L 66.053125 126.648849 
L 66.053125 126.648849 
L 66.053125 126.648849 
L 66.053125 126.648849 
L 66.053125 126.648849 
L 66.053125 126.648849 
L 66.053125 126.648849 
L 66.053125 126.648849 
L 66.053125 126.648849 
L 66.053125 126.648849 
L 66.053125 126.648849 
L 66.053125 126.648849 
L 66.053125 126.648849 
L 66.053125 126.648849 
L 66.053125 126.648849 
L 66.053125 126.648849 
L 66.053125 126.648849 
L 66.053125 126.648849 
L 66.053125 126.648849 
L 66.060114 126.665638 
L 66.060114 126.665638 
L 66.060114 126.665638 
L 66.060114 126.665638 
L 66.067103 126.682427 
L 66.067103 126.682427 
L 66.067103 126.682427 
L 66.067103 126.682427 
L 66.067103 126.682427 
L 66.074092 126.699215 
L 66.074092 126.699215 
L 66.081081 126.716004 
L 66.081081 126.716004 
L 66.08807 126.732793 
L 66.095058 126.749582 
L 66.095058 126.749582 
L 66.109036 126.78316 
L 66.109036 126.78316 
L 66.123014 126.816737 
L 66.136992 126.850315 
L 66.143981 126.867104 
L 66.157959 126.900682 
L 66.171936 126.934259 
L 66.192903 126.984626 
L 66.21387 127.034992 
L 66.234837 127.085359 
L 66.262792 127.152514 
L 66.297737 127.236458 
L 66.33967 127.337191 
L 66.381603 127.437924 
L 66.437514 127.572234 
L 66.500414 127.723333 
L 66.563314 127.874432 
L 66.64718 128.075896 
L 66.738035 128.294149 
L 66.842867 128.545979 
L 66.975655 128.864964 
L 67.115431 129.200736 
L 67.29015 129.620449 
L 67.485835 130.090527 
L 67.709475 130.627757 
L 67.961068 131.232138 
L 68.268569 131.970823 
L 68.604024 132.776657 
L 69.009362 133.750366 
L 69.463617 134.841584 
L 69.973776 136.067096 
L 70.574779 137.510835 
L 71.294578 139.239946 
L 72.126178 141.237631 
L 73.104517 143.58781 
L 74.25055 146.340828 
L 75.578243 149.530234 
L 77.010721 152.971354 
L 78.701698 157.033445 
L 80.672114 161.766809 
L 82.977836 167.305647 
L 85.66773 173.767354 
L 88.706813 181.067885 
L 92.19283 189.442048 
L 96.181587 199.0239 
L 100.770765 210.048096 
L 106.162769 223.000848 
L 112.490051 238.200343 
L 119.954814 256.13231 
L 128.514724 276.695057 
L 138.413622 300.474341 
L 149.450116 326.986375 
" style="fill:none;stroke:#c0c0c0;stroke-linecap:square;stroke-width:3;"/>
   </g>
   <g id="patch_3">
    <path d="M 66.053125 288.430125 
L 66.053125 22.318125 
" style="fill:none;stroke:#000000;stroke-linecap:square;stroke-linejoin:miter;stroke-width:0.8;"/>
   </g>
   <g id="patch_4">
    <path d="M 423.173125 288.430125 
L 423.173125 22.318125 
" style="fill:none;stroke:#000000;stroke-linecap:square;stroke-linejoin:miter;stroke-width:0.8;"/>
   </g>
   <g id="patch_5">
    <path d="M 66.053125 288.430125 
L 423.173125 288.430125 
" style="fill:none;stroke:#000000;stroke-linecap:square;stroke-linejoin:miter;stroke-width:0.8;"/>
   </g>
   <g id="patch_6">
    <path d="M 66.053125 22.318125 
L 423.173125 22.318125 
" style="fill:none;stroke:#000000;stroke-linecap:square;stroke-linejoin:miter;stroke-width:0.8;"/>
   </g>
   <g id="text_15">
    <!-- Cross-Entropy vs Persistence Distance -->
    <defs>
     <path d="M 2.984375 54.6875 
L 12.5 54.6875 
L 29.59375 8.796875 
L 46.6875 54.6875 
L 56.203125 54.6875 
L 35.6875 0 
L 23.484375 0 
z
" id="DejaVuSans-76"/>
    </defs>
    <g transform="translate(129.267813 16.318125)scale(0.12 -0.12)">
     <use xlink:href="#DejaVuSans-43"/>
     <use x="69.824219" xlink:href="#DejaVuSans-72"/>
     <use x="110.90625" xlink:href="#DejaVuSans-6f"/>
     <use x="172.087891" xlink:href="#DejaVuSans-73"/>
     <use x="224.1875" xlink:href="#DejaVuSans-73"/>
     <use x="276.287109" xlink:href="#DejaVuSans-2d"/>
     <use x="312.371094" xlink:href="#DejaVuSans-45"/>
     <use x="375.554688" xlink:href="#DejaVuSans-6e"/>
     <use x="438.933594" xlink:href="#DejaVuSans-74"/>
     <use x="478.142578" xlink:href="#DejaVuSans-72"/>
     <use x="519.224609" xlink:href="#DejaVuSans-6f"/>
     <use x="580.40625" xlink:href="#DejaVuSans-70"/>
     <use x="643.882812" xlink:href="#DejaVuSans-79"/>
     <use x="703.0625" xlink:href="#DejaVuSans-20"/>
     <use x="734.849609" xlink:href="#DejaVuSans-76"/>
     <use x="794.029297" xlink:href="#DejaVuSans-73"/>
     <use x="846.128906" xlink:href="#DejaVuSans-20"/>
     <use x="877.916016" xlink:href="#DejaVuSans-50"/>
     <use x="938.171875" xlink:href="#DejaVuSans-65"/>
     <use x="999.695312" xlink:href="#DejaVuSans-72"/>
     <use x="1040.808594" xlink:href="#DejaVuSans-73"/>
     <use x="1092.908203" xlink:href="#DejaVuSans-69"/>
     <use x="1120.691406" xlink:href="#DejaVuSans-73"/>
     <use x="1172.791016" xlink:href="#DejaVuSans-74"/>
     <use x="1212" xlink:href="#DejaVuSans-65"/>
     <use x="1273.523438" xlink:href="#DejaVuSans-6e"/>
     <use x="1336.902344" xlink:href="#DejaVuSans-63"/>
     <use x="1391.882812" xlink:href="#DejaVuSans-65"/>
     <use x="1453.40625" xlink:href="#DejaVuSans-20"/>
     <use x="1485.193359" xlink:href="#DejaVuSans-44"/>
     <use x="1562.195312" xlink:href="#DejaVuSans-69"/>
     <use x="1589.978516" xlink:href="#DejaVuSans-73"/>
     <use x="1642.078125" xlink:href="#DejaVuSans-74"/>
     <use x="1681.287109" xlink:href="#DejaVuSans-61"/>
     <use x="1742.566406" xlink:href="#DejaVuSans-6e"/>
     <use x="1805.945312" xlink:href="#DejaVuSans-63"/>
     <use x="1860.925781" xlink:href="#DejaVuSans-65"/>
    </g>
   </g>
  </g>
 </g>
 <defs>
  <clipPath id="padcb8e8d49">
   <rect height="266.112" width="357.12" x="66.053125" y="22.318125"/>
  </clipPath>
 </defs>
</svg>
