<?xml version="1.0" encoding="utf-8" standalone="no"?>
<!DOCTYPE svg PUBLIC "-//W3C//DTD SVG 1.1//EN"
  "http://www.w3.org/Graphics/SVG/1.1/DTD/svg11.dtd">
<!-- Created with matplotlib (http://matplotlib.org/) -->
<svg height="325pt" version="1.1" viewBox="0 0 440 325" width="440pt" xmlns="http://www.w3.org/2000/svg" xmlns:xlink="http://www.w3.org/1999/xlink">
 <defs>
  <style type="text/css">
*{stroke-linecap:butt;stroke-linejoin:round;}
  </style>
 </defs>
 <g id="figure_1">
  <g id="patch_1">
   <path d="M 0 325.986375 
L 440.235625 325.986375 
L 440.235625 0 
L 0 0 
z
" style="fill:#ffffff;"/>
  </g>
  <g id="axes_1">
   <g id="patch_2">
    <path d="M 72.415625 288.430125 
L 429.535625 288.430125 
L 429.535625 22.318125 
L 72.415625 22.318125 
z
" style="fill:#ffffff;"/>
   </g>
   <g id="PathCollection_1">
    <defs>
     <path d="M 0 3 
C 0.795609 3 1.55874 2.683901 2.12132 2.12132 
C 2.683901 1.55874 3 0.795609 3 0 
C 3 -0.795609 2.683901 -1.55874 2.12132 -2.12132 
C 1.55874 -2.683901 0.795609 -3 0 -3 
C -0.795609 -3 -1.55874 -2.683901 -2.12132 -2.12132 
C -2.683901 -1.55874 -3 -0.795609 -3 0 
C -3 0.795609 -2.683901 1.55874 -2.12132 2.12132 
C -1.55874 2.683901 -0.795609 3 0 3 
z
" id="mfcf1bb7179" style="stroke:#000000;"/>
    </defs>
    <g clip-path="url(#p4bf79be113)">
     <use style="stroke:#000000;" x="72.415625" xlink:href="#mfcf1bb7179" y="45.854228"/>
     <use style="stroke:#000000;" x="76.022898" xlink:href="#mfcf1bb7179" y="46.411092"/>
     <use style="stroke:#000000;" x="79.63017" xlink:href="#mfcf1bb7179" y="52.069755"/>
     <use style="stroke:#000000;" x="83.237443" xlink:href="#mfcf1bb7179" y="53.703515"/>
     <use style="stroke:#000000;" x="86.844716" xlink:href="#mfcf1bb7179" y="57.024724"/>
     <use style="stroke:#000000;" x="90.451989" xlink:href="#mfcf1bb7179" y="55.077755"/>
     <use style="stroke:#000000;" x="94.059261" xlink:href="#mfcf1bb7179" y="58.056219"/>
     <use style="stroke:#000000;" x="97.666534" xlink:href="#mfcf1bb7179" y="56.000171"/>
     <use style="stroke:#000000;" x="101.273807" xlink:href="#mfcf1bb7179" y="56.872299"/>
     <use style="stroke:#000000;" x="104.88108" xlink:href="#mfcf1bb7179" y="57.33588"/>
     <use style="stroke:#000000;" x="108.488352" xlink:href="#mfcf1bb7179" y="57.79769"/>
     <use style="stroke:#000000;" x="112.095625" xlink:href="#mfcf1bb7179" y="53.217977"/>
     <use style="stroke:#000000;" x="115.702898" xlink:href="#mfcf1bb7179" y="51.168092"/>
     <use style="stroke:#000000;" x="119.31017" xlink:href="#mfcf1bb7179" y="51.600437"/>
     <use style="stroke:#000000;" x="122.917443" xlink:href="#mfcf1bb7179" y="54.570968"/>
     <use style="stroke:#000000;" x="126.524716" xlink:href="#mfcf1bb7179" y="47.359786"/>
     <use style="stroke:#000000;" x="130.131989" xlink:href="#mfcf1bb7179" y="45.319888"/>
     <use style="stroke:#000000;" x="133.739261" xlink:href="#mfcf1bb7179" y="45.592016"/>
     <use style="stroke:#000000;" x="137.346534" xlink:href="#mfcf1bb7179" y="43.47286"/>
     <use style="stroke:#000000;" x="140.953807" xlink:href="#mfcf1bb7179" y="44.21034"/>
     <use style="stroke:#000000;" x="144.56108" xlink:href="#mfcf1bb7179" y="41.995846"/>
     <use style="stroke:#000000;" x="148.168352" xlink:href="#mfcf1bb7179" y="44.912475"/>
     <use style="stroke:#000000;" x="151.775625" xlink:href="#mfcf1bb7179" y="40.245004"/>
     <use style="stroke:#000000;" x="155.382898" xlink:href="#mfcf1bb7179" y="40.646113"/>
     <use style="stroke:#000000;" x="158.99017" xlink:href="#mfcf1bb7179" y="35.961148"/>
     <use style="stroke:#000000;" x="162.597443" xlink:href="#mfcf1bb7179" y="28.762503"/>
     <use style="stroke:#000000;" x="166.204716" xlink:href="#mfcf1bb7179" y="29.129331"/>
     <use style="stroke:#000000;" x="169.811989" xlink:href="#mfcf1bb7179" y="29.489996"/>
     <use style="stroke:#000000;" x="173.419261" xlink:href="#mfcf1bb7179" y="24.675695"/>
     <use style="stroke:#000000;" x="177.026534" xlink:href="#mfcf1bb7179" y="25.04748"/>
     <use style="stroke:#000000;" x="180.633807" xlink:href="#mfcf1bb7179" y="25.476001"/>
     <use style="stroke:#000000;" x="184.24108" xlink:href="#mfcf1bb7179" y="25.924636"/>
     <use style="stroke:#000000;" x="187.848352" xlink:href="#mfcf1bb7179" y="28.252316"/>
     <use style="stroke:#000000;" x="191.455625" xlink:href="#mfcf1bb7179" y="28.591732"/>
     <use style="stroke:#000000;" x="195.062898" xlink:href="#mfcf1bb7179" y="31.489875"/>
     <use style="stroke:#000000;" x="198.67017" xlink:href="#mfcf1bb7179" y="29.354853"/>
     <use style="stroke:#000000;" x="202.277443" xlink:href="#mfcf1bb7179" y="24.509599"/>
     <use style="stroke:#000000;" x="205.884716" xlink:href="#mfcf1bb7179" y="22.337957"/>
     <use style="stroke:#000000;" x="209.491989" xlink:href="#mfcf1bb7179" y="22.67447"/>
     <use style="stroke:#000000;" x="213.099261" xlink:href="#mfcf1bb7179" y="22.990866"/>
     <use style="stroke:#000000;" x="216.706534" xlink:href="#mfcf1bb7179" y="28.354098"/>
     <use style="stroke:#000000;" x="220.313807" xlink:href="#mfcf1bb7179" y="26.131318"/>
     <use style="stroke:#000000;" x="223.92108" xlink:href="#mfcf1bb7179" y="26.198819"/>
     <use style="stroke:#000000;" x="227.528352" xlink:href="#mfcf1bb7179" y="29.507987"/>
     <use style="stroke:#000000;" x="231.135625" xlink:href="#mfcf1bb7179" y="24.678528"/>
     <use style="stroke:#000000;" x="234.742898" xlink:href="#mfcf1bb7179" y="22.318125"/>
     <use style="stroke:#000000;" x="238.35017" xlink:href="#mfcf1bb7179" y="27.653663"/>
     <use style="stroke:#000000;" x="241.957443" xlink:href="#mfcf1bb7179" y="27.885984"/>
     <use style="stroke:#000000;" x="245.564716" xlink:href="#mfcf1bb7179" y="35.719901"/>
     <use style="stroke:#000000;" x="249.171989" xlink:href="#mfcf1bb7179" y="35.909654"/>
     <use style="stroke:#000000;" x="252.779261" xlink:href="#mfcf1bb7179" y="36.032473"/>
     <use style="stroke:#000000;" x="256.386534" xlink:href="#mfcf1bb7179" y="36.10387"/>
     <use style="stroke:#000000;" x="259.993807" xlink:href="#mfcf1bb7179" y="33.643738"/>
     <use style="stroke:#000000;" x="263.60108" xlink:href="#mfcf1bb7179" y="35.792431"/>
     <use style="stroke:#000000;" x="267.208352" xlink:href="#mfcf1bb7179" y="43.450548"/>
     <use style="stroke:#000000;" x="270.815625" xlink:href="#mfcf1bb7179" y="45.889714"/>
     <use style="stroke:#000000;" x="274.422898" xlink:href="#mfcf1bb7179" y="50.889518"/>
     <use style="stroke:#000000;" x="278.03017" xlink:href="#mfcf1bb7179" y="60.806681"/>
     <use style="stroke:#000000;" x="281.637443" xlink:href="#mfcf1bb7179" y="72.836484"/>
     <use style="stroke:#000000;" x="285.244716" xlink:href="#mfcf1bb7179" y="72.713949"/>
     <use style="stroke:#000000;" x="288.851989" xlink:href="#mfcf1bb7179" y="77.485539"/>
     <use style="stroke:#000000;" x="292.459261" xlink:href="#mfcf1bb7179" y="85.722336"/>
     <use style="stroke:#000000;" x="296.066534" xlink:href="#mfcf1bb7179" y="92.769547"/>
     <use style="stroke:#000000;" x="299.673807" xlink:href="#mfcf1bb7179" y="99.748052"/>
     <use style="stroke:#000000;" x="303.28108" xlink:href="#mfcf1bb7179" y="101.745665"/>
     <use style="stroke:#000000;" x="306.888352" xlink:href="#mfcf1bb7179" y="104.836677"/>
     <use style="stroke:#000000;" x="310.495625" xlink:href="#mfcf1bb7179" y="109.175214"/>
     <use style="stroke:#000000;" x="314.102898" xlink:href="#mfcf1bb7179" y="115.844123"/>
     <use style="stroke:#000000;" x="317.71017" xlink:href="#mfcf1bb7179" y="120.036184"/>
     <use style="stroke:#000000;" x="321.317443" xlink:href="#mfcf1bb7179" y="124.373093"/>
     <use style="stroke:#000000;" x="324.924716" xlink:href="#mfcf1bb7179" y="126.116143"/>
     <use style="stroke:#000000;" x="328.531989" xlink:href="#mfcf1bb7179" y="134.943944"/>
     <use style="stroke:#000000;" x="332.139261" xlink:href="#mfcf1bb7179" y="141.444277"/>
     <use style="stroke:#000000;" x="335.746534" xlink:href="#mfcf1bb7179" y="143.150354"/>
     <use style="stroke:#000000;" x="339.353807" xlink:href="#mfcf1bb7179" y="158.674616"/>
     <use style="stroke:#000000;" x="342.96108" xlink:href="#mfcf1bb7179" y="167.160805"/>
     <use style="stroke:#000000;" x="346.568352" xlink:href="#mfcf1bb7179" y="171.21064"/>
     <use style="stroke:#000000;" x="350.175625" xlink:href="#mfcf1bb7179" y="172.58318"/>
     <use style="stroke:#000000;" x="353.782898" xlink:href="#mfcf1bb7179" y="179.562889"/>
     <use style="stroke:#000000;" x="357.39017" xlink:href="#mfcf1bb7179" y="174.42015"/>
     <use style="stroke:#000000;" x="360.997443" xlink:href="#mfcf1bb7179" y="189.551803"/>
     <use style="stroke:#000000;" x="364.604716" xlink:href="#mfcf1bb7179" y="193.003551"/>
     <use style="stroke:#000000;" x="368.211989" xlink:href="#mfcf1bb7179" y="198.713991"/>
     <use style="stroke:#000000;" x="371.819261" xlink:href="#mfcf1bb7179" y="204.694646"/>
     <use style="stroke:#000000;" x="375.426534" xlink:href="#mfcf1bb7179" y="208.582919"/>
     <use style="stroke:#000000;" x="379.033807" xlink:href="#mfcf1bb7179" y="209.953829"/>
     <use style="stroke:#000000;" x="382.64108" xlink:href="#mfcf1bb7179" y="224.877029"/>
     <use style="stroke:#000000;" x="386.248352" xlink:href="#mfcf1bb7179" y="230.486041"/>
     <use style="stroke:#000000;" x="389.855625" xlink:href="#mfcf1bb7179" y="235.928319"/>
     <use style="stroke:#000000;" x="393.462898" xlink:href="#mfcf1bb7179" y="232.413036"/>
     <use style="stroke:#000000;" x="397.07017" xlink:href="#mfcf1bb7179" y="238.970671"/>
     <use style="stroke:#000000;" x="400.677443" xlink:href="#mfcf1bb7179" y="247.054263"/>
     <use style="stroke:#000000;" x="404.284716" xlink:href="#mfcf1bb7179" y="250.129905"/>
     <use style="stroke:#000000;" x="407.891989" xlink:href="#mfcf1bb7179" y="252.836595"/>
     <use style="stroke:#000000;" x="411.499261" xlink:href="#mfcf1bb7179" y="258.383914"/>
     <use style="stroke:#000000;" x="415.106534" xlink:href="#mfcf1bb7179" y="258.968543"/>
     <use style="stroke:#000000;" x="418.713807" xlink:href="#mfcf1bb7179" y="280.123703"/>
     <use style="stroke:#000000;" x="422.32108" xlink:href="#mfcf1bb7179" y="278.537753"/>
     <use style="stroke:#000000;" x="425.928352" xlink:href="#mfcf1bb7179" y="288.159272"/>
     <use style="stroke:#000000;" x="429.535625" xlink:href="#mfcf1bb7179" y="288.430125"/>
    </g>
   </g>
   <g id="matplotlib.axis_1">
    <g id="xtick_1">
     <g id="line2d_1">
      <defs>
       <path d="M 0 0 
L 0 3.5 
" id="m6562b94642" style="stroke:#000000;stroke-width:0.8;"/>
      </defs>
      <g>
       <use style="stroke:#000000;stroke-width:0.8;" x="131.175426" xlink:href="#m6562b94642" y="288.430125"/>
      </g>
     </g>
     <g id="text_1">
      <!-- 0.2 -->
      <defs>
       <path d="M 31.78125 66.40625 
Q 24.171875 66.40625 20.328125 58.90625 
Q 16.5 51.421875 16.5 36.375 
Q 16.5 21.390625 20.328125 13.890625 
Q 24.171875 6.390625 31.78125 6.390625 
Q 39.453125 6.390625 43.28125 13.890625 
Q 47.125 21.390625 47.125 36.375 
Q 47.125 51.421875 43.28125 58.90625 
Q 39.453125 66.40625 31.78125 66.40625 
z
M 31.78125 74.21875 
Q 44.046875 74.21875 50.515625 64.515625 
Q 56.984375 54.828125 56.984375 36.375 
Q 56.984375 17.96875 50.515625 8.265625 
Q 44.046875 -1.421875 31.78125 -1.421875 
Q 19.53125 -1.421875 13.0625 8.265625 
Q 6.59375 17.96875 6.59375 36.375 
Q 6.59375 54.828125 13.0625 64.515625 
Q 19.53125 74.21875 31.78125 74.21875 
z
" id="DejaVuSans-30"/>
       <path d="M 10.6875 12.40625 
L 21 12.40625 
L 21 0 
L 10.6875 0 
z
" id="DejaVuSans-2e"/>
       <path d="M 19.1875 8.296875 
L 53.609375 8.296875 
L 53.609375 0 
L 7.328125 0 
L 7.328125 8.296875 
Q 12.9375 14.109375 22.625 23.890625 
Q 32.328125 33.6875 34.8125 36.53125 
Q 39.546875 41.84375 41.421875 45.53125 
Q 43.3125 49.21875 43.3125 52.78125 
Q 43.3125 58.59375 39.234375 62.25 
Q 35.15625 65.921875 28.609375 65.921875 
Q 23.96875 65.921875 18.8125 64.3125 
Q 13.671875 62.703125 7.8125 59.421875 
L 7.8125 69.390625 
Q 13.765625 71.78125 18.9375 73 
Q 24.125 74.21875 28.421875 74.21875 
Q 39.75 74.21875 46.484375 68.546875 
Q 53.21875 62.890625 53.21875 53.421875 
Q 53.21875 48.921875 51.53125 44.890625 
Q 49.859375 40.875 45.40625 35.40625 
Q 44.1875 33.984375 37.640625 27.21875 
Q 31.109375 20.453125 19.1875 8.296875 
z
" id="DejaVuSans-32"/>
      </defs>
      <g transform="translate(123.223864 303.028562)scale(0.1 -0.1)">
       <use xlink:href="#DejaVuSans-30"/>
       <use x="63.623047" xlink:href="#DejaVuSans-2e"/>
       <use x="95.410156" xlink:href="#DejaVuSans-32"/>
      </g>
     </g>
    </g>
    <g id="xtick_2">
     <g id="line2d_2">
      <g>
       <use style="stroke:#000000;stroke-width:0.8;" x="193.542501" xlink:href="#m6562b94642" y="288.430125"/>
      </g>
     </g>
     <g id="text_2">
      <!-- 0.4 -->
      <defs>
       <path d="M 37.796875 64.3125 
L 12.890625 25.390625 
L 37.796875 25.390625 
z
M 35.203125 72.90625 
L 47.609375 72.90625 
L 47.609375 25.390625 
L 58.015625 25.390625 
L 58.015625 17.1875 
L 47.609375 17.1875 
L 47.609375 0 
L 37.796875 0 
L 37.796875 17.1875 
L 4.890625 17.1875 
L 4.890625 26.703125 
z
" id="DejaVuSans-34"/>
      </defs>
      <g transform="translate(185.590938 303.028562)scale(0.1 -0.1)">
       <use xlink:href="#DejaVuSans-30"/>
       <use x="63.623047" xlink:href="#DejaVuSans-2e"/>
       <use x="95.410156" xlink:href="#DejaVuSans-34"/>
      </g>
     </g>
    </g>
    <g id="xtick_3">
     <g id="line2d_3">
      <g>
       <use style="stroke:#000000;stroke-width:0.8;" x="255.909575" xlink:href="#m6562b94642" y="288.430125"/>
      </g>
     </g>
     <g id="text_3">
      <!-- 0.6 -->
      <defs>
       <path d="M 33.015625 40.375 
Q 26.375 40.375 22.484375 35.828125 
Q 18.609375 31.296875 18.609375 23.390625 
Q 18.609375 15.53125 22.484375 10.953125 
Q 26.375 6.390625 33.015625 6.390625 
Q 39.65625 6.390625 43.53125 10.953125 
Q 47.40625 15.53125 47.40625 23.390625 
Q 47.40625 31.296875 43.53125 35.828125 
Q 39.65625 40.375 33.015625 40.375 
z
M 52.59375 71.296875 
L 52.59375 62.3125 
Q 48.875 64.0625 45.09375 64.984375 
Q 41.3125 65.921875 37.59375 65.921875 
Q 27.828125 65.921875 22.671875 59.328125 
Q 17.53125 52.734375 16.796875 39.40625 
Q 19.671875 43.65625 24.015625 45.921875 
Q 28.375 48.1875 33.59375 48.1875 
Q 44.578125 48.1875 50.953125 41.515625 
Q 57.328125 34.859375 57.328125 23.390625 
Q 57.328125 12.15625 50.6875 5.359375 
Q 44.046875 -1.421875 33.015625 -1.421875 
Q 20.359375 -1.421875 13.671875 8.265625 
Q 6.984375 17.96875 6.984375 36.375 
Q 6.984375 53.65625 15.1875 63.9375 
Q 23.390625 74.21875 37.203125 74.21875 
Q 40.921875 74.21875 44.703125 73.484375 
Q 48.484375 72.75 52.59375 71.296875 
z
" id="DejaVuSans-36"/>
      </defs>
      <g transform="translate(247.958012 303.028562)scale(0.1 -0.1)">
       <use xlink:href="#DejaVuSans-30"/>
       <use x="63.623047" xlink:href="#DejaVuSans-2e"/>
       <use x="95.410156" xlink:href="#DejaVuSans-36"/>
      </g>
     </g>
    </g>
    <g id="xtick_4">
     <g id="line2d_4">
      <g>
       <use style="stroke:#000000;stroke-width:0.8;" x="318.276649" xlink:href="#m6562b94642" y="288.430125"/>
      </g>
     </g>
     <g id="text_4">
      <!-- 0.8 -->
      <defs>
       <path d="M 31.78125 34.625 
Q 24.75 34.625 20.71875 30.859375 
Q 16.703125 27.09375 16.703125 20.515625 
Q 16.703125 13.921875 20.71875 10.15625 
Q 24.75 6.390625 31.78125 6.390625 
Q 38.8125 6.390625 42.859375 10.171875 
Q 46.921875 13.96875 46.921875 20.515625 
Q 46.921875 27.09375 42.890625 30.859375 
Q 38.875 34.625 31.78125 34.625 
z
M 21.921875 38.8125 
Q 15.578125 40.375 12.03125 44.71875 
Q 8.5 49.078125 8.5 55.328125 
Q 8.5 64.0625 14.71875 69.140625 
Q 20.953125 74.21875 31.78125 74.21875 
Q 42.671875 74.21875 48.875 69.140625 
Q 55.078125 64.0625 55.078125 55.328125 
Q 55.078125 49.078125 51.53125 44.71875 
Q 48 40.375 41.703125 38.8125 
Q 48.828125 37.15625 52.796875 32.3125 
Q 56.78125 27.484375 56.78125 20.515625 
Q 56.78125 9.90625 50.3125 4.234375 
Q 43.84375 -1.421875 31.78125 -1.421875 
Q 19.734375 -1.421875 13.25 4.234375 
Q 6.78125 9.90625 6.78125 20.515625 
Q 6.78125 27.484375 10.78125 32.3125 
Q 14.796875 37.15625 21.921875 38.8125 
z
M 18.3125 54.390625 
Q 18.3125 48.734375 21.84375 45.5625 
Q 25.390625 42.390625 31.78125 42.390625 
Q 38.140625 42.390625 41.71875 45.5625 
Q 45.3125 48.734375 45.3125 54.390625 
Q 45.3125 60.0625 41.71875 63.234375 
Q 38.140625 66.40625 31.78125 66.40625 
Q 25.390625 66.40625 21.84375 63.234375 
Q 18.3125 60.0625 18.3125 54.390625 
z
" id="DejaVuSans-38"/>
      </defs>
      <g transform="translate(310.325087 303.028562)scale(0.1 -0.1)">
       <use xlink:href="#DejaVuSans-30"/>
       <use x="63.623047" xlink:href="#DejaVuSans-2e"/>
       <use x="95.410156" xlink:href="#DejaVuSans-38"/>
      </g>
     </g>
    </g>
    <g id="xtick_5">
     <g id="line2d_5">
      <g>
       <use style="stroke:#000000;stroke-width:0.8;" x="380.643723" xlink:href="#m6562b94642" y="288.430125"/>
      </g>
     </g>
     <g id="text_5">
      <!-- 1.0 -->
      <defs>
       <path d="M 12.40625 8.296875 
L 28.515625 8.296875 
L 28.515625 63.921875 
L 10.984375 60.40625 
L 10.984375 69.390625 
L 28.421875 72.90625 
L 38.28125 72.90625 
L 38.28125 8.296875 
L 54.390625 8.296875 
L 54.390625 0 
L 12.40625 0 
z
" id="DejaVuSans-31"/>
      </defs>
      <g transform="translate(372.692161 303.028562)scale(0.1 -0.1)">
       <use xlink:href="#DejaVuSans-31"/>
       <use x="63.623047" xlink:href="#DejaVuSans-2e"/>
       <use x="95.410156" xlink:href="#DejaVuSans-30"/>
      </g>
     </g>
    </g>
    <g id="text_6">
     <!-- Input Distance -->
     <defs>
      <path d="M 9.8125 72.90625 
L 19.671875 72.90625 
L 19.671875 0 
L 9.8125 0 
z
" id="DejaVuSans-49"/>
      <path d="M 54.890625 33.015625 
L 54.890625 0 
L 45.90625 0 
L 45.90625 32.71875 
Q 45.90625 40.484375 42.875 44.328125 
Q 39.84375 48.1875 33.796875 48.1875 
Q 26.515625 48.1875 22.3125 43.546875 
Q 18.109375 38.921875 18.109375 30.90625 
L 18.109375 0 
L 9.078125 0 
L 9.078125 54.6875 
L 18.109375 54.6875 
L 18.109375 46.1875 
Q 21.34375 51.125 25.703125 53.5625 
Q 30.078125 56 35.796875 56 
Q 45.21875 56 50.046875 50.171875 
Q 54.890625 44.34375 54.890625 33.015625 
z
" id="DejaVuSans-6e"/>
      <path d="M 18.109375 8.203125 
L 18.109375 -20.796875 
L 9.078125 -20.796875 
L 9.078125 54.6875 
L 18.109375 54.6875 
L 18.109375 46.390625 
Q 20.953125 51.265625 25.265625 53.625 
Q 29.59375 56 35.59375 56 
Q 45.5625 56 51.78125 48.09375 
Q 58.015625 40.1875 58.015625 27.296875 
Q 58.015625 14.40625 51.78125 6.484375 
Q 45.5625 -1.421875 35.59375 -1.421875 
Q 29.59375 -1.421875 25.265625 0.953125 
Q 20.953125 3.328125 18.109375 8.203125 
z
M 48.6875 27.296875 
Q 48.6875 37.203125 44.609375 42.84375 
Q 40.53125 48.484375 33.40625 48.484375 
Q 26.265625 48.484375 22.1875 42.84375 
Q 18.109375 37.203125 18.109375 27.296875 
Q 18.109375 17.390625 22.1875 11.75 
Q 26.265625 6.109375 33.40625 6.109375 
Q 40.53125 6.109375 44.609375 11.75 
Q 48.6875 17.390625 48.6875 27.296875 
z
" id="DejaVuSans-70"/>
      <path d="M 8.5 21.578125 
L 8.5 54.6875 
L 17.484375 54.6875 
L 17.484375 21.921875 
Q 17.484375 14.15625 20.5 10.265625 
Q 23.53125 6.390625 29.59375 6.390625 
Q 36.859375 6.390625 41.078125 11.03125 
Q 45.3125 15.671875 45.3125 23.6875 
L 45.3125 54.6875 
L 54.296875 54.6875 
L 54.296875 0 
L 45.3125 0 
L 45.3125 8.40625 
Q 42.046875 3.421875 37.71875 1 
Q 33.40625 -1.421875 27.6875 -1.421875 
Q 18.265625 -1.421875 13.375 4.4375 
Q 8.5 10.296875 8.5 21.578125 
z
M 31.109375 56 
z
" id="DejaVuSans-75"/>
      <path d="M 18.3125 70.21875 
L 18.3125 54.6875 
L 36.8125 54.6875 
L 36.8125 47.703125 
L 18.3125 47.703125 
L 18.3125 18.015625 
Q 18.3125 11.328125 20.140625 9.421875 
Q 21.96875 7.515625 27.59375 7.515625 
L 36.8125 7.515625 
L 36.8125 0 
L 27.59375 0 
Q 17.1875 0 13.234375 3.875 
Q 9.28125 7.765625 9.28125 18.015625 
L 9.28125 47.703125 
L 2.6875 47.703125 
L 2.6875 54.6875 
L 9.28125 54.6875 
L 9.28125 70.21875 
z
" id="DejaVuSans-74"/>
      <path id="DejaVuSans-20"/>
      <path d="M 19.671875 64.796875 
L 19.671875 8.109375 
L 31.59375 8.109375 
Q 46.6875 8.109375 53.6875 14.9375 
Q 60.6875 21.78125 60.6875 36.53125 
Q 60.6875 51.171875 53.6875 57.984375 
Q 46.6875 64.796875 31.59375 64.796875 
z
M 9.8125 72.90625 
L 30.078125 72.90625 
Q 51.265625 72.90625 61.171875 64.09375 
Q 71.09375 55.28125 71.09375 36.53125 
Q 71.09375 17.671875 61.125 8.828125 
Q 51.171875 0 30.078125 0 
L 9.8125 0 
z
" id="DejaVuSans-44"/>
      <path d="M 9.421875 54.6875 
L 18.40625 54.6875 
L 18.40625 0 
L 9.421875 0 
z
M 9.421875 75.984375 
L 18.40625 75.984375 
L 18.40625 64.59375 
L 9.421875 64.59375 
z
" id="DejaVuSans-69"/>
      <path d="M 44.28125 53.078125 
L 44.28125 44.578125 
Q 40.484375 46.53125 36.375 47.5 
Q 32.28125 48.484375 27.875 48.484375 
Q 21.1875 48.484375 17.84375 46.4375 
Q 14.5 44.390625 14.5 40.28125 
Q 14.5 37.15625 16.890625 35.375 
Q 19.28125 33.59375 26.515625 31.984375 
L 29.59375 31.296875 
Q 39.15625 29.25 43.1875 25.515625 
Q 47.21875 21.78125 47.21875 15.09375 
Q 47.21875 7.46875 41.1875 3.015625 
Q 35.15625 -1.421875 24.609375 -1.421875 
Q 20.21875 -1.421875 15.453125 -0.5625 
Q 10.6875 0.296875 5.421875 2 
L 5.421875 11.28125 
Q 10.40625 8.6875 15.234375 7.390625 
Q 20.0625 6.109375 24.8125 6.109375 
Q 31.15625 6.109375 34.5625 8.28125 
Q 37.984375 10.453125 37.984375 14.40625 
Q 37.984375 18.0625 35.515625 20.015625 
Q 33.0625 21.96875 24.703125 23.78125 
L 21.578125 24.515625 
Q 13.234375 26.265625 9.515625 29.90625 
Q 5.8125 33.546875 5.8125 39.890625 
Q 5.8125 47.609375 11.28125 51.796875 
Q 16.75 56 26.8125 56 
Q 31.78125 56 36.171875 55.265625 
Q 40.578125 54.546875 44.28125 53.078125 
z
" id="DejaVuSans-73"/>
      <path d="M 34.28125 27.484375 
Q 23.390625 27.484375 19.1875 25 
Q 14.984375 22.515625 14.984375 16.5 
Q 14.984375 11.71875 18.140625 8.90625 
Q 21.296875 6.109375 26.703125 6.109375 
Q 34.1875 6.109375 38.703125 11.40625 
Q 43.21875 16.703125 43.21875 25.484375 
L 43.21875 27.484375 
z
M 52.203125 31.203125 
L 52.203125 0 
L 43.21875 0 
L 43.21875 8.296875 
Q 40.140625 3.328125 35.546875 0.953125 
Q 30.953125 -1.421875 24.3125 -1.421875 
Q 15.921875 -1.421875 10.953125 3.296875 
Q 6 8.015625 6 15.921875 
Q 6 25.140625 12.171875 29.828125 
Q 18.359375 34.515625 30.609375 34.515625 
L 43.21875 34.515625 
L 43.21875 35.40625 
Q 43.21875 41.609375 39.140625 45 
Q 35.0625 48.390625 27.6875 48.390625 
Q 23 48.390625 18.546875 47.265625 
Q 14.109375 46.140625 10.015625 43.890625 
L 10.015625 52.203125 
Q 14.9375 54.109375 19.578125 55.046875 
Q 24.21875 56 28.609375 56 
Q 40.484375 56 46.34375 49.84375 
Q 52.203125 43.703125 52.203125 31.203125 
z
" id="DejaVuSans-61"/>
      <path d="M 48.78125 52.59375 
L 48.78125 44.1875 
Q 44.96875 46.296875 41.140625 47.34375 
Q 37.3125 48.390625 33.40625 48.390625 
Q 24.65625 48.390625 19.8125 42.84375 
Q 14.984375 37.3125 14.984375 27.296875 
Q 14.984375 17.28125 19.8125 11.734375 
Q 24.65625 6.203125 33.40625 6.203125 
Q 37.3125 6.203125 41.140625 7.25 
Q 44.96875 8.296875 48.78125 10.40625 
L 48.78125 2.09375 
Q 45.015625 0.34375 40.984375 -0.53125 
Q 36.96875 -1.421875 32.421875 -1.421875 
Q 20.0625 -1.421875 12.78125 6.34375 
Q 5.515625 14.109375 5.515625 27.296875 
Q 5.515625 40.671875 12.859375 48.328125 
Q 20.21875 56 33.015625 56 
Q 37.15625 56 41.109375 55.140625 
Q 45.0625 54.296875 48.78125 52.59375 
z
" id="DejaVuSans-63"/>
      <path d="M 56.203125 29.59375 
L 56.203125 25.203125 
L 14.890625 25.203125 
Q 15.484375 15.921875 20.484375 11.0625 
Q 25.484375 6.203125 34.421875 6.203125 
Q 39.59375 6.203125 44.453125 7.46875 
Q 49.3125 8.734375 54.109375 11.28125 
L 54.109375 2.78125 
Q 49.265625 0.734375 44.1875 -0.34375 
Q 39.109375 -1.421875 33.890625 -1.421875 
Q 20.796875 -1.421875 13.15625 6.1875 
Q 5.515625 13.8125 5.515625 26.8125 
Q 5.515625 40.234375 12.765625 48.109375 
Q 20.015625 56 32.328125 56 
Q 43.359375 56 49.78125 48.890625 
Q 56.203125 41.796875 56.203125 29.59375 
z
M 47.21875 32.234375 
Q 47.125 39.59375 43.09375 43.984375 
Q 39.0625 48.390625 32.421875 48.390625 
Q 24.90625 48.390625 20.390625 44.140625 
Q 15.875 39.890625 15.1875 32.171875 
z
" id="DejaVuSans-65"/>
     </defs>
     <g transform="translate(214.577188 316.706687)scale(0.1 -0.1)">
      <use xlink:href="#DejaVuSans-49"/>
      <use x="29.492188" xlink:href="#DejaVuSans-6e"/>
      <use x="92.871094" xlink:href="#DejaVuSans-70"/>
      <use x="156.347656" xlink:href="#DejaVuSans-75"/>
      <use x="219.726562" xlink:href="#DejaVuSans-74"/>
      <use x="258.935547" xlink:href="#DejaVuSans-20"/>
      <use x="290.722656" xlink:href="#DejaVuSans-44"/>
      <use x="367.724609" xlink:href="#DejaVuSans-69"/>
      <use x="395.507812" xlink:href="#DejaVuSans-73"/>
      <use x="447.607422" xlink:href="#DejaVuSans-74"/>
      <use x="486.816406" xlink:href="#DejaVuSans-61"/>
      <use x="548.095703" xlink:href="#DejaVuSans-6e"/>
      <use x="611.474609" xlink:href="#DejaVuSans-63"/>
      <use x="666.455078" xlink:href="#DejaVuSans-65"/>
     </g>
    </g>
   </g>
   <g id="matplotlib.axis_2">
    <g id="ytick_1">
     <g id="line2d_6">
      <defs>
       <path d="M 0 0 
L -3.5 0 
" id="m70be186505" style="stroke:#000000;stroke-width:0.8;"/>
      </defs>
      <g>
       <use style="stroke:#000000;stroke-width:0.8;" x="72.415625" xlink:href="#m70be186505" y="288.674134"/>
      </g>
     </g>
     <g id="text_7">
      <!-- 2200000 -->
      <g transform="translate(20.878125 292.473352)scale(0.1 -0.1)">
       <use xlink:href="#DejaVuSans-32"/>
       <use x="63.623047" xlink:href="#DejaVuSans-32"/>
       <use x="127.246094" xlink:href="#DejaVuSans-30"/>
       <use x="190.869141" xlink:href="#DejaVuSans-30"/>
       <use x="254.492188" xlink:href="#DejaVuSans-30"/>
       <use x="318.115234" xlink:href="#DejaVuSans-30"/>
       <use x="381.738281" xlink:href="#DejaVuSans-30"/>
      </g>
     </g>
    </g>
    <g id="ytick_2">
     <g id="line2d_7">
      <g>
       <use style="stroke:#000000;stroke-width:0.8;" x="72.415625" xlink:href="#m70be186505" y="232.010298"/>
      </g>
     </g>
     <g id="text_8">
      <!-- 2400000 -->
      <g transform="translate(20.878125 235.809517)scale(0.1 -0.1)">
       <use xlink:href="#DejaVuSans-32"/>
       <use x="63.623047" xlink:href="#DejaVuSans-34"/>
       <use x="127.246094" xlink:href="#DejaVuSans-30"/>
       <use x="190.869141" xlink:href="#DejaVuSans-30"/>
       <use x="254.492188" xlink:href="#DejaVuSans-30"/>
       <use x="318.115234" xlink:href="#DejaVuSans-30"/>
       <use x="381.738281" xlink:href="#DejaVuSans-30"/>
      </g>
     </g>
    </g>
    <g id="ytick_3">
     <g id="line2d_8">
      <g>
       <use style="stroke:#000000;stroke-width:0.8;" x="72.415625" xlink:href="#m70be186505" y="175.346463"/>
      </g>
     </g>
     <g id="text_9">
      <!-- 2600000 -->
      <g transform="translate(20.878125 179.145681)scale(0.1 -0.1)">
       <use xlink:href="#DejaVuSans-32"/>
       <use x="63.623047" xlink:href="#DejaVuSans-36"/>
       <use x="127.246094" xlink:href="#DejaVuSans-30"/>
       <use x="190.869141" xlink:href="#DejaVuSans-30"/>
       <use x="254.492188" xlink:href="#DejaVuSans-30"/>
       <use x="318.115234" xlink:href="#DejaVuSans-30"/>
       <use x="381.738281" xlink:href="#DejaVuSans-30"/>
      </g>
     </g>
    </g>
    <g id="ytick_4">
     <g id="line2d_9">
      <g>
       <use style="stroke:#000000;stroke-width:0.8;" x="72.415625" xlink:href="#m70be186505" y="118.682627"/>
      </g>
     </g>
     <g id="text_10">
      <!-- 2800000 -->
      <g transform="translate(20.878125 122.481846)scale(0.1 -0.1)">
       <use xlink:href="#DejaVuSans-32"/>
       <use x="63.623047" xlink:href="#DejaVuSans-38"/>
       <use x="127.246094" xlink:href="#DejaVuSans-30"/>
       <use x="190.869141" xlink:href="#DejaVuSans-30"/>
       <use x="254.492188" xlink:href="#DejaVuSans-30"/>
       <use x="318.115234" xlink:href="#DejaVuSans-30"/>
       <use x="381.738281" xlink:href="#DejaVuSans-30"/>
      </g>
     </g>
    </g>
    <g id="ytick_5">
     <g id="line2d_10">
      <g>
       <use style="stroke:#000000;stroke-width:0.8;" x="72.415625" xlink:href="#m70be186505" y="62.018791"/>
      </g>
     </g>
     <g id="text_11">
      <!-- 3000000 -->
      <defs>
       <path d="M 40.578125 39.3125 
Q 47.65625 37.796875 51.625 33 
Q 55.609375 28.21875 55.609375 21.1875 
Q 55.609375 10.40625 48.1875 4.484375 
Q 40.765625 -1.421875 27.09375 -1.421875 
Q 22.515625 -1.421875 17.65625 -0.515625 
Q 12.796875 0.390625 7.625 2.203125 
L 7.625 11.71875 
Q 11.71875 9.328125 16.59375 8.109375 
Q 21.484375 6.890625 26.8125 6.890625 
Q 36.078125 6.890625 40.9375 10.546875 
Q 45.796875 14.203125 45.796875 21.1875 
Q 45.796875 27.640625 41.28125 31.265625 
Q 36.765625 34.90625 28.71875 34.90625 
L 20.21875 34.90625 
L 20.21875 43.015625 
L 29.109375 43.015625 
Q 36.375 43.015625 40.234375 45.921875 
Q 44.09375 48.828125 44.09375 54.296875 
Q 44.09375 59.90625 40.109375 62.90625 
Q 36.140625 65.921875 28.71875 65.921875 
Q 24.65625 65.921875 20.015625 65.03125 
Q 15.375 64.15625 9.8125 62.3125 
L 9.8125 71.09375 
Q 15.4375 72.65625 20.34375 73.4375 
Q 25.25 74.21875 29.59375 74.21875 
Q 40.828125 74.21875 47.359375 69.109375 
Q 53.90625 64.015625 53.90625 55.328125 
Q 53.90625 49.265625 50.4375 45.09375 
Q 46.96875 40.921875 40.578125 39.3125 
z
" id="DejaVuSans-33"/>
      </defs>
      <g transform="translate(20.878125 65.81801)scale(0.1 -0.1)">
       <use xlink:href="#DejaVuSans-33"/>
       <use x="63.623047" xlink:href="#DejaVuSans-30"/>
       <use x="127.246094" xlink:href="#DejaVuSans-30"/>
       <use x="190.869141" xlink:href="#DejaVuSans-30"/>
       <use x="254.492188" xlink:href="#DejaVuSans-30"/>
       <use x="318.115234" xlink:href="#DejaVuSans-30"/>
       <use x="381.738281" xlink:href="#DejaVuSans-30"/>
      </g>
     </g>
    </g>
    <g id="text_12">
     <!-- Persistence Distance -->
     <defs>
      <path d="M 19.671875 64.796875 
L 19.671875 37.40625 
L 32.078125 37.40625 
Q 38.96875 37.40625 42.71875 40.96875 
Q 46.484375 44.53125 46.484375 51.125 
Q 46.484375 57.671875 42.71875 61.234375 
Q 38.96875 64.796875 32.078125 64.796875 
z
M 9.8125 72.90625 
L 32.078125 72.90625 
Q 44.34375 72.90625 50.609375 67.359375 
Q 56.890625 61.8125 56.890625 51.125 
Q 56.890625 40.328125 50.609375 34.8125 
Q 44.34375 29.296875 32.078125 29.296875 
L 19.671875 29.296875 
L 19.671875 0 
L 9.8125 0 
z
" id="DejaVuSans-50"/>
      <path d="M 41.109375 46.296875 
Q 39.59375 47.171875 37.8125 47.578125 
Q 36.03125 48 33.890625 48 
Q 26.265625 48 22.1875 43.046875 
Q 18.109375 38.09375 18.109375 28.8125 
L 18.109375 0 
L 9.078125 0 
L 9.078125 54.6875 
L 18.109375 54.6875 
L 18.109375 46.1875 
Q 20.953125 51.171875 25.484375 53.578125 
Q 30.03125 56 36.53125 56 
Q 37.453125 56 38.578125 55.875 
Q 39.703125 55.765625 41.0625 55.515625 
z
" id="DejaVuSans-72"/>
     </defs>
     <g transform="translate(14.798438 207.599906)rotate(-90)scale(0.1 -0.1)">
      <use xlink:href="#DejaVuSans-50"/>
      <use x="60.255859" xlink:href="#DejaVuSans-65"/>
      <use x="121.779297" xlink:href="#DejaVuSans-72"/>
      <use x="162.892578" xlink:href="#DejaVuSans-73"/>
      <use x="214.992188" xlink:href="#DejaVuSans-69"/>
      <use x="242.775391" xlink:href="#DejaVuSans-73"/>
      <use x="294.875" xlink:href="#DejaVuSans-74"/>
      <use x="334.083984" xlink:href="#DejaVuSans-65"/>
      <use x="395.607422" xlink:href="#DejaVuSans-6e"/>
      <use x="458.986328" xlink:href="#DejaVuSans-63"/>
      <use x="513.966797" xlink:href="#DejaVuSans-65"/>
      <use x="575.490234" xlink:href="#DejaVuSans-20"/>
      <use x="607.277344" xlink:href="#DejaVuSans-44"/>
      <use x="684.279297" xlink:href="#DejaVuSans-69"/>
      <use x="712.0625" xlink:href="#DejaVuSans-73"/>
      <use x="764.162109" xlink:href="#DejaVuSans-74"/>
      <use x="803.371094" xlink:href="#DejaVuSans-61"/>
      <use x="864.650391" xlink:href="#DejaVuSans-6e"/>
      <use x="928.029297" xlink:href="#DejaVuSans-63"/>
      <use x="983.009766" xlink:href="#DejaVuSans-65"/>
     </g>
    </g>
   </g>
   <g id="patch_3">
    <path d="M 72.415625 288.430125 
L 72.415625 22.318125 
" style="fill:none;stroke:#000000;stroke-linecap:square;stroke-linejoin:miter;stroke-width:0.8;"/>
   </g>
   <g id="patch_4">
    <path d="M 429.535625 288.430125 
L 429.535625 22.318125 
" style="fill:none;stroke:#000000;stroke-linecap:square;stroke-linejoin:miter;stroke-width:0.8;"/>
   </g>
   <g id="patch_5">
    <path d="M 72.415625 288.430125 
L 429.535625 288.430125 
" style="fill:none;stroke:#000000;stroke-linecap:square;stroke-linejoin:miter;stroke-width:0.8;"/>
   </g>
   <g id="patch_6">
    <path d="M 72.415625 22.318125 
L 429.535625 22.318125 
" style="fill:none;stroke:#000000;stroke-linecap:square;stroke-linejoin:miter;stroke-width:0.8;"/>
   </g>
   <g id="text_13">
    <!-- Input Distance vs Persistence Distance -->
    <defs>
     <path d="M 2.984375 54.6875 
L 12.5 54.6875 
L 29.59375 8.796875 
L 46.6875 54.6875 
L 56.203125 54.6875 
L 35.6875 0 
L 23.484375 0 
z
" id="DejaVuSans-76"/>
    </defs>
    <g transform="translate(134.135938 16.318125)scale(0.12 -0.12)">
     <use xlink:href="#DejaVuSans-49"/>
     <use x="29.492188" xlink:href="#DejaVuSans-6e"/>
     <use x="92.871094" xlink:href="#DejaVuSans-70"/>
     <use x="156.347656" xlink:href="#DejaVuSans-75"/>
     <use x="219.726562" xlink:href="#DejaVuSans-74"/>
     <use x="258.935547" xlink:href="#DejaVuSans-20"/>
     <use x="290.722656" xlink:href="#DejaVuSans-44"/>
     <use x="367.724609" xlink:href="#DejaVuSans-69"/>
     <use x="395.507812" xlink:href="#DejaVuSans-73"/>
     <use x="447.607422" xlink:href="#DejaVuSans-74"/>
     <use x="486.816406" xlink:href="#DejaVuSans-61"/>
     <use x="548.095703" xlink:href="#DejaVuSans-6e"/>
     <use x="611.474609" xlink:href="#DejaVuSans-63"/>
     <use x="666.455078" xlink:href="#DejaVuSans-65"/>
     <use x="727.978516" xlink:href="#DejaVuSans-20"/>
     <use x="759.765625" xlink:href="#DejaVuSans-76"/>
     <use x="818.945312" xlink:href="#DejaVuSans-73"/>
     <use x="871.044922" xlink:href="#DejaVuSans-20"/>
     <use x="902.832031" xlink:href="#DejaVuSans-50"/>
     <use x="963.087891" xlink:href="#DejaVuSans-65"/>
     <use x="1024.611328" xlink:href="#DejaVuSans-72"/>
     <use x="1065.724609" xlink:href="#DejaVuSans-73"/>
     <use x="1117.824219" xlink:href="#DejaVuSans-69"/>
     <use x="1145.607422" xlink:href="#DejaVuSans-73"/>
     <use x="1197.707031" xlink:href="#DejaVuSans-74"/>
     <use x="1236.916016" xlink:href="#DejaVuSans-65"/>
     <use x="1298.439453" xlink:href="#DejaVuSans-6e"/>
     <use x="1361.818359" xlink:href="#DejaVuSans-63"/>
     <use x="1416.798828" xlink:href="#DejaVuSans-65"/>
     <use x="1478.322266" xlink:href="#DejaVuSans-20"/>
     <use x="1510.109375" xlink:href="#DejaVuSans-44"/>
     <use x="1587.111328" xlink:href="#DejaVuSans-69"/>
     <use x="1614.894531" xlink:href="#DejaVuSans-73"/>
     <use x="1666.994141" xlink:href="#DejaVuSans-74"/>
     <use x="1706.203125" xlink:href="#DejaVuSans-61"/>
     <use x="1767.482422" xlink:href="#DejaVuSans-6e"/>
     <use x="1830.861328" xlink:href="#DejaVuSans-63"/>
     <use x="1885.841797" xlink:href="#DejaVuSans-65"/>
    </g>
   </g>
  </g>
 </g>
 <defs>
  <clipPath id="p4bf79be113">
   <rect height="266.112" width="357.12" x="72.415625" y="22.318125"/>
  </clipPath>
 </defs>
</svg>
