<?xml version="1.0" encoding="utf-8" standalone="no"?>
<!DOCTYPE svg PUBLIC "-//W3C//DTD SVG 1.1//EN"
  "http://www.w3.org/Graphics/SVG/1.1/DTD/svg11.dtd">
<!-- Created with matplotlib (http://matplotlib.org/) -->
<svg height="325pt" version="1.1" viewBox="0 0 433 325" width="433pt" xmlns="http://www.w3.org/2000/svg" xmlns:xlink="http://www.w3.org/1999/xlink">
 <defs>
  <style type="text/css">
*{stroke-linecap:butt;stroke-linejoin:round;}
  </style>
 </defs>
 <g id="figure_1">
  <g id="patch_1">
   <path d="M 0 325.986375 
L 433.873125 325.986375 
L 433.873125 0 
L 0 0 
z
" style="fill:#ffffff;"/>
  </g>
  <g id="axes_1">
   <g id="patch_2">
    <path d="M 66.053125 288.430125 
L 423.173125 288.430125 
L 423.173125 22.318125 
L 66.053125 22.318125 
z
" style="fill:#ffffff;"/>
   </g>
   <g id="PathCollection_1">
    <defs>
     <path d="M 0 3 
C 0.795609 3 1.55874 2.683901 2.12132 2.12132 
C 2.683901 1.55874 3 0.795609 3 0 
C 3 -0.795609 2.683901 -1.55874 2.12132 -2.12132 
C 1.55874 -2.683901 0.795609 -3 0 -3 
C -0.795609 -3 -1.55874 -2.683901 -2.12132 -2.12132 
C -2.683901 -1.55874 -3 -0.795609 -3 0 
C -3 0.795609 -2.683901 1.55874 -2.12132 2.12132 
C -1.55874 2.683901 -0.795609 3 0 3 
z
" id="maa1c65202f" style="stroke:#000000;"/>
    </defs>
    <g clip-path="url(#pcc86b5c261)">
     <use style="stroke:#000000;" x="423.173125" xlink:href="#maa1c65202f" y="28.84543"/>
     <use style="stroke:#000000;" x="422.687622" xlink:href="#maa1c65202f" y="31.83869"/>
     <use style="stroke:#000000;" x="422.161933" xlink:href="#maa1c65202f" y="41.200965"/>
     <use style="stroke:#000000;" x="421.536636" xlink:href="#maa1c65202f" y="37.264935"/>
     <use style="stroke:#000000;" x="420.981197" xlink:href="#maa1c65202f" y="40.499935"/>
     <use style="stroke:#000000;" x="420.343516" xlink:href="#maa1c65202f" y="48.989207"/>
     <use style="stroke:#000000;" x="419.738234" xlink:href="#maa1c65202f" y="36.963996"/>
     <use style="stroke:#000000;" x="419.193387" xlink:href="#maa1c65202f" y="28.955884"/>
     <use style="stroke:#000000;" x="418.587559" xlink:href="#maa1c65202f" y="24.997189"/>
     <use style="stroke:#000000;" x="417.986872" xlink:href="#maa1c65202f" y="26.239982"/>
     <use style="stroke:#000000;" x="417.333927" xlink:href="#maa1c65202f" y="22.318125"/>
     <use style="stroke:#000000;" x="416.580985" xlink:href="#maa1c65202f" y="33.185889"/>
     <use style="stroke:#000000;" x="415.774383" xlink:href="#maa1c65202f" y="45.149458"/>
     <use style="stroke:#000000;" x="414.892784" xlink:href="#maa1c65202f" y="48.426612"/>
     <use style="stroke:#000000;" x="413.954954" xlink:href="#maa1c65202f" y="63.715475"/>
     <use style="stroke:#000000;" x="412.907159" xlink:href="#maa1c65202f" y="64.492931"/>
     <use style="stroke:#000000;" x="411.842931" xlink:href="#maa1c65202f" y="51.243682"/>
     <use style="stroke:#000000;" x="410.742099" xlink:href="#maa1c65202f" y="60.681651"/>
     <use style="stroke:#000000;" x="409.498825" xlink:href="#maa1c65202f" y="75.841794"/>
     <use style="stroke:#000000;" x="408.150803" xlink:href="#maa1c65202f" y="85.260213"/>
     <use style="stroke:#000000;" x="406.721318" xlink:href="#maa1c65202f" y="85.46371"/>
     <use style="stroke:#000000;" x="405.304839" xlink:href="#maa1c65202f" y="99.790681"/>
     <use style="stroke:#000000;" x="403.81601" xlink:href="#maa1c65202f" y="96.251138"/>
     <use style="stroke:#000000;" x="402.284425" xlink:href="#maa1c65202f" y="108.935408"/>
     <use style="stroke:#000000;" x="400.572782" xlink:href="#maa1c65202f" y="115.312427"/>
     <use style="stroke:#000000;" x="398.663324" xlink:href="#maa1c65202f" y="126.11299"/>
     <use style="stroke:#000000;" x="396.680269" xlink:href="#maa1c65202f" y="122.605092"/>
     <use style="stroke:#000000;" x="394.611313" xlink:href="#maa1c65202f" y="131.126865"/>
     <use style="stroke:#000000;" x="392.464555" xlink:href="#maa1c65202f" y="134.492479"/>
     <use style="stroke:#000000;" x="390.299417" xlink:href="#maa1c65202f" y="131.261511"/>
     <use style="stroke:#000000;" x="388.13794" xlink:href="#maa1c65202f" y="135.823611"/>
     <use style="stroke:#000000;" x="385.908941" xlink:href="#maa1c65202f" y="133.01656"/>
     <use style="stroke:#000000;" x="383.582747" xlink:href="#maa1c65202f" y="138.166181"/>
     <use style="stroke:#000000;" x="381.248533" xlink:href="#maa1c65202f" y="146.572673"/>
     <use style="stroke:#000000;" x="378.839709" xlink:href="#maa1c65202f" y="156.976383"/>
     <use style="stroke:#000000;" x="376.385092" xlink:href="#maa1c65202f" y="161.555344"/>
     <use style="stroke:#000000;" x="373.888575" xlink:href="#maa1c65202f" y="157.641857"/>
     <use style="stroke:#000000;" x="371.301251" xlink:href="#maa1c65202f" y="166.346845"/>
     <use style="stroke:#000000;" x="368.633165" xlink:href="#maa1c65202f" y="174.981943"/>
     <use style="stroke:#000000;" x="365.846235" xlink:href="#maa1c65202f" y="167.090822"/>
     <use style="stroke:#000000;" x="362.998324" xlink:href="#maa1c65202f" y="161.087502"/>
     <use style="stroke:#000000;" x="360.04512" xlink:href="#maa1c65202f" y="181.249791"/>
     <use style="stroke:#000000;" x="356.803995" xlink:href="#maa1c65202f" y="180.747615"/>
     <use style="stroke:#000000;" x="353.410146" xlink:href="#maa1c65202f" y="180.058254"/>
     <use style="stroke:#000000;" x="349.932577" xlink:href="#maa1c65202f" y="187.057555"/>
     <use style="stroke:#000000;" x="346.23492" xlink:href="#maa1c65202f" y="186.236724"/>
     <use style="stroke:#000000;" x="342.527683" xlink:href="#maa1c65202f" y="166.961429"/>
     <use style="stroke:#000000;" x="338.730418" xlink:href="#maa1c65202f" y="161.196551"/>
     <use style="stroke:#000000;" x="334.657691" xlink:href="#maa1c65202f" y="155.906175"/>
     <use style="stroke:#000000;" x="330.339098" xlink:href="#maa1c65202f" y="172.38352"/>
     <use style="stroke:#000000;" x="325.798001" xlink:href="#maa1c65202f" y="178.855415"/>
     <use style="stroke:#000000;" x="321.125288" xlink:href="#maa1c65202f" y="171.10896"/>
     <use style="stroke:#000000;" x="316.272283" xlink:href="#maa1c65202f" y="156.074727"/>
     <use style="stroke:#000000;" x="311.374342" xlink:href="#maa1c65202f" y="163.790942"/>
     <use style="stroke:#000000;" x="306.444391" xlink:href="#maa1c65202f" y="157.307745"/>
     <use style="stroke:#000000;" x="301.4748" xlink:href="#maa1c65202f" y="161.561453"/>
     <use style="stroke:#000000;" x="296.42289" xlink:href="#maa1c65202f" y="164.317371"/>
     <use style="stroke:#000000;" x="291.279315" xlink:href="#maa1c65202f" y="165.453986"/>
     <use style="stroke:#000000;" x="286.111598" xlink:href="#maa1c65202f" y="156.573237"/>
     <use style="stroke:#000000;" x="280.943958" xlink:href="#maa1c65202f" y="155.050704"/>
     <use style="stroke:#000000;" x="275.737223" xlink:href="#maa1c65202f" y="157.717428"/>
     <use style="stroke:#000000;" x="270.470365" xlink:href="#maa1c65202f" y="159.176364"/>
     <use style="stroke:#000000;" x="265.173444" xlink:href="#maa1c65202f" y="169.73653"/>
     <use style="stroke:#000000;" x="259.947395" xlink:href="#maa1c65202f" y="170.989403"/>
     <use style="stroke:#000000;" x="254.761298" xlink:href="#maa1c65202f" y="187.135081"/>
     <use style="stroke:#000000;" x="249.543036" xlink:href="#maa1c65202f" y="185.521948"/>
     <use style="stroke:#000000;" x="244.388013" xlink:href="#maa1c65202f" y="197.542517"/>
     <use style="stroke:#000000;" x="239.269516" xlink:href="#maa1c65202f" y="208.446019"/>
     <use style="stroke:#000000;" x="234.11091" xlink:href="#maa1c65202f" y="205.521366"/>
     <use style="stroke:#000000;" x="228.920764" xlink:href="#maa1c65202f" y="209.687651"/>
     <use style="stroke:#000000;" x="223.771893" xlink:href="#maa1c65202f" y="219.227948"/>
     <use style="stroke:#000000;" x="218.724656" xlink:href="#maa1c65202f" y="229.80412"/>
     <use style="stroke:#000000;" x="213.620722" xlink:href="#maa1c65202f" y="224.686145"/>
     <use style="stroke:#000000;" x="208.564139" xlink:href="#maa1c65202f" y="223.346705"/>
     <use style="stroke:#000000;" x="203.452339" xlink:href="#maa1c65202f" y="226.369288"/>
     <use style="stroke:#000000;" x="198.298017" xlink:href="#maa1c65202f" y="228.427108"/>
     <use style="stroke:#000000;" x="193.141904" xlink:href="#maa1c65202f" y="228.203634"/>
     <use style="stroke:#000000;" x="187.902381" xlink:href="#maa1c65202f" y="227.107034"/>
     <use style="stroke:#000000;" x="182.598452" xlink:href="#maa1c65202f" y="240.810746"/>
     <use style="stroke:#000000;" x="177.253869" xlink:href="#maa1c65202f" y="251.305116"/>
     <use style="stroke:#000000;" x="171.841531" xlink:href="#maa1c65202f" y="250.050227"/>
     <use style="stroke:#000000;" x="166.421639" xlink:href="#maa1c65202f" y="252.934743"/>
     <use style="stroke:#000000;" x="161.01849" xlink:href="#maa1c65202f" y="248.715735"/>
     <use style="stroke:#000000;" x="155.608489" xlink:href="#maa1c65202f" y="257.54761"/>
     <use style="stroke:#000000;" x="150.185403" xlink:href="#maa1c65202f" y="262.055766"/>
     <use style="stroke:#000000;" x="144.744561" xlink:href="#maa1c65202f" y="254.105875"/>
     <use style="stroke:#000000;" x="139.192195" xlink:href="#maa1c65202f" y="261.898332"/>
     <use style="stroke:#000000;" x="133.634222" xlink:href="#maa1c65202f" y="264.605254"/>
     <use style="stroke:#000000;" x="128.025315" xlink:href="#maa1c65202f" y="271.086374"/>
     <use style="stroke:#000000;" x="122.376845" xlink:href="#maa1c65202f" y="273.843696"/>
     <use style="stroke:#000000;" x="116.730167" xlink:href="#maa1c65202f" y="280.867068"/>
     <use style="stroke:#000000;" x="111.075778" xlink:href="#maa1c65202f" y="274.560549"/>
     <use style="stroke:#000000;" x="105.531511" xlink:href="#maa1c65202f" y="274.697028"/>
     <use style="stroke:#000000;" x="99.995111" xlink:href="#maa1c65202f" y="272.245837"/>
     <use style="stroke:#000000;" x="94.331844" xlink:href="#maa1c65202f" y="269.840587"/>
     <use style="stroke:#000000;" x="88.647004" xlink:href="#maa1c65202f" y="274.655852"/>
     <use style="stroke:#000000;" x="82.933738" xlink:href="#maa1c65202f" y="272.645989"/>
     <use style="stroke:#000000;" x="77.342666" xlink:href="#maa1c65202f" y="280.030841"/>
     <use style="stroke:#000000;" x="71.714056" xlink:href="#maa1c65202f" y="282.996365"/>
     <use style="stroke:#000000;" x="66.053125" xlink:href="#maa1c65202f" y="288.430125"/>
    </g>
   </g>
   <g id="matplotlib.axis_1">
    <g id="xtick_1">
     <g id="line2d_1">
      <defs>
       <path d="M 0 0 
L 0 3.5 
" id="m2e9ec39580" style="stroke:#000000;stroke-width:0.8;"/>
      </defs>
      <g>
       <use style="stroke:#000000;stroke-width:0.8;" x="120.124778" xlink:href="#m2e9ec39580" y="288.430125"/>
      </g>
     </g>
     <g id="text_1">
      <!-- 0.55 -->
      <defs>
       <path d="M 31.78125 66.40625 
Q 24.171875 66.40625 20.328125 58.90625 
Q 16.5 51.421875 16.5 36.375 
Q 16.5 21.390625 20.328125 13.890625 
Q 24.171875 6.390625 31.78125 6.390625 
Q 39.453125 6.390625 43.28125 13.890625 
Q 47.125 21.390625 47.125 36.375 
Q 47.125 51.421875 43.28125 58.90625 
Q 39.453125 66.40625 31.78125 66.40625 
z
M 31.78125 74.21875 
Q 44.046875 74.21875 50.515625 64.515625 
Q 56.984375 54.828125 56.984375 36.375 
Q 56.984375 17.96875 50.515625 8.265625 
Q 44.046875 -1.421875 31.78125 -1.421875 
Q 19.53125 -1.421875 13.0625 8.265625 
Q 6.59375 17.96875 6.59375 36.375 
Q 6.59375 54.828125 13.0625 64.515625 
Q 19.53125 74.21875 31.78125 74.21875 
z
" id="DejaVuSans-30"/>
       <path d="M 10.6875 12.40625 
L 21 12.40625 
L 21 0 
L 10.6875 0 
z
" id="DejaVuSans-2e"/>
       <path d="M 10.796875 72.90625 
L 49.515625 72.90625 
L 49.515625 64.59375 
L 19.828125 64.59375 
L 19.828125 46.734375 
Q 21.96875 47.46875 24.109375 47.828125 
Q 26.265625 48.1875 28.421875 48.1875 
Q 40.625 48.1875 47.75 41.5 
Q 54.890625 34.8125 54.890625 23.390625 
Q 54.890625 11.625 47.5625 5.09375 
Q 40.234375 -1.421875 26.90625 -1.421875 
Q 22.3125 -1.421875 17.546875 -0.640625 
Q 12.796875 0.140625 7.71875 1.703125 
L 7.71875 11.625 
Q 12.109375 9.234375 16.796875 8.0625 
Q 21.484375 6.890625 26.703125 6.890625 
Q 35.15625 6.890625 40.078125 11.328125 
Q 45.015625 15.765625 45.015625 23.390625 
Q 45.015625 31 40.078125 35.4375 
Q 35.15625 39.890625 26.703125 39.890625 
Q 22.75 39.890625 18.8125 39.015625 
Q 14.890625 38.140625 10.796875 36.28125 
z
" id="DejaVuSans-35"/>
      </defs>
      <g transform="translate(108.991965 303.028562)scale(0.1 -0.1)">
       <use xlink:href="#DejaVuSans-30"/>
       <use x="63.623047" xlink:href="#DejaVuSans-2e"/>
       <use x="95.410156" xlink:href="#DejaVuSans-35"/>
       <use x="159.033203" xlink:href="#DejaVuSans-35"/>
      </g>
     </g>
    </g>
    <g id="xtick_2">
     <g id="line2d_2">
      <g>
       <use style="stroke:#000000;stroke-width:0.8;" x="185.455131" xlink:href="#m2e9ec39580" y="288.430125"/>
      </g>
     </g>
     <g id="text_2">
      <!-- 0.60 -->
      <defs>
       <path d="M 33.015625 40.375 
Q 26.375 40.375 22.484375 35.828125 
Q 18.609375 31.296875 18.609375 23.390625 
Q 18.609375 15.53125 22.484375 10.953125 
Q 26.375 6.390625 33.015625 6.390625 
Q 39.65625 6.390625 43.53125 10.953125 
Q 47.40625 15.53125 47.40625 23.390625 
Q 47.40625 31.296875 43.53125 35.828125 
Q 39.65625 40.375 33.015625 40.375 
z
M 52.59375 71.296875 
L 52.59375 62.3125 
Q 48.875 64.0625 45.09375 64.984375 
Q 41.3125 65.921875 37.59375 65.921875 
Q 27.828125 65.921875 22.671875 59.328125 
Q 17.53125 52.734375 16.796875 39.40625 
Q 19.671875 43.65625 24.015625 45.921875 
Q 28.375 48.1875 33.59375 48.1875 
Q 44.578125 48.1875 50.953125 41.515625 
Q 57.328125 34.859375 57.328125 23.390625 
Q 57.328125 12.15625 50.6875 5.359375 
Q 44.046875 -1.421875 33.015625 -1.421875 
Q 20.359375 -1.421875 13.671875 8.265625 
Q 6.984375 17.96875 6.984375 36.375 
Q 6.984375 53.65625 15.1875 63.9375 
Q 23.390625 74.21875 37.203125 74.21875 
Q 40.921875 74.21875 44.703125 73.484375 
Q 48.484375 72.75 52.59375 71.296875 
z
" id="DejaVuSans-36"/>
      </defs>
      <g transform="translate(174.322319 303.028562)scale(0.1 -0.1)">
       <use xlink:href="#DejaVuSans-30"/>
       <use x="63.623047" xlink:href="#DejaVuSans-2e"/>
       <use x="95.410156" xlink:href="#DejaVuSans-36"/>
       <use x="159.033203" xlink:href="#DejaVuSans-30"/>
      </g>
     </g>
    </g>
    <g id="xtick_3">
     <g id="line2d_3">
      <g>
       <use style="stroke:#000000;stroke-width:0.8;" x="250.785485" xlink:href="#m2e9ec39580" y="288.430125"/>
      </g>
     </g>
     <g id="text_3">
      <!-- 0.65 -->
      <g transform="translate(239.652672 303.028562)scale(0.1 -0.1)">
       <use xlink:href="#DejaVuSans-30"/>
       <use x="63.623047" xlink:href="#DejaVuSans-2e"/>
       <use x="95.410156" xlink:href="#DejaVuSans-36"/>
       <use x="159.033203" xlink:href="#DejaVuSans-35"/>
      </g>
     </g>
    </g>
    <g id="xtick_4">
     <g id="line2d_4">
      <g>
       <use style="stroke:#000000;stroke-width:0.8;" x="316.115838" xlink:href="#m2e9ec39580" y="288.430125"/>
      </g>
     </g>
     <g id="text_4">
      <!-- 0.70 -->
      <defs>
       <path d="M 8.203125 72.90625 
L 55.078125 72.90625 
L 55.078125 68.703125 
L 28.609375 0 
L 18.3125 0 
L 43.21875 64.59375 
L 8.203125 64.59375 
z
" id="DejaVuSans-37"/>
      </defs>
      <g transform="translate(304.983026 303.028562)scale(0.1 -0.1)">
       <use xlink:href="#DejaVuSans-30"/>
       <use x="63.623047" xlink:href="#DejaVuSans-2e"/>
       <use x="95.410156" xlink:href="#DejaVuSans-37"/>
       <use x="159.033203" xlink:href="#DejaVuSans-30"/>
      </g>
     </g>
    </g>
    <g id="xtick_5">
     <g id="line2d_5">
      <g>
       <use style="stroke:#000000;stroke-width:0.8;" x="381.446192" xlink:href="#m2e9ec39580" y="288.430125"/>
      </g>
     </g>
     <g id="text_5">
      <!-- 0.75 -->
      <g transform="translate(370.313379 303.028562)scale(0.1 -0.1)">
       <use xlink:href="#DejaVuSans-30"/>
       <use x="63.623047" xlink:href="#DejaVuSans-2e"/>
       <use x="95.410156" xlink:href="#DejaVuSans-37"/>
       <use x="159.033203" xlink:href="#DejaVuSans-35"/>
      </g>
     </g>
    </g>
    <g id="text_6">
     <!-- Correct Class Probability -->
     <defs>
      <path d="M 64.40625 67.28125 
L 64.40625 56.890625 
Q 59.421875 61.53125 53.78125 63.8125 
Q 48.140625 66.109375 41.796875 66.109375 
Q 29.296875 66.109375 22.65625 58.46875 
Q 16.015625 50.828125 16.015625 36.375 
Q 16.015625 21.96875 22.65625 14.328125 
Q 29.296875 6.6875 41.796875 6.6875 
Q 48.140625 6.6875 53.78125 8.984375 
Q 59.421875 11.28125 64.40625 15.921875 
L 64.40625 5.609375 
Q 59.234375 2.09375 53.4375 0.328125 
Q 47.65625 -1.421875 41.21875 -1.421875 
Q 24.65625 -1.421875 15.125 8.703125 
Q 5.609375 18.84375 5.609375 36.375 
Q 5.609375 53.953125 15.125 64.078125 
Q 24.65625 74.21875 41.21875 74.21875 
Q 47.75 74.21875 53.53125 72.484375 
Q 59.328125 70.75 64.40625 67.28125 
z
" id="DejaVuSans-43"/>
      <path d="M 30.609375 48.390625 
Q 23.390625 48.390625 19.1875 42.75 
Q 14.984375 37.109375 14.984375 27.296875 
Q 14.984375 17.484375 19.15625 11.84375 
Q 23.34375 6.203125 30.609375 6.203125 
Q 37.796875 6.203125 41.984375 11.859375 
Q 46.1875 17.53125 46.1875 27.296875 
Q 46.1875 37.015625 41.984375 42.703125 
Q 37.796875 48.390625 30.609375 48.390625 
z
M 30.609375 56 
Q 42.328125 56 49.015625 48.375 
Q 55.71875 40.765625 55.71875 27.296875 
Q 55.71875 13.875 49.015625 6.21875 
Q 42.328125 -1.421875 30.609375 -1.421875 
Q 18.84375 -1.421875 12.171875 6.21875 
Q 5.515625 13.875 5.515625 27.296875 
Q 5.515625 40.765625 12.171875 48.375 
Q 18.84375 56 30.609375 56 
z
" id="DejaVuSans-6f"/>
      <path d="M 41.109375 46.296875 
Q 39.59375 47.171875 37.8125 47.578125 
Q 36.03125 48 33.890625 48 
Q 26.265625 48 22.1875 43.046875 
Q 18.109375 38.09375 18.109375 28.8125 
L 18.109375 0 
L 9.078125 0 
L 9.078125 54.6875 
L 18.109375 54.6875 
L 18.109375 46.1875 
Q 20.953125 51.171875 25.484375 53.578125 
Q 30.03125 56 36.53125 56 
Q 37.453125 56 38.578125 55.875 
Q 39.703125 55.765625 41.0625 55.515625 
z
" id="DejaVuSans-72"/>
      <path d="M 56.203125 29.59375 
L 56.203125 25.203125 
L 14.890625 25.203125 
Q 15.484375 15.921875 20.484375 11.0625 
Q 25.484375 6.203125 34.421875 6.203125 
Q 39.59375 6.203125 44.453125 7.46875 
Q 49.3125 8.734375 54.109375 11.28125 
L 54.109375 2.78125 
Q 49.265625 0.734375 44.1875 -0.34375 
Q 39.109375 -1.421875 33.890625 -1.421875 
Q 20.796875 -1.421875 13.15625 6.1875 
Q 5.515625 13.8125 5.515625 26.8125 
Q 5.515625 40.234375 12.765625 48.109375 
Q 20.015625 56 32.328125 56 
Q 43.359375 56 49.78125 48.890625 
Q 56.203125 41.796875 56.203125 29.59375 
z
M 47.21875 32.234375 
Q 47.125 39.59375 43.09375 43.984375 
Q 39.0625 48.390625 32.421875 48.390625 
Q 24.90625 48.390625 20.390625 44.140625 
Q 15.875 39.890625 15.1875 32.171875 
z
" id="DejaVuSans-65"/>
      <path d="M 48.78125 52.59375 
L 48.78125 44.1875 
Q 44.96875 46.296875 41.140625 47.34375 
Q 37.3125 48.390625 33.40625 48.390625 
Q 24.65625 48.390625 19.8125 42.84375 
Q 14.984375 37.3125 14.984375 27.296875 
Q 14.984375 17.28125 19.8125 11.734375 
Q 24.65625 6.203125 33.40625 6.203125 
Q 37.3125 6.203125 41.140625 7.25 
Q 44.96875 8.296875 48.78125 10.40625 
L 48.78125 2.09375 
Q 45.015625 0.34375 40.984375 -0.53125 
Q 36.96875 -1.421875 32.421875 -1.421875 
Q 20.0625 -1.421875 12.78125 6.34375 
Q 5.515625 14.109375 5.515625 27.296875 
Q 5.515625 40.671875 12.859375 48.328125 
Q 20.21875 56 33.015625 56 
Q 37.15625 56 41.109375 55.140625 
Q 45.0625 54.296875 48.78125 52.59375 
z
" id="DejaVuSans-63"/>
      <path d="M 18.3125 70.21875 
L 18.3125 54.6875 
L 36.8125 54.6875 
L 36.8125 47.703125 
L 18.3125 47.703125 
L 18.3125 18.015625 
Q 18.3125 11.328125 20.140625 9.421875 
Q 21.96875 7.515625 27.59375 7.515625 
L 36.8125 7.515625 
L 36.8125 0 
L 27.59375 0 
Q 17.1875 0 13.234375 3.875 
Q 9.28125 7.765625 9.28125 18.015625 
L 9.28125 47.703125 
L 2.6875 47.703125 
L 2.6875 54.6875 
L 9.28125 54.6875 
L 9.28125 70.21875 
z
" id="DejaVuSans-74"/>
      <path id="DejaVuSans-20"/>
      <path d="M 9.421875 75.984375 
L 18.40625 75.984375 
L 18.40625 0 
L 9.421875 0 
z
" id="DejaVuSans-6c"/>
      <path d="M 34.28125 27.484375 
Q 23.390625 27.484375 19.1875 25 
Q 14.984375 22.515625 14.984375 16.5 
Q 14.984375 11.71875 18.140625 8.90625 
Q 21.296875 6.109375 26.703125 6.109375 
Q 34.1875 6.109375 38.703125 11.40625 
Q 43.21875 16.703125 43.21875 25.484375 
L 43.21875 27.484375 
z
M 52.203125 31.203125 
L 52.203125 0 
L 43.21875 0 
L 43.21875 8.296875 
Q 40.140625 3.328125 35.546875 0.953125 
Q 30.953125 -1.421875 24.3125 -1.421875 
Q 15.921875 -1.421875 10.953125 3.296875 
Q 6 8.015625 6 15.921875 
Q 6 25.140625 12.171875 29.828125 
Q 18.359375 34.515625 30.609375 34.515625 
L 43.21875 34.515625 
L 43.21875 35.40625 
Q 43.21875 41.609375 39.140625 45 
Q 35.0625 48.390625 27.6875 48.390625 
Q 23 48.390625 18.546875 47.265625 
Q 14.109375 46.140625 10.015625 43.890625 
L 10.015625 52.203125 
Q 14.9375 54.109375 19.578125 55.046875 
Q 24.21875 56 28.609375 56 
Q 40.484375 56 46.34375 49.84375 
Q 52.203125 43.703125 52.203125 31.203125 
z
" id="DejaVuSans-61"/>
      <path d="M 44.28125 53.078125 
L 44.28125 44.578125 
Q 40.484375 46.53125 36.375 47.5 
Q 32.28125 48.484375 27.875 48.484375 
Q 21.1875 48.484375 17.84375 46.4375 
Q 14.5 44.390625 14.5 40.28125 
Q 14.5 37.15625 16.890625 35.375 
Q 19.28125 33.59375 26.515625 31.984375 
L 29.59375 31.296875 
Q 39.15625 29.25 43.1875 25.515625 
Q 47.21875 21.78125 47.21875 15.09375 
Q 47.21875 7.46875 41.1875 3.015625 
Q 35.15625 -1.421875 24.609375 -1.421875 
Q 20.21875 -1.421875 15.453125 -0.5625 
Q 10.6875 0.296875 5.421875 2 
L 5.421875 11.28125 
Q 10.40625 8.6875 15.234375 7.390625 
Q 20.0625 6.109375 24.8125 6.109375 
Q 31.15625 6.109375 34.5625 8.28125 
Q 37.984375 10.453125 37.984375 14.40625 
Q 37.984375 18.0625 35.515625 20.015625 
Q 33.0625 21.96875 24.703125 23.78125 
L 21.578125 24.515625 
Q 13.234375 26.265625 9.515625 29.90625 
Q 5.8125 33.546875 5.8125 39.890625 
Q 5.8125 47.609375 11.28125 51.796875 
Q 16.75 56 26.8125 56 
Q 31.78125 56 36.171875 55.265625 
Q 40.578125 54.546875 44.28125 53.078125 
z
" id="DejaVuSans-73"/>
      <path d="M 19.671875 64.796875 
L 19.671875 37.40625 
L 32.078125 37.40625 
Q 38.96875 37.40625 42.71875 40.96875 
Q 46.484375 44.53125 46.484375 51.125 
Q 46.484375 57.671875 42.71875 61.234375 
Q 38.96875 64.796875 32.078125 64.796875 
z
M 9.8125 72.90625 
L 32.078125 72.90625 
Q 44.34375 72.90625 50.609375 67.359375 
Q 56.890625 61.8125 56.890625 51.125 
Q 56.890625 40.328125 50.609375 34.8125 
Q 44.34375 29.296875 32.078125 29.296875 
L 19.671875 29.296875 
L 19.671875 0 
L 9.8125 0 
z
" id="DejaVuSans-50"/>
      <path d="M 48.6875 27.296875 
Q 48.6875 37.203125 44.609375 42.84375 
Q 40.53125 48.484375 33.40625 48.484375 
Q 26.265625 48.484375 22.1875 42.84375 
Q 18.109375 37.203125 18.109375 27.296875 
Q 18.109375 17.390625 22.1875 11.75 
Q 26.265625 6.109375 33.40625 6.109375 
Q 40.53125 6.109375 44.609375 11.75 
Q 48.6875 17.390625 48.6875 27.296875 
z
M 18.109375 46.390625 
Q 20.953125 51.265625 25.265625 53.625 
Q 29.59375 56 35.59375 56 
Q 45.5625 56 51.78125 48.09375 
Q 58.015625 40.1875 58.015625 27.296875 
Q 58.015625 14.40625 51.78125 6.484375 
Q 45.5625 -1.421875 35.59375 -1.421875 
Q 29.59375 -1.421875 25.265625 0.953125 
Q 20.953125 3.328125 18.109375 8.203125 
L 18.109375 0 
L 9.078125 0 
L 9.078125 75.984375 
L 18.109375 75.984375 
z
" id="DejaVuSans-62"/>
      <path d="M 9.421875 54.6875 
L 18.40625 54.6875 
L 18.40625 0 
L 9.421875 0 
z
M 9.421875 75.984375 
L 18.40625 75.984375 
L 18.40625 64.59375 
L 9.421875 64.59375 
z
" id="DejaVuSans-69"/>
      <path d="M 32.171875 -5.078125 
Q 28.375 -14.84375 24.75 -17.8125 
Q 21.140625 -20.796875 15.09375 -20.796875 
L 7.90625 -20.796875 
L 7.90625 -13.28125 
L 13.1875 -13.28125 
Q 16.890625 -13.28125 18.9375 -11.515625 
Q 21 -9.765625 23.484375 -3.21875 
L 25.09375 0.875 
L 2.984375 54.6875 
L 12.5 54.6875 
L 29.59375 11.921875 
L 46.6875 54.6875 
L 56.203125 54.6875 
z
" id="DejaVuSans-79"/>
     </defs>
     <g transform="translate(183.209219 316.706687)scale(0.1 -0.1)">
      <use xlink:href="#DejaVuSans-43"/>
      <use x="69.824219" xlink:href="#DejaVuSans-6f"/>
      <use x="131.005859" xlink:href="#DejaVuSans-72"/>
      <use x="172.103516" xlink:href="#DejaVuSans-72"/>
      <use x="213.185547" xlink:href="#DejaVuSans-65"/>
      <use x="274.708984" xlink:href="#DejaVuSans-63"/>
      <use x="329.689453" xlink:href="#DejaVuSans-74"/>
      <use x="368.898438" xlink:href="#DejaVuSans-20"/>
      <use x="400.685547" xlink:href="#DejaVuSans-43"/>
      <use x="470.509766" xlink:href="#DejaVuSans-6c"/>
      <use x="498.292969" xlink:href="#DejaVuSans-61"/>
      <use x="559.572266" xlink:href="#DejaVuSans-73"/>
      <use x="611.671875" xlink:href="#DejaVuSans-73"/>
      <use x="663.771484" xlink:href="#DejaVuSans-20"/>
      <use x="695.558594" xlink:href="#DejaVuSans-50"/>
      <use x="755.845703" xlink:href="#DejaVuSans-72"/>
      <use x="796.927734" xlink:href="#DejaVuSans-6f"/>
      <use x="858.109375" xlink:href="#DejaVuSans-62"/>
      <use x="921.585938" xlink:href="#DejaVuSans-61"/>
      <use x="982.865234" xlink:href="#DejaVuSans-62"/>
      <use x="1046.341797" xlink:href="#DejaVuSans-69"/>
      <use x="1074.125" xlink:href="#DejaVuSans-6c"/>
      <use x="1101.908203" xlink:href="#DejaVuSans-69"/>
      <use x="1129.691406" xlink:href="#DejaVuSans-74"/>
      <use x="1168.900391" xlink:href="#DejaVuSans-79"/>
     </g>
    </g>
   </g>
   <g id="matplotlib.axis_2">
    <g id="ytick_1">
     <g id="line2d_6">
      <defs>
       <path d="M 0 0 
L -3.5 0 
" id="m3739b43a24" style="stroke:#000000;stroke-width:0.8;"/>
      </defs>
      <g>
       <use style="stroke:#000000;stroke-width:0.8;" x="66.053125" xlink:href="#m3739b43a24" y="258.524531"/>
      </g>
     </g>
     <g id="text_7">
      <!-- 550000 -->
      <g transform="translate(20.878125 262.32375)scale(0.1 -0.1)">
       <use xlink:href="#DejaVuSans-35"/>
       <use x="63.623047" xlink:href="#DejaVuSans-35"/>
       <use x="127.246094" xlink:href="#DejaVuSans-30"/>
       <use x="190.869141" xlink:href="#DejaVuSans-30"/>
       <use x="254.492188" xlink:href="#DejaVuSans-30"/>
       <use x="318.115234" xlink:href="#DejaVuSans-30"/>
      </g>
     </g>
    </g>
    <g id="ytick_2">
     <g id="line2d_7">
      <g>
       <use style="stroke:#000000;stroke-width:0.8;" x="66.053125" xlink:href="#m3739b43a24" y="209.650996"/>
      </g>
     </g>
     <g id="text_8">
      <!-- 600000 -->
      <g transform="translate(20.878125 213.450215)scale(0.1 -0.1)">
       <use xlink:href="#DejaVuSans-36"/>
       <use x="63.623047" xlink:href="#DejaVuSans-30"/>
       <use x="127.246094" xlink:href="#DejaVuSans-30"/>
       <use x="190.869141" xlink:href="#DejaVuSans-30"/>
       <use x="254.492188" xlink:href="#DejaVuSans-30"/>
       <use x="318.115234" xlink:href="#DejaVuSans-30"/>
      </g>
     </g>
    </g>
    <g id="ytick_3">
     <g id="line2d_8">
      <g>
       <use style="stroke:#000000;stroke-width:0.8;" x="66.053125" xlink:href="#m3739b43a24" y="160.777461"/>
      </g>
     </g>
     <g id="text_9">
      <!-- 650000 -->
      <g transform="translate(20.878125 164.57668)scale(0.1 -0.1)">
       <use xlink:href="#DejaVuSans-36"/>
       <use x="63.623047" xlink:href="#DejaVuSans-35"/>
       <use x="127.246094" xlink:href="#DejaVuSans-30"/>
       <use x="190.869141" xlink:href="#DejaVuSans-30"/>
       <use x="254.492188" xlink:href="#DejaVuSans-30"/>
       <use x="318.115234" xlink:href="#DejaVuSans-30"/>
      </g>
     </g>
    </g>
    <g id="ytick_4">
     <g id="line2d_9">
      <g>
       <use style="stroke:#000000;stroke-width:0.8;" x="66.053125" xlink:href="#m3739b43a24" y="111.903926"/>
      </g>
     </g>
     <g id="text_10">
      <!-- 700000 -->
      <g transform="translate(20.878125 115.703145)scale(0.1 -0.1)">
       <use xlink:href="#DejaVuSans-37"/>
       <use x="63.623047" xlink:href="#DejaVuSans-30"/>
       <use x="127.246094" xlink:href="#DejaVuSans-30"/>
       <use x="190.869141" xlink:href="#DejaVuSans-30"/>
       <use x="254.492188" xlink:href="#DejaVuSans-30"/>
       <use x="318.115234" xlink:href="#DejaVuSans-30"/>
      </g>
     </g>
    </g>
    <g id="ytick_5">
     <g id="line2d_10">
      <g>
       <use style="stroke:#000000;stroke-width:0.8;" x="66.053125" xlink:href="#m3739b43a24" y="63.030391"/>
      </g>
     </g>
     <g id="text_11">
      <!-- 750000 -->
      <g transform="translate(20.878125 66.829609)scale(0.1 -0.1)">
       <use xlink:href="#DejaVuSans-37"/>
       <use x="63.623047" xlink:href="#DejaVuSans-35"/>
       <use x="127.246094" xlink:href="#DejaVuSans-30"/>
       <use x="190.869141" xlink:href="#DejaVuSans-30"/>
       <use x="254.492188" xlink:href="#DejaVuSans-30"/>
       <use x="318.115234" xlink:href="#DejaVuSans-30"/>
      </g>
     </g>
    </g>
    <g id="text_12">
     <!-- Persistence Distance -->
     <defs>
      <path d="M 54.890625 33.015625 
L 54.890625 0 
L 45.90625 0 
L 45.90625 32.71875 
Q 45.90625 40.484375 42.875 44.328125 
Q 39.84375 48.1875 33.796875 48.1875 
Q 26.515625 48.1875 22.3125 43.546875 
Q 18.109375 38.921875 18.109375 30.90625 
L 18.109375 0 
L 9.078125 0 
L 9.078125 54.6875 
L 18.109375 54.6875 
L 18.109375 46.1875 
Q 21.34375 51.125 25.703125 53.5625 
Q 30.078125 56 35.796875 56 
Q 45.21875 56 50.046875 50.171875 
Q 54.890625 44.34375 54.890625 33.015625 
z
" id="DejaVuSans-6e"/>
      <path d="M 19.671875 64.796875 
L 19.671875 8.109375 
L 31.59375 8.109375 
Q 46.6875 8.109375 53.6875 14.9375 
Q 60.6875 21.78125 60.6875 36.53125 
Q 60.6875 51.171875 53.6875 57.984375 
Q 46.6875 64.796875 31.59375 64.796875 
z
M 9.8125 72.90625 
L 30.078125 72.90625 
Q 51.265625 72.90625 61.171875 64.09375 
Q 71.09375 55.28125 71.09375 36.53125 
Q 71.09375 17.671875 61.125 8.828125 
Q 51.171875 0 30.078125 0 
L 9.8125 0 
z
" id="DejaVuSans-44"/>
     </defs>
     <g transform="translate(14.798438 207.599906)rotate(-90)scale(0.1 -0.1)">
      <use xlink:href="#DejaVuSans-50"/>
      <use x="60.255859" xlink:href="#DejaVuSans-65"/>
      <use x="121.779297" xlink:href="#DejaVuSans-72"/>
      <use x="162.892578" xlink:href="#DejaVuSans-73"/>
      <use x="214.992188" xlink:href="#DejaVuSans-69"/>
      <use x="242.775391" xlink:href="#DejaVuSans-73"/>
      <use x="294.875" xlink:href="#DejaVuSans-74"/>
      <use x="334.083984" xlink:href="#DejaVuSans-65"/>
      <use x="395.607422" xlink:href="#DejaVuSans-6e"/>
      <use x="458.986328" xlink:href="#DejaVuSans-63"/>
      <use x="513.966797" xlink:href="#DejaVuSans-65"/>
      <use x="575.490234" xlink:href="#DejaVuSans-20"/>
      <use x="607.277344" xlink:href="#DejaVuSans-44"/>
      <use x="684.279297" xlink:href="#DejaVuSans-69"/>
      <use x="712.0625" xlink:href="#DejaVuSans-73"/>
      <use x="764.162109" xlink:href="#DejaVuSans-74"/>
      <use x="803.371094" xlink:href="#DejaVuSans-61"/>
      <use x="864.650391" xlink:href="#DejaVuSans-6e"/>
      <use x="928.029297" xlink:href="#DejaVuSans-63"/>
      <use x="983.009766" xlink:href="#DejaVuSans-65"/>
     </g>
    </g>
   </g>
   <g id="line2d_11">
    <path clip-path="url(#pcc86b5c261)" d="M 423.173125 78.24327 
L 422.687622 78.593566 
L 422.161933 78.972858 
L 421.536636 79.424018 
L 420.981197 79.824774 
L 420.343516 80.284868 
L 419.738234 80.721587 
L 419.193387 81.114702 
L 418.587559 81.551814 
L 417.986872 81.985217 
L 417.333927 82.456325 
L 416.580985 82.999582 
L 415.774383 83.581556 
L 414.892784 84.217641 
L 413.954954 84.894297 
L 412.907159 85.650295 
L 411.842931 86.418149 
L 410.742099 87.212413 
L 409.498825 88.109451 
L 408.150803 89.082066 
L 406.721318 90.113457 
L 405.304839 91.135465 
L 403.81601 92.209674 
L 402.284425 93.314732 
L 400.572782 94.549704 
L 398.663324 95.927402 
L 396.680269 97.358201 
L 394.611313 98.850979 
L 392.464555 100.399893 
L 390.299417 101.962067 
L 388.13794 103.5216 
L 385.908941 105.129851 
L 383.582747 106.808229 
L 381.248533 108.492395 
L 378.839709 110.230392 
L 376.385092 112.001429 
L 373.888575 113.802698 
L 371.301251 115.669485 
L 368.633165 117.594543 
L 365.846235 119.605348 
L 362.998324 121.660152 
L 360.04512 123.790926 
L 356.803995 126.129439 
L 353.410146 128.578144 
L 349.932577 131.087254 
L 346.23492 133.75516 
L 342.527683 136.429979 
L 338.730418 139.169754 
L 334.657691 142.108278 
L 330.339098 145.224198 
L 325.798001 148.500657 
L 321.125288 151.872078 
L 316.272283 155.373583 
L 311.374342 158.90751 
L 306.444391 162.464532 
L 301.4748 166.050155 
L 296.42289 169.695172 
L 291.279315 173.406326 
L 286.111598 177.1349 
L 280.943958 180.863417 
L 275.737223 184.620143 
L 270.470365 188.420248 
L 265.173444 192.242043 
L 259.947395 196.012704 
L 254.761298 199.754539 
L 249.543036 203.519581 
L 244.388013 207.238995 
L 239.269516 210.932056 
L 234.11091 214.654055 
L 228.920764 218.398812 
L 223.771893 222.113788 
L 218.724656 225.755433 
L 213.620722 229.437986 
L 208.564139 233.086375 
L 203.452339 236.774603 
L 198.298017 240.493512 
L 193.141904 244.213713 
L 187.902381 247.994095 
L 182.598452 251.820948 
L 177.253869 255.677132 
L 171.841531 259.582202 
L 166.421639 263.492723 
L 161.01849 267.391163 
L 155.608489 271.294548 
L 150.185403 275.207373 
L 144.744561 279.13301 
L 139.192195 283.139112 
L 133.634222 287.149261 
L 128.025315 291.196158 
L 122.376845 295.271601 
L 116.730167 299.345751 
L 111.075778 303.425464 
L 105.531511 307.425722 
L 99.995111 311.420306 
L 94.331844 315.506425 
L 88.647004 319.608109 
L 82.933738 323.730302 
L 78.420896 326.986375 
" style="fill:none;stroke:#c0c0c0;stroke-linecap:square;stroke-width:3;"/>
   </g>
   <g id="patch_3">
    <path d="M 66.053125 288.430125 
L 66.053125 22.318125 
" style="fill:none;stroke:#000000;stroke-linecap:square;stroke-linejoin:miter;stroke-width:0.8;"/>
   </g>
   <g id="patch_4">
    <path d="M 423.173125 288.430125 
L 423.173125 22.318125 
" style="fill:none;stroke:#000000;stroke-linecap:square;stroke-linejoin:miter;stroke-width:0.8;"/>
   </g>
   <g id="patch_5">
    <path d="M 66.053125 288.430125 
L 423.173125 288.430125 
" style="fill:none;stroke:#000000;stroke-linecap:square;stroke-linejoin:miter;stroke-width:0.8;"/>
   </g>
   <g id="patch_6">
    <path d="M 66.053125 22.318125 
L 423.173125 22.318125 
" style="fill:none;stroke:#000000;stroke-linecap:square;stroke-linejoin:miter;stroke-width:0.8;"/>
   </g>
   <g id="text_13">
    <!-- Correct Class Probability vs Persistence Distance -->
    <defs>
     <path d="M 2.984375 54.6875 
L 12.5 54.6875 
L 29.59375 8.796875 
L 46.6875 54.6875 
L 56.203125 54.6875 
L 35.6875 0 
L 23.484375 0 
z
" id="DejaVuSans-76"/>
    </defs>
    <g transform="translate(97.766875 16.318125)scale(0.12 -0.12)">
     <use xlink:href="#DejaVuSans-43"/>
     <use x="69.824219" xlink:href="#DejaVuSans-6f"/>
     <use x="131.005859" xlink:href="#DejaVuSans-72"/>
     <use x="172.103516" xlink:href="#DejaVuSans-72"/>
     <use x="213.185547" xlink:href="#DejaVuSans-65"/>
     <use x="274.708984" xlink:href="#DejaVuSans-63"/>
     <use x="329.689453" xlink:href="#DejaVuSans-74"/>
     <use x="368.898438" xlink:href="#DejaVuSans-20"/>
     <use x="400.685547" xlink:href="#DejaVuSans-43"/>
     <use x="470.509766" xlink:href="#DejaVuSans-6c"/>
     <use x="498.292969" xlink:href="#DejaVuSans-61"/>
     <use x="559.572266" xlink:href="#DejaVuSans-73"/>
     <use x="611.671875" xlink:href="#DejaVuSans-73"/>
     <use x="663.771484" xlink:href="#DejaVuSans-20"/>
     <use x="695.558594" xlink:href="#DejaVuSans-50"/>
     <use x="755.845703" xlink:href="#DejaVuSans-72"/>
     <use x="796.927734" xlink:href="#DejaVuSans-6f"/>
     <use x="858.109375" xlink:href="#DejaVuSans-62"/>
     <use x="921.585938" xlink:href="#DejaVuSans-61"/>
     <use x="982.865234" xlink:href="#DejaVuSans-62"/>
     <use x="1046.341797" xlink:href="#DejaVuSans-69"/>
     <use x="1074.125" xlink:href="#DejaVuSans-6c"/>
     <use x="1101.908203" xlink:href="#DejaVuSans-69"/>
     <use x="1129.691406" xlink:href="#DejaVuSans-74"/>
     <use x="1168.900391" xlink:href="#DejaVuSans-79"/>
     <use x="1228.080078" xlink:href="#DejaVuSans-20"/>
     <use x="1259.867188" xlink:href="#DejaVuSans-76"/>
     <use x="1319.046875" xlink:href="#DejaVuSans-73"/>
     <use x="1371.146484" xlink:href="#DejaVuSans-20"/>
     <use x="1402.933594" xlink:href="#DejaVuSans-50"/>
     <use x="1463.189453" xlink:href="#DejaVuSans-65"/>
     <use x="1524.712891" xlink:href="#DejaVuSans-72"/>
     <use x="1565.826172" xlink:href="#DejaVuSans-73"/>
     <use x="1617.925781" xlink:href="#DejaVuSans-69"/>
     <use x="1645.708984" xlink:href="#DejaVuSans-73"/>
     <use x="1697.808594" xlink:href="#DejaVuSans-74"/>
     <use x="1737.017578" xlink:href="#DejaVuSans-65"/>
     <use x="1798.541016" xlink:href="#DejaVuSans-6e"/>
     <use x="1861.919922" xlink:href="#DejaVuSans-63"/>
     <use x="1916.900391" xlink:href="#DejaVuSans-65"/>
     <use x="1978.423828" xlink:href="#DejaVuSans-20"/>
     <use x="2010.210938" xlink:href="#DejaVuSans-44"/>
     <use x="2087.212891" xlink:href="#DejaVuSans-69"/>
     <use x="2114.996094" xlink:href="#DejaVuSans-73"/>
     <use x="2167.095703" xlink:href="#DejaVuSans-74"/>
     <use x="2206.304688" xlink:href="#DejaVuSans-61"/>
     <use x="2267.583984" xlink:href="#DejaVuSans-6e"/>
     <use x="2330.962891" xlink:href="#DejaVuSans-63"/>
     <use x="2385.943359" xlink:href="#DejaVuSans-65"/>
    </g>
   </g>
  </g>
 </g>
 <defs>
  <clipPath id="pcc86b5c261">
   <rect height="266.112" width="357.12" x="66.053125" y="22.318125"/>
  </clipPath>
 </defs>
</svg>
