<?xml version="1.0" encoding="utf-8" standalone="no"?>
<!DOCTYPE svg PUBLIC "-//W3C//DTD SVG 1.1//EN"
  "http://www.w3.org/Graphics/SVG/1.1/DTD/svg11.dtd">
<!-- Created with matplotlib (http://matplotlib.org/) -->
<svg height="325pt" version="1.1" viewBox="0 0 433 325" width="433pt" xmlns="http://www.w3.org/2000/svg" xmlns:xlink="http://www.w3.org/1999/xlink">
 <defs>
  <style type="text/css">
*{stroke-linecap:butt;stroke-linejoin:round;}
  </style>
 </defs>
 <g id="figure_1">
  <g id="patch_1">
   <path d="M 0 325.986375 
L 433.873125 325.986375 
L 433.873125 0 
L 0 0 
z
" style="fill:#ffffff;"/>
  </g>
  <g id="axes_1">
   <g id="patch_2">
    <path d="M 66.053125 288.430125 
L 423.173125 288.430125 
L 423.173125 22.318125 
L 66.053125 22.318125 
z
" style="fill:#ffffff;"/>
   </g>
   <g id="PathCollection_1">
    <defs>
     <path d="M 0 3 
C 0.795609 3 1.55874 2.683901 2.12132 2.12132 
C 2.683901 1.55874 3 0.795609 3 0 
C 3 -0.795609 2.683901 -1.55874 2.12132 -2.12132 
C 1.55874 -2.683901 0.795609 -3 0 -3 
C -0.795609 -3 -1.55874 -2.683901 -2.12132 -2.12132 
C -2.683901 -1.55874 -3 -0.795609 -3 0 
C -3 0.795609 -2.683901 1.55874 -2.12132 2.12132 
C -1.55874 2.683901 -0.795609 3 0 3 
z
" id="m4218d9144f" style="stroke:#000000;"/>
    </defs>
    <g clip-path="url(#pf9d5d4aa37)">
     <use style="stroke:#000000;" x="66.053125" xlink:href="#m4218d9144f" y="28.84543"/>
     <use style="stroke:#000000;" x="69.660398" xlink:href="#m4218d9144f" y="31.83869"/>
     <use style="stroke:#000000;" x="73.26767" xlink:href="#m4218d9144f" y="41.200965"/>
     <use style="stroke:#000000;" x="76.874943" xlink:href="#m4218d9144f" y="37.264935"/>
     <use style="stroke:#000000;" x="80.482216" xlink:href="#m4218d9144f" y="40.499935"/>
     <use style="stroke:#000000;" x="84.089489" xlink:href="#m4218d9144f" y="48.989207"/>
     <use style="stroke:#000000;" x="87.696761" xlink:href="#m4218d9144f" y="36.963996"/>
     <use style="stroke:#000000;" x="91.304034" xlink:href="#m4218d9144f" y="28.955884"/>
     <use style="stroke:#000000;" x="94.911307" xlink:href="#m4218d9144f" y="24.997189"/>
     <use style="stroke:#000000;" x="98.51858" xlink:href="#m4218d9144f" y="26.239982"/>
     <use style="stroke:#000000;" x="102.125852" xlink:href="#m4218d9144f" y="22.318125"/>
     <use style="stroke:#000000;" x="105.733125" xlink:href="#m4218d9144f" y="33.185889"/>
     <use style="stroke:#000000;" x="109.340398" xlink:href="#m4218d9144f" y="45.149458"/>
     <use style="stroke:#000000;" x="112.94767" xlink:href="#m4218d9144f" y="48.426612"/>
     <use style="stroke:#000000;" x="116.554943" xlink:href="#m4218d9144f" y="63.715475"/>
     <use style="stroke:#000000;" x="120.162216" xlink:href="#m4218d9144f" y="64.492931"/>
     <use style="stroke:#000000;" x="123.769489" xlink:href="#m4218d9144f" y="51.243682"/>
     <use style="stroke:#000000;" x="127.376761" xlink:href="#m4218d9144f" y="60.681651"/>
     <use style="stroke:#000000;" x="130.984034" xlink:href="#m4218d9144f" y="75.841794"/>
     <use style="stroke:#000000;" x="134.591307" xlink:href="#m4218d9144f" y="85.260213"/>
     <use style="stroke:#000000;" x="138.19858" xlink:href="#m4218d9144f" y="85.46371"/>
     <use style="stroke:#000000;" x="141.805852" xlink:href="#m4218d9144f" y="99.790681"/>
     <use style="stroke:#000000;" x="145.413125" xlink:href="#m4218d9144f" y="96.251138"/>
     <use style="stroke:#000000;" x="149.020398" xlink:href="#m4218d9144f" y="108.935408"/>
     <use style="stroke:#000000;" x="152.62767" xlink:href="#m4218d9144f" y="115.312427"/>
     <use style="stroke:#000000;" x="156.234943" xlink:href="#m4218d9144f" y="126.11299"/>
     <use style="stroke:#000000;" x="159.842216" xlink:href="#m4218d9144f" y="122.605092"/>
     <use style="stroke:#000000;" x="163.449489" xlink:href="#m4218d9144f" y="131.126865"/>
     <use style="stroke:#000000;" x="167.056761" xlink:href="#m4218d9144f" y="134.492479"/>
     <use style="stroke:#000000;" x="170.664034" xlink:href="#m4218d9144f" y="131.261511"/>
     <use style="stroke:#000000;" x="174.271307" xlink:href="#m4218d9144f" y="135.823611"/>
     <use style="stroke:#000000;" x="177.87858" xlink:href="#m4218d9144f" y="133.01656"/>
     <use style="stroke:#000000;" x="181.485852" xlink:href="#m4218d9144f" y="138.166181"/>
     <use style="stroke:#000000;" x="185.093125" xlink:href="#m4218d9144f" y="146.572673"/>
     <use style="stroke:#000000;" x="188.700398" xlink:href="#m4218d9144f" y="156.976383"/>
     <use style="stroke:#000000;" x="192.30767" xlink:href="#m4218d9144f" y="161.555344"/>
     <use style="stroke:#000000;" x="195.914943" xlink:href="#m4218d9144f" y="157.641857"/>
     <use style="stroke:#000000;" x="199.522216" xlink:href="#m4218d9144f" y="166.346845"/>
     <use style="stroke:#000000;" x="203.129489" xlink:href="#m4218d9144f" y="174.981943"/>
     <use style="stroke:#000000;" x="206.736761" xlink:href="#m4218d9144f" y="167.090822"/>
     <use style="stroke:#000000;" x="210.344034" xlink:href="#m4218d9144f" y="161.087502"/>
     <use style="stroke:#000000;" x="213.951307" xlink:href="#m4218d9144f" y="181.249791"/>
     <use style="stroke:#000000;" x="217.55858" xlink:href="#m4218d9144f" y="180.747615"/>
     <use style="stroke:#000000;" x="221.165852" xlink:href="#m4218d9144f" y="180.058254"/>
     <use style="stroke:#000000;" x="224.773125" xlink:href="#m4218d9144f" y="187.057555"/>
     <use style="stroke:#000000;" x="228.380398" xlink:href="#m4218d9144f" y="186.236724"/>
     <use style="stroke:#000000;" x="231.98767" xlink:href="#m4218d9144f" y="166.961429"/>
     <use style="stroke:#000000;" x="235.594943" xlink:href="#m4218d9144f" y="161.196551"/>
     <use style="stroke:#000000;" x="239.202216" xlink:href="#m4218d9144f" y="155.906175"/>
     <use style="stroke:#000000;" x="242.809489" xlink:href="#m4218d9144f" y="172.38352"/>
     <use style="stroke:#000000;" x="246.416761" xlink:href="#m4218d9144f" y="178.855415"/>
     <use style="stroke:#000000;" x="250.024034" xlink:href="#m4218d9144f" y="171.10896"/>
     <use style="stroke:#000000;" x="253.631307" xlink:href="#m4218d9144f" y="156.074727"/>
     <use style="stroke:#000000;" x="257.23858" xlink:href="#m4218d9144f" y="163.790942"/>
     <use style="stroke:#000000;" x="260.845852" xlink:href="#m4218d9144f" y="157.307745"/>
     <use style="stroke:#000000;" x="264.453125" xlink:href="#m4218d9144f" y="161.561453"/>
     <use style="stroke:#000000;" x="268.060398" xlink:href="#m4218d9144f" y="164.317371"/>
     <use style="stroke:#000000;" x="271.66767" xlink:href="#m4218d9144f" y="165.453986"/>
     <use style="stroke:#000000;" x="275.274943" xlink:href="#m4218d9144f" y="156.573237"/>
     <use style="stroke:#000000;" x="278.882216" xlink:href="#m4218d9144f" y="155.050704"/>
     <use style="stroke:#000000;" x="282.489489" xlink:href="#m4218d9144f" y="157.717428"/>
     <use style="stroke:#000000;" x="286.096761" xlink:href="#m4218d9144f" y="159.176364"/>
     <use style="stroke:#000000;" x="289.704034" xlink:href="#m4218d9144f" y="169.73653"/>
     <use style="stroke:#000000;" x="293.311307" xlink:href="#m4218d9144f" y="170.989403"/>
     <use style="stroke:#000000;" x="296.91858" xlink:href="#m4218d9144f" y="187.135081"/>
     <use style="stroke:#000000;" x="300.525852" xlink:href="#m4218d9144f" y="185.521948"/>
     <use style="stroke:#000000;" x="304.133125" xlink:href="#m4218d9144f" y="197.542517"/>
     <use style="stroke:#000000;" x="307.740398" xlink:href="#m4218d9144f" y="208.446019"/>
     <use style="stroke:#000000;" x="311.34767" xlink:href="#m4218d9144f" y="205.521366"/>
     <use style="stroke:#000000;" x="314.954943" xlink:href="#m4218d9144f" y="209.687651"/>
     <use style="stroke:#000000;" x="318.562216" xlink:href="#m4218d9144f" y="219.227948"/>
     <use style="stroke:#000000;" x="322.169489" xlink:href="#m4218d9144f" y="229.80412"/>
     <use style="stroke:#000000;" x="325.776761" xlink:href="#m4218d9144f" y="224.686145"/>
     <use style="stroke:#000000;" x="329.384034" xlink:href="#m4218d9144f" y="223.346705"/>
     <use style="stroke:#000000;" x="332.991307" xlink:href="#m4218d9144f" y="226.369288"/>
     <use style="stroke:#000000;" x="336.59858" xlink:href="#m4218d9144f" y="228.427108"/>
     <use style="stroke:#000000;" x="340.205852" xlink:href="#m4218d9144f" y="228.203634"/>
     <use style="stroke:#000000;" x="343.813125" xlink:href="#m4218d9144f" y="227.107034"/>
     <use style="stroke:#000000;" x="347.420398" xlink:href="#m4218d9144f" y="240.810746"/>
     <use style="stroke:#000000;" x="351.02767" xlink:href="#m4218d9144f" y="251.305116"/>
     <use style="stroke:#000000;" x="354.634943" xlink:href="#m4218d9144f" y="250.050227"/>
     <use style="stroke:#000000;" x="358.242216" xlink:href="#m4218d9144f" y="252.934743"/>
     <use style="stroke:#000000;" x="361.849489" xlink:href="#m4218d9144f" y="248.715735"/>
     <use style="stroke:#000000;" x="365.456761" xlink:href="#m4218d9144f" y="257.54761"/>
     <use style="stroke:#000000;" x="369.064034" xlink:href="#m4218d9144f" y="262.055766"/>
     <use style="stroke:#000000;" x="372.671307" xlink:href="#m4218d9144f" y="254.105875"/>
     <use style="stroke:#000000;" x="376.27858" xlink:href="#m4218d9144f" y="261.898332"/>
     <use style="stroke:#000000;" x="379.885852" xlink:href="#m4218d9144f" y="264.605254"/>
     <use style="stroke:#000000;" x="383.493125" xlink:href="#m4218d9144f" y="271.086374"/>
     <use style="stroke:#000000;" x="387.100398" xlink:href="#m4218d9144f" y="273.843696"/>
     <use style="stroke:#000000;" x="390.70767" xlink:href="#m4218d9144f" y="280.867068"/>
     <use style="stroke:#000000;" x="394.314943" xlink:href="#m4218d9144f" y="274.560549"/>
     <use style="stroke:#000000;" x="397.922216" xlink:href="#m4218d9144f" y="274.697028"/>
     <use style="stroke:#000000;" x="401.529489" xlink:href="#m4218d9144f" y="272.245837"/>
     <use style="stroke:#000000;" x="405.136761" xlink:href="#m4218d9144f" y="269.840587"/>
     <use style="stroke:#000000;" x="408.744034" xlink:href="#m4218d9144f" y="274.655852"/>
     <use style="stroke:#000000;" x="412.351307" xlink:href="#m4218d9144f" y="272.645989"/>
     <use style="stroke:#000000;" x="415.95858" xlink:href="#m4218d9144f" y="280.030841"/>
     <use style="stroke:#000000;" x="419.565852" xlink:href="#m4218d9144f" y="282.996365"/>
     <use style="stroke:#000000;" x="423.173125" xlink:href="#m4218d9144f" y="288.430125"/>
    </g>
   </g>
   <g id="matplotlib.axis_1">
    <g id="xtick_1">
     <g id="line2d_1">
      <defs>
       <path d="M 0 0 
L 0 3.5 
" id="m1d1bb5663f" style="stroke:#000000;stroke-width:0.8;"/>
      </defs>
      <g>
       <use style="stroke:#000000;stroke-width:0.8;" x="66.053125" xlink:href="#m1d1bb5663f" y="288.430125"/>
      </g>
     </g>
     <g id="text_1">
      <!-- 0 -->
      <defs>
       <path d="M 31.78125 66.40625 
Q 24.171875 66.40625 20.328125 58.90625 
Q 16.5 51.421875 16.5 36.375 
Q 16.5 21.390625 20.328125 13.890625 
Q 24.171875 6.390625 31.78125 6.390625 
Q 39.453125 6.390625 43.28125 13.890625 
Q 47.125 21.390625 47.125 36.375 
Q 47.125 51.421875 43.28125 58.90625 
Q 39.453125 66.40625 31.78125 66.40625 
z
M 31.78125 74.21875 
Q 44.046875 74.21875 50.515625 64.515625 
Q 56.984375 54.828125 56.984375 36.375 
Q 56.984375 17.96875 50.515625 8.265625 
Q 44.046875 -1.421875 31.78125 -1.421875 
Q 19.53125 -1.421875 13.0625 8.265625 
Q 6.59375 17.96875 6.59375 36.375 
Q 6.59375 54.828125 13.0625 64.515625 
Q 19.53125 74.21875 31.78125 74.21875 
z
" id="DejaVuSans-30"/>
      </defs>
      <g transform="translate(62.871875 303.028562)scale(0.1 -0.1)">
       <use xlink:href="#DejaVuSans-30"/>
      </g>
     </g>
    </g>
    <g id="xtick_2">
     <g id="line2d_2">
      <g>
       <use style="stroke:#000000;stroke-width:0.8;" x="138.19858" xlink:href="#m1d1bb5663f" y="288.430125"/>
      </g>
     </g>
     <g id="text_2">
      <!-- 20 -->
      <defs>
       <path d="M 19.1875 8.296875 
L 53.609375 8.296875 
L 53.609375 0 
L 7.328125 0 
L 7.328125 8.296875 
Q 12.9375 14.109375 22.625 23.890625 
Q 32.328125 33.6875 34.8125 36.53125 
Q 39.546875 41.84375 41.421875 45.53125 
Q 43.3125 49.21875 43.3125 52.78125 
Q 43.3125 58.59375 39.234375 62.25 
Q 35.15625 65.921875 28.609375 65.921875 
Q 23.96875 65.921875 18.8125 64.3125 
Q 13.671875 62.703125 7.8125 59.421875 
L 7.8125 69.390625 
Q 13.765625 71.78125 18.9375 73 
Q 24.125 74.21875 28.421875 74.21875 
Q 39.75 74.21875 46.484375 68.546875 
Q 53.21875 62.890625 53.21875 53.421875 
Q 53.21875 48.921875 51.53125 44.890625 
Q 49.859375 40.875 45.40625 35.40625 
Q 44.1875 33.984375 37.640625 27.21875 
Q 31.109375 20.453125 19.1875 8.296875 
z
" id="DejaVuSans-32"/>
      </defs>
      <g transform="translate(131.83608 303.028562)scale(0.1 -0.1)">
       <use xlink:href="#DejaVuSans-32"/>
       <use x="63.623047" xlink:href="#DejaVuSans-30"/>
      </g>
     </g>
    </g>
    <g id="xtick_3">
     <g id="line2d_3">
      <g>
       <use style="stroke:#000000;stroke-width:0.8;" x="210.344034" xlink:href="#m1d1bb5663f" y="288.430125"/>
      </g>
     </g>
     <g id="text_3">
      <!-- 40 -->
      <defs>
       <path d="M 37.796875 64.3125 
L 12.890625 25.390625 
L 37.796875 25.390625 
z
M 35.203125 72.90625 
L 47.609375 72.90625 
L 47.609375 25.390625 
L 58.015625 25.390625 
L 58.015625 17.1875 
L 47.609375 17.1875 
L 47.609375 0 
L 37.796875 0 
L 37.796875 17.1875 
L 4.890625 17.1875 
L 4.890625 26.703125 
z
" id="DejaVuSans-34"/>
      </defs>
      <g transform="translate(203.981534 303.028562)scale(0.1 -0.1)">
       <use xlink:href="#DejaVuSans-34"/>
       <use x="63.623047" xlink:href="#DejaVuSans-30"/>
      </g>
     </g>
    </g>
    <g id="xtick_4">
     <g id="line2d_4">
      <g>
       <use style="stroke:#000000;stroke-width:0.8;" x="282.489489" xlink:href="#m1d1bb5663f" y="288.430125"/>
      </g>
     </g>
     <g id="text_4">
      <!-- 60 -->
      <defs>
       <path d="M 33.015625 40.375 
Q 26.375 40.375 22.484375 35.828125 
Q 18.609375 31.296875 18.609375 23.390625 
Q 18.609375 15.53125 22.484375 10.953125 
Q 26.375 6.390625 33.015625 6.390625 
Q 39.65625 6.390625 43.53125 10.953125 
Q 47.40625 15.53125 47.40625 23.390625 
Q 47.40625 31.296875 43.53125 35.828125 
Q 39.65625 40.375 33.015625 40.375 
z
M 52.59375 71.296875 
L 52.59375 62.3125 
Q 48.875 64.0625 45.09375 64.984375 
Q 41.3125 65.921875 37.59375 65.921875 
Q 27.828125 65.921875 22.671875 59.328125 
Q 17.53125 52.734375 16.796875 39.40625 
Q 19.671875 43.65625 24.015625 45.921875 
Q 28.375 48.1875 33.59375 48.1875 
Q 44.578125 48.1875 50.953125 41.515625 
Q 57.328125 34.859375 57.328125 23.390625 
Q 57.328125 12.15625 50.6875 5.359375 
Q 44.046875 -1.421875 33.015625 -1.421875 
Q 20.359375 -1.421875 13.671875 8.265625 
Q 6.984375 17.96875 6.984375 36.375 
Q 6.984375 53.65625 15.1875 63.9375 
Q 23.390625 74.21875 37.203125 74.21875 
Q 40.921875 74.21875 44.703125 73.484375 
Q 48.484375 72.75 52.59375 71.296875 
z
" id="DejaVuSans-36"/>
      </defs>
      <g transform="translate(276.126989 303.028562)scale(0.1 -0.1)">
       <use xlink:href="#DejaVuSans-36"/>
       <use x="63.623047" xlink:href="#DejaVuSans-30"/>
      </g>
     </g>
    </g>
    <g id="xtick_5">
     <g id="line2d_5">
      <g>
       <use style="stroke:#000000;stroke-width:0.8;" x="354.634943" xlink:href="#m1d1bb5663f" y="288.430125"/>
      </g>
     </g>
     <g id="text_5">
      <!-- 80 -->
      <defs>
       <path d="M 31.78125 34.625 
Q 24.75 34.625 20.71875 30.859375 
Q 16.703125 27.09375 16.703125 20.515625 
Q 16.703125 13.921875 20.71875 10.15625 
Q 24.75 6.390625 31.78125 6.390625 
Q 38.8125 6.390625 42.859375 10.171875 
Q 46.921875 13.96875 46.921875 20.515625 
Q 46.921875 27.09375 42.890625 30.859375 
Q 38.875 34.625 31.78125 34.625 
z
M 21.921875 38.8125 
Q 15.578125 40.375 12.03125 44.71875 
Q 8.5 49.078125 8.5 55.328125 
Q 8.5 64.0625 14.71875 69.140625 
Q 20.953125 74.21875 31.78125 74.21875 
Q 42.671875 74.21875 48.875 69.140625 
Q 55.078125 64.0625 55.078125 55.328125 
Q 55.078125 49.078125 51.53125 44.71875 
Q 48 40.375 41.703125 38.8125 
Q 48.828125 37.15625 52.796875 32.3125 
Q 56.78125 27.484375 56.78125 20.515625 
Q 56.78125 9.90625 50.3125 4.234375 
Q 43.84375 -1.421875 31.78125 -1.421875 
Q 19.734375 -1.421875 13.25 4.234375 
Q 6.78125 9.90625 6.78125 20.515625 
Q 6.78125 27.484375 10.78125 32.3125 
Q 14.796875 37.15625 21.921875 38.8125 
z
M 18.3125 54.390625 
Q 18.3125 48.734375 21.84375 45.5625 
Q 25.390625 42.390625 31.78125 42.390625 
Q 38.140625 42.390625 41.71875 45.5625 
Q 45.3125 48.734375 45.3125 54.390625 
Q 45.3125 60.0625 41.71875 63.234375 
Q 38.140625 66.40625 31.78125 66.40625 
Q 25.390625 66.40625 21.84375 63.234375 
Q 18.3125 60.0625 18.3125 54.390625 
z
" id="DejaVuSans-38"/>
      </defs>
      <g transform="translate(348.272443 303.028562)scale(0.1 -0.1)">
       <use xlink:href="#DejaVuSans-38"/>
       <use x="63.623047" xlink:href="#DejaVuSans-30"/>
      </g>
     </g>
    </g>
    <g id="text_6">
     <!-- Step -->
     <defs>
      <path d="M 53.515625 70.515625 
L 53.515625 60.890625 
Q 47.90625 63.578125 42.921875 64.890625 
Q 37.9375 66.21875 33.296875 66.21875 
Q 25.25 66.21875 20.875 63.09375 
Q 16.5 59.96875 16.5 54.203125 
Q 16.5 49.359375 19.40625 46.890625 
Q 22.3125 44.4375 30.421875 42.921875 
L 36.375 41.703125 
Q 47.40625 39.59375 52.65625 34.296875 
Q 57.90625 29 57.90625 20.125 
Q 57.90625 9.515625 50.796875 4.046875 
Q 43.703125 -1.421875 29.984375 -1.421875 
Q 24.8125 -1.421875 18.96875 -0.25 
Q 13.140625 0.921875 6.890625 3.21875 
L 6.890625 13.375 
Q 12.890625 10.015625 18.65625 8.296875 
Q 24.421875 6.59375 29.984375 6.59375 
Q 38.421875 6.59375 43.015625 9.90625 
Q 47.609375 13.234375 47.609375 19.390625 
Q 47.609375 24.75 44.3125 27.78125 
Q 41.015625 30.8125 33.5 32.328125 
L 27.484375 33.5 
Q 16.453125 35.6875 11.515625 40.375 
Q 6.59375 45.0625 6.59375 53.421875 
Q 6.59375 63.09375 13.40625 68.65625 
Q 20.21875 74.21875 32.171875 74.21875 
Q 37.3125 74.21875 42.625 73.28125 
Q 47.953125 72.359375 53.515625 70.515625 
z
" id="DejaVuSans-53"/>
      <path d="M 18.3125 70.21875 
L 18.3125 54.6875 
L 36.8125 54.6875 
L 36.8125 47.703125 
L 18.3125 47.703125 
L 18.3125 18.015625 
Q 18.3125 11.328125 20.140625 9.421875 
Q 21.96875 7.515625 27.59375 7.515625 
L 36.8125 7.515625 
L 36.8125 0 
L 27.59375 0 
Q 17.1875 0 13.234375 3.875 
Q 9.28125 7.765625 9.28125 18.015625 
L 9.28125 47.703125 
L 2.6875 47.703125 
L 2.6875 54.6875 
L 9.28125 54.6875 
L 9.28125 70.21875 
z
" id="DejaVuSans-74"/>
      <path d="M 56.203125 29.59375 
L 56.203125 25.203125 
L 14.890625 25.203125 
Q 15.484375 15.921875 20.484375 11.0625 
Q 25.484375 6.203125 34.421875 6.203125 
Q 39.59375 6.203125 44.453125 7.46875 
Q 49.3125 8.734375 54.109375 11.28125 
L 54.109375 2.78125 
Q 49.265625 0.734375 44.1875 -0.34375 
Q 39.109375 -1.421875 33.890625 -1.421875 
Q 20.796875 -1.421875 13.15625 6.1875 
Q 5.515625 13.8125 5.515625 26.8125 
Q 5.515625 40.234375 12.765625 48.109375 
Q 20.015625 56 32.328125 56 
Q 43.359375 56 49.78125 48.890625 
Q 56.203125 41.796875 56.203125 29.59375 
z
M 47.21875 32.234375 
Q 47.125 39.59375 43.09375 43.984375 
Q 39.0625 48.390625 32.421875 48.390625 
Q 24.90625 48.390625 20.390625 44.140625 
Q 15.875 39.890625 15.1875 32.171875 
z
" id="DejaVuSans-65"/>
      <path d="M 18.109375 8.203125 
L 18.109375 -20.796875 
L 9.078125 -20.796875 
L 9.078125 54.6875 
L 18.109375 54.6875 
L 18.109375 46.390625 
Q 20.953125 51.265625 25.265625 53.625 
Q 29.59375 56 35.59375 56 
Q 45.5625 56 51.78125 48.09375 
Q 58.015625 40.1875 58.015625 27.296875 
Q 58.015625 14.40625 51.78125 6.484375 
Q 45.5625 -1.421875 35.59375 -1.421875 
Q 29.59375 -1.421875 25.265625 0.953125 
Q 20.953125 3.328125 18.109375 8.203125 
z
M 48.6875 27.296875 
Q 48.6875 37.203125 44.609375 42.84375 
Q 40.53125 48.484375 33.40625 48.484375 
Q 26.265625 48.484375 22.1875 42.84375 
Q 18.109375 37.203125 18.109375 27.296875 
Q 18.109375 17.390625 22.1875 11.75 
Q 26.265625 6.109375 33.40625 6.109375 
Q 40.53125 6.109375 44.609375 11.75 
Q 48.6875 17.390625 48.6875 27.296875 
z
" id="DejaVuSans-70"/>
     </defs>
     <g transform="translate(233.227969 316.706687)scale(0.1 -0.1)">
      <use xlink:href="#DejaVuSans-53"/>
      <use x="63.476562" xlink:href="#DejaVuSans-74"/>
      <use x="102.685547" xlink:href="#DejaVuSans-65"/>
      <use x="164.208984" xlink:href="#DejaVuSans-70"/>
     </g>
    </g>
   </g>
   <g id="matplotlib.axis_2">
    <g id="ytick_1">
     <g id="line2d_6">
      <defs>
       <path d="M 0 0 
L -3.5 0 
" id="m843e7717b7" style="stroke:#000000;stroke-width:0.8;"/>
      </defs>
      <g>
       <use style="stroke:#000000;stroke-width:0.8;" x="66.053125" xlink:href="#m843e7717b7" y="258.524531"/>
      </g>
     </g>
     <g id="text_7">
      <!-- 550000 -->
      <defs>
       <path d="M 10.796875 72.90625 
L 49.515625 72.90625 
L 49.515625 64.59375 
L 19.828125 64.59375 
L 19.828125 46.734375 
Q 21.96875 47.46875 24.109375 47.828125 
Q 26.265625 48.1875 28.421875 48.1875 
Q 40.625 48.1875 47.75 41.5 
Q 54.890625 34.8125 54.890625 23.390625 
Q 54.890625 11.625 47.5625 5.09375 
Q 40.234375 -1.421875 26.90625 -1.421875 
Q 22.3125 -1.421875 17.546875 -0.640625 
Q 12.796875 0.140625 7.71875 1.703125 
L 7.71875 11.625 
Q 12.109375 9.234375 16.796875 8.0625 
Q 21.484375 6.890625 26.703125 6.890625 
Q 35.15625 6.890625 40.078125 11.328125 
Q 45.015625 15.765625 45.015625 23.390625 
Q 45.015625 31 40.078125 35.4375 
Q 35.15625 39.890625 26.703125 39.890625 
Q 22.75 39.890625 18.8125 39.015625 
Q 14.890625 38.140625 10.796875 36.28125 
z
" id="DejaVuSans-35"/>
      </defs>
      <g transform="translate(20.878125 262.32375)scale(0.1 -0.1)">
       <use xlink:href="#DejaVuSans-35"/>
       <use x="63.623047" xlink:href="#DejaVuSans-35"/>
       <use x="127.246094" xlink:href="#DejaVuSans-30"/>
       <use x="190.869141" xlink:href="#DejaVuSans-30"/>
       <use x="254.492188" xlink:href="#DejaVuSans-30"/>
       <use x="318.115234" xlink:href="#DejaVuSans-30"/>
      </g>
     </g>
    </g>
    <g id="ytick_2">
     <g id="line2d_7">
      <g>
       <use style="stroke:#000000;stroke-width:0.8;" x="66.053125" xlink:href="#m843e7717b7" y="209.650996"/>
      </g>
     </g>
     <g id="text_8">
      <!-- 600000 -->
      <g transform="translate(20.878125 213.450215)scale(0.1 -0.1)">
       <use xlink:href="#DejaVuSans-36"/>
       <use x="63.623047" xlink:href="#DejaVuSans-30"/>
       <use x="127.246094" xlink:href="#DejaVuSans-30"/>
       <use x="190.869141" xlink:href="#DejaVuSans-30"/>
       <use x="254.492188" xlink:href="#DejaVuSans-30"/>
       <use x="318.115234" xlink:href="#DejaVuSans-30"/>
      </g>
     </g>
    </g>
    <g id="ytick_3">
     <g id="line2d_8">
      <g>
       <use style="stroke:#000000;stroke-width:0.8;" x="66.053125" xlink:href="#m843e7717b7" y="160.777461"/>
      </g>
     </g>
     <g id="text_9">
      <!-- 650000 -->
      <g transform="translate(20.878125 164.57668)scale(0.1 -0.1)">
       <use xlink:href="#DejaVuSans-36"/>
       <use x="63.623047" xlink:href="#DejaVuSans-35"/>
       <use x="127.246094" xlink:href="#DejaVuSans-30"/>
       <use x="190.869141" xlink:href="#DejaVuSans-30"/>
       <use x="254.492188" xlink:href="#DejaVuSans-30"/>
       <use x="318.115234" xlink:href="#DejaVuSans-30"/>
      </g>
     </g>
    </g>
    <g id="ytick_4">
     <g id="line2d_9">
      <g>
       <use style="stroke:#000000;stroke-width:0.8;" x="66.053125" xlink:href="#m843e7717b7" y="111.903926"/>
      </g>
     </g>
     <g id="text_10">
      <!-- 700000 -->
      <defs>
       <path d="M 8.203125 72.90625 
L 55.078125 72.90625 
L 55.078125 68.703125 
L 28.609375 0 
L 18.3125 0 
L 43.21875 64.59375 
L 8.203125 64.59375 
z
" id="DejaVuSans-37"/>
      </defs>
      <g transform="translate(20.878125 115.703145)scale(0.1 -0.1)">
       <use xlink:href="#DejaVuSans-37"/>
       <use x="63.623047" xlink:href="#DejaVuSans-30"/>
       <use x="127.246094" xlink:href="#DejaVuSans-30"/>
       <use x="190.869141" xlink:href="#DejaVuSans-30"/>
       <use x="254.492188" xlink:href="#DejaVuSans-30"/>
       <use x="318.115234" xlink:href="#DejaVuSans-30"/>
      </g>
     </g>
    </g>
    <g id="ytick_5">
     <g id="line2d_10">
      <g>
       <use style="stroke:#000000;stroke-width:0.8;" x="66.053125" xlink:href="#m843e7717b7" y="63.030391"/>
      </g>
     </g>
     <g id="text_11">
      <!-- 750000 -->
      <g transform="translate(20.878125 66.829609)scale(0.1 -0.1)">
       <use xlink:href="#DejaVuSans-37"/>
       <use x="63.623047" xlink:href="#DejaVuSans-35"/>
       <use x="127.246094" xlink:href="#DejaVuSans-30"/>
       <use x="190.869141" xlink:href="#DejaVuSans-30"/>
       <use x="254.492188" xlink:href="#DejaVuSans-30"/>
       <use x="318.115234" xlink:href="#DejaVuSans-30"/>
      </g>
     </g>
    </g>
    <g id="text_12">
     <!-- Persistence Distance -->
     <defs>
      <path d="M 19.671875 64.796875 
L 19.671875 37.40625 
L 32.078125 37.40625 
Q 38.96875 37.40625 42.71875 40.96875 
Q 46.484375 44.53125 46.484375 51.125 
Q 46.484375 57.671875 42.71875 61.234375 
Q 38.96875 64.796875 32.078125 64.796875 
z
M 9.8125 72.90625 
L 32.078125 72.90625 
Q 44.34375 72.90625 50.609375 67.359375 
Q 56.890625 61.8125 56.890625 51.125 
Q 56.890625 40.328125 50.609375 34.8125 
Q 44.34375 29.296875 32.078125 29.296875 
L 19.671875 29.296875 
L 19.671875 0 
L 9.8125 0 
z
" id="DejaVuSans-50"/>
      <path d="M 41.109375 46.296875 
Q 39.59375 47.171875 37.8125 47.578125 
Q 36.03125 48 33.890625 48 
Q 26.265625 48 22.1875 43.046875 
Q 18.109375 38.09375 18.109375 28.8125 
L 18.109375 0 
L 9.078125 0 
L 9.078125 54.6875 
L 18.109375 54.6875 
L 18.109375 46.1875 
Q 20.953125 51.171875 25.484375 53.578125 
Q 30.03125 56 36.53125 56 
Q 37.453125 56 38.578125 55.875 
Q 39.703125 55.765625 41.0625 55.515625 
z
" id="DejaVuSans-72"/>
      <path d="M 44.28125 53.078125 
L 44.28125 44.578125 
Q 40.484375 46.53125 36.375 47.5 
Q 32.28125 48.484375 27.875 48.484375 
Q 21.1875 48.484375 17.84375 46.4375 
Q 14.5 44.390625 14.5 40.28125 
Q 14.5 37.15625 16.890625 35.375 
Q 19.28125 33.59375 26.515625 31.984375 
L 29.59375 31.296875 
Q 39.15625 29.25 43.1875 25.515625 
Q 47.21875 21.78125 47.21875 15.09375 
Q 47.21875 7.46875 41.1875 3.015625 
Q 35.15625 -1.421875 24.609375 -1.421875 
Q 20.21875 -1.421875 15.453125 -0.5625 
Q 10.6875 0.296875 5.421875 2 
L 5.421875 11.28125 
Q 10.40625 8.6875 15.234375 7.390625 
Q 20.0625 6.109375 24.8125 6.109375 
Q 31.15625 6.109375 34.5625 8.28125 
Q 37.984375 10.453125 37.984375 14.40625 
Q 37.984375 18.0625 35.515625 20.015625 
Q 33.0625 21.96875 24.703125 23.78125 
L 21.578125 24.515625 
Q 13.234375 26.265625 9.515625 29.90625 
Q 5.8125 33.546875 5.8125 39.890625 
Q 5.8125 47.609375 11.28125 51.796875 
Q 16.75 56 26.8125 56 
Q 31.78125 56 36.171875 55.265625 
Q 40.578125 54.546875 44.28125 53.078125 
z
" id="DejaVuSans-73"/>
      <path d="M 9.421875 54.6875 
L 18.40625 54.6875 
L 18.40625 0 
L 9.421875 0 
z
M 9.421875 75.984375 
L 18.40625 75.984375 
L 18.40625 64.59375 
L 9.421875 64.59375 
z
" id="DejaVuSans-69"/>
      <path d="M 54.890625 33.015625 
L 54.890625 0 
L 45.90625 0 
L 45.90625 32.71875 
Q 45.90625 40.484375 42.875 44.328125 
Q 39.84375 48.1875 33.796875 48.1875 
Q 26.515625 48.1875 22.3125 43.546875 
Q 18.109375 38.921875 18.109375 30.90625 
L 18.109375 0 
L 9.078125 0 
L 9.078125 54.6875 
L 18.109375 54.6875 
L 18.109375 46.1875 
Q 21.34375 51.125 25.703125 53.5625 
Q 30.078125 56 35.796875 56 
Q 45.21875 56 50.046875 50.171875 
Q 54.890625 44.34375 54.890625 33.015625 
z
" id="DejaVuSans-6e"/>
      <path d="M 48.78125 52.59375 
L 48.78125 44.1875 
Q 44.96875 46.296875 41.140625 47.34375 
Q 37.3125 48.390625 33.40625 48.390625 
Q 24.65625 48.390625 19.8125 42.84375 
Q 14.984375 37.3125 14.984375 27.296875 
Q 14.984375 17.28125 19.8125 11.734375 
Q 24.65625 6.203125 33.40625 6.203125 
Q 37.3125 6.203125 41.140625 7.25 
Q 44.96875 8.296875 48.78125 10.40625 
L 48.78125 2.09375 
Q 45.015625 0.34375 40.984375 -0.53125 
Q 36.96875 -1.421875 32.421875 -1.421875 
Q 20.0625 -1.421875 12.78125 6.34375 
Q 5.515625 14.109375 5.515625 27.296875 
Q 5.515625 40.671875 12.859375 48.328125 
Q 20.21875 56 33.015625 56 
Q 37.15625 56 41.109375 55.140625 
Q 45.0625 54.296875 48.78125 52.59375 
z
" id="DejaVuSans-63"/>
      <path id="DejaVuSans-20"/>
      <path d="M 19.671875 64.796875 
L 19.671875 8.109375 
L 31.59375 8.109375 
Q 46.6875 8.109375 53.6875 14.9375 
Q 60.6875 21.78125 60.6875 36.53125 
Q 60.6875 51.171875 53.6875 57.984375 
Q 46.6875 64.796875 31.59375 64.796875 
z
M 9.8125 72.90625 
L 30.078125 72.90625 
Q 51.265625 72.90625 61.171875 64.09375 
Q 71.09375 55.28125 71.09375 36.53125 
Q 71.09375 17.671875 61.125 8.828125 
Q 51.171875 0 30.078125 0 
L 9.8125 0 
z
" id="DejaVuSans-44"/>
      <path d="M 34.28125 27.484375 
Q 23.390625 27.484375 19.1875 25 
Q 14.984375 22.515625 14.984375 16.5 
Q 14.984375 11.71875 18.140625 8.90625 
Q 21.296875 6.109375 26.703125 6.109375 
Q 34.1875 6.109375 38.703125 11.40625 
Q 43.21875 16.703125 43.21875 25.484375 
L 43.21875 27.484375 
z
M 52.203125 31.203125 
L 52.203125 0 
L 43.21875 0 
L 43.21875 8.296875 
Q 40.140625 3.328125 35.546875 0.953125 
Q 30.953125 -1.421875 24.3125 -1.421875 
Q 15.921875 -1.421875 10.953125 3.296875 
Q 6 8.015625 6 15.921875 
Q 6 25.140625 12.171875 29.828125 
Q 18.359375 34.515625 30.609375 34.515625 
L 43.21875 34.515625 
L 43.21875 35.40625 
Q 43.21875 41.609375 39.140625 45 
Q 35.0625 48.390625 27.6875 48.390625 
Q 23 48.390625 18.546875 47.265625 
Q 14.109375 46.140625 10.015625 43.890625 
L 10.015625 52.203125 
Q 14.9375 54.109375 19.578125 55.046875 
Q 24.21875 56 28.609375 56 
Q 40.484375 56 46.34375 49.84375 
Q 52.203125 43.703125 52.203125 31.203125 
z
" id="DejaVuSans-61"/>
     </defs>
     <g transform="translate(14.798438 207.599906)rotate(-90)scale(0.1 -0.1)">
      <use xlink:href="#DejaVuSans-50"/>
      <use x="60.255859" xlink:href="#DejaVuSans-65"/>
      <use x="121.779297" xlink:href="#DejaVuSans-72"/>
      <use x="162.892578" xlink:href="#DejaVuSans-73"/>
      <use x="214.992188" xlink:href="#DejaVuSans-69"/>
      <use x="242.775391" xlink:href="#DejaVuSans-73"/>
      <use x="294.875" xlink:href="#DejaVuSans-74"/>
      <use x="334.083984" xlink:href="#DejaVuSans-65"/>
      <use x="395.607422" xlink:href="#DejaVuSans-6e"/>
      <use x="458.986328" xlink:href="#DejaVuSans-63"/>
      <use x="513.966797" xlink:href="#DejaVuSans-65"/>
      <use x="575.490234" xlink:href="#DejaVuSans-20"/>
      <use x="607.277344" xlink:href="#DejaVuSans-44"/>
      <use x="684.279297" xlink:href="#DejaVuSans-69"/>
      <use x="712.0625" xlink:href="#DejaVuSans-73"/>
      <use x="764.162109" xlink:href="#DejaVuSans-74"/>
      <use x="803.371094" xlink:href="#DejaVuSans-61"/>
      <use x="864.650391" xlink:href="#DejaVuSans-6e"/>
      <use x="928.029297" xlink:href="#DejaVuSans-63"/>
      <use x="983.009766" xlink:href="#DejaVuSans-65"/>
     </g>
    </g>
   </g>
   <g id="line2d_11">
    <path clip-path="url(#pf9d5d4aa37)" d="M 66.053125 36.170381 
L 69.660398 38.767137 
L 73.26767 41.363893 
L 76.874943 43.960648 
L 80.482216 46.557404 
L 84.089489 49.154159 
L 87.696761 51.750915 
L 91.304034 54.347671 
L 94.911307 56.944426 
L 98.51858 59.541182 
L 102.125852 62.137938 
L 105.733125 64.734693 
L 109.340398 67.331449 
L 112.94767 69.928205 
L 116.554943 72.52496 
L 120.162216 75.121716 
L 123.769489 77.718472 
L 127.376761 80.315227 
L 130.984034 82.911983 
L 134.591307 85.508739 
L 138.19858 88.105494 
L 141.805852 90.70225 
L 145.413125 93.299006 
L 149.020398 95.895761 
L 152.62767 98.492517 
L 156.234943 101.089273 
L 159.842216 103.686028 
L 163.449489 106.282784 
L 167.056761 108.87954 
L 170.664034 111.476295 
L 174.271307 114.073051 
L 177.87858 116.669807 
L 181.485852 119.266562 
L 185.093125 121.863318 
L 188.700398 124.460074 
L 192.30767 127.056829 
L 195.914943 129.653585 
L 199.522216 132.25034 
L 203.129489 134.847096 
L 206.736761 137.443852 
L 210.344034 140.040607 
L 213.951307 142.637363 
L 217.55858 145.234119 
L 221.165852 147.830874 
L 224.773125 150.42763 
L 228.380398 153.024386 
L 231.98767 155.621141 
L 235.594943 158.217897 
L 239.202216 160.814653 
L 242.809489 163.411408 
L 246.416761 166.008164 
L 250.024034 168.60492 
L 253.631307 171.201675 
L 257.23858 173.798431 
L 260.845852 176.395187 
L 264.453125 178.991942 
L 268.060398 181.588698 
L 271.66767 184.185454 
L 275.274943 186.782209 
L 278.882216 189.378965 
L 282.489489 191.975721 
L 286.096761 194.572476 
L 289.704034 197.169232 
L 293.311307 199.765988 
L 296.91858 202.362743 
L 300.525852 204.959499 
L 304.133125 207.556255 
L 307.740398 210.15301 
L 311.34767 212.749766 
L 314.954943 215.346521 
L 318.562216 217.943277 
L 322.169489 220.540033 
L 325.776761 223.136788 
L 329.384034 225.733544 
L 332.991307 228.3303 
L 336.59858 230.927055 
L 340.205852 233.523811 
L 343.813125 236.120567 
L 347.420398 238.717322 
L 351.02767 241.314078 
L 354.634943 243.910834 
L 358.242216 246.507589 
L 361.849489 249.104345 
L 365.456761 251.701101 
L 369.064034 254.297856 
L 372.671307 256.894612 
L 376.27858 259.491368 
L 379.885852 262.088123 
L 383.493125 264.684879 
L 387.100398 267.281635 
L 390.70767 269.87839 
L 394.314943 272.475146 
L 397.922216 275.071902 
L 401.529489 277.668657 
L 405.136761 280.265413 
L 408.744034 282.862169 
L 412.351307 285.458924 
L 415.95858 288.05568 
L 419.565852 290.652436 
L 423.173125 293.249191 
" style="fill:none;stroke:#c0c0c0;stroke-linecap:square;stroke-width:3;"/>
   </g>
   <g id="patch_3">
    <path d="M 66.053125 288.430125 
L 66.053125 22.318125 
" style="fill:none;stroke:#000000;stroke-linecap:square;stroke-linejoin:miter;stroke-width:0.8;"/>
   </g>
   <g id="patch_4">
    <path d="M 423.173125 288.430125 
L 423.173125 22.318125 
" style="fill:none;stroke:#000000;stroke-linecap:square;stroke-linejoin:miter;stroke-width:0.8;"/>
   </g>
   <g id="patch_5">
    <path d="M 66.053125 288.430125 
L 423.173125 288.430125 
" style="fill:none;stroke:#000000;stroke-linecap:square;stroke-linejoin:miter;stroke-width:0.8;"/>
   </g>
   <g id="patch_6">
    <path d="M 66.053125 22.318125 
L 423.173125 22.318125 
" style="fill:none;stroke:#000000;stroke-linecap:square;stroke-linejoin:miter;stroke-width:0.8;"/>
   </g>
   <g id="text_13">
    <!-- Step vs Persistence Distance -->
    <defs>
     <path d="M 2.984375 54.6875 
L 12.5 54.6875 
L 29.59375 8.796875 
L 46.6875 54.6875 
L 56.203125 54.6875 
L 35.6875 0 
L 23.484375 0 
z
" id="DejaVuSans-76"/>
    </defs>
    <g transform="translate(157.789375 16.318125)scale(0.12 -0.12)">
     <use xlink:href="#DejaVuSans-53"/>
     <use x="63.476562" xlink:href="#DejaVuSans-74"/>
     <use x="102.685547" xlink:href="#DejaVuSans-65"/>
     <use x="164.208984" xlink:href="#DejaVuSans-70"/>
     <use x="227.685547" xlink:href="#DejaVuSans-20"/>
     <use x="259.472656" xlink:href="#DejaVuSans-76"/>
     <use x="318.652344" xlink:href="#DejaVuSans-73"/>
     <use x="370.751953" xlink:href="#DejaVuSans-20"/>
     <use x="402.539062" xlink:href="#DejaVuSans-50"/>
     <use x="462.794922" xlink:href="#DejaVuSans-65"/>
     <use x="524.318359" xlink:href="#DejaVuSans-72"/>
     <use x="565.431641" xlink:href="#DejaVuSans-73"/>
     <use x="617.53125" xlink:href="#DejaVuSans-69"/>
     <use x="645.314453" xlink:href="#DejaVuSans-73"/>
     <use x="697.414062" xlink:href="#DejaVuSans-74"/>
     <use x="736.623047" xlink:href="#DejaVuSans-65"/>
     <use x="798.146484" xlink:href="#DejaVuSans-6e"/>
     <use x="861.525391" xlink:href="#DejaVuSans-63"/>
     <use x="916.505859" xlink:href="#DejaVuSans-65"/>
     <use x="978.029297" xlink:href="#DejaVuSans-20"/>
     <use x="1009.816406" xlink:href="#DejaVuSans-44"/>
     <use x="1086.818359" xlink:href="#DejaVuSans-69"/>
     <use x="1114.601562" xlink:href="#DejaVuSans-73"/>
     <use x="1166.701172" xlink:href="#DejaVuSans-74"/>
     <use x="1205.910156" xlink:href="#DejaVuSans-61"/>
     <use x="1267.189453" xlink:href="#DejaVuSans-6e"/>
     <use x="1330.568359" xlink:href="#DejaVuSans-63"/>
     <use x="1385.548828" xlink:href="#DejaVuSans-65"/>
    </g>
   </g>
  </g>
 </g>
 <defs>
  <clipPath id="pf9d5d4aa37">
   <rect height="266.112" width="357.12" x="66.053125" y="22.318125"/>
  </clipPath>
 </defs>
</svg>
